<?xml version="1.0" encoding="UTF-8"?>
<svg version="1.1" xmlns="http://www.w3.org/2000/svg" width="500" height="500">
<path d="M0 0 C2.96413159 0.02144214 5.92583381 0.00007506 8.88989258 -0.02539062 C26.03255875 -0.05217437 41.63061643 3.01748436 57.9074707 8.33398438 C59.49760986 8.84674927 59.49760986 8.84674927 61.11987305 9.36987305 C69.00107985 11.99310773 75.89367236 15.26978299 83.0324707 19.52148438 C85.34137472 20.6139121 87.65997697 21.57248688 90.0324707 22.52148438 C90.6924707 22.85148437 91.3524707 23.18148437 92.0324707 23.52148438 C92.0324707 24.18148437 92.0324707 24.84148437 92.0324707 25.52148438 C92.74918945 25.78703125 93.4659082 26.05257812 94.2043457 26.32617188 C102.12253247 29.67280882 108.83682785 34.94255326 115.1027832 40.74023438 C116.6057003 42.12754246 118.18179162 43.43571692 119.7824707 44.70898438 C123.8928857 48.02015201 127.34092102 51.79251333 130.6652832 55.88085938 C131.61286227 57.01795425 132.58924665 58.13141983 133.5871582 59.22460938 C137.39061841 63.39614638 140.74428943 67.77245627 143.9699707 72.39648438 C144.37183594 72.96826416 144.77370117 73.54004395 145.18774414 74.12915039 C148.0324707 78.27306778 148.0324707 78.27306778 148.0324707 80.52148438 C148.6924707 80.52148438 149.3524707 80.52148438 150.0324707 80.52148438 C150.56356445 81.59527344 151.0946582 82.6690625 151.6418457 83.77539062 C152.35527815 85.2116428 153.06882599 86.64783766 153.7824707 88.08398438 C154.13051758 88.78845703 154.47856445 89.49292969 154.8371582 90.21875 C156.49443655 93.54865186 158.18243126 96.80485679 160.1105957 99.98632812 C162.41688378 103.95656789 163.67503717 108.15618583 165.0324707 112.52148438 C165.5281364 113.95528176 166.0281107 115.3875972 166.5324707 116.81835938 C177.85396025 149.94474853 178.67071561 189.60581284 167.27075195 222.86132812 C166.13239825 226.22611495 165.20379527 229.59281074 164.2824707 233.02148438 C161.99968244 240.54623088 158.03804623 247.03651391 154.04736328 253.75488281 C152.59352102 256.2855546 151.33595261 258.91091979 150.0324707 261.52148438 C149.04402188 263.16638395 148.02510482 264.79354405 146.9699707 266.39648438 C146.46336914 267.17765625 145.95676758 267.95882813 145.43481445 268.76367188 C144.7406543 269.63378906 144.7406543 269.63378906 144.0324707 270.52148438 C143.3724707 270.52148438 142.7124707 270.52148438 142.0324707 270.52148438 C141.88358398 271.39546875 141.88358398 271.39546875 141.73168945 272.28710938 C140.89869123 274.94898079 139.74456574 276.24189497 137.8449707 278.27148438 C135.34941355 281.00690081 133.06754621 283.76421042 130.9074707 286.77148438 C128.58915628 289.92611382 126.18956 292.17390515 123.0324707 294.52148438 C122.29383789 295.26398438 121.55520508 296.00648438 120.79418945 296.77148438 C117.7769812 299.77588976 114.64187558 302.56849436 111.4074707 305.33398438 C110.54895508 306.08711914 110.54895508 306.08711914 109.6730957 306.85546875 C105.38360803 310.52148438 105.38360803 310.52148438 102.0324707 310.52148438 C102.0324707 311.18148438 102.0324707 311.84148437 102.0324707 312.52148438 C100.3527832 313.81054688 100.3527832 313.81054688 98.1574707 315.14648438 C97.43817383 315.5925 96.71887695 316.03851563 95.9777832 316.49804688 C94.0324707 317.52148438 94.0324707 317.52148438 92.0324707 317.52148438 C92.0324707 318.18148438 92.0324707 318.84148437 92.0324707 319.52148438 C91.47261475 319.78364746 90.91275879 320.04581055 90.3359375 320.31591797 C87.79610545 321.50694986 85.25802714 322.70167369 82.7199707 323.89648438 C81.83889648 324.30898438 80.95782227 324.72148437 80.05004883 325.14648438 C79.20249023 325.54609375 78.35493164 325.94570313 77.48168945 326.35742188 C76.70140381 326.72399902 75.92111816 327.09057617 75.1171875 327.46826172 C72.82000777 328.57652799 72.82000777 328.57652799 70.0324707 330.52148438 C68.72170474 331.03222815 67.3920595 331.49579498 66.05200195 331.92382812 C64.85438232 332.30837158 64.85438232 332.30837158 63.63256836 332.70068359 C62.34552002 333.10697998 62.34552002 333.10697998 61.0324707 333.52148438 C60.15510254 333.80652832 59.27773438 334.09157227 58.3737793 334.38525391 C23.05893695 345.74557817 -20.06356034 348.12719996 -54.78393555 332.90820312 C-57.44225596 331.75028442 -59.85484964 330.95564694 -62.6550293 330.27148438 C-68.01044064 328.73088659 -72.4253756 326.10339045 -77.15893555 323.20898438 C-79.42404285 321.84802978 -81.63389096 320.68160194 -84.0300293 319.58398438 C-89.472364 316.94185508 -94.16600053 313.16332187 -98.9675293 309.52148438 C-99.85956055 308.86019531 -100.7515918 308.19890625 -101.6706543 307.51757812 C-102.49049805 306.90011719 -103.3103418 306.28265625 -104.1550293 305.64648438 C-104.89108398 305.0921875 -105.62713867 304.53789062 -106.38549805 303.96679688 C-106.90756836 303.48984375 -107.42963867 303.01289063 -107.9675293 302.52148438 C-107.9675293 301.86148437 -107.9675293 301.20148438 -107.9675293 300.52148438 C-108.55920898 300.43253906 -109.15088867 300.34359375 -109.76049805 300.25195312 C-112.54530101 299.33025728 -113.46176966 298.11223333 -115.2800293 295.83398438 C-117.61481907 293.01613465 -119.92288193 290.61970227 -122.7800293 288.33398438 C-125.60171829 286.0247546 -127.01101482 284.13498349 -127.9675293 280.52148438 C-128.6275293 280.52148438 -129.2875293 280.52148438 -129.9675293 280.52148438 C-134.77506309 275.43802149 -138.58815322 269.79375705 -141.81518555 263.61132812 C-142.94254523 261.56679446 -144.19242278 259.76190819 -145.5925293 257.89648438 C-147.53117717 255.25560182 -148.91245956 252.66074671 -150.1081543 249.59179688 C-150.96715198 247.44012848 -150.96715198 247.44012848 -152.2019043 245.13867188 C-156.11306788 237.42148352 -158.68191901 229.48428205 -161.1550293 221.20898438 C-161.48784912 220.1071582 -161.82066895 219.00533203 -162.16357422 217.87011719 C-166.72155172 202.22117561 -168.5526221 187.68103825 -168.4675293 171.45898438 C-168.46576691 170.5579599 -168.46400452 169.65693542 -168.46218872 168.72860718 C-168.39991312 154.42217525 -167.18415449 141.25690553 -162.9675293 127.52148438 C-162.43015487 125.63242182 -161.89372139 123.74309137 -161.3581543 121.85351562 C-157.18496766 107.60402428 -151.95237855 93.5059804 -143.25268555 81.34960938 C-141.77654757 79.32727308 -141.77654757 79.32727308 -140.1550293 76.14648438 C-131.35080458 60.45042802 -114.61773252 43.76028812 -99.9675293 33.52148438 C-99.3075293 33.52148438 -98.6475293 33.52148438 -97.9675293 33.52148438 C-97.9675293 32.86148438 -97.9675293 32.20148438 -97.9675293 31.52148438 C-96.0612793 30.18945313 -96.0612793 30.18945313 -93.4675293 28.70898438 C-90.34276128 26.9103139 -87.2638224 25.07652799 -84.22924805 23.13085938 C-70.87456529 14.7625744 -56.28487484 8.92768081 -40.99365234 5.25097656 C-38.69504457 4.6968628 -36.40633046 4.10151624 -34.12304688 3.48730469 C-22.70855952 0.54214248 -11.76086308 -0.10082679 0 0 Z M-19.58862305 7.54492188 C-21.51544922 7.86976562 -21.51544922 7.86976562 -23.48120117 8.20117188 C-24.77606445 8.430625 -26.07092773 8.66007812 -27.4050293 8.89648438 C-28.74017014 9.12130916 -30.0754566 9.34527095 -31.41088867 9.56835938 C-37.17909628 10.55936018 -42.38735253 11.66142545 -47.9675293 13.52148438 C-47.9675293 55.76148438 -47.9675293 98.00148438 -47.9675293 141.52148438 C-22.80566923 142.65611233 -22.80566923 142.65611233 2.0324707 140.52148438 C2.16599695 107.68224473 1.97641776 74.85756867 1.5324707 42.02148438 C1.52051289 41.13671165 1.50855507 40.25193893 1.49623489 39.34035492 C1.34781745 28.40064149 1.19317151 17.46102417 1.0324707 6.52148438 C-5.94544968 6.42401365 -12.70133029 6.36721941 -19.58862305 7.54492188 Z M9.0324707 6.52148438 C9.0324707 41.17148438 9.0324707 75.82148438 9.0324707 111.52148438 C12.0024707 110.53148437 12.0024707 110.53148437 15.0324707 109.52148438 C18.13793945 109.29101562 18.13793945 109.29101562 21.2199707 109.33398438 C22.24477539 109.34042969 23.26958008 109.346875 24.32543945 109.35351562 C27.0324707 109.52148438 27.0324707 109.52148438 30.0324707 110.52148438 C31.0224707 109.53148437 31.0224707 109.53148437 32.0324707 108.52148438 C32.05500514 106.0718526 32.05500514 106.0718526 31.6574707 103.39648438 C31.54661133 102.48640625 31.43575195 101.57632813 31.3215332 100.63867188 C31.22614258 99.94 31.13075195 99.24132812 31.0324707 98.52148438 C30.34540039 98.26753906 29.65833008 98.01359375 28.95043945 97.75195312 C27.59885742 97.23568359 27.59885742 97.23568359 26.2199707 96.70898438 C25.32665039 96.37253906 24.43333008 96.03609375 23.51293945 95.68945312 C21.06630449 94.53741556 19.63551125 93.68746558 18.0324707 91.52148438 C18.19719519 86.99156096 18.77626751 83.77768756 22.0324707 80.52148438 C26.39069316 79.06874356 30.48185551 78.88866445 35.0324707 79.52148438 C38.45566019 81.7820812 40.83560298 84.315242 43.6574707 87.27148438 C45.93451337 89.42868269 46.97990773 90.18231071 50.0324707 90.52148438 C50.3624707 92.17148438 50.6924707 93.82148438 51.0324707 95.52148438 C56.10527873 95.50209203 61.17634511 95.45046468 66.24853516 95.36889648 C67.97402456 95.34569526 69.699656 95.33131576 71.42529297 95.32592773 C73.90593187 95.31665298 76.38433042 95.27570087 78.86450195 95.22851562 C80.02246025 95.2344146 80.02246025 95.2344146 81.20381165 95.24043274 C83.64616204 95.22888417 83.64616204 95.22888417 87.0324707 94.52148438 C89.03882423 92.19560868 89.03882423 92.19560868 90.0324707 89.52148438 C92.09897598 87.09558688 94.13088206 85.82219652 97.0324707 84.52148438 C96.8377596 82.57149308 96.8377596 82.57149308 96.0324707 80.52148438 C93.26246654 78.78946393 91.14644037 78.2739276 87.90649414 78.29443359 C87.10596619 78.29458466 86.30543823 78.29473572 85.48065186 78.29489136 C84.19919281 78.31037521 84.19919281 78.31037521 82.8918457 78.32617188 C82.0096637 78.32900177 81.12748169 78.33183167 80.21856689 78.33474731 C77.40639572 78.34592476 74.5945453 78.37102487 71.7824707 78.39648438 C69.87362114 78.40651732 67.96476658 78.41564263 66.0559082 78.42382812 C61.38130581 78.44585613 56.70694261 78.48036926 52.0324707 78.52148438 C52.17142027 74.43788622 52.31982008 70.35468481 52.4699707 66.27148438 C52.50928711 65.11261719 52.54860352 63.95375 52.58911133 62.75976562 C52.65195312 61.08720703 52.65195312 61.08720703 52.71606445 59.38085938 C52.75272217 58.35444336 52.78937988 57.32802734 52.82714844 56.27050781 C53.00629902 53.87189244 53.43281386 51.83544008 54.0324707 49.52148438 C54.07135419 47.18847505 54.0773342 44.85438637 54.0324707 42.52148438 C57.00830343 40.77726027 58.70238977 40.32576983 62.0949707 40.89648438 C68.72638849 41.81417646 75.27691996 41.92148368 81.9074707 40.95898438 C85.08015885 40.51480803 86.94056385 40.85893291 90.0324707 41.52148438 C92.34102309 41.55832298 94.63865048 41.52199824 96.9465332 41.45898438 C99.0324707 41.52148438 99.0324707 41.52148438 102.0324707 42.52148438 C102.3624707 41.53148437 102.6924707 40.54148438 103.0324707 39.52148438 C101.57881801 38.34899085 100.11939651 37.18364622 98.6574707 36.02148438 C97.84536133 35.37179688 97.03325195 34.72210938 96.1965332 34.05273438 C94.20220228 32.32894823 94.20220228 32.32894823 92.0324707 32.52148438 C92.0324707 31.86148438 92.0324707 31.20148438 92.0324707 30.52148438 C91.02958008 30.10382813 90.02668945 29.68617187 88.9934082 29.25585938 C85.78939387 27.88294004 82.69061587 26.36665309 79.59399414 24.76855469 C64.01137401 16.74543055 49.36327751 11.39248412 32.0324707 8.52148438 C30.77692383 8.29589844 29.52137695 8.0703125 28.2277832 7.83789062 C21.56105948 6.70062599 15.99736372 6.52148438 9.0324707 6.52148438 Z M-77.79174805 27.61914062 C-81.1235952 29.61497035 -84.3726506 31.06996732 -87.9675293 32.52148438 C-87.9675293 33.18148437 -87.9675293 33.84148437 -87.9675293 34.52148438 C-88.7100293 34.78960937 -89.4525293 35.05773437 -90.2175293 35.33398438 C-93.94611966 36.9177619 -93.94611966 36.9177619 -96.9675293 39.52148438 C-97.34250976 42.42529411 -97.45594432 44.94320803 -97.39331055 47.84570312 C-97.39038498 48.71181213 -97.38745941 49.57792114 -97.38444519 50.47027588 C-97.36919235 53.38368065 -97.32471537 56.29589326 -97.2800293 59.20898438 C-97.2628936 61.25853285 -97.24730494 63.30809476 -97.2331543 65.35766602 C-97.18621261 71.11587329 -97.10960421 76.87334172 -97.02471924 82.63110352 C-96.97470869 86.03310184 -96.92730575 89.4351172 -96.88127995 92.8371706 C-96.62112334 112.06607281 -96.31291881 131.29392205 -95.9675293 150.52148438 C-96.51712814 150.51919327 -97.06672699 150.51690216 -97.63298035 150.51454163 C-110.93280535 150.46704133 -124.22046592 150.57448265 -137.51660156 150.89379883 C-140.35236202 150.96069061 -143.18822856 151.01946034 -146.02416992 151.078125 C-147.83472806 151.11995815 -149.64527552 151.16225648 -151.45581055 151.20507812 C-152.72259392 151.23014687 -152.72259392 151.23014687 -154.01496887 151.25572205 C-157.80085845 150.99556193 -157.80085845 150.99556193 -160.9675293 152.52148438 C-161.97029761 158.68639098 -162.11950649 164.72275762 -162.0925293 170.95898438 C-162.09639648 171.84908203 -162.10026367 172.73917969 -162.10424805 173.65625 C-162.10295898 174.53861328 -162.10166992 175.42097656 -162.1003418 176.33007812 C-162.09921387 177.11181396 -162.09808594 177.8935498 -162.09692383 178.69897461 C-161.9156289 182.6535986 -161.40470313 186.58691987 -160.9675293 190.52148438 C-139.5175293 190.52148438 -118.0675293 190.52148438 -95.9675293 190.52148438 C-95.97913086 196.99128906 -95.99073242 203.46109375 -96.00268555 210.12695312 C-96.00780579 214.26953228 -96.01262051 218.41210743 -96.01635742 222.5546875 C-96.022294 229.10425647 -96.02925279 235.65381123 -96.04296875 242.20336914 C-96.0539773 247.49429287 -96.05984344 252.78520132 -96.06240654 258.07613564 C-96.0642289 260.07673698 -96.06778578 262.07733767 -96.07325935 264.07793236 C-96.0878503 269.64129683 -96.06340656 275.2019788 -95.98988724 280.76488876 C-95.97455869 282.65480349 -95.97665654 284.54491654 -95.9935112 286.43481827 C-96.01890338 289.30661692 -95.99450968 292.17449738 -95.96142578 295.04614258 C-95.98122277 295.91122279 -96.00101976 296.77630301 -96.02141666 297.66759777 C-95.93612524 301.33025051 -95.81643263 303.60789463 -93.2609272 306.3581295 C-91.22377225 307.91307588 -89.1878317 309.24423246 -86.9675293 310.52148438 C-85.91721354 311.15127937 -85.91721354 311.15127937 -84.84567928 311.79379749 C-82.59044552 313.11787528 -80.29160064 314.32164556 -77.9675293 315.52148438 C-77.35216309 315.83939941 -76.73679687 316.15731445 -76.1027832 316.48486328 C-73.99892778 317.56706049 -71.89052089 318.63979048 -69.7800293 319.70898438 C-69.10262695 320.05429199 -68.42522461 320.39959961 -67.72729492 320.75537109 C-67.07051758 321.08424316 -66.41374023 321.41311523 -65.73706055 321.75195312 C-64.86464722 322.19124146 -64.86464722 322.19124146 -63.97460938 322.6394043 C-61.36357763 323.78691162 -58.67562495 324.63133056 -55.9675293 325.52148438 C-55.93649739 314.45899506 -55.91640213 303.39651042 -55.9050293 292.33398438 C-55.90417328 291.50728493 -55.90331726 290.68058548 -55.9024353 289.82883453 C-55.87219225 256.71258939 -56.32767562 223.6339123 -56.9675293 190.52148438 C-37.4975293 190.52148438 -18.0275293 190.52148438 2.0324707 190.52148438 C2.0324707 177.32148438 2.0324707 164.12148437 2.0324707 150.52148438 C-17.4375293 150.52148438 -36.9075293 150.52148438 -56.9675293 150.52148438 C-56.9675293 106.63148438 -56.9675293 62.74148437 -56.9675293 17.52148438 C-64.0972928 17.52148438 -72.15111032 23.95939933 -77.79174805 27.61914062 Z M-107.9675293 48.52148438 C-107.9675293 49.18148437 -107.9675293 49.84148437 -107.9675293 50.52148438 C-108.50120117 50.72257812 -109.03487305 50.92367187 -109.5847168 51.13085938 C-112.99032862 53.11839677 -115.45084255 55.89325189 -118.0925293 58.77148438 C-118.66148926 59.38685059 -119.23044922 60.0022168 -119.81665039 60.63623047 C-125.46442266 66.86569325 -130.23161148 73.59131892 -134.9675293 80.52148438 C-135.78930664 81.5965625 -135.78930664 81.5965625 -136.62768555 82.69335938 C-137.9266534 84.46571202 -138.85389057 86.15888072 -139.7800293 88.14648438 C-141.3450994 91.39099508 -143.11381409 94.4091666 -145.0300293 97.45898438 C-147.28296139 101.17828874 -148.88868604 104.62908858 -150.11987305 108.78710938 C-150.81918934 111.04296839 -151.58507949 113.23176357 -152.40893555 115.44335938 C-152.67448242 116.16386475 -152.9400293 116.88437012 -153.21362305 117.62670898 C-153.73890922 119.04689807 -154.27093221 120.46462304 -154.8112793 121.87915039 C-157.12154364 128.21666633 -157.80450052 133.54331173 -158.9675293 140.52148438 C-141.1475293 140.52148438 -123.3275293 140.52148438 -104.9675293 140.52148438 C-104.87958117 109.8275867 -105.07904461 79.20019886 -105.9675293 48.52148438 C-106.6275293 48.52148438 -107.2875293 48.52148438 -107.9675293 48.52148438 Z M113.0324707 48.52148438 C112.12105659 52.33797592 111.96734989 55.74653469 112.1184082 59.66210938 C112.16223633 60.81453125 112.20606445 61.96695313 112.2512207 63.15429688 C112.3027832 64.34796875 112.3543457 65.54164063 112.4074707 66.77148438 C112.45129883 67.980625 112.49512695 69.18976563 112.5402832 70.43554688 C112.24292817 75.85270889 112.24292817 75.85270889 114.0324707 80.52148438 C116.23856681 80.68117498 118.44776093 80.79879194 120.6574707 80.89648438 C126.25409729 81.25975425 130.13282161 81.86750778 135.0324707 84.52148438 C136.1049707 85.01648438 137.1774707 85.51148438 138.2824707 86.02148438 C140.74286924 87.36351994 142.09511458 88.58412825 144.0324707 90.52148438 C145.35562889 90.89315802 146.68917404 91.23089367 148.0324707 91.52148438 C142.14829462 78.95588232 142.14829462 78.95588232 133.0324707 69.52148438 C132.5993457 68.77898437 132.1662207 68.03648437 131.7199707 67.27148438 C129.81375639 64.16506104 127.64161968 62.07265226 125.0324707 59.52148438 C123.00399308 57.19802892 120.99316327 54.86131027 118.99731445 52.50976562 C117.08440153 50.57403465 115.52480354 49.55949382 113.0324707 48.52148438 Z M54.0324707 66.52148438 C54.0324707 67.51148438 54.0324707 68.50148438 54.0324707 69.52148438 C71.5224707 69.52148438 89.0124707 69.52148438 107.0324707 69.52148438 C107.0324707 68.53148437 107.0324707 67.54148437 107.0324707 66.52148438 C89.5424707 66.52148438 72.0524707 66.52148438 54.0324707 66.52148438 Z M27.0324707 85.52148438 C26.3724707 86.84148437 25.7124707 88.16148437 25.0324707 89.52148438 C25.71954102 89.64523438 26.40661133 89.76898438 27.11450195 89.89648438 C34.21495615 91.52176717 34.21495615 91.52176717 36.36450195 94.15039062 C38.47085119 99.28656241 38.85800996 105.06166795 38.0324707 110.52148438 C36.4699707 113.58398438 36.4699707 113.58398438 34.0324707 115.52148438 C29.15630724 116.85134714 26.57046409 116.43221843 22.0324707 114.52148438 C18.20322163 114.6172156 17.10532703 115.45510417 14.2199707 118.08398438 C13.4980957 118.88835937 12.7762207 119.69273437 12.0324707 120.52148438 C13.37431824 123.0709947 14.4993813 125.10262842 16.7824707 126.89648438 C20.62624953 127.96420072 24.48659972 127.29441987 28.0324707 125.52148438 C30.7048328 125.38732965 33.35497559 125.47829897 36.0324707 125.52148438 C38.18464067 131.84348365 39.53456669 138.1596505 36.7199707 144.45898438 C35.0324707 146.52148438 35.0324707 146.52148438 32.0324707 148.52148438 C32.0324707 149.18148437 32.0324707 149.84148437 32.0324707 150.52148438 C30.3824707 150.52148438 28.7324707 150.52148438 27.0324707 150.52148438 C26.7024707 152.17148438 26.3724707 153.82148438 26.0324707 155.52148438 C28.83292116 156.3779909 28.83292116 156.3779909 32.0324707 156.52148438 C34.13662961 154.83525585 34.13662961 154.83525585 36.0324707 152.52148438 C38.0324707 151.18815104 40.0324707 149.85481771 42.0324707 148.52148438 C43.42905815 145.72830947 43.40843209 143.06432088 43.7199707 139.95898438 C44.52120997 133.94968986 45.93344771 130.11292159 49.69262695 125.38867188 C51.14053913 123.37088173 51.80341828 121.99525057 52.0324707 119.52148438 C51.2899707 118.77898437 50.5474707 118.03648437 49.7824707 117.27148438 C45.91630088 113.40531455 44.04999891 109.44869568 44.0168457 103.91210938 C44.02200195 102.99945313 44.0271582 102.08679688 44.0324707 101.14648438 C43.71104337 95.92329018 41.54557072 93.24214448 37.7824707 89.83398438 C33.96763354 86.4343521 33.96763354 86.4343521 29.1730957 85.25195312 C28.46668945 85.34089844 27.7602832 85.42984375 27.0324707 85.52148438 Z M97.0324707 95.52148438 C96.36088013 98.07120278 96.36088013 98.07120278 96.0324707 100.52148438 C89.49926669 105.74804759 76.12125317 103.85914302 68.0324707 104.08398438 C66.57542913 104.12725802 65.11839771 104.17087487 63.66137695 104.21484375 C60.11851659 104.32101739 56.57554107 104.42253548 53.0324707 104.52148438 C52.76912089 108.15374848 52.76912089 108.15374848 54.3449707 111.27148438 C58.15812918 114.09604621 62.44933753 113.736908 66.98168945 113.83789062 C67.75430618 113.85867172 68.52692291 113.87945282 69.32295227 113.90086365 C71.7885355 113.96619476 74.25422431 114.02516752 76.7199707 114.08398438 C78.39250762 114.12718524 80.0650339 114.17080004 81.73754883 114.21484375 C85.8357482 114.32185928 89.93405366 114.42317294 94.0324707 114.52148438 C94.0324707 117.49148437 94.0324707 120.46148437 94.0324707 123.52148438 C92.88415771 123.55121338 92.88415771 123.55121338 91.71264648 123.58154297 C88.19394966 123.67767642 84.67577622 123.78699354 81.1574707 123.89648438 C79.95348633 123.92742187 78.74950195 123.95835937 77.5090332 123.99023438 C64.43032399 124.06053538 64.43032399 124.06053538 53.0324707 129.52148438 C53.3624707 130.51148438 53.6924707 131.50148437 54.0324707 132.52148438 C56.53825948 133.77437876 58.24164891 133.64605222 61.04541016 133.64746094 C62.61262566 133.65317108 62.61262566 133.65317108 64.21150208 133.65899658 C65.34480453 133.6600238 66.47810699 133.66105103 67.64575195 133.66210938 C70.03182922 133.68043621 72.41789719 133.7000064 74.80395508 133.72070312 C78.57649375 133.7496943 82.34843638 133.77148482 86.12109375 133.77197266 C89.75485487 133.77530267 93.3872308 133.80982991 97.02075195 133.84960938 C98.14798172 133.84253967 99.27521149 133.83546997 100.43659973 133.82818604 C109.15518495 133.9639383 109.15518495 133.9639383 112.22070312 137.00097656 C112.81858643 137.83274414 113.41646973 138.66451172 114.0324707 139.52148438 C114.3624707 139.85148437 114.6924707 140.18148437 115.0324707 140.52148438 C114.98168945 142.55273437 114.98168945 142.55273437 114.7199707 145.02148438 C114.64133789 145.83617187 114.56270508 146.65085938 114.48168945 147.49023438 C114.25932617 148.49570313 114.25932617 148.49570313 114.0324707 149.52148438 C113.0424707 150.01648438 113.0424707 150.01648438 112.0324707 150.52148438 C112.0324707 151.18148437 112.0324707 151.84148437 112.0324707 152.52148438 C111.23369003 152.53987869 110.43490936 152.55827301 109.61192322 152.57722473 C102.06430458 152.75353822 94.51720464 152.94342198 86.97031307 153.14835072 C83.09086136 153.25322004 79.21142295 153.35293682 75.33154297 153.44067383 C71.58344642 153.52562391 67.83593926 153.62437559 64.08844185 153.73248863 C62.66252576 153.77123934 61.23646807 153.80511297 59.81031609 153.83390236 C49.50083878 153.95419545 49.50083878 153.95419545 40.0324707 157.52148438 C39.3105957 157.92367187 38.5887207 158.32585937 37.8449707 158.74023438 C31.69285826 163.08914145 26.7586047 169.31279934 24.36450195 176.53710938 C22.70445621 186.45832392 24.76434831 193.40071545 30.4543457 201.56054688 C36.32356407 208.97595718 42.3144683 210.80096893 51.3890686 212.11550903 C57.3784759 212.78289397 63.33555975 212.81967868 69.35668945 212.83007812 C71.35560587 212.84879165 73.3545223 212.86752175 75.35342884 212.88726139 C80.22250608 212.93231646 85.09170693 212.95649266 89.9609375 212.9777832 C92.71926915 212.99055762 95.47734031 213.01117874 98.23554993 213.04005432 C100.82072743 213.06635786 103.40606748 213.08019169 105.99137878 213.08042908 C107.15051285 213.09376785 108.30964691 213.10710663 109.50390625 213.12084961 C111.03726875 213.12845558 111.03726875 213.12845558 112.60160828 213.13621521 C113.80488518 213.32692345 113.80488518 213.32692345 115.0324707 213.52148438 C117.0324707 216.52148438 117.0324707 216.52148438 116.7824707 219.64648438 C116.5349707 220.59523438 116.2874707 221.54398438 116.0324707 222.52148438 C113.49511619 223.79016163 111.68010642 223.6737576 108.83935547 223.7109375 C107.75384903 223.72765503 106.66834259 223.74437256 105.54994202 223.76159668 C103.77978981 223.78195984 103.77978981 223.78195984 101.97387695 223.80273438 C100.75981674 223.8211438 99.54575653 223.83955322 98.29490662 223.85852051 C94.39497851 223.91741353 90.49500445 223.97009547 86.5949707 224.02148438 C82.7270773 224.07307879 78.85923875 224.12617911 74.99143982 224.18444824 C72.58285561 224.22071365 70.17421099 224.25322892 67.76551819 224.28137207 C53.57480291 223.63408005 53.57480291 223.63408005 41.53637695 229.58398438 C37.88427689 234.28902757 35.45579028 239.15089476 34.4074707 245.02148438 C35.54013357 251.36439644 38.00018403 256.71500734 42.8449707 261.02148438 C49.78915113 264.28933399 56.1052522 264.78775461 63.6418457 264.61132812 C65.46606201 264.5909266 67.29028086 264.57075089 69.11450195 264.55078125 C71.9608097 264.5071474 74.80693657 264.45852452 77.65307617 264.4050293 C80.42015953 264.35681317 83.18699584 264.32692089 85.9543457 264.29882812 C87.23097076 264.26619118 87.23097076 264.26619118 88.53338623 264.2328949 C92.07093525 264.20315158 94.39662145 264.19041984 97.57250977 265.84399414 C99.0324707 267.52148438 99.0324707 267.52148438 99.4699707 270.58398438 C99.3255957 271.55335938 99.1812207 272.52273438 99.0324707 273.52148438 C95.55743536 275.83817461 93.78078392 275.89630582 89.6574707 276.14648438 C88.41094727 276.22382813 87.16442383 276.30117188 85.88012695 276.38085938 C82.270977 276.51276739 78.70453575 276.48013594 75.0949707 276.39648438 C68.62517685 276.3492596 64.9125353 277.39933151 59.6574707 281.27148438 C57.3918625 284.40848034 57.09886508 286.67061032 57.0324707 290.52148438 C58.33966333 293.89027209 58.33966333 293.89027209 60.0324707 296.52148438 C60.6924707 296.52148438 61.3524707 296.52148438 62.0324707 296.52148438 C62.3624707 297.51148438 62.6924707 298.50148438 63.0324707 299.52148438 C66.7476144 300.75986561 70.16982527 300.59021472 74.0324707 300.52148438 C81.6270653 300.38634924 81.6270653 300.38634924 85.0324707 301.52148438 C86.7199707 304.08398437 86.7199707 304.08398437 88.0324707 306.52148438 C89.3524707 305.20148438 90.6724707 303.88148438 92.0324707 302.52148438 C90.52814366 298.69228826 88.47590877 296.74058891 85.0324707 294.52148438 C79.68645218 293.13151956 74.86919254 293.76353394 69.4855957 294.56054688 C67.0324707 294.52148438 67.0324707 294.52148438 65.18481445 293.27539062 C64.0324707 291.52148438 64.0324707 291.52148438 64.3449707 287.83398438 C64.5718457 286.74085938 64.7987207 285.64773438 65.0324707 284.52148438 C70.80564062 282.83415693 75.53881926 282.4662626 81.4934082 283.21289062 C89.47922961 284.18347507 96.10016411 284.00629022 103.0324707 279.52148438 C106.89065828 275.91191509 109.17575301 272.5117547 109.4074707 267.20898438 C109.37155845 263.48009578 109.19444205 262.72844776 106.7824707 259.64648438 C105.8749707 258.94523438 104.9674707 258.24398437 104.0324707 257.52148438 C103.4153421 256.99124664 102.7982135 256.46100891 102.16238403 255.91470337 C99.62878473 254.25742529 98.20879737 254.13398561 95.20385742 254.10498047 C94.24961884 254.088414 93.29538025 254.07184753 92.31222534 254.05477905 C91.28920319 254.05152618 90.26618103 254.04827332 89.2121582 254.04492188 C88.15715118 254.02934235 87.10214417 254.01376282 86.01516724 253.99771118 C82.64594247 253.95018269 79.27692505 253.92242173 75.9074707 253.89648438 C72.53102102 253.86001853 69.15468949 253.8194296 65.77835083 253.77383423 C63.67724506 253.74656802 61.57605259 253.72523404 59.474823 253.71029663 C58.52688873 253.70003448 57.57895447 253.68977234 56.60229492 253.67919922 C55.76608612 253.67270355 54.92987732 253.66620789 54.06832886 253.65951538 C52.0324707 253.52148438 52.0324707 253.52148438 50.0324707 252.52148438 C50.0324707 249.22148437 50.0324707 245.92148437 50.0324707 242.52148438 C52.72012791 241.17765577 54.81450859 241.38199057 57.82397461 241.36376953 C59.03928864 241.35350739 60.25460266 241.34324524 61.50674438 241.33267212 C62.4842761 241.32751524 62.4842761 241.32751524 63.48155594 241.32225418 C65.52551159 241.31045172 67.56925721 241.29099199 69.61312866 241.26913452 C75.42520046 241.20759023 81.23725434 241.15363851 87.04956055 241.12011719 C90.60525365 241.0990592 94.16056931 241.06366054 97.71604538 241.01935959 C99.7187875 240.99846672 101.72167291 240.99316826 103.72451782 240.9881897 C114.358982 240.84544812 121.47113414 238.88501584 129.75512695 231.96679688 C134.52053748 226.84990667 136.55531798 220.64948556 137.5949707 213.83398438 C136.05067446 204.73979537 131.13956236 197.88863282 124.20439148 191.95826721 C121.78696354 190.35907492 120.36388411 190.04562624 117.50048828 189.80639648 C116.15901985 189.68875694 116.15901985 189.68875694 114.79045105 189.56874084 C113.82488785 189.50029465 112.85932465 189.43184845 111.86450195 189.36132812 C110.85104202 189.28164291 109.83758209 189.2019577 108.79341125 189.11985779 C96.02253344 188.19184348 83.2266181 188.13826779 70.42773438 188.06518555 C67.25794576 188.04371545 64.088769 188.00442042 60.91918945 187.96289062 C59.95172287 187.96277481 58.98425629 187.962659 57.98747253 187.96253967 C57.10086441 187.9492009 56.21425629 187.93586212 55.30078125 187.92211914 C54.52188034 187.91704849 53.74297943 187.91197784 52.94047546 187.90675354 C51.0324707 187.52148438 51.0324707 187.52148438 49.0324707 184.52148438 C49.58802626 178.96592882 49.58802626 178.96592882 51.0324707 177.52148438 C52.68791848 177.43838488 54.34692644 177.42512414 56.00439453 177.43969727 C57.06672806 177.44622818 58.12906158 177.45275909 59.22358704 177.45948792 C60.96396492 177.47664101 60.96396492 177.47664101 62.73950195 177.49414062 C65.18806817 177.50680239 67.63663596 177.51916218 70.08520508 177.53125 C73.95138441 177.5559345 77.81748199 177.58374486 81.68359375 177.61743164 C85.41056804 177.64790391 89.13744165 177.66550441 92.86450195 177.68164062 C94.57148003 177.70183006 94.57148003 177.70183006 96.3129425 177.72242737 C106.55796556 177.75398177 116.18357523 176.54406466 125.7824707 172.89648438 C126.97356445 172.45046875 128.1646582 172.00445312 129.3918457 171.54492188 C130.26325195 171.2071875 131.1346582 170.86945313 132.0324707 170.52148438 C132.0324707 169.86148438 132.0324707 169.20148438 132.0324707 168.52148438 C132.7543457 168.27398437 133.4762207 168.02648437 134.2199707 167.77148438 C137.30853652 166.39878846 139.54258488 164.79795141 142.0324707 162.52148438 C142.0324707 161.86148438 142.0324707 161.20148438 142.0324707 160.52148438 C142.62801758 160.27527344 143.22356445 160.0290625 143.8371582 159.77539062 C148.33935264 157.20385252 150.94222889 152.19566241 152.8605957 147.49023438 C156.0763211 135.54611149 155.26007651 120.89401646 149.1105957 110.16992188 C145.13187021 103.91487245 140.73546851 98.0417638 134.0324707 94.52148438 C133.3724707 94.52148438 132.7124707 94.52148438 132.0324707 94.52148438 C132.0324707 93.86148438 132.0324707 93.20148438 132.0324707 92.52148438 C122.97273622 87.87019801 104.50519249 88.04876259 97.0324707 95.52148438 Z M9.0324707 130.52148438 C8.99999006 142.1673058 8.98089168 153.81312422 8.9699707 165.45898438 C8.96911469 166.3649725 8.96825867 167.27096062 8.96737671 168.20440292 C8.93612847 205.91607723 9.20397068 243.62410518 9.5324707 281.33398438 C9.53844442 282.02074422 9.54441813 282.70750407 9.55057287 283.41507483 C9.70468354 301.11727134 9.86514948 318.81940765 10.0324707 336.52148438 C12.56244136 336.37981575 15.09202201 336.23364877 17.62158203 336.08496094 C18.32962227 336.04577545 19.03766251 336.00658997 19.76715851 335.96621704 C26.1963679 335.58227331 32.41576838 334.59085125 38.7199707 333.27148438 C39.79432373 333.05113525 40.86867676 332.83078613 41.97558594 332.60375977 C51.98223043 330.46711779 60.9734073 327.26071464 70.04418945 322.50195312 C73.92896685 320.58627704 77.99319785 319.07759769 82.0324707 317.52148438 C82.40826836 313.62286321 82.40826836 313.62286321 80.51293945 311.29492188 C77.17864116 308.91102987 74.28240088 309.09847809 70.3449707 309.14648438 C63.21363371 308.9539415 58.16168657 307.88544697 53.0324707 302.52148438 C48.87119974 297.40255106 48.42972523 291.95317971 48.6262207 285.50976562 C49.23022182 281.06687282 50.83819502 277.40065031 53.0324707 273.52148438 C51.60354492 273.15796875 51.60354492 273.15796875 50.14575195 272.78710938 C48.89149414 272.45195312 47.63723633 272.11679687 46.3449707 271.77148438 C45.10360352 271.44664062 43.86223633 271.12179687 42.58325195 270.78710938 C38.99841747 269.50934659 36.89089898 267.97303727 34.0324707 265.52148438 C33.3724707 265.52148438 32.7124707 265.52148438 32.0324707 265.52148438 C31.9499707 264.86148438 31.8674707 264.20148438 31.7824707 263.52148438 C30.94189955 260.15919975 29.5838174 257.43836747 27.9699707 254.38867188 C25.07502995 248.62291487 26.15530328 242.73030423 27.0324707 236.52148438 C28.39780226 233.01911213 29.41330646 231.14064862 32.0324707 228.52148438 C32.3005957 227.71710938 32.5687207 226.91273438 32.8449707 226.08398438 C34.32508526 222.89005297 36.01514883 222.18895173 39.0324707 220.52148438 C39.0324707 219.86148438 39.0324707 219.20148438 39.0324707 218.52148438 C36.7224707 217.86148438 34.4124707 217.20148438 32.0324707 216.52148438 C32.0324707 215.86148438 32.0324707 215.20148438 32.0324707 214.52148438 C29.38400468 212.159339 27.41730675 210.64976306 24.0324707 209.52148438 C16.97057033 200.41825343 13.82252402 189.95057538 15.0324707 178.52148438 C16.3609633 172.02342277 18.90806138 166.33935001 22.0324707 160.52148438 C21.3724707 159.53148437 20.7124707 158.54148438 20.0324707 157.52148438 C19.24439123 150.54135192 19.24439123 150.54135192 22.1574707 146.77148438 C25.02978175 144.52358877 27.95591933 142.47928979 31.0324707 140.52148438 C31.3624707 140.19148437 31.6924707 139.86148438 32.0324707 139.52148438 C31.74517015 137.18203702 31.41310291 134.84757007 31.0324707 132.52148438 C30.2074707 132.68648437 29.3824707 132.85148438 28.5324707 133.02148438 C21.64845572 134.00491509 17.24113141 134.06929049 11.0324707 130.52148438 C10.3724707 130.52148438 9.7124707 130.52148438 9.0324707 130.52148438 Z M164.0324707 135.52148438 C163.81333008 136.71644531 163.59418945 137.91140625 163.3684082 139.14257812 C161.61737394 148.12429835 159.96400484 155.32332056 154.0324707 162.52148438 C153.21706692 163.79045651 152.40443183 165.06121326 151.5949707 166.33398438 C149.00931527 169.96742175 146.00163537 171.57581542 142.0324707 173.52148438 C142.0324707 174.18148437 142.0324707 174.84148437 142.0324707 175.52148438 C137.0324707 177.52148438 132.0324707 179.52148438 127.0324707 181.52148438 C127.0324707 182.18148437 127.0324707 182.84148437 127.0324707 183.52148438 C128.6824707 184.18148437 130.3324707 184.84148437 132.0324707 185.52148438 C132.0324707 186.18148437 132.0324707 186.84148437 132.0324707 187.52148438 C133.0843457 188.18148437 134.1362207 188.84148437 135.2199707 189.52148438 C141.77425321 194.03252902 144.18118604 201.71036879 145.77075195 209.22070312 C146.85217854 218.72757267 144.37659526 228.80670551 138.4074707 236.45898438 C130.8790896 244.14339411 121.57376842 248.25652865 111.0324707 249.52148438 C111.5377832 250.17632812 112.0430957 250.83117187 112.5637207 251.50585938 C117.62001431 258.60874801 119.36670645 263.84271727 118.0324707 272.52148438 C116.21341328 278.94168704 111.95979533 285.17957563 106.1262207 288.65820312 C104.2824707 289.45898438 104.2824707 289.45898438 101.0324707 290.52148438 C100.0424707 290.85148438 99.0524707 291.18148437 98.0324707 291.52148438 C98.48329539 292.98215636 98.94340607 294.4399647 99.4074707 295.89648438 C99.79032227 297.11464844 99.79032227 297.11464844 100.1809082 298.35742188 C100.93101353 300.68607622 100.93101353 300.68607622 103.0324707 302.52148438 C107.07193666 300.25617592 110.7859052 298.15906714 113.6574707 294.45898438 C116.0324707 291.52148438 116.0324707 291.52148438 119.1574707 289.45898438 C122.28057397 287.35428435 123.16357849 285.71417525 125.0324707 282.52148438 C127.0324707 280.85481771 129.0324707 279.18815104 131.0324707 277.52148438 C133.39552544 274.29967578 133.39552544 274.29967578 134.0324707 270.52148438 C135.0224707 270.19148437 136.0124707 269.86148438 137.0324707 269.52148438 C138.58988318 267.58052886 138.58988318 267.58052886 140.02856445 265.14648438 C140.58737305 264.24285156 141.14618164 263.33921875 141.72192383 262.40820312 C142.58720703 260.97927734 142.58720703 260.97927734 143.4699707 259.52148438 C144.04295898 258.59980469 144.61594727 257.678125 145.20629883 256.72851562 C148.62841088 251.14444787 151.51093462 245.55835821 154.0324707 239.52148438 C154.70847352 238.00609635 155.38689743 236.49178625 156.06762695 234.97851562 C160.20639171 225.57842252 163.31749478 216.69624084 165.0324707 206.52148438 C165.43758184 204.5532371 165.84271521 202.58499425 166.2487793 200.61694336 C167.92474239 192.28017833 168.72900355 184.02804812 169.0324707 175.52148438 C169.0737207 174.54050781 169.1149707 173.55953125 169.1574707 172.54882812 C169.42992291 160.16928083 167.75538023 147.5800837 165.0324707 135.52148438 C164.7024707 135.52148438 164.3724707 135.52148438 164.0324707 135.52148438 Z M51.0324707 141.52148438 C51.3624707 142.84148437 51.6924707 144.16148437 52.0324707 145.52148438 C57.97334139 145.40242195 63.91407217 145.27812721 69.85473633 145.14916992 C71.87195937 145.10609582 73.88921245 145.06440389 75.90649414 145.02416992 C78.82097392 144.96579384 81.73530625 144.90230059 84.6496582 144.83789062 C85.98309769 144.81282188 85.98309769 144.81282188 87.34347534 144.7872467 C93.27954671 144.64959857 99.13330142 144.19354851 105.0324707 143.52148438 C105.0324707 143.19148437 105.0324707 142.86148438 105.0324707 142.52148438 C87.2124707 142.19148437 69.3924707 141.86148438 51.0324707 141.52148438 Z M-158.9675293 199.52148438 C-158.54593979 206.07970985 -157.83877409 211.94005181 -155.6550293 218.14648438 C-155.43355225 218.78255615 -155.2120752 219.41862793 -154.98388672 220.07397461 C-153.45912927 224.37688717 -151.73113888 228.5534409 -149.7956543 232.68554688 C-148.9675293 234.52148438 -148.9675293 234.52148438 -148.0300293 237.45898438 C-146.44586688 242.02509957 -144.18682629 246.23536118 -141.9675293 250.52148438 C-141.3075293 250.52148438 -140.6475293 250.52148438 -139.9675293 250.52148438 C-139.83217773 251.06675781 -139.69682617 251.61203125 -139.55737305 252.17382812 C-137.96731935 257.7437767 -135.68527289 261.61173733 -132.00268555 266.05273438 C-128.86801962 269.8552466 -126.00112717 273.85416223 -123.08081055 277.82226562 C-121.17321216 280.258773 -119.17870306 282.36558996 -116.9675293 284.52148438 C-116.2044043 285.49085938 -115.4412793 286.46023438 -114.6550293 287.45898438 C-111.57445454 291.2043965 -111.57445454 291.2043965 -104.9675293 295.52148438 C-104.9675293 264.17148437 -104.9675293 232.82148438 -104.9675293 200.52148438 C-118.34341428 199.93992416 -131.546853 199.37193861 -144.9050293 199.45898438 C-146.29369947 199.46403408 -147.68237152 199.46859057 -149.07104492 199.47265625 C-152.36992528 199.48415061 -155.66869899 199.50038173 -158.9675293 199.52148438 Z M-46.9675293 199.52148438 C-46.9675293 242.42148437 -46.9675293 285.32148438 -46.9675293 329.52148438 C-22.12141669 335.03896491 -22.12141669 335.03896491 2.0324707 336.52148438 C2.0324707 291.31148437 2.0324707 246.10148437 2.0324707 199.52148438 C-14.1375293 199.52148438 -30.3075293 199.52148438 -46.9675293 199.52148438 Z " fill="#000000" transform="translate(247.967529296875,79.478515625)"/>
<path d="M0 0 C2.00325162 0.00585229 4.00610842 0.00001687 6.00933838 -0.01025391 C20.98076739 -0.08190952 35.42309357 0.0836066 50.06817627 3.38085938 C51.07453125 3.60080566 52.08088623 3.82075195 53.11773682 4.04736328 C55.57384363 4.61469444 58.00786044 5.230733 60.44317627 5.88085938 C62.13707092 6.32270966 63.83108075 6.76411866 65.52520752 7.20507812 C66.31234131 7.41181152 67.0994751 7.61854492 67.91046143 7.83154297 C70.63531389 8.52524268 73.38262381 9.09928946 76.13067627 9.69335938 C84.08683672 11.66259397 91.51825209 15.22998748 99.00665283 18.49853516 C101.33426515 19.49474441 103.69136274 20.38436108 106.06817627 21.25585938 C109.40759883 22.62727118 112.62098361 24.13131428 115.81817627 25.80664062 C117.10981689 26.48267334 117.10981689 26.48267334 118.42755127 27.17236328 C121.70986195 28.90759372 124.98584446 30.65421239 128.25567627 32.4128418 C129.51719258 33.08659074 130.78900121 33.74127184 132.06817627 34.38085938 C132.06817627 35.04085937 132.06817627 35.70085938 132.06817627 36.38085938 C132.79005127 36.66960938 133.51192627 36.95835938 134.25567627 37.25585938 C136.85984294 38.29752604 139.4640096 39.33919271 142.06817627 40.38085938 C142.06817627 41.04085937 142.06817627 41.70085938 142.06817627 42.38085938 C143.15098877 42.75210938 143.15098877 42.75210938 144.25567627 43.13085938 C147.34424209 44.50355529 149.57829044 46.10439234 152.06817627 48.38085938 C152.06817627 49.04085937 152.06817627 49.70085938 152.06817627 50.38085938 C152.65083252 50.48011719 153.23348877 50.579375 153.83380127 50.68164062 C156.49567268 51.51463885 157.78858687 52.66876434 159.81817627 54.56835938 C162.5535927 57.06391653 165.31090231 59.34578386 168.31817627 61.50585938 C171.4780248 63.82349147 173.67113483 66.2647055 176.06817627 69.38085938 C177.05817627 70.20585938 178.04817627 71.03085938 179.06817627 71.88085938 C181.87039511 74.21604174 183.80338399 76.54986903 186.06817627 79.38085938 C187.07880127 80.20585938 188.08942627 81.03085938 189.13067627 81.88085938 C192.0220607 84.34161208 193.19140528 86.15281328 195.06817627 89.38085938 C196.88643769 91.46530771 198.74827109 93.49797891 200.64239502 95.51367188 C202.06817627 97.38085938 202.06817627 97.38085938 202.06817627 100.38085938 C203.05817627 100.71085937 204.04817627 101.04085937 205.06817627 101.38085938 C209.31478615 106.4526399 212.70305567 112.21530633 215.73223877 118.08007812 C216.89251477 120.07833123 218.12680804 121.86832659 219.49005127 123.72851562 C231.65264393 140.56023481 240.44844654 163.83072538 244.57305908 184.04931641 C245.19824088 186.99334312 245.8950247 189.91776027 246.59161377 192.84570312 C247.14673469 195.19065265 247.70142027 197.53570527 248.25567627 199.88085938 C248.51840332 200.99211182 248.78113037 202.10336426 249.05181885 203.24829102 C249.4214978 204.8453186 249.4214978 204.8453186 249.79864502 206.47460938 C250.01931641 207.42013672 250.23998779 208.36566406 250.46734619 209.33984375 C252.80387908 221.16587125 252.36563489 233.18564451 252.41827393 245.19091797 C252.43143231 247.86929128 252.46174693 250.54580588 252.50030518 253.22412109 C252.81607122 275.34696505 250.63778734 296.19209237 243.96270752 317.35351562 C243.23894475 319.8029311 242.69767198 322.16431997 242.19708252 324.66210938 C241.11386495 329.65807812 239.25119904 334.15388729 237.19317627 338.81835938 C236.46314803 340.50418446 235.73397007 342.19037802 235.00567627 343.87695312 C234.66278564 344.6669873 234.31989502 345.45702148 233.96661377 346.27099609 C232.96812058 348.61582712 232.07081559 350.98844834 231.19317627 353.38085938 C226.92009356 364.19709998 221.06940248 375.12540767 214.32208252 384.59179688 C213.00473447 386.41738832 213.00473447 386.41738832 211.77520752 388.60742188 C209.46229668 392.3652404 206.84133495 395.85431883 204.19317627 399.38085938 C203.41780518 400.42886719 203.41780518 400.42886719 202.62677002 401.49804688 C199.67630676 405.43695249 196.59671254 408.93365462 193.06817627 412.38085938 C192.38755127 413.58742188 192.38755127 413.58742188 191.69317627 414.81835938 C189.79983761 417.8040088 187.61339287 419.55343462 184.90020752 421.77539062 C182.54048617 423.84329143 180.59496574 426.13922857 178.62286377 428.57226562 C175.06786856 432.70785051 171.11547755 436.27174003 166.88067627 439.69335938 C165.44401611 440.85544922 165.44401611 440.85544922 163.97833252 442.04101562 C163.01798096 442.81316406 162.05762939 443.5853125 161.06817627 444.38085938 C160.18001221 445.10144531 159.29184814 445.82203125 158.37677002 446.56445312 C144.98405529 457.38085938 144.98405529 457.38085938 142.06817627 457.38085938 C142.06817627 458.04085938 142.06817627 458.70085937 142.06817627 459.38085938 C141.45071533 459.6721875 140.83325439 459.96351563 140.19708252 460.26367188 C135.91125771 462.33808936 131.83678594 464.44448601 127.94317627 467.19335938 C107.14810867 481.2585164 81.53909703 489.66941604 57.19317627 495.00585938 C56.45820923 495.16812012 55.72324219 495.33038086 54.96600342 495.49755859 C37.6050176 499.27223639 20.63696753 500.77373334 2.88067627 500.69335938 C1.97654999 500.69053955 1.07242371 500.68771973 0.14089966 500.68481445 C-13.43861903 500.62129646 -26.60807665 500.2136522 -39.93182373 497.38085938 C-40.55701904 497.24983826 -41.18221436 497.11881714 -41.82635498 496.98382568 C-47.01825218 495.89250094 -52.19611218 494.7448673 -57.36932373 493.56835938 C-58.44015701 493.3277478 -58.44015701 493.3277478 -59.53262329 493.08227539 C-68.57810795 491.02518343 -77.04982538 488.3778941 -85.60418701 484.77807617 C-88.82998853 483.4236182 -92.08073816 482.19831415 -95.36932373 481.00585938 C-107.28820079 476.41942874 -118.25652158 470.46701818 -128.84588623 463.36132812 C-131.84954429 461.34822415 -131.84954429 461.34822415 -134.92791748 459.92382812 C-138.39205481 458.1444598 -141.33849738 455.92159831 -144.36932373 453.50585938 C-147.88424737 450.7476969 -151.39054285 447.9995936 -155.05682373 445.44335938 C-157.31864882 443.82074572 -159.00407662 442.3331951 -160.93182373 440.38085938 C-162.04826632 439.4125703 -163.17361554 438.45447256 -164.30682373 437.50585938 C-168.67305692 433.77903272 -172.58022352 429.80762229 -176.30682373 425.44335938 C-179.1119021 422.18406701 -182.06044006 419.44097481 -185.45135498 416.80273438 C-186.93182373 415.38085938 -186.93182373 415.38085938 -187.81854248 413.52148438 C-189.34488679 410.58661883 -191.58675456 408.71258533 -193.93182373 406.38085938 C-195.99576114 403.88092837 -197.93620183 401.29523696 -199.86932373 398.69335938 C-200.66427246 397.62770752 -200.66427246 397.62770752 -201.47528076 396.54052734 C-205.31748703 391.33514842 -208.74679263 386.01292656 -211.93182373 380.38085938 C-212.88912008 378.83854858 -213.84749584 377.29690736 -214.80682373 375.75585938 C-222.19225119 363.36988207 -227.87962918 350.2944942 -232.99676514 336.83666992 C-233.61916391 335.20201998 -234.25686894 333.57311471 -234.90985107 331.95043945 C-237.93642742 324.16200032 -239.76618293 316.19286432 -241.54168701 308.04907227 C-242.05265847 305.71240707 -242.57926797 303.37966722 -243.10760498 301.046875 C-246.69355144 284.98825578 -248.28680001 269.40607073 -248.24749756 252.95581055 C-248.24434701 250.21362108 -248.26786926 247.47252534 -248.29315186 244.73046875 C-248.36216141 226.17727619 -245.54956314 208.32687366 -241.24432373 190.31835938 C-241.07396606 189.59471191 -240.9036084 188.87106445 -240.72808838 188.12548828 C-238.04765819 176.82341068 -234.67715239 166.10079002 -229.86737061 155.5012207 C-228.82763026 153.14471108 -227.8857683 150.75994183 -226.94744873 148.36132812 C-225.15861698 143.84934271 -223.13413436 139.51625426 -220.93182373 135.19335938 C-220.43682373 134.20432617 -220.43682373 134.20432617 -219.93182373 133.1953125 C-217.73454581 128.83938068 -215.3828839 124.59909016 -212.93182373 120.38085938 C-212.27182373 120.38085938 -211.61182373 120.38085938 -210.93182373 120.38085938 C-210.49869873 119.29804688 -210.49869873 119.29804688 -210.05682373 118.19335938 C-209.01515706 115.58919271 -207.9734904 112.98502604 -206.93182373 110.38085938 C-206.27182373 110.38085938 -205.61182373 110.38085938 -204.93182373 110.38085938 C-204.70108154 109.68863281 -204.47033936 108.99640625 -204.23260498 108.28320312 C-202.65834739 104.77067043 -200.4958182 101.93585241 -198.11932373 98.94335938 C-197.69328857 98.39615234 -197.26725342 97.84894531 -196.82830811 97.28515625 C-193.93597037 93.58768971 -190.94783249 89.97784134 -187.93182373 86.38085938 C-187.10682373 85.37023437 -186.28182373 84.35960938 -185.43182373 83.31835938 C-181.73507843 78.97468365 -177.72294148 75.18743065 -173.43182373 71.44335938 C-170.77913484 69.11566879 -168.36287216 66.84298427 -166.18182373 64.06835938 C-163.89917971 61.34186791 -161.97688657 60.13177051 -158.93182373 58.38085938 C-158.21381592 57.64867187 -157.49580811 56.91648438 -156.75604248 56.16210938 C-153.46172165 52.91790961 -149.94981765 50.19664993 -146.24432373 47.44335938 C-145.53533936 46.91411865 -144.82635498 46.38487793 -144.09588623 45.83959961 C-139.56065847 42.49032564 -134.96845147 39.38747913 -130.06463623 36.59570312 C-128.0870387 35.46926937 -126.20537377 34.25923116 -124.30682373 33.00585938 C-100.02473148 17.93092588 -72.68258167 9.28183206 -44.93182373 3.38085938 C-43.10590698 2.95039307 -43.10590698 2.95039307 -41.24310303 2.51123047 C-27.60585261 -0.37513169 -13.88484511 -0.07106767 0 0 Z M-73.57049561 17.59960938 C-75.55097787 18.25485578 -77.54478575 18.86963575 -79.54119873 19.47460938 C-86.26402581 21.53769917 -92.38858418 24.45412934 -98.60760498 27.69726562 C-101.99472181 29.41271493 -105.44204627 30.88814571 -108.93182373 32.38085938 C-110.384045 33.14518636 -111.82390148 33.93394514 -113.24432373 34.75585938 C-118.0510239 37.48241861 -122.97160911 39.94735116 -127.93182373 42.38085938 C-127.93182373 43.04085937 -127.93182373 43.70085938 -127.93182373 44.38085938 C-128.61244873 44.6103125 -129.29307373 44.83976562 -129.99432373 45.07617188 C-133.67375597 46.71038779 -136.69532816 48.88381241 -139.93182373 51.25585938 C-140.53510498 51.69027344 -141.13838623 52.1246875 -141.75994873 52.57226562 C-145.22897594 55.08353967 -148.60705084 57.67983906 -151.93182373 60.38085938 C-152.52608154 60.8475 -153.12033936 61.31414063 -153.73260498 61.79492188 C-155.16919725 62.94568054 -156.55256088 64.16197593 -157.93182373 65.38085938 C-157.93182373 66.04085937 -157.93182373 66.70085937 -157.93182373 67.38085938 C-158.46807373 67.60773438 -159.00432373 67.83460937 -159.55682373 68.06835938 C-163.69889002 70.35739601 -166.99547228 73.21042007 -169.93182373 76.88085938 C-171.93182373 79.38085938 -171.93182373 79.38085938 -174.99432373 81.88085938 C-177.97110302 84.14451786 -177.97110302 84.14451786 -179.43182373 86.88085938 C-180.93182373 89.38085938 -180.93182373 89.38085938 -183.86932373 91.81835938 C-187.0830336 94.50738192 -188.70574484 96.84532231 -190.93182373 100.38085938 C-192.15160536 102.0751556 -193.38198237 103.76184419 -194.61932373 105.44335938 C-197.71613798 109.69058493 -200.78665983 113.95389244 -203.80682373 118.25585938 C-204.54674561 119.30515625 -205.28666748 120.35445313 -206.04901123 121.43554688 C-207.74352337 124.08629822 -208.80056105 126.46740906 -209.93182373 129.38085938 C-211.19980668 131.62864732 -212.48812896 133.85116307 -213.80682373 136.06835938 C-216.61430745 140.8827112 -219.01204225 145.60818144 -220.94354248 150.84960938 C-222.0958204 153.80089826 -223.47794511 156.59719755 -224.86932373 159.44335938 C-228.14881319 166.48849378 -230.29622375 173.64695241 -232.31414795 181.12744141 C-232.93050495 183.37604816 -233.58566097 185.61032496 -234.24822998 187.84570312 C-239.366865 205.55325968 -241.29774398 223.99254654 -241.93182373 242.38085938 C-241.97307373 243.53585938 -242.01432373 244.69085938 -242.05682373 245.88085938 C-242.49469351 270.83943686 -239.10586345 296.48753128 -231.93182373 320.38085938 C-231.70092041 321.1559082 -231.47001709 321.93095703 -231.2321167 322.72949219 C-228.39962268 332.08548276 -225.00883904 340.75448749 -220.45526123 349.40429688 C-219.22379629 351.81038992 -218.23291378 354.08072877 -217.36932373 356.63085938 C-215.96273815 360.68665829 -213.75172212 364.13707296 -211.49432373 367.77148438 C-209.05325179 371.84807452 -206.98972792 376.10114712 -204.93182373 380.38085938 C-204.27182373 380.38085938 -203.61182373 380.38085938 -202.93182373 380.38085938 C-202.69721436 381.06792969 -202.46260498 381.755 -202.22088623 382.46289062 C-200.66234405 385.99086338 -198.57157529 388.97193623 -196.30682373 392.06835938 C-195.86459473 392.67832764 -195.42236572 393.2882959 -194.96673584 393.91674805 C-188.76595058 403.83106049 -188.76595058 403.83106049 -179.93182373 410.38085938 C-179.62760498 411.1465625 -179.32338623 411.91226562 -179.00994873 412.70117188 C-177.73653858 415.86624204 -176.30209163 417.1079527 -173.68182373 419.25585938 C-170.71516047 421.7661129 -168.10935362 424.22144702 -165.68182373 427.25585938 C-163.34758997 430.1282637 -161.43600137 431.11546189 -157.93182373 432.38085938 C-157.63485596 432.99002197 -157.33788818 433.59918457 -157.03192139 434.22680664 C-155.72992699 436.77618448 -154.340074 437.91695405 -152.08026123 439.65820312 C-151.31069092 440.25439453 -150.54112061 440.85058594 -149.74822998 441.46484375 C-148.94256592 442.07650391 -148.13690186 442.68816406 -147.30682373 443.31835938 C-146.13313232 444.23004883 -146.13313232 444.23004883 -144.93572998 445.16015625 C-137.14406678 451.98544895 -137.14406678 451.98544895 -127.93182373 455.38085938 C-127.93182373 456.04085938 -127.93182373 456.70085937 -127.93182373 457.38085938 C-125.59462641 458.98350897 -123.33852156 460.22737515 -120.68572998 461.22851562 C-116.67341361 462.90742815 -113.01344532 465.15943735 -109.27947998 467.37109375 C-105.27278803 469.70906455 -101.23006192 471.60987036 -96.93182373 473.38085938 C-95.79229248 473.89003906 -94.65276123 474.39921875 -93.47869873 474.92382812 C-80.37693901 480.66031194 -66.71418061 484.6208571 -52.93182373 488.38085938 C-52.31378372 488.55006897 -51.69574371 488.71927856 -51.05897522 488.89361572 C-46.3244538 490.14058274 -41.65812514 490.91576724 -36.79510498 491.45117188 C-36.04258957 491.53748871 -35.29007416 491.62380554 -34.51475525 491.71273804 C0.26982488 495.63892856 35.97404469 496.2139158 69.66680908 485.15869141 C72.13947033 484.35776636 74.6252132 483.62710717 77.12286377 482.90820312 C85.87601621 480.34486544 93.94528305 477.30383788 101.99005127 472.99414062 C105.28428446 471.26759455 108.6444003 469.83102043 112.06817627 468.38085938 C113.88874397 467.50153756 115.70229151 466.6074037 117.50567627 465.69335938 C118.37063721 465.25636719 119.23559814 464.819375 120.12677002 464.36914062 C120.76743408 464.04300781 121.40809814 463.716875 122.06817627 463.38085938 C122.06817627 462.72085937 122.06817627 462.06085938 122.06817627 461.38085938 C123.02337158 461.18363281 123.97856689 460.98640625 124.96270752 460.78320312 C130.21577611 459.27987089 134.34996514 456.07562486 138.75567627 452.94335938 C139.59678955 452.35748047 140.43790283 451.77160156 141.30450439 451.16796875 C143.56924129 449.5857061 145.82586295 447.99472694 148.06817627 446.38085938 C148.81687988 445.86386475 149.5655835 445.34687012 150.3369751 444.81420898 C150.90827148 444.34120361 151.47956787 443.86819824 152.06817627 443.38085938 C152.06817627 442.72085937 152.06817627 442.06085938 152.06817627 441.38085938 C153.15098877 441.00960937 153.15098877 441.00960937 154.25567627 440.63085938 C158.15987353 438.89566059 160.99960565 436.44942999 164.00567627 433.44335938 C166.06817627 431.38085937 166.06817627 431.38085937 169.06817627 428.94335938 C172.06312525 426.54777484 172.06312525 426.54777484 174.06817627 423.88085938 C176.42752478 420.93167374 179.1670482 418.78817841 182.06817627 416.38085938 C184.50522099 413.72871273 184.50522099 413.72871273 185.06817627 410.38085938 C185.66372314 410.12820313 186.25927002 409.87554687 186.87286377 409.61523438 C189.35414967 408.22006295 190.49336832 406.90296447 192.19317627 404.63085938 C192.78743408 403.83679688 193.38169189 403.04273438 193.99395752 402.22460938 C194.67844971 401.28617187 195.36294189 400.34773438 196.06817627 399.38085938 C196.48502686 398.81625 196.90187744 398.25164062 197.33135986 397.66992188 C198.68880716 395.82904755 200.03634059 393.9813265 201.38067627 392.13085938 C201.81331787 391.54079102 202.24595947 390.95072266 202.69171143 390.34277344 C204.99094302 387.1388816 206.79599663 384.12008352 208.06817627 380.38085938 C208.72817627 380.38085938 209.38817627 380.38085938 210.06817627 380.38085938 C210.34790283 379.79820312 210.62762939 379.21554687 210.91583252 378.61523438 C213.32002917 373.69861358 215.87936113 368.9515254 218.69317627 364.25585938 C220.94318969 360.4462873 222.80197426 356.86696541 224.19708252 352.68164062 C225.17185075 350.10702858 226.35863225 347.66251262 227.56500244 345.18969727 C230.78093024 338.57839072 233.24070714 332.15073711 235.04864502 324.99023438 C235.89432388 321.99633679 236.88950644 319.24035389 238.01739502 316.34960938 C240.45244 309.74461303 241.59978017 303.06674122 242.69317627 296.13085938 C242.79834564 295.48011444 242.90351501 294.82936951 243.01187134 294.15890503 C248.91061333 257.57867085 249.59637671 217.6054358 237.35723877 182.12695312 C236.16135186 178.6516333 235.13165897 175.17322034 234.13995361 171.63671875 C232.32628354 165.18625244 230.37074642 159.24025802 227.06817627 153.38085938 C226.3721765 152.03104164 225.68485572 150.67671827 225.00567627 149.31835938 C224.50874268 148.32642578 224.50874268 148.32642578 224.00177002 147.31445312 C222.58606334 144.38234097 221.35063176 141.37325553 220.06817627 138.38085938 C218.7664705 135.69697876 217.42090289 133.03966688 216.06817627 130.38085938 C215.40817627 130.38085938 214.74817627 130.38085938 214.06817627 130.38085938 C213.73817627 129.12273437 213.40817627 127.86460938 213.06817627 126.56835938 C211.34317911 121.37709435 208.50446659 117.49297846 205.20098877 113.17773438 C202.48334029 109.6139316 200.00419978 105.90612243 197.51348877 102.18164062 C197.03653564 101.58738281 196.55958252 100.993125 196.06817627 100.38085938 C195.40817627 100.38085938 194.74817627 100.38085938 194.06817627 100.38085938 C193.82067627 99.65898438 193.57317627 98.93710938 193.31817627 98.19335938 C191.46221374 94.01744368 188.78164043 91.09432354 185.56817627 87.88085938 C183.06817627 85.38085937 183.06817627 85.38085937 181.13067627 82.88085938 C179.06894787 80.22461128 179.06894787 80.22461128 176.06817627 77.88085938 C173.06817627 75.38085938 173.06817627 75.38085938 171.06817627 72.81835938 C168.72185421 69.95877937 166.1560118 68.39740503 163.06817627 66.38085938 C161.38155169 64.73439252 159.71305921 63.0690287 158.06817627 61.38085938 C155.39945252 58.97508935 155.39945252 58.97508935 152.06817627 58.38085938 C151.73817627 57.39085937 151.40817627 56.40085938 151.06817627 55.38085938 C149.30595313 53.83070362 149.30595313 53.83070362 147.09552002 52.38476562 C146.27760986 51.82595703 145.45969971 51.26714844 144.61700439 50.69140625 C143.75526611 50.11455078 142.89352783 49.53769531 142.00567627 48.94335938 C141.1710083 48.37037109 140.33634033 47.79738281 139.47637939 47.20703125 C131.36737044 41.1711145 131.36737044 41.1711145 122.06817627 38.38085938 C122.06817627 37.72085938 122.06817627 37.06085937 122.06817627 36.38085938 C116.48615024 33.2101865 111.03961446 30.1987563 104.96661377 28.09179688 C102.8974706 27.31693256 100.97389112 26.38381943 99.00567627 25.38085938 C92.08693717 21.86150076 85.39674167 19.54014568 77.90411377 17.48242188 C75.41201609 16.76676857 72.93551383 15.99343453 70.48223877 15.15429688 C25.15501094 -0.33488161 -28.61867082 2.60451071 -73.57049561 17.59960938 Z " fill="#000000" transform="translate(247.93182373046875,-0.380859375)"/>
<path d="M0 0 C2.15183585 1.27706193 4.25516472 2.63819096 6.3125 4.0625 C7.91544922 5.16271484 7.91544922 5.16271484 9.55078125 6.28515625 C10.76314453 7.13400391 10.76314453 7.13400391 12 8 C11.20250607 13.53875921 8.82183334 18.40694535 6.61523438 23.49804688 C4.58602826 28.28148202 3.14049352 32.92795594 2 38 C3.051875 37.319375 4.10375 36.63875 5.1875 35.9375 C10.04100748 32.89318527 15.08162789 30.22765044 20.14453125 27.55078125 C23.07746204 26.0136153 23.07746204 26.0136153 26 24 C28.4375 24 28.4375 24 31 25 C33.0625 27.8125 33.0625 27.8125 35 31 C35.763125 31.680625 36.52625 32.36125 37.3125 33.0625 C37.869375 33.701875 38.42625 34.34125 39 35 C38.80398092 37.74426716 38.22394754 39.55210492 37 42 C36.34 42 35.68 42 35 42 C34.814375 42.94875 34.62875 43.8975 34.4375 44.875 C33.17416895 49.31445207 30.63633827 52.56392847 27.93359375 56.25 C25.89758741 59.14565346 24.13045446 62.11449438 22.375 65.1875 C20.16260336 69.05919413 17.86010528 72.69420255 15.19921875 76.265625 C12.84534295 79.66992746 10.94437641 83.35119151 9 87 C5.69831248 85.5724411 3.60095359 83.84483943 1.1875 81.1875 C0.56230469 80.52105469 -0.06289063 79.85460937 -0.70703125 79.16796875 C-2 77 -2 77 -1.94921875 74.67578125 C0.56951763 67.5756396 5.32960455 61.42849664 9.55273438 55.25390625 C11.40045907 52.52248714 12.95165129 50.14504613 14 47 C12.9275 47.70125 11.855 48.4025 10.75 49.125 C6.24994766 51.95154533 1.5459172 54.2512119 -3.23046875 56.5703125 C-5.48554943 57.73443031 -7.41699019 58.92342288 -9.4375 60.4375 C-12 62 -12 62 -14.6875 61.9375 C-17.21711498 60.91198042 -18.46545322 60.26143736 -20 58 C-21.41276405 49.99433707 -15.60500433 40.62969827 -12.33764648 33.49682617 C-10.4916759 29.41402125 -10.4916759 29.41402125 -10 25 C-10.928125 25.763125 -11.85625 26.52625 -12.8125 27.3125 C-13.33457031 27.74175781 -13.85664063 28.17101562 -14.39453125 28.61328125 C-16.01031068 30.00890582 -17.49261009 31.48877449 -19 33 C-20.24103492 34.11423353 -21.49171107 35.21778863 -22.75 36.3125 C-23.44609375 36.91835937 -24.1421875 37.52421875 -24.859375 38.1484375 C-27.89733716 40.7761639 -30.94577933 43.39118651 -34 46 C-36.96783129 44.54331217 -39.86415313 42.98767914 -42.75 41.375 C-43.94882812 40.70597656 -43.94882812 40.70597656 -45.171875 40.0234375 C-45.77515625 39.68570313 -46.3784375 39.34796875 -47 39 C-47.25390625 36.71484375 -47.25390625 36.71484375 -47 34 C-45.27734375 32.19140625 -45.27734375 32.19140625 -42.9375 30.5625 C-42.11636719 29.96824219 -41.29523438 29.37398437 -40.44921875 28.76171875 C-39.64097656 28.18035156 -38.83273437 27.59898438 -38 27 C-34.66473814 24.29626701 -31.49904525 21.51152138 -28.5 18.4375 C-20.87179487 11 -20.87179487 11 -17 11 C-16.690625 10.1646875 -16.690625 10.1646875 -16.375 9.3125 C-14.42316968 6.02987629 -12.05769006 4.29326754 -9 2 C-8.34 2 -7.68 2 -7 2 C-7 1.34 -7 0.68 -7 0 C-4.20815164 -1.39592418 -2.98474684 -0.8798478 0 0 Z " fill="#000000" transform="translate(387,58)"/>
<path d="M0 0 C0.65871094 0.30421875 1.31742187 0.6084375 1.99609375 0.921875 C9.5663812 4.87159019 12.27389609 11.76319948 15.375 19.375 C17.34765355 30.8163906 15.67230957 39.17999651 10.25 49.25 C4.53829534 56.23097237 -2.07555203 59.70371147 -11 61 C-19.48190505 61.3047391 -26.2563627 58.44776285 -33.25 53.875 C-40.04062671 46.77570844 -42.82287284 37.46582002 -43.375 27.8125 C-43.13827803 19.88927626 -41.30633039 10.77462769 -35.75 4.875 C-25.22740768 -4.05121614 -12.41632671 -6.43809533 0 0 Z M-22 18 C-24.9373466 22.45666381 -26.04466008 26.73871198 -25 32 C-22.59210316 37.93918267 -22.59210316 37.93918267 -18 42 C-13.09131431 42.60815575 -9.26715251 42.83578144 -5.0625 40.0625 C-1.59799195 34.91823047 0.37358682 30.49057879 -0.5625 24.25 C-2.34410441 20.22202481 -4.22031154 17.28873992 -7.8125 14.6875 C-13.71640133 12.83198815 -17.74476677 13.50836493 -22 18 Z " fill="#000000" transform="translate(470,208)"/>
<path d="M0 0 C6.30936152 6.07423004 8.45506628 12.80398565 8.75 21.4375 C8.48871481 30.9163459 5.11830968 36.92357797 -1.5625 43.5 C-2.34625 44.28375 -3.13 45.0675 -3.9375 45.875 C-12.45135517 51.14548177 -24.00747462 50.09714034 -33.5625 48.5 C-37.09477343 47.34650692 -39.67874287 45.81773042 -42.5625 43.5 C-43.28953125 42.94699219 -44.0165625 42.39398438 -44.765625 41.82421875 C-49.74326495 37.78660073 -52.63457312 34.12735055 -54.25 27.8125 C-55.22352881 17.49309459 -55.35304532 7.94229958 -48.5625 -0.5 C-35.26354789 -13.73562377 -13.97123939 -11.69803956 0 0 Z M-33.5625 8.5 C-36.36881363 12.00378924 -37.42020954 15.61463715 -38.125 20 C-37.18241159 25.86499458 -34.61687118 30.00591187 -29.8125 33.5 C-24.46492693 35.1454071 -19.74237977 35.4536974 -14.5625 33.1875 C-12.29760063 31.573876 -12.29760063 31.573876 -11.5625 28.5 C-10.9025 28.5 -10.2425 28.5 -9.5625 28.5 C-7.61476221 22.70914902 -7.61476221 22.70914902 -8.6875 16.8125 C-12.08015817 10.63757699 -12.08015817 10.63757699 -18 7.1875 C-23.71405666 6.08478731 -28.13286577 6.13070506 -33.5625 8.5 Z " fill="#000000" transform="translate(333.5625,31.5)"/>
<path d="M0 0 C-0.60785754 6.44328993 -1.42288484 13.01635331 -4 19 C-7.30433338 21.40940976 -8.94964444 22 -13 22 C-13 28.27 -13 34.54 -13 41 C-10.36 42.32 -7.72 43.64 -5 45 C-4 48 -4 48 -4 52 C-3.98839844 53.02996094 -3.97679687 54.05992187 -3.96484375 55.12109375 C-3.94042833 58.08233577 -3.95624277 61.03909441 -4 64 C-5.46145475 63.79166496 -6.91909908 63.55664338 -8.375 63.3125 C-9.18710938 63.18488281 -9.99921875 63.05726563 -10.8359375 62.92578125 C-14.58108422 61.82997906 -17.78231698 60.15883712 -21.24316406 58.37524414 C-25.95344198 56.02552792 -30.82045615 54.06141547 -35.6875 52.0625 C-36.73172119 51.6301001 -37.77594238 51.1977002 -38.85180664 50.75219727 C-46.02991982 47.78711972 -53.23153821 44.88623146 -60.46484375 42.05859375 C-63 41 -63 41 -64 40 C-64.08669432 38.5112814 -64.10703494 37.018555 -64.09765625 35.52734375 C-64.09443359 34.62822266 -64.09121094 33.72910156 -64.08789062 32.80273438 C-64.07951172 31.85720703 -64.07113281 30.91167969 -64.0625 29.9375 C-64.05798828 28.98810547 -64.05347656 28.03871094 -64.04882812 27.06054688 C-64.0370011 24.70696935 -64.02052025 22.35351523 -64 20 C-45.70994066 12.28769164 -45.70994066 12.28769164 -39.984375 11.16796875 C-34.29452732 9.93357096 -28.90607111 7.97426504 -23.4375 6 C-6.75271739 0 -6.75271739 0 0 0 Z M-36.5625 27.5 C-37.36880859 27.73847656 -38.17511719 27.97695312 -39.00585938 28.22265625 C-41.00426293 28.81389991 -43.00217716 29.40679704 -45 30 C-45 30.66 -45 31.32 -45 32 C-44.45472656 32.18175781 -43.90945312 32.36351562 -43.34765625 32.55078125 C-37.8984375 34.3671875 -32.44921875 36.18359375 -27 38 C-27 33.71 -27 29.42 -27 25 C-30.0963288 25 -33.56854615 26.61023058 -36.5625 27.5 Z " fill="#000000" transform="translate(77,208)"/>
<path d="M0 0 C3.38573462 4.11124918 4.15994642 7.81022561 4 13.1484375 C3.27047162 18.91627128 -0.89353684 23.58923898 -4.25 28.125 C-2.68910887 29.8556191 -1.12621088 31.58442827 0.4375 33.3125 C1.74267578 34.75689453 1.74267578 34.75689453 3.07421875 36.23046875 C4.82766129 38.12725841 6.61746556 39.99120836 8.4453125 41.81640625 C10.75 44.125 10.75 44.125 12.9375 46.875 C14.55309077 49.19987388 14.55309077 49.19987388 16.75 50.125 C16.75 50.785 16.75 51.445 16.75 52.125 C13.41458996 52.19141303 10.08564764 52.17705172 6.75 52.125 C5.70714844 52.10953125 4.66429687 52.0940625 3.58984375 52.078125 C-4.45783926 51.71912055 -4.45783926 51.71912055 -8.25 48.875 C-8.91 47.9675 -9.57 47.06 -10.25 46.125 C-13.01917302 42.57699706 -15.718627 39.91292605 -19.25 37.125 C-19.91 36.135 -20.57 35.145 -21.25 34.125 C-21.23839844 35.41277344 -21.22679687 36.70054688 -21.21484375 38.02734375 C-21.2054673 39.70572772 -21.19636695 41.38411326 -21.1875 43.0625 C-21.17912109 43.91263672 -21.17074219 44.76277344 -21.16210938 45.63867188 C-21.15727539 46.85200195 -21.15727539 46.85200195 -21.15234375 48.08984375 C-21.14448853 49.21314087 -21.14448853 49.21314087 -21.13647461 50.35913086 C-21.25 52.125 -21.25 52.125 -22.25 53.125 C-24.77195967 53.52443176 -27.27963656 53.87579848 -29.8125 54.1875 C-30.52341797 54.27837891 -31.23433594 54.36925781 -31.96679688 54.46289062 C-33.72738403 54.68739503 -35.48863478 54.90668397 -37.25 55.125 C-42.71316047 10.78471961 -42.71316047 10.78471961 -42.25 -1.875 C-39.99343225 -3.00328388 -38.35454696 -3.1637881 -35.84765625 -3.41015625 C-34.96215088 -3.4975708 -34.07664551 -3.58498535 -33.16430664 -3.67504883 C-7.26974404 -6.05812004 -7.26974404 -6.05812004 0 0 Z M-24.25 8.125 C-23.92 12.085 -23.59 16.045 -23.25 20.125 C-19.45949594 19.83342276 -16.89934335 19.57954034 -13.75 17.375 C-12.0240156 15.22009942 -12.0240156 15.22009942 -12.1875 12.5625 C-13.58635176 9.3533695 -15.10148263 8.54932929 -18.25 7.125 C-21.30270463 6.96688612 -21.30270463 6.96688612 -24.25 8.125 Z " fill="#000000" transform="translate(252.25,19.875)"/>
<path d="M0 0 C2.51893624 1.5909071 4.3056283 3.36596043 6.375 5.5 C7.1175 5.933125 7.86 6.36625 8.625 6.8125 C10.98503964 8.26070614 12.76794367 9.66469464 14.8125 11.5 C18.53087694 14.82400363 22.3858579 17.92868162 26.3125 21 C26.91594238 21.47236084 27.51938477 21.94472168 28.14111328 22.43139648 C30.83143697 24.5315964 33.53047773 26.61883244 36.2421875 28.69140625 C37.04914063 29.30886719 37.85609375 29.92632812 38.6875 30.5625 C39.38488281 31.08972656 40.08226562 31.61695313 40.80078125 32.16015625 C42.375 33.5 42.375 33.5 43.375 35.5 C45.39169827 36.63350534 45.39169827 36.63350534 47.375 37.5 C47.375 38.49 47.375 39.48 47.375 40.5 C45.32087752 41.53758749 43.25630395 42.5545034 41.1875 43.5625 C40.03894531 44.13097656 38.89039063 44.69945312 37.70703125 45.28515625 C34.21489318 46.55837423 32.80774475 46.78727928 29.375 45.5 C26.5625 42.9375 26.5625 42.9375 24.375 40.5 C20.01919851 42.53842927 16.02550568 45.17649529 11.9765625 47.75390625 C7.59085966 50.5 7.59085966 50.5 5.375 50.5 C5.725625 51.716875 6.07625 52.93375 6.4375 54.1875 C7.43281105 57.64181484 7.59978281 60.07702622 6.375 63.5 C3.9765625 65.73828125 3.9765625 65.73828125 1 67.8125 C0.02289063 68.50988281 -0.95421875 69.20726563 -1.9609375 69.92578125 C-4.625 71.5 -4.625 71.5 -7.625 71.5 C-7.71475098 70.95512939 -7.80450195 70.41025879 -7.89697266 69.84887695 C-9.50558612 60.16414246 -11.16793223 50.50317996 -13.2265625 40.90234375 C-13.49903809 39.63028076 -13.77151367 38.35821777 -14.05224609 37.04760742 C-14.58951247 34.56773251 -15.13629813 32.08989551 -15.69384766 29.61450195 C-17.2441182 22.457835 -17.99313835 15.82186283 -17.625 8.5 C-16.99577637 8.15686768 -16.36655273 7.81373535 -15.71826172 7.46020508 C-12.10785939 5.49049736 -8.64191806 3.56827746 -5.375 1.0625 C-2.625 -0.5 -2.625 -0.5 0 0 Z M-1.625 18.5 C-1.17518927 21.10590351 -0.71555778 23.70940531 -0.25 26.3125 C-0.12367188 27.05048828 0.00265625 27.78847656 0.1328125 28.54882812 C0.77663482 32.10594646 1.34496056 34.45494084 3.375 37.5 C4.85954806 36.90917986 6.33754351 36.30187345 7.8125 35.6875 C8.63621094 35.35105469 9.45992187 35.01460937 10.30859375 34.66796875 C12.70872488 33.61596912 12.70872488 33.61596912 13.375 30.5 C10.59387971 27.5128708 7.86505549 25.57741398 4.375 23.5 C2.33459886 21.8790464 0.3638158 20.18474066 -1.625 18.5 Z " fill="#000000" transform="translate(137.625,43.5)"/>
<path d="M0 0 C0.77923828 1.77503906 0.77923828 1.77503906 1.57421875 3.5859375 C2.27811012 5.18252795 2.98257474 6.77886576 3.6875 8.375 C4.23180664 9.60887451 4.23180664 9.60887451 4.78710938 10.86767578 C7.07966447 16.02999679 9.48379766 21.09197071 12.1875 26.0546875 C13 28 13 28 13 32 C8.70682305 34.45324397 5.90706652 35.16494341 1 35 C-0.00484204 33.04414675 -1.00373805 31.08523763 -2 29.125 C-2.556875 28.03445312 -3.11375 26.94390625 -3.6875 25.8203125 C-5 23 -5 23 -5 21 C-7.31 21.99 -9.62 22.98 -12 24 C-11.72285156 24.67546875 -11.44570313 25.3509375 -11.16015625 26.046875 C-10.61681641 27.38492188 -10.61681641 27.38492188 -10.0625 28.75 C-9.70285156 29.63171875 -9.34320313 30.5134375 -8.97265625 31.421875 C-8.14643424 33.61186104 -7.50630057 35.71898271 -7 38 C-8.62170379 39.00533667 -10.24747237 40.00411907 -11.875 41 C-12.77992188 41.556875 -13.68484375 42.11375 -14.6171875 42.6875 C-17 44 -17 44 -19 44 C-19.40992188 43.22914063 -19.81984375 42.45828125 -20.2421875 41.6640625 C-20.78101563 40.66117188 -21.31984375 39.65828125 -21.875 38.625 C-22.67550781 37.12839844 -22.67550781 37.12839844 -23.4921875 35.6015625 C-24.8820138 32.94651605 -24.8820138 32.94651605 -27 31 C-27.78375 31.495 -28.5675 31.99 -29.375 32.5 C-32 34 -32 34 -34 34 C-33.22462891 35.44632813 -33.22462891 35.44632813 -32.43359375 36.921875 C-31.7675971 38.19758689 -31.10226718 39.47364701 -30.4375 40.75 C-30.09525391 41.38421875 -29.75300781 42.0184375 -29.40039062 42.671875 C-26.97026733 47.38484138 -26.97026733 47.38484138 -27.11328125 50.34375 C-28.64836349 53.21104017 -31.06302587 53.87039456 -34 55 C-35.66597101 55.04814945 -37.3342966 55.05665658 -39 55 C-50.05979381 33.36360725 -50.05979381 33.36360725 -52 25 C-51.0925 24.649375 -50.185 24.29875 -49.25 23.9375 C-44.60546757 21.96451773 -40.37012601 19.33082109 -36.0625 16.71875 C-32.78752324 14.88075284 -29.45989507 13.45777907 -26 12 C-23.31305625 10.72748615 -20.65602384 9.39814417 -18 8.0625 C-17.32710938 7.72798828 -16.65421875 7.39347656 -15.9609375 7.04882812 C-12.63233172 5.3813123 -9.38548319 3.65329433 -6.1875 1.74609375 C-3 0 -3 0 0 0 Z " fill="#000000" transform="translate(457,135)"/>
<path d="M0 0 C4.10958767 1.45044271 7.43258745 3.51110752 11 6 C10.52353463 10.28818833 7.94800383 12.05199617 5 15 C3.51972881 17.27734029 2.2730969 19.59526142 1 22 C3.31 23.32 5.62 24.64 8 26 C8 25.34 8 24.68 8 24 C9 23 10 22 11 21 C12.36011609 19.01811655 13.69791204 17.02048131 15 15 C20.40049736 15.31767632 22.52337065 18.19996327 26 22 C24.54331217 24.96783129 22.98767914 27.86415313 21.375 30.75 C20.70597656 31.94882813 20.70597656 31.94882813 20.0234375 33.171875 C19.68570313 33.77515625 19.34796875 34.3784375 19 35 C20.41170909 36.29708314 21.82958196 37.58745978 23.25 38.875 C24.43335937 39.95394531 24.43335937 39.95394531 25.640625 41.0546875 C27.8542052 43.03142929 27.8542052 43.03142929 30.171875 44.0703125 C32 45 32 45 34 48 C33.69395106 51.73536658 31.58605539 54.2810871 29.4375 57.25 C28.79683594 58.14203125 28.15617187 59.0340625 27.49609375 59.953125 C27.00238281 60.62859375 26.50867188 61.3040625 26 62 C22.64825544 61.41068228 20.91304802 60.30386572 18.4375 58 C16.15112792 55.88166863 15.03246941 55.01082314 12 54 C11.27167969 53.27039063 10.54335937 52.54078125 9.79296875 51.7890625 C5.97179405 47.9732321 1.66544067 45.03484375 -2.73632812 41.9296875 C-3.38408203 41.465625 -4.03183594 41.0015625 -4.69921875 40.5234375 C-5.28533936 40.11013184 -5.87145996 39.69682617 -6.4753418 39.27099609 C-8 38 -8 38 -10 35 C-11.76225185 33.97468983 -13.52605229 32.95129624 -15.3125 31.96875 C-17.26259884 30.84924882 -18.69286515 29.84536685 -20 28 C-20 26.68 -20 25.36 -20 24 C-19.34 24 -18.68 24 -18 24 C-17.7525 23.278125 -17.505 22.55625 -17.25 21.8125 C-15.31232584 17.45273313 -12.96276074 14.6418405 -9 12 C-8.566875 11.278125 -8.13375 10.55625 -7.6875 9.8125 C-5.50909293 6.18182154 -2.80870266 3.15410946 0 0 Z " fill="#000000" transform="translate(78,86)"/>
<path d="M0 0 C9.53504921 1.31321037 18.17556244 5.46906257 26.6484375 9.87109375 C29.68240145 11.32759804 32.77362325 12.35627415 35.9921875 13.32421875 C38.11241209 14.0378352 40.02297398 14.95829347 42 16 C42.98163422 14.06374902 43.96022454 12.12595461 44.9375 10.1875 C45.48277344 9.10855469 46.02804688 8.02960938 46.58984375 6.91796875 C48.0585207 4.03788473 48.0585207 4.03788473 49 1 C57.57142857 1.71428571 57.57142857 1.71428571 61 5 C59.49561823 16.43330147 54.70847077 26.60266455 50 37 C45.38205418 36.32295677 42.15584146 35.11866427 38 33 C36.69361544 32.56453848 35.38024609 32.14976567 34.0625 31.75 C28.95881584 30.12688956 24.21434084 27.84404806 19.40454102 25.51269531 C16.61507535 24.17104792 13.88000432 22.96000144 10.94140625 21.98046875 C7.65647542 20.88549181 4.70675597 19.45011972 1.625 17.875 C0.56539062 17.33617187 -0.49421875 16.79734375 -1.5859375 16.2421875 C-2.38257812 15.83226562 -3.17921875 15.42234375 -4 15 C-3.34728444 11.48294042 -2.48606976 8.10674923 -1.4375 4.6875 C-1.16808594 3.80449219 -0.89867187 2.92148438 -0.62109375 2.01171875 C-0.41613281 1.34785156 -0.21117187 0.68398437 0 0 Z " fill="#000000" transform="translate(31,158)"/>
</svg>
