<?xml version="1.0" standalone="no"?>
<!DOCTYPE svg PUBLIC "-//W3C//DTD SVG 20010904//EN"
 "http://www.w3.org/TR/2001/REC-SVG-20010904/DTD/svg10.dtd">
<svg version="1.0" xmlns="http://www.w3.org/2000/svg"
 width="618.000000pt" height="642.000000pt" viewBox="0 0 618.000000 642.000000"
 preserveAspectRatio="xMidYMid meet">
<g transform="translate(0.000000,642.000000) scale(0.100000,-0.100000)"
fill="#000000" stroke="none">
<path d="M2870 6200 c0 -13 410 -13 430 0 10 6 -60 10 -207 10 -142 0 -223 -4
-223 -10z"/>
<path d="M2707 6193 c-9 -2 -15 -9 -11 -14 4 -6 10 -6 17 0 7 5 23 11 37 14
25 4 25 4 0 4 -14 1 -33 -1 -43 -4z"/>
<path d="M2433 6183 c-35 -13 -3 -21 90 -21 103 0 137 4 137 16 0 8 -209 13
-227 5z"/>
<path d="M3530 6181 c-58 -16 -6 -19 228 -12 19 1 31 5 27 11 -7 11 -215 12
-255 1z"/>
<path d="M2142 6158 c5 -14 78 -23 115 -13 43 10 13 25 -53 25 -48 0 -65 -3
-62 -12z"/>
<path d="M3863 6163 c-51 -5 -58 -23 -10 -23 71 0 187 13 187 21 0 9 -92 9
-177 2z"/>
<path d="M1955 6150 c-53 -7 -56 -11 -15 -15 14 -2 41 -6 60 -9 31 -6 72 6 60
17 -11 10 -59 13 -105 7z"/>
<path d="M4107 6144 c-25 -25 58 -32 108 -9 29 13 28 13 -36 14 -36 1 -69 -2
-72 -5z"/>
<path d="M1803 6133 c-18 -2 -33 -8 -33 -12 0 -10 149 -26 157 -17 4 3 -5 6
-19 6 -14 0 -31 7 -38 15 -7 8 -18 14 -24 13 -6 0 -26 -3 -43 -5z"/>
<path d="M4015 6130 c-3 -6 5 -10 19 -10 14 0 28 5 31 10 3 6 -5 10 -19 10
-14 0 -28 -4 -31 -10z"/>
<path d="M4280 6130 c-25 -17 8 -30 60 -23 70 9 70 17 0 27 -25 3 -52 1 -60
-4z"/>
<path d="M2680 6119 c-227 -8 -474 -24 -620 -40 -230 -24 -383 -44 -525 -66
-55 -9 -127 -19 -160 -24 -72 -9 -232 -37 -455 -79 -91 -18 -180 -33 -198 -33
-34 -2 -34 -2 -33 -542 1 -297 3 -607 6 -690 3 -82 8 -215 10 -295 9 -273 36
-721 55 -920 9 -98 13 -135 39 -345 27 -223 87 -468 151 -620 5 -11 17 -40 27
-65 92 -228 323 -624 453 -775 25 -29 66 -79 92 -111 61 -78 144 -164 157
-164 6 0 11 -4 11 -9 0 -16 121 -132 230 -221 30 -25 61 -51 68 -57 17 -17 33
-17 26 0 -5 11 -98 91 -132 112 -39 24 -266 260 -348 360 -49 60 -98 119 -109
130 -11 12 -29 38 -40 58 -11 21 -30 48 -42 62 -13 13 -23 27 -23 30 0 4 -13
25 -29 48 -23 35 -57 90 -131 217 -80 138 -205 440 -259 625 -114 396 -177
1331 -175 2595 0 402 3 490 15 514 17 35 29 38 330 95 117 23 237 45 264 51
28 6 86 15 130 21 44 6 107 14 140 19 212 30 234 33 485 61 47 5 126 11 175
14 50 3 140 10 201 16 130 13 895 17 1104 6 217 -11 550 -38 640 -51 19 -3 78
-10 130 -16 126 -15 613 -92 695 -111 144 -31 276 -59 310 -64 22 -4 51 -16
65 -27 25 -20 25 -20 24 -542 -1 -1220 -58 -2114 -163 -2536 -15 -61 -42 -154
-51 -175 -4 -11 -23 -58 -41 -105 -72 -189 -200 -441 -298 -584 -15 -22 -47
-70 -71 -106 -24 -36 -48 -66 -52 -68 -4 -2 -8 -8 -8 -14 0 -6 -15 -27 -32
-48 -18 -21 -53 -64 -78 -96 -54 -70 -354 -374 -369 -374 -6 0 -11 -3 -11 -8
0 -4 -23 -25 -52 -47 -28 -22 -68 -55 -88 -73 -21 -17 -40 -32 -44 -32 -3 0
-52 -33 -108 -73 -57 -40 -116 -79 -133 -87 -16 -8 -43 -24 -60 -35 -49 -36
-256 -138 -385 -191 -36 -14 -83 -34 -105 -44 -22 -10 -67 -25 -100 -34 -33
-9 -77 -21 -97 -27 -41 -11 -49 -24 -20 -33 17 -6 114 23 129 37 3 4 13 7 21
7 39 0 433 179 536 243 28 18 62 38 76 45 14 6 34 18 44 24 118 76 164 109
175 122 8 9 19 16 25 16 6 0 25 13 42 28 18 15 68 56 114 91 117 93 340 318
458 465 277 344 499 760 597 1117 50 184 109 595 130 909 3 47 8 108 10 135 5
67 25 422 31 565 2 63 7 417 9 785 3 369 8 697 11 731 5 58 6 61 40 73 61 22
41 44 -51 57 -44 6 -98 16 -119 22 -22 6 -43 9 -48 6 -5 -3 -14 -1 -21 4 -7 5
-32 12 -57 15 -25 3 -65 10 -90 15 -152 34 -414 77 -647 108 -45 5 -88 -10
-77 -28 4 -7 32 -8 79 -4 53 5 74 3 77 -5 2 -7 26 -13 54 -15 49 -2 77 -7 274
-43 58 -11 143 -27 190 -36 47 -8 112 -22 145 -29 33 -8 94 -22 136 -31 82
-18 105 -28 96 -42 -6 -9 -41 -5 -232 31 -231 43 -319 59 -407 71 -53 8 -107
17 -120 20 -81 18 -497 66 -738 85 -501 38 -845 46 -1280 29z"/>
<path d="M1638 6113 c-27 -2 -48 -8 -48 -12 0 -9 118 -23 131 -16 14 9 -2 35
-20 33 -9 -1 -37 -3 -63 -5z"/>
<path d="M1510 6095 c-8 -2 -49 -8 -90 -14 -41 -7 -93 -16 -115 -21 -22 -4
-96 -18 -165 -30 -69 -12 -133 -26 -142 -31 -10 -5 -36 -9 -57 -9 -22 0 -43
-4 -46 -10 -3 -5 -28 -10 -56 -10 -27 0 -49 -4 -49 -9 0 -4 -37 -11 -82 -15
-94 -8 -107 -15 -82 -45 22 -25 59 -28 68 -5 3 9 13 14 21 10 8 -3 17 -1 20 4
4 6 15 10 25 10 11 0 25 6 32 13 6 8 23 11 36 9 23 -4 57 1 197 34 109 25 219
46 260 51 22 2 49 8 60 13 27 12 105 22 188 23 37 1 67 4 67 7 0 23 -41 34
-90 25z"/>
<path d="M2660 6054 c-380 -22 -634 -44 -940 -84 -303 -39 -407 -56 -745 -120
-82 -15 -167 -31 -187 -34 -37 -7 -37 -7 -33 -469 10 -1114 44 -1765 120
-2302 34 -243 81 -420 158 -598 8 -17 29 -66 47 -107 341 -782 1035 -1429
1845 -1720 50 -18 99 -37 110 -42 34 -15 58 -13 115 9 30 12 91 35 135 52 889
334 1590 1066 1912 1996 50 146 104 467 132 785 51 572 70 1072 74 1973 2 427
2 427 -36 427 -21 0 -68 7 -105 15 -115 25 -389 74 -562 99 -251 37 -441 62
-595 76 -355 34 -527 42 -940 44 -242 2 -469 2 -505 0z m640 -94 c0 -5 -13
-10 -30 -10 -16 0 -30 5 -30 10 0 6 14 10 30 10 17 0 30 -4 30 -10z m-702 -21
c21 -7 42 -7 72 1 27 7 46 8 52 2 5 -5 43 -7 86 -3 85 7 123 7 352 3 85 -1
184 -2 220 -1 36 1 83 1 105 0 22 -1 75 0 118 3 42 2 77 0 77 -5 0 -5 13 -9
28 -9 16 0 32 -3 36 -7 4 -4 53 -7 109 -8 107 0 224 -9 342 -25 39 -5 111 -12
160 -15 50 -2 146 -12 215 -20 171 -22 171 -22 295 -45 61 -12 124 -23 140
-26 17 -2 50 -8 75 -14 25 -6 85 -17 134 -25 49 -8 91 -17 93 -19 5 -5 3 -764
-3 -976 -2 -74 -4 -189 -4 -255 0 -66 -6 -147 -12 -181 -8 -46 -8 -69 1 -94 9
-27 9 -37 -2 -47 -10 -10 -11 -32 -6 -91 5 -42 4 -95 -1 -117 -6 -27 -5 -44 2
-53 9 -10 9 -18 0 -32 -7 -12 -8 -21 -2 -25 6 -4 5 -15 -4 -28 -8 -13 -18 -85
-25 -182 -14 -187 -25 -300 -42 -445 -7 -58 -13 -118 -14 -135 -1 -16 -4 -37
-7 -45 -12 -27 -27 -114 -22 -122 3 -5 -4 -36 -16 -69 -14 -41 -18 -72 -14
-95 5 -26 3 -34 -7 -32 -7 2 -14 -6 -16 -17 -2 -11 -8 -29 -13 -40 -5 -11 -19
-49 -31 -84 -12 -35 -28 -75 -35 -90 -8 -14 -14 -33 -14 -42 0 -21 -27 -74
-45 -89 -8 -7 -15 -18 -15 -24 0 -14 -53 -120 -80 -161 -24 -37 -40 -72 -40
-89 0 -8 -7 -19 -15 -26 -8 -7 -15 -21 -15 -31 0 -11 -7 -19 -15 -19 -9 0 -20
-11 -25 -25 -5 -14 -15 -25 -21 -25 -15 0 -59 -47 -59 -63 0 -7 11 1 25 17 31
36 42 29 21 -12 -19 -37 -36 -49 -46 -32 -5 8 -10 9 -14 2 -3 -6 -1 -12 5 -14
8 -3 8 -10 -2 -26 -8 -12 -20 -20 -26 -17 -7 2 -15 -6 -19 -19 -3 -13 -23 -41
-45 -62 -21 -21 -39 -44 -39 -50 0 -7 -11 -21 -25 -32 -14 -11 -23 -26 -20
-34 4 -9 -6 -19 -27 -29 -17 -8 -39 -27 -48 -44 -9 -16 -28 -36 -43 -43 -27
-13 -38 -52 -15 -52 6 0 9 -2 6 -5 -3 -3 -17 -1 -32 5 -25 9 -27 8 -21 -10 4
-13 2 -20 -7 -20 -8 0 -24 -14 -36 -30 -13 -17 -28 -30 -34 -30 -19 0 -58 -42
-58 -62 0 -11 -7 -18 -18 -18 -11 0 -27 -9 -37 -20 -10 -11 -23 -20 -30 -20
-6 0 -24 -14 -40 -30 -16 -16 -34 -30 -41 -30 -6 0 -17 -6 -24 -14 -6 -8 -18
-12 -26 -9 -8 3 -14 0 -14 -6 0 -6 5 -11 10 -11 19 0 10 -19 -21 -40 -36 -27
-52 -18 -19 10 13 11 19 20 14 20 -14 -1 -54 -37 -54 -49 0 -6 -7 -11 -15 -11
-8 0 -15 -7 -15 -15 0 -8 -12 -18 -27 -21 -28 -7 -80 -34 -118 -60 -17 -12
-17 -14 -2 -14 9 0 17 -5 17 -11 0 -7 -12 -9 -34 -5 -19 4 -37 2 -40 -3 -4 -6
-44 -29 -91 -51 -46 -23 -86 -48 -89 -57 -4 -9 -13 -12 -25 -8 -11 3 -22 1
-26 -5 -3 -5 -17 -10 -30 -10 -19 0 -23 -4 -18 -17 5 -13 2 -15 -16 -10 -13 3
-31 2 -40 -2 -9 -5 -29 -15 -46 -22 -16 -7 -38 -20 -47 -27 -10 -8 -25 -11
-34 -8 -10 4 -21 2 -24 -5 -9 -14 -155 -15 -173 -2 -6 5 -32 15 -57 23 -25 7
-49 17 -54 22 -6 4 -23 8 -38 8 -15 0 -28 4 -28 9 0 5 -14 11 -31 15 -71 14
-380 180 -506 273 -40 29 -61 38 -70 32 -7 -7 -13 -7 -17 0 -4 5 2 14 11 20
16 9 16 10 -5 11 -14 0 -39 16 -60 38 -20 21 -45 41 -55 45 -9 3 -17 10 -16
14 3 19 -2 27 -10 15 -10 -17 -51 4 -51 26 0 7 -12 17 -26 22 -19 8 -24 15
-19 30 5 15 2 20 -12 20 -10 0 -29 7 -41 16 -13 9 -29 13 -36 11 -10 -4 -12 1
-9 14 3 10 9 19 14 19 5 0 9 4 9 9 0 4 -10 6 -23 4 -17 -3 -26 2 -35 21 -12
28 -28 34 -35 14 -2 -7 -8 -9 -13 -5 -5 4 -3 12 4 16 18 11 -7 56 -59 103 -31
28 -44 35 -50 26 -4 -7 -11 -9 -15 -5 -4 3 -2 13 5 20 9 11 0 25 -44 65 -30
28 -57 62 -61 76 -6 27 -20 34 -26 14 -2 -6 -10 -8 -16 -4 -17 10 -15 26 3 26
22 0 18 21 -5 27 -11 3 -20 9 -20 14 0 10 -68 101 -83 110 -5 4 -7 14 -4 24 6
13 3 15 -13 10 -14 -4 -20 -2 -20 8 0 19 -27 72 -45 87 -8 7 -15 23 -15 35 0
12 -6 27 -13 33 -7 6 -19 27 -27 47 -7 19 -17 35 -22 35 -4 0 -8 9 -8 19 0 11
-3 21 -7 23 -24 10 -57 63 -64 104 -5 26 -16 52 -25 59 -10 7 -14 17 -10 23 8
13 -11 60 -38 90 -12 13 -20 37 -20 57 0 19 -3 35 -6 35 -9 0 -29 53 -36 98
-4 23 -11 45 -15 48 -5 3 -9 20 -9 39 0 19 -4 37 -10 40 -5 3 -10 26 -10 50 0
24 -4 46 -9 49 -8 5 -16 51 -28 169 -3 31 -10 57 -16 57 -5 0 -7 14 -4 35 3
19 2 37 -2 40 -9 5 -18 106 -27 310 -4 93 -11 149 -21 168 -10 20 -11 32 -4
41 8 9 7 35 -2 89 -8 44 -9 77 -4 77 5 0 6 12 2 28 -4 15 -8 95 -9 177 -1 83
-8 323 -14 535 -7 212 -11 542 -10 734 3 349 3 349 43 353 22 2 60 8 85 13
196 42 617 110 743 120 200 15 237 18 357 31 63 6 166 12 227 14 71 1 118 7
127 14 8 7 23 10 33 7 10 -3 34 -1 53 3 19 5 38 9 41 10 3 1 20 -4 37 -10z
m-859 -4427 c13 -13 21 -25 18 -28 -9 -9 -34 8 -56 36 -18 25 -19 28 -4 23 10
-4 29 -18 42 -31z"/>
<path d="M3055 5650 c-22 -9 -55 -45 -55 -60 0 -5 -6 -13 -13 -17 -8 -4 -31
-45 -53 -90 -21 -45 -42 -79 -46 -77 -4 3 -8 -4 -8 -15 0 -12 -5 -21 -10 -21
-6 0 -15 -10 -21 -22 -5 -13 -16 -34 -24 -48 -8 -14 -12 -33 -9 -43 3 -10 -1
-19 -10 -23 -9 -3 -16 -14 -16 -24 0 -11 -4 -22 -10 -25 -5 -3 -10 -17 -10
-31 0 -25 -15 -33 -23 -11 -2 6 -8 8 -13 4 -5 -5 0 -15 11 -23 20 -15 20 -16
-7 -39 -34 -29 -71 -93 -62 -106 3 -6 -3 -19 -15 -30 -12 -11 -21 -28 -21 -38
0 -11 -6 -21 -14 -24 -9 -4 -12 -14 -9 -25 5 -21 -22 -82 -36 -82 -5 0 -11 6
-14 13 -2 7 -8 8 -13 3 -5 -5 -4 -11 4 -13 16 -6 16 -39 -1 -46 -16 -6 -57
-88 -57 -114 0 -11 -9 -32 -20 -46 -11 -14 -20 -33 -20 -42 0 -9 -9 -19 -20
-22 -11 -3 -20 -12 -20 -19 0 -8 -4 -14 -10 -14 -5 0 -10 -6 -10 -14 0 -18
-15 -52 -39 -91 -11 -16 -20 -38 -20 -47 -1 -10 -9 -18 -18 -18 -15 0 -14 -2
3 -14 19 -15 19 -15 -3 -37 -12 -13 -26 -20 -30 -15 -4 4 -1 11 6 15 7 5 12
14 9 21 -3 11 -20 -15 -32 -52 -7 -23 -26 -23 -26 -1 0 13 -3 14 -12 5 -16
-16 -48 -15 -67 2 -22 19 -86 27 -101 13 -10 -9 -11 -7 -5 11 6 21 4 23 -15
17 -20 -6 -39 -1 -92 26 -10 5 -31 9 -47 9 -16 0 -34 7 -41 14 -6 8 -35 20
-63 26 -29 6 -65 17 -81 25 -15 8 -37 15 -47 15 -10 0 -20 4 -24 9 -3 5 -19
12 -35 16 -17 4 -30 10 -30 14 0 4 -12 7 -27 6 -21 0 -28 5 -27 18 1 9 -2 17
-7 17 -5 0 -9 -7 -9 -15 0 -24 -19 -18 -32 10 -6 14 -19 25 -28 25 -10 0 -23
6 -29 14 -7 8 -20 12 -30 9 -12 -3 -24 3 -34 17 -11 16 -21 20 -37 15 -11 -4
-27 -2 -34 4 -10 9 -15 8 -19 -3 -3 -8 -16 -16 -29 -18 -16 -2 -22 -9 -21 -23
1 -11 -5 -24 -13 -28 -9 -5 -13 -16 -9 -28 5 -15 2 -19 -14 -19 -12 0 -21 -4
-21 -10 0 -5 -7 -10 -15 -10 -8 0 -15 -4 -15 -10 0 -13 13 -13 27 1 13 13 33
4 33 -17 0 -8 10 -14 26 -14 23 0 25 -2 14 -15 -14 -17 11 -55 37 -55 7 0 17
-8 20 -17 11 -29 37 -53 56 -53 13 0 17 -5 13 -15 -21 -52 -21 -51 1 -32 26
23 30 22 37 -14 5 -25 9 -29 27 -24 18 6 20 4 14 -15 -5 -15 -4 -20 4 -16 12
8 71 -45 71 -63 0 -6 5 -11 10 -11 6 0 24 -14 40 -30 17 -17 35 -28 41 -24 6
3 28 -12 49 -34 21 -22 47 -39 57 -38 13 1 17 -5 16 -24 -3 -24 -2 -24 12 -6
12 16 18 17 27 8 10 -10 10 -15 -2 -22 -18 -11 -16 -13 40 -38 25 -11 54 -30
64 -41 14 -15 23 -18 31 -11 9 7 21 7 39 -1 29 -13 35 -29 11 -29 -8 0 -15 -4
-15 -9 0 -6 15 -7 33 -5 29 5 33 2 46 -26 8 -20 10 -35 4 -39 -14 -9 -43 -71
-43 -92 0 -36 -11 -51 -28 -37 -13 11 -15 10 -9 -12 4 -17 0 -31 -12 -45 -31
-33 -62 -96 -70 -139 -5 -30 -12 -41 -24 -40 -10 1 -17 -5 -17 -17 0 -10 -7
-19 -15 -19 -15 0 -21 -28 -16 -79 2 -18 -2 -22 -13 -18 -11 4 -16 1 -16 -12
0 -10 -7 -24 -15 -31 -21 -17 -48 -77 -41 -89 7 -11 -13 -61 -25 -61 -4 0 -10
6 -13 13 -3 6 -3 2 0 -10 4 -16 1 -23 -10 -23 -12 0 -14 -10 -10 -47 3 -37 1
-44 -8 -35 -17 17 -31 15 -24 -3 3 -8 -3 -23 -13 -32 -10 -10 -24 -33 -32 -50
-8 -18 -18 -33 -22 -33 -5 0 -6 -14 -2 -31 6 -28 5 -30 -15 -24 -20 6 -21 4
-14 -30 6 -32 4 -37 -15 -42 -19 -5 -27 -27 -22 -57 1 -5 -9 -21 -22 -35 -45
-48 -63 -155 -32 -181 8 -7 15 -19 15 -26 0 -9 11 -14 30 -14 17 0 30 -5 30
-12 0 -7 5 -5 11 5 6 9 14 15 19 12 13 -8 86 61 104 96 10 20 11 30 2 39 -8
10 -5 11 15 6 21 -4 28 -1 37 19 7 14 18 28 26 31 8 3 12 12 10 19 -5 13 0 20
49 56 15 11 27 26 27 33 0 7 9 21 20 31 11 10 20 23 20 29 0 6 12 24 26 39 18
19 23 34 19 48 -6 18 -4 20 17 15 12 -3 17 -3 11 0 -21 9 -15 26 6 19 14 -4
21 0 26 15 3 11 17 32 29 48 13 15 26 40 30 56 4 16 15 30 26 33 11 3 20 11
20 17 0 6 14 23 30 38 19 17 28 32 24 42 -4 10 0 18 10 22 9 3 16 12 16 19 0
7 18 29 40 49 27 24 38 41 33 52 -5 13 -2 15 18 9 18 -5 20 -4 9 4 -14 9 -8
26 9 26 10 0 61 60 61 72 0 5 14 22 30 38 17 16 30 37 30 46 0 10 14 27 30 39
17 12 30 27 30 35 0 7 11 22 25 33 16 13 23 26 19 36 -4 10 -1 16 9 16 8 0 18
8 21 17 5 13 9 14 19 3 9 -10 9 -13 0 -17 -28 -10 -10 -19 40 -19 28 0 79 -5
112 -12 186 -38 604 -51 795 -23 52 7 118 14 147 15 29 1 56 5 59 9 11 11 34
8 34 -4 0 -6 16 -29 36 -51 20 -22 42 -54 50 -72 21 -48 50 -77 69 -70 14 6
16 3 11 -13 -4 -12 -1 -25 9 -33 8 -7 15 -18 15 -25 0 -7 7 -15 15 -19 8 -3
15 -11 15 -19 0 -7 11 -24 25 -37 14 -13 25 -29 25 -35 0 -6 14 -21 30 -33 17
-13 30 -31 30 -40 0 -10 14 -31 30 -47 17 -16 30 -34 30 -40 0 -6 14 -24 30
-40 17 -16 30 -35 30 -42 0 -7 13 -22 30 -35 16 -12 32 -30 36 -40 3 -10 16
-30 30 -43 13 -13 24 -31 24 -39 0 -8 15 -26 33 -40 18 -14 40 -38 48 -53 7
-16 22 -35 31 -44 10 -9 18 -21 18 -28 0 -6 19 -38 43 -71 32 -45 48 -60 67
-60 23 -1 24 -2 7 -14 -17 -13 -14 -18 39 -67 41 -40 62 -53 80 -51 16 2 24
-1 24 -12 0 -20 24 -21 39 -2 10 12 8 13 -8 9 -21 -5 -30 12 -10 19 7 2 -4 25
-25 53 -19 28 -106 149 -192 269 -142 200 -312 432 -399 546 -19 25 -61 81
-94 125 -33 44 -94 123 -135 175 -42 52 -84 112 -94 133 -13 30 -21 36 -37 32
-31 -10 -163 -40 -230 -53 -125 -25 -386 -36 -552 -23 -207 15 -437 56 -453
80 -5 9 -44 -42 -552 -717 -235 -312 -398 -541 -398 -558 0 -10 -33 -33 -48
-34 -17 0 -7 34 19 72 11 14 40 66 65 115 26 48 58 108 72 133 14 25 135 263
270 530 135 267 254 497 264 512 19 27 17 48 -4 48 -20 0 -175 78 -277 139
-107 65 -189 123 -276 194 -80 65 -374 360 -369 369 7 12 44 10 44 -2 0 -5 5
-10 11 -10 6 0 30 -13 54 -30 42 -29 186 -102 256 -128 40 -16 70 -28 102 -42
97 -41 571 -170 627 -170 8 0 67 112 224 425 28 55 54 102 58 103 5 2 8 10 8
17 0 8 13 36 28 62 28 48 110 214 172 348 18 39 75 155 126 258 52 104 99 206
105 228 16 53 33 49 62 -13 66 -144 275 -569 474 -965 123 -242 223 -453 223
-467 0 -25 13 -35 24 -17 3 5 47 18 98 30 303 71 781 257 925 359 34 24 63 29
63 10 -1 -18 -289 -302 -380 -374 -141 -113 -310 -218 -453 -284 -53 -25 -96
-49 -94 -55 4 -16 572 -1143 612 -1214 20 -35 44 -76 54 -90 9 -14 25 -43 34
-63 22 -47 43 -62 33 -23 -6 22 -4 26 8 22 11 -5 16 0 16 12 0 11 3 27 7 36 5
14 2 16 -18 10 -20 -7 -22 -6 -12 7 10 11 10 17 1 26 -9 9 -9 15 0 24 21 21
13 31 -19 24 -26 -5 -30 -4 -20 8 8 10 9 16 1 21 -5 3 -8 16 -4 29 3 14 -1 27
-10 35 -9 8 -16 18 -16 24 0 6 -14 23 -31 38 -18 16 -29 34 -26 42 3 8 -1 32
-8 53 -8 22 -14 33 -15 27 0 -26 -19 -12 -25 19 -4 17 -14 38 -22 46 -8 8 -12
21 -9 28 6 17 -31 94 -46 94 -5 0 -6 9 -3 21 6 18 4 20 -14 14 -19 -6 -20 -3
-15 24 4 19 2 31 -4 31 -6 0 -14 14 -17 32 -4 18 -18 40 -31 51 -13 10 -24 26
-24 35 0 24 -43 112 -55 112 -14 0 -35 58 -28 76 3 8 1 14 -5 14 -5 0 -13 11
-16 25 -4 14 -11 25 -16 25 -6 0 -10 5 -10 11 0 6 -9 22 -20 36 -12 16 -18 34
-15 45 4 10 2 18 -4 18 -6 0 -20 19 -31 43 -11 23 -24 49 -29 57 -26 48 -31
62 -25 71 3 6 13 8 21 5 10 -4 17 2 20 15 6 21 7 21 19 4 16 -21 37 -10 29 16
-7 21 10 27 18 7 3 -9 17 -1 40 20 26 25 40 32 56 27 12 -3 21 -3 21 2 0 5 15
15 33 22 24 10 28 15 15 18 -10 2 -18 8 -18 13 0 15 21 23 33 11 18 -18 37
-13 37 9 0 14 7 20 23 20 13 0 36 14 52 30 16 17 33 30 38 30 10 0 85 62 171
142 49 47 58 60 46 67 -8 6 -11 13 -7 18 5 4 12 1 17 -7 7 -12 26 1 90 65 44
44 80 84 80 89 0 5 6 17 14 25 7 9 18 31 24 50 11 32 10 35 -31 72 -23 22 -57
42 -75 45 -34 7 -106 -9 -129 -28 -7 -5 -17 -7 -24 -3 -8 5 -9 1 -4 -14 6 -19
4 -21 -17 -16 -19 5 -27 1 -36 -19 -12 -27 -31 -33 -47 -17 -6 6 -30 -3 -65
-24 -30 -19 -65 -35 -77 -35 -12 0 -25 -4 -28 -10 -3 -5 -17 -10 -30 -10 -13
0 -27 -4 -30 -10 -3 -5 -17 -10 -30 -10 -13 0 -27 -5 -31 -11 -3 -6 -17 -8
-31 -4 -21 5 -24 3 -18 -15 5 -15 2 -20 -13 -20 -11 0 -22 4 -24 8 -1 5 -14 5
-28 1 -25 -7 -25 -7 3 -8 52 -2 26 -19 -40 -26 -61 -6 -223 -43 -265 -60 -24
-10 -53 10 -68 45 -7 16 -18 30 -26 30 -8 0 -12 12 -12 31 1 17 -4 34 -10 38
-6 3 -13 18 -17 33 -4 15 -15 34 -26 44 -10 9 -19 27 -19 40 0 13 -4 25 -9 29
-16 9 -41 67 -35 77 4 6 -2 8 -15 3 -23 -7 -28 4 -10 22 6 6 8 17 3 24 -5 9
-9 8 -14 -6 -6 -18 -8 -18 -19 4 -8 15 -9 21 -2 17 6 -4 11 0 11 8 0 8 -9 20
-20 26 -11 6 -20 17 -20 26 0 13 -37 94 -61 134 -5 8 -18 34 -29 56 -11 23
-31 56 -46 73 -18 21 -25 39 -22 56 3 13 2 26 -1 27 -15 7 -61 79 -56 87 3 6
-4 25 -15 43 -11 18 -20 45 -20 61 0 15 -4 27 -10 27 -5 0 -10 -7 -10 -15 0
-8 -5 -15 -11 -15 -7 0 -9 10 -7 25 3 14 1 25 -5 25 -5 0 -7 13 -3 31 5 27 4
30 -16 23 -19 -6 -20 -4 -15 25 5 24 3 31 -9 31 -11 0 -13 6 -9 20 5 15 2 20
-10 20 -11 0 -15 5 -11 15 9 23 -28 84 -89 148 -55 58 -65 62 -100 47z"/>
<path d="M3080 5395 c0 -44 -2 -139 -5 -211 -2 -72 -1 -143 3 -159 9 -33 -13
-81 -94 -206 -27 -42 -56 -89 -66 -105 -32 -56 -192 -316 -401 -654 -26 -41
-59 -97 -73 -125 -15 -27 -33 -54 -39 -60 -7 -5 -40 -55 -72 -110 -33 -55
-104 -172 -158 -260 -173 -282 -261 -429 -291 -485 -16 -30 -33 -58 -38 -61
-5 -4 -7 -12 -4 -19 3 -11 28 19 78 96 75 115 182 272 195 285 8 9 15 21 15
27 0 7 5 12 10 12 6 0 10 7 10 15 0 8 9 20 20 27 11 7 20 21 20 30 0 10 5 18
10 18 6 0 21 21 33 48 12 26 41 67 65 92 32 32 42 50 39 67 -2 12 -1 24 2 25
10 5 41 65 41 80 0 8 6 23 14 33 13 18 15 17 30 -19 9 -21 16 -47 16 -57 0
-40 21 -15 44 54 3 9 13 17 22 17 10 0 14 -5 10 -15 -4 -12 3 -15 34 -15 22 0
40 -4 40 -10 0 -5 21 -7 49 -3 28 3 58 2 68 -3 91 -40 578 -50 689 -14 18 6
42 9 53 5 11 -3 22 -1 26 5 3 5 24 10 45 10 21 0 42 5 45 10 3 6 14 10 23 10
15 -1 15 -2 -2 -15 -23 -18 -11 -19 32 -4 20 7 29 15 25 25 -3 9 1 14 11 14 9
0 19 7 22 15 5 11 10 13 19 5 8 -7 15 -3 23 14 16 36 0 38 -125 16 -354 -61
-708 -61 -1033 1 -114 22 -151 41 -109 58 13 5 46 19 72 30 27 12 52 19 55 17
10 -6 113 14 135 26 29 15 2 41 -35 34 -89 -19 -88 -19 -88 -2 0 9 4 16 8 16
12 0 32 46 32 73 0 12 15 38 33 57 19 19 32 40 30 46 -2 6 10 23 27 37 16 14
30 30 30 36 0 6 9 20 20 31 12 12 17 26 13 36 -5 14 -1 16 19 12 21 -4 24 -1
20 17 -2 12 4 27 12 34 9 8 16 19 16 26 0 6 9 20 20 30 11 10 20 25 20 33 0
13 -3 12 -15 -4 -16 -19 -16 -19 -13 1 2 11 12 21 22 23 28 6 47 28 40 46 -3
8 9 36 27 63 19 26 32 56 31 66 -2 10 5 32 15 50 10 18 25 52 33 77 8 25 20
55 26 68 10 20 12 19 18 -24 3 -26 6 -104 6 -175 0 -130 10 -184 33 -177 6 3
14 22 17 44 4 28 7 34 12 22 11 -27 32 -22 23 5 -14 47 -22 98 -15 102 4 2 20
0 36 -5 16 -4 21 -9 12 -9 -14 -1 -18 -9 -17 -38 1 -24 3 -29 6 -15 6 31 18
28 33 -9 10 -22 10 -33 1 -42 -14 -14 -14 -27 -1 -27 6 0 10 7 10 15 0 22 21
18 27 -4 3 -11 14 -22 26 -25 17 -4 19 -8 9 -18 -18 -18 -15 -28 8 -28 24 0
40 -34 41 -88 0 -32 1 -34 9 -14 12 30 30 28 30 -3 0 -14 5 -25 10 -25 6 0 10
-13 10 -30 0 -25 4 -30 25 -30 28 0 48 -46 25 -60 -7 -4 -9 -13 -6 -19 11 -16
24 -13 29 7 4 16 4 16 12 -2 5 -11 3 -21 -5 -26 -17 -11 16 -61 36 -53 10 4
14 -3 14 -22 0 -29 -6 -27 -48 13 -29 27 -61 -3 -41 -40 7 -13 10 -24 8 -26
-6 -5 42 -52 52 -52 5 0 55 -23 112 -50 125 -62 152 -63 110 -5 -32 44 -173
264 -173 270 0 2 -13 24 -30 48 -16 25 -30 47 -30 50 0 3 -18 33 -40 66 -22
33 -40 62 -40 65 0 4 -91 152 -211 341 -74 118 -102 183 -91 213 6 15 13 39
16 55 4 15 11 27 16 27 13 0 13 47 0 55 -5 3 -10 13 -10 21 0 9 5 12 12 8 8
-5 9 -2 3 12 -7 16 -12 63 -16 134 -2 47 -21 124 -34 143 -14 20 -15 16 -15
-58z"/>
<path d="M2964 4343 c-65 -87 -146 -193 -181 -236 -35 -44 -63 -82 -63 -85 0
-10 322 -14 528 -7 113 5 182 11 182 17 0 6 -15 27 -32 47 -74 84 -263 341
-286 389 -9 17 -19 32 -23 32 -4 0 -61 -71 -125 -157z m147 -33 c18 -10 57
-62 87 -116 7 -13 22 -29 33 -34 12 -7 19 -20 18 -38 -1 -19 -3 -21 -6 -8 -5
17 -14 18 -126 14 -91 -3 -128 -1 -149 10 -33 16 -35 23 -7 40 14 9 18 19 14
33 -5 15 -2 22 14 26 12 3 21 10 21 15 0 15 53 68 68 68 7 0 22 -5 33 -10z"/>
<path d="M1153 4468 c2 -7 10 -13 17 -13 7 0 15 6 18 13 2 7 -5 12 -18 12 -13
0 -20 -5 -17 -12z"/>
<path d="M1445 4294 c87 -84 161 -144 177 -144 11 0 15 -5 12 -14 -3 -9 5 -16
23 -21 15 -3 30 -10 33 -13 10 -14 99 -72 109 -72 6 0 11 -4 11 -10 0 -5 10
-10 23 -11 12 0 16 -3 9 -6 -6 -2 -9 -9 -6 -14 3 -6 11 -5 20 2 12 10 19 8 38
-10 18 -17 30 -20 51 -15 24 6 27 5 21 -11 -5 -15 -2 -17 25 -11 26 5 30 4 20
-8 -9 -11 -9 -16 0 -21 6 -4 15 -2 18 4 7 11 66 -11 81 -30 3 -4 14 -8 25 -10
24 -5 34 -39 11 -39 -9 0 -16 -4 -16 -10 0 -17 24 -11 37 9 10 16 81 38 107
32 4 -1 17 1 27 4 26 9 24 35 -3 35 -78 0 -508 190 -713 315 -60 37 -126 76
-145 87 -35 20 -35 20 5 -18z"/>
<path d="M4505 4177 c-167 -103 -497 -239 -694 -287 -75 -18 -89 -50 -31 -72
8 -3 71 -97 139 -209 68 -112 138 -226 156 -254 18 -27 52 -84 77 -125 77
-127 198 -306 198 -291 0 14 -16 47 -124 246 -39 72 -74 132 -78 133 -4 2 -8
12 -8 23 0 10 -3 19 -8 19 -4 0 -18 25 -31 55 -13 30 -28 55 -32 55 -5 0 -9
11 -9 25 0 16 -6 25 -15 25 -8 0 -15 9 -15 20 0 11 -4 20 -10 20 -5 0 -10 8
-10 19 0 10 -7 24 -14 31 -8 6 -20 27 -27 47 -8 26 -16 34 -29 30 -20 -5 -17
21 4 36 6 4 -2 5 -18 1 -24 -6 -28 -4 -23 9 4 11 -6 26 -30 46 -32 26 -34 31
-19 37 11 4 21 2 26 -6 4 -7 12 -10 18 -6 6 3 18 -1 26 -10 15 -14 18 -14 40
7 18 17 22 27 14 36 -6 7 -7 14 -2 15 24 4 31 6 57 16 16 7 33 12 39 12 6 0 6
6 -2 15 -11 13 -8 15 18 15 17 0 34 5 38 11 3 6 15 9 25 6 12 -3 19 0 19 9 0
8 6 14 13 14 20 0 74 28 139 72 31 21 61 38 66 38 4 0 17 8 28 18 10 9 37 29
60 45 45 30 103 87 88 86 -5 0 -31 -14 -59 -32z"/>
<path d="M2300 4042 c0 -6 6 -13 13 -15 9 -4 9 -8 -2 -15 -9 -7 -10 -12 -2
-16 6 -4 11 -17 11 -29 0 -23 46 -74 57 -63 4 3 -2 37 -13 74 -16 55 -23 68
-42 70 -12 2 -22 -1 -22 -6z"/>
<path d="M2176 3824 c-9 -22 -8 -24 9 -24 8 0 15 -4 15 -10 0 -5 4 -10 9 -10
5 0 3 14 -5 30 -18 35 -20 36 -28 14z"/>
<path d="M3737 3763 c-3 -15 -3 -30 -1 -32 6 -7 34 33 31 43 -7 22 -25 15 -30
-11z"/>
<path d="M647 4113 c-4 -3 -6 -25 -6 -47 2 -41 2 -41 9 4 8 48 7 54 -3 43z"/>
<path d="M5490 3946 c0 -14 5 -28 10 -31 6 -4 10 7 10 24 0 17 -4 31 -10 31
-5 0 -10 -11 -10 -24z"/>
<path d="M660 3760 c0 -18 4 -29 10 -25 6 3 10 15 10 25 0 10 -4 22 -10 25 -6
4 -10 -7 -10 -25z"/>
<path d="M5478 3613 c5 -59 10 -63 11 -10 1 26 -3 47 -7 47 -4 0 -6 -17 -4
-37z"/>
<path d="M680 3468 c0 -74 5 -73 14 5 4 36 2 57 -4 57 -6 0 -10 -27 -10 -62z"/>
<path d="M5458 3398 c-2 -18 0 -46 3 -63 5 -22 7 -13 8 33 1 67 -4 83 -11 30z"/>
<path d="M700 3268 c0 -62 5 -60 14 5 5 31 4 47 -3 47 -7 0 -11 -22 -11 -52z"/>
<path d="M5440 3198 c0 -28 2 -49 4 -47 8 9 13 99 5 99 -5 0 -9 -23 -9 -52z"/>
<path d="M722 3100 c1 -65 1 -65 8 -15 4 28 3 57 -1 65 -5 9 -8 -11 -7 -50z"/>
<path d="M5418 3093 c-2 -4 -1 -26 2 -48 5 -40 5 -40 12 0 7 35 -3 70 -14 48z"/>
<path d="M741 2980 c0 -36 2 -41 10 -27 7 12 7 27 0 45 -9 25 -9 24 -10 -18z"/>
<path d="M5398 2938 c-3 -24 -1 -50 3 -58 6 -11 8 -8 9 11 0 15 3 41 6 58 4
18 2 31 -4 31 -5 0 -12 -19 -14 -42z"/>
<path d="M758 2900 c-4 -12 0 -44 19 -148 3 -18 9 -35 14 -38 5 -3 9 -21 9
-40 0 -21 4 -33 10 -29 12 8 13 49 1 73 -12 24 -31 107 -31 140 0 32 -15 61
-22 42z"/>
<path d="M5376 2844 c-3 -9 -6 -28 -6 -42 0 -15 -6 -39 -14 -54 -14 -27 -11
-68 5 -68 5 0 9 11 9 24 0 14 4 35 9 48 14 38 22 108 12 108 -5 0 -12 -7 -15
-16z"/>
<path d="M5324 2656 c-8 -21 3 -49 16 -41 5 3 10 15 10 25 0 25 -18 36 -26 16z"/>
<path d="M820 2605 c0 -25 14 -34 24 -16 8 12 -3 41 -15 41 -5 0 -9 -11 -9
-25z"/>
<path d="M846 2557 c-14 -10 -16 -16 -7 -22 15 -9 35 8 30 24 -3 8 -10 7 -23
-2z"/>
<path d="M892 2403 c13 -26 29 -65 48 -114 12 -31 39 -87 61 -124 21 -37 39
-73 39 -79 0 -7 4 -16 9 -21 5 -6 28 -45 50 -87 43 -80 116 -198 129 -208 5
-3 19 -23 32 -45 42 -69 155 -216 235 -305 160 -177 314 -321 476 -447 131
-101 405 -276 492 -313 12 -6 29 -14 37 -20 75 -49 535 -230 586 -230 9 0 28
6 42 14 15 8 65 26 112 41 317 99 703 312 1006 556 165 132 403 370 505 504
13 17 26 32 29 35 35 31 270 383 270 405 0 8 5 15 10 15 6 0 10 5 10 11 0 6 9
24 21 40 14 20 19 38 15 54 -5 18 -3 23 8 19 9 -3 26 22 55 83 23 48 49 100
57 115 17 32 18 38 2 38 -7 0 -24 -24 -38 -53 -14 -28 -40 -78 -59 -110 -19
-33 -36 -69 -37 -80 -1 -12 -3 -25 -3 -29 -1 -4 -7 -5 -15 -2 -10 4 -12 -2 -9
-21 4 -19 2 -24 -9 -20 -17 7 -44 -37 -34 -54 4 -6 2 -11 -3 -11 -6 0 -11 -9
-11 -20 0 -11 -3 -20 -7 -20 -5 0 -19 -17 -33 -38 -30 -45 -33 -49 -65 -88
-14 -18 -25 -35 -25 -38 0 -3 -24 -36 -52 -74 -29 -38 -64 -84 -78 -102 -14
-18 -46 -56 -72 -84 -27 -28 -48 -54 -48 -58 0 -5 -7 -8 -16 -8 -9 0 -14 -5
-12 -12 5 -13 -203 -228 -220 -228 -7 0 -12 -4 -12 -10 0 -5 -4 -10 -9 -10 -5
0 -31 -21 -58 -47 -27 -27 -65 -59 -86 -73 -20 -14 -37 -28 -37 -32 0 -5 -7
-8 -15 -8 -8 0 -15 -4 -15 -9 0 -11 -174 -131 -189 -131 -6 0 -11 -4 -11 -8 0
-4 -13 -16 -30 -25 -16 -10 -35 -23 -42 -30 -23 -21 -382 -206 -443 -228 -11
-4 -36 -14 -55 -22 -19 -8 -60 -23 -90 -33 -30 -9 -64 -21 -75 -25 -126 -47
-118 -47 -269 3 -50 16 -95 31 -101 32 -5 1 -25 9 -44 19 -19 9 -40 17 -48 17
-7 0 -13 5 -13 10 0 6 -13 10 -30 10 -16 0 -30 5 -30 10 0 6 -6 10 -14 10 -8
0 -47 18 -87 39 -41 22 -103 55 -139 73 -36 18 -66 36 -68 40 -2 5 -8 8 -12 8
-12 0 -125 67 -142 83 -7 8 -25 20 -39 28 -24 13 -138 94 -167 119 -7 6 -17 8
-22 5 -6 -3 -10 -1 -10 5 0 6 -6 17 -12 23 -22 21 -96 77 -101 77 -12 0 -197
180 -197 192 0 6 -7 8 -14 5 -10 -4 -13 -1 -9 9 3 8 -1 14 -11 14 -9 0 -16 3
-16 8 -1 4 -25 33 -55 66 -30 32 -55 65 -55 72 0 8 -4 14 -9 14 -17 0 -111
103 -111 122 0 10 -4 18 -10 18 -5 0 -22 19 -38 43 -17 23 -39 53 -51 66 -11
13 -26 36 -33 52 -7 16 -18 29 -25 29 -6 0 -14 13 -18 29 -4 20 -11 28 -21 24
-8 -3 -14 1 -14 11 0 9 -5 16 -11 16 -6 0 -8 7 -5 16 4 10 -3 26 -18 41 -14
13 -23 30 -20 37 3 8 -2 16 -10 19 -9 4 -16 13 -16 22 0 8 -4 15 -10 15 -5 0
-10 8 -11 18 0 9 -16 44 -35 77 -18 33 -37 68 -40 78 -3 9 -10 17 -15 17 -5 0
-9 9 -9 20 0 11 -4 20 -10 20 -5 0 -10 7 -10 16 0 8 -7 22 -15 30 -8 8 -12 21
-9 29 4 8 1 15 -5 15 -6 0 -11 9 -11 20 0 11 -7 20 -16 20 -8 0 -14 -3 -12 -7z"/>
<path d="M5230 2370 c0 -24 15 -27 24 -4 9 22 8 24 -9 24 -8 0 -15 -9 -15 -20z"/>
<path d="M2030 1030 c0 -5 7 -10 15 -10 8 0 15 -4 15 -10 0 -5 7 -10 15 -10 8
0 15 -4 15 -10 0 -8 51 -40 65 -40 16 0 1 18 -30 34 -19 11 -35 23 -35 28 0 4
-7 8 -15 8 -8 0 -15 5 -15 10 0 6 -7 10 -15 10 -8 0 -15 -4 -15 -10z"/>
<path d="M2170 935 c0 -8 6 -15 14 -15 8 0 16 -6 19 -12 2 -7 8 -10 11 -6 4 3
-2 16 -13 27 -25 25 -31 26 -31 6z"/>
<path d="M2315 843 c38 -27 78 -52 168 -102 45 -25 65 -28 47 -6 -7 8 -18 15
-26 15 -7 0 -51 24 -96 54 -93 60 -161 88 -93 39z"/>
<path d="M2574 699 c14 -11 34 -19 44 -16 12 3 7 8 -20 20 -50 22 -56 21 -24
-4z"/>
<path d="M2758 617 c6 -7 32 -18 59 -26 26 -8 54 -18 61 -24 7 -5 15 -7 18 -4
6 5 -30 23 -109 56 -36 14 -42 14 -29 -2z"/>
<path d="M2920 552 c0 -9 111 -44 118 -37 7 6 -79 45 -100 45 -10 0 -18 -3
-18 -8z"/>
</g>
</svg>
