<svg xmlns="http://www.w3.org/2000/svg" viewBox="0 0 200 200" fill="currentColor">
  <!-- Aston Martin Wings - fitted to square -->
  <!-- Left Wing set (3 feather layers) -->
  <path d="M94,100 C78,100 62,93 48,82 C34,71 22,56 14,40 C10,34 12,33 15,38 C26,58 46,78 70,88 C84,94 94,95 94,95 Z" opacity="0.95"/>
  <path d="M94,100 C78,100 62,94 48,85 C34,76 22,62 14,50 C10,44 12,43 15,48 C26,64 46,82 70,90 C84,95 94,96 94,96 Z" opacity="0.65"/>
  <path d="M94,100 C78,100 62,107 48,118 C34,129 22,144 14,160 C10,166 12,167 15,162 C26,142 46,122 70,112 C84,106 94,105 94,105 Z" opacity="0.95"/>
  <path d="M94,100 C78,100 62,108 48,120 C34,131 22,146 14,162 C10,167 12,167 15,162 C26,146 46,126 70,115 C84,108 94,106 94,106 Z" opacity="0.65"/>
  <!-- Right Wing (mirror) -->
  <path d="M106,100 C122,100 138,93 152,82 C166,71 178,56 186,40 C190,34 188,33 185,38 C174,58 154,78 130,88 C116,94 106,95 106,95 Z" opacity="0.95"/>
  <path d="M106,100 C122,100 138,94 152,85 C166,76 178,62 186,50 C190,44 188,43 185,48 C174,64 154,82 130,90 C116,95 106,96 106,96 Z" opacity="0.65"/>
  <path d="M106,100 C122,100 138,107 152,118 C166,129 178,144 186,160 C190,166 188,167 185,162 C174,142 154,122 130,112 C116,106 106,105 106,105 Z" opacity="0.95"/>
  <path d="M106,100 C122,100 138,108 152,120 C166,131 178,146 186,162 C190,167 188,167 185,162 C174,146 154,126 130,115 C116,108 106,106 106,106 Z" opacity="0.65"/>
  <!-- Center oval with brand name -->
  <ellipse cx="100" cy="100" rx="18" ry="30" fill="none" stroke="currentColor" stroke-width="3" opacity="0.9"/>
  <ellipse cx="100" cy="100" rx="13" ry="24" fill="none" stroke="currentColor" stroke-width="1" opacity="0.5"/>
  <!-- AM text in center oval -->
  <text x="100" y="96" font-family="serif" font-size="8" font-weight="900" text-anchor="middle" letter-spacing="0.5" opacity="0.95">ASTON</text>
  <text x="100" y="108" font-family="serif" font-size="8" font-weight="900" text-anchor="middle" letter-spacing="0.5" opacity="0.95">MARTIN</text>
</svg>