<?xml version="1.0" encoding="UTF-8"?>
<svg version="1.1" xmlns="http://www.w3.org/2000/svg" width="800" height="800">
<path d="M0 0 C8.91478937 4.19207952 14.38963288 5.75227725 24.01171875 2.953125 C31.36182544 0.88993716 38.84562052 0.80236954 46.4375 0.8203125 C47.35073532 0.81935577 48.26397064 0.81839905 49.20487976 0.81741333 C51.1251126 0.81673707 53.04534781 0.81855245 54.96557617 0.82275391 C57.86838045 0.82809128 60.7710287 0.82279954 63.67382812 0.81640625 C65.55338575 0.81706749 67.43294328 0.8183496 69.3125 0.8203125 C70.16290359 0.81828827 71.01330719 0.81626404 71.88948059 0.81417847 C76.17623245 0.83044027 80.37661838 1.01222045 84.64123535 1.45213318 C93.63869952 2.21849744 102.64580088 2.10108136 111.66870117 2.09838867 C113.68227195 2.10138562 115.69584216 2.10478937 117.70941162 2.10856628 C123.1497547 2.11735618 128.59008202 2.11974228 134.03043151 2.12038207 C137.43777805 2.12109544 140.84512065 2.12323519 144.2524662 2.12587929 C156.16351193 2.13511627 168.07454651 2.13921626 179.9855957 2.13842773 C191.04975743 2.13782745 202.11387032 2.14837382 213.1780197 2.1641714 C222.70966099 2.17729089 232.2412864 2.18260978 241.77293664 2.18197232 C247.45132023 2.18171863 253.12966038 2.18449865 258.8080349 2.19515038 C264.15398697 2.20490584 269.49985471 2.20486003 274.84580994 2.19763374 C276.7947127 2.19659708 278.74362092 2.19889535 280.69251442 2.2049942 C291.21880109 2.23577088 301.4464697 1.84837226 311.88275623 0.41870594 C327.02934998 -1.49163863 327.02934998 -1.49163863 332.26171875 1.703125 C335.47923823 4.83368449 336.89889535 7.72024026 337.26171875 12.203125 C337.19886846 15.3823021 336.8075868 16.65934974 334.80859375 19.17578125 C324.06265333 28.953125 324.06265333 28.953125 318.57421875 28.953125 C318.75984375 30.6546875 318.75984375 30.6546875 318.94921875 32.390625 C318.90908249 38.05987179 316.38323914 41.89666824 312.57421875 45.953125 C309.3956533 48.29706713 306.09779062 50.17971011 302.57421875 51.953125 C301.87554688 52.33597656 301.176875 52.71882813 300.45703125 53.11328125 C298.57421875 53.953125 298.57421875 53.953125 295.57421875 53.953125 C295.53296875 54.79875 295.49171875 55.644375 295.44921875 56.515625 C293.41568401 64.50451149 286.95458791 68.32160539 280.2578125 72.47265625 C276.09610023 74.76856447 273.38245117 75.953125 268.57421875 75.953125 C268.48140625 77.2525 268.48140625 77.2525 268.38671875 78.578125 C267.14724037 83.72672748 264.75749147 86.58277298 260.37109375 89.3359375 C252.05012634 93.70575372 244.01487165 96.47760572 234.57421875 95.953125 C234.48140625 97.2525 234.48140625 97.2525 234.38671875 98.578125 C233.19593759 103.52444674 230.90319002 106.49573193 226.6640625 109.1484375 C217.58307506 113.59828615 207.54461074 114.35017601 197.57421875 113.953125 C197.49171875 114.675 197.40921875 115.396875 197.32421875 116.140625 C196.38237019 119.67255708 195.16047818 121.36686557 192.57421875 123.953125 C185.91025225 127.34568977 180.08541786 128.11954294 172.69921875 128.078125 C171.67634766 128.08392578 171.67634766 128.08392578 170.6328125 128.08984375 C166.18366627 128.08136919 161.9646382 127.67530888 157.57421875 126.953125 C157.36796875 127.860625 157.16171875 128.768125 156.94921875 129.703125 C155.22666431 133.77461731 153.41619737 134.87845654 149.57421875 136.953125 C141.72322953 139.47606445 132.83127805 138.07963771 124.94921875 136.390625 C122.32107661 135.83235005 122.32107661 135.83235005 118.57421875 135.953125 C117.19939168 137.58573214 115.86774208 139.25537562 114.57421875 140.953125 C109.07334537 144.34360041 102.87322386 143.36691584 96.82421875 141.953125 C96.08300781 141.77394531 95.34179688 141.59476563 94.578125 141.41015625 C92.12403873 140.85045236 90.07495877 140.59587643 87.57421875 140.953125 C86.95546875 141.4275 86.33671875 141.901875 85.69921875 142.390625 C82.79063366 144.52929051 80.11169324 144.61298322 76.57421875 144.953125 C76.48140625 145.78714844 76.38859375 146.62117187 76.29296875 147.48046875 C75.46083221 151.50095453 73.92847464 154.88917166 72.07421875 158.515625 C71.54018433 159.56508301 71.54018433 159.56508301 70.99536133 160.63574219 C56.91470071 187.64950031 31.90901151 210.07045234 3.66796875 221.5859375 C0.1968703 223.11988252 0.01081575 223.6694747 -1.42578125 226.953125 C-5.24298876 230.19196774 -8.55219245 230.25429064 -13.33984375 230.15625 C-15.42578125 229.953125 -15.42578125 229.953125 -18.42578125 228.953125 C-18.69390625 229.571875 -18.96203125 230.190625 -19.23828125 230.828125 C-20.42578125 232.953125 -20.42578125 232.953125 -23.42578125 234.953125 C-25.765625 235.21875 -25.765625 235.21875 -28.36328125 235.203125 C-29.21792969 235.20828125 -30.07257813 235.2134375 -30.953125 235.21875 C-33.54552692 234.94026133 -35.19092359 234.25981672 -37.42578125 232.953125 C-37.67328125 233.571875 -37.92078125 234.190625 -38.17578125 234.828125 C-39.71400621 237.44310744 -40.54928549 238.02020746 -43.42578125 238.953125 C-48.68765071 239.44033514 -51.87946924 238.61438081 -56.42578125 235.953125 C-56.97105469 236.44167969 -57.51632812 236.93023438 -58.078125 237.43359375 C-60.94173073 239.28707566 -62.60654642 239.325438 -65.98828125 239.265625 C-66.93832031 239.26175781 -67.88835937 239.25789062 -68.8671875 239.25390625 C-71.42578125 238.953125 -71.42578125 238.953125 -74.42578125 236.953125 C-74.42578125 236.293125 -74.42578125 235.633125 -74.42578125 234.953125 C-75.94171875 235.943125 -75.94171875 235.943125 -77.48828125 236.953125 C-81.29030532 239.09942891 -84.02256762 239.59359244 -88.42578125 238.953125 C-91.86328125 237.078125 -91.86328125 237.078125 -94.42578125 234.953125 C-94.42578125 234.293125 -94.42578125 233.633125 -94.42578125 232.953125 C-94.98394531 233.27539062 -95.54210937 233.59765625 -96.1171875 233.9296875 C-100.10086706 235.69571803 -104.15587189 235.53256343 -108.42578125 234.953125 C-111.55078125 233.078125 -111.55078125 233.078125 -113.42578125 230.953125 C-113.42578125 230.293125 -113.42578125 229.633125 -113.42578125 228.953125 C-114.41578125 229.283125 -115.40578125 229.613125 -116.42578125 229.953125 C-121.29680538 230.45673936 -125.17079178 230.67026184 -129.48828125 228.203125 C-131.42578125 225.953125 -131.42578125 225.953125 -131.79418945 223.90380859 C-132.10682739 222.93822021 -132.10682739 222.93822021 -132.42578125 221.953125 C-134.22893133 220.97619365 -134.22893133 220.97619365 -136.46875 220.4921875 C-141.35692044 219.05636594 -145.39484268 216.95858663 -149.73828125 214.328125 C-150.47248291 213.88863525 -151.20668457 213.44914551 -151.96313477 212.99633789 C-178.62333293 196.78598266 -195.80444859 175.98035292 -208.42578125 147.953125 C-210.02036043 144.58125444 -210.96694194 142.63820056 -214.42578125 140.953125 C-218.34123962 140.96045732 -222.11601868 141.65842842 -225.92578125 142.515625 C-231.42702505 143.47834266 -235.83874751 143.78992461 -240.86328125 141.140625 C-243.42578125 138.953125 -243.42578125 138.953125 -245.42578125 135.953125 C-251.35871539 136.55039072 -251.35871539 136.55039072 -257.23828125 137.515625 C-265.3658157 138.63116894 -273.07833779 138.88925542 -280.42578125 134.953125 C-284.42578125 130.053125 -284.42578125 130.053125 -284.42578125 126.953125 C-285.91658203 127.19289063 -285.91658203 127.19289063 -287.4375 127.4375 C-298.50639376 129.00645101 -311.530336 129.60853894 -320.92578125 122.640625 C-323.5816648 119.78555019 -324.54987433 117.71952478 -325.42578125 113.953125 C-326.66328125 113.994375 -327.90078125 114.035625 -329.17578125 114.078125 C-340.04560058 114.02693276 -350.86122063 112.24624364 -358.98828125 104.515625 C-360.60939162 101.62581955 -361.12031375 99.23690064 -361.42578125 95.953125 C-362.43640625 96.05625 -363.44703125 96.159375 -364.48828125 96.265625 C-373.58312374 96.24941316 -384.07938527 92.27398246 -390.97265625 86.4296875 C-394.41081688 82.93607267 -395.42578125 80.86923646 -395.42578125 75.953125 C-396.87984375 75.8603125 -396.87984375 75.8603125 -398.36328125 75.765625 C-407.02455231 74.47601925 -414.71477697 68.30676883 -420.42578125 61.953125 C-420.85890625 60.756875 -421.29203125 59.560625 -421.73828125 58.328125 C-424.15125535 53.50217679 -427.6941424 52.53407027 -432.4765625 50.34765625 C-437.98881217 47.74120177 -441.85940383 44.28271321 -444.74609375 38.8671875 C-445.93774004 35.51140198 -445.6732193 32.47911721 -445.42578125 28.953125 C-446.15667969 28.68242187 -446.88757813 28.41171875 -447.640625 28.1328125 C-451.96178996 26.30252945 -455.62076503 23.67200786 -459.42578125 20.953125 C-460.27140625 20.355 -461.11703125 19.756875 -461.98828125 19.140625 C-464.32662452 15.58227655 -464.13912382 12.06911161 -463.42578125 7.953125 C-461.35166286 3.87896388 -459.67843805 1.59568556 -455.42578125 -0.046875 C-448.50533944 -0.74404543 -441.61831933 0.0058653 -434.75836182 0.9535675 C-424.76634113 2.21372349 -414.84917917 2.22770414 -404.79199219 2.19604492 C-402.78104592 2.19712072 -400.77009997 2.19906379 -398.75915527 2.20179749 C-393.35033938 2.20660026 -387.94160738 2.19904848 -382.53280163 2.18884444 C-376.84545695 2.17999012 -371.15811433 2.18182279 -365.47076416 2.1822052 C-355.92873754 2.18127199 -346.38674295 2.17263327 -336.84472656 2.15893555 C-325.84003704 2.14319571 -314.83538248 2.13793829 -303.83068252 2.1386711 C-292.06821896 2.13934836 -280.30576873 2.13239966 -268.54330921 2.1232245 C-265.1725465 2.12110155 -261.80178596 2.12038448 -258.43102264 2.11998558 C-253.12196593 2.11897537 -247.81293813 2.1128238 -242.50389099 2.10281944 C-240.5645948 2.09991841 -238.62529528 2.09866417 -236.68599701 2.09924698 C-227.44227268 2.10097265 -218.28057283 2.03842058 -209.06712437 1.18095398 C-204.81762022 0.81441311 -200.57538217 0.79091835 -196.3125 0.78515625 C-194.96536674 0.78016365 -194.96536674 0.78016365 -193.59101868 0.77507019 C-191.71148176 0.77006201 -189.83193616 0.76765994 -187.95239258 0.76782227 C-185.1289152 0.7656371 -182.30583052 0.74741854 -179.48242188 0.72851562 C-167.54433452 0.69178707 -155.9598651 1.23746664 -144.22094727 3.59741211 C-140.15721184 4.11456317 -137.15605796 2.49181128 -133.55078125 0.828125 C-132.02547074 0.16845574 -130.49807303 -0.48640592 -128.96875 -1.13671875 C-128.20353027 -1.46269043 -127.43831055 -1.78866211 -126.64990234 -2.12451172 C-88.87680604 -17.7893589 -37.11057327 -17.5895076 0 0 Z M-135.42578125 4.953125 C-135.75578125 5.613125 -136.08578125 6.273125 -136.42578125 6.953125 C-134.29868175 8.25450543 -134.29868175 8.25450543 -131.42578125 8.953125 C-128.92395109 8.22843622 -126.78648801 7.43520654 -124.42578125 6.390625 C-88.18974706 -8.32787659 -45.09853964 -7.90913759 -8.60546875 5.71484375 C-7.82921143 6.00383545 -7.0529541 6.29282715 -6.25317383 6.59057617 C-4.7788121 7.15206372 -3.31179456 7.73336277 -1.85424805 8.3371582 C0.33817635 9.23868548 0.33817635 9.23868548 3.57421875 9.953125 C6.05883463 8.77488119 6.05883463 8.77488119 7.57421875 6.953125 C-4.85839167 1.34243967 -17.06899068 -3.2065272 -30.42578125 -6.046875 C-31.17811035 -6.21058594 -31.93043945 -6.37429688 -32.70556641 -6.54296875 C-65.83560562 -13.43823384 -104.80465625 -10.09270155 -135.42578125 4.953125 Z M-127.42578125 10.953125 C-127.13703125 11.66597656 -126.84828125 12.37882812 -126.55078125 13.11328125 C-122.55722755 23.41609514 -122.55722755 23.41609514 -123.42578125 28.953125 C-126.02784352 34.65288045 -130.77620383 37.81657875 -135.6015625 41.65625 C-141.7302805 46.64060157 -147.14443017 51.67708564 -150.42578125 58.953125 C-150.09578125 59.943125 -149.76578125 60.933125 -149.42578125 61.953125 C-148.99910156 61.540625 -148.57242187 61.128125 -148.1328125 60.703125 C-134.46236308 48.07557584 -117.21833784 40.67316055 -99.42578125 35.953125 C-98.22566406 35.63085938 -97.02554688 35.30859375 -95.7890625 34.9765625 C-76.12337098 30.65132305 -51.87448445 30.75001994 -32.42578125 35.953125 C-31.78012207 36.11941406 -31.13446289 36.28570312 -30.46923828 36.45703125 C-8.88621389 42.12434619 9.3394456 52.61924998 24.57421875 68.953125 C26.10091866 64.37302526 24.16162718 61.44501784 22.27734375 57.1484375 C17.72203738 48.60201408 10.41278892 42.92267831 2.97265625 36.97265625 C-1.34214427 33.33950989 -3.20947799 30.86895385 -3.86328125 25.078125 C-3.64953592 20.64932175 -2.16123381 17.00251431 -0.42578125 12.953125 C-6.12334675 9.93139209 -11.68069422 7.70435388 -17.86328125 5.890625 C-18.73001465 5.63385986 -19.59674805 5.37709473 -20.48974609 5.11254883 C-55.05081773 -4.82289161 -94.38289193 -3.96947018 -127.42578125 10.953125 Z M-305.42578125 6.953125 C-305.42578125 7.283125 -305.42578125 7.613125 -305.42578125 7.953125 C-304.45044434 8.16928467 -303.47510742 8.38544434 -302.47021484 8.6081543 C-298.74496441 9.4339179 -295.01991718 10.26059565 -291.29489136 11.08737183 C-288.80489309 11.6397129 -286.31468357 12.19109431 -283.82446289 12.74243164 C-276.71665572 14.31806294 -269.61072357 15.89642273 -262.5234375 17.5625 C-261.54648926 17.79106689 -260.56954102 18.01963379 -259.56298828 18.25512695 C-257.83719625 18.6613701 -256.11275063 19.07340477 -254.39013672 19.49291992 C-244.39445469 21.83927037 -234.3311138 22.09453341 -224.1015625 22.1640625 C-221.74934205 22.19213544 -219.3971286 22.22079993 -217.04492188 22.25 C-213.39656815 22.29109443 -209.74834452 22.32805207 -206.09985352 22.35449219 C-167.39329399 22.65817571 -167.39329399 22.65817571 -155.92578125 33.265625 C-153.92865029 36.84381797 -153.90857155 39.97884667 -154.42578125 43.953125 C-155.39403461 46.80557478 -156.73234685 49.37700644 -158.17578125 52.015625 C-158.52382813 52.68400391 -158.871875 53.35238281 -159.23046875 54.04101562 C-160.95609501 57.32929234 -162.77272163 60.54840875 -164.66015625 63.74609375 C-166.5816474 67.23623586 -167.13690953 69.04191945 -166.42578125 72.953125 C-164.65800005 74.90470986 -164.65800005 74.90470986 -162.42578125 75.953125 C-161.76578125 75.953125 -161.10578125 75.953125 -160.42578125 75.953125 C-160.20664062 74.91414063 -159.9875 73.87515625 -159.76171875 72.8046875 C-157.8349844 64.16445576 -155.44429123 57.35184258 -150.42578125 49.953125 C-149.96558594 48.89351563 -149.96558594 48.89351563 -149.49609375 47.8125 C-148.11719377 45.41703872 -146.9302167 45.09813231 -144.42578125 43.953125 C-142.21680225 42.42747915 -140.06703009 40.88005865 -137.92578125 39.265625 C-137.07306641 38.65170898 -137.07306641 38.65170898 -136.203125 38.02539062 C-131.6209258 34.56482023 -127.98825917 30.6060715 -127.078125 24.6953125 C-127.84854151 19.65066744 -129.19765028 17.12422322 -133.42578125 13.953125 C-146.19100729 6.85308649 -160.52351206 6.79996542 -174.75805664 6.83959961 C-176.1879374 6.83988216 -177.6178183 6.83972243 -179.04769897 6.8391571 C-182.90449394 6.83887176 -186.76125741 6.84472583 -190.61804509 6.85173106 C-194.65791362 6.85800853 -198.69778298 6.85857186 -202.73765564 6.85975647 C-210.37658698 6.86285688 -218.01550389 6.87105279 -225.6544289 6.88110596 C-234.35580017 6.89230727 -243.05717216 6.89778765 -251.75854886 6.90280139 C-269.64763447 6.91323655 -287.5367067 6.93081088 -305.42578125 6.953125 Z M3.57421875 15.953125 C1.46313326 18.33660862 0.62005483 19.90462473 0.48046875 23.09765625 C0.82912791 28.35369313 1.92603701 31.00814204 5.57421875 34.953125 C7.46939209 36.46605605 9.41050242 37.92270286 11.38671875 39.328125 C21.62437052 46.88804547 28.28010868 54.32570306 31.57421875 66.953125 C31.75535218 68.38887383 31.92140055 69.82658691 32.07421875 71.265625 C32.32171875 73.0909375 32.32171875 73.0909375 32.57421875 74.953125 C34.53336122 76.21052743 34.53336122 76.21052743 36.63671875 75.390625 C38.85022223 74.05434206 38.85022223 74.05434206 39.35546875 71.18359375 C39.61163203 67.40061109 38.96364319 66.02751994 37.01171875 62.828125 C36.46128906 61.879375 35.91085937 60.930625 35.34375 59.953125 C34.75980469 58.963125 34.17585938 57.973125 33.57421875 56.953125 C26.04363532 43.68576004 26.04363532 43.68576004 27.57421875 35.953125 C29.15058599 31.32911443 32.39223516 29.25072979 36.63085938 27.15893555 C50.97895655 21.28092858 67.45720194 22.46971173 82.63671875 22.390625 C106.9508831 22.22799394 128.32616891 19.3077475 152.01171875 13.828125 C154.49660249 13.25849349 156.98162753 12.68947798 159.46679688 12.12109375 C165.50425186 10.73886997 171.5399171 9.34904717 177.57421875 7.953125 C177.57421875 7.623125 177.57421875 7.293125 177.57421875 6.953125 C159.04075198 6.9062702 140.50729734 6.87107039 121.97378349 6.84950066 C113.36710497 6.83921639 104.76046339 6.82521095 96.15380859 6.80224609 C88.64660653 6.78222453 81.13943124 6.76938789 73.63220322 6.76494801 C69.66231921 6.76235538 65.69251175 6.75632196 61.72265244 6.74166489 C57.97491825 6.72794195 54.22729108 6.72393158 50.47953415 6.72690964 C48.47118503 6.72610962 46.46284718 6.71542587 44.45452881 6.70428467 C31.11355768 6.73408336 14.36520575 7.00450163 3.57421875 15.953125 Z M-451.42578125 9.953125 C-451.21649832 13.61557632 -450.49660919 14.87875567 -447.92578125 17.578125 C-441.72059691 22.30395809 -433.65136098 23.47712746 -426.11328125 24.578125 C-425.34822266 24.69929688 -424.58316406 24.82046875 -423.79492188 24.9453125 C-412.74932087 26.62914894 -401.64362503 27.1464031 -390.48828125 27.515625 C-389.33521484 27.55880859 -388.18214844 27.60199219 -386.99414062 27.64648438 C-365.16171996 28.39360143 -343.29501236 27.86516973 -321.45727539 27.58081055 C-317.19144416 27.525482 -312.92556766 27.47537902 -308.65965939 27.42640781 C-305.32648379 27.38720836 -301.99336488 27.34419814 -298.66024971 27.30018425 C-297.08763922 27.28005365 -295.5150104 27.26129891 -293.94236565 27.24405098 C-285.06654209 27.14525674 -276.26429319 26.8557965 -267.42578125 25.953125 C-267.42578125 24.633125 -267.42578125 23.313125 -267.42578125 21.953125 C-272.59485874 19.50260252 -277.24068369 18.2591506 -282.890625 17.48828125 C-283.70349472 17.37006012 -284.51636444 17.25183899 -285.35386658 17.1300354 C-288.02213745 16.74659264 -290.69228879 16.37959802 -293.36328125 16.015625 C-294.29037903 15.88717194 -295.21747681 15.75871887 -296.17266846 15.62637329 C-329.94652287 10.96083251 -363.29728997 8.2136017 -397.40008545 7.97528076 C-400.59897246 7.9518568 -403.79775707 7.92182004 -406.99658203 7.89111328 C-412.57825655 7.83988492 -418.15984159 7.80373476 -423.74169922 7.77990723 C-425.89552019 7.77043223 -428.04933183 7.75849385 -430.203125 7.74401855 C-433.19539907 7.72639085 -436.18736824 7.72238411 -439.1796875 7.72265625 C-440.07438248 7.71553116 -440.96907745 7.70840607 -441.8908844 7.70106506 C-442.71136765 7.70408127 -443.53185089 7.70709747 -444.37719727 7.71020508 C-445.44720726 7.70806755 -445.44720726 7.70806755 -446.53883362 7.70588684 C-448.75770455 7.85525478 -448.75770455 7.85525478 -451.42578125 9.953125 Z M267.64013672 7.99560547 C233.56797822 8.26042399 200.24470188 11.34178677 166.51171875 16.015625 C165.15007599 16.20117447 165.15007599 16.20117447 163.76092529 16.39047241 C161.18520721 16.74507981 158.61199898 17.11408173 156.0390625 17.48828125 C155.28359634 17.5913559 154.52813019 17.69443054 153.74977112 17.80062866 C148.93248237 18.52453715 144.97973783 19.8645853 140.57421875 21.953125 C140.57421875 23.273125 140.57421875 24.593125 140.57421875 25.953125 C150.1876968 26.93494329 159.76188822 27.16367135 169.4140625 27.26953125 C171.0281262 27.29019248 172.64218562 27.31119062 174.25624084 27.33250427 C177.62726284 27.37617007 180.99830215 27.41711164 184.36938477 27.45581055 C188.62532548 27.50469458 192.88118769 27.5583533 197.13704777 27.6137743 C263.64047412 33.76328513 263.64047412 33.76328513 322.57421875 15.953125 C323.92194778 12.83178756 323.92194778 12.83178756 324.57421875 9.953125 C321.52339046 7.91923947 320.94848925 7.70336734 317.52563477 7.71020508 C316.70515152 7.70718887 315.88466827 7.70417267 315.0393219 7.70106506 C314.14462692 7.70819016 313.24993195 7.71531525 312.328125 7.72265625 C311.38690292 7.72257065 310.44568085 7.72248505 309.47593689 7.72239685 C306.36272343 7.72571129 303.24986069 7.74470208 300.13671875 7.765625 C297.95833396 7.77520806 295.77994852 7.78464634 293.6015625 7.79394531 C288.00319406 7.82277348 282.40512582 7.86941765 276.8069458 7.92315674 C273.75135801 7.95148287 270.69577997 7.97425168 267.64013672 7.99560547 Z M-258.42578125 25.953125 C-258.08133244 28.42579265 -258.08133244 28.42579265 -257.42578125 30.953125 C-251.91028923 33.71087101 -244.38857807 32.16191662 -238.73828125 30.453125 C-237.29553531 29.96847007 -235.85576022 29.47424532 -234.42578125 28.953125 C-234.42578125 27.963125 -234.42578125 26.973125 -234.42578125 25.953125 C-239.12134594 24.11857879 -243.08399697 23.68310795 -248.11328125 23.703125 C-249.41652344 23.69796875 -250.71976563 23.6928125 -252.0625 23.6875 C-255.55698552 23.68853382 -255.55698552 23.68853382 -258.42578125 25.953125 Z M107.57421875 25.953125 C107.57421875 26.943125 107.57421875 27.933125 107.57421875 28.953125 C114.52925625 31.48771567 121.14754742 32.90462865 128.57421875 31.953125 C129.56421875 31.293125 130.55421875 30.633125 131.57421875 29.953125 C131.22976994 27.48045735 131.22976994 27.48045735 130.57421875 24.953125 C127.5409509 23.43649107 124.69537275 23.78215026 121.32421875 23.765625 C120.0196875 23.75144531 118.71515625 23.73726563 117.37109375 23.72265625 C113.72620467 23.94389952 110.95527982 24.62485101 107.57421875 25.953125 Z M-223.42578125 25.953125 C-223.15543491 28.39029758 -223.15543491 28.39029758 -222.42578125 30.953125 C-220.94078125 31.943125 -220.94078125 31.943125 -219.42578125 32.953125 C-220.08578125 34.273125 -220.74578125 35.593125 -221.42578125 36.953125 C-219.58694244 39.24041234 -219.58694244 39.24041234 -216.80078125 39.078125 C-216.01703125 39.036875 -215.23328125 38.995625 -214.42578125 38.953125 C-214.63203125 39.736875 -214.83828125 40.520625 -215.05078125 41.328125 C-215.17453125 42.194375 -215.29828125 43.060625 -215.42578125 43.953125 C-212.86032185 46.5185844 -210.94891457 46.49358587 -207.42578125 46.953125 C-207.75578125 48.933125 -208.08578125 50.913125 -208.42578125 52.953125 C-205.78578125 52.953125 -203.14578125 52.953125 -200.42578125 52.953125 C-200.73515625 54.37625 -200.73515625 54.37625 -201.05078125 55.828125 C-201.17453125 56.859375 -201.29828125 57.890625 -201.42578125 58.953125 C-200.76578125 59.613125 -200.10578125 60.273125 -199.42578125 60.953125 C-196.80997646 60.6261494 -194.78499988 60.13273432 -192.42578125 58.953125 C-192.15765625 59.9225 -191.88953125 60.891875 -191.61328125 61.890625 C-191.22140625 62.90125 -190.82953125 63.911875 -190.42578125 64.953125 C-187.13601317 66.04971436 -185.71274358 65.75265638 -182.42578125 64.953125 C-182.42578125 66.603125 -182.42578125 68.253125 -182.42578125 69.953125 C-176.80335914 69.953125 -175.01207021 67.39389009 -171.03515625 63.6640625 C-164.75898418 57.14360828 -158.32188143 49.87541492 -158.48828125 40.390625 C-159.81632484 35.52113185 -162.02367097 33.34229721 -166.37109375 30.828125 C-178.45797258 24.9363131 -191.52059734 25.70240487 -204.61328125 25.828125 C-206.44205239 25.83817587 -208.27082887 25.84729799 -210.09960938 25.85546875 C-214.54180081 25.87731311 -218.98373078 25.91172658 -223.42578125 25.953125 Z M32.69921875 35.765625 C30.97131423 39.12543935 31.08886344 41.19162136 31.57421875 44.953125 C35.27298779 55.58485244 43.64791049 64.34765689 52.57421875 70.953125 C54.05921875 70.458125 54.05921875 70.458125 55.57421875 69.953125 C55.57421875 68.303125 55.57421875 66.653125 55.57421875 64.953125 C56.50234375 65.159375 57.43046875 65.365625 58.38671875 65.578125 C61.72595277 66.32005466 61.72595277 66.32005466 64.57421875 63.953125 C65.30387241 61.39029758 65.30387241 61.39029758 65.57421875 58.953125 C66.44046875 59.4790625 66.44046875 59.4790625 67.32421875 60.015625 C69.93223651 61.10229907 70.96839504 60.88377633 73.57421875 59.953125 C74.2612943 57.46247612 74.57421875 55.57426208 74.57421875 52.953125 C76.55421875 52.953125 78.53421875 52.953125 80.57421875 52.953125 C81.58532968 49.90399272 81.58532968 49.90399272 80.57421875 46.953125 C81.70859375 46.685 82.84296875 46.416875 84.01171875 46.140625 C85.77515625 45.5528125 85.77515625 45.5528125 87.57421875 44.953125 C88.06921875 43.468125 88.06921875 43.468125 88.57421875 41.953125 C88.07921875 40.963125 88.07921875 40.963125 87.57421875 39.953125 C88.54359375 39.664375 89.51296875 39.375625 90.51171875 39.078125 C93.68086078 38.31097818 93.68086078 38.31097818 94.57421875 35.953125 C93.91421875 34.963125 93.25421875 33.973125 92.57421875 32.953125 C93.89421875 31.963125 95.21421875 30.973125 96.57421875 29.953125 C96.07921875 27.973125 96.07921875 27.973125 95.57421875 25.953125 C90.31304213 25.85272087 85.05244758 25.78094877 79.79052734 25.73339844 C78.00820172 25.7135343 76.225939 25.6864334 74.44384766 25.65136719 C60.064861 25.37593871 43.75591978 25.07748067 32.69921875 35.765625 Z M-304.04125977 33.02026367 C-332.86997474 34.90689881 -361.60571201 35.21573791 -390.48828125 35.140625 C-391.48115269 35.13805695 -392.47402412 35.13548889 -393.49698257 35.13284302 C-405.80674432 35.09861576 -418.11626989 35.03824714 -430.42578125 34.953125 C-430.75578125 35.613125 -431.08578125 36.273125 -431.42578125 36.953125 C-427.32315071 43.48003723 -420.73484235 45.97529406 -413.60546875 48.08203125 C-406.5771694 49.53673758 -399.38098827 49.25352717 -392.23828125 49.203125 C-391.45501465 49.20002319 -390.67174805 49.19692139 -389.86474609 49.19372559 C-363.61625824 49.07359823 -337.49956783 47.35082201 -311.36328125 45.015625 C-310.01532471 44.89664856 -310.01532471 44.89664856 -308.64013672 44.77526855 C-298.73192483 43.89037907 -288.85237434 42.83200688 -278.9921875 41.51171875 C-278.12166245 41.40183121 -277.25113739 41.29194366 -276.35423279 41.1787262 C-271.55154389 40.50439089 -267.58088244 39.63387528 -263.42578125 36.953125 C-263.09578125 35.963125 -262.76578125 34.973125 -262.42578125 33.953125 C-266.35674679 31.28716885 -270.6001683 31.673374 -275.15625 31.734375 C-276.03862839 31.7406189 -276.92100677 31.74686279 -277.8301239 31.7532959 C-286.58707331 31.86530167 -295.30512244 32.44513041 -304.04125977 33.02026367 Z M135.57421875 33.953125 C136.57985545 36.69577053 137.14256069 37.74725731 139.82763672 39.02783203 C144.6653119 40.65759105 149.65276466 41.1573808 154.69921875 41.828125 C156.60574219 42.08203003 156.60574219 42.08203003 158.55078125 42.34106445 C171.85090872 44.04153602 185.20941292 45.09612301 198.57421875 46.140625 C199.64738342 46.22511902 200.7205481 46.30961304 201.82623291 46.39666748 C221.80579075 47.95450172 241.8004005 49.14049692 261.84570312 49.24829102 C263.34579793 49.25995915 264.84584673 49.28063625 266.34570312 49.30981445 C279.18926851 49.55648808 291.75562462 48.82862604 302.21875 40.41796875 C303.82698893 38.88184246 303.82698893 38.88184246 304.57421875 35.953125 C303.45138482 34.60247195 303.45138482 34.60247195 300.53466797 34.85305786 C299.1493817 34.85937524 297.76411499 34.8712479 296.37890625 34.88720703 C295.24153157 34.89411434 295.24153157 34.89411434 294.08117962 34.90116119 C292.41810075 34.91160473 290.75503448 34.92421683 289.0919857 34.93867874 C284.54096632 34.97700979 279.98984195 34.99533936 275.4387207 35.01757812 C273.9966209 35.02532477 273.9966209 35.02532477 272.52538776 35.03322792 C239.6003161 35.20952509 206.87040613 34.97309949 174.00656128 32.81057739 C165.43652894 32.24874077 156.89491791 31.79516129 148.3046875 31.734375 C147.47729568 31.72329712 146.64990387 31.71221924 145.79743958 31.70080566 C141.92724069 31.70795657 138.84580467 31.73435597 135.57421875 33.953125 Z M-254.42578125 35.953125 C-254.75578125 36.943125 -255.08578125 37.933125 -255.42578125 38.953125 C-253.52069068 41.69169269 -252.16363092 42.0175128 -248.86328125 42.828125 C-243.22286666 43.32764511 -237.25242573 42.08417464 -232.6796875 38.63671875 C-231.15304193 37.16750572 -231.15304193 37.16750572 -229.42578125 34.953125 C-231.64336508 32.73554117 -236.69861765 33.76781731 -239.67578125 33.765625 C-240.53558594 33.75337891 -241.39539063 33.74113281 -242.28125 33.72851562 C-248.61087659 33.66871145 -248.61087659 33.66871145 -254.42578125 35.953125 Z M103.57421875 33.953125 C103.2754906 36.88017071 103.2754906 36.88017071 104.75 38.53125 C109.37360963 42.13509134 116.31645325 43.36224054 122.07421875 42.828125 C125.33092111 42.01394941 126.68902624 41.66308923 128.57421875 38.953125 C127.85858609 36.9369017 127.85858609 36.9369017 126.57421875 34.953125 C123.70534649 33.95714063 121.04564867 33.8350748 118.02734375 33.85546875 C117.18300781 33.85869141 116.33867188 33.86191406 115.46875 33.86523438 C114.59605469 33.87361328 113.72335937 33.88199219 112.82421875 33.890625 C111.93605469 33.89513672 111.04789063 33.89964844 110.1328125 33.90429688 C107.94654546 33.916051 105.76041696 33.93248251 103.57421875 33.953125 Z M97.57421875 42.953125 C96.91421875 44.273125 96.25421875 45.593125 95.57421875 46.953125 C97.17615946 47.93592915 98.78085617 48.91424217 100.38671875 49.890625 C101.28003906 50.43589844 102.17335938 50.98117187 103.09375 51.54296875 C106.51914586 53.49031978 109.19193104 54.1082726 113.07421875 54.140625 C114.234375 54.16189453 114.234375 54.16189453 115.41796875 54.18359375 C117.87101931 54.08974028 117.87101931 54.08974028 120.57421875 51.953125 C120.00076938 49.08587814 119.71276725 48.0916735 117.57421875 45.953125 C114.9402396 45.3221278 112.36248742 44.79007249 109.69921875 44.328125 C108.61833984 44.12703125 108.61833984 44.12703125 107.515625 43.921875 C104.1272434 43.31034388 101.02888489 42.953125 97.57421875 42.953125 Z M-236.55078125 44.203125 C-237.26621094 44.32558594 -237.98164063 44.44804687 -238.71875 44.57421875 C-241.6585082 45.12920114 -243.99845825 45.63825542 -246.4296875 47.4296875 C-247.64701555 48.94851371 -247.64701555 48.94851371 -247.23828125 51.078125 C-246.58222465 53.14276632 -246.58222465 53.14276632 -244.42578125 53.953125 C-236.04316565 54.89954934 -230.63890312 52.05398617 -223.42578125 47.953125 C-223.42578125 46.633125 -223.42578125 45.313125 -223.42578125 43.953125 C-227.99553742 42.62699968 -231.9795876 43.31220019 -236.55078125 44.203125 Z M-287.078125 47.7578125 C-303.61509538 49.95873489 -320.18073424 51.49223801 -336.80187988 52.89257812 C-339.71885007 53.14012403 -342.63518269 53.39476675 -345.55153847 53.64943314 C-349.17726235 53.96542525 -352.80337634 54.27676312 -356.4296875 54.5859375 C-357.13427723 54.64601234 -357.83886696 54.70608719 -358.56480789 54.76798248 C-366.50841103 55.43991778 -374.45135071 56.03791726 -382.40966797 56.50683594 C-383.13391307 56.55013723 -383.85815817 56.59343853 -384.60435009 56.63805199 C-388.06237846 56.84331937 -391.52043738 57.03743359 -394.9801178 57.212677 C-396.19444992 57.28155121 -397.40878204 57.35042542 -398.65991211 57.42138672 C-400.26351845 57.5039119 -400.26351845 57.5039119 -401.89952087 57.58810425 C-404.59152619 57.71972398 -404.59152619 57.71972398 -406.42578125 59.953125 C-401.14895312 65.88955665 -394.59358519 69.69683867 -386.55078125 70.19140625 C-349.04895674 71.03291429 -310.72006055 63.02188621 -273.98828125 56.203125 C-272.95952881 56.01693604 -271.93077637 55.83074707 -270.87084961 55.63891602 C-266.16702415 54.72832718 -262.36254544 53.86181701 -258.42578125 50.953125 C-258.75578125 49.303125 -259.08578125 47.653125 -259.42578125 45.953125 C-268.81767197 45.69723261 -277.78349426 46.46478025 -287.078125 47.7578125 Z M132.57421875 45.953125 C132.24421875 47.603125 131.91421875 49.253125 131.57421875 50.953125 C135.10928623 53.28330254 138.07895526 54.50351025 142.2265625 55.3125 C143.37213623 55.53768311 144.51770996 55.76286621 145.69799805 55.99487305 C147.58578979 56.34545776 147.58578979 56.34545776 149.51171875 56.703125 C150.16838531 56.82740875 150.82505188 56.9516925 151.50161743 57.07974243 C184.98655893 63.40261619 219.62899351 69.84000418 253.76171875 70.390625 C254.62925781 70.41310303 255.49679687 70.43558105 256.390625 70.45874023 C264.10095119 70.42909683 270.9363646 68.03962675 276.63671875 62.703125 C277.48943359 61.92195313 277.48943359 61.92195313 278.359375 61.125 C278.76027344 60.73828125 279.16117188 60.3515625 279.57421875 59.953125 C277.15149626 57.53040251 276.38201851 57.64514345 273.04760742 57.43823242 C271.61973907 57.34224762 271.61973907 57.34224762 270.1630249 57.24432373 C268.59346039 57.15238739 268.59346039 57.15238739 266.9921875 57.05859375 C265.89545715 56.98626526 264.79872681 56.91393677 263.66876221 56.8394165 C261.28484918 56.6822606 258.90068863 56.5288262 256.5163269 56.37863159 C250.14333105 55.97464402 243.77278908 55.53593055 237.40234375 55.09375 C236.09168442 55.00286606 234.78102509 54.91198212 233.4306488 54.81834412 C219.93957318 53.86584746 206.47544578 52.66802984 193.01171875 51.390625 C191.94134369 51.29075287 190.87096863 51.19088074 189.76815796 51.08798218 C177.54349086 49.94339724 165.36457833 48.62701592 153.20530701 46.91233826 C146.27845787 45.95648845 139.57199254 45.59047645 132.57421875 45.953125 Z M-232.67578125 54.203125 C-233.31257812 54.50347656 -233.949375 54.80382812 -234.60546875 55.11328125 C-238.19644402 56.89101342 -238.19644402 56.89101342 -240.47265625 60.0625 C-240.63697789 62.20150393 -240.63697789 62.20150393 -238.42578125 63.953125 C-231.82930725 64.50757001 -224.58074943 62.00345714 -219.42578125 57.953125 C-218.39957381 55.47099586 -218.39957381 55.47099586 -218.42578125 52.953125 C-220.21852878 50.7646827 -220.21852878 50.7646827 -222.59765625 50.625 C-226.34315986 51.05956119 -229.3588137 52.51711452 -232.67578125 54.203125 Z M91.57421875 52.953125 C91.54801131 55.47099586 91.54801131 55.47099586 92.57421875 57.953125 C98.17574485 62.35432408 104.62971165 63.61710046 111.57421875 63.953125 C112.23421875 62.633125 112.89421875 61.313125 113.57421875 59.953125 C110.69330088 56.78072603 108.0389155 54.95667805 104.13671875 53.203125 C102.74646484 52.56117188 102.74646484 52.56117188 101.328125 51.90625 C97.31326235 50.51670889 94.70054406 49.82679969 91.57421875 52.953125 Z M-114.42578125 66.953125 C-114.11640625 67.571875 -113.80703125 68.190625 -113.48828125 68.828125 C-111.51437124 72.77594501 -111.28915591 75.17926633 -111.26464844 79.6784668 C-111.25968353 80.36977188 -111.25471863 81.06107697 -111.24960327 81.77333069 C-111.23496897 84.06634511 -111.22817594 86.35929025 -111.22265625 88.65234375 C-111.2169038 90.24697369 -111.21114607 91.84160362 -111.2053833 93.43623352 C-111.19486831 96.78455935 -111.18902958 100.13286115 -111.18554688 103.48120117 C-111.18007517 107.7605832 -111.15607787 112.03964494 -111.12757492 116.31892681 C-111.10889558 119.61587939 -111.10374003 122.91275584 -111.102211 126.20975685 C-111.09919353 127.78653518 -111.09119571 129.36331246 -111.07802582 130.94003868 C-111.06086148 133.15387199 -111.06287086 135.36693666 -111.06933594 137.58081055 C-111.06569031 138.83830612 -111.06204468 140.0958017 -111.05828857 141.3914032 C-111.48501006 145.52716785 -112.61856258 148.23621939 -114.42578125 151.953125 C-96.15330757 165.69289203 -72.95535589 167.63182043 -50.86328125 165.265625 C-38.70208696 163.43189518 -26.85090723 159.83419086 -18.83984375 150.0078125 C-14.50441778 143.61744473 -12.62897828 136.94325934 -13.7578125 129.25390625 C-15.7643565 122.34247691 -20.6492249 116.99671445 -26.42578125 112.953125 C-28.52603883 111.91653378 -30.62443953 110.93767958 -32.7890625 110.04296875 C-34.42578125 108.953125 -34.42578125 108.953125 -35.15625 106.83203125 C-35.24519531 106.21199219 -35.33414063 105.59195313 -35.42578125 104.953125 C-34.86890625 104.72625 -34.31203125 104.499375 -33.73828125 104.265625 C-26.81495129 100.33616746 -21.97320571 93.34065593 -19.42578125 85.953125 C-18.63025636 79.81621873 -20.26606343 75.13898955 -23.42578125 69.953125 C-31.79566346 59.21113331 -43.54237781 55.42589817 -56.59765625 53.48046875 C-76.82283198 51.41522193 -97.84524876 54.76362336 -114.42578125 66.953125 Z M-271.26269531 61.37338257 C-288.54155693 65.228682 -305.97190425 68.20258271 -323.42578125 71.140625 C-324.66648376 71.35031921 -325.90718628 71.56001343 -327.18548584 71.77606201 C-344.24273718 74.65446789 -361.32120481 77.37110021 -378.42578125 79.953125 C-378.42578125 80.943125 -378.42578125 81.933125 -378.42578125 82.953125 C-361.00039071 92.01784836 -341.81714257 89.58523647 -323.36328125 85.640625 C-321.65651766 85.28627819 -319.94964622 84.93245058 -318.24267578 84.57910156 C-312.62919148 83.40588953 -307.02659905 82.18522925 -301.42578125 80.953125 C-300.39281921 80.72635071 -299.35985718 80.49957642 -298.29559326 80.26593018 C-291.84040365 78.84454885 -285.39143495 77.39795979 -278.94827271 75.92300415 C-276.86040098 75.44547614 -274.77175978 74.97129936 -272.68234253 74.50057983 C-269.74727216 73.83635353 -266.81666582 73.155178 -263.88671875 72.46875 C-263.01655624 72.27414688 -262.14639374 72.07954376 -261.24986267 71.87904358 C-256.20633902 70.6730481 -252.45763142 69.26929555 -248.42578125 65.953125 C-247.75834248 63.36657167 -247.75834248 63.36657167 -248.42578125 60.953125 C-250.40023446 58.54690618 -250.40023446 58.54690618 -254.18359375 58.6484375 C-260.02691454 58.78960287 -265.57831724 60.09619074 -271.26269531 61.37338257 Z M121.57421875 60.953125 C120.90677998 63.36657167 120.90677998 63.36657167 121.57421875 65.953125 C126.33523635 69.86903101 131.09382955 71.14003186 137.03515625 72.46875 C138.42529686 72.79443214 138.42529686 72.79443214 139.84352112 73.12669373 C142.87580062 73.83243288 145.91202165 74.51888255 148.94921875 75.203125 C151.05937294 75.68574935 153.16947986 76.16858041 155.27954102 76.65161133 C161.7049295 78.11372896 168.1378731 79.54010334 174.57421875 80.953125 C176.05018524 81.27781769 176.05018524 81.27781769 177.55596924 81.60906982 C183.02666944 82.80831284 188.50204668 83.98105438 193.98638916 85.11633301 C195.64294919 85.46025689 197.29855518 85.80881549 198.95306396 86.16247559 C212.1973022 88.9764294 225.28281931 90.56702085 238.69921875 87.640625 C240.46652344 87.27517578 240.46652344 87.27517578 242.26953125 86.90234375 C245.65896663 85.92878252 248.52196931 84.71473484 251.57421875 82.953125 C251.90421875 82.293125 252.23421875 81.633125 252.57421875 80.953125 C246.18710432 79.24213015 239.8025793 78.09649089 233.2734375 77.0703125 C231.01355853 76.70804437 228.7537129 76.34556824 226.49389648 75.98291016 C224.72355545 75.70051483 224.72355545 75.70051483 222.91744995 75.41241455 C203.74207759 72.34764608 184.59878254 69.15407039 165.51171875 65.578125 C164.63977875 65.41536072 163.76783875 65.25259644 162.86947632 65.0848999 C153.70599309 63.36975289 144.5763332 61.57444916 135.48364258 59.51245117 C127.98159389 57.95579766 127.98159389 57.95579766 121.57421875 60.953125 Z M80.57421875 60.953125 C80.88127164 64.14428177 81.20832749 65.59739739 83.54296875 67.8671875 C91.460012 73.30582251 91.460012 73.30582251 100.57421875 75.953125 C103.1543917 74.83747562 103.1543917 74.83747562 104.57421875 72.953125 C104.87050612 70.10778296 104.87050612 70.10778296 103.57421875 66.953125 C98.315172 62.97650973 86.9673113 57.75657872 80.57421875 60.953125 Z M-229.23828125 65.890625 C-231.63648507 67.76365458 -231.63648507 67.76365458 -231.98828125 70.515625 C-231.55834186 72.95071481 -231.55834186 72.95071481 -230.30078125 74.828125 C-227.42440354 76.55395162 -225.63347196 75.74556869 -222.42578125 74.953125 C-220.06871751 73.70607383 -217.89925873 72.4596075 -215.67578125 71.015625 C-215.09957031 70.65533203 -214.52335937 70.29503906 -213.9296875 69.92382812 C-211.53780919 68.41008696 -209.43306928 66.96041303 -207.42578125 64.953125 C-207.42578125 63.633125 -207.42578125 62.313125 -207.42578125 60.953125 C-214.61606768 58.87771644 -222.93904519 62.21355898 -229.23828125 65.890625 Z M-209.42578125 71.640625 C-210.45703125 72.13949219 -211.48828125 72.63835937 -212.55078125 73.15234375 C-215.66015399 75.0999264 -217.47319307 76.85339126 -219.42578125 79.953125 C-219.09578125 80.943125 -218.76578125 81.933125 -218.42578125 82.953125 C-216.32073335 83.93173764 -216.32073335 83.93173764 -213.42578125 83.953125 C-208.37603813 81.68277678 -203.9383217 78.21074979 -200.42578125 73.953125 C-199.55339267 71.27521604 -199.55339267 71.27521604 -199.42578125 68.953125 C-203.74404101 68.953125 -205.61272076 69.74839373 -209.42578125 71.640625 Z M72.57421875 68.953125 C72.24019457 72.83355953 72.24019457 72.83355953 73.94921875 75.328125 C77.6175898 78.99649605 81.75525541 81.9780183 86.57421875 83.953125 C89.31606067 83.70967826 89.31606067 83.70967826 91.57421875 82.953125 C91.90421875 81.963125 92.23421875 80.973125 92.57421875 79.953125 C88.82477383 73.79332264 83.29482271 71.21669653 76.57421875 68.953125 C75.25421875 68.953125 73.93421875 68.953125 72.57421875 68.953125 Z M-253.40625 74.91015625 C-267.04216705 79.27183363 -280.87593089 82.72870374 -294.76959229 86.15405273 C-297.40469844 86.80533366 -300.03824035 87.46281428 -302.6717701 88.12043571 C-305.89767326 88.92554525 -309.12457081 89.72660696 -312.3515625 90.52734375 C-313.58254669 90.83292206 -314.81353088 91.13850037 -316.08181763 91.45333862 C-321.4576412 92.77634476 -326.8313435 94.0644442 -332.25146484 95.19384766 C-333.10427536 95.37228714 -333.95708588 95.55072662 -334.83573914 95.73457336 C-336.37127735 96.04907882 -337.90930795 96.35176309 -339.45002747 96.63981628 C-341.62229016 97.04752724 -341.62229016 97.04752724 -344.42578125 97.953125 C-344.75578125 98.943125 -345.08578125 99.933125 -345.42578125 100.953125 C-343.51062335 101.76917499 -341.59359291 102.58083132 -339.67578125 103.390625 C-338.6084375 103.84308594 -337.54109375 104.29554688 -336.44140625 104.76171875 C-310.77687561 114.901203 -272.2226604 94.95465294 -247.98828125 85.515625 C-246.94051514 85.11512939 -245.89274902 84.71463379 -244.81323242 84.30200195 C-243.38587769 83.72905396 -243.38587769 83.72905396 -241.9296875 83.14453125 C-241.10283447 82.81654541 -240.27598145 82.48855957 -239.42407227 82.15063477 C-237.01853159 80.70907374 -236.3293567 79.5823209 -235.42578125 76.953125 C-235.77471291 74.67148476 -235.77471291 74.67148476 -237.42578125 72.953125 C-243.26071622 71.06774372 -247.8480165 73.04228477 -253.40625 74.91015625 Z M109.57421875 73.953125 C108.48853372 75.79580368 108.48853372 75.79580368 108.57421875 77.953125 C111.25938657 81.13557499 113.73515806 82.70775293 117.59765625 84.1796875 C118.60393066 84.56688965 119.61020508 84.9540918 120.64697266 85.35302734 C122.28158447 85.95945068 122.28158447 85.95945068 123.94921875 86.578125 C125.65537354 87.22128662 125.65537354 87.22128662 127.39599609 87.87744141 C170.41394872 106.26099722 170.41394872 106.26099722 214.57421875 102.953125 C216.84323714 101.41449508 216.84323714 101.41449508 218.57421875 99.953125 C217.77276663 97.764664 217.77276663 97.764664 215.6149292 97.28637695 C214.7516803 97.09003662 213.8884314 96.89369629 212.99902344 96.69140625 C212.01612335 96.46321198 211.03322327 96.2350177 210.02053833 95.99990845 C208.93997162 95.75759491 207.85940491 95.51528137 206.74609375 95.265625 C205.6258078 95.00679535 204.50552185 94.7479657 203.35128784 94.48129272 C200.93539271 93.92317426 198.51872217 93.36840401 196.10137939 92.81658936 C177.72270886 88.61519884 159.38735272 84.29522712 141.19921875 79.328125 C140.07549866 79.02285889 140.07549866 79.02285889 138.92907715 78.71142578 C132.68657093 77.01084867 126.462158 75.30377668 120.34765625 73.1796875 C115.71441065 71.67364286 113.69707124 71.20455667 109.57421875 73.953125 Z M-199.48828125 78.328125 C-200.55175781 78.95460938 -201.61523438 79.58109375 -202.7109375 80.2265625 C-205.44438846 81.82693011 -205.44438846 81.82693011 -207.42578125 83.953125 C-207.10536728 86.55593068 -207.10536728 86.55593068 -206.42578125 88.953125 C-202.57266498 89.51503779 -200.52725628 89.70655765 -197.25 87.46484375 C-195.23650401 85.68693047 -193.30965759 83.86731659 -191.42578125 81.953125 C-190.76578125 81.293125 -190.10578125 80.633125 -189.42578125 79.953125 C-189.74619522 77.35031932 -189.74619522 77.35031932 -190.42578125 74.953125 C-194.31835158 74.953125 -196.15810514 76.3453956 -199.48828125 78.328125 Z M63.57421875 74.953125 C62.62401459 77.19296 62.62401459 77.19296 62.57421875 79.953125 C64.67702465 82.64039058 64.67702465 82.64039058 67.57421875 84.953125 C68.78078125 86.0978125 68.78078125 86.0978125 70.01171875 87.265625 C73.13244156 89.32073514 74.90538457 89.36077324 78.57421875 88.953125 C79.23421875 88.623125 79.89421875 88.293125 80.57421875 87.953125 C80.26091718 84.8254195 80.02960263 83.3623239 77.6484375 81.22265625 C76.86082031 80.74183594 76.07320312 80.26101563 75.26171875 79.765625 C74.48183594 79.27707031 73.70195313 78.78851563 72.8984375 78.28515625 C68.52089333 75.66187532 68.52089333 75.66187532 63.57421875 74.953125 Z M-193.11328125 88.578125 C-194.67874963 90.90400017 -194.67874963 90.90400017 -194.23828125 93.703125 C-193.62765063 95.89289133 -193.62765063 95.89289133 -192.42578125 96.953125 C-188.32796158 97.12038295 -186.40643466 96.79444096 -183.25390625 94.08984375 C-179.57810854 90.09878602 -176.36487897 86.45355453 -175.42578125 80.953125 C-175.75578125 80.293125 -176.08578125 79.633125 -176.42578125 78.953125 C-183.28223523 78.953125 -188.34858757 83.92423815 -193.11328125 88.578125 Z M49.57421875 78.953125 C48.81706096 80.7293593 48.81706096 80.7293593 48.57421875 82.953125 C51.01544893 88.0833794 55.01253608 93.61530841 59.57421875 96.953125 C63.31782216 96.89583502 63.31782216 96.89583502 66.57421875 95.953125 C67.62472327 93.81258318 67.62472327 93.81258318 67.57421875 90.953125 C64.48151597 85.5867356 59.20356593 81.4259354 53.57421875 78.953125 C52.25421875 78.953125 50.93421875 78.953125 49.57421875 78.953125 Z M100.12353516 85.12988281 C98.0822786 86.60684859 96.31946501 88.13962889 94.57421875 89.953125 C96.06457598 94.46531 99.6167616 96.25339092 103.51171875 98.515625 C104.24173096 98.94182129 104.97174316 99.36801758 105.72387695 99.80712891 C112.66690475 103.70325714 119.89961934 106.8156382 127.26171875 109.828125 C128.36443115 110.28002197 129.46714355 110.73191895 130.60327148 111.19750977 C143.15342191 116.18800079 155.56752521 120.12877418 169.13671875 120.140625 C170.24950195 120.15899414 170.24950195 120.15899414 171.38476562 120.17773438 C175.5764321 120.18893206 178.74400352 119.87202491 182.57421875 117.953125 C182.33691609 115.98839059 182.33691609 115.98839059 181.57421875 113.953125 C178.87943209 112.73632282 176.38432596 111.81278262 173.57421875 110.953125 C172.81189941 110.70884766 172.04958008 110.46457031 171.26416016 110.21289062 C169.5822768 109.67409079 167.89924563 109.13886607 166.21533203 108.60644531 C151.52421965 103.91482475 137.32052586 98.14177545 123.06803894 92.27624512 C121.57552481 91.66239247 120.08222618 91.0504432 118.58808899 90.44055176 C115.50433409 89.17892406 112.44844925 87.89584923 109.41552734 86.51464844 C108.10189209 85.92731934 108.10189209 85.92731934 106.76171875 85.328125 C106.04628906 84.99039063 105.33085938 84.65265625 104.59375 84.3046875 C102.43582207 83.72753169 102.43582207 83.72753169 100.12353516 85.12988281 Z M-244.70315552 89.35949707 C-247.8777739 90.83837476 -251.08460302 92.2395392 -254.29231262 93.64483643 C-255.93068242 94.36302313 -257.56738927 95.08501501 -259.20243835 95.81072998 C-267.01687632 99.26631088 -274.9565029 102.29597857 -282.98828125 105.203125 C-284.18598145 105.64333984 -285.38368164 106.08355469 -286.61767578 106.53710938 C-292.7574752 108.75961384 -298.81596038 110.67712505 -305.19897461 112.07324219 C-307.93547654 113.15452198 -308.88478916 114.49533218 -310.42578125 116.953125 C-306.14370372 120.130966 -302.34663445 120.46322755 -297.17578125 120.390625 C-296.37640137 120.37942627 -295.57702148 120.36822754 -294.75341797 120.35668945 C-269.94297536 119.60078068 -240.45388144 107.85136946 -221.42578125 91.953125 C-222.71996092 88.07058598 -224.15339064 86.6225057 -227.65136719 84.5625 C-233.5350699 83.27019782 -239.44599867 86.90937798 -244.70315552 89.35949707 Z M-176.609375 90.0078125 C-178.95040413 92.51497918 -179.96196164 94.55178122 -180.42578125 97.953125 C-178.78965629 101.14113216 -178.78965629 101.14113216 -176.11328125 101.515625 C-172.77557704 100.81703575 -171.50262882 99.29279239 -169.5 96.6015625 C-167.34295746 93.29148267 -166.27080908 91.11541627 -166.80078125 87.140625 C-167.00703125 86.41875 -167.21328125 85.696875 -167.42578125 84.953125 C-171.77237871 84.953125 -173.48857362 87.1686304 -176.609375 90.0078125 Z M40.57421875 84.953125 C39.60075542 87.54902722 39.35043365 89.32798618 40.29296875 91.9609375 C41.98644242 95.43769026 43.56731486 98.43966175 46.57421875 100.953125 C49.15838122 101.28686777 49.15838122 101.28686777 51.57421875 100.953125 C52.84909598 99.87199384 52.84909598 99.87199384 53.01171875 97.328125 C52.39953661 92.60557708 49.96815889 90.15713661 46.57421875 86.953125 C43.75911882 84.6757749 43.75911882 84.6757749 40.57421875 84.953125 Z M80.57421875 99.953125 C80.57421875 100.613125 80.57421875 101.273125 80.57421875 101.953125 C82.11653092 103.41672289 82.11653092 103.41672289 84.16796875 104.89453125 C84.94301758 105.47412598 85.71806641 106.0537207 86.51660156 106.65087891 C110.61441509 124.47989405 110.61441509 124.47989405 139.57421875 128.953125 C142.50298459 128.30374987 142.50298459 128.30374987 144.57421875 126.953125 C145.06921875 125.468125 145.06921875 125.468125 145.57421875 123.953125 C142.1886045 121.04118736 138.52408609 119.71201498 134.3671875 118.27734375 C125.52540592 115.09074853 117.24692686 111.03439644 108.88671875 106.765625 C107.46064317 106.0468179 106.0342116 105.32871663 104.60742188 104.61132812 C103.23796344 103.91989993 101.86881075 103.22786577 100.5 102.53515625 C99.56405754 102.06164482 99.56405754 102.06164482 98.60920715 101.5785675 C95.93266581 100.21111614 93.32866775 98.80236979 90.76635742 97.22924805 C86.42388121 94.7013359 84.30476073 97.19576789 80.57421875 99.953125 Z M-228.76638794 102.34793091 C-232.39810428 104.41689906 -236.08424342 106.38448964 -239.765625 108.36328125 C-240.49784775 108.76028732 -241.2300705 109.1572934 -241.98448181 109.56632996 C-248.65261458 113.15224836 -255.46451229 116.1808474 -262.48828125 119.015625 C-264.01195312 119.63074951 -264.01195312 119.63074951 -265.56640625 120.25830078 C-267.8484058 121.1687671 -270.13367888 122.06847145 -272.42578125 122.953125 C-272.08057677 124.91806074 -272.08057677 124.91806074 -271.42578125 126.953125 C-265.54453783 130.51751495 -258.69158382 129.15012624 -252.30078125 127.890625 C-238.32243355 124.40005946 -226.93400666 116.24687159 -215.42578125 107.953125 C-214.50539062 107.3034375 -213.585 106.65375 -212.63671875 105.984375 C-210.85524232 104.70020118 -209.1301885 103.33795589 -207.42578125 101.953125 C-207.42578125 101.293125 -207.42578125 100.633125 -207.42578125 99.953125 C-215.28335437 93.53340676 -221.04012164 97.94407157 -228.76638794 102.34793091 Z M-204.48046875 108.4453125 C-205.64074585 109.24884155 -205.64074585 109.24884155 -206.82446289 110.06860352 C-207.64164795 110.64924561 -208.45883301 111.2298877 -209.30078125 111.828125 C-210.1405249 112.41585693 -210.98026855 113.00358887 -211.84545898 113.60913086 C-213.5568703 114.80911957 -215.26546055 116.01314181 -216.97119141 117.22119141 C-219.20849147 118.79980755 -221.45945982 120.35544717 -223.71875 121.90234375 C-224.97568677 122.77282219 -226.23222479 123.6438768 -227.48828125 124.515625 C-228.06497559 124.9079834 -228.64166992 125.3003418 -229.23583984 125.70458984 C-232.2140387 127.8030522 -234.16039744 129.48707368 -235.42578125 132.953125 C-234.20887584 134.3815282 -234.20887584 134.3815282 -230.61328125 134.328125 C-216.51808013 134.14885376 -205.08066327 123.94832298 -195.7109375 114.5390625 C-193.77821052 112.35194239 -192.52356475 110.6254437 -191.42578125 107.953125 C-196.54730403 105.67689265 -199.78761294 105.15469127 -204.48046875 108.4453125 Z M64.57421875 107.953125 C71.85774592 120.53376285 84.56631842 130.10261211 98.57421875 133.953125 C101.66722857 134.23806795 104.45986386 134.15405112 107.57421875 133.953125 C107.90421875 133.293125 108.23421875 132.633125 108.57421875 131.953125 C105.54739696 127.73235632 102.08687737 124.95231385 97.796875 122.125 C97.14851181 121.69052551 96.50014862 121.25605103 95.83213806 120.80841064 C94.46731474 119.8969481 93.09979056 118.9895182 91.72973633 118.0859375 C89.63904954 116.7046649 87.56044024 115.30648825 85.48242188 113.90625 C84.15042911 113.01979638 82.81776871 112.13434494 81.484375 111.25 C80.86651627 110.83337097 80.24865753 110.41674194 79.61207581 109.98748779 C74.07515156 106.36554251 70.65445978 104.99986507 64.57421875 107.953125 Z M-191.203125 118.17382812 C-191.93378174 118.90484741 -191.93378174 118.90484741 -192.67919922 119.65063477 C-194.16885281 121.13372708 -195.68079178 122.59119428 -197.1953125 124.04882812 C-198.14339281 124.98810618 -199.09005697 125.92881625 -200.03515625 126.87109375 C-200.90108398 127.72469482 -201.76701172 128.5782959 -202.65917969 129.45776367 C-204.73865931 131.82968702 -204.73865931 131.82968702 -204.20019531 134.77075195 C-203.67712291 137.05834399 -203.67712291 137.05834399 -201.86328125 137.703125 C-197.32150035 138.16894868 -193.92653884 135.06983045 -190.44140625 132.4765625 C-184.41286303 127.54624227 -177.864124 120.87311357 -176.42578125 112.953125 C-183.5215704 109.03820685 -186.13039115 113.17979806 -191.203125 118.17382812 Z M49.57421875 112.953125 C51.99717103 123.45258488 60.98227948 130.79168182 69.26171875 136.953125 C72.11769443 138.18814151 73.64942961 137.87234444 76.57421875 136.953125 C77.31515039 135.12843684 77.31515039 135.12843684 77.57421875 132.953125 C76.65362618 131.19257606 76.65362618 131.19257606 75.01171875 129.578125 C74.37621094 128.90007812 73.74070312 128.22203125 73.0859375 127.5234375 C72.25707031 126.67523438 71.42820312 125.82703125 70.57421875 124.953125 C70.02588379 124.38045898 69.47754883 123.80779297 68.91259766 123.21777344 C67.06045786 121.28558142 65.19486454 119.3673975 63.32421875 117.453125 C62.7098999 116.81713379 62.09558105 116.18114258 61.46264648 115.52587891 C60.87555908 114.93468262 60.28847168 114.34348633 59.68359375 113.734375 C59.15733398 113.19876953 58.63107422 112.66316406 58.08886719 112.11132812 C55.02730004 109.77024583 52.56599181 111.30249159 49.57421875 112.953125 Z M-172.18359375 122.62109375 C-173.30938774 123.79101031 -174.43161909 124.96436273 -175.55078125 126.140625 C-176.12699219 126.71876953 -176.70320313 127.29691406 -177.296875 127.89257812 C-180.65600864 131.25992583 -180.65600864 131.25992583 -181.39453125 135.76171875 C-180.13305504 138.61530002 -179.26191101 139.60969511 -176.42578125 140.953125 C-171.77500472 141.03768457 -169.94864556 140.41063128 -166.42578125 137.328125 C-164.13370696 134.11409776 -164.13370696 134.11409776 -164.42578125 130.515625 C-165.47760236 126.76851231 -166.77425411 123.47159585 -168.42578125 119.953125 C-169.94551719 119.83724121 -169.94551719 119.83724121 -172.18359375 122.62109375 Z M41.57421875 119.953125 C38.57249292 126.36218621 38.57249292 126.36218621 37.51171875 133.265625 C38.92541451 136.8414437 40.50811208 138.63651107 43.57421875 140.953125 C46.57421875 141.703125 46.57421875 141.703125 49.57421875 140.953125 C52.42341928 139.07543358 52.42341928 139.07543358 54.57421875 136.953125 C54.19819109 131.88615233 51.44668104 129.13626286 48.07421875 125.640625 C47.56246094 125.09083984 47.05070312 124.54105469 46.5234375 123.97460938 C45.23546321 122.60677388 43.90798938 121.27634365 42.57421875 119.953125 C42.24421875 119.953125 41.91421875 119.953125 41.57421875 119.953125 Z M59.57421875 141.953125 C58.79046875 142.7575 58.00671875 143.561875 57.19921875 144.390625 C52.84563429 148.64055269 49.72312615 148.15662082 43.83984375 148.12109375 C39.29302338 147.88722619 34.98521571 147.0461154 30.57421875 145.953125 C30.10113281 146.57058594 29.62804687 147.18804687 29.140625 147.82421875 C16.21242525 164.38138685 1.37737124 174.10748953 -17.42578125 182.953125 C-16.05516726 186.62255361 -14.39223337 189.89171997 -12.38671875 193.25390625 C-11.51660156 194.71860352 -11.51660156 194.71860352 -10.62890625 196.21289062 C-9.72398437 197.72399414 -9.72398437 197.72399414 -8.80078125 199.265625 C-8.18976563 200.29236328 -7.57875 201.31910156 -6.94921875 202.37695312 C-5.44458731 204.90426375 -3.93668185 207.42955899 -2.42578125 209.953125 C19.29170789 206.07261388 41.09685976 184.69234772 53.51171875 167.515625 C58.21070819 160.35100612 61.92854917 152.69148088 65.57421875 144.953125 C62.70577745 142.85080156 62.70577745 142.85080156 59.57421875 141.953125 Z M-187.42578125 141.953125 C-191.88078125 143.438125 -191.88078125 143.438125 -196.42578125 144.953125 C-189.93355849 168.89319642 -168.18637056 190.01425831 -147.20410156 202.24853516 C-138.74522447 207.60261305 -138.74522447 207.60261305 -129.42578125 209.953125 C-127.56613678 207.63106742 -127.56613678 207.63106742 -125.81640625 204.58984375 C-124.80900391 202.91825195 -124.80900391 202.91825195 -123.78125 201.21289062 C-123.43626465 200.62677002 -123.0912793 200.04064941 -122.73583984 199.43676758 C-121.68075994 197.6490608 -120.60368659 195.87609946 -119.5234375 194.10351562 C-116.81088354 189.61487436 -116.81088354 189.61487436 -114.42578125 184.953125 C-115.15978171 181.62872182 -115.15978171 181.62872182 -118.63671875 180.15625 C-120.0211892 179.49769199 -121.40947662 178.84711919 -122.80078125 178.203125 C-138.11722861 170.803292 -151.8420952 161.32865407 -161.42578125 146.953125 C-162.16828125 147.118125 -162.91078125 147.283125 -163.67578125 147.453125 C-178.07734407 149.37333338 -178.07734407 149.37333338 -183.05078125 146.078125 C-184.54449493 144.74164434 -186.00850197 143.37040428 -187.42578125 141.953125 Z M-205.42578125 144.953125 C-200.09451565 160.83976069 -191.68748325 173.65718506 -180.42578125 185.953125 C-179.68585938 186.76394531 -178.9459375 187.57476562 -178.18359375 188.41015625 C-166.27640713 200.86254372 -151.09844288 210.85822286 -135.42578125 217.953125 C-134.43578125 217.953125 -133.44578125 217.953125 -132.42578125 217.953125 C-132.35832498 215.56162124 -132.35832498 215.56162124 -133.42578125 212.953125 C-135.86348157 211.46139794 -138.07693831 210.32885406 -140.67578125 209.203125 C-152.7204203 203.57933142 -162.81457509 196.16462126 -172.42578125 186.953125 C-173.27140625 186.14875 -174.11703125 185.344375 -174.98828125 184.515625 C-175.79265625 183.67 -176.59703125 182.824375 -177.42578125 181.953125 C-178.07933594 181.29441406 -178.73289062 180.63570312 -179.40625 179.95703125 C-189.08767329 169.80903334 -195.45012697 157.53714989 -201.42578125 144.953125 C-202.74578125 144.953125 -204.06578125 144.953125 -205.42578125 144.953125 Z M69.57421875 144.953125 C69.30794678 145.47632324 69.0416748 145.99952148 68.76733398 146.53857422 C61.65061437 160.4595945 54.37054722 172.53357893 43.57421875 183.953125 C42.88714844 184.70464844 42.20007813 185.45617187 41.4921875 186.23046875 C30.35796543 197.98440633 14.80769756 208.33925181 -0.42578125 213.953125 C-0.09578125 215.273125 0.23421875 216.593125 0.57421875 217.953125 C5.01208945 217.34071562 8.61559982 215.62211481 12.51171875 213.515625 C13.1663208 213.16218018 13.82092285 212.80873535 14.49536133 212.44458008 C41.51112603 197.49713367 62.20093689 174.61228888 73.57421875 145.953125 C72.25421875 145.623125 70.93421875 145.293125 69.57421875 144.953125 Z M-29.30078125 182.953125 C-31.06105554 186.08250152 -30.0892337 188.49019984 -29.42578125 191.953125 C-27.9553626 196.40303516 -26.19736939 200.73452 -24.44311523 205.07885742 C-23.61329742 207.14058482 -22.80314723 209.20932877 -21.99414062 211.27929688 C-21.46601413 212.6020304 -20.93675559 213.92431261 -20.40625 215.24609375 C-19.93082764 216.4374292 -19.45540527 217.62876465 -18.96557617 218.85620117 C-17.43335263 221.93789701 -16.09416509 223.80363879 -13.42578125 225.953125 C-9.75407255 226.56507645 -8.13764557 226.44019006 -5.05078125 224.328125 C-2.94886721 221.25609678 -3.11805324 219.63118047 -3.42578125 215.953125 C-4.47976086 213.26151988 -4.47976086 213.26151988 -6.05859375 210.6875 C-6.61804688 209.71425781 -7.1775 208.74101562 -7.75390625 207.73828125 C-8.346875 206.73667969 -8.93984375 205.73507812 -9.55078125 204.703125 C-10.12054688 203.71699219 -10.6903125 202.73085938 -11.27734375 201.71484375 C-12.41752545 199.74803032 -13.56881949 197.78761448 -14.73144531 195.83398438 C-15.85928662 193.91632912 -16.95538473 191.97964172 -18.01855469 190.02539062 C-18.52161133 189.11982422 -19.02466797 188.21425781 -19.54296875 187.28125 C-19.9797998 186.47075195 -20.41663086 185.66025391 -20.86669922 184.82519531 C-22.32706012 182.73348972 -22.32706012 182.73348972 -24.98876953 182.12011719 C-27.41989487 181.7373267 -27.41989487 181.7373267 -29.30078125 182.953125 Z M-109.42578125 182.953125 C-110.85812196 185.04336597 -112.12488283 187.08983998 -113.3671875 189.2890625 C-113.73553207 189.92421783 -114.10387665 190.55937317 -114.48338318 191.21377563 C-115.66021952 193.24710403 -116.82447298 195.28731693 -117.98828125 197.328125 C-119.15838729 199.3601234 -120.33097725 201.39067232 -121.50389099 203.42105103 C-122.23290823 204.68520315 -122.95976928 205.95060175 -123.68421936 207.21737671 C-125.19530103 209.85600861 -126.73805977 212.42154278 -128.42578125 214.953125 C-128.89740873 217.67320905 -128.8796263 220.23005469 -128.42578125 222.953125 C-126.23824842 225.6454731 -124.8415417 225.89249327 -121.42578125 226.390625 C-117.61482143 225.83486003 -116.86277206 224.89810494 -114.42578125 221.953125 C-113.21461039 219.47442909 -112.15302038 217.08009979 -111.15625 214.51953125 C-110.87098953 213.80457993 -110.58572906 213.0896286 -110.29182434 212.35301208 C-109.6942759 210.84637636 -109.10206022 209.33761589 -108.51489258 207.8269043 C-107.61497643 205.51997059 -106.69055735 203.2239439 -105.76367188 200.92773438 C-105.18469186 199.4589261 -104.60716784 197.9895429 -104.03125 196.51953125 C-103.7542778 195.83605118 -103.4773056 195.15257111 -103.19194031 194.44837952 C-101.71876258 190.59390572 -100.97010367 187.89643938 -102.42578125 183.953125 C-105.29845281 181.84649919 -105.95857634 181.79739003 -109.42578125 182.953125 Z M-95.97973633 187.01269531 C-98.04243678 189.78060738 -99.27338907 192.82358741 -100.5625 196 C-100.84680374 196.68942688 -101.13110748 197.37885376 -101.42402649 198.08917236 C-102.02203698 199.54677855 -102.61604121 201.00603396 -103.20629883 202.46679688 C-104.10683305 204.6872258 -105.0281341 206.89822287 -105.95117188 209.109375 C-106.53123847 210.530724 -107.11005538 211.95258377 -107.6875 213.375 C-107.96244797 214.02942078 -108.23739594 214.68384155 -108.52067566 215.35809326 C-110.24625114 219.69947681 -110.82342517 223.2969711 -110.42578125 227.953125 C-108.10388469 230.83227673 -106.54365048 230.93864983 -102.86328125 231.390625 C-99.46851552 231.3117158 -99.46851552 231.3117158 -97.83862305 229.38818359 C-96.01850461 226.25117629 -95.20051754 223.05282435 -94.3828125 219.5546875 C-94.20948898 218.84210785 -94.03616547 218.1295282 -93.85758972 217.39535522 C-93.494268 215.89195855 -93.13566281 214.38741516 -92.78149414 212.88183594 C-92.24106397 210.58992622 -91.68326888 208.30276762 -91.12304688 206.015625 C-90.77109057 204.54972964 -90.42014565 203.083591 -90.0703125 201.6171875 C-89.90473343 200.93886871 -89.73915436 200.26054993 -89.56855774 199.56167603 C-88.65342763 195.62513142 -88.0780379 191.9926131 -88.42578125 187.953125 C-89.08578125 187.293125 -89.74578125 186.633125 -90.42578125 185.953125 C-94.18844137 185.57755369 -94.18844137 185.57755369 -95.97973633 187.01269531 Z M-43.42578125 187.953125 C-43.08697283 195.52791323 -41.24615611 202.86777408 -39.52441406 210.22973633 C-39.04826084 212.27645886 -38.58832767 214.32641846 -38.12890625 216.37695312 C-37.82519663 217.69033068 -37.52054268 219.0034903 -37.21484375 220.31640625 C-36.80806396 222.08431519 -36.80806396 222.08431519 -36.39306641 223.88793945 C-35.44496617 226.8923308 -34.63912116 228.72663854 -32.42578125 230.953125 C-28.7904025 231.41580957 -26.35967148 231.36020536 -22.98828125 229.890625 C-20.59799143 226.92666562 -21.14932473 224.69646389 -21.42578125 220.953125 C-22.21159804 218.15691994 -23.30621759 215.53278073 -24.453125 212.8671875 C-24.76149796 212.12479828 -25.06987091 211.38240906 -25.3875885 210.61752319 C-26.3679961 208.26605035 -27.3656136 205.92231873 -28.36328125 203.578125 C-29.03037625 201.98091914 -29.69640297 200.38326665 -30.36132812 198.78515625 C-32.71155758 191.90725134 -32.71155758 191.90725134 -36.42578125 185.953125 C-40.38694925 185.56222167 -40.38694925 185.56222167 -43.42578125 187.953125 Z M-83.42578125 188.953125 C-84.17487809 191.29058107 -84.80128315 193.57086994 -85.37109375 195.953125 C-85.54583221 196.66283447 -85.72057068 197.37254395 -85.90060425 198.10375977 C-86.2694439 199.61259477 -86.63399462 201.12248356 -86.99462891 202.63330078 C-87.54266592 204.91927429 -88.11013258 207.1997749 -88.6796875 209.48046875 C-92.30497206 221.73916463 -92.30497206 221.73916463 -89.86328125 233.578125 C-87.37506723 235.24484695 -87.37506723 235.24484695 -83.86328125 234.953125 C-80.51982374 234.24698895 -80.51982374 234.24698895 -78.78125 232.4921875 C-76.70243068 228.59814554 -76.62118471 224.68389066 -76.30078125 220.328125 C-76.22512939 219.40402832 -76.14947754 218.47993164 -76.0715332 217.52783203 C-75.9190059 215.61543716 -75.77331165 213.70248566 -75.63427734 211.7890625 C-75.43520188 209.08126321 -75.20795491 206.37707196 -74.9765625 203.671875 C-74.85345221 202.05744417 -74.73226212 200.44286541 -74.61328125 198.828125 C-74.54802246 198.07708496 -74.48276367 197.32604492 -74.41552734 196.55224609 C-74.14736863 192.56083471 -74.14736863 192.56083471 -75.6640625 188.9609375 C-78.40857327 187.39090695 -80.6454821 187.56297543 -83.42578125 188.953125 Z M-70.42578125 189.953125 C-70.90535871 192.4857806 -71.19558039 194.8178967 -71.375 197.375 C-71.43734329 198.11260559 -71.49968658 198.85021118 -71.56391907 199.61016846 C-71.76015657 201.97362995 -71.93662748 204.33812762 -72.11328125 206.703125 C-72.24291203 208.28135139 -72.37375737 209.85947853 -72.50585938 211.4375 C-74.3155863 223.14377703 -74.3155863 223.14377703 -71.42578125 233.953125 C-68.31716217 235.50743454 -64.76753378 235.83984745 -61.42578125 234.953125 C-58.78622267 232.02741958 -58.23670816 229.6091439 -58.28125 225.79296875 C-58.37360867 224.15771655 -58.48539353 222.52348281 -58.61328125 220.890625 C-58.67080566 220.0238916 -58.72833008 219.1571582 -58.78759766 218.26416016 C-58.98065767 215.491978 -59.2018729 212.72297201 -59.42578125 209.953125 C-59.49458496 209.01065918 -59.56338867 208.06819336 -59.63427734 207.09716797 C-59.83804379 204.33895878 -60.06454369 201.58372669 -60.30078125 198.828125 C-60.36676514 197.96952881 -60.43274902 197.11093262 -60.50073242 196.22631836 C-60.70164206 194.12221158 -61.05174413 192.03344379 -61.42578125 189.953125 C-65.43587224 187.27973101 -66.41569026 187.27973101 -70.42578125 189.953125 Z M-56.30541992 188.97045898 C-57.99153707 191.95432417 -57.59310353 194.28142327 -57.3515625 197.67578125 C-57.30766891 198.33589706 -57.26377533 198.99601288 -57.21855164 199.6761322 C-57.12233995 201.07620767 -57.018445 202.47577312 -56.9074707 203.87475586 C-56.7408813 205.98272483 -56.59776839 208.0912096 -56.45898438 210.20117188 C-56.46733888 222.87706099 -56.46733888 222.87706099 -51.5793457 233.72290039 C-48.2944401 235.59940411 -45.98737806 234.87650195 -42.42578125 233.953125 C-39.02443159 228.8511005 -40.0398123 223.9011242 -41.18359375 218.12841797 C-42.18676836 213.69629099 -43.3039059 209.29389163 -44.42578125 204.890625 C-44.8121586 203.34203625 -45.19758362 201.79320957 -45.58203125 200.24414062 C-46.51898176 196.47763354 -47.46879219 192.71458832 -48.42578125 188.953125 C-52.46616206 187.83389069 -52.46616206 187.83389069 -56.30541992 188.97045898 Z " fill="#2A2928" transform="translate(463.42578125,286.046875)"/>
<path d="M0 0 C4.71674676 2.66253743 7.83390837 5.96910422 9.58984375 11.1171875 C10.90933775 16.72503701 11.14862517 21.88063886 8.8125 27.2265625 C5.89345219 31.74036167 1.68347582 35.41931014 -3.41015625 37.1171875 C-9.37491919 37.65103892 -14.3676122 37.66988899 -19.41015625 34.1171875 C-24.05464628 29.69599026 -27.2937472 25.43159805 -27.47265625 18.80078125 C-27.16653048 12.53476944 -25.58602778 7.84911503 -21.41015625 3.1171875 C-15.27205905 -1.89350409 -7.4975257 -2.74625739 0 0 Z " fill="#2A2928" transform="translate(408.41015625,400.8828125)"/>
<path d="M0 0 C5.26882869 2.81609809 8.16145963 6.05010243 10.375 11.53125 C11.45715492 17.43391319 11.14044722 22.69013556 8.375 28.09375 C5.26095928 32.3860764 2.07038575 34.61195475 -2.9375 36.28125 C-8.19515945 36.67805449 -11.49852842 36.17623146 -15.9375 33.28125 C-20.53714258 28.47253276 -22.96049578 24.60005522 -23.3125 17.96875 C-23.16239469 12.33041942 -21.34171531 7.81101181 -17.44140625 3.70703125 C-12.3966391 -0.68355163 -6.41255704 -2.37885181 0 0 Z " fill="#2A2928" transform="translate(403.9375,352.71875)"/>
<path d="M0 0 C5.20989319 1.36449584 8.12838582 3.39849844 12 7 C13.5547669 10.10953379 13.28644437 12.56266761 13 16 C11.13871846 19.65362673 9.93646177 21.53176912 6.25 23.375 C5.5075 23.58125 4.765 23.7875 4 24 C3.1875 22.3125 3.1875 22.3125 3 20 C4.66666667 18.33333333 6.33333333 16.66666667 8 15 C8.58863899 12.53219537 8.58863899 12.53219537 8 10 C6.05044636 8.09557709 6.05044636 8.09557709 3.5 6.6875 C2.6646875 6.17574219 1.829375 5.66398437 0.96875 5.13671875 C0.3190625 4.76160156 -0.330625 4.38648438 -1 4 C-0.67 2.68 -0.34 1.36 0 0 Z " fill="#272625" transform="translate(320,298)"/>
<path d="M0 0 C0.33 1.32 0.66 2.64 1 4 C-3.455 6.97 -3.455 6.97 -8 10 C-7.76586026 15.03478441 -7.76586026 15.03478441 -4.9375 18.9375 C-4.298125 19.288125 -3.65875 19.63875 -3 20 C-3.33 21.32 -3.66 22.64 -4 24 C-7.46628726 23.03714243 -8.93417008 22.07650505 -11.3125 19.3125 C-13.28872614 15.43324127 -13.62502678 13.29705912 -13 9 C-10.46250485 4.63550833 -5.35265078 0 0 0 Z " fill="#292928" transform="translate(480,298)"/>
</svg>
