<?xml version="1.0" encoding="UTF-8"?>
<svg version="1.1" xmlns="http://www.w3.org/2000/svg" width="1200" height="1200">
<path d="M0 0 C1.05155273 0.17756836 2.10310547 0.35513672 3.18652344 0.53808594 C44.00684361 7.56915736 84.06815469 19.34185175 122 36 C123.06154297 36.46341797 124.12308594 36.92683594 125.21679688 37.40429688 C169.47544189 56.87596387 211.14235107 82.34026508 248.16650391 113.47070312 C250.6221424 115.51892144 253.12519987 117.50606785 255.625 119.5 C265.63644404 127.67728635 274.95829471 136.77250625 284 146 C286.87171992 148.88683423 289.76408981 151.75116294 292.671875 154.6015625 C299.49292317 161.31518603 306.09193909 167.97735168 312.0078125 175.51171875 C314.01094978 178.01367649 316.12777633 180.34339258 318.3125 182.6875 C323.82448286 188.74493949 328.59794995 195.31976434 333.44726562 201.90771484 C334.96226662 203.94915486 336.49944557 205.9713454 338.046875 207.98828125 C345.21513733 217.35289545 351.75645727 226.99736151 358 237 C358.68642578 238.09465576 358.68642578 238.09465576 359.38671875 239.21142578 C366.30280417 250.2708663 372.81006104 261.51939787 379 273 C379.47050781 273.8672168 379.94101563 274.73443359 380.42578125 275.62792969 C426.79810634 361.42896655 446.87998718 461.23805609 421 668 C399.93375581 737.78834608 367.00032896 802.98729648 320 859 C319.48550293 859.61359375 318.97100586 860.2271875 318.44091797 860.859375 C309.5738705 871.39514958 300.45960319 881.6839805 290.62890625 891.3359375 C288.85981248 893.08120773 288.85981248 893.08120773 287 895.5625 C284.66933244 898.40300109 282.05269272 900.61002063 279.26171875 902.98828125 C276.79042379 905.18641062 274.49648471 907.50728118 272.1875 909.875 C267.92952082 914.18514432 263.44247436 918.01178518 258.7109375 921.7890625 C256.09344426 923.92379042 253.60732829 926.14797391 251.125 928.4375 C240.4971484 938.08252519 228.60819033 946.27350491 216.94726562 954.60644531 C215.39295117 955.71878569 213.84399151 956.83860732 212.296875 957.9609375 C174.72132498 984.89446112 132.48210771 1005.59250442 89 1021 C88.02208496 1021.34659668 87.04416992 1021.69319336 86.03662109 1022.05029297 C30.25540852 1041.62474518 -28.68195108 1051.20588112 -87.75 1051.25 C-88.69932404 1051.25100708 -89.64864807 1051.25201416 -90.6267395 1051.25305176 C-128.1217575 1051.22647922 -165.37757315 1047.07432838 -202 1039 C-203.00417969 1038.78118164 -204.00835937 1038.56236328 -205.04296875 1038.33691406 C-240.82625751 1030.44488911 -275.78080982 1018.42468683 -309 1003 C-310.59618164 1002.26064209 -310.59618164 1002.26064209 -312.22460938 1001.50634766 C-339.81870581 988.65583151 -366.19461677 973.67971759 -391 956 C-392.07193604 955.24468994 -392.07193604 955.24468994 -393.16552734 954.47412109 C-404.1408807 946.73926877 -414.71455657 938.63052833 -425 930 C-425.61359375 929.48550293 -426.2271875 928.97100586 -426.859375 928.44091797 C-437.39514958 919.5738705 -447.6839805 910.45960319 -457.3359375 900.62890625 C-459.08120773 898.85981248 -459.08120773 898.85981248 -461.5625 897 C-464.40300109 894.66933244 -466.61002063 892.05269272 -468.98828125 889.26171875 C-471.18641062 886.79042379 -473.50728118 884.49648471 -475.875 882.1875 C-480.18514432 877.92952082 -484.01178518 873.44247436 -487.7890625 868.7109375 C-489.92379042 866.09344426 -492.14797391 863.60732829 -494.4375 861.125 C-499.66561784 855.36413786 -504.37007837 849.24259096 -509 843 C-509.48984375 842.34 -509.9796875 841.68 -510.484375 841 C-522.84814275 824.26520325 -534.66211868 807.06906282 -545 789 C-545.38043457 788.33532715 -545.76086914 787.6706543 -546.15283203 786.98583984 C-549.1661723 781.6918677 -552.09893985 776.35620501 -555 771 C-555.7101123 769.69264893 -555.7101123 769.69264893 -556.43457031 768.35888672 C-596.9328738 693.4169766 -617.29899866 607.80385857 -617.1875 522.75 C-617.18689575 521.88527069 -617.1862915 521.02054138 -617.18566895 520.12960815 C-617.05167721 448.78146234 -602.72170191 377.40145625 -574 312 C-573.53658203 310.93845703 -573.07316406 309.87691406 -572.59570312 308.78320312 C-552.15128232 262.31351139 -525.03008551 218.96531555 -491.94116211 180.44360352 C-490.08710138 178.28022235 -488.25039172 176.10449903 -486.43164062 173.91137695 C-478.80578164 164.77639057 -470.60793164 156.29903523 -462.17260742 147.91186523 C-459.9297636 145.67980078 -457.69789508 143.43715786 -455.46679688 141.19335938 C-448.64342358 134.3639896 -441.84489284 127.71426103 -434.23193359 121.76049805 C-431.96006876 119.96850316 -429.8217256 118.0778998 -427.6875 116.125 C-400.64884646 91.90486335 -368.85652549 72.17592388 -337 55 C-336.1327832 54.52949219 -335.26556641 54.05898437 -334.37207031 53.57421875 C-251.15098884 8.59626527 -154.47227182 -11.7380965 0 0 Z M-165 24 C-165.33 68.88 -165.66 113.76 -166 160 C-156.76 160 -147.52 160 -138 160 C-137.97494385 157.84210938 -137.9498877 155.68421875 -137.92407227 153.4609375 C-137.83996287 146.26850789 -137.75136669 139.07613834 -137.66066074 131.88378906 C-137.60589074 127.53029548 -137.55255348 123.1767949 -137.50268555 118.82324219 C-137.45435296 114.60861384 -137.40200237 110.39405156 -137.34705925 106.17950439 C-137.32694243 104.58507978 -137.3081861 102.9906373 -137.29092598 101.3961792 C-137.17614734 90.90081986 -136.75580668 80.46920287 -136 70 C-135.78052704 70.57151794 -135.56105408 71.14303589 -135.33493042 71.73187256 C-121.62117758 107.44675287 -121.62117758 107.44675287 -107.8125 143.125 C-107.36979767 144.26551819 -107.36979767 144.26551819 -106.91815186 145.42907715 C-106.09887661 147.53908482 -105.27824043 149.64855688 -104.45703125 151.7578125 C-104.00303955 152.9245752 -103.54904785 154.09133789 -103.08129883 155.29345703 C-102.07897368 157.91160597 -102.07897368 157.91160597 -101 160 C-90.77 160 -80.54 160 -70 160 C-69.1028125 157.66035156 -68.205625 155.32070312 -67.28125 152.91015625 C-60.33842321 134.81763974 -53.35951625 116.7397137 -46.3125 98.6875 C-45.80396484 97.38427292 -45.80396484 97.38427292 -45.28515625 96.05471802 C-38.47949776 78.61832139 -38.47949776 78.61832139 -35 70 C-34.22647523 75.51408055 -33.83807016 80.87152227 -33.79467773 86.43554688 C-33.78477814 87.23650787 -33.77487854 88.03746887 -33.76467896 88.86270142 C-33.73336736 91.48135534 -33.708428 94.10002734 -33.68359375 96.71875 C-33.66299794 98.54578086 -33.64200082 100.37280725 -33.62062073 102.1998291 C-33.56567119 106.98698271 -33.51614337 111.77417736 -33.46777344 116.56140137 C-33.41735925 121.4550335 -33.36177759 126.3486067 -33.30664062 131.2421875 C-33.19939119 140.82807632 -33.09835184 150.41401576 -33 160 C-24.09 160 -15.18 160 -6 160 C-6 115.12 -6 70.24 -6 24 C-19.86 24 -33.72 24 -48 24 C-54.17516326 39.29066827 -54.17516326 39.29066827 -60.34375 54.58398438 C-62.85896904 60.82398388 -65.37494791 67.06366927 -67.89550781 73.30151367 C-69.92805646 78.33177405 -71.95714944 83.3634156 -73.98387527 88.3960247 C-74.75689956 90.31380015 -75.53115815 92.23107854 -76.30668259 94.14784431 C-77.39443396 96.83691373 -78.47774463 99.5277325 -79.56005859 102.21899414 C-79.88014389 103.00734146 -80.20022919 103.79568878 -80.53001404 104.60792542 C-82.29970243 109.02346747 -83.77694171 113.40196553 -85 118 C-85.66 118 -86.32 118 -87 118 C-87.14695312 117.45359863 -87.29390625 116.90719727 -87.4453125 116.34423828 C-89.72617694 108.29403212 -92.85325316 100.61426363 -96 92.875 C-97.24577235 89.79258593 -98.48818126 86.70881994 -99.73046875 83.625 C-100.06233688 82.80224579 -100.39420502 81.97949158 -100.73612976 81.13180542 C-103.55980239 74.12099152 -106.34115389 67.09383424 -109.11328125 60.0625 C-109.54470428 58.96882111 -109.97612732 57.87514221 -110.42062378 56.74832153 C-112.14959335 52.36429176 -113.87806127 47.98007216 -115.60229492 43.59417725 C-116.81203459 40.51761961 -118.02488406 37.44230406 -119.23828125 34.3671875 C-119.78733879 32.96654053 -119.78733879 32.96654053 -120.3474884 31.53759766 C-120.68310287 30.68842773 -121.01871735 29.83925781 -121.36450195 28.96435547 C-121.80413017 27.84696487 -121.80413017 27.84696487 -122.25263977 26.70700073 C-122.87492382 25.00369328 -122.87492382 25.00369328 -124 24 C-137.53 24 -151.06 24 -165 24 Z M230 130 C227.95818668 132.29170689 226.03161069 134.59908284 224.125 137 C223.54492188 137.721875 222.96484375 138.44375 222.3671875 139.1875 C217.96371121 144.70141814 213.72072363 150.32562993 209.52197266 155.99609375 C205.97075499 160.76982362 202.27849884 165.40464974 198.5 170 C193.64500175 175.90581993 189.0004039 181.93196965 184.44702148 188.07250977 C180.60302017 193.24015603 176.61636383 198.27535451 172.57006836 203.28540039 C168.80100113 207.96506546 165.13471723 212.71542584 161.5 217.5 C155.46586812 225.44156674 149.26753138 233.24181251 143 241 C145.14500592 244.86101066 147.60324671 247.91138935 150.625 251.125 C154.98107786 255.83186012 159.07919025 260.67964227 163.08984375 265.6875 C164.03537109 266.8321875 164.03537109 266.8321875 165 268 C165.68255859 268.928125 165.68255859 268.928125 166.37890625 269.875 C168.01531408 271.26314806 168.01531408 271.26314806 170.49951172 270.80981445 C175.10715472 269.74386719 179.27887296 268.00195145 183.62890625 266.16796875 C184.5641362 265.77965378 185.49936615 265.39133881 186.4629364 264.99125671 C189.49862403 263.72924725 192.53055038 262.45846034 195.5625 261.1875 C197.64330199 260.32051956 199.72435779 259.45414805 201.80566406 258.58837891 C205.94411172 256.86607521 210.08123818 255.14065821 214.21728516 253.41259766 C219.27945972 251.29871455 224.34670151 249.19743379 229.41796875 247.10546875 C230.10520523 246.82191025 230.79244171 246.53835175 231.50050354 246.24620056 C232.80131879 245.70959823 234.10216468 245.17307017 235.40304565 244.6366272 C238.29528252 243.44395762 241.18709343 242.25027613 244.078125 241.0546875 C244.98981445 240.67812012 245.90150391 240.30155273 246.84082031 239.91357422 C248.2462812 239.31890725 249.63502407 238.68248796 251 238 C243.25771883 249.84263402 235.10284153 261.40302499 227 273 C226.3719043 273.89944336 225.74380859 274.79888672 225.09667969 275.72558594 C223.89530654 277.44560223 222.69341476 279.16525641 221.4909668 280.88452148 C220.33976339 282.53133483 219.19015852 284.17926692 218.04223633 285.82836914 C215.21991003 289.87374435 212.36163524 293.88373212 209.42578125 297.84765625 C208.85956055 298.62125488 208.29333984 299.39485352 207.70996094 300.19189453 C206.64113499 301.64877969 205.56037811 303.09701484 204.46582031 304.53466797 C201.77040538 308.18889706 201.77040538 308.18889706 200.8046875 312.5234375 C202.62091107 316.28646281 205.25643973 319.12028396 208.0625 322.1875 C209.25152428 323.51947421 210.43902484 324.85281016 211.625 326.1875 C212.20378906 326.83589844 212.78257812 327.48429688 213.37890625 328.15234375 C216.15456861 331.31593001 218.73819845 334.62453653 221.31640625 337.94921875 C223.0904854 340.11022004 225.01215138 342.03622788 227 344 C227.49048325 343.75991211 227.98096649 343.51982422 228.48631287 343.27246094 C251.94495925 331.79030982 275.41090405 320.32424418 298.92021179 308.94615173 C304.0437577 306.46545569 309.16298245 303.97594045 314.28125 301.484375 C315.85660099 300.71784026 317.43195902 299.95131999 319.00732422 299.18481445 C321.27281342 298.08249658 323.53813622 296.97984612 325.80279541 295.87582397 C335.4909866 291.15302991 345.21872334 286.52699585 355 282 C350.8965302 276.43646272 346.63796597 271.02871375 342.25 265.6875 C341.10814455 264.29658212 339.9674698 262.90469392 338.828125 261.51171875 C338.3321582 260.90803467 337.83619141 260.30435059 337.32519531 259.68237305 C336.14064808 258.17855672 335.0618729 256.59280935 334 255 C326.1934348 257.28946675 319.08067807 260.72796377 311.81549072 264.32260132 C308.16578877 266.12756291 304.50657175 267.91302706 300.84765625 269.69921875 C300.10727112 270.06104752 299.36688599 270.42287628 298.60406494 270.79566956 C291.31848034 274.34828091 283.98169039 277.78503694 276.625 281.1875 C275.51084717 281.70296387 274.39669434 282.21842773 273.2487793 282.74951172 C266.51072833 285.85843521 259.75890832 288.93671274 253 292 C253.85677083 290.77604167 254.71354167 289.55208333 255.5703125 288.328125 C256.12992676 287.52866455 256.68954102 286.7292041 257.26611328 285.90551758 C258.52225463 284.1110535 259.77844068 282.31662072 261.03466797 280.5222168 C264.23246829 275.95432786 267.42967932 271.38603015 270.625 266.81640625 C276.12801423 258.94818871 281.64022406 251.08708726 287.1875 243.25 C292.869871 235.2201078 298.44796588 227.12039635 304 219 C298.69398592 211.68630492 292.87691315 204.85439153 287 198 C286.16855469 197.02957764 286.16855469 197.02957764 285.3203125 196.03955078 C283.88055087 194.35940642 282.44043612 192.67956611 281 191 C262.78760994 198.57265857 244.59355866 206.18900505 226.40104675 213.80926514 C224.64507018 214.54447979 222.88890031 215.27923296 221.13252258 216.01348877 C217.45371969 217.55154898 213.77631286 219.09223296 210.10742188 220.65380859 C209.02525391 221.11223145 207.94308594 221.5706543 206.828125 222.04296875 C205.92481445 222.42864014 205.02150391 222.81431152 204.09082031 223.21166992 C202 224 202 224 200 224 C207.89284922 213.20152091 215.8847036 202.48803647 224.01538086 191.86743164 C229.16416475 185.1292161 234.22068361 178.32777675 239.22070312 171.47851562 C239.74728516 170.75857422 240.27386719 170.03863281 240.81640625 169.296875 C241.32703613 168.59498047 241.83766602 167.89308594 242.36376953 167.16992188 C243.53544681 165.6160771 244.75021971 164.09436581 245.99169922 162.59570312 C246.64283691 161.80615234 247.29397461 161.01660156 247.96484375 160.203125 C248.56804443 159.49317383 249.17124512 158.78322266 249.79272461 158.05175781 C251.20435789 156.09831138 251.20435789 156.09831138 250.84667969 153.93554688 C249.94612058 151.8768293 248.98223707 150.50211022 247.48828125 148.828125 C246.98022949 148.24949707 246.47217773 147.67086914 245.94873047 147.07470703 C245.40877441 146.47255371 244.86881836 145.87040039 244.3125 145.25 C240.83985379 141.30721723 237.44474526 137.3966156 234.375 133.125 C233.199375 131.578125 233.199375 131.578125 232 130 C231.34 130 230.68 130 230 130 Z M-438 160 C-438.99 160.7425 -439.98 161.485 -441 162.25 C-445.10214723 165.72790744 -448.27477444 170.08169893 -451.61181641 174.27050781 C-454.27031312 177.58264125 -456.98345913 180.85003981 -459.6875 184.125 C-460.89987949 185.59623889 -462.11211726 187.06759457 -463.32421875 188.5390625 C-463.93313965 189.27801758 -464.54206055 190.01697266 -465.16943359 190.77832031 C-468.11367588 194.3516205 -471.0567964 197.92584428 -474 201.5 C-475.16666096 202.91667137 -476.33332763 204.33333803 -477.5 205.75 C-478.0775 206.45125 -478.655 207.1525 -479.25 207.875 C-484.5 214.25 -484.5 214.25 -486.25195312 216.37719727 C-487.41233784 217.78635161 -488.57249609 219.19569247 -489.73242188 220.60522461 C-492.74332146 224.26343373 -495.75871782 227.91780029 -498.78125 231.56640625 C-499.40386719 232.31921875 -500.02648437 233.07203125 -500.66796875 233.84765625 C-501.84617746 235.27205782 -503.02575396 236.69532971 -504.20703125 238.1171875 C-507.94739481 242.64311668 -511.51684779 247.27342521 -515 252 C-505.33242359 260.34789996 -505.33242359 260.34789996 -495.5 268.5 C-490.09923828 272.88712902 -484.825323 277.41223412 -479.55078125 281.94921875 C-472.31183876 288.17522367 -465.04134091 294.3608624 -457.625 300.375 C-452.50266476 304.54156423 -447.52582622 308.86201281 -442.54956055 313.20043945 C-438.05162003 317.11291015 -433.47818035 320.91461226 -428.83984375 324.66015625 C-426.63741709 326.4748104 -424.47033694 328.31265318 -422.31640625 330.18359375 C-421.68355713 330.73265381 -421.05070801 331.28171387 -420.39868164 331.84741211 C-419.15613506 332.92890855 -417.91689516 334.01421878 -416.68139648 335.10375977 C-414.13520911 337.31892463 -412.23563448 338.92145517 -409 340 C-407.35293061 338.06353897 -405.70704202 336.12610637 -404.0625 334.1875 C-403.56177979 333.59727051 -403.06105957 333.00704102 -402.54516602 332.39892578 C-399.46501686 328.75870504 -396.43350807 325.08511035 -393.4375 321.375 C-390.44666081 317.69355851 -387.34943979 314.16583268 -384.125 310.6875 C-379.8830628 306.07840904 -376.00451716 301.28224692 -372.17626953 296.33276367 C-369.04823175 292.29947242 -365.82216332 288.3745771 -362.5 284.5 C-358.23333296 279.51881209 -354.15107055 274.4209043 -350.13378906 269.23706055 C-347.39985867 265.72695541 -344.58400029 262.31450263 -341.66992188 258.95263672 C-332.88744002 248.80808495 -325.32199269 238.8215943 -324.625 224.9375 C-325.64284321 214.25014633 -329.40227037 205.78422798 -337.625 198.8125 C-347.3046665 191.57416531 -355.79941177 188.45422412 -368 190 C-372.56115985 191.22212895 -376.78229257 192.89114628 -381 195 C-380.51853516 193.91912109 -380.51853516 193.91912109 -380.02734375 192.81640625 C-377.11340942 184.82801594 -378.99486661 177.2827465 -382.4609375 169.7890625 C-387.6269151 160.42736705 -396.75685072 152.72030777 -407.015625 149.4375 C-419.15489379 146.76112578 -429.02826096 152.2669626 -438 160 Z M-232 216 C-232.84578613 216.39268066 -233.69157227 216.78536133 -234.56298828 217.18994141 C-276.21532635 236.71218997 -317.36752461 266.95421688 -345.94921875 303.39453125 C-348.11746217 306.14923289 -350.39674569 308.78407376 -352.6875 311.4375 C-394.94885173 362.32095131 -418.91458085 427.59992761 -425 493 C-425.07057617 493.73395996 -425.14115234 494.46791992 -425.21386719 495.22412109 C-428.81303783 534.34843902 -424.16210047 574.18396108 -414 612 C-413.74379883 612.95438965 -413.48759766 613.9087793 -413.22363281 614.89208984 C-400.21448348 662.33386216 -375.73521762 708.28667384 -342.265625 744.5234375 C-340.39826242 746.56465797 -338.58691797 748.63532478 -336.78125 750.73046875 C-332.78103962 755.31221693 -328.55205797 759.64002161 -324.25 763.9375 C-323.45577637 764.73091797 -322.66155273 765.52433594 -321.84326172 766.34179688 C-316.93475957 771.19932496 -311.98308664 775.77129594 -306.53515625 780.01953125 C-303.79787637 782.15789936 -301.19111573 784.41716569 -298.5625 786.6875 C-255.5576855 822.40523425 -201.72353949 845.1439309 -147 855 C-146.15985352 855.15307617 -145.31970703 855.30615234 -144.45410156 855.46386719 C-76.88303341 867.46751003 -5.91555101 857.18400346 56 828 C56.8573877 827.59813477 57.71477539 827.19626953 58.59814453 826.78222656 C86.10010563 813.77291315 112.13548528 796.94395178 134.5234375 776.265625 C136.56465797 774.39826242 138.63532478 772.58691797 140.73046875 770.78125 C145.31221693 766.78103962 149.64002161 762.55205797 153.9375 758.25 C154.73091797 757.45577637 155.52433594 756.66155273 156.34179688 755.84326172 C161.19932496 750.93475957 165.77129594 745.98308664 170.01953125 740.53515625 C172.15789936 737.79787637 174.41716569 735.19111573 176.6875 732.5625 C222.72379626 677.13394546 248.16274857 603.7140475 250 532 C250.02191406 531.18595703 250.04382813 530.37191406 250.06640625 529.53320312 C250.81715745 496.47512537 246.57339133 463.90400463 238 432 C237.74379883 431.04561035 237.48759766 430.0912207 237.22363281 429.10791016 C224.21448348 381.66613784 199.73521762 335.71332616 166.265625 299.4765625 C164.39826242 297.43534203 162.58691797 295.36467522 160.78125 293.26953125 C150.83491819 281.87723351 139.92666617 271.28919758 128 262 C126.80013061 261.00390769 125.60377405 260.00357512 124.41015625 259 C114.7359774 250.90290944 104.65413661 243.74909345 94 237 C93.37834961 236.60361328 92.75669922 236.20722656 92.11621094 235.79882812 C1.98027556 178.74075384 -112.85153425 168.20308071 -232 216 Z " fill="#242021" transform="translate(686,75)"/>
<path d="M0 0 C0 104.28 0 208.56 0 316 C103.95105237 315.96037615 103.95105237 315.96037615 207.90209961 315.90991211 C227.95617676 315.90539551 227.95617676 315.90539551 237.32887268 315.90455627 C243.90883233 315.90362041 250.48878358 315.89993826 257.06874084 315.89442444 C264.64758275 315.8880829 272.22641653 315.88515845 279.80526111 315.88655505 C283.68656137 315.88716047 287.56784346 315.88616535 291.44914043 315.88078487 C295.59382714 315.87507384 299.73847375 315.87699115 303.88316345 315.87974548 C305.72258184 315.87537649 305.72258184 315.87537649 307.59916019 315.87091923 C308.70225214 315.8729101 309.80534409 315.87490097 310.94186306 315.87695217 C311.90141633 315.87657245 312.86096961 315.87619273 313.84960026 315.8758015 C316 316 316 316 317 317 C322.4211195 388.304149 288.65716159 466.81379029 243.52539062 520.76269531 C240.76990864 523.92430969 237.88775093 526.95998584 235 530 C233.88911215 531.28589073 232.7845434 532.57727793 231.6875 533.875 C224.09057067 542.58018725 215.81757793 550.66791177 206.73046875 557.8046875 C204.49363225 559.60311685 202.34844575 561.44753442 200.203125 563.3515625 C173.12043434 587.15236757 139.95922827 604.4097624 106 616 C105.06607422 616.31952637 104.13214844 616.63905273 103.16992188 616.96826172 C70.58009421 627.92123788 34.46307608 634.17782805 0 634 C-1 633 -1 633 -1.1241985 630.85601228 C-1.12381878 629.89949677 -1.12343906 628.94298126 -1.12304783 627.95748043 C-1.1250387 626.85787298 -1.12702957 625.75826553 -1.12908077 624.62533665 C-1.12616811 623.40294757 -1.12325544 622.18055849 -1.12025452 620.92112732 C-1.12111053 619.63707504 -1.12196655 618.35302277 -1.12284851 617.03005981 C-1.12510326 613.44230107 -1.1210621 609.85457188 -1.11607273 606.2668169 C-1.1117249 602.34736534 -1.11316609 598.42791527 -1.11389065 594.50846195 C-1.11442364 586.89036803 -1.10979335 579.27228583 -1.10338932 571.65419492 C-1.09620692 562.8476278 -1.09539554 554.04106778 -1.09460449 545.23449707 C-1.08934793 521.96882951 -1.07538691 498.70316458 -1.0625 475.4375 C-1.041875 423.483125 -1.02125 371.52875 -1 318 C-105.28 318 -209.56 318 -317 318 C-317 281.51253482 -317 281.51253482 -314 265 C-313.82259277 264.00097656 -313.64518555 263.00195312 -313.46240234 261.97265625 C-308.10523189 232.85582142 -298.2429434 204.43887599 -285 178 C-284.09228461 176.12507905 -283.18473386 174.25007839 -282.27734375 172.375 C-272.24774389 152.06270387 -259.48463703 132.42905505 -245 115 C-244.54979492 114.45118164 -244.09958984 113.90236328 -243.63574219 113.33691406 C-231.21547956 98.26766182 -217.48074733 83.93588055 -202 72 C-200.91106018 71.10258906 -199.82533189 70.20127235 -198.7421875 69.296875 C-183.69834525 56.82078596 -167.29643367 46.08683029 -150 37 C-149.36320313 36.66307129 -148.72640625 36.32614258 -148.0703125 35.97900391 C-103.02231263 12.31297385 -50.88356586 0 0 0 Z " fill="#242021" transform="translate(598,280)"/>
<path d="M0 0 C3.67976681 0.01709059 7.35888192 0.00689147 11.03862667 -0.01032257 C37.12423285 -0.11346264 63.0693014 1.51385771 88.85351562 5.64111328 C89.50959808 5.74404694 90.16568054 5.84698059 90.84164429 5.95303345 C139.20791672 13.56618361 186.6017701 26.52179283 231.41601562 46.39111328 C232.89956543 47.04829346 232.89956543 47.04829346 234.41308594 47.71875 C254.21861664 56.54699378 273.80503864 65.81119506 292.32861328 77.11865234 C294.49062414 78.43659393 296.66156204 79.73885269 298.83398438 81.03955078 C321.22025334 94.50333413 342.58918464 109.32407842 362.71044922 125.98974609 C365.02167617 127.8887502 367.37478827 129.73269797 369.72851562 131.57861328 C374.18881161 135.13185748 378.39393668 138.93069875 382.58007812 142.80126953 C384.78107476 144.81127059 387.00241593 146.78037886 389.25195312 148.73486328 C393.39116902 152.34484877 397.41661557 156.06489995 401.41601562 159.82861328 C402.46583618 160.81583374 402.46583618 160.81583374 403.53686523 161.82299805 C410.26358679 168.16542515 416.78842101 174.54103723 422.80664062 181.56689453 C424.26137814 183.21583244 425.76654769 184.74601197 427.35351562 186.26611328 C429.41601562 188.39111328 429.41601562 188.39111328 429.41601562 190.39111328 C430.07601562 190.39111328 430.73601563 190.39111328 431.41601562 190.39111328 C432.79092861 191.89898489 434.08966024 193.47651089 435.35351562 195.07861328 C436.15917969 196.08666016 436.96484375 197.09470703 437.79492188 198.13330078 C438.4371167 198.93719238 438.4371167 198.93719238 439.09228516 199.75732422 C440.8316954 201.90415811 442.62286405 204.00367157 444.41992188 206.10229492 C464.42800009 229.46999168 481.72443941 254.95709723 497.41601562 281.39111328 C497.87943359 282.16696777 498.34285156 282.94282227 498.8203125 283.7421875 C505.4251633 294.85219888 511.45780032 306.20663339 517.22851562 317.76611328 C517.53712524 318.38401733 517.84573486 319.00192139 518.16369629 319.6385498 C524.49583591 332.34937022 530.8334151 345.07138179 535.62304688 358.45751953 C537.04476041 362.39515378 538.51298532 366.31382312 539.99023438 370.23095703 C545.8295256 385.7735536 551.07255879 401.35458434 555.41601562 417.39111328 C555.79983398 418.77459961 555.79983398 418.77459961 556.19140625 420.18603516 C563.66837428 447.15990715 568.9045596 474.6335805 572.41601562 502.39111328 C572.58262695 503.69628906 572.74923828 505.00146484 572.92089844 506.34619141 C575.53330009 528.1432487 575.72649664 550.01138522 575.78393173 571.936203 C575.79087255 574.15781687 575.80252346 576.3793638 575.81509399 578.60095215 C575.94314035 604.84660848 574.29038408 630.81481083 570.16601562 656.76611328 C570.06308197 657.4246933 569.96014832 658.08327332 569.85409546 658.7618103 C564.34125374 693.88805037 556.00677308 728.22438331 544.16601562 761.76611328 C543.79955429 762.80517822 543.79955429 762.80517822 543.4256897 763.86523438 C540.47533834 772.17665835 537.25352228 780.32288554 533.71557617 788.40185547 C532.58339323 791.00611019 531.51124744 793.62124763 530.47851562 796.26611328 C525.28340065 809.3069121 519.30167307 821.72480374 512.64941406 834.08007812 C511.50084629 836.23216492 510.37853101 838.39520425 509.26757812 840.56689453 C499.09786314 860.36283214 486.97308855 879.04131004 474.41601562 897.39111328 C473.89797363 898.15149902 473.37993164 898.91188477 472.84619141 899.6953125 C465.98213407 909.73452003 458.6564772 919.27339265 450.88085938 928.62207031 C448.80499096 931.1290274 446.77053815 933.66906068 444.72851562 936.20361328 C440.88740608 940.89751963 436.84905598 945.38436388 432.74414062 949.84814453 C430.80907301 951.96178383 428.91393266 954.09771176 427.04101562 956.26611328 C416.25833016 968.63596974 405.02244579 980.96097087 392.49414062 991.59423828 C390.33532502 993.46088336 388.24082911 995.38971711 386.1496582 997.33154297 C381.05183594 1002.06149775 375.85787193 1006.60184541 370.43554688 1010.96142578 C368.20934403 1012.75275589 366.00113447 1014.55849631 363.80273438 1016.38330078 C348.41225369 1029.11324451 332.15280026 1040.50861168 315.41601562 1051.39111328 C314.29356445 1052.12346191 314.29356445 1052.12346191 313.1484375 1052.87060547 C245.33160234 1096.94864272 167.48573561 1125.94243906 87.41601562 1137.39111328 C86.56668457 1137.51437988 85.71735352 1137.63764648 84.84228516 1137.76464844 C59.7515136 1141.35663709 34.92214472 1142.74750148 9.6015625 1142.70678711 C6.49203964 1142.70217333 3.38290965 1142.70903185 0.2734375 1142.72729492 C-21.21189825 1142.85227244 -42.22662809 1141.80979662 -63.58398438 1139.39111328 C-65.65581959 1139.16571803 -67.72767665 1138.94052345 -69.79956055 1138.71557617 C-106.73644196 1134.69286364 -143.37643197 1124.90035541 -178.58398438 1113.39111328 C-179.51678223 1113.08705566 -180.44958008 1112.78299805 -181.41064453 1112.46972656 C-195.43854346 1107.84998077 -209.02968107 1102.24179171 -222.58398438 1096.39111328 C-223.42896484 1096.02791992 -224.27394531 1095.66472656 -225.14453125 1095.29052734 C-246.55795748 1086.03323228 -267.78016662 1075.75141086 -287.58398438 1063.39111328 C-288.72504639 1062.68390137 -288.72504639 1062.68390137 -289.88916016 1061.96240234 C-309.92064822 1049.52515849 -329.3857231 1036.47939034 -347.82958984 1021.77783203 C-349.58104412 1020.39343734 -351.34702772 1019.03018426 -353.11914062 1017.67236328 C-360.32009849 1012.13584346 -367.09565808 1006.3125811 -373.70898438 1000.08642578 C-375.92389879 998.00994352 -378.15563725 995.99182913 -380.45898438 994.01611328 C-392.45842506 983.61829286 -404.35624563 972.64934541 -414.68164062 960.57470703 C-416.59101885 958.3830388 -418.5543543 956.24747991 -420.53173828 954.1171875 C-425.32984027 948.94482371 -429.91500419 943.66259579 -434.34179688 938.16455078 C-436.69840003 935.24958869 -439.10633348 932.38269425 -441.52148438 929.51611328 C-450.11949076 919.20116754 -458.06858533 908.52456219 -465.58398438 897.39111328 C-466.1633374 896.53743164 -466.1633374 896.53743164 -466.75439453 895.66650391 C-482.18156268 872.90779985 -496.17042978 849.49407687 -508.45898438 824.89111328 C-508.91937607 823.96943863 -508.91937607 823.96943863 -509.3890686 823.02914429 C-515.70239214 810.35555564 -522.01556844 797.67120145 -526.79101562 784.32470703 C-528.21272916 780.38707278 -529.68095407 776.46840344 -531.15820312 772.55126953 C-536.99697561 757.01005369 -542.25511537 741.43065448 -546.58398438 725.39111328 C-546.97577881 723.95977051 -546.97577881 723.95977051 -547.37548828 722.49951172 C-553.50845878 700.02079217 -558.21710349 677.44612548 -561.58398438 654.39111328 C-561.72578125 653.43769043 -561.86757813 652.48426758 -562.01367188 651.50195312 C-565.79652424 625.75803688 -566.94479562 600.0200121 -566.8996582 574.03881836 C-566.89503664 571.15747421 -566.9019419 568.27655337 -566.92016602 565.39526367 C-567.10143205 536.41110847 -564.95219724 507.98511091 -560.08691406 479.37304688 C-559.59934804 476.48220638 -559.1394546 473.58818656 -558.68554688 470.69189453 C-556.17669478 455.05166164 -552.52620613 439.72646219 -548.58398438 424.39111328 C-548.31215332 423.32634766 -548.04032227 422.26158203 -547.76025391 421.16455078 C-531.51303455 358.28492657 -502.13820523 298.83507314 -465.58398438 245.39111328 C-465.09575195 244.6747168 -464.60751953 243.95832031 -464.10449219 243.22021484 C-457.20713348 233.1401593 -449.86103606 223.55047003 -442.05322266 214.16015625 C-439.96474935 211.64552056 -437.89999175 209.11171798 -435.83398438 206.57861328 C-435.13660156 205.73041016 -434.43921875 204.88220703 -433.72070312 204.00830078 C-432.16871215 202.10732463 -430.63155768 200.1942054 -429.10351562 198.27392578 C-428.29269531 197.26072266 -427.481875 196.24751953 -426.64648438 195.20361328 C-425.91558594 194.28193359 -425.1846875 193.36025391 -424.43164062 192.41064453 C-423.82191406 191.74419922 -423.2121875 191.07775391 -422.58398438 190.39111328 C-421.92398438 190.39111328 -421.26398438 190.39111328 -420.58398438 190.39111328 C-420.34035156 189.81876953 -420.09671875 189.24642578 -419.84570312 188.65673828 C-418.35881139 185.9867779 -416.60314529 184.25282321 -414.39648438 182.14111328 C-411.53975418 179.35250861 -408.79400005 176.55804455 -406.20898438 173.51611328 C-399.96684659 166.26017121 -393.07880506 159.53278553 -385.79882812 153.32470703 C-383.47104891 151.29251883 -381.21316815 149.19799159 -378.95556641 147.08862305 C-373.66251929 142.14624605 -368.29271198 137.38738337 -362.63867188 132.85595703 C-360.30819957 130.97548641 -358.00678133 129.07374976 -355.71679688 127.14501953 C-346.63908352 119.52367473 -337.32469158 112.48639899 -327.5625 105.76855469 C-325.7015389 104.47295467 -323.86532923 103.15036058 -322.03710938 101.80908203 C-312.88575436 95.10114535 -303.32178206 89.20568583 -293.58398438 83.39111328 C-291.93288993 82.39771141 -290.2818499 81.40421909 -288.63085938 80.41064453 C-262.87664836 64.97098019 -236.34820556 51.8073689 -208.58398438 40.39111328 C-207.41569092 39.90553955 -206.24739746 39.41996582 -205.04370117 38.91967773 C-195.42287044 34.98309969 -185.66722162 31.62903744 -175.77148438 28.45361328 C-174.55952896 28.06334457 -174.55952896 28.06334457 -173.3230896 27.66519165 C-142.73332516 17.83683346 -111.75770421 10.59712817 -80.02148438 5.64111328 C-78.27339478 5.36146729 -78.27339478 5.36146729 -76.48999023 5.07617188 C-51.08261309 1.29667411 -25.6591143 -0.1200347 0 0 Z M-218.58398438 65.39111328 C-219.46957031 65.77267578 -220.35515625 66.15423828 -221.26757812 66.54736328 C-233.69037623 71.92746231 -245.71329807 77.88694247 -257.58398438 84.39111328 C-258.46393066 84.87032227 -259.34387695 85.34953125 -260.25048828 85.84326172 C-282.30143292 97.9008478 -303.48775045 111.29066947 -323.58398438 126.39111328 C-324.1650293 126.82584961 -324.74607422 127.26058594 -325.34472656 127.70849609 C-337.41397022 136.76925654 -349.29548431 146.19894739 -360.41601562 156.40673828 C-362.50267232 158.31668711 -364.62787391 160.17056675 -366.77148438 162.01611328 C-369.92951146 164.76277411 -372.87507562 167.66027421 -375.80664062 170.64501953 C-377.64992011 172.45588971 -379.56221237 174.14432682 -381.52148438 175.82861328 C-387.64961018 181.12861398 -393.2044961 186.861429 -398.47851562 193.00439453 C-400.68968671 195.51093541 -402.96319588 197.94812645 -405.2512207 200.38427734 C-410.44561094 205.91802946 -415.47749919 211.50681554 -420.22070312 217.43798828 C-421.99516461 219.65533188 -423.78761483 221.84881176 -425.60351562 224.03173828 C-432.93488922 232.8789229 -439.72888311 241.98429476 -446.2421875 251.44824219 C-447.45361094 253.20233748 -448.67858341 254.94549453 -449.91210938 256.68408203 C-504.32332197 333.89711573 -536.02319419 424.76707535 -545.58398438 518.39111328 C-545.70257812 519.49616211 -545.82117188 520.60121094 -545.94335938 521.73974609 C-549.80726361 558.94132408 -548.80076062 597.26247188 -544.58398438 634.39111328 C-544.36718018 636.31721436 -544.36718018 636.31721436 -544.14599609 638.28222656 C-532.348997 739.12501284 -491.43533911 836.70777803 -426.58398438 917.39111328 C-425.8028125 918.36693359 -425.02164063 919.34275391 -424.21679688 920.34814453 C-419.93456959 925.64536341 -415.51592026 930.78165851 -410.91992188 935.80908203 C-409.02249744 937.90640235 -407.16031218 940.02500086 -405.30664062 942.16064453 C-401.51876445 946.49914311 -397.60065306 950.70434643 -393.64648438 954.89111328 C-392.98197266 955.59880859 -392.31746094 956.30650391 -391.6328125 957.03564453 C-385.30109427 963.75426698 -378.91110277 970.33444102 -371.90429688 976.35205078 C-369.54376447 978.42645804 -367.24489366 980.55549373 -364.94873047 982.70043945 C-359.6352584 987.66045348 -354.24663721 992.44332432 -348.57226562 996.99267578 C-346.34343829 998.78156465 -344.13628816 1000.58717569 -341.93945312 1002.41455078 C-322.20339374 1018.77023799 -300.68433186 1033.41378924 -278.58398438 1046.39111328 C-277.8534082 1046.82069336 -277.12283203 1047.25027344 -276.37011719 1047.69287109 C-202.86509324 1090.71085342 -123.15931459 1114.70102404 -38.58398438 1122.39111328 C-36.97003784 1122.54797607 -36.97003784 1122.54797607 -35.32348633 1122.70800781 C-23.04593856 1123.76282211 -10.7098408 1123.63406464 1.60351562 1123.64111328 C2.82399597 1123.64212036 4.04447632 1123.64312744 5.30194092 1123.64416504 C25.50379568 1123.63292213 45.36390174 1122.82338662 65.41601562 1120.39111328 C67.31843018 1120.16633301 67.31843018 1120.16633301 69.25927734 1119.93701172 C139.43810413 1111.46265525 208.48505416 1089.80237437 269.99121094 1054.76904297 C272.32915169 1053.44047495 274.6793446 1052.13652791 277.03320312 1050.83642578 C303.03604897 1036.31196315 327.79076028 1018.82558829 350.68505859 999.81787109 C352.20804401 998.56253586 353.75007478 997.3303824 355.29492188 996.10205078 C363.07811021 989.90797839 370.23030961 983.08960434 377.44238281 976.25146484 C380.40729662 973.45672916 383.41205168 970.70621248 386.41601562 967.95361328 C393.08095342 961.81957365 399.47375359 955.58501428 405.37695312 948.71142578 C407.45136039 946.35089338 409.58039607 944.05202257 411.7253418 941.75585938 C416.68662198 936.44103092 421.47000147 931.0504904 426.02148438 925.37548828 C427.79842248 923.16083786 429.59097365 920.96618948 431.40429688 918.78173828 C443.36222822 904.32621836 454.2123747 889.12708338 464.41601562 873.39111328 C465.09349854 872.35494873 465.09349854 872.35494873 465.78466797 871.29785156 C516.45121942 793.6045075 544.64997097 704.47149059 552.41601562 612.39111328 C552.51317871 611.27470459 552.6103418 610.1582959 552.71044922 609.00805664 C553.63170104 597.12688522 553.65853879 585.23976386 553.66601562 573.32861328 C553.66702271 572.21050262 553.66802979 571.09239197 553.66906738 569.94039917 C553.6082415 469.39253565 526.06018582 369.20417002 435.41601562 229.39111328 C434.76503906 228.55708984 434.1140625 227.72306641 433.44335938 226.86376953 C424.75530392 215.85652063 415.51292482 205.3058114 405.95556641 195.04833984 C404.24622865 193.20834861 402.54817351 191.35824001 400.84960938 189.50830078 C393.53975006 181.58431866 386.04237409 174.03695909 378.01757812 166.83984375 C376.36343518 165.34355042 374.73120611 163.82627414 373.10351562 162.30126953 C367.3579675 156.92100128 361.54468633 151.71351175 355.40039062 146.78564453 C353.1857402 145.00870643 350.99109182 143.21615526 348.80664062 141.40283203 C321.37552694 118.70953788 291.2220844 99.40200373 259.82861328 82.68554688 C257.75512889 81.57305808 255.69743791 80.43891969 253.64648438 79.28564453 C179.02446298 37.9237241 88.98494631 19.19693883 4.29101562 19.14111328 C2.68812683 19.13960266 2.68812683 19.13960266 1.05285645 19.13806152 C-74.7990207 19.18598875 -149.01581954 35.28672018 -218.58398438 65.39111328 Z " fill="#262223" transform="translate(593.583984375,25.60888671875)"/>
<path d="M0 0 C4.78725625 3.30548646 7.6664466 5.82611619 9.125 11.5625 C9.92754509 17.06682443 9.42815657 20.97762776 6.625 25.8125 C3.59904991 29.77806064 0.36025765 33.5034713 -2.96582031 37.21777344 C-5.00586632 39.52643257 -6.93955831 41.91590614 -8.875 44.3125 C-12.16323923 48.35233677 -15.50238204 52.34327333 -18.875 56.3125 C-27.52858739 66.25611604 -27.52858739 66.25611604 -35.375 76.8125 C-39.59995289 75.0912229 -42.68592804 72.10234893 -46.0625 69.125 C-51.36916327 64.50508139 -56.74731162 60.04071032 -62.375 55.8125 C-60.90248034 51.13354699 -58.15350807 47.95872502 -54.9375 44.375 C-50.74810864 39.60436297 -46.69699922 34.7722334 -42.8125 29.75 C-38.72946673 24.48045056 -34.50751872 19.35952158 -30.15917969 14.30688477 C-27.63549465 11.35999294 -25.28831488 8.36392331 -23.0625 5.1875 C-17.43407901 -2.34886031 -8.51776727 -2.99699219 0 0 Z " fill="#282425" transform="translate(318.375,296.1875)"/>
<path d="M0 0 C5.33007342 2.42276065 8.15824118 5.44081863 11.16796875 10.45703125 C12.28082857 15.00963961 12.24402099 18.76803864 10.85546875 23.26953125 C8.66887543 26.73119826 6.05526537 29.69399089 3.28564453 32.70214844 C1.20262863 34.98500301 -0.80209698 37.33305323 -2.81665039 39.67626953 C-4.47135292 41.59866988 -6.13473386 43.5132083 -7.80078125 45.42578125 C-15.75890021 54.56836443 -23.66742874 63.72522981 -31.14453125 73.26953125 C-35.11846542 71.60490507 -38.12216735 68.87956735 -41.33203125 66.08203125 C-46.48596027 61.65010446 -51.72348101 57.37384061 -57.14453125 53.26953125 C-55.44410522 49.1253792 -52.50301295 46.02573288 -49.58203125 42.70703125 C-48.48729486 41.44747122 -47.39355327 40.18704591 -46.30078125 38.92578125 C-45.76195312 38.30445313 -45.223125 37.683125 -44.66796875 37.04296875 C-41.85607539 33.76963648 -39.1519089 30.40953497 -36.43359375 27.05859375 C-33.34909319 23.30034563 -30.19118076 19.60624267 -27.02807617 15.9140625 C-24.49414609 12.93666102 -22.12941618 9.91334616 -19.89453125 6.70703125 C-14.97521758 0.05893021 -8.05375492 -2.74326443 0 0 Z " fill="#292526" transform="translate(269.14453125,261.73046875)"/>
<path d="M0 0 C-1.44253657 3.36591866 -3.33264727 5.51047079 -6 8 C-6.99 7.67 -7.98 7.34 -9 7 C-3.34042553 0 -3.34042553 0 0 0 Z " fill="#4C494A" transform="translate(302,297)"/>
<path d="M0 0 C2.6855594 2.6855594 3.06049974 5.37621328 4 9 C2.68 9 1.36 9 0 9 C0 6.03 0 3.06 0 0 Z " fill="#514E4F" transform="translate(549,143)"/>
<path d="M0 0 C0.33 0 0.66 0 1 0 C1 3.3 1 6.6 1 10 C0.67 9.01 0.34 8.02 0 7 C-0.66 7 -1.32 7 -2 7 C-1.125 2.25 -1.125 2.25 0 0 Z " fill="#494546" transform="translate(651,143)"/>
<path d="M0 0 C-0.66 1.65 -1.32 3.3 -2 5 C-3.9375 4.625 -3.9375 4.625 -6 4 C-6.33 3.34 -6.66 2.68 -7 2 C-2.25 0 -2.25 0 0 0 Z " fill="#625F5F" transform="translate(937,313)"/>
</svg>
