<?xml version="1.0" standalone="no"?>
<!DOCTYPE svg PUBLIC "-//W3C//DTD SVG 20010904//EN"
 "http://www.w3.org/TR/2001/REC-SVG-20010904/DTD/svg10.dtd">
<svg version="1.0" xmlns="http://www.w3.org/2000/svg"
 width="600.000000pt" height="494.000000pt" viewBox="0 0 600.000000 494.000000"
 preserveAspectRatio="xMidYMid meet">
<g transform="translate(0.000000,494.000000) scale(0.100000,-0.100000)"
fill="#000000" stroke="none">
<path d="M2035 4180 c-1217 -14 -1340 -17 -1339 -32 1 -8 37 -63 81 -123 44
-61 115 -159 159 -220 l79 -110 76 3 77 3 21 -113 c12 -62 46 -242 76 -400 30
-158 59 -297 65 -308 9 -17 7 -24 -12 -40 -29 -25 -42 -25 -94 1 -49 23 -40
-9 -110 367 -59 310 -71 371 -73 351 -1 -19 25 -169 85 -479 48 -251 66 -299
124 -340 32 -23 162 -73 220 -85 33 -7 34 -6 15 9 -19 16 -18 16 20 10 22 -3
119 -22 215 -41 168 -33 223 -54 201 -76 -11 -11 -91 1 -91 14 0 4 -6 6 -13 3
-8 -3 -88 11 -178 31 -90 20 -170 34 -178 33 -36 -7 691 -167 1194 -263 105
-20 206 -41 225 -45 19 -5 88 -19 153 -30 l118 -22 172 32 c339 62 549 103
1039 204 522 108 595 129 671 196 61 54 83 120 122 375 9 55 18 111 20 125 2
14 20 123 39 244 l36 218 53 72 c29 39 80 107 112 151 32 44 61 82 64 85 3 3
25 31 49 62 38 50 42 60 36 92 l-6 36 -387 2 c-212 2 -514 3 -671 3 -157 1
-613 4 -1015 7 -401 3 -1054 2 -1450 -2z m2768 -30 l718 -5 -85 -34 c-47 -19
-83 -38 -80 -42 3 -5 -3 -6 -12 -2 -12 4 -15 3 -10 -5 4 -8 2 -10 -8 -6 -8 3
-27 -2 -43 -11 -27 -15 -24 -16 22 0 12 4 10 1 -6 -9 -25 -15 -230 -293 -248
-338 -6 -12 -17 -68 -26 -123 -8 -55 -32 -189 -51 -298 -19 -110 -34 -201 -31
-203 2 -2 27 107 56 244 82 384 82 382 97 382 18 0 18 -21 -1 -240 -15 -183
-21 -270 -30 -458 -3 -63 -10 -125 -15 -138 -13 -34 -72 -57 -125 -50 -34 6
-45 3 -60 -14 -35 -39 -82 -60 -211 -95 -265 -73 -945 -215 -1384 -289 l-145
-24 -225 39 c-603 106 -1370 273 -1460 319 -46 24 -102 80 -96 97 3 7 1 24 -4
37 -4 13 -38 200 -75 417 -36 216 -69 398 -72 403 -3 6 -55 81 -114 167 l-108
156 -127 59 -126 59 383 5 c478 7 2741 7 3702 0z m197 -1402 c-67 -56 -242
-108 -700 -207 -333 -73 -1061 -211 -1109 -211 -38 0 7 11 144 34 200 35 612
116 811 160 159 35 214 52 214 67 0 4 8 8 18 8 9 0 117 23 239 50 173 39 238
58 290 85 37 20 79 36 93 36 l25 -1 -25 -21z m-3010 -208 c20 -6 21 -8 5 -8
-11 0 -31 4 -45 8 -20 6 -21 8 -5 8 11 0 31 -4 45 -8z m685 -85 c187 -36 360
-70 385 -75 24 -5 48 -6 52 -4 4 3 8 -6 8 -20 0 -19 6 -26 28 -29 23 -3 22 -4
-8 -6 -50 -2 -250 31 -250 42 0 4 -4 5 -10 2 -8 -5 -64 3 -145 19 -5 1 -57 11
-114 21 -58 10 -100 20 -93 23 6 2 49 -4 95 -12 97 -18 131 -20 122 -6 -3 6
-17 10 -30 10 -13 0 -26 4 -30 9 -3 6 -13 9 -23 9 -17 -1 -229 41 -330 65 -29
7 -50 16 -45 20 4 5 17 6 28 3 11 -3 173 -35 360 -71z m-445 35 c20 -6 21 -8
5 -8 -11 0 -33 4 -50 8 -27 7 -27 8 -5 8 14 0 36 -4 50 -8z m155 -30 c27 -7
27 -8 5 -8 -14 0 -38 4 -55 8 -27 7 -27 8 -5 8 14 0 39 -4 55 -8z"/>
<path d="M2932 4033 c267 -2 708 -2 980 0 271 1 52 2 -487 2 -539 0 -761 -1
-493 -2z"/>
<path d="M1105 3920 c17 -5 42 -11 57 -15 15 -3 65 -41 111 -85 l85 -80 134 0
c74 0 138 3 141 6 4 4 -6 23 -22 43 -15 20 -35 48 -44 62 l-17 25 765 0 c502
-1 765 -4 766 -11 1 -5 1 -14 0 -18 -1 -5 2 -6 7 -3 4 2 8 22 7 43 l0 38
-1010 2 c-569 0 -997 -3 -980 -7z"/>
<path d="M3140 3788 l0 -143 340 0 340 0 0 143 0 142 -340 0 -340 0 0 -142z"/>
<path d="M4293 3852 l-413 -2 0 -46 c0 -25 4 -43 9 -40 5 3 185 6 401 6 382 1
393 1 420 22 23 16 60 25 172 38 l143 17 -160 4 c-88 2 -346 3 -572 1z"/>
<path d="M2200 3756 c0 -9 39 -13 51 -5 10 6 4 9 -18 9 -18 0 -33 -2 -33 -4z"/>
<path d="M2271 3756 c10 -10 59 -14 59 -5 0 5 -14 9 -32 9 -17 0 -29 -2 -27
-4z"/>
<path d="M2340 3753 c0 -5 18 -8 40 -8 22 -1 40 3 40 7 0 4 -18 8 -40 8 -22 0
-40 -3 -40 -7z"/>
<path d="M2431 3756 c10 -10 59 -14 59 -5 0 5 -14 9 -32 9 -17 0 -29 -2 -27
-4z"/>
<path d="M2500 3751 c0 -5 81 -8 180 -8 99 1 180 5 180 9 0 4 -81 8 -180 8
-99 0 -180 -4 -180 -9z"/>
<path d="M2870 3749 c0 -5 33 -9 75 -8 41 1 75 5 75 10 0 5 -34 8 -75 8 -41 0
-75 -5 -75 -10z"/>
<path d="M3030 3752 c0 -5 14 -9 30 -10 17 0 30 4 30 9 0 5 -13 9 -30 9 -16 0
-30 -4 -30 -8z"/>
<path d="M1290 3673 c103 -10 170 -26 171 -39 1 -8 3 -18 4 -24 1 -5 3 -17 4
-26 1 -13 16 -15 101 -12 l100 3 1 35 2 35 6 -35 6 -35 703 -3 702 -2 0 55 0
55 -917 -2 c-505 0 -902 -3 -883 -5z"/>
<path d="M4173 3612 l-293 -2 0 -143 0 -142 345 1 c190 1 349 4 352 8 4 3 14
54 22 114 l17 107 49 12 c28 6 103 17 168 23 65 7 117 14 115 15 -6 5 -494 10
-775 7z"/>
<path d="M1370 3488 c100 -14 113 -23 124 -91 l9 -57 95 0 94 0 -7 60 -7 60
366 0 c278 -1 366 -4 366 -13 0 -7 4 -6 10 3 8 12 13 13 30 2 16 -10 20 -10
20 0 0 9 3 8 10 -2 6 -9 10 -10 10 -3 0 15 60 14 60 -1 0 -6 5 -4 10 4 5 8 10
11 10 5 0 -5 14 -10 30 -10 17 0 30 5 30 10 0 6 5 3 10 -5 9 -13 10 -13 10 0
0 9 3 11 8 5 9 -13 55 -14 64 0 5 7 8 7 8 -1 0 -13 68 -13 89 0 8 6 12 5 8 0
-3 -5 50 -9 129 -9 l134 -1 0 28 0 28 -892 -1 c-582 -1 -870 -5 -828 -11z"/>
<path d="M3147 3493 c-10 -10 -8 -95 2 -89 4 3 157 6 340 6 l331 1 0 45 0 44
-333 0 c-184 0 -337 -3 -340 -7z"/>
<path d="M2850 3355 c0 -6 -83 -10 -228 -10 -125 0 -243 -3 -262 -6 -19 -4
139 -7 352 -8 306 -1 386 2 383 12 -6 14 -65 17 -65 2 0 -5 -5 -3 -10 5 -5 8
-10 10 -10 5 0 -14 -143 -13 -152 0 -5 7 -8 7 -8 0z"/>
<path d="M1350 3255 c8 -2 53 -9 100 -15 l85 -12 3 -62 c2 -41 -4 -78 -17
-113 l-19 -53 429 0 429 0 0 130 0 130 -512 -1 c-282 -1 -506 -3 -498 -4z"/>
<path d="M3140 3173 l0 -88 55 3 c30 2 55 7 55 11 0 4 -20 5 -45 4 l-45 -3 0
45 c0 36 4 45 18 46 62 4 257 8 589 11 211 1 383 5 383 8 0 3 33 4 72 3 110
-4 281 -11 296 -12 16 -1 16 -83 0 -99 -9 -9 -6 -12 14 -12 24 0 26 4 33 55 3
30 11 57 16 61 5 3 85 14 177 25 92 10 172 21 177 23 6 3 -396 5 -892 5 l-903
1 0 -87z"/>
<path d="M2420 3125 l0 -44 340 0 340 0 0 45 0 44 -340 0 -340 0 0 -45z"/>
<path d="M4017 3023 l-878 -3 2 -55 2 -55 668 0 668 0 11 33 10 32 -5 -32 c-6
-41 9 -43 29 -4 9 16 23 32 33 35 10 4 88 14 173 23 85 9 159 20 165 24 5 5 7
8 5 7 -3 -2 -400 -4 -883 -5z"/>
<path d="M2420 2777 l0 -153 163 -28 c89 -16 240 -43 335 -61 95 -17 174 -29
175 -26 1 3 1 99 -1 214 l-3 207 -335 0 -334 0 0 -153z"/>
<path d="M1450 2840 c14 -4 43 -9 65 -9 22 -1 57 -4 77 -7 35 -6 37 -9 31 -33
-3 -14 -11 -29 -17 -33 -6 -4 52 -8 128 -8 l139 0 -19 21 -19 22 32 -17 c27
-13 69 -16 265 -16 l233 0 -1 42 -1 43 -469 2 c-258 0 -458 -3 -444 -7z"/>
<path d="M3148 2678 c-2 -95 -2 -174 -2 -176 1 -1 21 1 45 5 43 7 43 7 14 14
l-30 7 28 1 c16 1 26 5 22 11 -4 6 -11 8 -16 5 -5 -4 -9 -2 -9 4 0 5 6 12 13
14 6 3 -1 6 -18 7 -18 2 -23 4 -12 7 10 3 17 14 16 26 0 21 -1 21 -8 3 -7 -19
-8 -19 -13 2 -4 14 -1 22 11 25 10 3 7 5 -9 7 l-25 2 25 8 c19 6 20 8 6 9 -12
1 -16 6 -12 16 3 8 0 15 -7 15 -8 0 -6 4 3 10 8 5 10 10 4 10 -6 0 -10 14 -10
30 0 22 4 30 17 30 10 0 19 5 21 11 3 9 160 12 591 13 323 1 587 -2 587 -6 0
-8 17 -4 60 14 22 10 103 20 225 28 105 6 192 14 194 16 2 2 -381 4 -852 4
l-856 0 -3 -172z"/>
<path d="M2093 1955 c-394 -83 -918 -337 -1237 -599 l-64 -52 -72 7 c-90 10
-162 33 -201 66 -155 131 5 333 358 451 120 41 289 73 397 75 47 1 86 5 86 8
0 3 -6 14 -14 24 -12 16 -22 17 -102 11 -385 -29 -800 -208 -883 -380 -77
-157 46 -268 332 -301 l58 -7 -51 -55 c-167 -183 -213 -420 -103 -535 34 -36
110 -67 181 -74 183 -20 475 104 771 327 35 26 43 29 37 14 -36 -85 -30 -135
19 -157 36 -16 101 12 202 88 47 35 87 64 89 64 3 0 0 -9 -6 -19 -17 -33 -12
-99 10 -121 49 -49 173 -1 328 126 l33 27 -11 -27 c-5 -15 -10 -47 -10 -71 0
-36 5 -48 25 -61 45 -29 121 4 249 110 35 29 56 42 51 30 -5 -10 -10 -42 -13
-70 -3 -45 -1 -54 19 -68 13 -9 37 -16 54 -16 45 0 141 50 227 118 64 51 76
57 68 36 -19 -49 -12 -93 19 -125 25 -25 37 -29 81 -29 53 0 170 34 242 71
l41 21 25 -32 c34 -44 78 -60 161 -60 71 0 161 23 256 65 l51 22 22 -32 c58
-90 224 -61 398 68 l62 45 -16 -50 c-15 -44 -15 -52 -1 -76 35 -63 108 -45
249 61 40 31 76 55 78 53 2 -3 -1 -13 -7 -24 -18 -33 -13 -90 9 -112 52 -52
174 -3 331 131 l55 47 -3 -56 c-5 -74 19 -115 84 -144 92 -41 250 -6 391 85
77 50 97 70 88 92 -5 13 -16 8 -58 -24 -71 -53 -191 -109 -264 -123 -49 -9
-65 -8 -97 5 -93 39 -62 159 78 302 106 109 201 165 277 165 59 0 48 -64 -23
-133 -71 -68 -66 -96 10 -57 116 59 162 149 105 207 -23 23 -31 25 -97 21
-135 -8 -250 -70 -435 -237 -70 -62 -149 -131 -177 -152 -69 -52 -161 -99
-196 -99 -44 0 -38 33 20 110 48 63 236 253 296 299 24 18 27 24 15 32 -59 38
-213 36 -322 -4 -95 -34 -187 -92 -313 -197 -252 -209 -396 -279 -455 -220
-41 41 -28 61 87 141 289 200 477 385 513 505 14 47 3 78 -30 89 -65 21 -271
-108 -447 -278 -123 -119 -197 -228 -221 -324 l-17 -72 -65 -30 c-86 -39 -133
-51 -203 -51 -84 0 -128 27 -127 78 1 10 36 41 82 72 263 177 463 368 519 494
20 47 18 83 -5 98 -64 43 -277 -82 -472 -277 -102 -102 -127 -133 -162 -203
-23 -46 -44 -105 -48 -132 l-6 -48 -67 -30 c-161 -72 -276 -72 -258 0 14 55
104 160 279 326 l88 82 -62 0 -62 0 -145 -143 c-228 -225 -424 -357 -461 -312
-38 46 163 268 568 629 l102 91 -60 3 -61 3 -141 -133 -140 -133 -62 3 c-109
6 -232 -33 -346 -111 -25 -17 -85 -68 -135 -112 -207 -187 -361 -281 -394
-242 -26 32 98 187 282 353 l88 79 -33 15 c-56 25 -218 19 -300 -12 -105 -39
-203 -101 -333 -209 -301 -251 -578 -395 -780 -406 -80 -4 -95 -2 -134 19 -64
33 -83 74 -78 163 6 100 66 212 197 364 l58 68 129 6 c301 14 710 117 978 247
341 164 507 376 355 452 -48 25 -140 22 -277 -7z m251 -27 c104 -47 -44 -201
-319 -333 -283 -135 -529 -218 -775 -261 -128 -22 -281 -33 -277 -19 11 34
257 213 422 307 369 210 832 360 949 306z m1611 -408 c22 -36 -242 -319 -427
-458 -129 -96 -137 -99 -103 -31 67 134 267 352 411 449 74 49 107 60 119 40z
m500 0 c14 -23 -55 -112 -189 -245 -135 -135 -358 -315 -364 -296 -8 25 81
160 178 270 69 78 194 189 280 249 46 32 84 40 95 22z m-2295 -279 c0 -13
-198 -201 -308 -291 -108 -91 -208 -148 -225 -131 -29 29 100 191 242 303 108
86 187 126 254 127 20 1 37 -3 37 -8z m654 0 c11 -17 -329 -333 -423 -392 -52
-34 -91 -38 -91 -11 0 47 142 215 256 303 80 61 173 109 216 109 20 0 39 -4
42 -9z m2036 0 c0 -14 -227 -229 -326 -309 -161 -130 -247 -155 -194 -56 64
121 307 327 430 365 35 10 90 11 90 0z"/>
<path d="M3344 1415 c-36 -36 -31 -89 8 -93 53 -6 106 46 94 93 -9 35 -67 35
-102 0z"/>
</g>
</svg>
