<?xml version="1.0" encoding="UTF-8"?>
<svg version="1.1" xmlns="http://www.w3.org/2000/svg" width="2400" height="2400">
<path d="M0 0 C0.7159861 0.00026688 1.4319722 0.00053375 2.16965485 0.00080872 C40.11861853 0.0184257 77.90000973 1.36754931 115.75 4.1875 C116.87605652 4.27108765 118.00211304 4.35467529 119.16229248 4.4407959 C160.4300523 7.55141195 160.4300523 7.55141195 172.8125 21.1875 C180.98860255 32.14003082 180.10417521 45.2990536 180 58.3125 C179.99169177 60.15771337 179.98372673 62.00292832 179.97607422 63.84814453 C179.94392601 69.96153354 179.88219482 76.07443521 179.8125 82.1875 C179.80047546 83.2499292 179.78845093 84.3123584 179.77606201 85.40698242 C179.25669496 129.58383061 178.34683769 173.82489182 175.8125 217.9375 C175.74168213 219.19481934 175.67086426 220.45213867 175.59790039 221.74755859 C174.06813761 246.1064757 170.46109917 267.67403295 151.8125 285.1875 C147.02579961 289.1433557 141.93293094 292.68155004 136.8125 296.1875 C136.21163574 296.59967773 135.61077148 297.01185547 134.99169922 297.43652344 C131.32923662 299.93452623 127.63528936 302.38189082 123.92431641 304.80712891 C121.59614792 306.32891672 119.27287791 307.85805539 116.94921875 309.38671875 C107.03650959 315.88920539 97.05838898 322.22358469 86.8125 328.1875 C86.04921387 328.63416016 85.28592773 329.08082031 84.49951172 329.54101562 C61.89520408 342.73839532 38.70209886 354.50680576 14.8125 365.1875 C13.71599121 365.69039551 12.61948242 366.19329102 11.48974609 366.71142578 C9.90734131 367.41307861 9.90734131 367.41307861 8.29296875 368.12890625 C7.35735107 368.54986572 6.4217334 368.9708252 5.45776367 369.40454102 C-0.04812896 371.03420393 -4.58951797 368.27504717 -9.55859375 365.9765625 C-10.26877151 365.65278122 -10.97894928 365.32899994 -11.71064758 364.9954071 C-14.01832384 363.94061603 -16.32192342 362.87729324 -18.625 361.8125 C-19.41338257 361.44957855 -20.20176514 361.0866571 -21.01403809 360.71273804 C-41.92963414 351.08131059 -62.29935696 340.81300197 -82.1875 329.1875 C-83.5489917 328.39400146 -83.5489917 328.39400146 -84.93798828 327.58447266 C-97.3809293 320.28833379 -109.43283122 312.45625264 -121.375 304.375 C-122.02654053 303.93478516 -122.67808105 303.49457031 -123.34936523 303.04101562 C-143.72745137 289.24423928 -162.95829469 276.11797307 -169.01245117 250.7277832 C-171.4038819 237.85666555 -172.14719171 224.99689558 -172.8125 211.9375 C-172.93880956 209.58892266 -173.065604 207.24037135 -173.19287109 204.8918457 C-173.99032799 189.967259 -174.72668919 175.04330228 -175.09033203 160.10107422 C-175.16064675 157.26905195 -175.23689134 154.437606 -175.31982422 151.60595703 C-176.05782244 126.20729033 -176.35843745 100.80000003 -176.47360229 75.39147949 C-176.48909345 72.1052942 -176.51384555 68.81938208 -176.54666138 65.5333252 C-176.58507999 61.61862293 -176.60312972 57.70431303 -176.60651398 53.78942871 C-176.61095202 52.33923576 -176.62215576 50.88904433 -176.64083099 49.43896484 C-176.780367 38.02160429 -175.36350909 28.0252642 -167.93359375 18.96484375 C-156.06831142 6.88720738 -139.55839728 6.2695003 -123.6875 5.0625 C-121.6307228 4.89610733 -119.57400129 4.72902489 -117.51733398 4.5612793 C-78.39553318 1.42485 -39.24430404 -0.03316504 0 0 Z " fill="#FCFCFC" transform="translate(211.1875,1014.8125)"/>
<path d="M0 0 C2.07666648 -0.00271697 4.153332 -0.00628183 6.22999573 -0.01062012 C11.8186854 -0.0196613 17.40730042 -0.01623464 22.99599123 -0.00986195 C28.87325507 -0.00476013 34.75051298 -0.00950481 40.6277771 -0.01263428 C50.490958 -0.01626124 60.35410883 -0.01150767 70.21728516 -0.00195312 C81.58776717 0.008935 92.95817746 0.00539808 104.32865775 -0.00560594 C114.12958467 -0.01470788 123.93049013 -0.01595009 133.73141992 -0.0107286 C139.56839127 -0.00762563 145.405329 -0.00715336 151.24229813 -0.01380157 C156.73031122 -0.01961708 162.2182326 -0.01550185 167.70623589 -0.00401306 C169.70919455 -0.00138909 171.71216105 -0.00209238 173.7151165 -0.00653839 C211.35671421 -0.08233221 211.35671421 -0.08233221 223.25537109 11.07128906 C230.20120052 18.73764022 232.62782896 27.29663346 233.30615234 37.50097656 C233.3916333 38.76538574 233.47711426 40.02979492 233.56518555 41.33251953 C233.62794678 42.29818848 233.69070801 43.26385742 233.75537109 44.25878906 C232.47653297 44.26117742 231.19769485 44.26356577 229.88010406 44.2660265 C199.46823687 44.32348593 169.05644892 44.39628678 138.64466652 44.48777534 C134.89494728 44.49904242 131.14522767 44.51018105 127.39550781 44.52124023 C126.2758368 44.52454576 126.2758368 44.52454576 125.13354617 44.52791806 C113.07459436 44.5632131 101.01564261 44.58812111 88.95665842 44.60913608 C76.56708412 44.63096043 64.17757637 44.6640733 51.78805876 44.70749062 C44.15371899 44.73389357 36.51946202 44.75167235 28.88507891 44.7581351 C23.01394458 44.76405256 17.14293198 44.78573685 11.27185631 44.81306458 C8.87587985 44.82180718 6.47987885 44.82557528 4.0838871 44.82379723 C-12.15100006 44.81555852 -27.46546191 45.48754491 -42.80712891 51.38378906 C-43.59740479 51.68381836 -44.38768066 51.98384766 -45.2019043 52.29296875 C-62.1138163 58.97262076 -77.86828856 69.65349266 -86.24462891 86.25878906 C-87.48046414 89.21744293 -88.48106441 92.14579534 -89.24462891 95.25878906 C-89.42767578 96.00257812 -89.61072266 96.74636719 -89.79931641 97.51269531 C-91.77943888 109.72345056 -90.99679631 123.40824753 -84.61962891 134.19628906 C-78.6964421 142.22453001 -69.68172415 144.55869243 -60.24462891 146.25878906 C-51.07861941 147.21956334 -41.908656 147.40762509 -32.70019531 147.40405273 C-30.78984245 147.40909065 -30.78984245 147.40909065 -28.84089661 147.41423035 C-25.39240927 147.42295144 -21.94394684 147.42540329 -18.49544954 147.42604613 C-16.33001614 147.42676317 -14.16458882 147.4289096 -11.99915695 147.43154335 C-4.41398475 147.44075566 3.17117004 147.44488321 10.75634766 147.4440918 C17.77842978 147.44349131 24.80043503 147.45404803 31.82249773 147.46983546 C37.89432103 147.48299032 43.96611942 147.48827243 50.03795683 147.48763639 C53.64551428 147.48738383 57.25300313 147.490099 60.86054611 147.50081444 C94.14769192 148.78869296 94.14769192 148.78869296 122.75537109 134.25878906 C127.23969388 129.26397417 129.68949685 124.39053754 132.75537109 118.25878906 C88.53537109 118.25878906 44.31537109 118.25878906 -1.24462891 118.25878906 C2.38537109 103.73878906 6.01537109 89.21878906 9.75537109 74.25878906 C80.37537109 74.25878906 150.99537109 74.25878906 223.75537109 74.25878906 C219.95104152 108.49775526 205.89974402 140.46244709 179.36474609 163.20019531 C163.47701178 175.73438092 145.48457001 184.66037572 125.75537109 189.25878906 C125.05397853 189.43132297 124.35258596 189.60385687 123.62993908 189.78161907 C114.25056733 191.80260511 104.85225974 191.54752635 95.30932617 191.53344727 C93.35339159 191.53780078 91.3974587 191.54298604 89.44152832 191.54893494 C84.15406457 191.5622698 78.86667254 191.56290959 73.57919526 191.56037164 C69.15129074 191.55929783 64.72340048 191.56419594 60.29549903 191.56897706 C49.83964789 191.58005395 39.38383268 191.58052039 28.92797852 191.57446289 C18.17563946 191.56842892 7.42343145 191.58072371 -3.32888526 191.60203296 C-12.58958616 191.61970483 -21.85024557 191.6256414 -31.11096269 191.62239522 C-36.62893987 191.62059055 -42.14682362 191.62313613 -47.66478539 191.63710976 C-52.85973974 191.6497741 -58.05449146 191.64766336 -63.24944305 191.63469887 C-65.14393752 191.63235187 -67.03844663 191.63499944 -68.93292427 191.64332199 C-93.69425946 191.74415992 -116.43630616 187.15861298 -135.11962891 169.88378906 C-149.3357508 154.57682614 -154.0709863 134.48512801 -153.52978516 114.15722656 C-152.1221481 83.80173949 -136.06766611 56.9932513 -114.12304688 36.89599609 C-82.41294213 9.25784137 -40.92615857 -0.09104694 0 0 Z " fill="#000000" transform="translate(1776.24462890625,1083.7412109375)"/>
<path d="M0 0 C0.91707058 0.0015486 1.83414117 0.0030972 2.77900177 0.00469273 C3.74564761 0.00242718 4.71229344 0.00016162 5.70823157 -0.00217259 C8.97496196 -0.00854509 12.2416512 -0.00768109 15.50838715 -0.00685817 C17.84070378 -0.0098481 20.17301991 -0.01325024 22.50533539 -0.01703578 C28.86839188 -0.02590827 35.23143494 -0.02821557 41.59449703 -0.02885157 C46.24514875 -0.02968062 50.89579747 -0.03257957 55.54644813 -0.03568805 C68.07727983 -0.04400813 80.60810442 -0.04772925 93.13893878 -0.04701831 C93.8514085 -0.04697836 94.56387822 -0.0469384 95.29793793 -0.04689723 C96.01129052 -0.04685635 96.7246431 -0.04681547 97.45961244 -0.04677335 C108.95564874 -0.0463691 120.45165192 -0.05587832 131.94767868 -0.0700356 C143.77906805 -0.08448912 155.61044141 -0.09130052 167.44183981 -0.09044182 C174.07249797 -0.09011235 180.70312647 -0.09294687 187.33377892 -0.10361987 C193.59559507 -0.11342121 199.85733939 -0.11329909 206.11915833 -0.10610324 C208.39645802 -0.10507136 210.67376247 -0.10733522 212.95105416 -0.1134637 C224.90148408 -0.14349256 236.76018381 0.14999987 248.68027741 1.04811925 C249.74732625 1.12826891 250.8143751 1.20841858 251.91375875 1.29099703 C270.07941449 2.79043178 288.95230988 7.4604269 302.68441254 20.1384055 C303.30574066 20.68110081 303.92706879 21.22379613 304.56722504 21.78293675 C317.06630652 33.33511812 321.21518071 50.14263233 321.90706879 66.6227805 C322.83677508 101.85432482 306.17756612 134.65219541 282.68441254 160.1384055 C281.93546723 160.96985081 281.18652191 161.80129613 280.41488129 162.65793675 C264.90836703 179.08506039 243.33177437 190.51946369 220.61335045 191.50038213 C213.33435811 191.68022621 206.05641286 191.63401927 198.77596527 191.59250706 C195.98531149 191.58913852 193.19467099 191.59184014 190.40401703 191.59427708 C184.42812284 191.59636062 178.4524052 191.58395723 172.47655541 191.56132573 C163.83682526 191.52862723 155.19717928 191.51838061 146.55739398 191.51337376 C132.53531354 191.50464888 118.5133269 191.47811007 104.4912973 191.44016331 C90.88127599 191.40337016 77.27128028 191.3750943 63.66121918 191.35813206 C62.82036573 191.35708117 61.97951228 191.35603028 61.11317842 191.35494754 C56.8942872 191.34972687 52.6753958 191.34467216 48.45650429 191.33969992 C13.53240688 191.29832542 -21.39158159 191.22795417 -56.31558746 191.1384055 C-54.35108535 183.26860072 -52.38587279 175.39897378 -50.41984981 167.52954882 C-49.50611046 163.87202663 -48.59258026 160.21445251 -47.67960113 156.55674046 C-41.315337 131.06043333 -34.84259397 105.59373087 -28.31558746 80.1384055 C-7.19558746 80.1384055 13.92441254 80.1384055 35.68441254 80.1384055 C33.33989605 90.10260057 30.99307165 100.04337855 28.45003754 109.95481175 C28.16714875 111.06275594 27.88425995 112.17070012 27.59279877 113.31221837 C26.70816831 116.77549913 25.82133871 120.23821203 24.93441254 123.7009055 C24.32619233 126.08042515 23.71811838 128.45998219 23.11019379 130.83957738 C21.63661667 136.60628489 20.16124455 142.37253074 18.68441254 148.1384055 C41.29442864 148.10118345 63.90428391 148.04124124 86.51416641 147.95450276 C97.01313767 147.91475096 107.51203438 147.88233887 118.0110727 147.86740941 C127.16566188 147.85437289 136.32008679 147.8273572 145.47458345 147.78379244 C150.31855909 147.76122262 155.16233247 147.74549213 160.00636536 147.74652165 C164.57338681 147.74727092 169.13996188 147.72921377 173.70686775 147.69723767 C175.37564101 147.68877618 177.04446456 147.68696302 178.71324974 147.69260281 C191.46863716 147.7299414 202.46103741 146.01387243 213.18441254 138.6384055 C213.76449066 138.26071019 214.34456879 137.88301488 214.94222504 137.49387425 C217.51617594 135.78378358 219.77809955 134.04471849 221.96566254 131.8571555 C222.81644379 131.00637425 222.81644379 131.00637425 223.68441254 130.1384055 C224.34441254 130.1384055 225.00441254 130.1384055 225.68441254 130.1384055 C225.93062348 129.56735081 226.17683441 128.99629613 226.43050629 128.40793675 C227.8887925 125.76848414 229.63729369 123.98017237 231.74691254 121.8259055 C244.48874947 107.87349147 253.42899113 89.16317939 252.62191254 70.0134055 C251.8163407 63.09815965 249.89589513 56.94263487 244.52816254 52.255593 C235.60135001 46.09609236 227.31592417 44.99132956 216.69970185 44.98018712 C215.69818852 44.97524914 214.6966752 44.97031116 213.66481298 44.96522355 C210.31148453 44.94987476 206.95817519 44.94149499 203.6048227 44.93308324 C201.20002566 44.92350266 198.7952303 44.91349247 196.39043671 44.90308446 C191.21437402 44.88164902 186.03830985 44.86320099 180.86222702 44.84747952 C173.37852785 44.82474389 165.89485662 44.79660624 158.4111812 44.76716024 C146.26870947 44.71952955 134.12622629 44.67625315 121.98372895 44.63571995 C110.1901001 44.59634199 98.39648141 44.55491027 86.60286957 44.51071995 C85.87561899 44.50799568 85.14836841 44.50527141 84.39907993 44.50246459 C80.75059023 44.48878473 77.10210067 44.47506453 73.4536112 44.46132427 C43.19723269 44.34743057 12.94083268 44.24067818 -17.31558746 44.1384055 C-16.23754117 35.32005896 -16.23754117 35.32005896 -15.39175934 32.03318089 C-15.21487579 31.33628651 -15.03799225 30.63939214 -14.85574859 29.92137975 C-14.66718292 29.20022481 -14.47861725 28.47906987 -14.28433746 27.73606175 C-14.08835968 26.97289143 -13.89238189 26.20972111 -13.69046539 25.42342442 C-13.27932108 23.82706844 -12.86575923 22.23133328 -12.4498648 20.63620824 C-11.81138995 18.18478919 -11.1821117 15.73113628 -10.55386871 13.27707738 C-10.15206291 11.72159977 -9.7497381 10.16625613 -9.34683746 8.61106175 C-9.15827179 7.8757372 -8.96970611 7.14041264 -8.77542633 6.38280553 C-7.09744118 -0.01888361 -6.64801282 0.02596889 0 0 Z " fill="#000000" transform="translate(1289.3155874609947,1083.8615944981575)"/>
<path d="M0 0 C0.91707058 0.0015486 1.83414117 0.0030972 2.77900177 0.00469273 C3.74564761 0.00242718 4.71229344 0.00016162 5.70823157 -0.00217259 C8.97496196 -0.00854509 12.2416512 -0.00768109 15.50838715 -0.00685817 C17.84070378 -0.0098481 20.17301991 -0.01325024 22.50533539 -0.01703578 C28.86839188 -0.02590827 35.23143494 -0.02821557 41.59449703 -0.02885157 C46.24514875 -0.02968062 50.89579747 -0.03257957 55.54644813 -0.03568805 C68.07727983 -0.04400813 80.60810442 -0.04772925 93.13893878 -0.04701831 C93.8514085 -0.04697836 94.56387822 -0.0469384 95.29793793 -0.04689723 C96.01129052 -0.04685635 96.7246431 -0.04681547 97.45961244 -0.04677335 C108.95564874 -0.0463691 120.45165192 -0.05587832 131.94767868 -0.0700356 C143.77906805 -0.08448912 155.61044141 -0.09130052 167.44183981 -0.09044182 C174.07249797 -0.09011235 180.70312647 -0.09294687 187.33377892 -0.10361987 C193.59559507 -0.11342121 199.85733939 -0.11329909 206.11915833 -0.10610324 C208.39645802 -0.10507136 210.67376247 -0.10733522 212.95105416 -0.1134637 C224.90148408 -0.14349256 236.76018381 0.14999987 248.68027741 1.04811925 C249.74732625 1.12826891 250.8143751 1.20841858 251.91375875 1.29099703 C270.07941449 2.79043178 288.95230988 7.4604269 302.68441254 20.1384055 C303.30574066 20.68110081 303.92706879 21.22379613 304.56722504 21.78293675 C317.06630652 33.33511812 321.21518071 50.14263233 321.90706879 66.6227805 C322.83677508 101.85432482 306.17756612 134.65219541 282.68441254 160.1384055 C281.93546723 160.96985081 281.18652191 161.80129613 280.41488129 162.65793675 C264.90836703 179.08506039 243.33177437 190.51946369 220.61335045 191.50038213 C213.33435811 191.68022621 206.05641286 191.63401927 198.77596527 191.59250706 C195.98531149 191.58913852 193.19467099 191.59184014 190.40401703 191.59427708 C184.42812284 191.59636062 178.4524052 191.58395723 172.47655541 191.56132573 C163.83682526 191.52862723 155.19717928 191.51838061 146.55739398 191.51337376 C132.53531354 191.50464888 118.5133269 191.47811007 104.4912973 191.44016331 C90.88127599 191.40337016 77.27128028 191.3750943 63.66121918 191.35813206 C62.82036573 191.35708117 61.97951228 191.35603028 61.11317842 191.35494754 C56.8942872 191.34972687 52.6753958 191.34467216 48.45650429 191.33969992 C13.53240688 191.29832542 -21.39158159 191.22795417 -56.31558746 191.1384055 C-54.35108535 183.26860072 -52.38587279 175.39897378 -50.41984981 167.52954882 C-49.50611046 163.87202663 -48.59258026 160.21445251 -47.67960113 156.55674046 C-41.315337 131.06043333 -34.84259397 105.59373087 -28.31558746 80.1384055 C-7.52558746 80.1384055 13.26441254 80.1384055 34.68441254 80.1384055 C34.06736927 85.6917949 33.54673295 90.31273869 32.19393402 95.57614964 C31.89369828 96.75669423 31.59346253 97.93723881 31.28412873 99.15355748 C30.79971062 101.01970959 30.79971062 101.01970959 30.30550629 102.92356175 C29.97009989 104.23335709 29.6352346 105.5432911 29.30088288 106.85335606 C28.42673516 110.27248354 27.54533214 113.68969845 26.66231781 117.10654515 C25.75962729 120.60495521 24.86393132 124.10515471 23.96761566 127.60520238 C22.21332474 134.45135385 20.45134987 141.29550602 18.68441254 148.1384055 C41.29442864 148.10118345 63.90428391 148.04124124 86.51416641 147.95450276 C97.01313767 147.91475096 107.51203438 147.88233887 118.0110727 147.86740941 C127.16566188 147.85437289 136.32008679 147.8273572 145.47458345 147.78379244 C150.31855909 147.76122262 155.16233247 147.74549213 160.00636536 147.74652165 C164.57338681 147.74727092 169.13996188 147.72921377 173.70686775 147.69723767 C175.37564101 147.68877618 177.04446456 147.68696302 178.71324974 147.69260281 C191.40021093 147.72974109 202.40137653 146.06487072 213.05941254 138.7009055 C213.62273285 138.3315891 214.18605316 137.96227269 214.76644379 137.58176488 C231.79724049 126.23445576 245.92319749 106.61289287 251.18831879 86.69699925 C253.23345724 76.14923794 253.72021784 65.96505205 248.30941254 56.3884055 C244.03841848 50.45530045 237.17537222 47.11679948 230.12095696 45.57993478 C225.6324274 45.00324582 221.22069285 44.9849322 216.69970185 44.98018712 C215.69818852 44.97524914 214.6966752 44.97031116 213.66481298 44.96522355 C210.31148453 44.94987476 206.95817519 44.94149499 203.6048227 44.93308324 C201.20002566 44.92350266 198.7952303 44.91349247 196.39043671 44.90308446 C191.21437402 44.88164902 186.03830985 44.86320099 180.86222702 44.84747952 C173.37852785 44.82474389 165.89485662 44.79660624 158.4111812 44.76716024 C146.26870947 44.71952955 134.12622629 44.67625315 121.98372895 44.63571995 C110.1901001 44.59634199 98.39648141 44.55491027 86.60286957 44.51071995 C85.87561899 44.50799568 85.14836841 44.50527141 84.39907993 44.50246459 C80.75059023 44.48878473 77.10210067 44.47506453 73.4536112 44.46132427 C43.19723269 44.34743057 12.94083268 44.24067818 -17.31558746 44.1384055 C-16.23754117 35.32005896 -16.23754117 35.32005896 -15.39175934 32.03318089 C-15.21487579 31.33628651 -15.03799225 30.63939214 -14.85574859 29.92137975 C-14.66718292 29.20022481 -14.47861725 28.47906987 -14.28433746 27.73606175 C-14.08835968 26.97289143 -13.89238189 26.20972111 -13.69046539 25.42342442 C-13.27932108 23.82706844 -12.86575923 22.23133328 -12.4498648 20.63620824 C-11.81138995 18.18478919 -11.1821117 15.73113628 -10.55386871 13.27707738 C-10.15206291 11.72159977 -9.7497381 10.16625613 -9.34683746 8.61106175 C-9.15827179 7.8757372 -8.96970611 7.14041264 -8.77542633 6.38280553 C-7.09744118 -0.01888361 -6.64801282 0.02596889 0 0 Z " fill="#000000" transform="translate(530.3155874609947,1083.8615944981575)"/>
<path d="M0 0 C1.58506346 -0.00299919 3.17012619 -0.00640344 4.75518799 -0.01017761 C9.02841521 -0.01894712 13.30162236 -0.0213528 17.57485771 -0.0219934 C20.25590595 -0.02270821 22.93694922 -0.0248507 25.61799622 -0.02749062 C35.0037976 -0.03672257 44.38958485 -0.04082843 53.77539062 -0.04003906 C62.47078303 -0.03943969 71.16611311 -0.04996938 79.86148977 -0.06578273 C87.36941613 -0.07894115 94.87732233 -0.08421947 102.38526011 -0.08358365 C106.85034286 -0.08333098 111.31537021 -0.08605226 115.78044128 -0.0967617 C183.95918807 -0.24875271 183.95918807 -0.24875271 205.75976562 20.93823242 C206.819375 22.03071289 206.819375 22.03071289 207.90039062 23.14526367 C208.54492188 23.78077148 209.18945312 24.4162793 209.85351562 25.07104492 C222.94812036 38.8203799 226.4831814 58.79725383 226.17382812 77.12963867 C225.12687028 103.64566006 213.59654741 128.95007733 196.90039062 149.14526367 C196.30484375 149.89420898 195.70929688 150.6431543 195.09570312 151.41479492 C190.37912942 157.13561519 184.7621129 161.64064865 178.90039062 166.14526367 C178.13082031 166.74209961 177.36125 167.33893555 176.56835938 167.95385742 C166.31269613 175.51893781 154.83881425 181.4488582 142.77539062 185.52026367 C141.77572266 185.85973022 141.77572266 185.85973022 140.75585938 186.20605469 C126.82819275 190.62145662 113.59959461 191.58497844 99.10791016 191.53344727 C97.16285916 191.53752197 95.21781049 191.54286886 93.27276611 191.54937744 C88.03295192 191.56295177 82.79331667 191.55779307 77.5534997 191.54824018 C72.04151114 191.54058981 66.52953684 191.54770422 61.01754761 191.55239868 C51.76281006 191.55784159 42.50814455 191.55070415 33.25341797 191.53637695 C22.59302968 191.52006298 11.93281368 191.52533583 1.27242959 191.54185617 C-7.9195848 191.55552448 -17.11154768 191.5573644 -26.30356896 191.54954016 C-31.77623889 191.54489166 -37.24882819 191.54416008 -42.72149277 191.55414963 C-47.87137302 191.56289488 -53.02103394 191.55666115 -58.17089081 191.53946686 C-60.04722609 191.53554158 -61.92358022 191.53656694 -63.79990768 191.54325485 C-80.37506354 191.59683118 -95.82541708 190.14260307 -111.09960938 183.14526367 C-112.04320312 182.7147168 -112.98679687 182.28416992 -113.95898438 181.84057617 C-129.08369201 174.27822235 -139.09718655 161.65124943 -145.03710938 146.08276367 C-153.07620333 121.18929341 -149.02535512 94.54823083 -137.28710938 71.50073242 C-120.24713754 39.60696696 -89.61681222 18.40783608 -55.61621094 7.67797852 C-37.1020995 2.05925064 -19.32270981 -0.00737516 0 0 Z M-74.32617188 73.52026367 C-79.45865016 79.51776639 -82.57354993 85.68980888 -85.09960938 93.14526367 C-85.34582031 93.84780273 -85.59203125 94.5503418 -85.84570312 95.27416992 C-89.22390914 107.17943389 -88.29351013 122.21733859 -83.06835938 133.34057617 C-77.59188579 143.07241775 -69.60984908 147.62526102 -59.05576134 150.63437843 C-44.67040153 154.39138102 -29.17624632 153.45836248 -14.45801139 153.44684625 C-11.7052467 153.44576185 -8.95250433 153.45069678 -6.19974452 153.45545167 C0.30817952 153.46647385 6.8160458 153.46702585 13.32397461 153.4609375 C19.98027331 153.45490496 26.63636025 153.46720728 33.29262286 153.48850757 C39.06051176 153.50626873 44.82833414 153.51210232 50.59624928 153.50886983 C54.01778553 153.50707962 57.43917072 153.50946094 60.86068153 153.52358437 C92.78831798 153.62801749 121.80136792 150.65522621 146.23632812 127.97729492 C159.72765745 114.23271539 164.43873344 96.64801869 164.32055664 77.82128906 C164.00221697 66.59193349 161.15662771 57.12246292 152.90039062 49.14526367 C141.09892508 40.13827431 125.64295497 38.9992669 111.36987305 38.98413086 C110.2385495 38.97916595 109.10722595 38.97420105 107.94161987 38.96908569 C104.21302673 38.95452945 100.48447622 38.94767091 96.75585938 38.94213867 C95.47403589 38.93931129 94.19221241 38.93648392 92.87154579 38.93357086 C86.77878878 38.92013958 80.68605055 38.91024154 74.59328002 38.90636897 C67.61599199 38.90190723 60.63890172 38.88443977 53.66167372 38.85536838 C47.57484106 38.83090928 41.48808821 38.82341308 35.40120888 38.82169342 C32.83514648 38.81869298 30.26908439 38.81075432 27.70305443 38.79750824 C-9.4849356 38.6193316 -47.71440246 45.1343763 -74.32617188 73.52026367 Z " fill="#000000" transform="translate(1017.099609375,1083.854736328125)"/>
<path d="M0 0 C103.62 0 207.24 0 314 0 C312.12483619 15.00131048 307.04625437 29.43348425 303 44 C219.84 44 136.68 44 51 44 C50.67 46.64 50.34 49.28 50 52 C49.65049339 53.70307827 49.26957538 55.40032093 48.84375 57.0859375 C48.51697266 58.38724609 48.51697266 58.38724609 48.18359375 59.71484375 C47.84521484 61.03162109 47.84521484 61.03162109 47.5 62.375 C47.27441406 63.27605469 47.04882812 64.17710938 46.81640625 65.10546875 C45.1409337 71.7181326 45.1409337 71.7181326 44 74 C127.16 74 210.32 74 296 74 C289.09797297 100.45777027 289.09797297 100.45777027 286.625 108.4375 C286.36589844 109.28763672 286.10679687 110.13777344 285.83984375 111.01367188 C285.23067996 113.0103754 284.61607063 115.00541672 284 117 C247.44668957 117.06867208 210.89339045 117.12153181 174.34002879 117.15319599 C170.0242118 117.15694809 165.70839493 117.16083106 161.39257812 117.16479492 C160.10378027 117.16597532 160.10378027 117.16597532 158.78894609 117.16717956 C144.87836592 117.18023217 130.96782296 117.20388523 117.05726486 117.23145839 C102.78291191 117.2595166 88.50857844 117.27617714 74.23419905 117.28226548 C65.42670177 117.28638106 56.61930967 117.29937813 47.81184477 117.3237494 C41.77158855 117.33961171 35.73138668 117.34439923 29.69111115 117.34050413 C26.20658943 117.33858335 22.72225146 117.34152028 19.23776245 117.35761642 C15.45690478 117.3725319 11.67649788 117.36895648 7.89562988 117.36076355 C6.79833951 117.36950207 5.70104913 117.3782406 4.57050753 117.38724393 C-2.28754309 117.34704937 -8.40897871 116.85024086 -13.98828125 112.421875 C-20.63408132 104.03130736 -22.59168638 95.65035484 -22 85 C-16.26027488 56.3013744 -7.66650138 28.24500508 0 0 Z " fill="#000000" transform="translate(2032,1158)"/>
<path d="M0 0 C17.01663126 11.25456404 27.07363388 33.76542339 35.57397461 51.70532227 C38.41997209 57.62717473 38.41997209 57.62717473 42.97265625 62.3046875 C45.61450166 63.10150068 45.61450166 63.10150068 47.97265625 63.3046875 C47.51410871 65.44457604 47.04477749 67.17916352 45.94921875 69.0859375 C43.98579156 73.54684407 44.73362419 78.53017538 44.97265625 83.3046875 C44.97136719 84.09230469 44.97007812 84.87992188 44.96875 85.69140625 C45.06639995 88.09952292 45.06639995 88.09952292 46.97265625 91.3046875 C50.19100515 92.92910447 53.35912933 94.05815791 56.80859375 95.1015625 C61.05551394 96.71644079 63.15115063 98.77903421 65.28515625 102.7421875 C66.0675799 105.65849382 65.7942419 107.42913774 64.97265625 110.3046875 C62.82239459 109.3407771 61.22563692 108.59380826 59.66015625 106.8046875 C57.11369338 104.54116495 54.22820369 104.103218 50.97265625 103.3046875 C51.94062342 108.36978788 51.94062342 108.36978788 55.22265625 112.1171875 C57.94079234 113.42127593 57.94079234 113.42127593 60.94140625 113.80078125 C64.40126033 115.51733256 64.57157096 115.97644564 65.80078125 119.4453125 C66.29975089 121.14127847 66.77287767 122.8450178 67.22265625 124.5546875 C67.70702392 126.24739793 68.19139876 127.94010631 68.67578125 129.6328125 C68.89588867 130.43952393 69.11599609 131.24623535 69.34277344 132.07739258 C69.873121 133.95272623 70.49133206 135.8028896 71.12890625 137.64453125 C73.11785207 143.91523544 71.96458298 149.912736 70.421875 156.16015625 C69.62738276 159.95299313 69.2137478 163.78687059 70.97265625 167.3046875 C73.49229047 167.66140991 75.98598868 167.74843867 78.52734375 167.86328125 C81.39952009 168.3817412 82.31762001 168.92122107 83.97265625 171.3046875 C84.90821084 175.80546364 84.53153859 179.37964086 82.16015625 183.3046875 C79.97265625 185.3046875 79.97265625 185.3046875 76.97265625 186.3046875 C80.00695302 187.82183589 83.14867292 187.44832666 86.47265625 187.4296875 C87.16230469 187.43355469 87.85195312 187.43742187 88.5625 187.44140625 C92.39431839 187.49509616 92.39431839 187.49509616 95.97265625 186.3046875 C95.18890625 185.8921875 94.40515625 185.4796875 93.59765625 185.0546875 C90.79406159 183.1856244 89.94105678 182.47399833 88.97265625 179.3046875 C88.56612905 175.51043362 88.41251458 173.23013895 90.41015625 169.9296875 C93.64428058 167.87877939 96.27330179 167.69663088 100.046875 167.48046875 C101.97948372 167.51116116 101.97948372 167.51116116 102.97265625 166.3046875 C103.25666736 162.33688525 103.16868164 158.40733034 102.47265625 154.4921875 C100.90717086 144.51221816 102.420353 136.41181581 105.6953125 127.03125 C106.98446149 123.47199279 106.98446149 123.47199279 107.65625 120.390625 C108.20630947 118.06140767 108.64915291 116.29953312 109.97265625 114.3046875 C112.24963235 113.14051927 114.39749435 112.51048991 116.87890625 111.90625 C119.15793232 111.42915728 119.15793232 111.42915728 120.97265625 109.3671875 C121.95368877 107.34380793 122.46279348 105.48526132 122.97265625 103.3046875 C116.85859347 104.8547904 116.85859347 104.8547904 111.91015625 108.4921875 C111.60078125 109.0903125 111.29140625 109.6884375 110.97265625 110.3046875 C109.65265625 109.6446875 108.33265625 108.9846875 106.97265625 108.3046875 C108.09955178 104.01698744 109.09436343 100.31605499 112.03515625 96.9296875 C116.47737902 94.47228767 121.82317619 92.3046875 126.97265625 92.3046875 C127.81886311 87.17371889 128.12673773 82.25057916 128.09765625 77.0546875 C128.10152344 76.34828125 128.10539063 75.641875 128.109375 74.9140625 C128.10342942 71.77479446 127.97257109 69.30443201 126.97265625 66.3046875 C126.31265625 66.3046875 125.65265625 66.3046875 124.97265625 66.3046875 C125.30265625 65.3146875 125.63265625 64.3246875 125.97265625 63.3046875 C127.04902344 62.92441406 128.12539062 62.54414062 129.234375 62.15234375 C134.210098 60.18513846 135.61245628 56.38407431 137.78515625 51.7421875 C138.64403744 50.01733374 139.50476176 48.29339672 140.3671875 46.5703125 C140.79854004 45.69310547 141.22989258 44.81589844 141.67431641 43.91210938 C161.53430507 4.02781473 161.53430507 4.02781473 177.296875 -2.0703125 C188.35314272 -4.65279839 198.36372641 -2.69861705 208.21484375 2.484375 C217.52874364 8.42418286 220.7336098 20.00684975 223.29296875 30.19140625 C224.70052062 37.46017603 224.27613275 44.94538237 223.97265625 52.3046875 C222.51728057 53.14317554 221.05825252 53.97532684 219.59765625 54.8046875 C218.78554688 55.26875 217.9734375 55.7328125 217.13671875 56.2109375 C214.97265625 57.3046875 214.97265625 57.3046875 212.97265625 57.3046875 C212.90949219 58.08328125 212.84632813 58.861875 212.78125 59.6640625 C210.14885385 83.71585052 199.22565991 106.28833572 180.84375 122.140625 C177.90189949 123.9708368 175.33843309 123.6163335 171.97265625 123.3046875 C169.2139159 120.54594715 169.67322217 118.83792279 169.66015625 114.9921875 C169.64339844 113.86167969 169.62664062 112.73117187 169.609375 111.56640625 C169.97265625 108.3046875 169.97265625 108.3046875 171.484375 105.80078125 C173.40869036 102.5733862 173.24313401 100.40220676 173.09765625 96.6796875 C172.88759401 90.55987422 172.88759401 90.55987422 173.97265625 87.3046875 C174.20711971 83.5272207 174.35436125 79.75076997 174.49609375 75.96875 C174.98306323 72.2246732 175.96785126 70.41711955 177.97265625 67.3046875 C177.24049749 64.43819467 177.24049749 64.43819467 175.97265625 61.3046875 C175.79312121 59.76658131 175.64908388 58.22403978 175.53515625 56.6796875 C175.25873871 53.94776079 174.95405753 52.26455342 173.78515625 49.7421875 C171.95581521 48.05308971 171.95581521 48.05308971 168.97265625 47.8046875 C165.86864996 48.01000302 165.86864996 48.01000302 164.09765625 50.3046875 C163.72640625 50.9646875 163.35515625 51.6246875 162.97265625 52.3046875 C163.96265625 52.6346875 164.95265625 52.9646875 165.97265625 53.3046875 C169.0767031 57.79564889 169.63346298 63.75148113 169.359375 69.08984375 C168.58025934 73.06505293 166.84213423 74.62573746 163.6171875 76.98828125 C157.74230455 80.69532267 151.57663802 84.10336024 144.97265625 86.3046875 C145.00746094 86.85253906 145.04226563 87.40039062 145.078125 87.96484375 C145.68632294 105.77635499 139.40023971 127.7835169 128.97265625 142.3046875 C122.31622892 151.94903732 118.63070811 160.26243004 116.63037109 171.83374023 C115.57387335 177.33144144 113.93174504 180.31486044 109.97265625 184.3046875 C107.66015625 185.6796875 107.66015625 185.6796875 105.97265625 186.3046875 C106.63265625 187.6246875 107.29265625 188.9446875 107.97265625 190.3046875 C103.27102378 195.97907152 96.8867666 199.34824991 89.64453125 200.7578125 C82.07316811 201.13910417 74.10625109 198.37356554 68.28515625 193.5546875 C67.14046875 192.4409375 67.14046875 192.4409375 65.97265625 191.3046875 C66.30265625 189.6546875 66.63265625 188.0046875 66.97265625 186.3046875 C65.90015625 185.7684375 64.82765625 185.2321875 63.72265625 184.6796875 C58.0138871 180.6134817 57.49354556 173.75674213 55.97265625 167.3046875 C53.18183872 156.91334564 49.57667552 147.73842396 42.84765625 139.2421875 C36.63946381 131.23943944 34.52292798 120.92855243 31.97265625 111.3046875 C31.66972656 110.19480469 31.36679688 109.08492187 31.0546875 107.94140625 C29.18426306 100.60899117 28.60508356 93.86034841 28.97265625 86.3046875 C28.02132812 85.97791016 28.02132812 85.97791016 27.05078125 85.64453125 C22.71047976 83.75528834 18.76127098 81.32561409 14.72265625 78.8671875 C13.89507812 78.37669922 13.0675 77.88621094 12.21484375 77.38085938 C11.03535156 76.66446289 11.03535156 76.66446289 9.83203125 75.93359375 C9.11499023 75.50119385 8.39794922 75.06879395 7.65917969 74.62329102 C5.97265625 73.3046875 5.97265625 73.3046875 4.97265625 70.3046875 C4.32036524 62.89423385 4.4064584 58.19655569 8.97265625 52.3046875 C8.85822369 49.99442476 8.85822369 49.99442476 7.97265625 48.3046875 C3.89306784 47.90466235 3.89306784 47.90466235 0.30859375 49.515625 C-1.39640359 51.79892553 -1.45518015 53.28925182 -1.58984375 56.1171875 C-1.80045146 59.34650565 -2.07959389 61.43792536 -3.27734375 64.4921875 C-4.18720476 67.90416629 -3.31661605 69.07345193 -1.7578125 72.109375 C-0.43813623 76.0754609 -0.92791108 80.18629777 -1.1171875 84.31640625 C-1.23934424 87.23112178 -1.23934424 87.23112178 -0.02734375 89.30078125 C1.39725007 92.1555337 1.05387972 94.51777118 0.91015625 97.6796875 C0.81102029 102.92223047 1.50211152 105.67241613 3.97265625 110.3046875 C5.03665117 118.92577454 5.03665117 118.92577454 2.61328125 122.06640625 C0.97265625 123.3046875 0.97265625 123.3046875 -1.65234375 123.9296875 C-10.71070983 122.2522123 -17.04747372 113.48358925 -22.02734375 106.3046875 C-30.88077519 92.78186594 -36.06627777 78.63121066 -37.99609375 62.59765625 C-39.34991581 58.27465626 -41.10715414 57.42178019 -45.02734375 55.3046875 C-45.96578125 54.91023438 -46.90421875 54.51578125 -47.87109375 54.109375 C-50.02734375 52.3046875 -50.02734375 52.3046875 -50.46484375 50.50097656 C-50.63468289 48.12216717 -50.61569035 45.81296435 -50.52734375 43.4296875 C-50.50816895 42.57560303 -50.48899414 41.72151855 -50.46923828 40.84155273 C-50.01474931 27.7829792 -47.11447841 13.71878236 -37.33984375 4.3046875 C-27.14743297 -3.56077667 -11.64974353 -6.31481425 0 0 Z " fill="#020202" transform="translate(126.02734375,1110.6953125)"/>
<path d="M0 0 C0.7159861 0.00026688 1.4319722 0.00053375 2.16965485 0.00080872 C40.11861853 0.0184257 77.90000973 1.36754931 115.75 4.1875 C116.87605652 4.27108765 118.00211304 4.35467529 119.16229248 4.4407959 C160.4300523 7.55141195 160.4300523 7.55141195 172.8125 21.1875 C180.98860255 32.14003082 180.10417521 45.2990536 180 58.3125 C179.99169177 60.15771337 179.98372673 62.00292832 179.97607422 63.84814453 C179.94392601 69.96153354 179.88219482 76.07443521 179.8125 82.1875 C179.80047546 83.2499292 179.78845093 84.3123584 179.77606201 85.40698242 C179.25669496 129.58383061 178.34683769 173.82489182 175.8125 217.9375 C175.74168213 219.19481934 175.67086426 220.45213867 175.59790039 221.74755859 C174.06813761 246.1064757 170.46109917 267.67403295 151.8125 285.1875 C147.02579961 289.1433557 141.93293094 292.68155004 136.8125 296.1875 C136.21163574 296.59967773 135.61077148 297.01185547 134.99169922 297.43652344 C131.32923662 299.93452623 127.63528936 302.38189082 123.92431641 304.80712891 C121.59614792 306.32891672 119.27287791 307.85805539 116.94921875 309.38671875 C107.03650959 315.88920539 97.05838898 322.22358469 86.8125 328.1875 C86.04921387 328.63416016 85.28592773 329.08082031 84.49951172 329.54101562 C61.89520408 342.73839532 38.70209886 354.50680576 14.8125 365.1875 C13.71599121 365.69039551 12.61948242 366.19329102 11.48974609 366.71142578 C9.90734131 367.41307861 9.90734131 367.41307861 8.29296875 368.12890625 C7.35735107 368.54986572 6.4217334 368.9708252 5.45776367 369.40454102 C-0.04812896 371.03420393 -4.58951797 368.27504717 -9.55859375 365.9765625 C-10.26877151 365.65278122 -10.97894928 365.32899994 -11.71064758 364.9954071 C-14.01832384 363.94061603 -16.32192342 362.87729324 -18.625 361.8125 C-19.41338257 361.44957855 -20.20176514 361.0866571 -21.01403809 360.71273804 C-41.92963414 351.08131059 -62.29935696 340.81300197 -82.1875 329.1875 C-83.5489917 328.39400146 -83.5489917 328.39400146 -84.93798828 327.58447266 C-97.3809293 320.28833379 -109.43283122 312.45625264 -121.375 304.375 C-122.02654053 303.93478516 -122.67808105 303.49457031 -123.34936523 303.04101562 C-143.72745137 289.24423928 -162.95829469 276.11797307 -169.01245117 250.7277832 C-171.4038819 237.85666555 -172.14719171 224.99689558 -172.8125 211.9375 C-172.93880956 209.58892266 -173.065604 207.24037135 -173.19287109 204.8918457 C-173.99032799 189.967259 -174.72668919 175.04330228 -175.09033203 160.10107422 C-175.16064675 157.26905195 -175.23689134 154.437606 -175.31982422 151.60595703 C-176.05782244 126.20729033 -176.35843745 100.80000003 -176.47360229 75.39147949 C-176.48909345 72.1052942 -176.51384555 68.81938208 -176.54666138 65.5333252 C-176.58507999 61.61862293 -176.60312972 57.70431303 -176.60651398 53.78942871 C-176.61095202 52.33923576 -176.62215576 50.88904433 -176.64083099 49.43896484 C-176.780367 38.02160429 -175.36350909 28.0252642 -167.93359375 18.96484375 C-156.06831142 6.88720738 -139.55839728 6.2695003 -123.6875 5.0625 C-121.6307228 4.89610733 -119.57400129 4.72902489 -117.51733398 4.5612793 C-78.39553318 1.42485 -39.24430404 -0.03316504 0 0 Z M-69.15087891 15.90966797 C-74.12406387 16.18865825 -79.09870227 16.42712104 -84.07421875 16.66015625 C-98.67588616 17.35563639 -113.25447669 18.22398723 -127.8125 19.5625 C-129.0092334 19.66425537 -130.2059668 19.76601074 -131.43896484 19.87084961 C-140.04372433 20.72837071 -149.44564202 21.91982505 -155.6875 28.4375 C-162.2014322 36.46075796 -161.60072255 45.97704711 -161.515625 55.71484375 C-161.51302103 57.24972885 -161.5116593 58.78461649 -161.51145935 60.31950378 C-161.50678746 64.40857729 -161.48284796 68.49731457 -161.4540062 72.58628082 C-161.4318614 75.99224009 -161.41972016 79.39820816 -161.40729427 82.80421448 C-161.36817587 93.26564677 -161.28887125 103.7265006 -161.1875 114.1875 C-161.17676453 115.32588318 -161.16602905 116.46426636 -161.15496826 117.637146 C-160.92381555 140.50273551 -159.88660961 163.33869443 -158.84695816 186.17922211 C-158.7519009 188.27067626 -158.65784503 190.36217389 -158.56381226 192.45367432 C-157.96332959 205.71778183 -157.30290711 218.96860931 -156.16796875 232.19921875 C-156.08913956 233.12159332 -156.01031036 234.0439679 -155.92909241 234.99429321 C-154.50390126 250.59825026 -150.06574999 264.36674845 -137.828125 274.84521484 C-112.8189712 295.30657312 -83.49357117 311.52459716 -55.19921875 326.9765625 C-52.61392048 328.38986711 -50.05684479 329.83826036 -47.51953125 331.3359375 C-35.48591396 338.39304295 -22.82051967 344.14589698 -10.10888672 349.86230469 C-8.3955715 350.63949631 -6.68975506 351.43442424 -5.00439453 352.27050781 C-0.91335426 354.25044125 1.46062302 354.5062506 5.8125 353.1875 C9.3982394 351.77934458 12.88482865 350.19164741 16.375 348.5625 C17.93927734 347.83703979 17.93927734 347.83703979 19.53515625 347.09692383 C40.28654775 337.36206188 60.43140581 326.58526836 80.09570312 314.80908203 C82.65366701 313.28230309 85.2226857 311.77655735 87.796875 310.27734375 C97.71196166 304.46849501 107.36429105 298.28968337 116.9375 291.9375 C117.79222397 291.37295105 117.79222397 291.37295105 118.66421509 290.79699707 C126.01815518 285.92958743 133.00875056 280.79522354 139.8125 275.1875 C140.94244385 274.29248779 140.94244385 274.29248779 142.09521484 273.37939453 C154.27105003 263.68163948 157.59969031 249.09936961 159.41796875 234.28125 C160.60473483 222.55169115 161.06808744 210.82954912 161.36474609 199.05053711 C161.41748921 197.00105568 161.47429931 194.95171196 161.53125 192.90234375 C161.56154297 191.70730225 161.59183594 190.51226074 161.62304688 189.28100586 C161.73919575 186.08462729 162.00651105 182.91580704 162.29663086 179.73071289 C162.95439867 172.09096497 163.14859753 164.44332824 163.34765625 156.78125 C163.39115305 155.19012059 163.43479685 153.59899519 163.47857666 152.00787354 C163.61718946 146.90124214 163.74691463 141.79440488 163.875 136.6875 C163.90788431 135.38743767 163.90788431 135.38743767 163.94143295 134.06111145 C164.49491437 112.11866242 165.02286325 90.17396892 165.11105347 68.22387695 C165.12026286 66.05376606 165.1342674 63.88366957 165.15335083 61.71362305 C165.17685911 58.74115123 165.17984325 55.76942112 165.17578125 52.796875 C165.18946747 51.53958588 165.18946747 51.53958588 165.20343018 50.25689697 C165.13981378 42.06039365 163.35203575 33.45592203 157.8125 27.1875 C151.72106619 22.89786007 146.01492532 21.27435463 138.6875 20.5625 C137.65786133 20.45043213 136.62822266 20.33836426 135.56738281 20.22290039 C131.98467588 19.84911812 128.39965567 19.51574552 124.8125 19.1875 C122.85328613 18.99824951 122.85328613 18.99824951 120.85449219 18.80517578 C57.92075231 12.78830797 -6.0601229 12.35185333 -69.15087891 15.90966797 Z " fill="#020202" transform="translate(211.1875,1014.8125)"/>
<path d="M0 0 C2.75094716 0.0016832 5.50189094 0.00033382 8.25283813 -0.00088501 C14.1490455 -0.00192779 20.04520821 0.00428478 25.94140434 0.01559067 C34.46604292 0.03192582 42.99066015 0.03706182 51.51531268 0.03956665 C65.34990165 0.04393126 79.18446687 0.05720666 93.01904297 0.07617188 C106.44872927 0.09456276 119.8784091 0.10870351 133.30810547 0.1171875 C134.55225184 0.11797567 134.55225184 0.11797567 135.82153248 0.11877976 C139.9830288 0.12139006 144.14452517 0.12391742 148.30602157 0.12640357 C182.7659618 0.14709759 217.22587383 0.18228925 251.68579102 0.22705078 C250.60783449 9.05104853 250.60783449 9.05104853 249.76196289 12.22460938 C249.58507935 12.89825531 249.4081958 13.57190125 249.22595215 14.26596069 C249.03738647 14.9621048 248.8488208 15.6582489 248.65454102 16.37548828 C248.45856323 17.11409088 248.26258545 17.85269348 248.06066895 18.61367798 C247.64960706 20.15880176 247.23604511 21.70326245 246.82006836 23.24707031 C246.18225333 25.61518572 245.55255012 27.98534835 244.92407227 30.35595703 C244.52219619 31.86259227 244.11986873 33.3691072 243.71704102 34.87548828 C243.52847534 35.58377777 243.33990967 36.29206726 243.14562988 37.02182007 C241.80236562 41.99390157 241.80236562 41.99390157 240.68579102 44.22705078 C137.06579102 44.22705078 33.44579102 44.22705078 -73.31420898 44.22705078 C-70.18849927 28.59850223 -65.70060339 15.67202924 -52.31420898 6.22705078 C-37.1464203 -2.39040084 -16.72701329 -0.04824861 0 0 Z " fill="#000000" transform="translate(2113.314208984375,1083.77294921875)"/>
<path d="M0 0 C1.92972656 0.04833984 1.92972656 0.04833984 3.8984375 0.09765625 C10.52611078 0.39891413 15.44907003 1.33242127 21 5 C21.8353125 5.54269531 22.670625 6.08539062 23.53125 6.64453125 C28.12176675 9.74313006 32.27988471 12.86653856 36 17 C36.50273437 17.54527344 37.00546875 18.09054687 37.5234375 18.65234375 C41.33716217 22.90325149 44.80153824 26.95691975 45.1875 32.875 C45.0946875 33.926875 45.0946875 33.926875 45 35 C41.3519918 34.30348292 38.44955181 32.74199429 35.1875 31 C30.69619993 28.72440797 27.09931278 27.19612741 22 27 C20.77152344 26.9278125 19.54304688 26.855625 18.27734375 26.78125 C13.65658664 26.79923783 10.34299074 28.23056579 6.3125 30.375 C5.61753418 30.73803223 4.92256836 31.10106445 4.20654297 31.47509766 C-14.2285324 41.41661414 -29.75980919 57.54374923 -41.765625 74.51782227 C-45.38757456 79.57120468 -48.94286965 82.98095655 -55 85 C-58.882287 85.35947102 -61.26674697 85.38329136 -64.75 83.5625 C-72.99648794 74.17066652 -73.25662738 55.70626378 -73.4375 43.75 C-73.45965576 42.96447754 -73.48181152 42.17895508 -73.50463867 41.36962891 C-73.48476959 36.113972 -72.4301766 33.18344587 -69 29 C-66.10689422 26.23268143 -63.97341892 24.29625793 -60.125 23.125 C-56.21209407 21.71635386 -53.91863687 19.48914981 -50.9296875 16.65625 C-47.9464087 14.09570302 -45.95985942 13 -42 13 C-41.75121094 12.3915625 -41.50242188 11.783125 -41.24609375 11.15625 C-38.98734408 7.24769259 -34.95706804 5.8948498 -31 4 C-29.84371094 3.40251953 -29.84371094 3.40251953 -28.6640625 2.79296875 C-19.5073416 -1.29433727 -9.7924802 -0.39000179 0 0 Z " fill="#020202" transform="translate(290,1074)"/>
<path d="M0 0 C2.40295603 1.87745868 4.93615791 3.15361684 7.65234375 4.53515625 C11.02006029 6.29544825 13.45665807 7.71461995 15.71484375 10.78515625 C18.55295807 14.25396265 20.70492594 14.41412525 24.96484375 15.53515625 C29.67836295 18.70771725 32.75655552 21.92668506 33.96484375 27.53515625 C35.05142871 37.99353647 32.99606392 48.31513589 30.96484375 58.53515625 C30.72507812 59.74816406 30.4853125 60.96117187 30.23828125 62.2109375 C29.03595961 67.62138488 28.28134771 70.82579061 23.96484375 74.53515625 C20.74267735 76.14623945 17.4590776 75.98750547 13.96484375 75.53515625 C6.6926307 71.97325598 2.01397408 64.87393976 -2.91015625 58.66015625 C-7.07553311 53.41724947 -11.47873406 48.44020149 -16.03515625 43.53515625 C-16.63585937 42.86871094 -17.2365625 42.20226563 -17.85546875 41.515625 C-27.86164515 30.88135528 -44.0439403 17.55177839 -59.16015625 16.78515625 C-66.33847362 17.23740949 -73.51341152 19.83764965 -79.23828125 24.22265625 C-81.03515625 25.53515625 -81.03515625 25.53515625 -83.28515625 25.22265625 C-83.86265625 24.99578125 -84.44015625 24.76890625 -85.03515625 24.53515625 C-83.75105849 15.41476959 -76.9301348 7.32495881 -70.03515625 1.53515625 C-65.77709173 -1.46484375 -65.77709173 -1.46484375 -62.03515625 -1.46484375 C-61.70515625 -2.45484375 -61.37515625 -3.44484375 -61.03515625 -4.46484375 C-57.11036189 -7.50600711 -53.16565527 -8.1720984 -48.34765625 -8.65234375 C-47.60725098 -8.72912354 -46.8668457 -8.80590332 -46.10400391 -8.88500977 C-29.83018801 -10.42960255 -13.24918521 -11.33573614 0 0 Z " fill="#020202" transform="translate(175.03515625,1083.46484375)"/>
<path d="M0 0 C4.4457625 1.22641724 5.82083724 2.34482267 8.625 6 C9.47463879 9.33980354 9.67730055 12.69563633 9.9375 16.125 C12.78226303 42.48326864 29.25767388 65.53320588 48.625 83 C49.36234375 83.58007812 50.0996875 84.16015625 50.859375 84.7578125 C52.94909692 86.4223841 54.87448562 87.98088818 56.625 90 C56.75 93.3125 56.75 93.3125 55.625 96 C52.81582931 98.80917069 50.73878777 98.3134187 46.89550781 98.38012695 C38.10447284 98.36348327 30.57320975 98.20626908 22.625 94 C21.83351563 93.60296875 21.04203125 93.2059375 20.2265625 92.796875 C18.16845392 91.65588849 16.37591638 90.57109253 14.625 89 C13.875 86.3125 13.875 86.3125 13.625 84 C12.29338192 83.32991381 10.95976804 82.66378949 9.625 82 C5.66909299 77.87966654 3.10867347 73.37167168 1.3359375 67.98046875 C0.60625453 65.94778049 -0.32427897 64.1966877 -1.375 62.3125 C-3.72909405 57.76604355 -4.67000451 53.0117408 -5.71484375 48.02734375 C-6.34032023 44.88718271 -6.34032023 44.88718271 -7.5625 41.5 C-8.62617014 36.91803633 -8.4729956 32.57722681 -8.34765625 27.890625 C-8.22762922 24.93004569 -8.22762922 24.93004569 -9.375 22 C-9.99579294 14.61017633 -9.86560942 7.30215167 -4.98046875 1.28125 C-3.375 0 -3.375 0 0 0 Z " fill="#040404" transform="translate(75.375,1167)"/>
<path d="M0 0 C3.60161405 3.47742046 3.9322776 7.36470318 4.1328125 12.20703125 C4.0775288 37.72046073 4.0775288 37.72046073 1 45 C0.66451076 46.93039443 0.37460667 48.8691338 0.125 50.8125 C-0.71131475 56.26877932 -2.25135607 60.23568386 -5 65 C-5.66 65 -6.32 65 -7 65 C-7.04125 65.969375 -7.0825 66.93875 -7.125 67.9375 C-7.83549616 73.05725171 -10.78154778 77.06900488 -14 81 C-14.99 81.66 -15.98 82.32 -17 83 C-17.37125 83.7425 -17.7425 84.485 -18.125 85.25 C-21.80731631 90.65073059 -27.9311847 93.83326627 -34 96 C-39.41032371 97.0208158 -44.81528299 97.15540044 -50.3125 97.25 C-51.01866455 97.27143066 -51.7248291 97.29286133 -52.45239258 97.31494141 C-57.48385617 97.34752313 -57.48385617 97.34752313 -59.9609375 95.6796875 C-61.35765674 93.42183309 -61.45186455 91.59130381 -60.94921875 89.0078125 C-58.73707486 84.32862749 -53.87592951 81.27113725 -50 78 C-36.78230666 65.90116449 -27.28324105 52.32153459 -20 36 C-19.57976562 35.10410156 -19.15953125 34.20820312 -18.7265625 33.28515625 C-15.75946533 26.22435736 -14.98652835 18.82533468 -14.21362305 11.2590332 C-13.44433899 4.59821868 -13.44433899 4.59821868 -11.09375 1.43359375 C-7.17443078 -1.24996997 -4.48999114 -1.21603927 0 0 Z " fill="#030303" transform="translate(355,1168)"/>
</svg>
