<svg xmlns="http://www.w3.org/2000/svg" viewBox="0 0 200 200" fill="currentColor">
  <!-- Ferrari Prancing Horse (Cavallino Rampante) -->
  <g transform="translate(100,100)">
    <!-- Horse body -->
    <path d="M0,-55 C-8,-55 -15,-48 -18,-40 C-22,-30 -20,-18 -15,-8 C-12,-2 -10,4 -8,10 C-6,16 -5,24 -6,32 C-7,38 -9,44 -5,48 C-2,51 3,51 6,48 C10,44 8,38 7,32 C6,24 7,16 9,10 C11,4 13,-2 16,-8 C21,-18 23,-30 19,-40 C16,-48 9,-55 0,-55 Z" opacity="0.95"/>
    <!-- Head -->
    <path d="M0,-55 C-5,-60 -12,-62 -16,-58 C-20,-54 -18,-46 -12,-42 C-8,-39 -4,-40 0,-42 C4,-40 8,-39 12,-42 C18,-46 20,-54 16,-58 C12,-62 5,-60 0,-55 Z" opacity="0.95"/>
    <!-- Front leg -->
    <path d="M-8,28 C-12,36 -16,44 -14,52 C-12,58 -6,60 0,58 C6,60 12,58 14,52 C16,44 12,36 8,28 Z" opacity="0.95"/>
    <!-- Back leg -->
    <path d="M-14,20 C-18,28 -20,38 -18,48 C-16,54 -10,56 -6,52 C-2,48 -2,38 0,30 C2,38 2,48 6,52 C10,56 16,54 18,48 C20,38 18,28 14,20 Z" opacity="0.95"/>
    <!-- Tail -->
    <path d="M14,0 C20,-5 28,-2 32,4 C36,10 32,18 26,20 C22,21 18,18 16,14" fill="none" stroke="currentColor" stroke-width="4" stroke-linecap="round" opacity="0.9"/>
    <!-- Mane -->
    <path d="M-4,-48 C-8,-52 -6,-58 -2,-56 M0,-50 C-2,-55 2,-58 4,-54 M4,-46 C8,-50 10,-44 6,-42" fill="none" stroke="currentColor" stroke-width="3" stroke-linecap="round" opacity="0.8"/>
  </g>
</svg>