<?xml version="1.0" standalone="no"?>
<!DOCTYPE svg PUBLIC "-//W3C//DTD SVG 20010904//EN"
 "http://www.w3.org/TR/2001/REC-SVG-20010904/DTD/svg10.dtd">
<svg version="1.0" xmlns="http://www.w3.org/2000/svg"
 width="600.000000pt" height="200.000000pt" viewBox="0 0 600.000000 200.000000"
 preserveAspectRatio="xMidYMid meet">
<g transform="translate(0.000000,200.000000) scale(0.100000,-0.100000)"
fill="#000000" stroke="none">
<path d="M2830 1975 c-63 -13 -200 -49 -305 -80 -104 -30 -219 -58 -255 -61
-36 -3 -247 1 -470 10 -1098 44 -1624 66 -1710 72 l-95 6 25 -27 c52 -56 106
-71 355 -95 61 -6 380 -33 710 -60 853 -71 953 -82 1030 -114 67 -29 95 -57
181 -189 208 -317 349 -451 632 -603 l72 -39 77 40 c148 77 255 156 368 269
105 106 152 167 285 372 71 110 119 146 224 169 95 20 240 34 1026 100 713 59
884 77 933 99 38 17 94 62 87 69 -3 3 -253 -5 -555 -18 -1326 -57 -1667 -68
-1745 -57 -41 6 -142 32 -225 57 -342 103 -466 119 -645 80z m443 -135 c299
-83 357 -113 357 -187 0 -152 -139 -384 -334 -555 -90 -80 -273 -208 -295
-208 -22 0 -172 103 -270 185 -169 142 -287 303 -336 458 -43 134 -31 182 54
219 56 24 315 101 408 123 112 25 241 14 416 -35z"/>
<path d="M2521 1614 c-46 -58 -8 -134 66 -134 53 0 65 11 61 51 -2 26 -8 35
-25 37 -20 3 -21 0 -16 -32 5 -31 3 -36 -14 -36 -44 0 -69 65 -39 105 10 14
21 17 50 12 27 -4 36 -2 36 9 0 10 -13 14 -49 14 -42 0 -53 -4 -70 -26z"/>
<path d="M2684 1624 c3 -9 6 -45 6 -80 l0 -64 55 0 c30 0 55 5 55 10 0 6 -18
10 -40 10 -36 0 -40 3 -40 25 0 21 5 25 29 25 17 0 33 5 36 10 4 6 -8 10 -29
10 -32 0 -36 3 -36 25 0 22 4 25 35 25 19 0 35 5 35 10 0 6 -25 10 -56 10 -47
0 -55 -3 -50 -16z"/>
<path d="M2830 1563 c3 -48 10 -78 18 -81 8 -2 12 11 12 48 l0 53 41 -52 c58
-73 69 -69 69 29 0 64 -3 80 -15 80 -11 0 -15 -12 -15 -51 l0 -52 -41 52 c-22
28 -48 51 -57 51 -15 0 -16 -10 -12 -77z"/>
<path d="M3008 1560 l4 -80 54 0 c30 0 54 5 54 10 0 6 -16 10 -35 10 -31 0
-35 3 -35 25 0 21 5 25 30 25 17 0 30 5 30 10 0 6 -13 10 -30 10 -25 0 -30 4
-30 25 0 22 4 25 35 25 19 0 35 5 35 10 0 6 -26 10 -57 10 l-58 0 3 -80z"/>
<path d="M3162 1628 c-24 -24 -14 -57 23 -75 22 -11 35 -24 35 -36 0 -17 -5
-19 -35 -14 -26 4 -35 2 -35 -9 0 -9 11 -14 36 -14 83 0 102 52 34 95 -50 32
-51 48 -2 43 20 -1 37 2 37 7 0 15 -78 18 -93 3z"/>
<path d="M3294 1624 c3 -9 6 -45 6 -80 0 -50 3 -64 15 -64 12 0 15 16 15 80 0
75 -1 80 -21 80 -15 0 -19 -4 -15 -16z"/>
<path d="M3382 1628 c-22 -22 -12 -47 29 -73 45 -29 47 -50 3 -50 -38 0 -47
-19 -10 -23 42 -5 74 6 81 27 9 28 -3 47 -41 67 -46 25 -45 48 1 42 24 -3 35
0 35 9 0 17 -81 18 -98 1z"/>
<path d="M170 1742 c0 -5 28 -34 63 -64 192 -168 300 -211 572 -223 437 -19
1146 -56 1183 -61 26 -4 55 -17 70 -31 l27 -24 -574 5 c-316 3 -572 4 -570 2
8 -9 346 -106 439 -126 176 -39 293 -50 566 -50 243 0 263 -1 285 -19 13 -11
22 -22 19 -25 -7 -6 -228 -26 -305 -26 -38 0 -55 -4 -45 -9 20 -11 285 -72
475 -110 215 -42 228 -43 224 -33 -2 5 -31 33 -64 61 -88 77 -154 157 -273
335 -116 173 -152 208 -232 225 -59 13 -236 30 -1110 111 -360 33 -676 63
-702 66 -29 3 -48 2 -48 -4z"/>
<path d="M5610 1729 c-107 -10 -510 -48 -895 -84 -410 -38 -723 -72 -755 -81
-30 -9 -67 -25 -83 -36 -16 -11 -75 -91 -132 -177 -112 -170 -214 -294 -294
-356 -28 -22 -51 -43 -51 -48 0 -8 6 -8 200 29 170 32 500 108 500 114 0 3
-77 11 -170 17 -94 5 -173 13 -177 17 -4 3 1 14 10 24 16 15 53 18 335 23 235
5 340 11 407 24 125 23 330 77 455 119 l105 36 -260 -5 c-509 -10 -869 -8
-873 3 -5 17 38 40 88 46 42 6 535 32 1080 56 253 12 342 24 423 59 61 26 151
88 238 162 67 58 83 80 57 78 -7 -1 -101 -10 -208 -20z"/>
<path d="M1935 425 c-5 -2 -22 -6 -37 -9 -39 -9 -98 -64 -119 -111 -64 -139
40 -305 192 -305 39 0 114 25 148 49 30 22 31 25 31 102 l0 79 -71 0 c-67 0
-70 -1 -67 -22 2 -19 10 -24 46 -26 l43 -3 -3 -42 c-3 -38 -7 -44 -41 -61
-115 -56 -237 14 -237 137 0 104 63 163 164 155 47 -4 62 -10 91 -38 29 -28
37 -31 50 -20 23 19 18 36 -21 68 -45 38 -128 61 -169 47z"/>
<path d="M3501 417 c-46 -16 -76 -58 -76 -108 0 -52 40 -90 118 -113 31 -9 63
-23 71 -32 21 -21 20 -57 -2 -84 -34 -42 -141 -21 -157 31 -8 23 -15 24 -40 5
-18 -13 -18 -15 9 -51 37 -48 87 -69 144 -61 56 8 79 21 102 59 50 82 6 157
-110 187 -54 14 -80 35 -80 65 0 55 85 74 137 31 25 -21 31 -22 47 -11 26 19
5 52 -47 76 -48 21 -69 23 -116 6z"/>
<path d="M4045 412 c-45 -21 -65 -55 -65 -108 0 -46 41 -89 101 -103 75 -19
94 -33 97 -72 4 -48 -25 -74 -81 -73 -35 1 -47 8 -74 39 -29 34 -33 36 -52 23
-20 -14 -20 -15 4 -50 25 -37 85 -68 131 -68 74 0 134 57 134 127 0 59 -34 93
-123 122 -73 25 -92 45 -78 84 17 45 90 52 131 12 24 -23 28 -24 46 -11 15 12
17 19 8 32 -33 55 -115 76 -179 46z"/>
<path d="M2270 215 l0 -205 110 0 110 0 0 25 c0 25 -1 25 -80 25 l-80 0 0 65
0 65 70 0 c68 0 70 1 70 25 0 24 -2 25 -70 25 l-70 0 0 65 0 65 80 0 c79 0 80
0 80 25 l0 25 -110 0 -110 0 0 -205z"/>
<path d="M2610 215 l0 -205 25 0 25 0 0 140 c0 77 3 140 8 140 4 0 68 -65 142
-145 74 -80 138 -145 142 -145 4 0 8 94 8 210 l0 210 -30 0 -30 0 0 -142 -1
-143 -139 143 c-77 78 -142 142 -145 142 -3 0 -5 -92 -5 -205z"/>
<path d="M3100 215 l0 -205 105 0 c105 0 105 0 105 25 0 23 -3 24 -76 27 l-76
3 -1 60 -1 60 72 3 c69 3 72 4 72 27 0 24 -2 25 -70 25 l-70 0 -1 38 c-1 20
-2 48 -3 62 -1 24 1 25 77 28 74 3 77 4 77 27 0 25 0 25 -105 25 l-105 0 0
-205z"/>
<path d="M3800 215 l0 -205 25 0 25 0 0 205 0 205 -25 0 -25 0 0 -205z"/>
</g>
</svg>
