<?xml version="1.0" standalone="no"?>
<!DOCTYPE svg PUBLIC "-//W3C//DTD SVG 20010904//EN"
 "http://www.w3.org/TR/2001/REC-SVG-20010904/DTD/svg10.dtd">
<svg version="1.0" xmlns="http://www.w3.org/2000/svg"
 width="600.000000pt" height="600.000000pt" viewBox="0 0 600.000000 600.000000"
 preserveAspectRatio="xMidYMid meet">
<g transform="translate(0.000000,600.000000) scale(0.100000,-0.100000)"
fill="#000000" stroke="none">
<path d="M0 3000 l0 -3000 1445 0 1445 0 -2 472 -3 473 -45 -3 c-115 -7 -291
-6 -345 1 -77 11 -246 59 -303 85 -139 67 -235 134 -337 237 -49 50 -108 118
-131 151 -48 70 -114 199 -114 223 0 9 -4 21 -9 26 -5 6 -19 48 -31 95 -27
109 -31 377 -6 450 9 25 16 54 16 65 0 11 7 33 15 49 8 15 15 33 15 39 0 20
65 143 114 216 112 165 293 312 486 394 85 37 213 77 243 77 10 0 19 -11 22
-27 4 -16 13 -43 21 -61 21 -48 18 -59 -24 -86 -71 -44 -165 -135 -220 -211
-21 -29 -72 -147 -85 -195 -39 -143 -26 -350 30 -480 54 -126 122 -230 150
-230 16 0 51 29 64 53 8 14 4 26 -18 55 -81 105 -143 285 -143 411 0 219 142
451 338 550 44 22 52 43 31 82 -6 11 -14 41 -19 67 -15 75 -37 165 -49 195 -6
16 -11 37 -11 49 0 11 -18 40 -40 65 -42 48 -70 124 -70 190 0 39 24 118 42
140 5 7 8 17 6 23 -2 6 -159 11 -463 13 -253 1 -466 6 -473 10 -10 7 -12 126
-12 558 1 645 2 658 89 737 65 60 106 76 201 76 118 -1 181 -35 246 -134 27
-40 29 -50 29 -139 0 -94 -1 -97 -37 -151 -38 -57 -121 -120 -157 -120 -16 0
-20 -8 -23 -37 l-3 -38 -98 -3 c-77 -2 -99 -6 -104 -18 -3 -8 2 -66 11 -127 9
-62 23 -157 32 -212 8 -55 14 -119 14 -141 0 -62 9 -63 175 -13 17 5 57 13 90
18 33 5 87 14 120 20 191 33 461 39 579 12 60 -13 78 -3 66 37 -5 15 -13 43
-19 63 -17 56 -14 69 19 76 17 3 30 12 30 19 0 11 -26 14 -129 14 -151 0 -167
7 -157 70 4 28 1 40 -15 53 -16 14 -19 25 -14 48 5 23 2 34 -10 43 -18 13 -13
56 6 56 19 0 8 20 -20 34 -43 23 -44 40 -6 97 32 46 35 57 35 123 0 95 26 167
84 232 57 65 145 109 236 119 36 3 70 11 77 17 10 8 13 114 13 479 l0 469
-1445 0 -1445 0 0 -3000z"/>
<path d="M2945 5533 l0 -467 28 -10 c19 -7 33 -7 45 0 16 10 17 51 20 478 l2
466 -47 0 -48 0 0 -467z"/>
<path d="M3098 5539 c-2 -367 0 -466 10 -480 13 -18 40 -19 651 -19 665 0 676
-1 651 -40 -6 -8 -10 -23 -10 -34 0 -17 -55 -97 -73 -104 -4 -2 -13 -10 -21
-17 -34 -35 -94 -39 -529 -40 -464 -1 -465 -1 -436 -53 l15 -27 384 -2 c212
-1 397 -2 413 -3 31 0 34 -14 15 -69 -19 -55 -75 -119 -123 -141 -41 -19 -66
-20 -364 -20 l-320 0 -16 -31 c-31 -60 -35 -59 294 -59 197 0 302 -4 306 -10
13 -21 -30 -113 -70 -153 -72 -71 -107 -77 -437 -77 -177 0 -289 -4 -293 -10
-3 -5 1 -33 11 -62 9 -29 22 -71 29 -93 11 -37 15 -40 46 -38 19 1 57 6 84 12
61 12 228 13 310 1 33 -5 102 -14 153 -19 51 -6 101 -15 112 -21 10 -5 32 -10
48 -10 15 0 51 -6 78 -13 131 -37 205 -50 215 -40 5 5 14 48 19 94 5 46 11 91
14 99 3 8 10 53 15 100 5 47 15 117 22 156 l12 70 -56 59 c-31 33 -57 65 -57
72 0 8 11 18 24 24 18 8 30 7 54 -5 53 -27 56 -24 75 87 9 56 17 114 17 128 0
32 40 72 63 63 16 -6 17 -55 17 -575 0 -447 -3 -571 -12 -574 -7 -2 -184 -5
-393 -7 l-380 -4 -42 -26 c-23 -15 -52 -42 -65 -60 -24 -33 -68 -157 -68 -190
0 -9 -4 -19 -9 -22 -4 -3 -11 -24 -15 -46 -3 -23 -10 -49 -15 -58 -5 -9 -14
-37 -20 -62 -11 -44 -25 -92 -57 -195 -8 -27 -19 -69 -24 -93 l-10 -43 108
-107 c117 -116 168 -185 224 -302 90 -189 102 -242 102 -450 0 -148 -4 -187
-22 -250 -40 -143 -75 -217 -154 -335 -72 -109 -251 -276 -338 -318 -8 -4 -46
-24 -85 -45 l-70 -37 -3 -508 -2 -507 1450 0 1450 0 0 3000 0 3000 -1450 0
-1450 0 -2 -461z m1351 -2454 c8 -45 -35 -198 -86 -299 -50 -100 -84 -139
-179 -201 -46 -31 -84 -57 -84 -60 0 -2 25 -15 56 -30 65 -31 160 -123 191
-186 39 -79 53 -117 53 -141 1 -12 7 -50 15 -83 9 -35 15 -110 15 -182 0 -116
-7 -144 -27 -109 -36 62 -270 302 -364 373 -36 27 -95 66 -131 86 -55 31 -68
43 -74 70 -8 38 -23 74 -81 191 -53 107 -158 250 -243 329 -34 32 -59 63 -57
70 5 15 108 13 138 -4 37 -19 300 -16 385 5 145 36 270 86 379 153 74 45 88
48 94 18z"/>
<path d="M1756 4914 c-59 -22 -105 -85 -106 -146 0 -84 49 -147 134 -170 80
-21 151 17 187 100 23 52 24 78 5 123 -18 44 -57 79 -104 96 -45 15 -65 15
-116 -3z"/>
<path d="M2967 960 l-25 -20 1 -457 c0 -252 2 -464 5 -470 2 -8 22 -13 48 -13
l44 0 0 490 0 490 -24 0 c-13 0 -35 -9 -49 -20z"/>
</g>
</svg>
