<?xml version="1.0" standalone="no"?>
<!DOCTYPE svg PUBLIC "-//W3C//DTD SVG 20010904//EN"
 "http://www.w3.org/TR/2001/REC-SVG-20010904/DTD/svg10.dtd">
<svg version="1.0" xmlns="http://www.w3.org/2000/svg"
 width="600.000000pt" height="448.000000pt" viewBox="0 0 600.000000 448.000000"
 preserveAspectRatio="xMidYMid meet">
<g transform="translate(0.000000,448.000000) scale(0.100000,-0.100000)"
fill="#000000" stroke="none">
<path d="M2870 4339 c-391 -19 -797 -208 -1063 -495 -91 -99 -112 -125 -179
-225 -133 -198 -216 -401 -252 -619 -30 -175 -32 -280 -12 -485 40 -401 237
-770 570 -1065 130 -115 199 -161 377 -249 137 -68 296 -125 440 -156 106 -22
379 -23 514 0 243 40 493 139 653 258 225 167 388 366 524 639 64 130 115 289
144 453 27 152 25 425 -3 573 -87 449 -356 858 -728 1107 -120 81 -236 138
-376 185 -206 69 -366 90 -609 79z m416 -47 c400 -87 703 -288 983 -650 99
-129 228 -406 270 -582 11 -45 28 -142 37 -215 15 -113 15 -146 5 -236 -7 -57
-12 -126 -12 -154 0 -33 -3 -43 -8 -31 -10 25 -45 -131 -43 -189 1 -28 -1 -36
-8 -25 -8 13 -9 13 -14 0 -2 -8 -7 -23 -10 -32 -3 -10 -1 -20 4 -23 16 -10 12
-22 -8 -27 -12 -3 -22 -22 -29 -54 -20 -87 -116 -271 -196 -375 -15 -20 -27
-40 -27 -45 0 -6 -16 -28 -36 -50 -20 -21 -50 -57 -67 -78 -44 -56 -207 -195
-222 -190 -6 3 -25 -8 -42 -23 -16 -16 -46 -37 -67 -48 -20 -11 -36 -23 -36
-27 0 -4 -6 -5 -13 -2 -7 2 -29 -6 -49 -20 -20 -13 -53 -29 -74 -36 -22 -7
-59 -20 -84 -30 -173 -67 -281 -85 -505 -84 -251 0 -335 15 -555 98 -226 86
-384 185 -552 343 -117 110 -148 146 -274 318 -77 104 -96 142 -165 331 -66
183 -76 220 -89 343 -21 195 -17 369 14 531 15 79 31 147 36 150 4 3 26 52 48
110 70 182 120 274 228 417 52 70 268 287 272 274 4 -13 112 59 112 75 0 6 19
21 43 34 23 14 56 33 72 42 103 62 341 146 470 167 39 6 81 13 95 15 14 3 111
3 215 1 141 -2 213 -8 281 -23z m1271 -1914 c-3 -8 -6 -5 -6 6 -1 11 2 17 5
13 3 -3 4 -12 1 -19z m-20 -105 c-4 -3 -7 0 -7 7 0 7 3 10 7 7 3 -4 3 -10 0
-14z m-30 -110 c-4 -3 -7 0 -7 7 0 7 3 10 7 7 3 -4 3 -10 0 -14z m-26 -80
c-12 -20 -14 -14 -5 12 4 9 9 14 11 11 3 -2 0 -13 -6 -23z"/>
<path d="M3017 4243 c-4 -3 -7 -28 -7 -54 0 -47 1 -48 34 -54 18 -4 44 -5 57
-2 17 3 13 5 -13 6 -50 2 -68 10 -68 31 0 14 9 20 33 23 l32 4 -32 1 c-25 2
-33 6 -33 21 0 17 8 21 53 24 l52 3 -51 2 c-28 1 -54 -1 -57 -5z"/>
<path d="M2731 4188 c17 -59 12 -61 -60 -21 -38 21 -73 35 -76 31 -9 -9 16
-119 25 -113 5 3 3 23 -2 45 -6 23 -8 43 -6 46 3 3 33 -11 66 -31 33 -19 66
-35 72 -35 12 0 7 40 -11 88 -13 34 -19 26 -8 -10z"/>
<path d="M3388 4183 c6 -2 18 -2 25 0 6 3 1 5 -13 5 -14 0 -19 -2 -12 -5z"/>
<path d="M3463 4163 c4 -3 10 -3 14 0 3 4 0 7 -7 7 -7 0 -10 -3 -7 -7z"/>
<path d="M3393 4133 c4 -3 10 -3 14 0 3 4 0 7 -7 7 -7 0 -10 -3 -7 -7z"/>
<path d="M3423 4123 c4 -3 10 -3 14 0 3 4 0 7 -7 7 -7 0 -10 -3 -7 -7z"/>
<path d="M3453 4113 c4 -3 10 -3 14 0 3 4 0 7 -7 7 -7 0 -10 -3 -7 -7z"/>
<path d="M2310 4085 c0 -3 11 -23 25 -45 29 -46 27 -46 -63 -24 -83 21 -93 12
-55 -55 17 -28 33 -48 36 -45 3 4 -5 26 -19 50 -14 24 -22 44 -17 44 4 0 41
-7 80 -17 40 -9 75 -14 79 -10 7 7 -46 107 -58 107 -4 0 -8 -2 -8 -5z"/>
<path d="M2870 4070 c-597 -56 -1124 -559 -1216 -1162 -21 -138 -14 -377 14
-503 43 -188 117 -353 225 -499 73 -98 227 -253 322 -324 85 -63 303 -173 403
-202 396 -116 779 -58 1122 168 109 73 288 252 361 362 115 172 193 360 223
535 21 116 20 337 0 473 -73 497 -432 931 -899 1087 -165 56 -383 81 -555 65z
m1182 -660 c7 0 9 -34 6 -102 -5 -83 -13 -125 -44 -218 -41 -124 -153 -357
-259 -540 -37 -63 -100 -171 -139 -240 -105 -182 -142 -237 -200 -297 -58 -59
-91 -68 -126 -33 -14 14 -20 33 -20 67 0 50 58 247 141 476 28 75 49 149 47
164 -4 39 -47 47 -182 34 -652 -61 -892 -107 -967 -187 -22 -23 -24 -34 -24
-122 0 -162 26 -183 170 -143 38 11 72 17 75 14 8 -8 -147 -149 -210 -191 -63
-42 -140 -71 -189 -72 -47 0 -112 40 -137 87 -31 56 -44 119 -49 245 -5 100
-8 115 -31 145 -13 18 -45 44 -69 59 -25 14 -45 32 -45 39 0 7 33 38 74 68
l73 55 37 104 c19 57 61 180 91 274 58 180 91 241 145 269 39 20 175 37 270
33 70 -3 75 -5 78 -27 2 -14 -45 -122 -128 -293 -73 -149 -133 -284 -134 -301
l-1 -30 60 2 c33 1 121 6 195 11 74 5 270 19 435 30 496 33 523 36 540 50 30
25 64 95 100 205 38 119 43 160 20 192 -15 21 -13 23 41 62 94 67 277 130 332
115 8 -2 18 -4 24 -4z"/>
<path d="M3403 4073 c4 -3 10 -3 14 0 3 4 0 7 -7 7 -7 0 -10 -3 -7 -7z"/>
<path d="M3453 4063 c4 -3 10 -3 14 0 3 4 0 7 -7 7 -7 0 -10 -3 -7 -7z"/>
<path d="M3755 3970 c3 -5 8 -10 11 -10 3 0 2 5 -1 10 -3 6 -8 10 -11 10 -3 0
-2 -4 1 -10z"/>
<path d="M1912 3797 l-42 -43 45 -44 45 -44 45 44 c24 24 42 46 40 49 -3 2
-23 -12 -44 -33 -33 -33 -39 -35 -51 -21 -11 13 -9 20 11 43 13 15 27 28 32
30 4 2 7 9 7 15 0 6 -18 -6 -39 -27 -36 -36 -61 -41 -61 -13 0 6 17 28 37 49
20 21 33 38 27 38 -5 0 -29 -19 -52 -43z"/>
<path d="M4015 3740 c-10 -11 -15 -23 -12 -27 4 -3 7 -1 7 6 0 6 10 15 22 20
12 4 17 11 11 14 -6 4 -18 -2 -28 -13z"/>
<path d="M1699 3489 l24 -20 -26 -47 c-26 -46 -35 -51 -69 -37 -10 4 -18 3
-18 -2 0 -5 25 -21 55 -36 54 -26 76 -23 34 5 l-21 14 28 47 c30 48 38 53 64
38 8 -6 18 -7 23 -4 10 6 -85 63 -105 63 -7 -1 -2 -10 11 -21z"/>
<path d="M4270 3411 c0 -5 9 -11 21 -14 16 -4 18 -3 8 9 -13 16 -29 19 -29 5z"/>
<path d="M4400 2223 c-16 -50 -26 -59 -45 -43 -8 7 -18 10 -21 7 -5 -5 86 -57
100 -57 7 0 39 101 33 106 -3 3 -10 -12 -17 -33 -16 -48 -22 -54 -40 -43 -12
7 -12 16 -3 52 14 54 9 62 -7 11z"/>
<path d="M4340 2210 c0 -7 3 -10 7 -7 3 4 3 10 0 14 -4 3 -7 0 -7 -7z"/>
<path d="M1603 2124 c-24 -14 -43 -27 -43 -30 0 -9 55 9 68 23 7 7 20 13 28
13 8 0 14 5 14 10 0 17 -23 11 -67 -16z"/>
<path d="M1676 2107 c3 -10 9 -15 12 -12 3 3 0 11 -7 18 -10 9 -11 8 -5 -6z"/>
<path d="M1692 2024 c-7 -8 -17 -12 -23 -9 -5 4 -9 1 -9 -4 0 -6 6 -11 13 -11
19 0 40 17 36 28 -2 6 -9 4 -17 -4z"/>
<path d="M4215 1950 c-34 -53 -32 -74 11 -106 43 -33 54 -28 92 38 26 46 26
48 9 65 -18 17 -18 17 -12 -9 5 -19 1 -38 -15 -63 -12 -19 -24 -35 -27 -35
-16 0 -73 44 -73 56 0 21 38 78 57 86 17 6 17 7 1 7 -10 1 -29 -16 -43 -39z"/>
<path d="M1792 1805 c-18 -19 -32 -40 -32 -47 0 -7 7 -2 16 10 9 13 22 21 30
18 8 -3 13 -2 13 2 -7 43 28 42 61 -2 14 -19 27 -33 29 -31 6 7 -62 85 -74 85
-7 0 -26 -16 -43 -35z"/>
<path d="M4078 1687 c18 -18 32 -36 32 -40 0 -3 -32 -7 -72 -9 -39 -2 -73 -7
-74 -13 -4 -14 74 -101 82 -92 4 4 -7 22 -24 40 -18 18 -32 36 -32 40 0 3 32
7 72 9 39 2 73 8 75 14 4 12 -65 84 -81 84 -5 0 4 -15 22 -33z"/>
<path d="M2045 1563 c-30 -45 -31 -53 -6 -46 29 7 93 -54 85 -81 -3 -12 5 -4
20 17 14 21 26 44 26 51 0 7 -22 32 -50 55 l-49 41 -26 -37z m79 -17 c27 -23
37 -39 33 -50 -10 -25 -39 -19 -75 15 -26 25 -30 33 -22 50 14 25 18 24 64
-15z"/>
<path d="M3745 1460 c-4 -6 -3 -44 1 -83 4 -45 9 -64 13 -49 7 28 77 71 104
64 48 -12 -18 36 -105 76 -3 2 -9 -2 -13 -8z m54 -38 l22 -17 -30 -18 -31 -18
0 35 c0 40 8 44 39 18z"/>
<path d="M2344 1344 c-9 -30 -13 -58 -10 -61 3 -3 8 6 12 21 7 31 11 31 53 10
18 -9 34 -14 37 -12 2 3 -14 13 -36 23 -40 18 -52 41 -26 51 8 3 28 -2 45 -10
16 -9 36 -16 43 -16 7 0 -11 11 -40 25 -30 14 -56 25 -58 25 -2 0 -11 -25 -20
-56z"/>
<path d="M3491 1318 c-5 -13 -12 -42 -16 -65 -4 -24 -9 -43 -11 -43 -3 0 -27
18 -55 40 -76 60 -87 54 -56 -28 23 -64 25 -67 32 -60 3 3 -2 24 -10 48 -8 24
-14 44 -12 46 1 2 22 -13 47 -32 24 -19 48 -33 54 -31 6 2 18 30 27 62 16 62
19 62 38 3 7 -21 17 -38 23 -38 6 0 7 8 3 18 -4 9 -14 36 -22 60 -17 47 -29
53 -42 20z"/>
<path d="M2656 1264 c-3 -9 -6 -35 -6 -59 0 -51 10 -59 87 -70 45 -6 53 -4 62
14 13 23 14 80 2 99 -18 29 -135 42 -145 16z m83 -5 c55 -11 67 -28 55 -76 -9
-38 -19 -42 -67 -31 -49 11 -67 24 -67 49 0 20 17 69 24 69 3 0 28 -5 55 -11z"/>
<path d="M3026 1243 c-16 -4 -17 -11 -11 -61 4 -32 11 -61 17 -67 7 -7 9 -2 4
16 -5 24 -2 27 25 33 54 11 69 7 79 -19 5 -14 12 -25 14 -25 9 0 -8 115 -18
122 -12 8 -79 9 -110 1z m109 -38 c0 -17 -8 -20 -52 -23 -51 -3 -53 -2 -53 23
0 25 2 26 53 23 44 -3 52 -6 52 -23z"/>
<path d="M1253 640 c-45 -10 -86 -39 -79 -55 8 -21 -23 -104 -43 -114 -9 -5
-96 -12 -194 -16 l-178 -7 14 33 c8 19 26 59 40 90 14 31 23 60 20 63 -10 10
-83 7 -103 -4 -13 -7 -29 -41 -45 -95 -19 -61 -34 -90 -53 -106 l-27 -21 23
-15 c15 -11 22 -25 22 -48 0 -51 19 -94 45 -101 27 -7 85 18 111 47 18 20 18
20 -11 17 -29 -3 -30 -1 -33 38 -3 37 0 42 25 52 59 24 323 42 323 23 0 -6
-13 -45 -30 -88 -35 -91 -38 -123 -11 -123 22 0 51 36 124 157 67 110 96 175
104 229 6 48 0 53 -44 44z"/>
<path d="M3245 500 c-59 -15 -86 -30 -135 -76 -60 -56 -115 -69 -148 -36 -47
47 -67 54 -126 43 -30 -6 -87 -24 -127 -41 -39 -16 -76 -30 -81 -30 -6 0 8 20
31 45 53 57 53 75 2 75 -46 0 -75 -9 -207 -66 -56 -24 -111 -44 -122 -44 -10
0 -37 14 -58 31 -36 29 -43 31 -99 26 -41 -3 -86 -16 -139 -41 -44 -20 -82
-34 -84 -31 -3 3 11 22 31 43 20 21 37 46 37 55 0 44 -70 31 -246 -45 -141
-60 -243 -84 -281 -66 -14 7 -25 17 -25 23 0 5 31 20 69 32 130 44 166 103 62
103 -85 0 -157 -28 -210 -82 -29 -29 -61 -50 -85 -57 -45 -12 -89 -40 -64 -40
8 -1 37 5 65 12 47 12 51 12 67 -7 14 -19 27 -21 110 -20 101 1 176 17 301 66
42 17 80 28 83 25 4 -3 -8 -27 -25 -53 -17 -26 -31 -52 -31 -57 0 -18 85 0
175 37 150 62 158 63 207 30 60 -42 116 -39 243 12 55 23 102 37 104 32 1 -5
-9 -26 -23 -47 -14 -20 -26 -45 -26 -55 0 -16 6 -18 43 -12 23 4 87 27 141 53
113 51 155 57 188 26 40 -38 69 -43 142 -26 63 14 68 14 88 -3 14 -14 40 -20
96 -23 94 -4 151 8 320 70 74 27 138 49 143 49 12 0 11 -37 -1 -60 -8 -15 -17
-18 -39 -14 -49 10 -66 -52 -21 -76 24 -13 88 5 300 84 96 37 181 66 187 66
15 0 16 -19 3 -54 -8 -23 -12 -25 -34 -14 -31 13 -56 -3 -56 -36 0 -58 51 -59
204 -5 l115 41 30 -23 c58 -43 181 -40 311 7 81 29 80 29 80 6 0 -52 42 -53
175 -7 55 20 108 38 118 41 24 9 21 -10 -9 -56 -21 -32 -55 -56 -155 -113 -71
-39 -127 -76 -125 -82 5 -17 78 -5 130 21 27 14 88 50 135 81 52 35 135 76
211 106 132 51 186 83 120 71 -19 -3 -72 -21 -117 -39 -46 -18 -83 -31 -83
-29 0 2 18 27 40 56 73 96 49 101 -136 25 -151 -63 -184 -73 -184 -55 0 7 7
22 15 32 8 11 15 26 15 33 0 23 -72 14 -139 -18 -76 -35 -192 -69 -238 -69
-33 0 -83 18 -83 30 0 4 19 13 43 20 52 15 139 59 149 74 19 29 7 36 -57 36
-84 0 -157 -28 -210 -80 -28 -28 -62 -47 -113 -64 -39 -14 -72 -23 -72 -20 0
3 13 22 29 42 41 51 53 85 37 107 -19 26 -64 15 -274 -71 -101 -42 -190 -74
-198 -72 -12 2 -9 12 15 43 36 47 40 89 11 105 -25 14 -28 13 -225 -66 -180
-71 -279 -98 -331 -88 -64 12 -53 30 36 57 72 22 120 52 120 76 0 28 -67 39
-135 21z m1252 -55 c-24 -21 -77 -35 -77 -20 0 8 74 44 90 44 10 0 5 -8 -13
-24z m-1217 6 c0 -11 -62 -41 -85 -41 -15 0 -15 2 -4 16 22 27 89 46 89 25z
m-1730 -10 c0 -7 -70 -41 -85 -41 -16 0 0 19 28 33 37 18 57 21 57 8z"/>
</g>
</svg>
