<?xml version="1.0" standalone="no"?>
<!DOCTYPE svg PUBLIC "-//W3C//DTD SVG 20010904//EN"
 "http://www.w3.org/TR/2001/REC-SVG-20010904/DTD/svg10.dtd">
<svg version="1.0" xmlns="http://www.w3.org/2000/svg"
 width="600.000000pt" height="338.000000pt" viewBox="0 0 600.000000 338.000000"
 preserveAspectRatio="xMidYMid meet">
<g transform="translate(0.000000,338.000000) scale(0.100000,-0.100000)"
fill="#000000" stroke="none">
<path d="M2685 3264 c-319 -16 -570 -43 -650 -70 -22 -8 -29 -11 -15 -9 227
47 534 69 985 69 581 0 867 -28 1100 -108 11 -4 8 0 -6 8 -66 39 -271 76 -529
96 -136 11 -756 21 -885 14z"/>
<path d="M1893 3146 c-225 -108 -287 -275 -286 -766 2 -480 72 -941 168 -1106
135 -230 445 -294 1365 -281 524 8 742 34 895 107 167 80 240 197 294 470 52
260 75 568 68 905 -3 185 -9 269 -22 325 -31 135 -89 236 -169 292 -18 13 -9
1 22 -30 61 -60 104 -144 130 -253 25 -107 24 -649 -1 -864 -22 -184 -59 -387
-88 -480 -104 -343 -316 -410 -1284 -409 -718 1 -967 41 -1115 180 -115 108
-165 275 -222 749 -8 70 -13 228 -13 430 0 355 8 422 66 537 52 103 108 151
237 204 32 13 50 24 42 24 -9 0 -48 -15 -87 -34z"/>
<path d="M2615 3170 c-675 -37 -820 -111 -877 -447 -19 -117 -16 -635 5 -830
33 -298 82 -506 137 -583 32 -45 32 -37 0 22 -19 34 -26 56 -19 64 6 7 -2 65
-21 160 -39 194 -59 364 -69 600 -8 178 0 428 13 441 3 4 7 -90 7 -208 1 -118
4 -257 8 -309 4 -52 6 38 3 200 -6 382 10 519 71 621 42 69 100 112 190 141
39 12 86 33 103 45 37 27 164 57 169 39 2 -6 11 -49 20 -96 60 -308 193 -848
236 -961 69 -181 180 -236 451 -226 127 4 218 23 233 48 3 4 -11 1 -32 -9 -32
-14 -71 -17 -238 -17 -185 0 -204 2 -248 22 -35 17 -51 31 -62 57 -18 43 -19
52 -2 38 18 -15 116 -42 151 -42 29 0 28 2 -19 24 -129 60 -164 146 -348 852
l-73 282 50 6 c28 3 119 8 201 11 83 3 182 7 222 10 82 5 603 -11 678 -21 l51
-6 -78 -297 c-111 -427 -136 -514 -180 -627 -52 -136 -105 -196 -198 -225 -24
-7 -24 -7 6 -8 42 -1 116 22 153 48 30 21 31 22 31 3 0 -11 -11 -36 -25 -56
-22 -32 -22 -35 -5 -26 88 47 158 261 300 922 34 155 63 288 65 295 6 17 121
-12 165 -41 20 -13 62 -31 95 -40 154 -44 220 -123 251 -298 19 -102 24 -453
12 -718 l-6 -145 13 135 c7 74 14 232 15 350 1 165 4 207 12 180 7 -22 8 -138
5 -315 -5 -301 -25 -487 -73 -702 -14 -63 -22 -123 -18 -137 4 -18 -2 -40 -20
-72 -14 -25 -20 -41 -12 -35 22 19 66 126 90 224 54 211 80 493 80 847 0 363
-17 475 -92 588 -108 165 -366 218 -1097 227 -181 2 -397 0 -480 -5z"/>
<path d="M4130 3136 c0 -3 9 -10 20 -16 11 -6 20 -8 20 -6 0 3 -9 10 -20 16
-11 6 -20 8 -20 6z"/>
<path d="M2172 3073 l-24 -18 11 -270 c28 -682 102 -1562 135 -1604 19 -24
111 -59 173 -66 50 -6 66 -4 101 14 23 12 42 27 42 34 0 6 25 91 56 187 66
203 89 236 184 264 71 21 238 21 309 0 98 -29 126 -74 207 -338 37 -123 40
-129 76 -147 48 -24 90 -24 173 2 99 30 109 45 123 167 57 499 88 924 112
1517 8 205 7 242 -5 254 -8 8 -17 13 -20 10 -2 -3 -9 -90 -15 -195 -6 -104
-15 -234 -20 -289 -5 -55 -12 -128 -15 -162 -19 -212 -56 -459 -96 -637 -25
-115 -56 -233 -71 -271 -14 -36 -67 -121 -97 -154 -11 -13 -21 -28 -21 -34 0
-5 -9 -7 -20 -4 -17 4 -19 1 -14 -19 3 -13 4 -24 1 -24 -3 0 -22 51 -42 113
-86 269 -136 307 -410 307 -154 0 -232 -16 -283 -57 -50 -41 -74 -86 -124
-236 -23 -71 -44 -123 -47 -116 -5 16 -31 44 -31 34 0 -4 -13 6 -29 21 -81 81
-147 283 -211 644 -35 204 -49 348 -65 705 -19 434 -14 392 -43 368z m1057
-1428 c50 -29 52 -46 3 -30 -85 30 -283 34 -437 9 -38 -6 -39 -5 -23 11 26 28
79 34 258 32 145 -2 170 -5 199 -22z"/>
<path d="M2938 1933 c34 -2 90 -2 125 0 34 2 6 3 -63 3 -69 0 -97 -1 -62 -3z"/>
<path d="M4176 1799 c-4 -39 -5 -73 -3 -76 3 -2 8 28 12 67 4 39 5 73 2 76 -2
3 -8 -27 -11 -67z"/>
<path d="M1822 1815 c0 -16 2 -22 5 -12 2 9 2 23 0 30 -3 6 -5 -1 -5 -18z"/>
<path d="M1832 1740 c0 -14 2 -19 5 -12 2 6 2 18 0 25 -3 6 -5 1 -5 -13z"/>
<path d="M4162 1690 c0 -14 2 -19 5 -12 2 6 2 18 0 25 -3 6 -5 1 -5 -13z"/>
<path d="M1841 1674 c0 -11 3 -14 6 -6 3 7 2 16 -1 19 -3 4 -6 -2 -5 -13z"/>
<path d="M1851 1624 c0 -11 3 -14 6 -6 3 7 2 16 -1 19 -3 4 -6 -2 -5 -13z"/>
<path d="M1860 1580 c0 -7 3 -10 7 -7 3 4 3 10 0 14 -4 3 -7 0 -7 -7z"/>
<path d="M1890 1450 c0 -7 3 -10 7 -7 3 4 3 10 0 14 -4 3 -7 0 -7 -7z"/>
<path d="M2550 1330 c0 -7 3 -10 7 -7 3 4 3 10 0 14 -4 3 -7 0 -7 -7z"/>
<path d="M1925 1250 c10 -11 20 -20 23 -20 3 0 -3 9 -13 20 -10 11 -20 20 -23
20 -3 0 3 -9 13 -20z"/>
<path d="M4064 1238 c-4 -7 -3 -8 4 -4 12 7 16 16 8 16 -3 0 -8 -5 -12 -12z"/>
<path d="M2160 1186 c0 -6 88 -35 127 -42 26 -5 27 -4 8 9 -11 8 -38 17 -60
21 -22 4 -48 9 -57 12 -10 3 -18 3 -18 0z"/>
<path d="M3833 1183 c4 -3 10 -3 14 0 3 4 0 7 -7 7 -7 0 -10 -3 -7 -7z"/>
<path d="M3964 1174 c-18 -14 -18 -15 4 -4 12 6 22 13 22 15 0 8 -5 6 -26 -11z"/>
<path d="M3760 1173 c-13 -3 -33 -11 -43 -18 -17 -12 -14 -13 24 -8 24 3 45 9
47 13 1 3 17 5 35 3 26 -3 28 -1 12 6 -21 10 -36 11 -75 4z"/>
<path d="M3913 1153 c4 -3 10 -3 14 0 3 4 0 7 -7 7 -7 0 -10 -3 -7 -7z"/>
<path d="M2113 1143 c4 -3 10 -3 14 0 3 4 0 7 -7 7 -7 0 -10 -3 -7 -7z"/>
<path d="M3883 1143 c4 -3 10 -3 14 0 3 4 0 7 -7 7 -7 0 -10 -3 -7 -7z"/>
<path d="M2598 1129 c-16 -10 95 -15 385 -18 254 -2 443 6 431 18 -8 8 -803 8
-816 0z"/>
<path d="M3848 1133 c7 -3 16 -2 19 1 4 3 -2 6 -13 5 -11 0 -14 -3 -6 -6z"/>
<path d="M3788 1123 c6 -2 18 -2 25 0 6 3 1 5 -13 5 -14 0 -19 -2 -12 -5z"/>
<path d="M2253 1113 c9 -2 23 -2 30 0 6 3 -1 5 -18 5 -16 0 -22 -2 -12 -5z"/>
<path d="M3733 1113 c9 -2 23 -2 30 0 6 3 -1 5 -18 5 -16 0 -22 -2 -12 -5z"/>
<path d="M2338 1103 c12 -2 32 -2 45 0 12 2 2 4 -23 4 -25 0 -35 -2 -22 -4z"/>
<path d="M3623 1103 c15 -2 39 -2 55 0 15 2 2 4 -28 4 -30 0 -43 -2 -27 -4z"/>
<path d="M2520 1088 c123 -9 835 -9 965 0 55 4 -161 7 -480 7 -319 0 -537 -3
-485 -7z"/>
<path d="M1863 610 c-189 -34 -303 -139 -303 -279 0 -31 5 -73 11 -95 13 -49
80 -121 139 -151 139 -71 385 -81 557 -24 86 28 145 76 178 144 24 48 27 64
24 134 -4 69 -8 85 -34 122 -76 108 -178 148 -385 154 -74 2 -158 0 -187 -5z
m278 -116 c49 -28 79 -93 79 -171 0 -85 -21 -132 -73 -167 -40 -26 -47 -27
-139 -24 -108 3 -136 16 -173 79 -29 50 -28 180 2 229 39 62 86 81 194 76 53
-2 87 -8 110 -22z"/>
<path d="M510 566 c0 -32 1 -33 53 -42 l52 -9 3 -184 c1 -114 -1 -188 -8 -195
-5 -5 -29 -12 -52 -15 -41 -6 -43 -8 -46 -43 l-3 -38 226 0 226 0 -3 37 c-3
37 -4 38 -46 41 -55 4 -74 31 -70 99 l3 48 175 0 175 0 0 -62 c0 -34 -4 -65
-8 -69 -4 -5 -29 -11 -55 -14 -46 -5 -47 -6 -50 -43 l-3 -37 225 0 226 0 0 40
c0 39 -1 40 -36 40 -74 0 -74 -1 -74 199 0 198 -1 196 68 207 40 6 42 8 42 40
l0 34 -225 0 -225 0 0 -34 c0 -33 1 -34 50 -41 59 -8 70 -22 70 -94 l0 -50
-147 -3 c-82 -2 -163 -2 -180 0 -32 3 -33 4 -33 53 0 72 11 87 70 95 49 6 50
7 50 40 l0 34 -225 0 -225 0 0 -34z"/>
<path d="M2510 566 c0 -32 2 -34 45 -40 29 -5 49 -14 55 -26 6 -10 10 -93 10
-184 0 -187 -3 -196 -71 -196 -39 0 -39 0 -39 -40 l0 -41 173 3 172 3 3 37 3
38 -44 0 c-26 0 -49 6 -56 14 -8 9 -11 63 -9 169 l3 155 153 -204 c132 -175
158 -204 185 -209 18 -3 88 -5 157 -3 l125 3 3 224 c1 140 6 229 13 237 6 7
31 16 55 20 42 6 44 8 44 40 l0 34 -175 0 -175 0 0 -34 c0 -32 2 -34 45 -40
29 -5 49 -14 55 -26 12 -22 14 -310 2 -310 -4 0 -12 8 -19 19 -24 39 -276 367
-291 379 -12 9 -71 12 -219 12 l-203 0 0 -34z"/>
<path d="M3540 566 c0 -32 2 -34 41 -39 23 -3 47 -10 53 -17 16 -16 19 -328 3
-360 -10 -20 -22 -26 -57 -30 -44 -5 -45 -6 -45 -40 l0 -35 275 -3 c386 -4
486 12 568 91 122 116 100 329 -41 411 -86 50 -139 56 -481 56 l-316 0 0 -34z
m583 -80 c60 -25 72 -48 75 -150 2 -72 -1 -98 -15 -126 -27 -52 -51 -60 -195
-60 l-128 0 0 175 0 175 115 0 c75 0 127 -5 148 -14z"/>
<path d="M4610 566 c0 -33 1 -34 58 -42 79 -12 78 -26 -4 -160 -37 -60 -83
-135 -102 -167 -40 -67 -44 -70 -97 -77 -38 -5 -40 -7 -43 -42 l-3 -38 175 0
176 0 0 40 0 40 -40 0 c-50 0 -60 19 -35 66 l18 34 176 0 176 0 19 -35 c23
-43 11 -62 -42 -67 -35 -3 -37 -5 -40 -40 l-3 -38 241 0 241 0 -3 37 c-3 37
-4 38 -51 45 -27 4 -50 8 -52 10 -1 2 -65 97 -140 213 -76 116 -147 220 -158
233 -20 22 -25 22 -244 22 l-223 0 0 -34z m339 -169 c28 -42 51 -80 51 -82 0
-3 -49 -5 -110 -5 -60 0 -110 2 -110 5 0 15 104 175 110 168 4 -4 30 -43 59
-86z"/>
</g>
</svg>
