<?xml version="1.0" standalone="no"?>
<!DOCTYPE svg PUBLIC "-//W3C//DTD SVG 20010904//EN"
 "http://www.w3.org/TR/2001/REC-SVG-20010904/DTD/svg10.dtd">
<svg version="1.0" xmlns="http://www.w3.org/2000/svg"
 width="2400.000000pt" height="1352.000000pt" viewBox="0 0 2400.000000 1352.000000"
 preserveAspectRatio="xMidYMid meet">
<g transform="translate(0.000000,1352.000000) scale(0.100000,-0.100000)"
fill="#000000" stroke="none">
<path d="M11230 11969 c-63 -4 -230 -13 -370 -19 -140 -5 -277 -15 -304 -20
-27 -6 -120 -15 -205 -20 -86 -5 -172 -14 -191 -20 -19 -6 -91 -14 -160 -20
-69 -5 -141 -14 -160 -20 -19 -6 -82 -15 -139 -21 -57 -5 -109 -13 -115 -18
-6 -5 -57 -14 -114 -20 -57 -6 -112 -15 -122 -21 -10 -5 -56 -14 -104 -19 -47
-6 -94 -15 -105 -21 -11 -5 -54 -15 -95 -21 -42 -5 -92 -17 -111 -25 -19 -7
-50 -14 -70 -14 -20 0 -52 -7 -73 -16 -20 -8 -64 -20 -97 -25 -32 -6 -64 -14
-70 -19 -5 -4 -39 -14 -75 -20 -36 -6 -70 -16 -76 -21 -6 -5 -38 -14 -70 -20
-32 -6 -71 -17 -86 -25 -15 -8 -36 -14 -48 -14 -11 0 -38 -9 -60 -20 -22 -11
-49 -20 -60 -20 -11 0 -38 -9 -60 -20 -22 -11 -49 -20 -60 -20 -11 0 -38 -9
-60 -20 -22 -11 -47 -20 -57 -20 -10 0 -35 -9 -56 -20 -20 -11 -43 -20 -50
-20 -7 0 -29 -9 -50 -20 -20 -11 -44 -20 -52 -20 -9 0 -33 -8 -53 -19 -74 -37
-128 -60 -154 -67 -15 -3 -32 -12 -39 -20 -6 -8 -17 -14 -24 -14 -12 0 -92
-36 -135 -61 -8 -4 -64 -33 -125 -64 -60 -31 -128 -67 -150 -80 -22 -13 -50
-28 -62 -34 -12 -6 -45 -26 -72 -46 -28 -19 -53 -35 -55 -35 -3 0 -22 -11 -43
-25 -21 -14 -45 -30 -53 -35 -91 -59 -117 -77 -130 -88 -8 -7 -42 -33 -75 -57
-33 -25 -65 -48 -71 -53 -5 -5 -30 -25 -55 -43 -255 -195 -591 -587 -719 -839
-19 -36 -38 -71 -44 -79 -6 -7 -16 -27 -22 -45 -6 -17 -26 -67 -43 -111 -64
-160 -71 -181 -71 -205 -1 -14 -8 -43 -16 -65 -14 -36 -23 -93 -54 -340 -10
-83 -5 -237 10 -290 5 -16 14 -73 19 -126 6 -53 18 -112 26 -132 8 -20 15 -48
15 -62 0 -14 7 -39 15 -56 9 -16 20 -52 25 -81 6 -28 17 -59 25 -68 8 -9 15
-27 15 -39 0 -12 9 -39 19 -59 11 -20 43 -84 71 -142 72 -149 161 -303 208
-360 12 -15 22 -32 22 -37 0 -6 10 -22 23 -36 12 -14 31 -37 42 -52 11 -15 45
-55 75 -89 30 -34 81 -91 112 -127 91 -103 125 -139 132 -139 4 0 24 -16 44
-36 20 -20 53 -48 72 -62 19 -15 51 -42 70 -60 33 -31 118 -93 162 -119 12 -6
23 -15 27 -20 12 -16 71 -53 85 -53 9 0 20 -9 26 -20 6 -11 22 -23 35 -26 13
-3 30 -13 37 -21 7 -8 21 -19 33 -25 11 -5 38 -20 60 -33 22 -13 95 -52 162
-85 67 -33 125 -65 128 -70 3 -6 14 -10 24 -10 10 0 30 -9 44 -20 14 -11 31
-20 39 -20 7 0 30 -9 51 -20 20 -11 42 -20 48 -20 6 0 22 -9 36 -20 14 -11 35
-20 47 -20 11 0 35 -9 51 -20 17 -11 41 -20 55 -20 14 0 34 -6 45 -14 11 -7
36 -17 55 -21 19 -4 49 -16 66 -26 17 -10 42 -19 55 -19 14 0 41 -9 62 -20 20
-11 50 -20 67 -20 16 0 44 -9 62 -20 18 -11 47 -20 63 -20 17 0 44 -9 60 -20
19 -12 47 -20 75 -20 25 0 55 -6 66 -14 11 -8 45 -19 77 -25 31 -6 69 -17 84
-24 16 -8 54 -17 85 -20 33 -3 65 -12 74 -21 10 -11 34 -16 75 -16 35 0 73 -7
91 -16 16 -9 56 -18 87 -21 31 -3 83 -14 115 -24 33 -11 79 -19 103 -19 24 0
60 -7 81 -15 20 -9 81 -20 135 -25 53 -5 107 -15 118 -21 12 -6 62 -15 112
-20 51 -5 110 -15 132 -23 22 -9 66 -15 98 -16 51 0 198 -24 315 -50 59 -14
91 -4 97 29 3 14 10 40 16 56 6 17 17 49 23 72 7 24 17 48 24 55 7 7 12 21 12
33 0 11 9 38 19 59 11 21 23 52 27 69 3 18 13 41 20 52 8 11 14 26 14 35 0 9
9 33 20 55 11 22 20 48 20 60 0 11 9 34 19 51 10 17 22 45 25 62 4 17 14 36
22 43 8 6 14 21 14 33 0 12 9 38 20 59 11 20 20 45 20 54 0 10 9 32 20 48 11
17 20 36 20 44 0 8 8 32 19 55 10 23 28 68 40 101 12 33 31 79 42 103 10 23
19 48 19 55 0 6 7 25 16 42 20 40 61 143 69 177 4 15 13 32 21 39 8 6 14 21
14 33 0 12 9 38 20 59 11 20 20 43 20 50 0 7 9 29 20 50 11 20 20 42 20 48 0
7 9 30 19 53 10 23 33 79 51 126 18 47 36 89 41 95 5 5 9 16 9 25 1 8 9 33 20
55 11 22 19 46 20 53 0 13 37 99 64 152 8 14 16 41 20 61 4 21 13 42 21 49 8
7 15 21 15 32 0 18 33 103 71 184 10 22 19 50 19 61 0 11 7 26 15 33 8 7 15
22 15 33 0 18 9 40 60 152 11 22 24 59 30 82 6 23 15 45 20 48 6 3 10 14 10
23 0 10 9 35 20 57 11 22 20 44 20 50 0 6 9 28 20 50 11 22 20 44 20 50 0 6 9
28 20 50 11 21 23 54 26 72 3 18 12 37 20 44 8 6 14 21 14 33 0 12 9 38 20 59
11 20 20 45 20 55 0 9 9 34 20 55 11 20 20 45 20 55 0 9 8 33 19 52 15 29 19
69 26 243 4 114 10 220 15 235 l7 27 6 -25 c12 -54 17 -100 23 -240 6 -130 10
-155 41 -245 19 -55 37 -116 41 -135 5 -25 14 -36 32 -40 18 -5 24 -12 21 -26
-9 -38 -6 -77 6 -81 6 -2 13 6 15 19 4 29 48 39 48 11 0 -33 -12 -63 -25 -63
-28 0 -28 -53 1 -64 8 -3 14 -19 14 -36 0 -27 24 -94 66 -187 8 -17 14 -36 14
-43 0 -11 8 -32 51 -125 10 -22 23 -64 30 -93 6 -29 17 -56 25 -59 8 -3 14
-18 14 -34 0 -17 9 -36 20 -46 11 -10 20 -25 20 -35 0 -10 9 -37 20 -60 29
-64 70 -175 70 -190 0 -7 7 -22 15 -32 8 -11 15 -29 15 -41 0 -11 7 -31 16
-44 9 -13 21 -41 26 -63 5 -23 17 -52 28 -65 11 -14 22 -41 26 -60 4 -20 20
-61 35 -92 16 -31 29 -63 29 -71 0 -8 9 -32 20 -53 11 -20 20 -43 20 -50 0 -7
9 -29 20 -50 11 -20 20 -48 20 -61 0 -13 8 -34 18 -47 11 -13 22 -41 25 -63 3
-21 13 -46 22 -56 8 -9 15 -23 15 -31 0 -8 9 -27 20 -44 11 -16 20 -38 20 -48
0 -10 12 -44 26 -75 49 -108 54 -120 54 -139 0 -10 9 -31 20 -48 11 -16 20
-40 20 -53 0 -12 9 -30 20 -39 13 -12 20 -30 20 -54 0 -22 8 -45 20 -59 11
-13 20 -35 20 -50 0 -15 9 -39 20 -53 11 -14 20 -36 20 -49 0 -12 9 -36 20
-53 11 -16 20 -36 20 -44 0 -16 40 -120 64 -166 9 -17 16 -34 16 -40 0 -11 38
-111 53 -140 5 -11 16 -40 23 -65 7 -25 25 -76 39 -115 14 -38 41 -114 59
-169 36 -109 51 -125 100 -108 17 6 59 14 94 18 68 7 84 17 53 34 -25 13 -17
38 12 42 16 2 22 10 22 28 0 28 17 34 170 51 55 6 111 17 125 23 14 7 56 14
93 15 38 1 87 8 110 16 44 14 339 72 444 86 35 4 71 12 80 18 10 5 61 17 113
26 52 9 104 21 115 27 11 7 40 15 65 19 55 8 214 46 255 61 17 5 50 14 75 19
50 10 285 82 340 105 19 7 55 18 80 23 25 6 71 22 103 36 32 14 90 36 129 50
39 14 77 30 85 37 8 6 35 19 61 29 26 9 70 26 98 37 108 44 446 218 499 257
17 13 48 32 70 43 22 11 53 34 69 51 17 17 35 31 42 31 12 0 156 105 268 194
21 17 91 82 155 144 64 63 128 120 143 128 15 8 34 27 42 43 8 15 27 36 41 45
15 10 31 31 37 47 12 35 28 38 28 5 0 -15 -15 -39 -38 -63 -21 -21 -42 -45
-46 -53 -16 -36 -33 -59 -71 -96 -22 -22 -51 -57 -65 -76 -14 -20 -33 -39 -42
-41 -21 -6 -24 -47 -4 -47 7 0 26 17 42 38 15 20 62 71 103 114 42 42 103 113
136 157 33 45 67 89 76 99 9 9 20 27 23 40 4 12 11 22 16 22 4 0 26 30 47 66
21 36 48 82 60 102 13 20 28 48 34 62 6 14 15 32 20 40 5 8 14 26 20 40 27 62
53 118 70 152 11 20 19 46 19 56 0 10 9 29 20 42 13 14 20 37 20 62 0 21 9 55
20 75 11 21 20 51 20 68 0 16 7 44 16 60 9 17 20 68 24 115 5 47 16 117 24
155 20 88 20 278 2 365 -8 36 -17 97 -21 135 -4 39 -16 96 -26 129 -11 32 -19
71 -19 85 0 15 -6 35 -14 46 -7 11 -17 35 -21 54 -9 42 -64 174 -96 231 -5 8
-14 26 -19 40 -6 14 -14 32 -20 40 -5 8 -25 42 -45 75 -20 33 -49 80 -65 105
-16 25 -33 51 -37 59 -3 8 -13 22 -20 30 -8 9 -44 54 -81 101 -135 174 -478
491 -672 623 -221 150 -400 262 -488 305 -15 7 -34 17 -42 22 -35 22 -377 190
-386 190 -8 0 -52 20 -135 62 -20 10 -45 18 -55 18 -11 0 -32 9 -49 20 -16 11
-37 20 -45 20 -8 0 -33 9 -55 20 -22 11 -49 19 -60 20 -11 0 -30 7 -41 15 -12
8 -39 19 -60 24 -22 5 -61 17 -89 27 -27 10 -72 25 -100 34 -27 10 -72 25
-100 35 -27 9 -70 20 -95 25 -25 5 -62 16 -82 24 -21 9 -48 16 -60 16 -13 0
-47 9 -76 20 -29 11 -65 20 -82 20 -16 0 -52 9 -80 20 -28 11 -64 20 -81 20
-16 0 -45 7 -64 14 -19 8 -69 20 -111 26 -43 5 -97 17 -121 25 -24 8 -57 15
-73 15 -16 0 -66 9 -112 20 -46 11 -99 20 -118 20 -19 0 -69 9 -110 20 -41 11
-100 20 -130 20 -31 0 -82 7 -114 15 -32 9 -113 20 -179 25 -66 6 -136 14
-156 20 -20 5 -104 14 -186 19 -83 6 -177 15 -210 21 -33 6 -166 15 -295 20
-129 5 -305 14 -390 20 -180 11 -742 11 -910 -1z m1460 -173 c168 -14 364 -33
435 -41 272 -33 443 -56 525 -70 47 -8 117 -20 155 -25 39 -6 102 -18 140 -26
39 -8 93 -19 120 -24 433 -88 612 -133 970 -244 66 -21 135 -44 153 -52 18 -8
39 -14 46 -14 51 0 514 -201 679 -295 147 -83 173 -98 249 -145 40 -25 86 -51
102 -57 31 -14 120 -77 148 -105 10 -10 30 -18 44 -18 21 0 24 -4 19 -20 -4
-13 -2 -20 7 -21 7 -1 21 -2 30 -3 10 0 26 -16 36 -35 13 -24 32 -39 63 -51
35 -14 45 -23 49 -46 4 -21 13 -30 39 -36 35 -10 34 -7 14 -70 -6 -21 7 -22
56 -8 31 9 36 7 79 -37 41 -41 44 -47 29 -58 -23 -17 -21 -22 8 -29 14 -4 25
-13 25 -21 0 -8 8 -15 18 -15 10 0 27 -6 38 -14 19 -14 19 -15 -3 -38 -31 -33
-21 -78 16 -78 49 0 68 -22 53 -62 -6 -19 -12 -37 -12 -40 0 -10 65 -29 90
-26 17 2 25 -3 29 -19 7 -23 66 -93 80 -93 5 0 17 -17 26 -37 10 -21 24 -41
31 -46 7 -4 16 -34 20 -66 6 -53 11 -64 51 -103 40 -40 43 -46 38 -81 -5 -37
-3 -41 50 -89 30 -28 55 -57 55 -64 0 -6 16 -25 35 -41 33 -26 36 -34 45 -107
5 -44 16 -86 24 -95 23 -26 29 -69 15 -102 -11 -28 -10 -33 9 -48 25 -18 30
-190 10 -326 -5 -38 -14 -97 -18 -130 -15 -103 -31 -168 -55 -220 -13 -27 -26
-61 -30 -75 -20 -66 -79 -199 -104 -235 -16 -22 -32 -51 -36 -65 -6 -23 -58
-116 -112 -200 -32 -50 -90 -124 -148 -189 -28 -31 -64 -75 -80 -99 -16 -24
-42 -50 -57 -58 -16 -8 -34 -26 -40 -39 -6 -14 -15 -25 -20 -25 -8 0 -57 -42
-198 -170 -74 -67 -122 -103 -165 -123 -16 -8 -48 -29 -69 -46 -22 -17 -58
-41 -80 -51 -23 -11 -70 -41 -106 -66 -36 -24 -103 -63 -150 -85 -47 -21 -96
-46 -110 -55 -42 -25 -212 -105 -265 -124 -27 -10 -82 -29 -121 -43 -38 -13
-83 -31 -100 -40 -16 -8 -60 -24 -99 -35 -38 -11 -101 -32 -139 -46 -38 -14
-86 -26 -106 -26 -20 0 -58 -11 -85 -24 -26 -14 -89 -34 -139 -46 -50 -12
-122 -30 -161 -40 -38 -10 -99 -22 -135 -25 -36 -4 -87 -12 -115 -20 -107 -29
-203 -47 -260 -49 -33 -2 -91 -10 -130 -20 -104 -26 -406 -53 -442 -39 -6 3
-14 22 -18 44 -13 78 -95 104 -117 37 -8 -22 -38 11 -38 41 0 15 -8 31 -20 39
-12 7 -20 23 -20 38 0 15 -10 34 -22 44 l-22 17 22 14 c27 17 28 35 2 49 -12
7 -20 21 -20 38 0 17 -8 32 -21 41 -21 12 -22 18 -16 110 6 105 1 121 -39 121
-35 0 -50 26 -25 42 26 16 27 34 1 48 -17 9 -19 17 -14 51 8 49 -31 99 -77 99
-15 0 -29 6 -32 13 -7 20 8 41 25 34 21 -8 42 8 35 27 -5 11 -19 16 -51 16
-53 0 -68 16 -37 40 27 20 9 43 -27 33 -13 -3 -22 -1 -22 6 0 7 -11 23 -25 35
-23 22 -24 25 -10 39 20 21 19 34 -4 47 -26 13 -45 5 -62 -28 l-14 -27 -2 40
c-5 62 -12 85 -27 85 -34 0 -42 31 -13 54 38 31 35 33 -40 38 -51 3 -69 8 -77
22 -6 10 -22 35 -35 55 -16 24 -24 49 -23 74 0 21 -4 50 -9 65 l-11 27 -13
-25 c-8 -14 -14 -38 -15 -53 0 -16 -4 -26 -10 -22 -5 3 -10 15 -10 25 0 11
-11 27 -25 36 -19 12 -25 25 -25 51 0 44 -24 40 -28 -5 -2 -23 2 -33 17 -42
16 -8 21 -21 21 -55 0 -32 6 -51 20 -65 11 -11 20 -30 20 -42 0 -13 9 -36 20
-53 11 -16 20 -42 20 -56 0 -15 7 -32 15 -39 8 -7 15 -27 15 -45 0 -18 9 -44
20 -58 11 -14 20 -34 20 -44 0 -10 9 -35 20 -56 11 -20 20 -43 20 -50 0 -7 9
-29 20 -50 11 -20 20 -45 20 -54 0 -10 9 -31 20 -48 11 -16 20 -38 20 -48 0
-10 8 -35 19 -55 33 -65 50 -106 57 -137 4 -16 15 -46 26 -65 10 -19 18 -43
18 -53 0 -10 9 -35 20 -57 11 -22 20 -44 20 -51 0 -6 9 -22 20 -36 11 -14 20
-40 20 -58 0 -18 6 -38 14 -44 8 -7 18 -27 21 -44 9 -43 46 -138 62 -158 7 -8
13 -20 13 -25 1 -5 9 -27 20 -49 19 -40 25 -109 14 -152 -10 -37 -24 -16 -24
36 0 35 -7 56 -25 81 -15 20 -25 47 -25 67 0 23 -5 33 -15 33 -9 0 -18 12 -22
30 -3 17 -14 35 -24 41 -13 7 -19 21 -19 45 0 42 -15 74 -35 74 -11 0 -15 11
-15 39 0 22 -6 46 -14 53 -7 8 -17 29 -21 47 -4 18 -13 35 -20 37 -7 3 -16 22
-19 42 -7 37 -21 73 -57 144 -11 20 -19 52 -19 71 0 21 -7 41 -20 52 -11 10
-20 30 -20 44 0 14 -9 40 -20 56 -11 17 -20 42 -20 56 0 14 -9 36 -20 49 -11
13 -20 32 -20 44 0 12 -9 35 -20 51 -11 17 -20 43 -20 58 0 16 -9 40 -20 54
-11 14 -20 34 -20 44 0 11 -9 36 -20 56 -11 21 -20 47 -20 59 0 12 -6 27 -14
33 -8 7 -17 28 -21 49 -3 20 -12 46 -19 57 -8 11 -16 34 -20 52 -4 17 -16 48
-27 69 -10 21 -19 46 -19 55 0 9 -7 22 -15 29 -8 7 -15 24 -15 39 0 14 -9 43
-20 64 -11 20 -20 42 -20 48 0 6 -6 25 -14 42 -56 126 -66 151 -66 166 0 9 -9
30 -20 46 -11 17 -20 38 -20 47 0 16 -9 39 -61 154 -11 23 -19 46 -19 52 0 6
-10 33 -21 59 -48 108 -57 129 -67 158 -5 17 -24 66 -42 110 -18 44 -44 107
-57 140 -28 68 -49 117 -69 158 -8 16 -14 34 -14 41 0 7 -11 34 -25 60 -14 26
-25 52 -25 57 0 5 -18 47 -40 91 -22 45 -40 86 -40 91 0 4 -11 34 -26 65 -14
31 -31 71 -38 87 -12 30 -32 74 -74 168 -12 26 -22 52 -22 58 0 10 -39 100
-65 152 -8 16 -15 39 -15 52 0 37 -10 55 -40 70 -34 18 -90 -11 -90 -47 -1
-13 -9 -41 -20 -63 -11 -22 -19 -48 -20 -58 0 -9 -9 -34 -20 -54 -11 -21 -20
-44 -20 -51 0 -8 -6 -26 -14 -40 -25 -47 -66 -140 -66 -151 0 -6 -9 -28 -20
-48 -11 -21 -20 -43 -20 -50 0 -7 -9 -30 -20 -50 -11 -21 -20 -44 -20 -51 0
-8 -6 -26 -14 -40 -14 -25 -37 -80 -88 -207 -11 -27 -26 -63 -34 -80 -7 -16
-20 -49 -29 -72 -36 -102 -47 -127 -60 -147 -8 -11 -15 -27 -15 -35 0 -7 -9
-35 -21 -60 -44 -95 -49 -107 -63 -146 -7 -22 -24 -65 -36 -95 -12 -30 -29
-73 -36 -94 -8 -21 -21 -48 -29 -60 -8 -11 -15 -28 -15 -38 0 -10 -9 -35 -20
-55 -11 -21 -20 -45 -20 -53 0 -8 -9 -33 -19 -55 -44 -93 -61 -133 -61 -146 0
-8 -6 -23 -14 -34 -7 -11 -17 -31 -21 -45 -11 -40 -57 -154 -65 -165 -5 -5
-11 -27 -15 -47 -4 -21 -13 -42 -21 -49 -8 -6 -14 -18 -14 -25 0 -15 -45 -135
-66 -176 -8 -14 -14 -32 -14 -40 0 -7 -9 -30 -20 -51 -11 -20 -20 -43 -20 -50
0 -7 -9 -29 -20 -50 -11 -20 -20 -42 -20 -48 0 -7 -8 -30 -19 -53 -10 -23 -29
-66 -41 -96 -12 -30 -30 -73 -41 -95 -10 -22 -21 -53 -24 -70 -4 -16 -12 -36
-18 -44 -6 -7 -18 -30 -25 -50 -32 -84 -50 -128 -66 -163 -9 -21 -16 -41 -16
-46 0 -5 -6 -15 -14 -21 -8 -7 -17 -26 -20 -44 -3 -18 -15 -40 -26 -50 -11 -9
-20 -26 -20 -37 0 -10 -8 -24 -19 -29 -12 -7 -21 -27 -25 -56 -5 -32 -14 -50
-31 -61 -12 -8 -25 -24 -28 -35 -3 -12 -10 -18 -15 -15 -12 7 -62 -35 -62 -52
0 -7 11 -12 25 -12 34 0 34 -38 0 -70 l-24 -23 -11 27 c-5 15 -10 32 -10 37 0
25 -35 1 -42 -29 -5 -17 -14 -32 -21 -33 -28 -3 -64 4 -88 17 -21 10 -40 11
-86 4 -51 -9 -64 -7 -98 10 l-39 20 -22 -21 c-19 -18 -27 -20 -56 -11 -18 6
-60 14 -93 18 -33 3 -85 15 -115 25 -30 10 -86 21 -125 24 -38 3 -99 12 -135
20 -36 8 -112 24 -170 35 -128 27 -243 55 -323 81 -33 10 -74 19 -92 19 -17 0
-58 9 -90 20 -32 11 -70 20 -84 20 -14 0 -46 6 -71 15 -25 8 -88 28 -140 45
-52 17 -104 34 -115 39 -11 5 -53 18 -94 31 -41 12 -94 33 -119 46 -25 13 -55
24 -68 24 -13 0 -25 4 -28 9 -3 4 -39 20 -81 35 -42 15 -98 40 -126 56 -27 17
-54 30 -59 30 -9 0 -64 27 -202 97 -32 16 -65 36 -75 45 -10 9 -36 23 -58 32
-22 10 -49 25 -60 35 -11 10 -40 29 -65 41 -25 13 -58 34 -75 47 -16 13 -59
45 -95 70 -36 26 -83 63 -105 84 -22 20 -69 60 -105 88 -83 66 -225 206 -251
249 -12 17 -24 32 -28 32 -9 0 -105 124 -136 175 -10 17 -33 44 -51 61 -21 19
-34 41 -34 56 0 14 -13 36 -30 53 -16 15 -37 50 -45 76 -9 26 -25 59 -36 73
-11 14 -31 55 -44 91 -13 37 -31 77 -39 90 -8 12 -22 51 -31 86 -9 35 -24 80
-32 99 -52 120 -87 597 -49 652 11 15 16 45 16 92 0 44 5 75 14 85 21 25 56
128 56 166 0 22 8 43 20 55 34 34 45 26 40 -27 -1 -13 2 -27 5 -33 10 -15 35
7 35 31 0 10 8 26 19 36 30 29 36 98 10 122 -37 34 -11 111 37 111 20 0 24 5
24 29 0 17 5 33 10 36 6 3 10 17 10 31 0 13 -4 24 -10 24 -5 0 -10 -12 -10
-26 0 -19 -5 -25 -17 -22 -24 4 -28 32 -8 51 8 9 18 29 21 46 4 16 15 38 25
47 10 9 21 32 25 51 3 18 14 39 23 46 16 12 30 31 81 108 39 59 192 221 284
300 135 117 144 125 248 197 18 13 68 49 111 81 43 32 113 78 155 103 42 25
131 77 197 115 124 73 446 233 468 233 7 0 17 4 22 9 6 5 33 18 60 29 28 11
109 43 180 71 72 29 146 58 165 66 19 7 80 28 135 45 55 17 114 36 130 41 43
16 312 94 365 108 25 6 97 24 160 40 301 76 702 153 1020 195 58 8 139 19 180
25 736 102 1868 130 2630 67z m-720 -2700 c0 -7 -7 -19 -15 -26 -8 -7 -15 -19
-15 -27 0 -8 -6 -13 -12 -10 -18 5 -16 23 6 52 21 28 36 32 36 11z"/>
<path d="M11245 11580 c-99 -4 -214 -12 -255 -18 -41 -6 -140 -14 -220 -17
-80 -4 -176 -13 -215 -20 -38 -8 -108 -17 -155 -20 -47 -4 -107 -11 -135 -17
-27 -5 -99 -16 -160 -23 -107 -14 -135 -18 -315 -52 -47 -9 -112 -19 -145 -24
-33 -4 -79 -14 -101 -23 -23 -8 -68 -17 -100 -21 -33 -4 -68 -12 -79 -18 -11
-6 -49 -16 -85 -23 -89 -17 -188 -43 -230 -59 -19 -8 -51 -17 -70 -21 -19 -3
-39 -10 -45 -14 -5 -4 -34 -13 -63 -19 -29 -6 -65 -17 -80 -25 -15 -7 -45 -17
-66 -20 -21 -4 -48 -13 -60 -21 -12 -7 -35 -16 -53 -20 -17 -3 -48 -15 -69
-26 -21 -10 -45 -19 -54 -19 -9 0 -20 -4 -26 -9 -5 -5 -40 -21 -79 -36 -84
-33 -174 -73 -195 -86 -8 -5 -22 -12 -30 -15 -45 -18 -303 -152 -353 -183
-478 -299 -698 -496 -912 -815 -64 -97 -115 -193 -115 -219 0 -8 -7 -20 -15
-27 -8 -7 -15 -20 -15 -29 -1 -9 -9 -34 -20 -56 -11 -22 -19 -50 -20 -62 0
-13 -9 -50 -21 -82 -23 -68 -29 -324 -11 -459 12 -84 41 -129 72 -112 13 7 26
2 51 -16 19 -14 44 -30 56 -34 13 -6 23 -19 25 -37 3 -24 9 -29 46 -37 40 -9
42 -12 37 -38 -5 -21 -3 -28 9 -28 9 0 19 -12 22 -26 5 -19 11 -24 26 -21 15
4 23 -2 34 -28 8 -19 24 -40 36 -46 28 -15 86 -74 111 -112 9 -15 26 -27 37
-27 11 0 35 -16 54 -35 20 -19 39 -35 44 -35 5 0 23 -19 40 -43 22 -31 42 -47
71 -56 23 -6 41 -16 41 -21 0 -18 40 -50 61 -50 12 0 41 -16 65 -35 23 -19 49
-35 57 -35 9 0 29 -11 45 -25 18 -15 42 -25 61 -25 46 0 40 27 -12 49 -23 10
-48 26 -56 34 -7 9 -28 19 -46 23 -19 3 -48 22 -71 45 -21 21 -44 39 -51 39
-8 0 -29 16 -49 35 -19 19 -39 35 -45 35 -15 0 -249 237 -300 303 -61 81 -71
102 -116 237 -8 25 -20 59 -25 75 -32 95 -34 347 -3 434 8 24 15 53 15 65 0
12 9 38 20 59 11 20 20 42 20 48 0 18 53 123 87 171 18 26 33 51 33 54 0 3 21
34 47 67 117 155 352 383 493 480 14 9 56 39 95 67 38 27 73 50 77 50 3 0 40
22 80 49 69 46 272 153 399 210 30 13 72 32 94 42 76 34 220 88 305 115 47 14
103 35 126 45 22 10 53 19 68 19 15 0 39 6 54 14 15 8 53 19 85 25 31 6 65 15
76 20 10 6 49 15 87 21 37 6 73 15 79 20 6 5 35 12 65 16 30 3 69 12 87 19 17
8 58 16 90 20 32 4 76 13 98 20 22 8 79 19 127 24 49 6 96 14 105 20 10 5 59
12 108 16 50 4 107 14 129 21 21 8 56 14 77 14 21 0 101 9 176 19 76 11 183
23 238 26 55 4 143 14 195 23 142 25 1530 24 1665 0 50 -9 149 -19 220 -23 72
-4 155 -12 185 -20 30 -7 97 -16 148 -19 52 -3 117 -12 145 -20 29 -8 88 -17
132 -21 44 -4 101 -12 126 -20 26 -7 77 -16 115 -20 37 -4 82 -13 99 -20 16
-7 62 -16 100 -20 39 -4 82 -14 97 -21 15 -8 37 -14 50 -14 13 0 48 -7 78 -16
30 -8 82 -20 115 -26 33 -5 72 -16 87 -24 15 -8 37 -14 50 -14 13 -1 41 -8 63
-16 22 -8 65 -21 95 -29 30 -7 73 -20 95 -29 22 -8 49 -15 60 -16 11 0 30 -6
41 -14 11 -8 38 -18 60 -22 21 -4 48 -13 59 -20 11 -8 25 -14 33 -14 13 0 99
-37 152 -65 14 -7 39 -16 57 -19 17 -4 37 -14 44 -22 6 -8 16 -14 21 -14 12 0
196 -91 253 -125 22 -13 54 -31 70 -40 307 -163 669 -482 837 -737 80 -121
158 -278 158 -318 0 -11 8 -35 17 -53 21 -39 31 -321 15 -402 -33 -162 -109
-333 -183 -410 -147 -153 -263 -266 -306 -298 -48 -35 -70 -63 -59 -75 9 -8
64 19 70 34 3 7 21 20 41 28 24 10 35 21 35 35 0 14 9 23 25 27 15 4 25 13 25
24 0 18 19 30 47 30 17 0 159 130 183 167 8 13 23 26 33 29 10 3 27 25 37 49
10 23 24 45 32 47 10 4 11 8 0 20 -12 16 -7 48 8 48 5 0 12 -9 15 -21 10 -30
28 -18 41 28 7 23 19 51 27 64 9 13 19 40 22 61 4 21 19 48 37 65 32 30 68 92
68 118 0 9 7 18 15 22 9 3 23 22 31 42 l15 36 18 -24 18 -23 6 47 c12 83 8
198 -7 227 -8 15 -18 52 -21 83 -4 30 -16 72 -26 92 -11 21 -19 47 -19 59 0
12 -7 27 -15 34 -8 7 -15 23 -15 35 0 12 -8 33 -18 46 -10 13 -23 35 -30 49
-14 29 -18 36 -88 145 -29 44 -64 93 -78 108 -14 15 -26 31 -26 35 0 8 -281
294 -315 321 -9 7 -45 35 -79 62 -33 27 -68 54 -76 62 -29 26 -207 144 -309
204 -35 21 -80 48 -100 60 -20 12 -47 27 -61 32 -14 6 -32 15 -40 20 -29 19
-139 71 -148 71 -5 0 -15 7 -22 15 -7 8 -27 17 -46 21 -18 3 -38 12 -45 20 -6
8 -17 14 -23 14 -6 0 -28 9 -49 20 -20 11 -43 20 -49 20 -7 0 -35 11 -63 25
-27 13 -54 25 -60 25 -9 0 -88 29 -150 55 -16 6 -70 24 -120 39 -49 15 -103
32 -120 38 -16 6 -55 16 -85 23 -31 7 -65 17 -75 23 -23 12 -119 37 -222 57
-40 8 -80 18 -90 23 -10 6 -45 13 -78 17 -33 4 -75 13 -93 21 -17 7 -60 16
-95 20 -34 4 -79 13 -100 20 -20 7 -72 16 -115 20 -42 4 -88 11 -101 16 -13 5
-82 15 -152 24 -71 8 -139 18 -152 23 -12 5 -67 12 -122 16 -55 3 -118 11
-140 16 -22 6 -137 16 -255 24 -118 8 -253 19 -299 24 -111 14 -818 21 -1046
11z"/>
<path d="M11676 10851 c-3 -5 -1 -33 4 -62 5 -30 12 -105 14 -167 6 -128 2
-119 78 -203 32 -35 61 -68 66 -74 17 -22 126 -152 151 -180 14 -16 69 -82
121 -145 109 -133 233 -282 295 -355 23 -27 55 -66 71 -85 15 -19 46 -56 69
-82 22 -25 46 -53 53 -62 66 -81 127 -154 187 -221 39 -44 91 -105 115 -135
24 -30 62 -75 83 -100 57 -66 66 -76 147 -175 76 -91 122 -145 151 -174 8 -9
40 -47 71 -86 30 -38 71 -86 89 -106 32 -34 80 -89 174 -200 114 -135 167
-195 235 -270 14 -15 34 -39 45 -53 11 -14 47 -54 80 -89 105 -111 143 -155
187 -214 24 -32 48 -62 54 -68 5 -5 23 -29 39 -53 50 -76 79 -78 90 -9 4 23
16 58 26 77 11 19 19 47 19 61 0 14 9 38 20 52 31 39 30 41 -88 163 -66 67
-94 78 -100 36 -2 -12 -8 -22 -14 -22 -18 0 -99 83 -113 118 -9 20 -21 32 -34
32 -18 0 -41 29 -83 104 -9 17 -42 58 -72 91 -31 33 -56 65 -56 72 0 26 -43
93 -59 93 -14 0 -17 7 -13 30 4 30 -27 58 -36 32 -8 -25 -22 -10 -22 23 0 29
-4 35 -17 33 -13 -2 -19 5 -22 22 -1 14 -21 44 -43 68 -22 24 -46 59 -54 77
-8 19 -39 61 -70 92 -84 88 -92 97 -103 126 -6 15 -15 27 -20 27 -6 0 -23 19
-40 43 -16 23 -53 67 -81 97 -28 30 -72 82 -98 115 -25 33 -59 74 -74 90 -15
17 -28 33 -28 37 0 4 -8 15 -19 25 -21 20 -216 245 -271 312 -69 85 -95 116
-106 126 -6 6 -30 35 -55 65 -24 30 -58 68 -74 85 -17 16 -39 42 -50 56 -24
32 -149 179 -198 234 -50 55 -53 59 -131 150 -38 44 -92 107 -120 140 -28 32
-67 77 -87 100 -52 59 -170 207 -202 254 -27 40 -67 55 -81 32z"/>
<path d="M11420 10540 c-26 -26 -22 -44 13 -48 36 -4 39 -48 5 -61 -25 -10
-48 3 -48 25 0 8 -7 14 -16 14 -22 0 -54 -19 -54 -32 0 -6 -16 -28 -35 -49
-21 -23 -35 -49 -35 -65 0 -21 -4 -24 -19 -19 -15 4 -25 -1 -38 -21 -30 -46
-56 -76 -121 -141 -35 -35 -68 -76 -73 -93 -6 -16 -15 -30 -20 -30 -18 0 -69
-44 -69 -58 0 -8 8 -21 18 -28 13 -10 15 -15 5 -25 -10 -10 -16 -9 -28 7 -16
21 -34 6 -115 -101 -19 -26 -63 -76 -97 -111 -35 -36 -63 -74 -63 -85 0 -13
-11 -25 -34 -34 -26 -11 -35 -22 -40 -48 -5 -25 -15 -39 -41 -52 -18 -11 -39
-29 -46 -42 -7 -12 -36 -46 -66 -74 -29 -28 -53 -54 -53 -59 0 -5 -13 -22 -30
-38 -16 -17 -30 -38 -30 -46 0 -9 -8 -16 -18 -16 -17 0 -71 -57 -97 -101 -5
-9 -30 -41 -55 -69 -25 -29 -66 -78 -92 -109 -26 -31 -61 -72 -78 -91 -17 -19
-46 -53 -65 -75 -19 -22 -43 -50 -54 -62 -11 -12 -22 -30 -25 -40 -3 -10 -20
-24 -36 -30 -20 -8 -35 -24 -45 -47 -9 -20 -34 -53 -57 -74 -42 -38 -198 -219
-198 -231 0 -3 -14 -14 -30 -23 -17 -9 -35 -29 -40 -44 -6 -14 -24 -39 -40
-54 -32 -30 -37 -50 -18 -79 14 -23 4 -51 -18 -51 -12 0 -15 7 -12 30 6 38
-12 39 -47 5 -32 -33 -32 -43 3 -47 21 -2 28 -9 30 -32 7 -61 -35 -41 -62 29
-6 16 -40 -9 -46 -33 -3 -11 -21 -33 -41 -49 -19 -15 -57 -53 -84 -83 -26 -30
-66 -73 -87 -95 -21 -22 -38 -43 -38 -47 0 -14 -20 -9 -49 13 -36 27 -154 25
-159 -3 -2 -12 6 -19 33 -24 24 -4 44 -17 62 -41 27 -36 77 -68 92 -59 5 3 14
19 21 36 15 37 33 34 40 -6 3 -16 12 -40 22 -54 9 -14 19 -44 23 -67 11 -71
44 -66 89 12 15 25 31 45 36 45 12 0 30 65 30 106 0 26 5 33 25 38 30 8 34 49
8 78 -9 10 -13 21 -8 26 4 4 10 1 12 -5 6 -15 39 -17 48 -3 3 6 20 10 36 10
23 0 42 12 80 50 27 28 53 50 57 50 9 0 72 80 72 91 0 3 14 12 30 19 17 7 30
16 30 20 0 4 22 32 49 61 27 30 66 72 86 94 20 22 52 58 73 81 20 22 56 61 80
87 23 26 42 50 42 53 0 4 9 16 20 28 34 36 84 93 115 132 17 20 51 60 76 88
106 117 210 241 251 298 17 24 54 67 82 96 70 72 94 99 105 120 6 11 36 47 68
81 32 35 63 72 69 82 5 11 23 32 38 47 15 15 54 61 86 102 33 41 71 86 85 100
14 14 25 30 25 35 0 4 23 30 51 56 29 27 57 57 63 67 29 50 67 102 83 114 19
14 73 89 73 101 0 4 19 28 43 52 23 24 58 65 77 90 19 26 44 56 56 68 11 12
25 30 30 39 8 15 99 119 157 180 21 22 22 38 2 38 -21 0 -19 16 6 57 28 45 13
65 -27 34 -37 -29 -62 -27 -66 6 -4 35 -22 39 -48 13z"/>
<path d="M11643 10377 c-53 -52 -128 -136 -182 -202 -40 -49 -85 -101 -127
-147 -11 -13 -30 -39 -42 -59 -12 -19 -30 -44 -42 -54 -24 -22 -27 -65 -4 -65
18 0 73 55 111 112 14 20 35 44 48 52 13 9 25 26 27 38 2 14 12 24 28 28 15 3
31 19 40 36 22 45 66 94 84 94 9 0 16 6 16 14 0 26 53 108 76 118 29 14 41 46
23 64 -12 11 -21 6 -56 -29z"/>
<path d="M16443 10288 c-6 -7 -13 -25 -17 -40 -3 -16 -12 -28 -19 -28 -20 -1
-49 -47 -35 -56 6 -4 14 -2 16 4 2 7 13 12 25 12 33 0 44 11 56 58 7 23 16 42
21 42 6 0 10 5 10 10 0 14 -46 12 -57 -2z"/>
<path d="M16577 10263 c-12 -11 -7 -31 9 -37 22 -8 54 11 48 29 -6 15 -45 21
-57 8z"/>
<path d="M16515 10211 c-8 -17 -22 -31 -31 -31 -8 0 -19 -11 -24 -24 -7 -18
-14 -23 -29 -19 -27 7 -26 0 4 -33 14 -15 31 -39 38 -53 7 -14 22 -30 35 -36
15 -7 22 -18 22 -36 0 -15 7 -32 15 -39 8 -7 15 -21 15 -32 0 -11 9 -22 20
-25 15 -4 20 -14 20 -37 0 -19 8 -38 20 -49 11 -9 20 -24 20 -33 0 -9 9 -27
20 -41 11 -14 20 -37 20 -51 0 -14 7 -33 15 -42 9 -10 19 -40 24 -68 4 -28 13
-57 19 -65 7 -8 16 -56 22 -108 5 -52 15 -112 21 -134 14 -49 5 -223 -16 -310
-8 -33 -15 -75 -15 -93 0 -18 -9 -50 -20 -72 -11 -22 -20 -47 -20 -57 0 -21
-46 -110 -108 -212 -104 -171 -306 -369 -526 -516 -47 -31 -89 -61 -92 -66 -3
-5 -20 -16 -37 -24 -18 -8 -72 -37 -122 -64 -49 -27 -115 -62 -145 -76 -30
-15 -62 -31 -70 -36 -8 -5 -22 -12 -30 -15 -8 -4 -38 -17 -67 -30 -28 -13 -58
-24 -65 -24 -8 0 -19 -5 -24 -10 -10 -10 -198 -80 -284 -106 -25 -7 -63 -20
-85 -28 -22 -8 -49 -15 -60 -16 -11 0 -45 -9 -75 -20 -30 -11 -66 -20 -80 -20
-14 0 -37 -6 -52 -14 -14 -8 -49 -17 -76 -21 -27 -3 -61 -13 -76 -20 -15 -8
-55 -19 -89 -26 -34 -6 -67 -15 -73 -19 -42 -36 -214 -28 -214 10 0 5 -10 20
-22 34 -13 14 -41 46 -63 71 -22 25 -47 54 -55 63 -133 146 -180 201 -180 210
0 6 -9 16 -19 22 -11 5 -22 19 -26 29 -3 11 -15 23 -25 26 -10 3 -22 15 -25
26 -4 11 -14 19 -23 17 -26 -5 -25 -27 2 -39 17 -8 26 -20 26 -35 0 -13 8 -25
19 -29 30 -9 38 -88 12 -114 -12 -12 -21 -32 -21 -45 0 -13 -7 -26 -15 -30
-16 -6 -21 -61 -6 -70 5 -3 14 8 20 25 7 21 16 30 28 27 26 -5 29 -61 5 -85
-27 -25 -35 -73 -12 -73 21 0 60 41 60 63 0 10 11 22 24 26 15 6 25 20 30 42
6 31 7 32 23 16 16 -15 15 -19 -15 -56 -18 -22 -32 -47 -32 -55 0 -8 -4 -17
-9 -20 -22 -14 -19 -47 6 -70 17 -16 24 -30 19 -41 -4 -12 5 -28 31 -52 31
-28 38 -41 38 -71 0 -51 38 -55 43 -4 2 20 9 32 18 32 8 0 22 16 30 36 12 29
17 34 29 24 21 -18 18 -35 -11 -67 -26 -28 -28 -83 -3 -108 14 -13 39 21 39
52 0 15 7 24 23 27 25 5 97 3 97 -3 0 -12 -40 -30 -68 -31 -29 0 -33 -3 -30
-22 2 -18 9 -23 32 -21 16 1 41 -4 57 -12 48 -25 90 -17 52 10 -9 7 -14 19
-10 29 9 23 26 20 37 -8 12 -32 56 -43 82 -19 16 15 21 15 28 3 40 -65 74 -85
85 -50 3 11 11 20 16 20 5 0 14 -9 21 -20 7 -11 18 -20 25 -20 7 0 17 9 23 20
7 13 21 20 42 20 17 0 47 5 65 12 26 10 38 10 53 0 16 -10 24 -6 60 31 40 41
47 42 62 6 2 -4 43 -9 93 -10 83 -4 90 -3 93 16 10 65 10 65 60 65 26 0 56 7
66 15 11 8 37 15 57 15 32 0 45 7 81 45 27 28 49 43 59 40 9 -3 26 4 39 15 12
11 39 22 59 25 20 4 49 13 64 22 27 14 30 14 48 -6 26 -28 44 -27 71 4 12 14
29 25 38 24 33 -3 40 2 40 29 0 35 16 52 51 52 23 0 29 6 41 43 10 33 17 41
34 39 11 -1 29 7 39 18 23 25 32 25 40 0 8 -26 19 -25 44 1 11 12 24 18 30 15
18 -11 51 13 51 37 0 38 15 50 52 44 39 -6 50 -1 66 28 7 14 21 20 43 20 30 0
34 4 40 35 9 40 77 110 108 110 26 0 81 59 81 88 0 12 4 22 9 22 4 0 20 11 35
25 15 14 31 25 36 25 5 0 12 9 15 20 3 11 13 20 22 20 22 0 123 106 123 129 0
25 21 41 46 35 31 -8 51 21 25 36 -28 15 -26 26 10 62 23 24 29 37 24 56 -4
15 0 31 9 41 9 9 19 35 24 56 6 33 12 40 32 40 25 0 28 6 45 89 5 22 10 27 26
23 45 -12 62 39 25 75 -26 25 -24 117 3 126 6 2 11 16 11 31 0 16 10 36 24 48
23 20 24 26 22 140 l-2 119 -33 32 c-19 17 -38 32 -42 32 -5 0 -9 12 -9 27 0
14 -7 34 -16 44 -11 12 -13 22 -6 36 21 40 22 220 1 247 -10 13 -19 31 -19 40
0 9 -4 24 -9 34 -5 9 -12 25 -15 35 -9 29 -46 21 -57 -13 -18 -49 -29 -34 -29
38 0 67 -1 69 -32 83 -21 9 -35 24 -39 42 -11 42 -26 55 -70 62 -21 4 -41 10
-44 15 -7 12 28 70 43 70 23 0 12 25 -22 52 -19 15 -37 40 -41 55 -12 55 -40
79 -74 66 -31 -11 -31 -11 -31 22 0 50 -25 64 -45 26z m73 -102 c39 -19 42
-23 26 -32 -11 -5 -26 -19 -36 -30 -16 -21 -16 -21 -31 15 -8 19 -20 39 -26
42 -17 11 -13 26 6 26 9 0 37 -10 61 -21z m480 -1118 c4 -24 -15 -54 -29 -45
-11 6 -12 58 -2 68 12 12 28 0 31 -23z m-3117 -1357 c40 -20 35 -48 -9 -52
-31 -3 -32 -2 -32 32 0 41 1 41 41 20z"/>
<path d="M16867 10054 c-19 -19 -7 -54 19 -54 22 0 25 4 22 27 -3 27 -26 41
-41 27z"/>
<path d="M16763 9994 c-26 -11 -13 -43 22 -55 28 -10 40 -24 59 -64 14 -31 35
-57 54 -68 31 -18 53 -9 28 12 -7 6 -16 34 -20 61 -6 44 -10 50 -30 50 -26 0
-42 15 -48 45 -3 20 -39 30 -65 19z"/>
<path d="M11178 9833 c-9 -2 -20 -14 -24 -26 -8 -26 -33 -60 -92 -123 -42 -45
-51 -79 -22 -79 8 0 16 8 18 18 2 9 39 53 83 96 93 92 106 132 37 114z"/>
<path d="M10876 9463 c-3 -10 -29 -43 -57 -73 -28 -30 -63 -73 -77 -95 -23
-37 -60 -79 -154 -175 -21 -21 -38 -43 -38 -49 0 -5 -9 -13 -20 -16 -11 -3
-20 -11 -20 -16 0 -5 -7 -17 -15 -26 -16 -19 -87 -104 -145 -174 -19 -23 -41
-52 -48 -65 -7 -13 -17 -24 -22 -24 -10 0 -50 -58 -50 -72 0 -5 4 -8 9 -8 13
0 141 124 141 136 0 6 14 23 31 40 17 16 39 45 49 65 11 20 26 39 34 42 8 3
24 23 35 44 27 50 105 132 139 144 30 12 108 105 133 159 9 20 28 44 43 53 14
10 26 23 26 30 0 8 11 24 25 37 14 13 25 32 25 42 0 24 -37 24 -44 1z"/>
<path d="M17067 9333 c-9 -8 -9 -98 0 -106 15 -16 33 18 33 64 0 46 -13 63
-33 42z"/>
<path d="M5903 9204 c-8 -21 10 -99 22 -97 13 2 29 77 22 97 -4 9 -13 16 -22
16 -9 0 -18 -7 -22 -16z"/>
<path d="M6478 9018 c-9 -23 3 -38 28 -38 17 0 24 6 24 19 0 27 -44 43 -52 19z"/>
<path d="M6441 8931 c-6 -11 -11 -35 -11 -54 0 -54 -11 -97 -26 -97 -19 0 -28
-20 -15 -33 8 -8 16 -5 31 11 12 12 27 22 35 22 12 0 15 16 15 79 0 81 -11
107 -29 72z"/>
<path d="M6532 8918 c-6 -18 -13 -49 -16 -69 -4 -21 -15 -48 -26 -62 -11 -14
-20 -34 -20 -46 0 -11 -8 -26 -18 -33 -29 -20 -37 -91 -12 -113 25 -23 70 -99
70 -119 0 -8 -9 -24 -21 -35 -29 -27 -21 -53 19 -63 59 -16 85 -46 77 -95 -6
-39 -4 -43 19 -49 14 -3 26 -12 26 -18 0 -7 14 -25 30 -41 17 -16 34 -43 38
-60 6 -22 19 -35 48 -48 92 -43 195 -176 150 -193 -27 -10 -27 -36 -1 -62 l25
-25 24 22 c20 18 25 20 35 7 6 -7 24 -19 39 -25 15 -6 32 -22 37 -34 6 -12 20
-23 33 -25 12 -2 22 -8 22 -13 0 -5 12 -9 28 -9 21 0 45 -18 105 -80 46 -47
86 -80 98 -80 11 0 39 -18 62 -40 37 -36 47 -41 87 -40 77 2 151 -11 157 -29
3 -9 19 -28 35 -44 24 -22 28 -33 23 -56 -9 -41 13 -51 40 -18 31 40 99 27 82
-16 -12 -32 11 -42 100 -43 l88 -1 5 -34 c6 -43 44 -50 47 -9 2 47 3 50 11 50
22 0 69 -60 65 -83 -7 -34 27 -46 46 -18 20 30 94 30 115 -1 13 -18 24 -21 58
-19 38 2 46 -2 80 -40 l38 -42 23 21 22 21 28 -25 c27 -23 34 -24 103 -18 84
8 107 -9 63 -45 -22 -18 -22 -20 -6 -26 11 -5 23 0 36 16 l18 23 14 -22 c16
-25 34 -29 42 -8 7 18 -1 26 -25 26 -20 0 -22 8 -8 30 9 13 13 12 29 -7 24
-29 33 -29 50 -1 l14 22 18 -23 c23 -28 49 -21 49 14 0 30 26 34 46 8 10 -15
15 -16 26 -5 11 11 10 15 -4 23 -22 12 -23 35 -2 43 29 11 44 6 54 -19 15 -38
90 -33 90 6 0 14 -9 21 -30 26 -55 10 -37 43 24 43 17 0 34 12 53 35 30 38 53
44 73 20 21 -26 60 25 60 79 0 44 16 67 62 90 38 19 45 75 13 100 -19 15 -26
29 -23 46 4 33 42 39 60 11 18 -30 34 -26 47 11 10 28 9 35 -8 48 -23 19 -15
46 19 63 16 8 26 23 28 41 4 35 29 76 46 76 7 0 20 15 29 33 41 84 47 99 42
107 -8 13 -55 13 -55 0 0 -5 -20 -31 -45 -57 -25 -25 -45 -50 -45 -55 0 -5
-27 -39 -60 -76 -33 -37 -68 -76 -78 -87 -9 -11 -52 -59 -94 -107 -43 -48 -78
-92 -78 -97 0 -5 -8 -11 -19 -14 -10 -2 -32 -30 -50 -60 -50 -87 -77 -87 -391
3 -168 48 -208 59 -245 65 -22 4 -45 11 -51 16 -7 5 -39 14 -73 20 -34 6 -99
24 -144 41 -45 16 -99 33 -121 39 -21 5 -48 16 -60 24 -11 8 -27 15 -36 15 -8
0 -37 12 -65 25 -27 14 -55 25 -61 25 -6 0 -17 7 -24 15 -7 8 -19 15 -27 15
-17 0 -188 83 -298 145 -44 25 -87 48 -95 52 -8 4 -35 21 -59 38 -61 43 -91
62 -131 84 -19 10 -44 29 -55 41 -11 12 -42 38 -70 58 -85 62 -277 262 -330
346 -28 42 -60 90 -71 104 -12 15 -25 38 -29 52 -4 14 -15 34 -25 45 -10 11
-18 35 -18 54 0 20 -9 41 -21 53 -15 14 -21 31 -21 64 0 48 -13 81 -39 101
-24 18 -29 16 -39 -19z m1284 -1479 c3 -6 1 -15 -6 -19 -16 -10 -73 3 -78 18
-5 16 74 17 84 1z m1132 -281 c3 -14 -3 -18 -27 -18 -29 0 -41 17 -24 34 13
13 48 1 51 -16z"/>
<path d="M10167 8634 c-10 -10 -9 -42 2 -48 18 -11 42 6 39 28 -3 21 -28 33
-41 20z"/>
<path d="M6383 8528 c-1 -29 -4 -62 -5 -73 -2 -15 3 -20 22 -20 23 0 25 3 22
40 -1 22 -3 55 -3 73 -1 60 -34 42 -36 -20z"/>
<path d="M10037 8483 c-16 -16 -7 -53 13 -53 16 0 20 7 20 30 0 28 -17 40 -33
23z"/>
<path d="M9973 8413 c-26 -10 -13 -33 17 -33 23 0 30 4 30 20 0 20 -19 25 -47
13z"/>
<path d="M9881 8266 c-6 -13 -19 -27 -30 -31 -12 -3 -21 -10 -21 -14 0 -7 -32
-45 -100 -117 -25 -26 -26 -54 -2 -54 21 0 142 134 142 157 0 6 9 18 20 28 22
20 26 40 10 50 -6 3 -14 -5 -19 -19z"/>
<path d="M15670 8140 c-6 -11 -16 -20 -23 -20 -28 0 -61 -32 -43 -42 18 -10
51 4 60 27 3 8 14 15 24 15 22 0 46 23 35 33 -13 14 -43 6 -53 -13z"/>
<path d="M7835 8037 c7 -16 119 -67 165 -74 l35 -6 -29 32 c-19 20 -39 31 -57
31 -14 0 -32 7 -39 15 -16 19 -82 21 -75 2z"/>
<path d="M15436 8022 c-6 -9 -95 -53 -146 -71 -19 -7 -67 -24 -107 -37 -39
-14 -74 -32 -77 -41 -10 -24 79 -11 108 16 14 13 35 21 58 21 19 0 46 8 59 19
13 10 38 21 54 25 43 9 95 43 95 61 0 16 -35 21 -44 7z"/>
<path d="M8070 7931 c0 -5 29 -19 64 -31 35 -11 71 -29 81 -40 11 -12 42 -23
88 -30 40 -6 94 -18 121 -26 58 -17 76 -18 76 -4 0 12 -61 43 -115 58 -22 6
-67 18 -100 27 -66 18 -69 19 -105 40 -28 16 -110 20 -110 6z"/>
<path d="M14940 7828 l-45 -22 43 -4 c28 -2 52 2 68 13 58 37 6 48 -66 13z"/>
<path d="M8623 7764 c-8 -21 11 -31 47 -26 41 6 47 20 15 32 -37 14 -55 12
-62 -6z"/>
<path d="M14625 7749 c-22 -10 -56 -19 -76 -19 -40 0 -54 -11 -64 -53 -10 -37
25 -38 54 -1 13 16 33 28 53 30 38 5 118 42 118 55 0 15 -42 9 -85 -12z"/>
<path d="M13840 7735 c0 -9 -11 -20 -25 -25 -15 -6 -25 -17 -25 -30 0 -29 25
-25 49 9 22 31 28 61 11 61 -5 0 -10 -7 -10 -15z"/>
<path d="M12934 7595 c-10 -39 23 -71 51 -51 16 12 18 19 10 43 -14 39 -52 44
-61 8z"/>
<path d="M15946 7484 c-3 -9 -6 -24 -6 -35 0 -13 -7 -19 -22 -19 -32 0 -52
-15 -45 -34 6 -15 19 -15 95 0 31 6 34 104 3 104 -10 0 -22 -7 -25 -16z"/>
<path d="M9202 7173 c5 -25 56 -42 68 -23 13 21 -7 40 -42 40 -23 0 -29 -4
-26 -17z"/>
<path d="M10320 7060 c-8 -5 -25 -10 -37 -10 -13 0 -23 -6 -23 -12 0 -30 13
-58 26 -58 15 0 20 -45 5 -54 -4 -3 -16 3 -26 14 -34 38 -57 16 -52 -50 2 -21
-2 -25 -22 -22 -48 5 -55 -18 -15 -52 26 -22 35 -37 31 -51 -5 -19 -5 -19 -12
3 -18 56 -81 1 -70 -61 12 -63 -22 -104 -68 -81 -37 19 -70 -4 -65 -45 4 -32
41 -40 69 -15 24 21 42 8 37 -27 -2 -16 -12 -25 -35 -31 -34 -9 -42 -25 -22
-45 12 -12 14 -28 17 -110 2 -54 32 -63 32 -10 0 21 8 41 20 52 11 10 20 27
20 37 0 11 5 29 12 41 7 12 11 31 10 42 -2 12 9 38 23 58 14 21 25 46 25 55 0
9 11 35 25 57 13 22 25 52 25 66 0 15 6 32 14 38 8 7 17 29 21 51 4 21 13 46
20 57 8 10 15 32 15 50 0 21 7 37 20 46 43 30 23 95 -20 67z"/>
<path d="M14397 7014 c-11 -11 -8 -89 3 -100 17 -17 102 -4 98 15 -2 10 -15
17 -35 19 -27 3 -32 7 -35 34 -3 31 -17 45 -31 32z"/>
<path d="M9957 6416 c-7 -50 -1 -79 17 -73 12 4 9 96 -3 110 -5 4 -11 -12 -14
-37z"/>
<path d="M14440 5863 c-53 -10 -43 -23 17 -23 65 0 93 6 93 21 0 9 -64 10
-110 2z"/>
<path d="M14214 5815 c-17 -13 -11 -14 69 -15 71 0 87 3 87 15 0 21 -128 21
-156 0z"/>
<path d="M14003 5783 c-31 -12 -8 -23 46 -23 63 0 91 6 91 21 0 9 -115 11
-137 2z"/>
<path d="M13760 5763 c0 -29 39 -44 106 -41 85 4 96 23 17 31 -32 4 -73 9 -90
13 -19 4 -33 2 -33 -3z"/>
<path d="M13625 5720 c-27 -5 -74 -9 -103 -9 -45 -1 -53 -4 -50 -18 7 -37 247
-16 262 22 6 17 -23 18 -109 5z"/>
<path d="M1465 3578 c-3 -7 -4 -494 -3 -1083 l3 -1069 253 -1 c140 0 256 3
259 8 2 4 4 490 4 1080 l0 1072 -256 3 c-199 2 -257 0 -260 -10z"/>
<path d="M3750 3576 c-7 -391 2 -2141 10 -2146 16 -10 387 -7 397 3 9 10 7
276 -9 1072 -14 677 -14 655 3 665 14 9 39 -5 39 -23 0 -5 9 -28 19 -51 23
-48 48 -123 63 -186 6 -25 17 -54 24 -65 8 -11 14 -30 14 -42 0 -13 9 -40 20
-60 11 -21 20 -46 20 -56 0 -11 6 -31 14 -45 20 -40 66 -160 66 -175 0 -7 9
-30 20 -52 11 -22 20 -46 20 -55 0 -9 6 -24 14 -35 7 -11 17 -36 21 -55 4 -19
13 -44 20 -55 7 -11 15 -34 19 -52 4 -17 16 -48 27 -69 10 -21 19 -45 19 -54
0 -9 6 -24 14 -35 7 -11 17 -36 21 -55 4 -19 13 -44 20 -55 7 -11 16 -34 20
-52 3 -17 15 -48 26 -69 10 -21 19 -48 19 -60 0 -12 6 -27 14 -33 8 -7 17 -28
21 -47 3 -20 12 -50 20 -68 8 -17 16 -42 19 -56 4 -14 16 -37 29 -52 l23 -28
331 -2 c183 -1 335 1 338 4 4 3 6 489 6 1079 l1 1074 -203 0 -203 0 3 -645 c2
-538 11 -918 24 -1075 2 -25 -2 -31 -21 -33 -34 -5 -49 13 -56 66 -3 27 -13
57 -21 68 -8 10 -15 30 -15 44 0 14 -9 42 -20 63 -11 20 -20 47 -20 60 0 12
-9 39 -20 60 -11 20 -20 46 -20 57 0 11 -9 37 -20 57 -11 21 -20 45 -20 53 -1
8 -9 33 -20 55 -11 22 -19 47 -20 55 0 9 -9 33 -20 55 -11 22 -20 46 -20 55 0
9 -6 24 -14 35 -7 11 -17 36 -21 55 -4 19 -13 44 -20 55 -7 11 -16 36 -20 55
-4 19 -13 44 -20 55 -7 11 -16 36 -20 55 -4 19 -13 44 -20 55 -7 11 -15 34
-19 52 -4 17 -16 48 -27 69 -10 21 -19 46 -19 56 0 9 -4 20 -10 23 -5 3 -14
25 -20 48 -6 23 -17 53 -24 67 -8 14 -17 41 -21 60 -4 19 -13 44 -20 55 -7 11
-16 36 -20 55 -4 19 -14 44 -21 55 -8 11 -14 28 -14 38 0 10 -10 28 -23 41
l-23 23 -337 0 c-244 1 -337 -2 -337 -11z"/>
<path d="M7234 3578 c-7 -10 -6 -2140 1 -2146 3 -3 109 -6 236 -6 223 -1 232
0 238 19 4 11 4 216 0 455 -5 334 -3 437 6 445 8 7 150 7 416 2 222 -4 414 -5
427 -2 22 5 22 6 22 199 0 146 -3 195 -12 198 -7 3 -200 2 -428 -1 -233 -4
-420 -3 -427 2 -17 13 -17 432 0 444 7 5 203 5 437 2 234 -4 428 -4 433 0 4 4
6 95 5 202 l-3 194 -673 0 c-371 0 -676 -3 -678 -7z"/>
<path d="M10260 3588 c-4 -25 0 -2150 3 -2155 6 -9 494 -10 503 -1 13 14 9
2148 -4 2153 -13 5 -502 7 -502 3z"/>
<path d="M12555 3579 c-8 -12 -7 -2140 0 -2148 10 -9 378 -9 391 0 13 10 8
1082 -6 1456 -6 158 -6 252 0 269 15 38 42 27 52 -21 5 -21 15 -46 22 -54 7
-9 17 -34 21 -56 4 -21 13 -52 21 -67 8 -15 14 -35 14 -45 1 -10 9 -36 20 -58
11 -22 19 -49 20 -60 0 -11 6 -29 14 -40 7 -11 16 -33 20 -50 8 -35 41 -123
67 -181 11 -23 19 -50 19 -60 0 -11 6 -28 14 -39 7 -11 17 -36 21 -55 4 -19
13 -46 21 -60 14 -25 33 -75 60 -159 7 -24 18 -49 23 -55 5 -6 12 -28 16 -48
4 -21 13 -42 21 -49 8 -6 14 -21 14 -33 0 -12 9 -39 20 -61 11 -21 23 -54 26
-72 3 -18 10 -36 15 -39 5 -2 15 -26 23 -52 8 -26 27 -78 41 -117 14 -38 30
-84 34 -102 9 -32 47 -93 59 -93 299 -4 662 -3 667 2 3 3 6 489 6 1079 l0
1074 -202 0 -203 0 3 -630 c2 -577 12 -974 27 -1082 6 -39 4 -43 -16 -43 -42
0 -58 17 -65 72 -4 29 -14 62 -21 73 -8 11 -14 29 -14 40 -1 11 -9 38 -20 60
-11 22 -20 49 -20 60 0 11 -9 38 -20 60 -11 22 -19 48 -20 58 0 11 -7 31 -15
45 -16 29 -40 92 -59 157 -6 22 -17 49 -23 60 -6 11 -14 36 -18 55 -4 19 -11
40 -16 46 -8 10 -28 63 -64 169 -7 22 -20 54 -29 70 -9 17 -16 40 -16 52 0 12
-4 25 -10 28 -5 3 -14 25 -20 48 -6 23 -20 60 -31 83 -10 22 -19 45 -19 50 0
5 -9 27 -20 49 -11 22 -20 48 -20 60 0 11 -7 29 -15 39 -8 11 -15 27 -15 36 0
9 -8 32 -19 53 -10 20 -22 53 -26 74 -4 20 -13 46 -21 57 -8 11 -14 28 -14 37
0 9 -9 27 -19 40 l-19 24 -336 1 c-185 1 -339 -2 -341 -7z"/>
<path d="M16082 3577 c-8 -10 -9 -57 -2 -168 13 -213 13 -1595 -1 -1798 -7
-116 -7 -167 0 -174 13 -13 500 -17 508 -4 2 4 4 490 4 1080 l0 1072 -249 3
c-199 2 -252 0 -260 -11z"/>
<path d="M18224 3581 c-2 -2 -4 -93 -4 -202 0 -179 2 -199 18 -207 10 -6 109
-5 252 3 296 16 282 21 275 -108 -15 -276 -24 -1622 -10 -1635 9 -9 469 -9
487 0 18 9 18 12 3 293 -3 50 -5 396 -6 769 -2 660 -2 680 17 686 10 4 124 2
253 -5 221 -12 270 -11 272 4 4 28 3 394 -1 399 -5 7 -1549 10 -1556 3z"/>
<path d="M21405 3584 c-11 -4 -12 -2141 -1 -2151 9 -9 497 -9 502 -1 3 5 7
1966 4 2146 0 11 -477 18 -505 6z"/>
<path d="M23200 1882 c-85 -26 -190 -106 -190 -144 0 -6 -8 -20 -17 -31 -15
-15 -18 -38 -18 -117 0 -79 3 -102 18 -117 9 -11 17 -25 17 -31 0 -18 58 -79
109 -114 62 -44 245 -50 295 -10 16 12 33 22 38 22 4 0 21 14 36 31 15 17 35
38 44 47 10 9 21 32 24 52 4 19 13 44 20 55 18 26 18 100 0 133 -8 15 -17 39
-20 53 -5 23 -61 87 -122 140 -19 16 -90 37 -149 44 -16 2 -55 -4 -85 -13z
m170 -86 c176 -94 175 -327 0 -416 -124 -63 -286 22 -305 159 -28 201 142 344
305 257z"/>
<path d="M23193 1749 c-20 -21 -18 -318 2 -325 26 -10 44 15 47 68 l3 50 28
-24 c15 -13 27 -29 27 -35 0 -16 48 -63 63 -63 37 0 40 37 7 75 -42 48 -43 64
-11 94 40 37 43 96 8 137 -27 31 -151 48 -174 23z m119 -74 c14 -32 -5 -57
-41 -53 -27 3 -39 33 -27 64 9 24 55 17 68 -11z"/>
</g>
</svg>
