<?xml version="1.0" encoding="UTF-8"?>
<svg version="1.1" xmlns="http://www.w3.org/2000/svg" width="2272" height="1704">
<path d="M0 0 C1.23679504 0.00149048 2.47359009 0.00298096 3.74786377 0.0045166 C25.03197422 0.05030872 46.09813387 0.93892087 67.27099609 3.08789062 C69.48080951 3.31056624 71.69136022 3.52366448 73.90234375 3.734375 C165.58853006 12.55961507 256.18588866 37.57663983 426.5 93.3125 C427.35926086 93.62556091 428.21852173 93.93862183 429.1038208 94.26116943 C485.98249732 115.01228383 542.0464623 138.02590687 597.5 162.3125 C598.76970642 162.86807587 598.76970642 162.86807587 600.06506348 163.43487549 C624.40444899 174.0869559 648.64135251 184.94100633 672.74707031 196.11181641 C676.91148253 198.04127171 681.07924444 199.96339161 685.2477417 201.88400269 C705.04847283 211.00836962 724.77599724 220.25619849 744.37890625 229.79833984 C749.11670236 232.09682322 753.87092977 234.36042813 758.625 236.625 C784.44008105 248.95163794 810.11439368 261.55019 835.67651367 274.39257812 C845.15002637 279.15114158 854.63708411 283.88263867 864.12418652 288.61403179 C869.44320297 291.26683926 874.76145694 293.92117226 880.07933521 296.57626057 C883.53779025 298.30288783 886.99662061 300.02875449 890.45629883 301.75292969 C905.18567579 309.09421112 919.89683308 316.45270796 934.41702271 324.20257568 C937.24299028 325.70840589 940.07610728 327.20052101 942.90921021 328.69287109 C959.50971585 337.43879844 976.06434604 346.25981081 992.5 355.3125 C994.21715992 356.25571817 995.93432302 357.19893054 997.65156555 358.14199829 C1011.42790055 365.70980814 1025.16179052 373.34720057 1038.83203125 381.10546875 C1043.80030389 383.92281645 1048.78640833 386.70727683 1053.77563477 389.48730469 C1064.00482059 395.18993164 1074.16368028 400.99697553 1084.26708984 406.91943359 C1095.51743043 413.50915434 1106.83996022 419.97081777 1118.17236328 426.41796875 C1121.25113532 428.17081329 1124.3269921 429.92866414 1127.40234375 431.6875 C1207.13506969 477.82635049 1207.13506969 477.82635049 1295.92822266 497.08251953 C1299.06977625 497.28479865 1302.16750666 497.59769443 1305.29296875 497.96484375 C1321.48846157 499.46761001 1333.01463445 492.15611163 1346.41455078 484.1328125 C1350.29776091 481.84184758 1354.25953846 479.78307432 1358.3125 477.8125 C1358.92335449 477.5119873 1359.53420898 477.21147461 1360.16357422 476.90185547 C1361.93918539 476.03217823 1363.71957775 475.17228495 1365.5 474.3125 C1366.15274902 473.99313477 1366.80549805 473.67376953 1367.47802734 473.34472656 C1369.48108692 472.36652172 1371.48941897 471.40013728 1373.5 470.4375 C1374.655 469.88320313 1375.81 469.32890625 1377 468.7578125 C1385.02134055 465.44542857 1392.9182305 463.65169755 1401.1875 466.9375 C1406.67213105 469.60416544 1410.21549194 473.61606431 1412.5 479.3125 C1413.81949686 489.86847489 1412.19318982 497.21356269 1406.5 506.3125 C1403.75947308 505.2848024 1402.66658155 504.59481699 1401.15625 502.03515625 C1400.58390625 500.71837891 1400.58390625 500.71837891 1400 499.375 C1398.35506144 495.60164432 1397.04129542 493.48494854 1393.5 491.3125 C1379.81486862 486.75078954 1364.52683697 494.63425357 1352.0625 499.6875 C1315.22436559 514.54881395 1277.86440852 519.0950906 1240.72265625 503.4921875 C1227.19933241 497.63602974 1214.01990132 491.03254583 1200.82958984 484.4697876 C1198.47932131 483.30222729 1196.12678606 482.13936582 1193.7734375 480.97802734 C1176.7848201 472.59329091 1159.87150618 464.13143533 1143.32958984 454.88769531 C1140.12973094 453.1063761 1136.91920808 451.34489749 1133.70703125 449.5859375 C1111.73389429 437.54285366 1089.98873705 425.12842991 1068.36816406 412.46264648 C1059.1907077 407.10150527 1049.92100306 401.91154195 1040.63671875 396.73828125 C1035.75973552 394.02050285 1030.89757104 391.27777284 1026.04199219 388.52197266 C1006.09758869 377.20340159 986.00666449 366.15390318 965.79956055 355.31176758 C960.05119415 352.22741726 954.31447384 349.12407017 948.59521484 345.98608398 C925.30383249 333.20978572 901.75551615 320.90787856 878.140625 308.7421875 C873.16107853 306.17563085 868.19712737 303.58134965 863.24072266 300.97045898 C836.1181865 286.71196618 808.81449771 273.05289275 780.5 261.3125 C782.23616929 265.00497839 784.39450174 267.5684743 787.1875 270.5625 C790.13497169 273.73458461 793.04365739 276.92182298 795.8828125 280.19140625 C799.39163496 284.21795506 803.01921477 288.11892708 806.6875 292 C811.48905161 297.09746396 816.26536812 302.21532903 821 307.375 C824.55611964 311.24773651 828.17570766 315.02949833 831.9296875 318.7109375 C833.67913223 320.49519706 835.30715582 322.35646124 836.9375 324.25 C839.35617779 327.05826347 841.85899683 329.71220593 844.5 332.3125 C847.64790482 335.41835266 850.57758238 338.63441518 853.45703125 341.98828125 C855.54983019 344.36919018 857.6991846 346.68661083 859.86328125 349.00244141 C865.36738139 354.89408209 870.58645899 360.91044509 875.5 367.3125 C872.5 368.3125 872.5 368.3125 870.6171875 367.5546875 C853.58257367 357.16772785 838.38277539 343.68948797 823.23095703 330.78466797 C821.42651182 329.24999877 819.61762481 327.72066579 817.80859375 326.19140625 C812.37135724 321.58068704 807.00592015 316.99808075 802.046875 311.8671875 C799.76409625 309.57287957 797.30738733 307.49717091 794.85546875 305.38671875 C792.48390945 303.29833071 790.17142024 301.15773633 787.86254883 299.00073242 C781.61141349 293.16688611 775.23847628 287.58493819 768.5 282.3125 C767.92975098 281.86438965 767.35950195 281.4162793 766.77197266 280.95458984 C736.18262056 257.04780978 695.11195992 231.22825553 655.31640625 229.84765625 C653.31704665 229.76915086 651.31769799 229.69036623 649.31835938 229.61132812 C646.18720349 229.49172087 643.05600433 229.37476803 639.92456055 229.26293945 C636.88816566 229.15291996 633.85233733 229.03222588 630.81640625 228.91015625 C629.88703751 228.87986832 628.95766876 228.84958038 628.00013733 228.81837463 C622.83977646 228.60363609 618.39964557 227.96442839 613.5 226.3125 C615.82691038 222.82213443 617.13186265 222.65424594 621.08410645 221.78852844 C621.85041382 221.63530624 622.61672119 221.48208405 623.40625 221.32421875 C624.2051062 221.15605148 625.0039624 220.98788422 625.82702637 220.81462097 C634.83559407 218.96084726 643.9124196 217.52762854 653 216.125 C655.49807353 215.73661972 657.99584801 215.34655777 660.49304199 214.95256042 C662.02611072 214.71091123 663.55970449 214.472563 665.09387207 214.23799133 C668.91355936 213.67045192 668.91355936 213.67045192 672.5 212.3125 C657.07010204 205.49361674 641.43463036 199.37713788 625.625 193.5 C623.17622274 192.58590009 620.72749328 191.67167209 618.27880859 190.75732422 C592.41322385 181.11002695 566.47155004 171.67038596 540.5 162.3125 C539.04237244 161.78719696 539.04237244 161.78719696 537.55529785 161.25128174 C511.24950152 151.77552576 484.88536946 142.46780405 458.45825195 133.33587646 C455.38865711 132.27398209 452.32024122 131.20873022 449.25195312 130.14306641 C408.65424604 116.05756266 367.88584351 102.95151133 326.1875 92.5 C324.67438736 92.11971649 324.67438736 92.11971649 323.13070679 91.73175049 C312.64137624 89.11100981 302.24584997 86.62973322 291.5 85.3125 C294.39455653 94.34197943 297.55251431 103.14727591 301.265625 111.875 C302.52501855 115.38217192 303.10395153 118.61604761 303.5 122.3125 C299.16221739 121.78857599 296.97097294 120.3961113 293.6875 117.5625 C292.72457031 116.75039063 291.76164062 115.93828125 290.76953125 115.1015625 C290.24568848 114.65458008 289.7218457 114.20759766 289.18212891 113.74707031 C235.66979439 68.11013597 165.38000079 45.47495115 96.5 36.3125 C95.71488037 36.2079248 94.92976074 36.10334961 94.12084961 35.99560547 C72.89678381 33.39351033 52.13969833 34.86163362 34.578125 48.21484375 C32.10221441 50.15023865 29.67962628 52.14067602 27.265625 54.15234375 C24.5 56.3125 24.5 56.3125 22.5 56.3125 C27.59556502 62.32467076 33.00699453 67.92598418 38.6171875 73.45703125 C40.37644059 75.20363655 42.13555073 76.95038584 43.89453125 78.69726562 C46.63295356 81.41094463 49.37295909 84.12298399 52.11572266 86.83227539 C54.78742611 89.47348214 57.45263009 92.12111803 60.1171875 94.76953125 C60.92372772 95.56261185 61.73026794 96.35569244 62.56124878 97.17280579 C70.26822639 104.84629389 77.58728923 113.15733493 83.5 122.3125 C83.5 123.3025 83.5 124.2925 83.5 125.3125 C77.08452105 125.07488967 73.18465303 121.51269584 68.3125 117.75 C67.46171875 117.10957764 66.6109375 116.46915527 65.734375 115.80932617 C62.30068292 113.2239002 58.88863407 110.61113989 55.48046875 107.9921875 C35.6805314 93.08766773 13.15451816 83.22255709 -10.5 76.3125 C-50.20062177 64.56408171 -50.20062177 64.56408171 -56.5 56.3125 C-56.07641602 54.21240234 -56.07641602 54.21240234 -55.5 52.3125 C-54.53288086 52.29791748 -53.56576172 52.28333496 -52.56933594 52.26831055 C-48.92348303 52.20960148 -45.27820188 52.1323859 -41.6328125 52.05004883 C-40.06585078 52.01713621 -38.49878007 51.98900384 -36.93164062 51.96606445 C-18.326284 51.68650826 -3.25281417 46.77057486 13 37.75 C13.98758301 37.20448486 13.98758301 37.20448486 14.99511719 36.64794922 C22.31667032 32.58425912 22.31667032 32.58425912 27.5 26.3125 C17.38059472 24.12519379 7.54213423 23.99848171 -2.75 24.0625 C-4.05858978 24.06665421 -4.05858978 24.06665421 -5.39361572 24.07089233 C-88.53690219 22.04509927 -88.53690219 22.04509927 -161.890625 55.41796875 C-163.59315133 57.4221563 -164.11210985 58.7398756 -164.5 61.3125 C-159.77426664 59.66876666 -156.46832774 57.59979218 -152.625 54.375 C-141.93309404 45.52203677 -130.93821269 44.5338623 -117.5 45.3125 C-113.49659024 46.18700369 -110.45011452 47.36238548 -107.5 50.3125 C-107.38197922 56.21353921 -109.43294268 59.0872841 -113.44140625 63.28125 C-114.12074219 63.9515625 -114.80007813 64.621875 -115.5 65.3125 C-116.12777344 65.9621875 -116.75554687 66.611875 -117.40234375 67.28125 C-128.8158565 78.32234487 -143.57957664 83.82194399 -158.2121582 89.2434082 C-179.50506976 97.17234462 -179.50506976 97.17234462 -194.5 113.3125 C-195.70589679 117.50362382 -195.81174829 120.41189382 -194.375 124.5625 C-190.75584585 129.87059275 -185.48838271 133.14295654 -179.5 135.3125 C-175.46488849 136.06955657 -172.32665236 135.69944366 -168.5625 133.9375 C-159.85864029 127.11367398 -153.87504856 117.70615809 -147.6652832 108.7199707 C-131.8029828 85.80871415 -131.8029828 85.80871415 -120.5 81.3125 C-110.12893714 79.97747158 -103.04105552 82.11202243 -94.8359375 88.33203125 C-86.68823307 95.19388852 -81.11865043 103.29153696 -80.1640625 114.125 C-79.68764017 135.84105459 -88.45378171 152.42157737 -103.0625 168.0546875 C-108.42558759 173.55489948 -114.01730433 178.53798171 -120.08984375 183.2421875 C-122.61390828 185.41034665 -124.57615824 187.60041752 -126.5 190.3125 C-126.75695267 192.53536468 -126.75695267 192.53536468 -125.5 194.3125 C-121.2665065 196.95843344 -116.31691129 197.14855626 -111.5 196.3125 C-100.21632311 191.9104286 -93.04121389 181.66890139 -86.375 172.0625 C-78.7981227 161.2100422 -71.9526403 156.88635145 -59.2578125 153.4296875 C-47.18993795 150.05068263 -38.10790135 144.01441589 -31.25390625 133.37890625 C-25.34484216 122.62137932 -25.49960474 110.29727099 -28.4296875 98.6015625 C-29.39084706 95.47954786 -30.43115624 92.39878635 -31.5 89.3125 C-31.85138886 87.98381089 -32.19306212 86.65215594 -32.5 85.3125 C-20.03572627 86.9501418 -10.74616241 95.20218247 -3.27294922 104.90576172 C-0.55914079 108.6253481 1.96816646 112.46803689 4.5 116.3125 C14.95210992 131.87143929 26.45132295 136.11658811 43.75 141.625 C68.61222661 149.84239908 88.98626386 163.34438787 108.0546875 181.05078125 C110.1653644 183.0029888 112.31227557 184.88556278 114.5 186.75 C117.88268672 189.6984702 121.1169268 192.78864264 124.3125 195.9375 C125.22644531 196.83726562 126.14039063 197.73703125 127.08203125 198.6640625 C132.5 204.59844507 132.5 204.59844507 132.5 208.3125 C127.39750106 207.79598937 123.60315903 205.99750851 119.25 203.4375 C118.55817627 203.04038818 117.86635254 202.64327637 117.15356445 202.23413086 C112.69190167 199.65342879 108.29774464 196.96989891 103.91674805 194.25512695 C65.13385312 170.24464562 22.43310806 153.28192038 -23.56591797 163.78417969 C-47.68026908 169.79926055 -68.063577 183.64726874 -87.01171875 199.18359375 C-98.5401442 208.57014326 -109.14038034 215.39358877 -124.5 214.3125 C-130.02134981 212.57429728 -133.37635611 209.05342634 -136.5 204.3125 C-139.90414777 196.59173386 -139.92576487 188.80458044 -139.8125 180.5 C-139.81572266 179.29923828 -139.81894531 178.09847656 -139.82226562 176.86132812 C-139.74687763 164.55937763 -139.74687763 164.55937763 -136.5 161.3125 C-134.2885352 161.48443694 -132.08046277 161.70070294 -129.875 161.9375 C-122.2569569 162.52417662 -122.2569569 162.52417662 -115.5 159.3125 C-109.31033004 152.83305149 -104.2318299 145.85490767 -103.375 136.6796875 C-103.92722006 126.22202011 -108.74575092 118.06674908 -115.9375 110.875 C-119.25554491 108.85180188 -121.61686285 108.38062521 -125.5 108.3125 C-132.19566956 110.58902765 -135.62869076 115.4082084 -138.75 121.4375 C-141.23766564 126.51478478 -141.63672929 130.7038871 -141.625 136.375 C-141.6237915 137.03459717 -141.62258301 137.69419434 -141.62133789 138.3737793 C-141.58201468 143.37145694 -141.22147513 148.27957579 -140.62109375 153.23828125 C-140.5 155.3125 -140.5 155.3125 -141.5 157.3125 C-149.27978821 156.80425545 -156.76538831 155.37275703 -164.35766602 153.63085938 C-166.29496196 153.19147765 -168.23833886 152.77919494 -170.18164062 152.3671875 C-188.34294422 148.22659513 -203.36818716 138.08877682 -213.5 122.3125 C-216.55286668 116.99960068 -218.9794652 111.5215941 -217.5 105.3125 C-213.39499967 95.52365306 -205.12008751 87.79784998 -197.625 80.4921875 C-189.60752856 72.67515285 -182.76870521 64.92935551 -178.47265625 54.49609375 C-170.56252154 36.73800016 -151.94339148 27.98507738 -134.77246094 21.17578125 C-113.17686971 12.9718695 -90.65376888 8.07966991 -67.875 4.5625 C-66.60358154 4.36382324 -65.33216309 4.16514648 -64.0222168 3.96044922 C-42.73718829 0.82946942 -21.4947211 -0.06458903 0 0 Z M-146.5 63.3125 C-146.5 64.6325 -146.5 65.9525 -146.5 67.3125 C-142.70419594 68.53288046 -140.31757498 67.90753493 -136.60546875 66.41015625 C-133.12599604 64.59618253 -130.20943286 62.14047055 -127.5 59.3125 C-127.5 58.9825 -127.5 58.6525 -127.5 58.3125 C-134.42496868 57.87968946 -141.29413194 58.10663194 -146.5 63.3125 Z M-175.09375 74.796875 C-176.0528125 75.54453125 -177.011875 76.2921875 -178 77.0625 C-178.78068848 77.66952759 -178.78068848 77.66952759 -179.57714844 78.28881836 C-188.45669002 85.30845596 -196.60906588 93.21268822 -204.5 101.3125 C-204.17 101.9725 -203.84 102.6325 -203.5 103.3125 C-196.15099232 98.51643596 -189.24908947 93.44529177 -182.625 87.6875 C-182.01970459 87.16196533 -181.41440918 86.63643066 -180.79077148 86.0949707 C-176.52262844 82.33295006 -172.48121725 78.37567902 -168.5 74.3125 C-171.85654573 73.19987735 -171.85654573 73.19987735 -175.09375 74.796875 Z " fill="#000000" transform="translate(536.5,360.6875)"/>
<path d="M0 0 C5.40485437 1.58155106 10.15195883 4.01565025 15.11328125 6.62109375 C16.92437703 7.56122601 18.73566367 8.50099067 20.54711914 9.44042969 C21.48878937 9.93039429 22.43045959 10.42035889 23.40066528 10.9251709 C56.33968655 28.03281789 90.02672089 41.598321 125 54 C125 54.66 125 55.32 125 56 C93.89853267 57.55033166 63.01691968 58.00563989 33 48 C33.19335938 48.66612305 33.38671875 49.33224609 33.5859375 50.01855469 C36.23453204 59.7639403 37.22126836 69.51570366 38.22949219 79.52929688 C38.99363965 92.94261079 38.99363965 92.94261079 45.234375 104.265625 C48.48197654 106.30225648 51.80264006 108.08367022 55.25 109.75 C55.95326416 110.09361572 56.65652832 110.43723145 57.38110352 110.79125977 C58.8576169 111.51043562 60.33558645 112.22662899 61.81494141 112.93994141 C63.86876992 113.93633508 65.90963746 114.95530944 67.94921875 115.98046875 C108.17544205 135.91444333 151.08595 141.26543519 195.42578125 142.6015625 C196.18362789 142.62451134 196.94147453 142.64746017 197.72228622 142.67110443 C212.22657774 143.08233632 226.7124293 142.9461803 241.21927017 142.72873867 C245.96666262 142.65786699 250.71408911 142.59805258 255.4617157 142.54525757 C256.48300999 142.53379414 256.48300999 142.53379414 257.5249365 142.52209914 C260.29937855 142.49110987 263.07382284 142.46041192 265.84828055 142.43085408 C273.63096127 142.34758957 281.41199428 142.24156133 289.19335938 142.07421875 C295.49153461 141.9389573 301.7884404 141.8514773 308.08800161 141.8175199 C311.38488796 141.79802853 314.67682109 141.74934497 317.97255325 141.65607452 C336.13998175 141.15780127 347.29490854 143.78846563 361 156 C362.45643417 157.23753021 362.45643417 157.23753021 363.94229126 158.50006104 C374.88749894 168.21536178 380.94296875 182.57977418 387.49435425 195.38034058 C397.06743422 214.08463882 407.59406186 231.41192213 422.0078125 246.8515625 C423.8186982 248.80447845 425.49905208 250.81694159 427.1875 252.875 C454.57920605 284.09026228 495.38285384 301.12442938 536 304 C539.54044375 304.20954138 543.08160854 304.37637569 546.625 304.52734375 C547.60910858 304.56964615 548.59321716 304.61194855 549.60714722 304.65553284 C560.02728655 305.07872612 570.44894953 305.23570988 580.87588501 305.38787842 C664.0699773 306.65844671 724.75475995 321.95164408 784 382 C781 383 781 383 778.5300293 382.01879883 C777.55461182 381.50341553 776.57919434 380.98803223 775.57421875 380.45703125 C774.47835449 379.88355957 773.38249023 379.31008789 772.25341797 378.71923828 C771.06465572 378.08388879 769.87601933 377.44830378 768.6875 376.8125 C767.46540494 376.16835159 766.2429071 375.5249668 765.02001953 374.88232422 C757.42619519 370.8793432 749.89488545 366.76501035 742.375 362.625 C716.89538879 348.63857311 692.3725582 340.33906569 663.3359375 337.51171875 C662.68049643 337.4477742 662.02505535 337.38382965 661.34975243 337.31794739 C642.0117065 335.45921647 622.60327948 334.73687481 603.20062256 333.88537598 C538.85332689 331.05503942 483.4901692 321.98440215 434.6953125 276.484375 C432.58332587 274.53767428 430.44537032 272.65437069 428.26953125 270.78125 C423.50863559 266.62860404 419.02616838 262.21814324 414.5625 257.75 C413.30191772 256.48820923 413.30191772 256.48820923 412.01586914 255.20092773 C407.02921521 250.16476162 402.30264343 245.10738937 397.953125 239.5078125 C395.79026062 236.73069463 393.49244997 234.09761521 391.1875 231.4375 C384.10706306 222.94970348 378.26376844 213.6079339 372.27880859 204.33251953 C357.0973042 180.836635 342.65535113 163.97195835 314.23828125 157.76171875 C305.13799233 156.02945028 296.09675895 155.86583655 286.85644531 155.91821289 C284.89152073 155.92292125 282.92659614 155.9276273 280.96167135 155.932248 C278.86544033 155.93810338 276.76923165 155.94642773 274.67301178 155.95540047 C270.26173133 155.9739095 265.85045838 155.98335251 261.43914795 155.99131775 C248.89917507 156.01529476 236.35925004 156.05081006 223.81933594 156.09594727 C216.88104139 156.12084154 209.94276638 156.13799521 203.00443339 156.14750665 C199.35387144 156.15287413 195.70341314 156.16190471 192.05289459 156.18089485 C166.95444801 156.30859581 141.99755285 155.2679043 117.0625 152.25 C116.36941742 152.16630157 115.67633484 152.08260315 114.96224976 151.99636841 C90.30993841 148.98179594 66.64440155 143.73031619 42.90551758 136.51928711 C42.09915359 136.27963226 41.29278961 136.03997742 40.46199036 135.7930603 C38.95363607 135.34422846 37.44855398 134.88417646 35.94779968 134.41055298 C29.2050144 132.42026767 24.04626447 133.11447153 17.890625 136.36328125 C16.97023438 136.83830078 16.04984375 137.31332031 15.1015625 137.80273438 C14.16054688 138.30095703 13.21953125 138.79917969 12.25 139.3125 C-5.94103102 148.87672592 -21.51516232 151.35896402 -41.88720703 151.31567383 C-44.96553712 151.31253514 -48.04288332 151.33595961 -51.12109375 151.36132812 C-67.3801216 151.41434891 -83.62429842 150.31425507 -99.1875 145.25 C-100.55104614 144.82207153 -100.55104614 144.82207153 -101.94213867 144.38549805 C-116.50705302 139.69063612 -130.81625921 134.18478079 -145.16835022 128.88415527 C-190.29644076 110.4490795 -190.29644076 110.4490795 -238 111 C-238.10546143 111.54414551 -238.21092285 112.08829102 -238.31958008 112.64892578 C-238.80822841 115.14280867 -239.31024657 117.63382299 -239.8125 120.125 C-239.97814453 120.9809375 -240.14378906 121.836875 -240.31445312 122.71875 C-241.29104987 127.50960193 -242.26693715 131.85739142 -245 136 C-247.1875 136.875 -247.1875 136.875 -249 137 C-249.13535156 136.16597656 -249.27070312 135.33195313 -249.41015625 134.47265625 C-250.988504 126.22177249 -253.44912388 121.21982785 -259 115 C-261.00733035 110.98533929 -260.61109821 106.35407473 -260 102 C-257.36906935 96.31531057 -252.88642426 92.18015713 -247 90 C-230.56693037 84.97477308 -211.53350927 88.08183561 -195 91 C-194.05382812 91.16677246 -193.10765625 91.33354492 -192.1328125 91.50537109 C-173.92435088 94.86453937 -156.39576452 100.41516817 -138.73754883 105.87939453 C-111.89227285 114.17796644 -85.41178601 121.16865886 -57.13647461 121.24023438 C-54.83475117 121.2499065 -52.53393565 121.28099602 -50.23242188 121.3125 C-37.60243445 121.40250515 -25.28079672 120.21292 -14 114 C-12.87851562 113.38705078 -12.87851562 113.38705078 -11.734375 112.76171875 C-1.49418829 106.5792931 4.60565283 97.19882515 7.90234375 85.91015625 C13.85588988 61.08085097 8.64325884 35.41934481 1.93115234 11.30859375 C1.68059082 10.40753906 1.4300293 9.50648438 1.171875 8.578125 C0.9459668 7.78825195 0.72005859 6.99837891 0.48730469 6.18457031 C0 4 0 4 0 0 Z " fill="#000000" transform="translate(864,549)"/>
<path d="M0 0 C3.97485486 -0.00652229 7.94933759 -0.04080788 11.92407227 -0.07226562 C37.82901739 -0.17928812 63.44391072 1.56930766 88.57446289 8.24023438 C89.28586426 8.42811523 89.99726562 8.61599609 90.73022461 8.80957031 C108.53802665 13.69593712 126.48325483 22.72031708 136.01196289 39.11523438 C145.72526842 56.86264508 146.85176993 75.89010858 141.57446289 95.24023438 C134.66656338 116.11575488 119.71630859 131.91400902 100.57446289 142.24023438 C98.59320439 142.96069201 96.597767 143.64804781 94.57446289 144.24023438 C102.50604293 166.07171211 122.85468341 187.16097055 136.57446289 205.74023438 C141.26754042 212.09623399 145.9401467 218.46623066 150.57446289 224.86523438 C151.34790039 225.92967773 151.34790039 225.92967773 152.13696289 227.015625 C155.74385484 232.00797675 159.18941526 237.09514203 162.57446289 242.24023438 C151.00031579 242.34276127 139.45306911 242.28374274 127.88696289 241.80273438 C126.92145508 241.76349854 125.95594727 241.7242627 124.96118164 241.68383789 C123.08811215 241.59982711 121.21580537 241.49626692 119.3449707 241.37207031 C116.56004965 241.19468994 116.56004965 241.19468994 113.71801758 241.38183594 C109.27870611 241.43550637 106.63755365 241.2418975 103.32666016 238.12231445 C101.08089251 235.13189616 99.1278294 232.06941115 97.19946289 228.86523438 C96.47113903 227.71683702 95.73899074 226.57085686 95.00317383 225.42724609 C93.52729238 223.125985 92.0690117 220.81506783 90.62426758 218.49414062 C87.81274237 214.03106202 84.83272655 209.6969492 81.82446289 205.36523438 C80.77654439 203.83730369 79.72966123 202.3086624 78.68383789 200.77929688 C78.17272461 200.03325195 77.66161133 199.28720703 77.13500977 198.51855469 C74.99094463 195.38832693 72.84857034 192.25694373 70.70629883 189.12548828 C69.62636014 187.54694236 68.54628408 185.96849041 67.46606445 184.39013672 C64.65620622 180.2844039 61.84830187 176.17735235 59.04321289 172.06835938 C58.46249023 171.21822266 57.88176758 170.36808594 57.28344727 169.4921875 C56.17998101 167.8767129 55.07707584 166.26085483 53.97485352 164.64453125 C53.47147461 163.90783203 52.9680957 163.17113281 52.44946289 162.41210938 C52.01375977 161.77370117 51.57805664 161.13529297 51.12915039 160.47753906 C50.61610352 159.73922852 50.10305664 159.00091797 49.57446289 158.24023438 C49.27304886 157.65084579 48.97163483 157.06145721 48.66108704 156.45420837 C46.94822803 153.44857056 45.73190666 151.57219402 42.31430054 150.5920105 C39.45810034 150.33247078 36.67248362 150.29667037 33.80493164 150.33789062 C32.88603149 150.32528198 31.96713135 150.31267334 31.02038574 150.29968262 C27.60110926 150.26288892 24.1813982 150.28637563 20.76196289 150.30273438 C13.11008789 150.28210937 5.45821289 150.26148438 -2.42553711 150.24023438 C-2.42553711 180.60023438 -2.42553711 210.96023438 -2.42553711 242.24023438 C-17.93553711 242.24023438 -33.44553711 242.24023438 -49.42553711 242.24023438 C-49.52381227 182.39066184 -49.50818521 122.54643541 -49.01981735 62.69868851 C-48.98799702 58.73524138 -48.95803509 54.77178384 -48.92849731 50.80831909 C-48.88158467 44.57784579 -48.82936962 38.34743993 -48.7726593 32.11704826 C-48.75238618 29.82640811 -48.73361714 27.53575409 -48.71644592 25.24508858 C-48.69251103 22.12166335 -48.66253764 18.99835495 -48.63085938 15.875 C-48.62510423 14.96379363 -48.61934908 14.05258726 -48.61341953 13.11376858 C-48.5657853 9.03205901 -48.44747314 5.22132612 -47.42553711 1.24023438 C-31.61721521 0.2982849 -15.8348411 0.02198353 0 0 Z M-2.42553711 18.24023438 C-2.42553711 56.52023437 -2.42553711 94.80023437 -2.42553711 134.24023438 C41.63561324 135.29886224 41.63561324 135.29886224 80.07446289 116.42773438 C92.93747418 102.44711719 96.46521678 86.09349552 95.74926758 67.63476562 C94.82946396 55.0349976 88.73683425 42.21475865 79.36743164 33.69335938 C57.99448664 16.37149545 21.75315861 19.5471909 -2.42553711 18.24023438 Z " fill="#000000" transform="translate(1930.425537109375,1039.759765625)"/>
<path d="M0 0 C3.28826235 0.01611774 6.57529927 0.00002772 9.86352539 -0.01904297 C27.59233219 -0.03912042 44.60291313 1.27348416 61.41235352 7.26611328 C62.39139648 7.59224609 63.37043945 7.91837891 64.37915039 8.25439453 C78.70322786 13.17919441 78.70322786 13.17919441 83.77172852 18.56689453 C85.23251316 22.89536705 85.07838825 27.04573329 84.97485352 31.57861328 C84.96969727 32.49320313 84.96454102 33.40779297 84.95922852 34.35009766 C84.87974533 41.08132965 84.87974533 41.08132965 83.72485352 43.39111328 C79.21353491 42.82830098 75.74454996 41.6457575 71.68188477 39.62548828 C70.53469971 39.06708252 69.38751465 38.50867676 68.20556641 37.93334961 C67.60664581 37.63989655 67.00772522 37.34644348 66.39065552 37.0440979 C54.79853011 31.39606486 43.4533583 26.78932872 30.72485352 24.39111328 C29.54020508 24.16294922 28.35555664 23.93478516 27.13500977 23.69970703 C-3.82735858 18.43499993 -35.4028853 20.5959699 -61.78295898 38.74267578 C-83.21730067 54.22108936 -97.86909688 74.33957931 -102.43823242 100.59301758 C-103.4266055 106.8411673 -104.0166123 113.07318422 -104.27514648 119.39111328 C-104.31639648 120.31666016 -104.35764648 121.24220703 -104.40014648 122.19580078 C-105.04418799 151.25817354 -97.49214818 177.73577787 -77.42626953 199.21435547 C-55.90136059 221.54863978 -30.17028137 225.75221986 -0.39770508 226.36376953 C21.04667648 227.05804182 21.04667648 227.05804182 40.72485352 220.39111328 C45.52333003 215.59263677 44.87958482 208.75209133 44.93017578 202.36621094 C44.94007538 201.58504913 44.94997498 200.80388733 44.96017456 199.99905396 C44.99159108 197.43445801 45.01646791 194.86984359 45.04125977 192.30517578 C45.06184646 190.52012672 45.08284337 188.73508235 45.10423279 186.95004272 C45.15927631 182.26478891 45.20876333 177.5794924 45.25708008 172.89416504 C45.30742493 168.10795314 45.36304305 163.32180281 45.41821289 158.53564453 C45.52557755 149.15418678 45.62707019 139.77267545 45.72485352 130.39111328 C51.65162511 130.65216939 57.57810852 130.91881699 63.50439453 131.19067383 C65.52092651 131.28238602 67.53752889 131.37256369 69.55419922 131.46118164 C72.45112623 131.5887462 75.34775613 131.72180801 78.24438477 131.85595703 C79.14759964 131.8945433 80.05081451 131.93312958 80.98139954 131.97288513 C81.82204453 132.0128511 82.66268951 132.05281708 83.52880859 132.09399414 C84.26827225 132.12730331 85.0077359 132.16061249 85.76960754 132.19493103 C87.72485352 132.39111328 87.72485352 132.39111328 90.72485352 133.39111328 C90.72485352 166.39111328 90.72485352 199.39111328 90.72485352 233.39111328 C63.33797663 243.66119211 32.89472471 248.09576268 3.72485352 249.39111328 C2.47687988 249.44702637 1.22890625 249.50293945 -0.05688477 249.56054688 C-44.29345278 251.3351046 -92.33329979 241.70467719 -126.20092773 211.68408203 C-142.80020928 196.00062292 -153.55219094 172.95274492 -156.27514648 150.39111328 C-156.3847168 149.52744141 -156.49428711 148.66376953 -156.60717773 147.77392578 C-160.27446657 114.03486846 -150.97300085 80.28588622 -130.27514648 53.39111328 C-110.68674659 29.59637593 -84.52728475 14.01044691 -54.90014648 6.07861328 C-53.62989624 5.7332251 -53.62989624 5.7332251 -52.33398438 5.38085938 C-35.06253322 1.03469711 -17.74860291 -0.10313574 0 0 Z " fill="#000000" transform="translate(925.275146484375,1038.60888671875)"/>
<path d="M0 0 C0.82999512 0.0407666 1.65999023 0.0815332 2.51513672 0.12353516 C3.42779297 0.16736328 4.34044922 0.21119141 5.28076172 0.25634766 C6.24240234 0.30791016 7.20404297 0.35947266 8.19482422 0.41259766 C9.60248047 0.47833984 9.60248047 0.47833984 11.03857422 0.54541016 C13.72077087 0.68064696 16.39302858 0.81883734 19.06982422 1.03759766 C20.23658691 1.0446875 21.40334961 1.05177734 22.60546875 1.05908203 C26.34895154 2.11643785 26.64973809 2.29570236 28.51025391 5.41699219 C29.28067674 6.94668493 30.02252231 8.49096627 30.74169922 10.04541016 C31.36537384 11.30951218 31.36537384 11.30951218 32.00164795 12.59915161 C32.90457486 14.43586886 33.79590127 16.27832347 34.67700195 18.12561035 C36.08539811 21.07015815 37.52983827 23.99425413 38.98583984 26.91552734 C42.12896933 33.23246807 45.22620616 39.57129817 48.31982422 45.91259766 C49.4383947 48.20027514 50.55712999 50.48787204 51.67602539 52.77539062 C57.80562215 65.31424626 63.90996891 77.86491564 69.95996094 90.44238281 C74.91656261 100.74289131 79.92915941 111.01574914 84.94482422 121.28759766 C99.96937555 152.06234603 114.93104657 182.86400872 129.53710938 213.84011841 C130.26147207 215.37617988 130.98623767 216.91205143 131.71142578 218.44772339 C132.72956091 220.60456693 133.745685 222.76234629 134.76123047 224.92041016 C135.06593765 225.56523849 135.37064484 226.21006683 135.68458557 226.87443542 C140.06982422 236.21050264 140.06982422 236.21050264 140.06982422 241.03759766 C129.03967544 243.58147232 118.06911292 243.26555264 106.81982422 243.16259766 C104.89925598 243.15254572 102.97868264 243.14342379 101.05810547 243.13525391 C96.395217 243.11342054 91.73257819 243.07901321 87.06982422 243.03759766 C83.06304403 235.2060899 79.34327779 227.30724857 75.89013672 219.21728516 C75.43250946 218.15140167 74.9748822 217.08551819 74.50338745 215.98733521 C73.54882065 213.76136118 72.59604582 211.53461788 71.64501953 209.30712891 C70.18269038 205.88419549 68.71254652 202.46469063 67.24169922 199.04541016 C66.31154656 196.87373433 65.3818424 194.70186634 64.45263672 192.52978516 C64.01210968 191.50593719 63.57158264 190.48208923 63.1177063 189.42721558 C62.51610184 188.01401535 62.51610184 188.01401535 61.90234375 186.57226562 C61.36989548 185.32749954 61.36989548 185.32749954 60.82669067 184.05758667 C60.06982422 182.03759766 60.06982422 182.03759766 60.06982422 180.03759766 C50.04912364 179.86256727 40.02829217 179.69650238 30.00732422 179.53759766 C29.25862942 179.52572041 28.50993462 179.51384315 27.73855209 179.50160599 C-2.15340955 179.03071255 -32.034364 178.9185638 -61.93017578 179.03759766 C-62.32696533 179.91681885 -62.72375488 180.79604004 -63.13256836 181.7019043 C-76.370098 211.01413362 -76.370098 211.01413362 -83.05517578 225.22509766 C-83.47903564 226.14234619 -83.90289551 227.05959473 -84.33959961 228.00463867 C-87.03627288 233.68266696 -89.6289627 239.03738348 -95.18017578 242.40087891 C-99.11891685 243.31283174 -102.90170926 243.28722498 -106.93017578 243.22509766 C-107.72423828 243.22445313 -108.51830078 243.22380859 -109.33642578 243.22314453 C-113.32556278 243.193226 -117.03783981 243.0185291 -120.93017578 242.03759766 C-120.38651559 236.30167655 -118.13701468 231.85140513 -115.60189819 226.77633667 C-114.93183538 225.41188286 -114.93183538 225.41188286 -114.24823594 224.01986432 C-112.77014947 221.01526068 -111.28075258 218.01642015 -109.79101562 215.01757812 C-108.74432758 212.89676634 -107.69822156 210.77566722 -106.65266991 208.65429497 C-103.42332817 202.10967539 -100.17787858 195.57312019 -96.93017578 189.03759766 C-95.96093782 187.08496436 -94.99176079 185.13230082 -94.02265167 183.17960358 C-87.92048542 170.88943417 -81.78952255 158.61374288 -75.64971209 146.34234476 C-73.07859194 141.20271009 -70.50949014 136.06206652 -67.94003296 130.92160034 C-63.65773928 122.35522189 -59.37380935 113.78966332 -55.08886719 105.22460938 C-50.13778401 95.32795988 -45.18966994 85.4298299 -40.24297011 75.53098881 C-35.95609661 66.95271663 -31.66767826 58.3752181 -27.37794435 49.79837596 C-24.83157591 44.70719502 -22.28574353 39.61574796 -19.74132156 34.5235939 C-17.37077232 29.77962282 -14.99829298 25.03662215 -12.62427139 20.29438782 C-11.75319168 18.55355587 -10.88280031 16.81237931 -10.01313019 15.07084274 C-8.83201356 12.70589963 -7.6484694 10.34218783 -6.46426392 7.97879028 C-6.11711637 7.28226447 -5.76996883 6.58573866 -5.41230166 5.86810601 C-2.49041889 0.04851056 -2.49041889 0.04851056 0 0 Z M0.06982422 52.03759766 C-13.21511307 76.81911529 -25.64958169 102.00939423 -37.34375 127.578125 C-39.01949489 131.23237325 -40.70918087 134.87990899 -42.40283203 138.52587891 C-42.96897731 139.7460638 -43.53505906 140.96627818 -44.10107422 142.18652344 C-45.17511567 144.50168655 -46.24995359 146.81648036 -47.32568359 149.13085938 C-47.79973633 150.1558252 -48.27378906 151.18079102 -48.76220703 152.23681641 C-49.18219971 153.14262451 -49.60219238 154.04843262 -50.03491211 154.98168945 C-50.99671704 156.81667531 -50.99671704 156.81667531 -50.93017578 158.03759766 C-10.95582508 158.30581714 -10.95582508 158.30581714 29.00732422 157.60009766 C30.19720947 157.56086182 31.38709473 157.52162598 32.61303711 157.48120117 C37.50799117 157.2886843 42.25782676 157.03347191 47.06982422 156.03759766 C44.89792859 149.15522708 42.25975788 142.62497863 39.31982422 136.03759766 C38.84375732 134.96364746 38.36769043 133.88969727 37.87719727 132.78320312 C32.3636537 120.38366859 26.74148288 108.0329929 21.10331726 95.68974304 C18.97624789 91.03109017 16.85901042 86.36808403 14.74769592 81.70227051 C13.27707099 78.45370561 11.80280921 75.20679858 10.32797241 71.96014404 C9.6174755 70.3939847 8.90849661 68.82713576 8.20108032 67.25958252 C7.21746695 65.08081221 6.2282959 62.90464889 5.23779297 60.72900391 C4.94576996 60.07854599 4.65374695 59.42808807 4.35287476 58.75791931 C3.13862362 56.10358869 2.15257065 54.12034409 0.06982422 52.03759766 Z " fill="#000000" transform="translate(1621.93017578125,1038.96240234375)"/>
<path d="M0 0 C0.9075 -0.020625 1.815 -0.04125 2.75 -0.0625 C11.34047684 -0.11273671 11.34047684 -0.11273671 15.25 3.25 C19.94299189 8.1508263 23.41002644 13.482177 26.71484375 19.3828125 C27.22434067 20.28428009 27.73383759 21.18574768 28.2587738 22.11453247 C34.86325467 33.94840328 40.86073052 46.0980084 46.87609863 58.23791504 C48.12210418 60.74893053 49.37406386 63.25695415 50.62618351 65.764925 C57.43807577 79.41106934 64.1356423 93.10725346 70.68774414 106.88037109 C74.38180888 114.63971764 78.16242794 122.35670594 81.94003296 130.07562256 C88.27532418 143.02269691 94.58673055 155.97988297 100.80444336 168.98388672 C104.71679045 177.15920608 108.67389 185.31234734 112.63787842 193.46270752 C113.73798041 195.72527941 114.83719041 197.98828212 115.93603516 200.25146484 C116.29284363 200.98634125 116.6496521 201.72121765 117.01727295 202.47836304 C117.729904 203.94614456 118.44250997 205.41393826 119.15509033 206.88174438 C121.13376457 210.9561915 123.11739336 215.02816426 125.10598755 219.09777832 C126.5125783 221.9797046 127.91192084 224.86514853 129.3125 227.75 C129.81910156 228.78189453 130.32570313 229.81378906 130.84765625 230.87695312 C131.30140625 231.81474609 131.75515625 232.75253906 132.22265625 233.71875 C132.61718994 234.52763672 133.01172363 235.33652344 133.41821289 236.16992188 C134.25 238.25 134.25 238.25 134.25 241.25 C116.43 241.25 98.61 241.25 80.25 241.25 C75.26780757 231.28561514 70.33549689 221.33894447 65.62231445 211.25 C64.68682118 209.24854769 63.74693779 207.24919915 62.80664062 205.25 C62.18202883 203.91678977 61.55767145 202.58346032 60.93359375 201.25 C60.39275146 200.095 59.85190918 198.94 59.29467773 197.75 C56.20501012 190.95014884 53.24366384 184.09266019 50.25 177.25 C10.98 177.25 -28.29 177.25 -68.75 177.25 C-78.155 196.555 -78.155 196.555 -87.75 216.25 C-100.47727273 239.15909091 -100.47727273 239.15909091 -106.75 241.25 C-108.59610532 241.33239169 -110.44505164 241.35743359 -112.29296875 241.34765625 C-113.36611328 241.34443359 -114.43925781 241.34121094 -115.54492188 241.33789062 C-116.66447266 241.32951172 -117.78402344 241.32113281 -118.9375 241.3125 C-120.06865234 241.30798828 -121.19980469 241.30347656 -122.36523438 241.29882812 C-125.16020927 241.28703498 -127.9550782 241.2705765 -130.75 241.25 C-129.44719927 237.08659393 -127.8800923 233.26168189 -125.92773438 229.36254883 C-125.35953979 228.22308304 -124.79134521 227.08361725 -124.20593262 225.90962219 C-123.58534406 224.67535532 -122.96461261 223.44116029 -122.34375 222.20703125 C-121.69766429 220.91605544 -121.05187733 219.62493008 -120.40637207 218.33366394 C-119.05040628 215.62329451 -117.69177385 212.9142849 -116.33105469 210.20629883 C-114.61741539 206.79577734 -112.90886545 203.38274084 -111.20223236 199.96870899 C-109.86522829 197.29497817 -108.52610859 194.62231119 -107.18635559 191.94995689 C-106.5577955 190.69594542 -105.92966811 189.44171693 -105.30204773 188.18723488 C-101.61661626 180.82568008 -97.84556337 173.5160793 -93.9921875 166.2409668 C-88.81855271 156.45948133 -83.85553245 146.57785154 -78.92375183 136.67266846 C-77.35957706 133.53126459 -75.79270282 130.39121914 -74.22521973 127.25146484 C-70.8978573 120.58545053 -67.57367366 113.91785414 -64.25 107.25 C-60.39083451 99.50785825 -56.53027638 91.76641713 -52.66630554 84.02667236 C-51.1416149 80.97092951 -49.61938529 77.91396984 -48.09729004 74.85693359 C-42.82068815 64.27631195 -37.43085355 53.76715777 -31.8968811 43.31890869 C-29.41038682 38.62017367 -27.00803408 33.88274084 -24.65234375 29.1171875 C-24.24714005 28.30299347 -23.84193634 27.48879944 -23.42445374 26.64993286 C-22.17673831 24.14264106 -20.93175939 21.63400844 -19.6875 19.125 C-18.01140937 15.74624927 -16.33264998 12.3688433 -14.65234375 8.9921875 C-14.27327377 8.22574921 -13.8942038 7.45931091 -13.50364685 6.66964722 C-9.78959143 -0.79371328 -7.975064 0.04455343 0 0 Z M-7.75 53.25 C-12.52016159 59.5541266 -16.27400843 66.55069955 -20 73.5 C-20.59208252 74.60190674 -21.18416504 75.70381348 -21.79418945 76.83911133 C-29.9035779 92.0498096 -37.29336578 107.62770188 -44.74829102 123.16589355 C-46.23662698 126.26245215 -47.73569978 129.35374451 -49.234375 132.4453125 C-50.21918269 134.48416606 -51.20359509 136.52321063 -52.1875 138.5625 C-52.61764404 139.4496167 -53.04778809 140.3367334 -53.4909668 141.25073242 C-54.08131714 142.48206909 -54.08131714 142.48206909 -54.68359375 143.73828125 C-55.1794397 144.76755737 -55.1794397 144.76755737 -55.68530273 145.81762695 C-57.181823 149.23652891 -58.43957723 152.75553929 -59.75 156.25 C-26.42 156.25 6.91 156.25 41.25 156.25 C35.63473594 143.1477172 29.9857145 130.11589056 24 117.1875 C23.26156127 115.58828885 22.52328297 113.98900362 21.78515625 112.38964844 C20.30817625 109.190531 18.82941658 105.9922441 17.34960938 102.79443359 C15.71021716 99.24962715 14.07933927 95.70102152 12.45350647 92.14997864 C6.42040466 78.97461981 0.26364205 65.93617425 -6.75 53.25 C-7.08 53.25 -7.41 53.25 -7.75 53.25 Z " fill="#000000" transform="translate(537.75,1040.75)"/>
<path d="M0 0 C2.24093402 -0.00497631 4.48187123 -0.00852672 6.72280884 -0.01147461 C7.97073023 -0.01360458 9.21865162 -0.01573456 10.50438881 -0.01792908 C14.40912585 0.00209842 18.25326416 0.17116336 22.1484375 0.4375 C23.15083969 0.50408813 23.15083969 0.50408813 24.17349243 0.57202148 C26.24098442 0.71033437 28.30796777 0.85499633 30.375 1 C31.80465854 1.09678288 33.23434604 1.19313903 34.6640625 1.2890625 C38.10977374 1.52037182 41.55490178 1.75973901 45 2 C45.76039743 15.72337407 46.2339683 29.43064421 46.5 43.171875 C46.54071183 45.15171932 46.58173497 47.13155727 46.62304688 49.11138916 C46.73031561 54.28065301 46.83442506 59.44997473 46.9375 64.61932373 C47.60089384 98.82236745 47.60089384 98.82236745 48.5078125 133.01953125 C48.54430908 134.23900452 48.58080566 135.45847778 48.6184082 136.71490479 C48.06257404 175.25471538 48.06257404 175.25471538 62.953125 209.34765625 C84.07736004 226.4002353 112.80815823 227.97446459 138.78515625 225.49609375 C154.20743315 223.77727111 167.3353668 220.8924101 179 210 C179.71929688 209.3709375 180.43859375 208.741875 181.1796875 208.09375 C201.1088147 189.74391213 200.75111257 158.05704733 201.7979126 133.00823975 C202.59537676 111.35596769 202.47739114 89.65294925 202.58943665 67.98755634 C202.62823003 60.5552485 202.6775012 53.12301967 202.72740483 45.69077945 C202.8294455 30.46057846 202.91910143 15.23032915 203 0 C211.77220291 -0.3189892 220.31824479 0.88363194 229 2 C229.04689831 22.92440608 229.08207568 43.8488034 229.10362434 64.77325153 C229.1138995 74.49069802 229.12788714 84.2081117 229.15087891 93.92553711 C229.17092876 102.40367395 229.1837437 110.88178701 229.18817699 119.35994691 C229.19076491 123.84139243 229.19676741 128.32276995 229.21146011 132.8041935 C229.39921919 192.46701833 229.39921919 192.46701833 209 217 C208.236875 217.96292969 207.47375 218.92585938 206.6875 219.91796875 C188.60680989 241.51151748 160.4740845 245.65801123 134.1015625 248.40625 C97.77324221 251.34517029 54.50659041 248.62234376 25.33984375 224.109375 C6.74851455 207.34924517 2.01668801 185.06937316 0.70533752 160.98449707 C-0.09458018 144.28743474 -0.13328608 127.60348527 -0.10139394 110.89261436 C-0.09502753 106.97695476 -0.09454633 103.06129387 -0.09336853 99.14562988 C-0.09029356 91.77281744 -0.08213339 84.40002031 -0.07201904 77.02721453 C-0.06073687 68.61569559 -0.05531735 60.20417582 -0.05032361 51.79265118 C-0.03994632 34.52842535 -0.02242338 17.26421431 0 0 Z " fill="#000000" transform="translate(1163,1039)"/>
<path d="M0 0 C9.98589329 -0.15584357 19.85755546 0.32936058 29.8125 1 C31.29489687 1.09673804 32.77731871 1.19309434 34.25976562 1.2890625 C37.84014121 1.52165828 41.420155 1.75935966 45 2 C45.9202193 40.31636546 46.13645556 78.63156919 46.18167114 116.95785522 C46.18744314 120.65111672 46.1971358 124.34434793 46.20800781 128.03759766 C46.33567971 174.10187015 46.33567971 174.10187015 45.09765625 194.73046875 C45.05764181 195.4072788 45.01762737 196.08408886 44.97640038 196.78140831 C43.40284663 222.38072026 36.13131201 248.2697069 19 268 C18.33484375 268.80824219 17.6696875 269.61648438 16.984375 270.44921875 C2.19294104 287.82117266 -18.9688496 298.14845943 -41 303 C-43.36407013 303.13991089 -45.62911419 303.09878691 -48 303 C-46.48496955 298.16460341 -43.73272963 295.02944967 -40.4375 291.3125 C-39.89883301 290.69238037 -39.36016602 290.07226074 -38.80517578 289.43334961 C-35.73096242 285.90790487 -32.57501614 282.474324 -29.375 279.0625 C0.97747026 245.39885117 -3.19871409 194.78428766 -2.5 152.28515625 C-2.45950713 149.95612157 -2.4187596 147.6270913 -2.3777771 145.29806519 C-2.27033155 139.14853713 -2.16659178 132.9989521 -2.06371307 126.84934616 C-1.97828829 121.77204446 -1.89060816 116.69478277 -1.80288506 111.61752033 C-1.1601298 74.41237484 -0.54620205 37.20669841 0 0 Z " fill="#000000" transform="translate(227,1039)"/>
<path d="M0 0 C0.99 0.33 1.98 0.66 3 1 C3.05945801 2.04788696 3.05945801 2.04788696 3.12011719 3.11694336 C4.53598006 26.930427 6.69919903 54.36171951 25.234375 71.87109375 C46.6068477 88.32306779 74.03695902 97.59524762 99.27734375 106.15234375 C100.67762817 106.62788696 100.67762817 106.62788696 102.10620117 107.11303711 C103.8250307 107.68968386 105.54773268 108.25495663 107.2746582 108.80688477 C109.21391196 109.45177467 111.11328266 110.21457921 113 111 C113.33 111.99 113.66 112.98 114 114 C105.28067961 114.27700354 96.82421072 113.55329446 88.19002533 112.42493248 C85.91277065 112.12736216 83.63447926 111.83917084 81.35577393 111.55293274 C77.30345612 111.04239934 73.25219845 110.52395159 69.20123291 110.00280762 C62.0259531 109.07983519 54.84972133 108.16452343 47.671875 107.26171875 C46.89026882 107.16340948 46.10866264 107.06510021 45.30337143 106.96381187 C34.0274482 105.55287202 22.7444132 104.3061335 11.4296875 103.25 C10.15494568 103.13069626 8.88020386 103.01139252 7.5668335 102.88847351 C-3.611067 101.88129218 -14.78200305 101.28641694 -26 101 C-27.20140625 100.95875 -28.4028125 100.9175 -29.640625 100.875 C-62.91559637 100.23200538 -99.08548965 106.06947505 -124 130 C-133.53119884 140.95457258 -137.67917179 153.84476418 -137.33203125 168.203125 C-136.64575046 176.05094773 -133.29755989 181.07979574 -127.6875 186.4375 C-119.58859966 193.03611224 -111.20386355 193.78184213 -101 195 C-102.3593722 198.30133249 -103.51958396 199.71980293 -106.75 201.25 C-115.07731285 204.60498479 -123.99560663 204.1294433 -132.3125 201 C-143.45479956 195.71816425 -150.8782062 186.92199654 -155.375 175.5625 C-159.79847554 160.99105118 -157.31494581 146.12649508 -150.46704102 132.77685547 C-145.89878331 124.38307118 -139.76758592 117.67407868 -133 111 C-132.24847656 110.23816406 -131.49695313 109.47632813 -130.72265625 108.69140625 C-99.52011115 78.8833883 -46.94451909 80.53991933 -7 78 C-7.42152344 76.83082031 -7.84304688 75.66164063 -8.27734375 74.45703125 C-8.83091109 72.90891921 -9.38428641 71.36073849 -9.9375 69.8125 C-10.21529297 69.04357422 -10.49308594 68.27464844 -10.77929688 67.48242188 C-16.89443702 50.31582364 -16.07888742 28.77605467 -8.28125 12.171875 C-3.64912262 3.26091808 -3.64912262 3.26091808 0 0 Z " fill="#000000" transform="translate(696,507)"/>
<path d="M0 0 C7.48269101 0.46613149 14.31680932 1.96445926 21.5 4.0625 C22.57660889 4.36905518 23.65321777 4.67561035 24.76245117 4.99145508 C31.5498713 6.94159221 38.29055094 9.02174751 45.02392578 11.14990234 C86.45406396 24.22177222 125.78260135 24.45987618 166.00195312 7.18457031 C170.58265544 5.28132076 174.03624178 4.67557136 179 5 C176.13685812 9.00848413 173.52722832 11.12862716 169.16015625 13.375 C168.01353516 13.96796875 166.86691406 14.5609375 165.68554688 15.171875 C164.79017212 15.62336914 164.79017212 15.62336914 163.87670898 16.08398438 C162.09241134 16.98489741 160.3185361 17.90635769 158.54492188 18.828125 C148.17349804 24.13792463 137.6032978 28.90592904 126.125 31.1875 C125.3316626 31.34839111 124.5383252 31.50928223 123.72094727 31.67504883 C105.09089785 35.23007133 85.90177251 35.43849341 67 36 C67.16757813 37.12277344 67.33515625 38.24554687 67.5078125 39.40234375 C69.09289529 50.69984467 69.85116847 58.96369646 62.88671875 68.609375 C54.1623072 79.66390888 45.40528857 88.87659068 31 91 C9.35808234 92.72976379 -17.37240832 89.57604379 -34.7109375 75.1796875 C-35.46632813 74.46039062 -36.22171875 73.74109375 -37 73 C-36.505 72.01 -36.505 72.01 -36 71 C-25.66939698 68.11864247 -14.21328892 68.13239726 -3.55151367 67.39819336 C13.46470452 66.74340265 13.46470452 66.74340265 28 59 C28.66 59 29.32 59 30 59 C30.26683594 58.43410156 30.53367187 57.86820313 30.80859375 57.28515625 C32.4971558 54.04643888 34.58879559 51.12431349 36.66015625 48.12109375 C39.9622094 42.89364517 39.64616472 36.9675212 39 31 C34.4069032 17.89287011 19.49783613 11.69700609 8 6 C6.49068877 5.24518474 4.98156626 4.48999198 3.47265625 3.734375 C2.32667969 3.16203125 1.18070313 2.5896875 0 2 C0 1.34 0 0.68 0 0 Z " fill="#000000" transform="translate(1732,890)"/>
<path d="M0 0 C4.35569473 0.51078379 8.29628491 1.30865087 12.48779297 2.66259766 C35.79571208 10.19058609 60.74349483 11.90487422 85.01953125 13.93359375 C87.00179069 14.10155863 88.9840498 14.26952741 90.96630859 14.4375 C94.84715057 14.76566958 98.72882777 15.077328 102.61181641 15.37890625 C127.68427713 17.4148194 151.08707633 20.71558622 168.6640625 40.39648438 C172.97554713 45.5715266 176.66055446 51.25573641 180.47216797 56.80078125 C192.5548452 74.1930402 206.31459612 89.59491179 221.39794922 104.41259766 C230.6962681 113.56935955 230.6962681 113.56935955 234 118 C234 118.66 234 119.32 234 120 C229.83277498 118.73196367 226.28063828 117.1752419 222.54296875 114.9453125 C221.52106445 114.33655273 220.49916016 113.72779297 219.44628906 113.10058594 C218.37088867 112.44864258 217.29548828 111.79669922 216.1875 111.125 C215.0747168 110.45243164 213.96193359 109.77986328 212.81542969 109.08691406 C189.02726186 94.57221622 167.75797953 78.25842907 151.94140625 54.96875 C144.00624941 43.46045237 134.24280178 39.40560249 120.58984375 36.875 C118.70770436 36.57084788 116.82341839 36.27976601 114.9375 36 C113.89021729 35.83685303 112.84293457 35.67370605 111.76391602 35.50561523 C103.10169389 34.20325535 94.41276007 33.24642858 85.7059021 32.30795288 C20.40627429 25.24219423 20.40627429 25.24219423 2 5 C0.5 2.0625 0.5 2.0625 0 0 Z " fill="#000000" transform="translate(1466,759)"/>
<path d="M0 0 C0.495 1.485 0.495 1.485 1 3 C-12.62151107 9.63402934 -26.78066109 12.3233188 -41.875 12.5 C-42.80812012 12.51844971 -43.74124023 12.53689941 -44.70263672 12.5559082 C-48.96180228 12.51649317 -51.40077035 12.35266383 -55.1328125 10.15625 C-57 8 -57 8 -57 5 C-50.68688123 3.22280873 -44.59242429 2.44333151 -38.0625 1.9375 C-37.05558105 1.85516113 -36.04866211 1.77282227 -35.01123047 1.68798828 C-11.36423701 -0.20662249 -11.36423701 -0.20662249 0 0 Z " fill="#000000" transform="translate(537,392)"/>
</svg>
