<?xml version="1.0" encoding="UTF-8"?>
<svg version="1.1" xmlns="http://www.w3.org/2000/svg" width="706" height="800">
<path d="M0 0 C6.43108196 0.01138748 12.86199829 0.00461257 19.29307461 -0.00687027 C55.56910179 -0.06200418 91.78394301 0.20435785 127.8503418 4.51074219 C129.22351059 4.66881348 129.22351059 4.66881348 130.62442017 4.83007812 C149.93940213 7.05421631 169.13403891 9.93325905 188.2878418 13.26074219 C189.483125 13.46666992 190.6784082 13.67259766 191.90991211 13.88476562 C318.93446922 36.10944068 318.93446922 36.10944068 350.2878418 77.26074219 C360.11862263 92.75787585 362.61023639 107.51998017 362.5534668 125.66308594 C362.55571327 127.13677583 362.55862307 128.61046484 362.56214905 130.08415222 C362.56800749 133.9849519 362.55962088 137.88557799 362.5459938 141.78635406 C362.53779213 144.21293554 362.53235044 146.63951089 362.5274353 149.06610107 C362.47398644 172.16769492 362.41615285 195.23984761 360.2878418 218.26074219 C360.21007507 219.10203674 360.13230835 219.9433313 360.05218506 220.81011963 C355.3384889 271.00353866 346.82879856 320.43666164 334.2878418 369.26074219 C333.97766113 370.47358887 333.66748047 371.68643555 333.34790039 372.93603516 C325.1967954 404.45852634 314.40798765 435.0662907 302.2878418 465.26074219 C301.74836914 466.61546631 301.74836914 466.61546631 301.19799805 467.99755859 C297.50394197 477.26051547 293.49064624 486.34153266 289.19702148 495.34082031 C288.25801844 497.3237204 287.33747207 499.31436985 286.4206543 501.30761719 C271.47648802 533.69233497 253.43974037 564.84876067 233.2878418 594.26074219 C232.47764872 595.45976014 231.66777557 596.65899431 230.8581543 597.85839844 C210.78608109 627.46109633 188.42158062 655.30001297 164.46362305 681.83496094 C162.61340617 683.89777006 160.78839371 685.97786589 158.9753418 688.07324219 C148.24504989 700.33139954 136.83384126 711.87177737 125.30493164 723.37402344 C122.52593506 726.14762581 119.75236897 728.926579 116.97924805 731.70605469 C115.19180843 733.492834 113.4040589 735.27930334 111.6159668 737.06542969 C110.79807678 737.88534393 109.98018677 738.70525818 109.13751221 739.55001831 C104.90881557 743.76165892 100.61325596 747.82881685 96.0791626 751.71096802 C92.89478077 754.46595903 89.85169469 757.37330386 86.7878418 760.26074219 C76.57882187 769.82565595 76.57882187 769.82565595 71.2878418 774.26074219 C70.21276367 775.17146484 70.21276367 775.17146484 69.1159668 776.10058594 C50.83890686 791.18214683 33.52987595 800.63814271 9.4128418 800.57324219 C8.22303711 800.58935547 7.03323242 800.60546875 5.80737305 800.62207031 C-4.98256117 800.62796645 -14.8364694 798.7962994 -24.4621582 793.82324219 C-25.12554199 793.48542725 -25.78892578 793.1476123 -26.47241211 792.79956055 C-38.45529181 786.44167178 -48.86041202 777.49044979 -58.7121582 768.26074219 C-60.37568999 766.75726629 -62.0424105 765.25731172 -63.7121582 763.76074219 C-64.54489258 763.01050781 -65.37762695 762.26027344 -66.2355957 761.48730469 C-67.82100441 760.06193724 -69.40928422 758.6397528 -71.0012207 757.22167969 C-84.87208638 744.83532138 -98.21209968 731.92570175 -111.34277344 718.76049805 C-113.80003602 716.29780832 -116.26269137 713.84060017 -118.72583008 711.38378906 C-120.31664607 709.79231319 -121.90715233 708.20052764 -123.49731445 706.60839844 C-124.22032242 705.8874147 -124.94333038 705.16643097 -125.68824768 704.42359924 C-129.67531949 700.41827597 -133.49461117 696.32080615 -137.17750549 692.0335083 C-139.57179452 689.26772656 -142.08473657 686.615779 -144.5871582 683.94824219 C-149.12564344 679.07488669 -153.40564618 674.05770241 -157.57543945 668.86230469 C-159.67098314 666.3108749 -161.85178975 663.87747446 -164.0871582 661.44824219 C-169.65321646 655.33041816 -174.66593369 648.80665519 -179.7121582 642.26074219 C-180.54526844 641.18635041 -181.3785946 640.11212602 -182.2121582 639.03808594 C-184.28583491 636.35626366 -186.34998724 633.66788076 -188.40551758 630.97216797 C-189.29274615 629.81008421 -190.18214662 628.6496561 -191.07348633 627.49072266 C-208.53299352 604.76786611 -223.94645666 580.60918375 -238.7121582 556.07324219 C-239.32317383 555.05834717 -239.93418945 554.04345215 -240.5637207 552.99780273 C-247.78721297 540.91058516 -254.22443578 528.47070817 -260.5246582 515.88574219 C-260.92300873 515.09104523 -261.32135925 514.29634827 -261.73178101 513.47756958 C-267.48470307 501.97881442 -272.91702136 490.41972559 -277.765625 478.5065918 C-278.83030132 475.98042272 -279.97424736 473.49827832 -281.1262207 471.01074219 C-283.93247465 464.87588103 -286.38581539 458.63081127 -288.7746582 452.32324219 C-289.00560181 451.71446228 -289.23654541 451.10568237 -289.4744873 450.47845459 C-295.50028872 434.54245508 -300.84795255 418.37963938 -306.0916748 402.17242432 C-306.64243432 400.47555841 -307.19977103 398.78083043 -307.75805664 397.08642578 C-334.24044087 316.5511495 -343.7804142 229.88447876 -343.95669174 145.49014282 C-343.96211585 143.15398181 -343.97024196 140.81784135 -343.97866821 138.48168945 C-343.99056695 134.75525115 -343.9903231 131.02898396 -343.98111153 127.30253983 C-343.97893101 125.91881054 -343.97990609 124.53507186 -343.98438835 123.15134811 C-344.01516732 111.7365371 -343.43391544 100.68409374 -338.5871582 90.19824219 C-338.12865479 89.18491821 -338.12865479 89.18491821 -337.66088867 88.15112305 C-326.58732038 64.56021744 -304.44801895 51.4300433 -280.77880859 42.73828125 C-278.42797398 41.89832687 -276.07131289 41.07705569 -273.7121582 40.26074219 C-272.64368652 39.89045898 -271.57521484 39.52017578 -270.47436523 39.13867188 C-218.4343433 21.22033805 -165.17101523 10.62458385 -110.5246582 4.38574219 C-109.69418976 4.28814606 -108.86372131 4.19054993 -108.00808716 4.08999634 C-72.13786645 -0.06166408 -36.05678719 -0.06434058 0 0 Z M-303.7121582 81.26074219 C-304.42629883 81.85242188 -305.14043945 82.44410156 -305.8762207 83.05371094 C-317.61829146 93.71832576 -321.06524418 109.4628977 -321.90161133 124.71582031 C-321.9814484 128.31667714 -321.9893571 131.90909674 -321.9621582 135.51074219 C-321.95872406 136.1833609 -321.95528992 136.85597961 -321.95175171 137.54898071 C-321.65818317 187.99541948 -317.19633026 238.54047117 -308.7121582 288.26074219 C-308.57745117 289.05679871 -308.44274414 289.85285522 -308.30395508 290.67303467 C-298.35616315 349.35351525 -282.46012994 406.22221735 -259.7121582 461.26074219 C-259.34993164 462.14213867 -258.98770508 463.02353516 -258.61450195 463.93164062 C-252.70596978 478.28326904 -246.3940635 492.30064023 -239.05493164 505.98022461 C-236.62375843 510.512982 -234.29021338 515.08075239 -232.0246582 519.69824219 C-229.63935363 524.51282009 -227.08635826 529.130846 -224.25610352 533.69604492 C-222.75586014 536.18814749 -221.36990019 538.71393876 -220.0012207 541.28027344 C-216.58703075 547.56824394 -212.90518303 553.67183822 -209.1496582 559.76074219 C-208.80344421 560.32289429 -208.45723022 560.88504639 -208.1005249 561.4642334 C-201.62748505 571.95815151 -194.81535214 582.18304003 -187.7121582 592.26074219 C-186.89029357 593.4402555 -186.0686638 594.6199325 -185.24731445 595.79980469 C-173.68772844 612.29160843 -161.35670416 628.38607576 -148.2746582 643.69824219 C-144.91984952 647.63058901 -141.62762468 651.59778413 -138.3996582 655.63574219 C-134.1146512 660.90900306 -129.51911807 665.85456158 -124.84765625 670.78369141 C-122.05300569 673.7347336 -119.3155232 676.70700309 -116.67919922 679.80078125 C-111.96430529 685.2017521 -106.88228819 690.23506769 -101.80981445 695.29589844 C-100.76266684 696.34372164 -99.71566754 697.39169309 -98.66880798 698.43980408 C-96.48606494 700.62401207 -94.30154795 702.80642551 -92.11572266 704.98754883 C-89.33429396 707.763281 -86.55738044 710.54348001 -83.78179264 713.32505131 C-81.62414799 715.48633422 -79.46409674 717.64519933 -77.30334282 719.80337334 C-76.2793005 720.82675539 -75.25598146 721.8508618 -74.23344612 722.87574959 C-69.09382913 728.02459778 -63.92762431 733.095267 -58.39044189 737.8205719 C-55.64804673 740.17387846 -53.03507925 742.66425482 -50.3996582 745.13574219 C-44.69813757 750.43107714 -38.84240412 755.46276704 -32.7121582 760.26074219 C-31.44178711 761.27587891 -31.44178711 761.27587891 -30.14575195 762.31152344 C-20.34709854 769.83209945 -8.29698115 777.29102124 4.2878418 778.26074219 C5.0819043 778.3290625 5.8759668 778.39738281 6.6940918 778.46777344 C27.70742752 779.36549506 45.67103257 766.12833011 60.40966797 752.63916016 C62.07356993 751.09803854 63.72747437 749.54697402 65.37768555 747.99121094 C67.60414918 745.90222023 69.84633637 743.87203302 72.1628418 741.88574219 C81.56260369 733.73531573 90.54790093 725.1049401 99.27978516 716.24731445 C102.26368905 713.23480268 105.3438426 710.45673766 108.61401367 707.76464844 C110.36034404 706.19560015 111.82008305 704.54135315 113.33081055 702.74511719 C118.72585221 696.50832117 124.68090388 690.82373473 130.54956055 685.03808594 C135.13651924 680.49084118 139.59314664 675.91016181 143.79467773 671.00341797 C145.85742386 668.59598143 148.01178355 666.27674463 150.1628418 663.94824219 C154.24779604 659.46896355 158.12551711 654.86782588 161.93237305 650.15136719 C164.97047775 646.42301315 168.08567045 642.76305997 171.21923828 639.11474609 C175.06032379 634.6126029 178.67447604 629.94648027 182.2878418 625.26074219 C182.88677246 624.49117187 183.48570312 623.72160156 184.1027832 622.92871094 C194.37614881 609.72126558 204.03609091 596.20110528 213.2878418 582.26074219 C213.84036621 581.43251953 214.39289062 580.60429688 214.9621582 579.75097656 C230.36866818 556.60652266 244.93320558 532.70101592 257.10229492 507.68066406 C258.42293229 504.98499735 259.76995631 502.3032005 261.1159668 499.62011719 C275.26718883 471.13074079 287.24056009 441.43661706 297.2878418 411.26074219 C297.69164062 410.05063477 298.09543945 408.84052734 298.51147461 407.59375 C324.41236379 329.1643233 336.89259841 246.36979829 340.5843811 138.99307251 C340.59478128 137.49773361 340.60951971 136.00241663 340.62924194 134.50717163 C340.83551325 116.66816315 338.53299986 98.50557295 326.4987793 84.50292969 C292.19703866 49.7163588 217.34232298 42.119389 171.2878418 34.26074219 C170.18101044 34.07155212 170.18101044 34.07155212 169.05181885 33.87854004 C71.05451716 17.27810256 -32.3356619 17.3488773 -303.7121582 81.26074219 Z " fill="#020405" transform="translate(343.712158203125,-0.2607421875)"/>
<path d="M0 0 C0.73605469 0.18224121 1.47210938 0.36448242 2.23046875 0.55224609 C22.05966828 5.58950243 22.05966828 5.58950243 27 13 C26.84675716 16.06485682 26.52863125 17.49665635 24.28515625 19.6328125 C20.17515274 22.09178896 15.63839183 21.53519906 11 21 C7.8125 19.5 7.8125 19.5 6 18 C5.67 18.33 5.34 18.66 5 19 C5.99 21.97 5.99 21.97 7 25 C4.29590207 27.96163106 2.33612071 28.92177418 -1.75219727 29.16113281 C-5.35573178 29.20679086 -8.95869982 29.23531309 -12.5625 29.25 C-14.4197168 29.2809375 -14.4197168 29.2809375 -16.31445312 29.3125 C-27.76104236 29.36097682 -37.16496296 26.93744829 -47 21 C-47.70125 20.236875 -48.4025 19.47375 -49.125 18.6875 C-51.5648305 16.49165255 -53.61249456 16.38850632 -56.8359375 16.52734375 C-60.15452614 17.25216185 -62.60204665 18.94569083 -65.3359375 20.90625 C-67 22 -67 22 -69 22 C-69 22.99 -69 23.98 -69 25 C-51.40695252 28.65593254 -34.2221848 30.26994444 -16.26953125 30.15234375 C-15.44350277 30.14696217 -14.61747429 30.14158058 -13.76641464 30.13603592 C-6.90659916 30.0844657 -0.04728975 29.99767341 6.81201172 29.90020752 C11.969027 29.82725801 17.12567698 29.7707805 22.28310585 29.73730659 C24.65690613 29.71551894 27.02945196 29.67013413 29.40287781 29.62376404 C43.30437853 29.46386842 56.34482183 32.29333451 66.99609375 41.77734375 C74.41537272 49.57955325 78.11269179 59.23361386 78.25 69.875 C78.27578125 71.06867188 78.3015625 72.26234375 78.328125 73.4921875 C78 77 78 77 76.421875 80.1328125 C74.80458889 82.84235365 74.80458889 82.84235365 75.04296875 85.515625 C76.30029629 88.77954466 78.10625105 91.03353399 80.3125 93.75 C86.09017971 101.00499972 91.4251252 108.53712567 96.71240234 116.15429688 C97.79118872 117.70068008 98.88766178 119.23470441 99.98828125 120.765625 C106.82047813 130.4629367 107.30175845 138.79169269 106.9375 150.5 C106.70414224 161.82122347 107.52091434 172.4054726 109.5625 183.57836914 C110.95111012 191.25056674 112.29853788 199.22047127 111 207 C109.515 207.99 109.515 207.99 108 209 C110.39706771 211.16186482 112.79602439 213.3215056 115.19921875 215.4765625 C116.96175506 217.06456592 118.71569412 218.66221618 120.45703125 220.2734375 C128.92277441 228.03250023 136.39377741 230.36614812 147.75 231.3125 C151.15516121 231.15242712 151.15516121 231.15242712 154.625 229.4375 C158.14713176 227.93733277 159.44896472 227.81632157 163 229 C163.68359375 231.25 163.68359375 231.25 164 234 C159.69314906 241.70853321 151.82010348 246.31934176 143.625 248.8125 C129.20701756 252.32227166 118.57403446 247.60490013 106 241 C106.59131932 242.77395797 107.21353337 244.53891754 107.90234375 246.27734375 C110.56431773 253.11811462 112.07959493 259.72788862 113 267 C113.08540039 267.62479248 113.17080078 268.24958496 113.25878906 268.89331055 C113.97409003 274.55654337 114.16108349 280.1821182 114.29052734 285.88598633 C114.54021373 296.75311734 115.05060958 307.51931308 116.375 318.3125 C116.4889209 319.27679932 116.6028418 320.24109863 116.72021484 321.23461914 C117.28501233 325.48718979 118.00711107 329.35019655 119.578125 333.3515625 C121.85424105 339.1919262 122.00082853 345.01025586 119.8125 350.9375 C117.79388981 354.34825515 116.71694817 355.64838248 113 357 C109.1875 356.6875 109.1875 356.6875 106 356 C105.67 354.35 105.34 352.7 105 351 C103.515 354.465 103.515 354.465 102 358 C95.94537696 356.2701077 90.18436045 353.69832922 87 348 C85.22668907 341.99802456 86.77483664 336.83722041 89.1875 331.25 C90.21664419 327.13342325 89.68145663 323.75543649 89.21484375 319.56640625 C88.91900102 314.65541695 89.33163552 309.85024212 89.85766602 304.96362305 C90.56285851 296.87431538 86.25257992 291.64410678 81.9375 285.25 C81.49083984 284.57839844 81.04417969 283.90679687 80.58398438 283.21484375 C78.85073095 280.62921308 77.20670815 278.20670815 75 276 C61.5613662 285.27289267 56.41125518 292.66491034 53.375 308.875 C52.65738196 312.78784825 52.03687453 316.67950175 51.58203125 320.6328125 C50.76009959 327.64771435 49.63525055 333.31121045 44 338 C36.85728251 342.67827111 30.44208285 342.57386067 22.0625 342.4375 C20.22655273 342.44813477 20.22655273 342.44813477 18.35351562 342.45898438 C10.52640749 342.40424935 3.23045159 342.08728309 -3.26953125 337.34375 C-9.761932 329.58574201 -12.07737698 320.7733337 -14 311 C-15.32 311.66 -16.64 312.32 -18 313 C-17.95359375 314.26457031 -17.9071875 315.52914063 -17.859375 316.83203125 C-17.82185788 318.49216391 -17.78545765 320.15232208 -17.75 321.8125 C-17.71648437 322.64587891 -17.68296875 323.47925781 -17.6484375 324.33789062 C-17.54962454 330.48899708 -17.54962454 330.48899708 -19.828125 333.07421875 C-22 334 -22 334 -25 334 C-24.74863281 335.02480469 -24.49726563 336.04960938 -24.23828125 337.10546875 C-23.92866289 338.46591305 -23.62012585 339.82660376 -23.3125 341.1875 C-23.14427734 341.86103516 -22.97605469 342.53457031 -22.80273438 343.22851562 C-22.06982447 346.56732744 -21.8636239 348.64677146 -23.10546875 351.86328125 C-28.03773941 357.42606899 -37.26732172 357.69747065 -44.27734375 358.265625 C-50.40015066 358.47342936 -50.40015066 358.47342936 -53 358 C-54.84375 355.9765625 -54.84375 355.9765625 -56 354 C-55.01 352.02 -54.02 350.04 -53 348 C-53.721875 348.845625 -54.44375 349.69125 -55.1875 350.5625 C-58 353 -58 353 -60.6875 353.0625 C-63 352 -63 352 -64.3125 350.3125 C-65.4414892 346.51499089 -65.86770458 343.74957576 -64.04296875 340.0703125 C-61.37467803 335.87179166 -58.28929447 332.16127161 -54.99658203 328.43847656 C-48.84353174 321.46208655 -44.7476179 314.53126668 -41 306 C-45.7709737 308.24660577 -47.46060383 311.15311402 -49.5 315.8125 C-52.27050161 322.02293063 -55.32124451 327.78852207 -61.4375 331.25 C-72.03345042 338.62606031 -75.63589686 355.16396166 -80.03295898 366.71313477 C-80.54451538 368.03269165 -80.54451538 368.03269165 -81.06640625 369.37890625 C-81.37006104 370.17111572 -81.67371582 370.9633252 -81.98657227 371.77954102 C-84.2709229 376.78464075 -87.44430736 380.06658442 -92.125 382.875 C-97.10775296 384.67774882 -102.73282677 385.16784619 -108 385 C-110.76223278 382.23776722 -110.57856291 379.79293383 -111 376 C-111.721875 376.515625 -112.44375 377.03125 -113.1875 377.5625 C-116 379 -116 379 -118.6875 378.875 C-121 378 -121 378 -123 375 C-124.01508086 364.92382968 -122.76455833 356.49703515 -116.875 348.21484375 C-112.47445638 343.0167016 -106.83368108 339.2936491 -101.3125 335.3828125 C-100.36600586 334.71173462 -100.36600586 334.71173462 -99.40039062 334.02709961 C-98.15399947 333.14850913 -96.90282035 332.27666368 -95.64648438 331.41235352 C-90.9177855 328.19041751 -90.9177855 328.19041751 -88.57348633 323.11474609 C-88.49380615 322.42461426 -88.41412598 321.73448242 -88.33203125 321.0234375 C-88.24373047 320.270625 -88.15542969 319.5178125 -88.06445312 318.7421875 C-87.98130859 317.96101563 -87.89816406 317.17984375 -87.8125 316.375 C-87.71775391 315.58609375 -87.62300781 314.7971875 -87.52539062 313.984375 C-87.30144114 311.99447274 -87.14506005 309.99720354 -87 308 C-87.33 307.67 -87.66 307.34 -88 307 C-88.23105121 304.55602113 -88.40325269 302.13347472 -88.53515625 299.68359375 C-88.59962196 298.58701195 -88.59962196 298.58701195 -88.66539001 297.46827698 C-88.80213845 295.12491396 -88.93238542 292.78123983 -89.0625 290.4375 C-89.15387007 288.85218888 -89.24566141 287.26690199 -89.33789062 285.68164062 C-89.56348956 281.78802501 -89.78325697 277.89411823 -90 274 C-93.17542265 277.0824152 -95.45745759 280.07620039 -97.75 283.875 C-98.08999023 284.43727295 -98.42998047 284.9995459 -98.78027344 285.57885742 C-102.63225399 291.98556061 -106.40235904 298.44715397 -110 305 C-110.359729 305.62197266 -110.71945801 306.24394531 -111.09008789 306.88476562 C-113.85324793 311.92021626 -114.61214512 316.188601 -114.9375 321.875 C-115.7741981 331.4656765 -117.7755648 338.36659433 -125.125 345 C-127.35884807 346.80793929 -129.6044439 348.4029626 -132 350 C-132.36742847 352.40632072 -132.36742847 352.40632072 -132.1875 355.19921875 C-132.16429687 356.24400391 -132.14109375 357.28878906 -132.1171875 358.36523438 C-132.03975057 360.56057125 -131.9616379 362.75588441 -131.8828125 364.95117188 C-131.746016 371.14881352 -131.86617096 375.58108729 -135 381 C-135.5465625 381.49757813 -136.093125 381.99515625 -136.65625 382.5078125 C-138.87298999 384.96942493 -138.41835886 387.65697827 -138.5 390.875 C-138.71316412 399.24169176 -138.71316412 399.24169176 -142 403 C-147.39857404 405.26413747 -152.62450313 405.27604088 -158.375 405.1875 C-159.19355469 405.18685547 -160.01210937 405.18621094 -160.85546875 405.18554688 C-166.85925752 405.14074248 -166.85925752 405.14074248 -168 404 C-168.14193337 400.99668982 -168.04236378 398.00782866 -168 395 C-168.66 397.97 -169.32 400.94 -170 404 C-171.65 404.33 -173.3 404.66 -175 405 C-178.50973362 399.86291584 -180.93363082 395.70719652 -179.78125 389.40234375 C-177.96448269 383.81578427 -175.2465574 378.11465725 -170.9375 374.05859375 C-168.52200306 371.49212825 -167.86577444 369.22449343 -166.8125 365.875 C-164.24164156 358.77719516 -160.35630213 354.20299115 -155 349 C-153.93458984 347.87271484 -153.93458984 347.87271484 -152.84765625 346.72265625 C-151 345 -151 345 -149 345 C-149.23589844 344.03126953 -149.23589844 344.03126953 -149.4765625 343.04296875 C-151.39140111 331.9111831 -151.12022131 321.67213546 -145 312 C-141.15411031 304.62370376 -141.01363036 296.40937635 -142.4921875 288.30078125 C-144.2078104 277.14923237 -145.26658071 263.2088241 -139.2890625 253.28125 C-135.15019977 245.95671717 -135.87692639 238.61784375 -136.0625 230.4375 C-136.28384709 205.002115 -127.25876736 188.70237063 -113.29345703 168.03613281 C-112.86661621 167.36420898 -112.43977539 166.69228516 -112 166 C-111.61948486 165.40896484 -111.23896973 164.81792969 -110.84692383 164.20898438 C-109.61637976 160.99942465 -109.70180064 157.84321172 -109.69140625 154.453125 C-109.66623375 152.95312132 -109.64083592 151.45312141 -109.61523438 149.953125 C-109.58659859 147.60547984 -109.56256347 145.25790043 -109.54370117 142.91015625 C-109.52185566 140.63246129 -109.48239481 138.35554476 -109.44140625 136.078125 C-109.44129044 135.388255 -109.44117462 134.69838501 -109.4410553 133.98760986 C-109.24185381 124.02377549 -104.65558126 116.80379264 -97.9140625 109.84765625 C-86.94002069 99.47518152 -74.23508613 92.41708478 -60.76269531 85.86425781 C-53.08527327 82.09998163 -48.08837494 78.18345068 -42.55859375 71.66796875 C-39.5541318 68.53507178 -36.34716075 66.06289714 -32.8125 63.5625 C-32.23016602 63.14967773 -31.64783203 62.73685547 -31.04785156 62.31152344 C-23.96256562 57.4280395 -18.60784937 54.62497991 -10 56 C-5.29727601 57.49725676 -0.75249315 59.31310112 3.82617188 61.14892578 C21.469588 68.05648964 39.96012646 73.68266877 59 74 C58.72299863 66.46556268 58.24575895 58.96298296 52.42720032 53.5319519 C49.12623645 51.44851534 45.70200321 50.65451063 41.93432617 49.83251953 C41.14000026 49.65914125 40.34567434 49.48576298 39.52727795 49.30713081 C30.68750505 47.52990133 22.02984106 47.53093636 13.05078125 47.6796875 C11.29641575 47.69228634 9.54203375 47.70274695 7.78764343 47.71121216 C3.22143087 47.73748137 -1.34421871 47.78616805 -5.91015625 47.84191895 C-13.22359958 47.92902967 -20.53718539 47.98819395 -27.8509922 48.0340004 C-30.3717266 48.05407051 -32.89196855 48.08818493 -35.41252136 48.12399292 C-51.29864124 48.29178732 -69.33207749 48.41634254 -81.47265625 36.72265625 C-84.38877732 33.43362968 -84.8970371 30.92666608 -85.375 26.625 C-84.65280014 19.64373473 -80.90657547 15.18115718 -75.6640625 10.83203125 C-67.05581239 4.91228154 -57.16881726 0.38454823 -47 -2 C-46.1171936 -2.25583862 -46.1171936 -2.25583862 -45.21655273 -2.5168457 C-31.06172778 -5.60225143 -13.969565 -3.52278924 0 0 Z M-12 13 C-11.67 13.99 -11.34 14.98 -11 16 C-10.34 15.67 -9.68 15.34 -9 15 C-9.99 14.34 -10.98 13.68 -12 13 Z M-29 16 C-29.33 16.66 -29.66 17.32 -30 18 C-28.56445975 18.50559908 -27.1264798 19.0042749 -25.6875 19.5 C-24.88699219 19.7784375 -24.08648437 20.056875 -23.26171875 20.34375 C-20.91230578 21.13933107 -20.91230578 21.13933107 -18 21 C-18.33 19.35 -18.66 17.7 -19 16 C-22.3 16 -25.6 16 -29 16 Z M-2 16 C2 17 2 17 2 17 Z M-5 79 C-4.11346604 83.49404058 -1.55884903 86.30894242 1.3125 89.75 C2.41074112 91.09611896 3.50703648 92.44382731 4.6015625 93.79296875 C5.44702637 94.83396729 5.44702637 94.83396729 6.30957031 95.89599609 C47.43986651 147.08907707 47.43986651 147.08907707 47.0625 172.75 C47.05347656 173.54921875 47.04445313 174.3484375 47.03515625 175.171875 C47.02355469 175.77515625 47.01195312 176.3784375 47 177 C46.01 177.495 46.01 177.495 45 178 C39.3073549 174.4759816 37.35855133 169.91163851 35.09326172 163.81396484 C34.46898296 162.17932297 33.74075738 160.58526229 33 159 C32.01 158.67 31.02 158.34 30 158 C29.505 158.639375 29.01 159.27875 28.5 159.9375 C24.7100401 163.06421692 20.65771679 163.22022512 15.92578125 162.828125 C14.27642725 162.6006279 12.63645225 162.3068348 11 162 C11 163.32 11 164.64 11 166 C11.64066406 165.96519531 12.28132813 165.93039062 12.94140625 165.89453125 C18.79534081 165.71132316 22.89792137 166.02378746 28 169 C29.75084106 171.26150304 30.04155195 172.29361678 29.875 175.125 C28.73076926 177.57692302 27.40467611 177.90872128 25 179 C25.81984375 179.09796875 26.6396875 179.1959375 27.484375 179.296875 C28.56203125 179.44640625 29.6396875 179.5959375 30.75 179.75 C31.81734375 179.88921875 32.8846875 180.0284375 33.984375 180.171875 C37.50325836 181.13820048 38.77880005 182.13845412 41 185 C42.25 187.75 42.25 187.75 43 190 C43.63389648 189.98428955 44.26779297 189.9685791 44.92089844 189.95239258 C63.96184005 189.54259389 78.95255114 190.13640176 93.46875 203.64453125 C94.78396308 205.11047019 94.78396308 205.11047019 96 205 C95.74317456 198.70777666 94.83179889 193.08007845 92.9375 187.0625 C90.15653848 177.80948257 90.46315163 169.95067653 92.54296875 160.62890625 C95.55200489 143.3205189 88.45595188 130.16437906 78.83203125 116.41796875 C73.41057946 108.80767354 67.85605853 101.28280733 62 94 C56.19834261 94.97458672 51.16017278 96.01253155 46 99 C46.5775 99.268125 47.155 99.53625 47.75 99.8125 C53.13657754 102.65541592 54.72070082 105.00562452 56.6875 110.875 C57.31205078 112.69644531 57.31205078 112.69644531 57.94921875 114.5546875 C59.82160069 120.69387289 61.76543919 127.55319015 58.6875 133.5625 C54.20136104 135.9620627 49.84438077 135.08202957 45 134 C36.39957044 129.78410315 30.39484545 121.42392716 24.98828125 113.78125 C16.34135613 101.68574767 6.33911995 89.69850113 -4 79 C-4.33 79 -4.66 79 -5 79 Z M-4 117 C-4.33 117.66 -4.66 118.32 -5 119 C-4.01 119.66 -3.02 120.32 -2 121 C-3 124 -3 124 -5 125 C-7.02032471 125.04533688 -9.04203403 125.03853094 -11.0625 125 C-13.04130858 124.96235323 -15.02138259 124.95337573 -17 125 C-18.35618499 126.12534105 -18.35618499 126.12534105 -18.0625 129.0625 C-18.041875 130.031875 -18.02125 131.00125 -18 132 C-16.46279297 131.91298828 -16.46279297 131.91298828 -14.89453125 131.82421875 C-13.53389989 131.77730043 -12.17321904 131.73180248 -10.8125 131.6875 C-9.80219727 131.6246582 -9.80219727 131.6246582 -8.77148438 131.56054688 C-4.90729675 131.4662984 -3.23966203 131.80619509 -0.203125 134.26171875 C2.12939425 137.16082512 4.33513251 140.08935765 6.47265625 143.1328125 C8.14627932 145.1788274 9.76801093 146.58684716 12 148 C14.6433774 148.08805146 14.6433774 148.08805146 17 147 C19.38526899 143.30122139 19.13328499 140.59445869 18.54296875 136.37890625 C17.21585753 130.56444054 14.54920169 125.87149527 10 122 C6.79231967 120.45580324 6.79231967 120.45580324 3.3125 119.25 C2.15363281 118.82203125 0.99476563 118.3940625 -0.19921875 117.953125 C-2.66469453 116.94630615 -2.66469453 116.94630615 -4 117 Z M-78 160 C-77.95359375 160.59167969 -77.9071875 161.18335938 -77.859375 161.79296875 C-77.55878428 168.37375834 -77.55878428 168.37375834 -79.9375 171.75 C-80.618125 172.4925 -81.29875 173.235 -82 174 C-83.49816523 178.17346028 -82.86025825 181.01373232 -81 185 C-75.99137357 188.89559834 -68.05991539 188.20542086 -62 188 C-61.34 187.67 -60.68 187.34 -60 187 C-60 186.01 -60 185.02 -60 184 C-61.010625 183.360625 -62.02125 182.72125 -63.0625 182.0625 C-70.16723124 177.311572 -74.32223046 168.20242885 -76 160 C-76.66 160 -77.32 160 -78 160 Z M16 175 C16 175.99 16 176.98 16 178 C18.97 178 21.94 178 25 178 C24.67 177.01 24.34 176.02 24 175 C21.36 175 18.72 175 16 175 Z M5.375 192.1875 C1.28354872 193.58720702 -2.06132288 192.35200392 -6 190.875 C-9.43713067 189.87250356 -11.53249713 190.31613138 -15 191 C-14.71561048 192.89693861 -14.42216208 194.79252027 -14.125 196.6875 C-13.96257812 197.74324219 -13.80015625 198.79898438 -13.6328125 199.88671875 C-12.33165583 206.2880883 -9.87892052 209.48094455 -5 213.75 C-4.4534375 214.24371094 -3.906875 214.73742187 -3.34375 215.24609375 C-0.38163041 217.91958578 -0.38163041 217.91958578 3 220 C2.7525 218.7934375 2.7525 218.7934375 2.5 217.5625 C1.59260818 211.09733329 1.25218768 205.07411145 4 199 C9.53698058 192.46961997 20.06782125 192.14083789 28 191 C27.505 190.01 27.505 190.01 27 189 C19.24021929 188.74324255 12.55843102 188.93785263 5.375 192.1875 Z M-44 194 C-45.84914875 196.97544844 -47.23147709 199.95554501 -48.578125 203.1875 C-50.63441423 207.25488529 -52.74260226 208.58086742 -57 210 C-62.87414944 210.70675171 -67.00731888 209.92221659 -72.13671875 207.0234375 C-74.64621331 205.64505684 -77.26530425 204.82040872 -80 204 C-83.46074868 206.98008915 -85.30268555 209.36084525 -87 213.625 C-88.23195411 216.56991023 -88.91594016 217.92275582 -91.3125 220.125 C-94.97321847 221.31686183 -97.30076493 221.00888229 -101 220 C-102.35251497 218.68612831 -103.68945377 217.35573748 -105 216 C-107.12907319 215.76098289 -107.12907319 215.76098289 -109 217 C-111.72860842 220.77389623 -112.40749023 223.71698919 -112.8125 228.3125 C-113.49429984 233.73872521 -114.7351183 238.55981129 -116.75 243.625 C-126.46086282 266.69220851 -126.46086282 266.69220851 -126 291 C-123.1484053 290.66710458 -122.1491146 290.16767253 -120.2109375 287.98828125 C-119.30214844 286.66376953 -119.30214844 286.66376953 -118.375 285.3125 C-117.68792969 284.32507813 -117.00085938 283.33765625 -116.29296875 282.3203125 C-115.92606934 281.78567383 -115.55916992 281.25103516 -115.18115234 280.70019531 C-113.93309475 278.90369406 -112.65297662 277.13400916 -111.36328125 275.3671875 C-110.69643311 274.45005981 -110.69643311 274.45005981 -110.01611328 273.5144043 C-109.15061155 272.32429966 -108.28319219 271.13558652 -107.41357422 269.94848633 C-104.88536241 266.43674218 -102.90684567 262.87520248 -101 259 C-96.27847572 254.27847572 -86.96994073 255.77940873 -80.6875 255.75 C-79.59759766 255.729375 -78.50769531 255.70875 -77.38476562 255.6875 C-70.10992915 255.65250379 -62.5790727 255.84199467 -56.875 260.875 C-56 263 -56 263 -56 265.625 C-57 268 -57 268 -58.9375 269.25 C-62.58363764 270.14293167 -66.15123379 270.4828557 -69.890625 270.75390625 C-71.98383605 270.77703502 -71.98383605 270.77703502 -73 272 C-72.96148004 274.21045313 -72.84303246 276.41968903 -72.6875 278.625 C-72.60886719 279.83414063 -72.53023437 281.04328125 -72.44921875 282.2890625 C-71.99573944 286.03519593 -71.07360187 289.39004405 -70 293 C-64.78950979 292.88061133 -59.57916703 292.75630469 -54.36889648 292.62768555 C-52.60102422 292.58470805 -50.83312028 292.54301177 -49.06518555 292.50268555 C-35.00743729 292.18572212 -35.00743729 292.18572212 -21 291 C-22.35392364 283.74667619 -25.59400697 277.62030653 -30.125 271.8125 C-35.44383644 264.88978763 -36.80618446 259.33724738 -36.6015625 250.56640625 C-35.05801418 241.41536979 -27.25608582 234.91529238 -20.78515625 228.77734375 C-18.79536143 226.796257 -18.00819208 225.8339537 -17.98046875 223.01171875 C-18.04878906 222.24472656 -18.11710937 221.47773438 -18.1875 220.6875 C-18.24292969 219.92824219 -18.29835938 219.16898438 -18.35546875 218.38671875 C-18.86791519 215.84397697 -18.86791519 215.84397697 -20.8671875 213.7109375 C-23.94547269 209.79824534 -25.1199263 205.49270897 -26.62304688 200.79492188 C-28.20454062 196.20557355 -29.70705776 193.65294184 -34 191 C-37.83266652 191 -40.88889756 191.84080204 -44 194 Z M59 206 C59 206.66 59 207.32 59 208 C61.27676501 209.58108681 63.64379909 210.95977045 66.03125 212.3671875 C67.00578125 213.17542969 67.00578125 213.17542969 68 214 C68 215.32 68 216.64 68 218 C62.86433996 219.63189198 58.03049105 218.68378815 53 217 C50.65898624 215.31509126 48.73246081 213.55487213 46.75390625 211.4609375 C44.86820191 209.57332263 44.86820191 209.57332263 41 210 C40.566875 210.639375 40.13375 211.27875 39.6875 211.9375 C38 214 38 214 34.3125 214.75 C33.219375 214.8325 32.12625 214.915 31 215 C30.67 216.32 30.34 217.64 30 219 C32.9733708 221.48707183 35.50807142 222.65209857 39.25 223.625 C40.14203125 223.86476563 41.0340625 224.10453125 41.953125 224.3515625 C48.51463744 225.74798694 54.88032273 226.16128332 61.5625 226.125 C62.63661133 226.13080078 62.63661133 226.13080078 63.73242188 226.13671875 C68.25367635 226.12849081 72.53905679 225.73860558 77 225 C78 228 78 228 77.125 230.3125 C71.0382611 238.01043449 61.77525173 241.45184289 52.3125 242.8125 C37.10616444 243.94589147 23.87200921 239.12091973 12 230 C10.66694016 228.99963544 9.33369781 227.99951385 8 227 C7.95875 228.27875 7.9175 229.5575 7.875 230.875 C7.31866141 235.79821544 5.48790366 238.88242923 2.82421875 242.984375 C0.52272514 246.78898543 -1.36670647 250.72564009 -3.25 254.75 C-3.5910376 255.47123047 -3.9320752 256.19246094 -4.28344727 256.93554688 C-6.88757728 262.5334878 -9.08998409 267.9324978 -9.75 274.125 C-9.84796875 274.95257813 -9.9459375 275.78015625 -10.046875 276.6328125 C-9.99441212 279.28218792 -9.34888877 280.74839335 -8 283 C-6.85121668 280.89739659 -5.70588808 278.79303461 -4.5625 276.6875 C-4.23701172 276.09259766 -3.91152344 275.49769531 -3.57617188 274.88476562 C-2.16262616 272.27626374 -0.94051367 269.82154101 0 267 C6.0546875 266.8046875 6.0546875 266.8046875 8 267 C10 269 10 269 10.4375 272.8125 C10.27095949 280.75520111 6.56644221 288.29188472 2.75 295.125 C-0.3689354 301.13465601 -0.65182164 308.08826818 0.8125 314.625 C1.59034453 318.08487697 1.59034453 318.08487697 4 319 C4.5878125 317.7625 4.5878125 317.7625 5.1875 316.5 C7 314 7 314 9.375 313.4375 C12.82585633 314.17696921 14.5178566 315.5178566 17 318 C18 320.0625 18 320.0625 18 322 C16.75 323.5625 16.75 323.5625 15 325 C13.99391374 325.99387647 12.99300235 326.99305098 12 328 C24.36039316 328.59675175 24.36039316 328.59675175 36 325 C40.85963085 319.76788408 41.03075751 313.74319069 41.875 306.875 C44.47956928 288.75727331 51.45128198 277.30756731 66.16845703 266.20507812 C68.22022248 264.69300502 70.29038868 263.20945834 72.36328125 261.7265625 C78.18960893 257.60663475 78.18960893 257.60663475 81.8203125 251.67578125 C81.92085938 250.89589844 82.02140625 250.11601562 82.125 249.3125 C82.71155986 245.65061228 83.41994674 242.13176374 84.4375 238.5625 C84.66308594 237.75941406 84.88867188 236.95632813 85.12109375 236.12890625 C86.07402705 233.82069004 87.21704392 232.70349286 89 231 C89 230.34 89 229.68 89 229 C88.51917969 228.59136719 88.03835938 228.18273437 87.54296875 227.76171875 C85.32561454 225.23000547 85.49063958 223.12589617 85.3125 219.8125 C85.24675781 218.72582031 85.18101562 217.63914062 85.11328125 216.51953125 C85.05720703 215.27236328 85.05720703 215.27236328 85 214 C72.56861742 207.90187538 72.56861742 207.90187538 59 206 Z M97 253 C92.90626575 257.63956548 89.64196264 261.93171523 89.875 268.3125 C90.70789382 273.87774504 93.91792479 278.22987377 98 282 C98.99 282 99.98 282 101 282 C100.48691115 267.38193264 100.48691115 267.38193264 98 253 C97.67 253 97.34 253 97 253 Z M-66.5625 313.25 C-68.76715929 315.73730791 -69.64403955 316.79635595 -70 320 C-67.525 320.495 -67.525 320.495 -65 321 C-63.35 319.02 -61.7 317.04 -60 315 C-60.66 313.68 -61.32 312.36 -62 311 C-64.31787296 310.78006628 -64.31787296 310.78006628 -66.5625 313.25 Z M-129 321 C-132.70552952 323.88286741 -132.70552952 323.88286741 -134.33203125 328.11328125 C-134.3145776 330.07856214 -134.16596091 332.04166127 -134 334 C-132.08533633 333.87822312 -132.08533633 333.87822312 -130 333 C-127.07099943 329.33874929 -126.67784584 326.6175429 -127 322 C-127.66 321.67 -128.32 321.34 -129 321 Z " fill="#020405" transform="translate(375,189)"/>
<path d="M0 0 C0.02312283 11.06534858 0.04091478 22.13069145 0.05181217 33.19605923 C0.05704113 38.33359566 0.06413901 43.47111563 0.07543945 48.60864258 C0.08626787 53.5623141 0.09227674 58.51596974 0.09487724 63.46965218 C0.09673157 65.36397616 0.10035234 67.25829924 0.10573006 69.1526165 C0.11293989 71.79634386 0.11399097 74.44000471 0.11352539 77.08374023 C0.11712067 77.87495773 0.12071594 78.66617523 0.12442017 79.48136902 C0.11405216 84.88594784 0.11405216 84.88594784 -1 86 C-3.32487582 86.42428984 -5.66057138 86.79012211 -8 87.125 C-9.918125 87.40730469 -9.918125 87.40730469 -11.875 87.6953125 C-12.90625 87.79585938 -13.9375 87.89640625 -15 88 C-16.88631543 86.11368457 -16.24265292 82.85799307 -16.31640625 80.33984375 C-16.33718735 79.67537735 -16.35796844 79.01091095 -16.37937927 78.3263092 C-16.44493658 76.19681457 -16.50378785 74.06719332 -16.5625 71.9375 C-16.60567939 70.49673153 -16.64929349 69.05597601 -16.69335938 67.61523438 C-16.80062393 64.0769596 -16.90187371 60.53854131 -17 57 C-17.29245605 57.94319092 -17.58491211 58.88638184 -17.88623047 59.8581543 C-18.97630427 63.37181362 -20.06905471 66.88463577 -21.16259766 70.3972168 C-21.63467786 71.9148948 -22.10604097 73.43279605 -22.57666016 74.95092773 C-23.25493007 77.13845576 -23.93581166 79.32515646 -24.6171875 81.51171875 C-24.82560272 82.18587326 -25.03401794 82.86002777 -25.24874878 83.55461121 C-26.35768926 87.1038069 -27.56333779 90.56989686 -29 94 C-29.99 94 -30.98 94 -32 94 C-35.58093905 86.31102107 -38.43546145 78.43428197 -41.25 70.4375 C-42.8175 66.003125 -44.385 61.56875 -46 57 C-46.33 68.22 -46.66 79.44 -47 91 C-56.25139665 94.46927374 -56.25139665 94.46927374 -62 94 C-63.75439163 92.24560837 -63.11982963 89.94502544 -63.12442017 87.60829163 C-63.12082489 86.8357756 -63.11722961 86.06325958 -63.11352539 85.26733398 C-63.11367142 84.4576416 -63.11381744 83.64794922 -63.1139679 82.8137207 C-63.11326854 80.12448492 -63.1054751 77.43531751 -63.09765625 74.74609375 C-63.09579215 72.88664284 -63.09436821 71.02719144 -63.09336853 69.16773987 C-63.08954271 64.26370904 -63.07971188 59.35970764 -63.06866455 54.45568848 C-63.05845181 49.45548908 -63.05387121 44.45528494 -63.04882812 39.45507812 C-63.03808967 29.63670579 -63.02101248 19.81835534 -63 10 C-61.58698451 9.49725441 -60.17102747 9.00277205 -58.75390625 8.51171875 C-57.9657251 8.23545654 -57.17754395 7.95919434 -56.36547852 7.67456055 C-53.104115 6.7445216 -50.36951447 6.78492461 -47 7 C-43.30223432 15.65963967 -39.92702103 24.40970706 -36.6875 33.25 C-36.23310547 34.48363281 -35.77871094 35.71726563 -35.31054688 36.98828125 C-34.20476157 39.99136135 -33.1012863 42.99526777 -32 46 C-29.96969439 42.95454159 -29.07328033 40.47926361 -27.9765625 37.00390625 C-27.595 35.80443359 -27.2134375 34.60496094 -26.8203125 33.36914062 C-26.22863281 31.48485352 -26.22863281 31.48485352 -25.625 29.5625 C-24.08762592 24.70696019 -22.54592625 19.85282361 -21 15 C-20.63358398 13.83968262 -20.26716797 12.67936523 -19.88964844 11.48388672 C-19.36806152 9.86571045 -19.36806152 9.86571045 -18.8359375 8.21484375 C-18.52962402 7.25570068 -18.22331055 6.29655762 -17.90771484 5.30834961 C-17 3 -17 3 -15 1 C-12.28515625 0.33203125 -12.28515625 0.33203125 -9.0625 -0.1875 C-8.00160156 -0.36667969 -6.94070312 -0.54585937 -5.84765625 -0.73046875 C-3 -1 -3 -1 0 0 Z " fill="#020405" transform="translate(228,49)"/>
<path d="M0 0 C2.48785281 0.37109976 4.91416893 0.80706908 7.375 1.3125 C8.40367187 1.50875977 8.40367187 1.50875977 9.453125 1.70898438 C12.85396443 2.39378375 15.07776921 3.05184614 18 5 C18.97973633 6.88500977 18.97973633 6.88500977 19.83203125 9.19140625 C20.15276611 10.04581299 20.47350098 10.90021973 20.80395508 11.78051758 C21.1367749 12.69857178 21.46959473 13.61662598 21.8125 14.5625 C22.16143311 15.50182373 22.51036621 16.44114746 22.86987305 17.40893555 C25.54952353 24.65741155 28.14259809 31.93740807 30.67578125 39.23828125 C32.06280855 43.17842075 33.53330632 47.08881685 35 51 C35.33 37.8 35.66 24.6 36 11 C41.01044478 9.99791104 41.89249608 9.98326926 46.25 11.875 C47.55710937 12.42800781 47.55710937 12.42800781 48.890625 12.9921875 C51 14 51 14 52 15 C52.09512944 17.67787973 52.12555279 20.32988869 52.11352539 23.00805664 C52.11367142 23.84700974 52.11381744 24.68596283 52.1139679 25.55033875 C52.1132685 28.33697044 52.10547485 31.12353616 52.09765625 33.91015625 C52.09579217 35.83686791 52.09436822 37.76358005 52.09336853 39.69029236 C52.08954259 44.77187397 52.07971166 49.8534272 52.06866455 54.93499756 C52.05845206 60.11616634 52.05387126 65.29733969 52.04882812 70.47851562 C52.03808946 80.65235625 52.02101213 90.82617577 52 101 C45.61936489 102.44451984 40.70871939 101.2166285 35 98 C32.30838522 94.70101372 31.27564319 91.02555913 30 87 C29.47277957 85.49811773 28.9398002 83.99824974 28.40234375 82.5 C27.25564792 79.28937758 26.13629707 76.07157248 25.0390625 72.84375 C22.1358301 64.52337515 19.04647434 56.26900177 16 48 C15.67 61.86 15.34 75.72 15 90 C10.88287598 91.02928101 9.74533246 90.90636589 5.875 89.6875 C5.00617187 89.42324219 4.13734375 89.15898437 3.2421875 88.88671875 C1 88 1 88 -1 86 C-1.1932732 83.29466428 -1.26226544 80.6921166 -1.24291992 77.98608398 C-1.24481827 77.15834473 -1.24671661 76.33060547 -1.24867249 75.4777832 C-1.25238605 72.73379127 -1.24166868 69.99006228 -1.23046875 67.24609375 C-1.22927727 65.34562715 -1.22882372 63.44515995 -1.2290802 61.54469299 C-1.22751438 57.55913616 -1.21921658 53.57366903 -1.20581055 49.58813477 C-1.18880904 44.46752477 -1.18499647 39.34701335 -1.18575573 34.22637844 C-1.18548443 30.3017329 -1.18000986 26.37710911 -1.17275429 22.45247078 C-1.16956198 20.56373319 -1.16759891 18.67499312 -1.16686058 16.78625298 C-1.1647036 14.15229933 -1.15597371 11.51845238 -1.14526367 8.88452148 C-1.14571686 8.09644608 -1.14617004 7.30837067 -1.14663696 6.49641418 C-1.11447458 1.11447458 -1.11447458 1.11447458 0 0 Z " fill="#020405" transform="translate(572,67)"/>
<path d="M0 0 C0.77923828 0.73863281 0.77923828 0.73863281 1.57421875 1.4921875 C2.14527344 1.98460937 2.71632813 2.47703125 3.3046875 2.984375 C7.39951587 6.7387782 9.29075636 9.97728284 9.91015625 15.47265625 C9.99227139 22.21430921 9.37284484 27.35755936 6.44921875 33.46875 C5.37576317 35.58369542 5.37576317 35.58369542 5.57421875 38.4921875 C6.50234375 39.7915625 6.50234375 39.7915625 7.44921875 41.1171875 C11.15026443 46.99531888 12.19065268 53.58812749 11.57421875 60.4921875 C9.42447707 69.42067665 5.19796593 76.27082827 -2.42578125 81.4921875 C-9.01895837 84.46525369 -16.06002062 85.36993297 -23.17578125 86.2421875 C-24.19027344 86.38011719 -25.20476562 86.51804687 -26.25 86.66015625 C-31.00303327 87.26599623 -34.72269134 87.51082457 -39.42578125 86.4921875 C-39.49518542 75.31376145 -39.54854366 64.13538636 -39.58121777 52.95678902 C-39.59689695 47.76652561 -39.61817621 42.57640924 -39.65209961 37.38623047 C-39.68461287 32.3806704 -39.70261727 27.37525206 -39.71041298 22.36959457 C-39.71597097 20.45653933 -39.72682386 18.54349215 -39.74297142 16.63049698 C-39.76463912 13.95808182 -39.76775268 11.2862579 -39.76635742 8.61376953 C-39.77714325 7.81679657 -39.78792908 7.01982361 -39.79904175 6.19869995 C-39.7865448 3.99758911 -39.7865448 3.99758911 -39.42578125 0.4921875 C-30.64042462 -5.36471692 -8.63510261 -6.86927264 0 0 Z M-22.42578125 12.4921875 C-22.42578125 19.0921875 -22.42578125 25.6921875 -22.42578125 32.4921875 C-15.32097815 32.39235463 -15.32097815 32.39235463 -9.36328125 29.0546875 C-6.38312098 25.1131852 -6.02334367 22.55129302 -6.078125 17.69140625 C-6.27252732 15.21977673 -6.27252732 15.21977673 -8.61328125 12.9296875 C-13.60762497 10.37702293 -16.85977542 11.56451986 -22.42578125 12.4921875 Z M-22.42578125 48.4921875 C-22.92078125 58.8871875 -22.92078125 58.8871875 -23.42578125 69.4921875 C-15.52584329 69.36223404 -15.52584329 69.36223404 -8.30078125 66.7421875 C-4.97292741 62.74876289 -4.22686701 59.99644831 -4.67578125 54.8671875 C-5.06215098 51.5375895 -5.48428187 50.40443657 -7.42578125 47.4921875 C-10.21837751 47.08855012 -10.21837751 47.08855012 -13.36328125 47.2421875 C-14.95462891 47.26539063 -14.95462891 47.26539063 -16.578125 47.2890625 C-19.50009381 47.37922075 -19.50009381 47.37922075 -22.42578125 48.4921875 Z " fill="#020405" transform="translate(277.42578125,46.5078125)"/>
<path d="M0 0 C2.05482923 -0.01700978 4.10796118 -0.06083882 6.16235352 -0.10522461 C15.55579519 -0.16499688 22.48333419 1.07631093 30.46899414 6.04516602 C37.84317737 13.63004019 38.96765772 20.49386732 38.87133789 30.81079102 C38.41960228 38.13712129 35.65843849 43.04922438 30.65649414 48.29516602 C29.33731865 49.31376987 28.00649157 50.31777934 26.65649414 51.29516602 C28.24959553 56.87976544 30.00710327 62.38168467 31.95336914 67.85375977 C32.35426758 68.98104492 32.75516602 70.10833008 33.16821289 71.26977539 C34.00417643 73.60757249 34.84545415 75.94347516 35.69165039 78.27758789 C36.08739258 79.39584961 36.48313477 80.51411133 36.89086914 81.66625977 C37.2540625 82.67615967 37.61725586 83.68605957 37.99145508 84.7265625 C38.65649414 87.29516602 38.65649414 87.29516602 37.65649414 90.29516602 C32.70649414 90.29516602 27.75649414 90.29516602 22.65649414 90.29516602 C19.2226879 82.93138429 16.51922748 75.42193172 13.90649414 67.73266602 C13.4952832 66.53319336 13.08407227 65.3337207 12.66040039 64.09790039 C11.65546031 61.16487759 10.6542542 58.23063743 9.65649414 55.29516602 C6.19149414 54.80016602 6.19149414 54.80016602 2.65649414 54.29516602 C2.63143799 55.35018311 2.60638184 56.4052002 2.58056641 57.4921875 C2.48665305 61.39287229 2.3863938 65.29337227 2.28417969 69.19384766 C2.24076975 70.884559 2.19909926 72.57531592 2.15917969 74.26611328 C2.1016232 76.69130208 2.03788765 79.11626017 1.97290039 81.54125977 C1.94783165 82.68189125 1.94783165 82.68189125 1.92225647 83.8455658 C1.77036585 89.18129431 1.77036585 89.18129431 0.65649414 90.29516602 C-1.50831383 90.39409541 -3.67644371 90.42487702 -5.84350586 90.42016602 C-7.02944336 90.42274414 -8.21538086 90.42532227 -9.43725586 90.42797852 C-12.34350586 90.29516602 -12.34350586 90.29516602 -13.34350586 89.29516602 C-13.44399109 86.56165853 -13.47966847 83.8533871 -13.47290039 81.11938477 C-13.47465271 80.26253082 -13.47640503 79.40567688 -13.47821045 78.52285767 C-13.48263003 75.67610682 -13.47969061 72.82941755 -13.47631836 69.98266602 C-13.47699137 68.01350899 -13.47796137 66.04435205 -13.47921753 64.07519531 C-13.48069465 59.94245617 -13.4785395 55.8097386 -13.47387695 51.67700195 C-13.46817966 46.36692081 -13.47145859 41.0568902 -13.47744942 35.74681091 C-13.48105466 31.67891048 -13.47991662 27.61102212 -13.47732162 23.54312134 C-13.47665225 21.58460484 -13.47748113 19.62608726 -13.47980118 17.66757202 C-13.4823271 14.93533402 -13.47848797 12.20317905 -13.47290039 9.47094727 C-13.47492462 8.6532486 -13.47694885 7.83554993 -13.47903442 6.99307251 C-13.44334932 -2.37643402 -8.19650392 0.04714505 0 0 Z M2.65649414 16.29516602 C2.65649414 23.55516602 2.65649414 30.81516602 2.65649414 38.29516602 C5.04899414 38.37766602 7.44149414 38.46016602 9.90649414 38.54516602 C11.02652832 38.59979004 11.02652832 38.59979004 12.16918945 38.65551758 C15.6109787 38.71291159 17.33685362 38.54469184 20.07836914 36.40454102 C22.50028377 33.16732839 22.79323694 31.35608842 22.78149414 27.35766602 C22.78407227 26.48239258 22.78665039 25.60711914 22.78930664 24.70532227 C22.75471417 22.15057545 22.75471417 22.15057545 21.65649414 19.29516602 C15.44679692 15.56934768 9.7854958 16.05486259 2.65649414 16.29516602 Z " fill="#020405" transform="translate(371.343505859375,40.704833984375)"/>
<path d="M0 0 C2.10478604 0.11409682 4.20884577 0.24165361 6.3125 0.375 C7.48425781 0.44460937 8.65601563 0.51421875 9.86328125 0.5859375 C13 1 13 1 16 3 C16.26667539 5.83727325 16.34791234 8.45383045 16.29296875 11.2890625 C16.28872391 12.10748627 16.28447906 12.92591003 16.28010559 13.76913452 C16.26328679 16.38808836 16.22562974 19.00627802 16.1875 21.625 C16.17245726 23.3984264 16.15876814 25.17186484 16.14648438 26.9453125 C16.11337292 31.2971703 16.06156952 35.64845551 16 40 C16.60585938 40.04898438 17.21171875 40.09796875 17.8359375 40.1484375 C18.67382812 40.22320312 19.51171875 40.29796875 20.375 40.375 C21.18710937 40.44460937 21.99921875 40.51421875 22.8359375 40.5859375 C27.25941495 41.16481233 31.62543971 42.12508794 36 43 C36 30.79 36 18.58 36 6 C39.86310708 5.03422323 41.37676186 5.03488044 45.125 5.8125 C46.42824219 6.06966797 46.42824219 6.06966797 47.7578125 6.33203125 C50 7 50 7 52 9 C52.19855525 11.73005123 52.2727178 14.35866732 52.25878906 17.08984375 C52.2622937 17.92573029 52.26579834 18.76161682 52.26940918 19.62283325 C52.27823414 22.39447254 52.27237468 25.16585797 52.265625 27.9375 C52.26697143 29.85799204 52.26891178 31.77848374 52.27142334 33.69897461 C52.27437564 37.72740926 52.27007356 41.75575532 52.26074219 45.78417969 C52.2493476 50.95630443 52.25590651 56.12822162 52.26788712 61.30033875 C52.27510286 65.26706516 52.2728191 69.2337421 52.26763153 73.20046997 C52.26629424 75.10792058 52.2679455 77.01537563 52.27259064 78.92282104 C52.27765119 81.58538772 52.26995235 84.24761496 52.25878906 86.91015625 C52.26283752 87.70398712 52.26688599 88.49781799 52.27105713 89.31570435 C52.22852828 94.77147172 52.22852828 94.77147172 50 97 C47.03125 96.828125 47.03125 96.828125 43.5 96.25 C41.75203125 95.97929687 41.75203125 95.97929687 39.96875 95.703125 C37 95 37 95 35 93 C34.82497005 90.41896694 34.76837721 87.94691837 34.8046875 85.3671875 C34.8075174 84.61535187 34.81034729 83.86351624 34.81326294 83.08889771 C34.82447126 80.68410422 34.84957648 78.27968119 34.875 75.875 C34.88502898 74.24609912 34.89415497 72.61719242 34.90234375 70.98828125 C34.92441265 66.99204444 34.95894649 62.99608506 35 59 C34.29875 58.95101562 33.5975 58.90203125 32.875 58.8515625 C31.92625 58.77679688 30.9775 58.70203125 30 58.625 C29.071875 58.55539063 28.14375 58.48578125 27.1875 58.4140625 C23.34194278 57.91451708 19.74783407 56.99349912 16 56 C16.00785522 57.53708618 16.00785522 57.53708618 16.01586914 59.10522461 C16.03391969 62.89395276 16.0454322 66.68267709 16.05493164 70.47143555 C16.05997174 72.11369464 16.06680378 73.75594923 16.07543945 75.39819336 C16.08751926 77.75375479 16.09323139 80.10925709 16.09765625 82.46484375 C16.10281754 83.20339096 16.10797882 83.94193817 16.11329651 84.7028656 C16.1134925 86.46898088 16.06194719 88.23497146 16 90 C15.505 90.495 15.505 90.495 15 91 C13.03926728 90.96195593 11.07980393 90.8445406 9.125 90.6875 C8.05507813 90.60886719 6.98515625 90.53023438 5.8828125 90.44921875 C3 90 3 90 0 88 C-0.28618725 85.15899567 -0.37815744 82.53689419 -0.34057617 79.69482422 C-0.34101425 78.83621796 -0.34145233 77.97761169 -0.34190369 77.09298706 C-0.33980874 74.24665822 -0.31644467 71.40091381 -0.29296875 68.5546875 C-0.2873753 66.58456748 -0.28310402 64.6144433 -0.28010559 62.64431763 C-0.26863705 57.4524997 -0.23915262 52.26093254 -0.20599365 47.06921387 C-0.17533601 41.77404167 -0.16160948 36.47882906 -0.14648438 31.18359375 C-0.11428482 20.78895217 -0.06306426 10.39449692 0 0 Z " fill="#020405" transform="translate(479,49)"/>
<path d="M0 0 C9.12221653 7.27018985 12.95317451 16.76276562 15 28 C15.39454957 32.67655312 15.42108879 37.3091854 15.375 42 C15.38660156 43.18078125 15.39820313 44.3615625 15.41015625 45.578125 C15.36550841 59.09153827 12.64496745 72.39785376 3.0625 82.4375 C-3.29644685 88.26653461 -8.19353801 89.6413126 -16.8125 89.40625 C-24.15761692 88.47010765 -28.88867456 83.77998322 -33.46484375 78.234375 C-43.19565662 64.07146161 -43.25292088 42.54417248 -40.27734375 26.28515625 C-37.69189274 15.97475446 -33.60623447 6.61604275 -25 0 C-17.23171784 -4.54768185 -7.72407189 -4.51785337 0 0 Z M-18.6875 15.5 C-27.22141386 27.18954117 -26.34556766 45.41138325 -24.3125 59.125 C-23.19960136 64.35078494 -20.81285521 69.18714479 -17 73 C-12.79188856 73.48555132 -10.72732861 73.52896626 -7.25 71 C-0.83551498 62.44735331 -0.81950182 52.4456897 -0.8125 42.125 C-0.79413086 40.71154297 -0.79413086 40.71154297 -0.77539062 39.26953125 C-0.75960562 31.66115847 -1.13344733 23.99657836 -5.5 17.5 C-6.13421875 16.52546875 -6.13421875 16.52546875 -6.78125 15.53125 C-8.60807107 13.23601328 -9.91189394 13.01370539 -12.8125 12.5625 C-16.21344871 12.71795717 -16.21344871 12.71795717 -18.6875 15.5 Z " fill="#020405" transform="translate(335,43)"/>
<path d="M0 0 C2.06682372 1.20099216 3.67281228 2.46323086 5.3984375 4.11328125 C5.95917969 4.60957031 6.51992188 5.10585938 7.09765625 5.6171875 C11.66403635 10.20568082 13.56353834 15.75303823 14.3984375 22.11328125 C13.9034375 24.58828125 13.9034375 24.58828125 13.3984375 27.11328125 C8.7784375 27.11328125 4.1584375 27.11328125 -0.6015625 27.11328125 C-2.31054688 22.86523438 -2.31054688 22.86523438 -4.01953125 18.6171875 C-5.37365107 15.90397098 -5.37365107 15.90397098 -8.109375 15.21875 C-11.15662079 15.08979132 -12.9264184 15.66725741 -15.6015625 17.11328125 C-20.74119231 24.82272596 -19.93689145 34.57586098 -19.9140625 43.48828125 C-19.93017578 44.73867187 -19.94628906 45.9890625 -19.96289062 47.27734375 C-19.96676557 54.68623612 -19.82133625 62.28498146 -16.6015625 69.11328125 C-13.58665693 70.11824977 -11.55974558 70.21663428 -8.4140625 70.17578125 C-6.8259375 70.15515625 -5.2378125 70.13453125 -3.6015625 70.11328125 C-2.6115625 65.49328125 -1.6215625 60.87328125 -0.6015625 56.11328125 C-2.0659375 56.13390625 -3.5303125 56.15453125 -5.0390625 56.17578125 C-6.55988768 56.19720132 -8.08228212 56.18508089 -9.6015625 56.11328125 C-11.47400231 54.24084144 -10.77536642 51.17668607 -10.7890625 48.67578125 C-10.80324219 47.50144531 -10.81742187 46.32710937 -10.83203125 45.1171875 C-10.6015625 42.11328125 -10.6015625 42.11328125 -8.6015625 40.11328125 C-6.27905273 39.87036133 -6.27905273 39.87036133 -3.41015625 39.8828125 C-2.38341797 39.88474609 -1.35667969 39.88667969 -0.29882812 39.88867188 C0.77689453 39.90091797 1.85261719 39.91316406 2.9609375 39.92578125 C4.04052734 39.92642578 5.12011719 39.92707031 6.23242188 39.92773438 C14.25829152 39.97313527 14.25829152 39.97313527 15.3984375 41.11328125 C16.59939309 54.18630399 17.05020999 69.4739475 8.4609375 80.23828125 C3.21537753 85.5763322 -1.88052503 87.23630635 -9.2265625 87.48828125 C-16.71271618 87.38797956 -22.31406882 85.37596366 -27.671875 80.05859375 C-34.1507542 72.22430049 -36.10713382 64.28321406 -36.9140625 54.36328125 C-37.03696655 52.86015381 -37.03696655 52.86015381 -37.16235352 51.32666016 C-38.19227014 36.33079029 -37.90365336 19.06274369 -28.640625 6.44140625 C-21.3488927 -1.8840199 -10.41463884 -3.54973426 0 0 Z " fill="#020405" transform="translate(453.6015625,46.88671875)"/>
<path d="M0 0 C0.78919983 1.97402954 0.78919983 1.97402954 1.37915039 4.60400391 C1.72096596 6.07938126 1.72096596 6.07938126 2.06968689 7.58456421 C2.30579178 8.66267365 2.54189667 9.74078308 2.78515625 10.8515625 C3.3113582 13.15006567 3.83756272 15.44856825 4.36376953 17.74707031 C4.6328009 18.94400513 4.90183228 20.14093994 5.17901611 21.37414551 C6.23204557 26.02482336 7.33374239 30.66323772 8.43710327 35.30218506 C9.51514664 39.8446155 10.57528673 44.39114072 11.63452148 48.93798828 C12.17921547 51.2694574 12.72717485 53.60016559 13.27807617 55.93017578 C14.08751687 59.35536813 14.88668166 62.78281166 15.68359375 66.2109375 C15.93241806 67.25446381 16.18124237 68.29799011 16.43760681 69.37313843 C16.65856522 70.33329865 16.87952362 71.29345886 17.10717773 72.28271484 C17.30447983 73.1244223 17.50178192 73.96612976 17.70506287 74.83334351 C18 77 18 77 17 80 C14.63671875 80.984375 14.63671875 80.984375 11.6875 81.75 C10.23923828 82.14445312 10.23923828 82.14445312 8.76171875 82.546875 C6 83 6 83 2 82 C0.35 76.06 -1.3 70.12 -3 64 C-8.94 64.99 -8.94 64.99 -15 66 C-15.268125 67.5675 -15.53625 69.135 -15.8125 70.75 C-16.00199219 71.74515625 -16.19148438 72.7403125 -16.38671875 73.765625 C-16.79835198 75.93653145 -17.17558231 78.1142216 -17.51953125 80.296875 C-19.011432 88.18951122 -19.011432 88.18951122 -21.69140625 90.38671875 C-23.82127425 91.24116677 -25.72895612 91.67843627 -28 92 C-28.75925781 92.12375 -29.51851563 92.2475 -30.30078125 92.375 C-32.19290335 92.64386282 -34.09644366 92.83003961 -36 93 C-37.04997857 89.03941245 -36.8676463 86.34969635 -35.8828125 82.390625 C-35.60985352 81.26325928 -35.33689453 80.13589355 -35.05566406 78.97436523 C-34.74854492 77.74532471 -34.44142578 76.51628418 -34.125 75.25 C-33.47063605 72.5600122 -32.82499315 69.86795462 -32.1796875 67.17578125 C-32.00663086 66.45733536 -31.83357422 65.73888947 -31.65527344 64.99867249 C-29.38192224 55.50932312 -27.32440832 45.97189504 -25.25 36.4375 C-24.87002262 34.69236796 -24.48997841 32.94725048 -24.10986328 31.20214844 C-23.92751129 30.36432831 -23.7451593 29.52650818 -23.55728149 28.66329956 C-23.02978899 26.24843656 -22.49646746 23.83491133 -21.96289062 21.42138672 C-21.34572695 18.62122218 -20.76041025 15.81820511 -20.20898438 13.00439453 C-19.85030273 11.25618408 -19.85030273 11.25618408 -19.484375 9.47265625 C-19.29069336 8.4762915 -19.09701172 7.47992676 -18.89746094 6.45336914 C-17.8124281 3.48723884 -16.70135961 2.56946419 -14 1 C-11.30859375 0.234375 -11.30859375 0.234375 -8.4375 -0.25 C-7.48746094 -0.42015625 -6.53742188 -0.5903125 -5.55859375 -0.765625 C-3 -1 -3 -1 0 0 Z M-9 38 C-9.66 41.63 -10.32 45.26 -11 49 C-9.35 48.67 -7.7 48.34 -6 48 C-6.12375 46.72125 -6.2475 45.4425 -6.375 44.125 C-6.44460937 43.40570313 -6.51421875 42.68640625 -6.5859375 41.9453125 C-6.86374749 39.77331755 -6.86374749 39.77331755 -9 38 Z " fill="#020405" transform="translate(140,66)"/>
<path d="M0 0 C1.82649688 1.82649688 1.17270726 4.71667507 1.20532227 7.17211914 C1.21522186 7.81600082 1.22512146 8.45988251 1.23532104 9.12327576 C1.26701528 11.26053131 1.29172449 13.39780913 1.31640625 15.53515625 C1.33696896 17.01346936 1.35796524 18.49177649 1.37937927 19.97007751 C1.43467059 23.86792171 1.48404857 27.76581958 1.53222656 31.66375732 C1.58239019 35.63851723 1.63810301 39.61319884 1.69335938 43.58789062 C1.80102724 51.39186085 1.90245287 59.19589602 2 67 C2.54938232 66.79318604 3.09876465 66.58637207 3.66479492 66.37329102 C6.17090094 65.43241136 8.67916109 64.49740969 11.1875 63.5625 C12.05181641 63.23701172 12.91613281 62.91152344 13.80664062 62.57617188 C15.06831055 62.10727539 15.06831055 62.10727539 16.35546875 61.62890625 C17.12528076 61.34088135 17.89509277 61.05285645 18.68823242 60.75610352 C21.12060716 59.96055334 23.46785665 59.37409446 26 59 C27 60 27 60 27.09765625 63.37890625 C27.09098369 64.77347077 27.07902532 66.16801743 27.0625 67.5625 C27.05798828 68.27341797 27.05347656 68.98433594 27.04882812 69.71679688 C27.03700864 71.47790013 27.01907263 73.23896036 27 75 C20.03679586 78.70162897 12.8290988 81.45921882 5.4375 84.1875 C3.64795898 84.86329102 3.64795898 84.86329102 1.82226562 85.55273438 C0.66275391 85.98263672 -0.49675781 86.41253906 -1.69140625 86.85546875 C-2.73498291 87.24371826 -3.77855957 87.63196777 -4.85375977 88.03198242 C-8.24481823 89.0753243 -11.47006275 89.66188549 -15 90 C-17.00098296 87.99901704 -16.1571891 83.96488001 -16.16113281 81.22314453 C-16.16609772 80.40851746 -16.17106262 79.59389038 -16.17617798 78.75457764 C-16.19083796 76.04731414 -16.19760802 73.34010924 -16.203125 70.6328125 C-16.20887339 68.75812782 -16.21463116 66.88344317 -16.22039795 65.00875854 C-16.23091893 61.07273076 -16.23675437 57.13672347 -16.24023438 53.20068359 C-16.24572076 48.15077173 -16.26974722 43.10112928 -16.29820633 38.05130196 C-16.31680686 34.17718712 -16.32203693 30.3031375 -16.32357025 26.42898178 C-16.32660328 24.56700035 -16.33465358 22.70502024 -16.34775543 20.84308243 C-16.36476182 18.24039325 -16.36294907 15.63836633 -16.35644531 13.03564453 C-16.3656601 12.26253937 -16.37487488 11.4894342 -16.3843689 10.69290161 C-16.34343365 5.4780616 -16.34343365 5.4780616 -14.59442139 3.04342651 C-10.45870714 0.33691873 -4.85477274 -0.44134298 0 0 Z " fill="#020405" transform="translate(72,85)"/>
<path d="M0 0 C1.96657132 0.20252749 3.92492637 0.48748773 5.875 0.8125 C7.47988281 1.06966797 7.47988281 1.06966797 9.1171875 1.33203125 C12 2 12 2 15 4 C15.28618725 6.84100433 15.37815744 9.46310581 15.34057617 12.30517578 C15.34123329 13.59308517 15.34123329 13.59308517 15.34190369 14.90701294 C15.33980874 17.75334178 15.31644467 20.59908619 15.29296875 23.4453125 C15.2873753 25.41543252 15.28310402 27.3855567 15.28010559 29.35568237 C15.26863705 34.5475003 15.23915262 39.73906746 15.20599365 44.93078613 C15.17533601 50.22595833 15.16160948 55.52117094 15.14648438 60.81640625 C15.11428482 71.21104783 15.06306426 81.60550308 15 92 C11.30782967 93.23072344 9.60432686 92.60450995 5.875 91.625 C4.79992187 91.34914063 3.72484375 91.07328125 2.6171875 90.7890625 C0 90 0 90 -1 89 C-1.10048523 86.26649252 -1.13616261 83.55822108 -1.12939453 80.82421875 C-1.13114685 79.96736481 -1.13289917 79.11051086 -1.13470459 78.22769165 C-1.13912417 75.3809408 -1.13618475 72.53425153 -1.1328125 69.6875 C-1.13348551 67.71834298 -1.13445551 65.74918603 -1.13571167 63.7800293 C-1.13718879 59.64729015 -1.13503364 55.51457258 -1.13037109 51.38183594 C-1.1246738 46.07175479 -1.12795273 40.76172419 -1.13394356 35.4516449 C-1.1375488 31.38374447 -1.13641076 27.31585611 -1.13381577 23.24795532 C-1.13314639 21.28943882 -1.13397527 19.33092124 -1.13629532 17.37240601 C-1.13882124 14.640168 -1.13498211 11.90801303 -1.12939453 9.17578125 C-1.13141876 8.35808258 -1.13344299 7.54038391 -1.13552856 6.69790649 C-1.11426246 1.11426246 -1.11426246 1.11426246 0 0 Z " fill="#020405" transform="translate(544,59)"/>
<path d="M0 0 C1.953125 0.13671875 1.953125 0.13671875 4.25 0.6875 C4.99765625 0.85636719 5.7453125 1.02523437 6.515625 1.19921875 C9.51797404 2.16695704 12.19302567 3.56929106 15 5 C15.06940502 16.04804177 15.12276284 27.09603197 15.15543652 38.14424706 C15.17111552 43.27397721 15.19239443 48.4035586 15.22631836 53.53320312 C15.25883229 58.48040867 15.27683616 63.42747082 15.28463173 68.37477493 C15.2901896 70.26550175 15.30104227 72.15622042 15.31719017 74.04688644 C15.33885879 76.68817061 15.3419714 79.3288566 15.34057617 81.97021484 C15.351362 82.75783707 15.36214783 83.54545929 15.3732605 84.35694885 C15.36076355 86.53256226 15.36076355 86.53256226 15 90 C13.515 90.99 13.515 90.99 12 92 C9.1171875 91.35546875 9.1171875 91.35546875 5.875 90.1875 C4.79992187 89.80980469 3.72484375 89.43210937 2.6171875 89.04296875 C0 88 0 88 -1 87 C-1.13573305 84.36425011 -1.20728023 81.75318517 -1.23706055 79.11547852 C-1.25017273 78.28949158 -1.26328491 77.46350464 -1.27679443 76.61248779 C-1.3187501 73.8680087 -1.35315997 71.12350008 -1.38671875 68.37890625 C-1.41235798 66.47940378 -1.43814203 64.57990327 -1.46406555 62.68040466 C-1.51711537 58.69314132 -1.56603156 54.70585049 -1.61254883 50.71850586 C-1.6729418 45.59893081 -1.74715052 40.47965857 -1.82492352 35.360322 C-1.88241338 31.43571891 -1.93076372 27.51104247 -1.976511 23.58628654 C-1.99997914 21.69832982 -2.02675101 19.81041127 -2.05682945 17.92254829 C-2.09782093 15.28634834 -2.12610374 12.65030914 -2.15112305 10.01391602 C-2.16609329 9.22786484 -2.18106354 8.44181366 -2.19648743 7.63194275 C-2.20754987 5.75351891 -2.11338598 3.87503123 -2 2 C-1.34 1.34 -0.68 0.68 0 0 Z " fill="#020405" transform="translate(637,86)"/>
<path d="M0 0 C1.91015625 0.140625 1.91015625 0.140625 4 1 C5.30859375 3.109375 5.30859375 3.109375 6.4375 5.75 C7.92974754 9.0180686 9.1442873 11.46000235 11.875 13.8125 C12.57625 14.534375 13.2775 15.25625 14 16 C13.80952381 20.19047619 13.80952381 20.19047619 12 22 C7.86522805 22.58031887 5.37750162 22.76450174 1.69140625 20.71875 C-1.17675115 18.46921478 -3.54276718 16.53689226 -4.60546875 12.96484375 C-4.79105179 8.37829154 -3.34580442 4.84711924 -1 1 C-0.67 0.67 -0.34 0.34 0 0 Z " fill="#020404" transform="translate(391,439)"/>
</svg>
