<?xml version="1.0" encoding="UTF-8"?>
<svg version="1.1" xmlns="http://www.w3.org/2000/svg" width="920" height="563">
<path d="M0 0 C303.6 0 607.2 0 920 0 C920 185.79 920 371.58 920 563 C616.4 563 312.8 563 0 563 C0 377.21 0 191.42 0 0 Z " fill="#EEEEEE" transform="translate(0,0)"/>
<path d="M0 0 C303.6 0 607.2 0 920 0 C920 185.79 920 371.58 920 563 C616.4 563 312.8 563 0 563 C0 377.21 0 191.42 0 0 Z M305 79 C303.64455078 79.30719971 303.64455078 79.30719971 302.26171875 79.62060547 C296.99387383 80.82734891 291.74162451 82.09008476 286.49560547 83.38818359 C284.04349153 83.98933773 281.58718503 84.56916836 279.12890625 85.14453125 C254.22392 91.05287637 229.49716302 99.29464833 206.078125 109.64453125 C203.11520959 110.94926684 200.12819112 112.16649662 197.125 113.375 C190.28188313 116.22101152 183.69483769 119.53014899 177.10742188 122.91748047 C175.7071745 123.63674563 174.30483275 124.35194863 172.90039062 125.06298828 C161.78367458 130.69618028 151.3354072 137.04416782 141 144 C140.2992334 144.46728516 139.5984668 144.93457031 138.87646484 145.41601562 C130.21359383 151.20059724 121.91184411 157.20359621 114 164 C112.94425781 164.88945312 112.94425781 164.88945312 111.8671875 165.796875 C106.64079654 170.26492688 101.82038824 175.10172397 97 180 C96.18144531 180.81597656 95.36289063 181.63195312 94.51953125 182.47265625 C77.63421583 199.41032923 64.70825319 219.27131669 57 242 C56.55720703 243.28777344 56.55720703 243.28777344 56.10546875 244.6015625 C52.52752342 255.70553077 51.60999726 266.8216248 51.625 278.4375 C51.62661133 279.74630127 51.62822266 281.05510254 51.62988281 282.40356445 C51.81553094 297.26542518 53.75095779 312.36215316 60 326 C60.39396973 326.86189941 60.39396973 326.86189941 60.79589844 327.74121094 C68.11878809 343.54408773 77.00258549 357.60842301 88.68261719 370.53564453 C90.42648259 372.47406274 92.11694538 374.45681848 93.8125 376.4375 C99.45203178 382.82085492 105.47962546 388.34331108 112.12109375 393.68359375 C113.98091455 395.1800303 115.82831964 396.69209086 117.66015625 398.22265625 C142.04355837 418.5840539 170.36189055 434.72224944 199.7578125 446.62890625 C202.58862853 447.82603447 205.37068193 449.08958455 208.16015625 450.37890625 C234.32666303 462.31709919 262.23037897 469.85468207 290 477 C291.54844604 477.40109985 291.54844604 477.40109985 293.12817383 477.81030273 C300.19177604 479.61322396 307.28658949 481.14837734 314.4375 482.5625 C315.46681641 482.77068359 316.49613281 482.97886719 317.55664062 483.19335938 C325.00985432 484.6784157 332.48001524 485.90632641 340 487 C341.30171143 487.19005615 342.60342285 487.3801123 343.94458008 487.57592773 C360.94406186 490.03404573 377.94912684 492.25473802 395.0625 493.75 C396.37178467 493.86529053 397.68106934 493.98058105 399.0300293 494.09936523 C403.01814828 494.43085112 407.00732011 494.73019751 411 495 C411.70914551 495.0483902 412.41829102 495.0967804 413.14892578 495.14663696 C427.87359475 496.11056939 442.5983031 496.18760941 457.35009766 496.18530273 C461.33373634 496.18518209 465.31718769 496.20567267 469.30078125 496.22460938 C487.27811836 496.26440525 505.08336427 495.4472979 523 494 C523.96383606 493.92429779 524.92767212 493.84859558 525.92071533 493.77059937 C531.6608721 493.31644383 537.39399125 492.80753002 543.125 492.25 C543.9711084 492.16829559 544.8172168 492.08659119 545.68896484 492.00241089 C563.95400043 490.21063865 581.96054275 487.33570847 600 484 C601.12680176 483.79793945 602.25360352 483.59587891 603.41455078 483.38769531 C628.95577539 478.7898792 654.4087027 472.30053253 679 464 C680.00933594 463.67902344 681.01867187 463.35804688 682.05859375 463.02734375 C691.33820618 460.05426404 700.40906634 456.48844296 709.4921875 452.96972656 C711.70046358 452.11582541 713.91213199 451.27158719 716.125 450.4296875 C724.53148452 447.17039371 732.57432747 443.39310005 740.57080078 439.25146484 C743.34003001 437.82482474 746.12117643 436.42275053 748.90234375 435.01953125 C768.16299726 425.23709594 786.00366073 414.3373716 803 401 C803.96035156 400.25363281 804.92070313 399.50726563 805.91015625 398.73828125 C816.77307968 390.08313902 828.75855153 380.26945669 837 369 C837 368.34 837 367.68 837 367 C837.57234375 366.78988281 838.1446875 366.57976562 838.734375 366.36328125 C843.82583318 363.29962797 846.78198515 356.92771194 850 352 C850.68707031 350.97132813 851.37414062 349.94265625 852.08203125 348.8828125 C860.43117122 335.93917539 866.37028103 321.96058769 870 307 C870.21269531 306.17113281 870.42539062 305.34226562 870.64453125 304.48828125 C875.25135015 285.49758177 874.12489296 263.5344587 868 245 C867.66226563 243.9378125 867.32453125 242.875625 866.9765625 241.78125 C862.62127958 228.80309149 856.4886415 217.0170255 849.125 205.5 C848.64853027 204.75129639 848.17206055 204.00259277 847.68115234 203.23120117 C846.51181781 201.44824922 845.26293035 199.71792545 844 198 C843.34 198 842.68 198 842 198 C841.67902344 197.21882813 841.67902344 197.21882813 841.3515625 196.421875 C839.44034778 192.99715498 836.94275716 190.20108691 834.375 187.25 C833.83302979 186.62456299 833.29105957 185.99912598 832.73266602 185.35473633 C826.34462602 178.03635316 819.67974744 171.54379795 812.0859375 165.46875 C809.92372824 163.73898259 807.78741258 161.99450975 805.6640625 160.21875 C776.17353609 135.05534255 776.17353609 135.05534255 742 122 C742 121.34 742 120.68 742 120 C740.77651855 119.49400269 740.77651855 119.49400269 739.52832031 118.9777832 C736.44184295 117.70121512 733.35542443 116.42450499 730.26904297 115.14770508 C728.94452148 114.59979843 727.61997796 114.05194505 726.29541016 113.50415039 C725.00926017 112.9722362 723.72314252 112.44024384 722.4370575 111.90817261 C721.15150326 111.37634234 719.8658683 110.84470716 718.58015442 110.31326294 C715.63164531 109.09359409 712.68595238 107.86786116 709.74487305 106.63037109 C703.321011 103.927494 696.86442939 101.37594154 690.3125 99 C689.36407227 98.65606201 688.41564453 98.31212402 687.43847656 97.95776367 C679.72212168 95.1942289 671.95406684 92.75889838 664.05664062 90.57226562 C661.97653782 89.99347159 659.90219219 89.39690746 657.828125 88.796875 C617.67558289 77.27500046 576.89787015 70.30518776 535.375 66.3125 C534.25922577 66.20372528 533.14345154 66.09495056 531.99386597 65.98287964 C508.95257606 63.75649116 485.95772371 62.78630744 462.8125 62.8125 C461.88443542 62.81277191 460.95637085 62.81304382 460.00018311 62.81332397 C408.16708918 62.88203605 355.6145088 67.51595843 305 79 Z " fill="#F2F2F2" transform="translate(0,0)"/>
<path d="M0 0 C0.76787212 -0.00058914 1.53574425 -0.00117828 2.32688522 -0.00178528 C25.89683194 -0.01450316 49.26687476 0.34390105 72.6875 3.25 C73.34099426 3.32968018 73.99448853 3.40936035 74.66778564 3.49145508 C83.69759179 4.59450846 92.69512448 5.87644569 101.6875 7.25 C103.39828985 7.49971156 105.10921523 7.7484975 106.8203125 7.99609375 C141.87752626 13.17181331 176.01104325 22.34425764 209.625 33.4375 C210.56472656 33.74606934 211.50445313 34.05463867 212.47265625 34.37255859 C240.83856431 43.8935231 270.33762292 57.77277412 294.6875 75.25 C295.56792969 75.87003906 296.44835937 76.49007812 297.35546875 77.12890625 C300.16136527 79.13311805 302.92718817 81.18349628 305.6875 83.25 C306.74453125 84.02601563 307.8015625 84.80203125 308.890625 85.6015625 C328.18873812 100.03608233 345.0161728 117.94147193 354.6875 140.25 C355.26757812 141.55710938 355.26757812 141.55710938 355.859375 142.890625 C362.98184493 159.71616991 363.3809349 179.87200387 357.0546875 196.9921875 C356.60351562 198.06726563 356.15234375 199.14234375 355.6875 200.25 C355.13449219 201.61511719 355.13449219 201.61511719 354.5703125 203.0078125 C353.66787622 205.12748841 352.71429468 207.18832563 351.6875 209.25 C351.23890625 210.19230469 350.7903125 211.13460937 350.328125 212.10546875 C345.32300847 221.69860876 338.13408455 231.39408945 330.6875 239.25 C330.0275 239.25 329.3675 239.25 328.6875 239.25 C328.44128906 239.82878906 328.19507813 240.40757812 327.94140625 241.00390625 C320.13089532 254.99469686 299.11066177 266.04884463 285.6875 274.25 C285.09791504 274.61544922 284.50833008 274.98089844 283.90087891 275.35742188 C266.83268228 285.93283069 249.19589057 294.48026607 230.6875 302.25 C229.40359921 302.79937021 228.11973851 303.34883414 226.8359375 303.8984375 C201.83608374 314.3006755 175.34183238 321.91770019 148.91943359 327.75097656 C146.44852445 328.30343098 143.98443262 328.88228825 141.51953125 329.4609375 C127.44394971 332.70819668 113.32188361 334.92316542 99.00488281 336.80908203 C95.99795198 337.2087374 92.99495145 337.62894465 89.9921875 338.05859375 C60.14675623 342.26475265 30.61123325 343.75067498 0.50244141 343.64111328 C-4.23189992 343.62404747 -8.96573402 343.63418827 -13.70005798 343.6514349 C-43.83692622 343.74439834 -73.7168019 342.33479352 -103.5625 337.9375 C-104.28068909 337.8346167 -104.99887817 337.7317334 -105.73883057 337.62573242 C-141.0274323 332.56853091 -175.51642349 324.89905612 -209.5 314.125 C-210.52714111 313.80039795 -211.55428223 313.4757959 -212.61254883 313.14135742 C-218.15256096 311.36126869 -223.5719365 309.41623623 -228.95629883 307.20996094 C-231.20346339 306.29442358 -233.46230089 305.42576964 -235.734375 304.57421875 C-245.26318868 300.98328976 -254.26648418 296.94090359 -263.3125 292.25 C-264.56200183 291.63564784 -265.81336376 291.02506671 -267.06640625 290.41796875 C-284.12515869 282.13118975 -300.06004678 272.51943808 -315.3125 261.25 C-316.60027344 260.31414062 -316.60027344 260.31414062 -317.9140625 259.359375 C-324.82662528 254.18123706 -331.05666512 248.1889002 -337.3125 242.25 C-338.46492188 241.16138672 -338.46492188 241.16138672 -339.640625 240.05078125 C-348.45139785 231.50016902 -355.19838945 221.86724177 -361.3125 211.25 C-362.15167969 209.83267578 -362.15167969 209.83267578 -363.0078125 208.38671875 C-372.11996184 191.83374395 -374.48353756 170.23802509 -369.5625 152 C-367.8775845 146.552305 -365.88962536 141.33565802 -363.3125 136.25 C-362.85230469 135.29609375 -362.39210938 134.3421875 -361.91796875 133.359375 C-349.95232593 110.18504001 -326.63280389 86.3509137 -303.3125 74.25 C-302.6525 74.58 -301.9925 74.91 -301.3125 75.25 C-301.8075 81.19 -301.8075 81.19 -302.3125 87.25 C-297.3625 87.25 -292.4125 87.25 -287.3125 87.25 C-287.3125 92.2 -287.3125 97.15 -287.3125 102.25 C-282.3625 102.25 -277.4125 102.25 -272.3125 102.25 C-272.3125 107.2 -272.3125 112.15 -272.3125 117.25 C-267.3625 117.25 -262.4125 117.25 -257.3125 117.25 C-257.3125 112.3 -257.3125 107.35 -257.3125 102.25 C-252.3625 102.25 -247.4125 102.25 -242.3125 102.25 C-242.3125 97.3 -242.3125 92.35 -242.3125 87.25 C-237.3625 87.25 -232.4125 87.25 -227.3125 87.25 C-225.28853075 102.29767759 -227.80894589 113.4838316 -233.125 127.5625 C-233.79029277 129.39924067 -234.45241888 131.23713153 -235.11132812 133.07617188 C-236.55657631 137.09518529 -238.03074932 141.10205245 -239.5337677 145.09980774 C-240.51116963 147.79855552 -241.40483519 150.52700556 -242.3125 153.25 C-209.6425 153.745 -209.6425 153.745 -176.3125 154.25 C-175.9825 152.27 -175.6525 150.29 -175.3125 148.25 C-173.3125 147.25 -173.3125 147.25 -167.3125 147.25 C-167.6425 141.64 -167.9725 136.03 -168.3125 130.25 C-172.9325 130.25 -177.5525 130.25 -182.3125 130.25 C-182.3125 125.96 -182.3125 121.67 -182.3125 117.25 C-177.3625 117.25 -172.4125 117.25 -167.3125 117.25 C-167.3125 122.2 -167.3125 127.15 -167.3125 132.25 C-164.0125 132.25 -160.7125 132.25 -157.3125 132.25 C-158.67916365 136.97250267 -160.73467689 140.89073147 -163.375 145 C-165.98288086 149.04486455 -165.98288086 149.04486455 -168.3125 153.25 C-163.89588849 153.30804281 -159.47937504 153.34361104 -155.0625 153.375 C-153.18111328 153.40013672 -153.18111328 153.40013672 -151.26171875 153.42578125 C-149.45380859 153.43544922 -149.45380859 153.43544922 -147.609375 153.4453125 C-146.49916992 153.45578613 -145.38896484 153.46625977 -144.24511719 153.47705078 C-141.00784499 153.41170333 -141.00784499 153.41170333 -137.3125 151.25 C-137.3125 154.88 -137.3125 158.51 -137.3125 162.25 C-142.2625 162.25 -147.2125 162.25 -152.3125 162.25 C-152.3125 166.21 -152.3125 170.17 -152.3125 174.25 C-147.6925 174.25 -143.0725 174.25 -138.3125 174.25 C-138.3125 174.58 -138.3125 174.91 -138.3125 175.25 C-153.4925 175.25 -168.6725 175.25 -184.3125 175.25 C-183.3225 177.725 -183.3225 177.725 -182.3125 180.25 C-181.89654136 185.47495759 -182.82398729 189.70311875 -184.5859375 194.5703125 C-184.82517441 195.25865677 -185.06441132 195.94700104 -185.31089783 196.65620422 C-186.09308481 198.89945478 -186.89020403 201.13708009 -187.6875 203.375 C-188.23699271 204.94241449 -188.78540112 206.5102095 -189.33276367 208.07836914 C-190.44745716 211.26806501 -191.56749654 214.45580242 -192.69189453 217.64208984 C-195.04203937 224.31047171 -197.32985178 231.00002931 -199.625 237.6875 C-202.52902843 246.10854726 -205.44209782 254.52646267 -208.375 262.9375 C-208.66221924 263.7637085 -208.94943848 264.58991699 -209.24536133 265.44116211 C-211.19469683 271.01439367 -211.19469683 271.01439367 -212.3125 273.25 C-203.4025 273.25 -194.4925 273.25 -185.3125 273.25 C-184.6525 270.28 -183.9925 267.31 -183.3125 264.25 C-182.6359082 262.11937885 -181.91768529 260.00129129 -181.1484375 257.90234375 C-180.74882812 256.80341797 -180.34921875 255.70449219 -179.9375 254.57226562 C-179.525 253.45529297 -179.1125 252.33832031 -178.6875 251.1875 C-178.05714844 249.45983398 -178.05714844 249.45983398 -177.4140625 247.69726562 C-176.38521705 244.87963206 -175.35126545 242.06398816 -174.3125 239.25 C-171.0125 239.25 -167.7125 239.25 -164.3125 239.25 C-159.91796875 253.8984375 -159.91796875 253.8984375 -159.12255859 256.56542969 C-158.57439679 258.38206236 -158.01447174 260.19518013 -157.44384766 262.00488281 C-157.16976074 262.88241211 -156.89567383 263.75994141 -156.61328125 264.6640625 C-156.36360596 265.44990723 -156.11393066 266.23575195 -155.85668945 267.04541016 C-155.3125 269.25 -155.3125 269.25 -155.3125 273.25 C-146.4025 273.25 -137.4925 273.25 -128.3125 273.25 C-130.23187144 268.3406972 -130.23187144 268.3406972 -132.17163086 263.43945312 C-133.99393767 258.68063252 -134.86080465 254.32728444 -135.3125 249.25 C-134.9825 250.24 -134.6525 251.23 -134.3125 252.25 C-130.3525 252.25 -126.3925 252.25 -122.3125 252.25 C-122.3125 257.2 -122.3125 262.15 -122.3125 267.25 C-117.3625 267.25 -112.4125 267.25 -107.3125 267.25 C-107.3125 272.2 -107.3125 277.15 -107.3125 282.25 C-102.3625 282.25 -97.4125 282.25 -92.3125 282.25 C-92.3125 279.61 -92.3125 276.97 -92.3125 274.25 C-92.9725 273.92 -93.6325 273.59 -94.3125 273.25 C-92.43304688 273.48783203 -92.43304688 273.48783203 -90.515625 273.73046875 C-73.8332833 275.56630893 -56.36754325 276.28181258 -42.29296875 265.84765625 C-41.63941406 265.32042969 -40.98585938 264.79320312 -40.3125 264.25 C-39.71050781 263.79496094 -39.10851562 263.33992188 -38.48828125 262.87109375 C-28.74470344 254.48504813 -23.96519843 239.0920223 -20.3125 227.25 C-20.11640137 226.61594238 -19.92030273 225.98188477 -19.71826172 225.32861328 C-16.42831722 214.41503615 -13.49752221 202.0845697 -18.0625 191.125 C-18.77341085 189.81141386 -19.51939277 188.51565544 -20.3125 187.25 C-21.1478125 185.88875 -21.1478125 185.88875 -22 184.5 C-31.30281113 175.4486162 -42.9782554 174.89964336 -55.27075195 174.94726562 C-67.0461237 175.19852319 -78.8755291 178.43377976 -87.3125 187.0625 C-87.84875 187.66707031 -88.385 188.27164063 -88.9375 188.89453125 C-90.3125 190.25 -90.3125 190.25 -92.3125 190.25 C-92.3125 185.96 -92.3125 181.67 -92.3125 177.25 C-87.3625 177.25 -82.4125 177.25 -77.3125 177.25 C-77.3125 172.3 -77.3125 167.35 -77.3125 162.25 C-72.3625 162.25 -67.4125 162.25 -62.3125 162.25 C-62.3125 165.88 -62.3125 169.51 -62.3125 173.25 C-57.6925 172.92 -53.0725 172.59 -48.3125 172.25 C-47.9825 168.95 -47.6525 165.65 -47.3125 162.25 C-42.3625 162.25 -37.4125 162.25 -32.3125 162.25 C-32.3125 157.3 -32.3125 152.35 -32.3125 147.25 C-27.3625 147.25 -22.4125 147.25 -17.3125 147.25 C-17.3125 152.2 -17.3125 157.15 -17.3125 162.25 C-12.3625 162.25 -7.4125 162.25 -2.3125 162.25 C-2.3125 166.21 -2.3125 170.17 -2.3125 174.25 C2.3075 174.25 6.9275 174.25 11.6875 174.25 C11.6875 174.58 11.6875 174.91 11.6875 175.25 C4.7575 175.25 -2.1725 175.25 -9.3125 175.25 C-8.73193111 179.22996675 -8.73193111 179.22996675 -6.3125 180.9375 C-1.38518314 186.63471012 -3.02272523 198.70808797 -2.8125 205.9375 C-2.60585659 212.92893543 -2.36614111 219.89719733 -1.81640625 226.87109375 C-1.11850884 236.11143675 -0.95855478 245.36346537 -0.75 254.625 C-0.70668263 256.44011141 -0.66306479 258.25521567 -0.61914062 260.0703125 C-0.51291934 264.46346451 -0.41283303 268.85669403 -0.3125 273.25 C10.9075 273.25 22.1275 273.25 33.6875 273.25 C34.3475 271.27 35.0075 269.29 35.6875 267.25 C36.70898438 265.20776367 36.70898438 265.20776367 37.78125 263.41796875 C38.17183594 262.76505859 38.56242187 262.11214844 38.96484375 261.43945312 C39.36832031 260.77880859 39.77179688 260.11816406 40.1875 259.4375 C40.59097656 258.75751953 40.99445313 258.07753906 41.41015625 257.37695312 C44.43001116 252.37874442 44.43001116 252.37874442 46.6875 251.25 C48.56612875 251.33744368 50.44205181 251.49175542 52.3125 251.6875 C54.08625 251.873125 55.86 252.05875 57.6875 252.25 C57.6875 247.3 57.6875 242.35 57.6875 237.25 C62.6375 237.25 67.5875 237.25 72.6875 237.25 C72.6875 232.3 72.6875 227.35 72.6875 222.25 C75.9875 222.25 79.2875 222.25 82.6875 222.25 C83.0175 221.59 83.3475 220.93 83.6875 220.25 C83.2951836 224.56548038 82.39304928 228.37212417 80.99609375 232.4765625 C80.63725098 233.53488281 80.2784082 234.59320313 79.90869141 235.68359375 C79.50569824 236.86050781 79.10270508 238.03742188 78.6875 239.25 C78.23992073 240.56375069 77.79249791 241.87755469 77.34521484 243.19140625 C76.14860735 246.70169042 74.94605277 250.20990348 73.7409668 253.71728516 C72.98932104 255.90609743 72.23977204 258.09562132 71.49023438 260.28515625 C71.01054412 261.68233543 70.53073112 263.07947248 70.05078125 264.4765625 C69.71642815 265.45455307 69.71642815 265.45455307 69.37532043 266.45230103 C68.57319301 268.78148558 67.79056927 271.04386147 66.6875 273.25 C67.32262009 273.24777939 67.95774017 273.24555878 68.61210632 273.24327087 C75.28054232 273.22098036 81.94896756 273.20599525 88.61743164 273.19506836 C91.09920685 273.19006966 93.58097917 273.18326849 96.06274414 273.17456055 C99.64990967 273.16229797 103.23703593 273.1567269 106.82421875 273.15234375 C107.91643234 273.14718246 109.00864594 273.14202118 110.13395691 273.13670349 C117.69342177 273.1361649 125.15922818 273.57220528 132.6875 274.25 C132.6875 276.89 132.6875 279.53 132.6875 282.25 C137.6375 282.25 142.5875 282.25 147.6875 282.25 C147.3575 279.61 147.0275 276.97 146.6875 274.25 C155.9275 274.25 165.1675 274.25 174.6875 274.25 C174.6875 274.58 174.6875 274.91 174.6875 275.25 C170.7275 275.25 166.7675 275.25 162.6875 275.25 C162.6875 277.56 162.6875 279.87 162.6875 282.25 C167.6375 282.25 172.5875 282.25 177.6875 282.25 C177.55730469 281.12464844 177.42710937 279.99929688 177.29296875 278.83984375 C176.19847808 267.53836089 177.48257919 259.76839611 181.6875 249.25 C182.31543202 247.27824458 182.92305028 245.29977126 183.5 243.3125 C183.891875 241.971875 184.28375 240.63125 184.6875 239.25 C187.9875 239.25 191.2875 239.25 194.6875 239.25 C198.19202618 250.20748519 201.58970713 261.16943319 204.6875 272.25 C217.5575 272.745 217.5575 272.745 230.6875 273.25 C229.429375 269.455 228.17125 265.66 226.875 261.75 C226.28948364 259.97979492 226.28948364 259.97979492 225.69213867 258.17382812 C224.18258181 253.6332773 222.66234976 249.11558641 220.92578125 244.65625 C219.6875 241.25 219.6875 241.25 219.6875 238.25 C221.45815111 237.60366725 223.22902753 236.9579517 225 236.3125 C225.98613281 235.95285156 226.97226562 235.59320313 227.98828125 235.22265625 C229.8795563 234.54114035 231.78034329 233.8857189 233.6875 233.25 C233.6875 232.59 233.6875 231.93 233.6875 231.25 C234.44675781 230.52425781 235.20601562 229.79851562 235.98828125 229.05078125 C243.36961661 221.39171113 246.67858873 208.58836857 247 198.1875 C246.8781665 192.49715883 246.41796537 188.04014767 242.2578125 183.7890625 C239.86933068 181.73330451 237.30745396 179.99663597 234.6875 178.25 C237.87574568 176.65587716 241.31646662 177.14825265 244.8125 177.1875 C245.56660156 177.19201172 246.32070313 177.19652344 247.09765625 177.20117188 C248.96097127 177.21296501 250.82424555 177.23090058 252.6875 177.25 C252.6875 172.3 252.6875 167.35 252.6875 162.25 C247.7375 162.25 242.7875 162.25 237.6875 162.25 C237.6875 157.3 237.6875 152.35 237.6875 147.25 C232.7375 147.25 227.7875 147.25 222.6875 147.25 C222.6875 152.2 222.6875 157.15 222.6875 162.25 C217.7375 162.25 212.7875 162.25 207.6875 162.25 C207.6875 157.3 207.6875 152.35 207.6875 147.25 C202.7375 147.25 197.7875 147.25 192.6875 147.25 C192.6875 152.2 192.6875 157.15 192.6875 162.25 C187.7375 162.25 182.7875 162.25 177.6875 162.25 C177.6875 157.3 177.6875 152.35 177.6875 147.25 C172.7375 147.25 167.7875 147.25 162.6875 147.25 C162.6875 152.2 162.6875 157.15 162.6875 162.25 C157.7375 162.25 152.7875 162.25 147.6875 162.25 C147.6875 166.21 147.6875 170.17 147.6875 174.25 C152.3075 174.25 156.9275 174.25 161.6875 174.25 C161.6875 174.58 161.6875 174.91 161.6875 175.25 C139.2475 175.25 116.8075 175.25 93.6875 175.25 C93.6875 174.92 93.6875 174.59 93.6875 174.25 C96.6575 174.25 99.6275 174.25 102.6875 174.25 C102.6875 170.29 102.6875 166.33 102.6875 162.25 C97.7375 162.25 92.7875 162.25 87.6875 162.25 C87.6875 166.54 87.6875 170.83 87.6875 175.25 C78.1175 175.25 68.5475 175.25 58.6875 175.25 C57.2025 179.705 57.2025 179.705 55.6875 184.25 C54.60351562 186.67269897 54.60351562 186.67269897 53.59375 188.52490234 C53.20896484 189.24159088 52.82417969 189.95827942 52.42773438 190.69668579 C52.01845703 191.44388885 51.60917969 192.19109192 51.1875 192.9609375 C50.29024398 194.63172374 49.39446707 196.30330495 48.5 197.97558594 C48.03722656 198.83873413 47.57445312 199.70188232 47.09765625 200.59118652 C44.73592432 205.04417156 42.46297249 209.54155941 40.1875 214.0390625 C39.27224837 215.84120321 38.35688378 217.64328654 37.44140625 219.4453125 C36.0452336 222.19587707 34.65098371 224.94735751 33.26123047 227.70117188 C31.88778649 230.42069475 30.50706639 233.1364138 29.125 235.8515625 C28.49851562 237.09965195 28.49851562 237.09965195 27.859375 238.37295532 C27.27736328 239.51212906 27.27736328 239.51212906 26.68359375 240.67431641 C26.34513428 241.3431485 26.0066748 242.01198059 25.65795898 242.70108032 C24.6875 244.25 24.6875 244.25 22.6875 245.25 C21.36537447 232.99909835 21.57491042 220.74157991 21.625 208.4375 C21.63002547 206.2806 21.63458652 204.12369886 21.63867188 201.96679688 C21.64959349 196.72783947 21.66624842 191.48892516 21.6875 186.25 C22.0175 186.25 22.3475 186.25 22.6875 186.25 C22.6875 188.23 22.6875 190.21 22.6875 192.25 C24.3375 192.25 25.9875 192.25 27.6875 192.25 C27.6875 187.3 27.6875 182.35 27.6875 177.25 C32.6375 177.25 37.5875 177.25 42.6875 177.25 C42.6875 172.3 42.6875 167.35 42.6875 162.25 C37.7375 162.25 32.7875 162.25 27.6875 162.25 C27.6875 157.3 27.6875 152.35 27.6875 147.25 C29.3375 147.25 30.9875 147.25 32.6875 147.25 C33.0175 146.59 33.3475 145.93 33.6875 145.25 C33.3575 147.89 33.0275 150.53 32.6875 153.25 C40.21310522 153.30090835 47.73866566 153.33582092 55.2644043 153.35986328 C57.82203837 153.36989132 60.37966106 153.38351707 62.93725586 153.40087891 C66.62356382 153.42526779 70.30971954 153.4365154 73.99609375 153.4453125 C75.69819252 153.46079636 75.69819252 153.46079636 77.43467712 153.47659302 C90.1081609 153.47836496 101.3528624 151.09211668 110.84375 142.22265625 C116.79766455 135.85247225 120.41768487 128.25216738 123.6875 120.25 C124.12191406 119.20070313 124.55632812 118.15140625 125.00390625 117.0703125 C127.57753515 110.41728973 129.31021611 103.95751622 130.5 96.9375 C130.6858667 95.84489868 130.6858667 95.84489868 130.87548828 94.73022461 C132.33889862 85.21374694 132.27674502 76.95606776 127.6875 68.25 C121.61726634 60.84251189 112.77596928 58.66258915 103.6875 57.25 C100.15294999 56.95943536 96.63127304 56.88089952 93.0859375 56.8359375 C91.64222275 56.80688828 91.64222275 56.80688828 90.16934204 56.7772522 C87.13381455 56.71808427 84.09824782 56.67132519 81.0625 56.625 C78.98826588 56.58676228 76.91404666 56.54770731 74.83984375 56.5078125 C69.78918532 56.41243539 64.73845276 56.32817632 59.6875 56.25 C60.16896484 57.37921875 60.16896484 57.37921875 60.66015625 58.53125 C63.44795719 65.90885248 61.0671266 71.41274923 58.2265625 78.35546875 C56.44709738 82.75387707 54.97679259 87.24268805 53.5 91.75 C50.71313442 100.18239876 47.91022316 108.60915108 45.04818726 117.01635742 C44.60015244 118.33655612 44.15484909 119.65768502 43.71231079 120.97973633 C43.08992046 122.83779975 42.45729087 124.69242384 41.82421875 126.546875 C41.46030029 127.62291992 41.09638184 128.69896484 40.72143555 129.80761719 C39.6875 132.25 39.6875 132.25 37.6875 133.25 C35.97516312 133.1629796 34.26574594 133.00902838 32.5625 132.8125 C31.19738281 132.65974609 31.19738281 132.65974609 29.8046875 132.50390625 C29.10601562 132.42011719 28.40734375 132.33632812 27.6875 132.25 C26.2979247 125.75614314 26.61625414 120.57359813 28.6953125 114.26171875 C28.91649246 113.58255905 29.13767242 112.90339935 29.36555481 112.20365906 C30.12697862 109.8814092 30.90597111 107.56555771 31.6875 105.25 C31.97601837 104.38787903 32.26453674 103.52575806 32.5617981 102.63751221 C34.47485945 96.92409651 36.41263258 91.21939793 38.36352539 85.51879883 C39.38622586 82.52968948 40.40523747 79.53934016 41.42382812 76.54882812 C42.07791094 74.63273941 42.73220011 72.71672113 43.38671875 70.80078125 C43.6888176 69.91433426 43.99091644 69.02788727 44.3021698 68.11457825 C44.58619156 67.28568588 44.87021332 66.45679352 45.1628418 65.6027832 C45.40979294 64.88049026 45.65674408 64.15819733 45.91117859 63.41401672 C46.77597088 61.00338507 47.73634747 58.62788132 48.6875 56.25 C40.1075 56.25 31.5275 56.25 22.6875 56.25 C22.3575 58.56 22.0275 60.87 21.6875 63.25 C20.99966429 65.58095235 20.25290204 67.89509474 19.45703125 70.19140625 C19.00452431 71.51181444 18.55221988 72.83229206 18.10009766 74.15283203 C17.86679749 74.82759583 17.63349731 75.50235962 17.39312744 76.1975708 C16.24085828 79.5491282 15.1280108 82.9136707 14.01171875 86.27734375 C13.57246065 87.59576812 13.1330081 88.91412772 12.69335938 90.23242188 C12.36887817 91.20586548 12.36887817 91.20586548 12.0378418 92.19897461 C10.25439453 97.54931641 8.47094727 102.8996582 6.6875 108.25 C6.0275 108.25 5.3675 108.25 4.6875 108.25 C4.48592285 107.21182129 4.2843457 106.17364258 4.07666016 105.10400391 C3.32026754 101.20876709 2.5635064 97.31360194 1.80664062 93.41845703 C1.48069557 91.74074183 1.15484708 90.06300786 0.82910156 88.38525391 C0.51269083 86.75564158 0.19610368 85.12606349 -0.1206665 83.496521 C-0.42971564 81.90570647 -0.73811084 80.31476475 -1.0458374 78.72369385 C-1.97604703 73.92630053 -2.94571181 69.14008154 -4.00244141 64.36865234 C-4.40046663 61.6489178 -4.36097186 58.99429042 -4.3125 56.25 C-9.2605849 56.36810088 -14.20846276 56.4923384 -19.15625 56.62231445 C-20.84012642 56.66567817 -22.52404723 56.7073522 -24.20800781 56.74731445 C-26.62578724 56.80498234 -29.04334295 56.8686865 -31.4609375 56.93359375 C-32.59382706 56.95866249 -32.59382706 56.95866249 -33.74960327 56.98423767 C-37.65989799 57.02555107 -37.65989799 57.02555107 -41.3125 58.25 C-43.2925 57.92 -45.2725 57.59 -47.3125 57.25 C-47.3125 52.3 -47.3125 47.35 -47.3125 42.25 C-42.3625 42.25 -37.4125 42.25 -32.3125 42.25 C-32.3125 37.3 -32.3125 32.35 -32.3125 27.25 C-37.2625 27.25 -42.2125 27.25 -47.3125 27.25 C-47.3125 22.3 -47.3125 17.35 -47.3125 12.25 C-52.2625 12.25 -57.2125 12.25 -62.3125 12.25 C-62.3125 8.95 -62.3125 5.65 -62.3125 2.25 C-59.92571533 1.05660766 -58.30280225 1.05107255 -55.63598633 0.94238281 C-54.64708908 0.90167664 -53.65819183 0.86097046 -52.639328 0.81903076 C-51.54792007 0.78078186 -50.45651215 0.74253296 -49.33203125 0.703125 C-48.18241409 0.66149231 -47.03279694 0.61985962 -45.8483429 0.57696533 C-30.56881826 0.07059974 -15.2865484 0.00540764 0 0 Z " fill="#F2F2F2" transform="translate(467.3125,107.75)"/>
<path d="M0 0 C0.90646271 -0.00276947 1.81292542 -0.00553894 2.74685669 -0.00839233 C26.32846923 -0.06100185 49.71612165 1.1108895 73.1875 3.375 C74.9141539 3.53923462 74.9141539 3.53923462 76.6756897 3.70678711 C94.96895687 5.4597462 112.99633786 7.73927137 131.0625 11.125 C133.25769645 11.51887651 135.45300837 11.91211002 137.6484375 12.3046875 C162.15772983 16.77329347 186.37168948 22.39504326 210.0625 30.125 C211.07070801 30.45145508 212.07891602 30.77791016 213.11767578 31.11425781 C228.90115221 36.24026308 244.59209016 41.40849243 259.6015625 48.53515625 C266.32479841 51.62359532 273.20551676 54.34935888 280.0625 57.125 C280.0625 57.785 280.0625 58.445 280.0625 59.125 C280.72894531 59.21007812 281.39539063 59.29515625 282.08203125 59.3828125 C285.9580567 60.34800888 289.26163648 62.11154146 292.75 64 C293.49185547 64.39856201 294.23371094 64.79712402 294.99804688 65.20776367 C313.82662693 75.4461005 331.74873759 87.19805226 348.0625 101.125 C349.2288601 102.10583342 350.39554659 103.0862788 351.5625 104.06640625 C376.8100081 125.36752431 376.8100081 125.36752431 380.0625 135.125 C380.7225 135.125 381.3825 135.125 382.0625 135.125 C384.53719873 138.22251681 386.5695973 141.65175179 388.6875 145 C389.63375244 146.49454712 389.63375244 146.49454712 390.59912109 148.01928711 C409.1147111 177.85207372 415.57720733 211.42020046 407.875 245.9375 C402.9602982 264.15368327 394.39514015 280.14888201 383.6875 295.5625 C383.17550049 296.30314697 382.66350098 297.04379395 382.13598633 297.80688477 C381.65025146 298.48807373 381.1645166 299.1692627 380.6640625 299.87109375 C380.23432129 300.47622803 379.80458008 301.0813623 379.36181641 301.70483398 C378.0625 303.125 378.0625 303.125 375.0625 304.125 C374.35935044 305.43945917 373.69850234 306.77677033 373.0625 308.125 C352.35475367 334.51625666 322.03562268 353.20200174 293.0625 369.125 C291.80590576 369.81819336 291.80590576 369.81819336 290.52392578 370.52539062 C280.25677207 376.15751967 270.01057979 380.9753246 259.0625 385.125 C257.16302603 385.9078913 255.26704304 386.69931698 253.375 387.5 C232.38749526 396.26836452 211.51852505 403.44443835 189.51074219 409.21337891 C186.17107078 410.09629685 182.83908627 411.00394239 179.5078125 411.91796875 C162.18583043 416.61736072 144.7462445 420.11856731 127.0625 423.125 C126.1683136 423.27959686 125.2741272 423.43419373 124.35284424 423.59347534 C109.28087634 426.183896 94.23150498 428.11212992 79.00341797 429.50805664 C75.66669623 429.81441005 72.33141053 430.13382189 68.99609375 430.45507812 C47.54309611 432.49466236 26.34117216 433.31348869 4.7878418 433.31030273 C0.79533265 433.31018223 -3.19698903 433.33065975 -7.18945312 433.34960938 C-24.11545818 433.38601975 -40.83618434 432.68941089 -57.70411682 431.37457275 C-60.87356273 431.12993508 -64.04379046 430.9042544 -67.21508789 430.68505859 C-102.49204688 428.22485592 -137.85378636 422.48591251 -172.11523438 413.83056641 C-174.71279901 413.18117525 -177.31478534 412.55904282 -179.921875 411.94921875 C-204.1476606 406.2196635 -228.80479888 398.99518019 -251.34765625 388.296875 C-254.27138632 386.97392022 -257.24023732 385.86285343 -260.25 384.75 C-266.76215623 382.28490312 -272.89352846 379.26616574 -279.07666016 376.07519531 C-281.0043703 375.09085421 -282.94312416 374.13225304 -284.88671875 373.1796875 C-305.04308116 363.29179875 -324.84462906 351.79253114 -341.9375 337.125 C-342.97823695 336.25409611 -344.019979 335.3843925 -345.0625 334.515625 C-348.37712229 331.74522329 -351.66199669 328.9414759 -354.9375 326.125 C-355.81664062 325.3721875 -356.69578125 324.619375 -357.6015625 323.84375 C-376.69082328 307.11792151 -391.98086841 286.45271015 -401.9375 263.125 C-402.32679688 262.24972656 -402.71609375 261.37445313 -403.1171875 260.47265625 C-412.19050768 238.2113707 -413.71099104 209.09478212 -406.9375 186.125 C-406.5930267 184.83222376 -406.24931158 183.53924533 -405.90625 182.24609375 C-398.77547495 156.56723919 -382.59119276 134.72358584 -363.9375 116.125 C-362.89317054 115.048193 -361.85028667 113.96998276 -360.80859375 112.890625 C-353.61538298 105.4922528 -346.40368272 99.0578237 -337.9375 93.125 C-336.81356851 92.3094037 -335.69122372 91.49161726 -334.5703125 90.671875 C-327.09851679 85.23003752 -319.46108795 80.10244099 -311.63134766 75.19091797 C-309.99161529 74.1590541 -308.36086569 73.11295825 -306.73046875 72.06640625 C-298.40271567 66.79866601 -289.80280366 62.39099596 -280.9375 58.125 C-280.17066895 57.75197754 -279.40383789 57.37895508 -278.61376953 56.99462891 C-268.82984288 52.23752673 -259.02681114 47.76452717 -248.86376953 43.86962891 C-246.81791631 43.0787731 -244.7817975 42.26582677 -242.74609375 41.44921875 C-217.09625207 31.21498905 -190.80340088 23.78186498 -163.87158203 17.78466797 C-161.35628558 17.21915532 -158.84722006 16.63456271 -156.33984375 16.03515625 C-120.19600343 7.48862208 -82.93160004 3.62194971 -45.9375 1.125 C-44.85936035 1.05152344 -43.7812207 0.97804687 -42.67041016 0.90234375 C-28.46344104 -0.00659285 -14.23022464 0.02812208 0 0 Z M-169.8828125 41.56787109 C-173.37449357 42.51464108 -176.90727697 43.27470714 -180.4375 44.0625 C-189.7795047 46.18558283 -198.84866678 49.11680907 -207.9375 52.125 C-209.02756348 52.48319824 -209.02756348 52.48319824 -210.13964844 52.84863281 C-227.08620239 58.4477802 -243.65291359 64.82216754 -259.9375 72.125 C-260.72688965 72.47643066 -261.5162793 72.82786133 -262.32958984 73.18994141 C-272.14371727 77.58980183 -281.62211635 82.48389961 -291 87.75 C-291.93956543 88.27625977 -292.87913086 88.80251953 -293.84716797 89.34472656 C-300.14078426 92.93565196 -306.05908596 96.89426433 -311.9375 101.125 C-313.45460952 102.19429865 -314.97280433 103.26205948 -316.4921875 104.328125 C-317.93243285 105.34354978 -319.37253856 106.35917265 -320.8125 107.375 C-321.5446875 107.890625 -322.276875 108.40625 -323.03125 108.9375 C-324.41439363 109.91324496 -325.79572903 110.89156082 -327.17480469 111.87304688 C-328.59098098 112.87888511 -330.01666124 113.87133581 -331.4453125 114.859375 C-331.93773437 115.27703125 -332.43015625 115.6946875 -332.9375 116.125 C-332.9375 116.785 -332.9375 117.445 -332.9375 118.125 C-333.74767578 118.45951172 -333.74767578 118.45951172 -334.57421875 118.80078125 C-337.69669389 120.55039955 -340.15885181 122.87737618 -342.75 125.3125 C-343.28044922 125.80572754 -343.81089844 126.29895508 -344.35742188 126.80712891 C-352.70062967 134.46072858 -352.70062967 134.46072858 -359.9375 143.125 C-359.9375 143.785 -359.9375 144.445 -359.9375 145.125 C-360.5975 145.125 -361.2575 145.125 -361.9375 145.125 C-364.420827 148.1197911 -366.48184889 151.44367702 -368.625 154.6875 C-369.25841309 155.6460791 -369.89182617 156.6046582 -370.54443359 157.59228516 C-378.50468107 169.84307529 -383.74111312 181.86172588 -386.9375 196.125 C-387.16308594 197.0221875 -387.38867188 197.919375 -387.62109375 198.84375 C-392.85708351 222.24320769 -386.83306471 246.37984478 -375.9375 267.125 C-374.93377561 269.12313347 -373.93277188 271.12264292 -372.9375 273.125 C-372.2775 273.125 -371.6175 273.125 -370.9375 273.125 C-370.68097656 273.84300781 -370.42445313 274.56101562 -370.16015625 275.30078125 C-366.23489774 284.36775217 -358.68511368 292.05136692 -351.9375 299.125 C-351.39174316 299.69798828 -350.84598633 300.27097656 -350.28369141 300.86132812 C-342.04425983 309.45704733 -333.68073023 317.23897341 -323.9375 324.125 C-323.01565918 324.78145508 -323.01565918 324.78145508 -322.07519531 325.45117188 C-312.27419594 332.39908998 -302.22016974 338.9150841 -291.9375 345.125 C-291.34662598 345.48770996 -290.75575195 345.85041992 -290.14697266 346.22412109 C-276.44944414 354.5785067 -261.63778212 360.78066772 -246.9375 367.125 C-245.59196045 367.71112061 -245.59196045 367.71112061 -244.21923828 368.30908203 C-222.51485985 377.69034863 -199.29927286 385.03445205 -176.31982422 390.54931641 C-173.60539148 391.20525332 -170.89882593 391.88992586 -168.19140625 392.57421875 C-135.5989031 400.71911858 -102.27626054 405.98227132 -68.8125 408.875 C-68.1417041 408.93407532 -67.4709082 408.99315063 -66.77978516 409.05401611 C-44.13014059 411.01203961 -21.40931082 411.33278851 1.3125 411.3125 C2.57530792 411.31189575 3.83811584 411.3112915 5.13919067 411.31066895 C77.55180226 411.21713544 150.49178829 402.0397676 219.0546875 377.83105469 C221.2088138 377.07354821 223.36941825 376.33677166 225.53125 375.6015625 C232.53142866 373.20304342 239.3847772 370.70161324 246.078125 367.52734375 C249.17130636 366.0738724 252.29241996 364.70073878 255.42382812 363.33227539 C286.27928406 349.80548703 315.10025184 332.87718105 340.42700195 310.55371094 C342.18888617 309.01459369 343.97486298 307.50611271 345.76171875 305.99609375 C348.14644058 303.95407261 350.34144043 301.90080617 352.375 299.5 C353.23544922 298.48486328 353.23544922 298.48486328 354.11328125 297.44921875 C354.75652344 296.68222656 355.39976562 295.91523438 356.0625 295.125 C356.86042969 294.20332031 357.65835938 293.28164063 358.48046875 292.33203125 C363.95615595 285.92854228 368.74248616 279.36962499 373.0625 272.125 C373.52043945 271.40876465 373.97837891 270.6925293 374.45019531 269.95458984 C378.27169065 263.8635549 381.00252612 257.8008213 383.3125 251 C383.82780273 249.49276367 383.82780273 249.49276367 384.35351562 247.95507812 C387.09060406 239.63751813 388.6448603 231.87687198 389.0625 223.125 C389.13082031 221.89910156 389.19914063 220.67320312 389.26953125 219.41015625 C389.75898236 202.13434477 385.65522514 185.57226839 378.0625 170.125 C377.65515625 169.27421875 377.2478125 168.4234375 376.828125 167.546875 C370.35912167 154.83718611 360.9123593 143.36049817 351.0625 133.125 C350.58731934 132.62403809 350.11213867 132.12307617 349.62255859 131.60693359 C341.99160144 123.59093918 334.02088801 116.60904201 325.0625 110.125 C323.90477453 109.27237079 322.74722507 108.41950256 321.58984375 107.56640625 C314.90540211 102.68048155 308.09040115 98.17924069 300.98828125 93.91796875 C298.55159351 92.42472486 296.2541165 90.85528111 293.9375 89.1875 C287.98371252 85.15252064 281.33731415 82.3606644 274.828125 79.3515625 C270.86953935 77.51934756 266.99642579 75.57160485 263.125 73.5625 C255.15204665 69.54353748 246.88347188 66.32860282 238.56445312 63.10253906 C236.19673286 62.17744617 233.83951779 61.23002243 231.484375 60.2734375 C221.33560263 56.18155073 211.07658581 52.88240134 200.56396484 49.85888672 C198.13242613 49.14551512 195.71612896 48.3951373 193.30078125 47.62890625 C180.43211469 43.57446698 167.40528487 40.59033574 154.2109375 37.79345703 C151.38826052 37.19416349 148.56870001 36.58251517 145.75 35.96484375 C98.41557691 25.66707879 49.74728438 21.67717436 1.375 21.8125 C-0.04446403 21.814728 -1.46392815 21.81690422 -2.88339233 21.81903076 C-58.57807158 21.93423022 -116.07063282 26.29993426 -169.8828125 41.56787109 Z " fill="#040202" transform="translate(461.9375,62.875)"/>
<path d="M0 0 C2.0636161 -0.00237438 4.12720929 -0.00767933 6.19081879 -0.01329041 C32.74940915 -0.06605773 59.09213797 1.39905588 85.48189545 4.43238831 C88.28936879 4.7539612 91.09820231 5.06090687 93.90743256 5.36671448 C104.65439479 6.56135987 115.19754617 8.16531614 125.79610443 10.31007385 C127.57796155 10.64452701 129.36043364 10.97573668 131.14376068 11.30226135 C149.17549002 14.66429914 167.13542377 18.32570056 184.79610443 23.31007385 C185.83379974 23.59237854 186.87149506 23.87468323 187.94063568 24.1655426 C207.23955324 29.50949922 226.2093964 35.86512174 244.79610443 43.31007385 C245.60241302 43.62943909 246.40872162 43.94880432 247.23946381 44.27784729 C258.79465121 48.87843726 269.7617463 54.25299968 280.68746185 60.18678284 C282.74782572 61.28435539 284.82695139 62.32945901 286.92110443 63.3608551 C304.82870393 72.24521137 321.8032167 84.13522132 336.79610443 97.31007385 C337.45997162 97.86437073 338.12383881 98.4186676 338.80782318 98.98976135 C364.43774771 120.58982354 386.22779177 149.76260612 389.67110443 184.05226135 C391.10409341 209.93562477 385.61995013 233.80505826 370.79610443 255.31007385 C369.79063568 256.7796051 369.79063568 256.7796051 368.76485443 258.27882385 C349.10255024 286.05572977 322.39756386 305.99388619 293.22774506 322.90040588 C291.66836268 323.80440928 290.11206901 324.71377423 288.55977631 325.62989807 C272.44910458 335.12759915 255.27750527 342.7207407 237.74532318 349.2046051 C234.9342439 350.25829442 232.1600542 351.38524205 229.38497162 352.52980042 C221.6544647 355.7022067 213.8366837 358.32678051 205.82881927 360.70558167 C203.82181935 361.30242671 201.81861653 361.91083176 199.81563568 362.52101135 C115.84931927 387.89438935 27.37651499 393.72244986 -280.20389557 329.31007385 C-280.89773346 328.94381897 -281.59157135 328.57756409 -282.30643463 328.20021057 C-303.96994098 316.7197923 -325.01456316 302.88931617 -342.67362213 285.78468323 C-344.31052297 284.20732505 -345.97199728 282.6582565 -347.63358307 281.10694885 C-356.29235806 272.88277502 -364.3222083 263.78019566 -370.20389557 253.31007385 C-370.20389557 252.65007385 -370.20389557 251.99007385 -370.20389557 251.31007385 C-370.86389557 251.31007385 -371.52389557 251.31007385 -372.20389557 251.31007385 C-387.26858618 221.7601038 -392.84430795 194.72756329 -383.07108307 162.4624176 C-379.1713582 150.80198197 -373.24626693 140.61752278 -366.39139557 130.49757385 C-365.91105865 129.78488342 -365.43072174 129.07219299 -364.93582916 128.33790588 C-363.74643255 126.62279512 -362.48147552 124.96054613 -361.20389557 123.31007385 C-360.54389557 123.31007385 -359.88389557 123.31007385 -359.20389557 123.31007385 C-358.95897369 122.7480426 -358.71405182 122.18601135 -358.46170807 121.60694885 C-353.22354429 112.0416063 -342.87048577 102.9131902 -334.20389557 96.31007385 C-333.54389557 96.31007385 -332.88389557 96.31007385 -332.20389557 96.31007385 C-332.20389557 95.65007385 -332.20389557 94.99007385 -332.20389557 94.31007385 C-330.63431549 92.90895081 -330.63431549 92.90895081 -328.43436432 91.2983551 C-327.63369537 90.70893127 -326.83302643 90.11950745 -326.00809479 89.51222229 C-325.14458405 88.88863831 -324.2810733 88.26505432 -323.39139557 87.62257385 C-322.5149942 86.98481018 -321.63859283 86.34704651 -320.73563385 85.68995667 C-314.69523488 81.32154371 -308.60842368 77.12985439 -302.20389557 73.31007385 C-301.60996002 72.95026428 -301.01602448 72.59045471 -300.40409088 72.21974182 C-281.97287241 61.06160436 -263.09005213 51.60345404 -243.20389557 43.31007385 C-242.46590729 43.00053772 -241.72791901 42.69100159 -240.96756744 42.37208557 C-231.84966299 38.56564567 -222.59922635 35.35092822 -213.20389557 32.31007385 C-211.81962904 31.84307609 -210.43552508 31.37559627 -209.05155182 30.9077301 C-191.36615936 25.00823344 -173.45467428 20.09377188 -155.20389557 16.31007385 C-154.21711823 16.10285706 -153.23034088 15.89564026 -152.21366119 15.68214417 C-136.94390211 12.49007878 -121.62878273 9.64364226 -106.20389557 7.31007385 C-105.09497955 7.14120667 -103.98606354 6.97233948 -102.84354401 6.7983551 C-68.70652765 1.71838512 -34.48077755 0.03373455 0 0 Z M-68.70389557 16.49757385 C-69.37212341 16.55876404 -70.04035126 16.61995422 -70.72882843 16.68299866 C-95.59445407 19.0018448 -120.31167065 22.89809654 -144.76639557 27.93507385 C-145.44765503 28.07505798 -146.12891449 28.21504211 -146.83081818 28.35926819 C-156.39178226 30.34181607 -165.7880719 32.73560415 -175.20389557 35.31007385 C-177.11625653 35.8115995 -179.02898799 36.31171562 -180.94217682 36.81007385 C-193.51451026 40.15956365 -205.81427549 44.11106348 -218.07889557 48.43507385 C-218.80219055 48.6886969 -219.52548553 48.94231995 -220.27069855 49.20362854 C-227.95101296 51.90608885 -235.49806577 54.74822535 -242.87430573 58.21534729 C-244.89009731 59.16261301 -246.91348364 60.05258909 -248.96952057 60.9077301 C-265.70918864 67.94514661 -281.9970921 76.3752423 -297.20389557 86.31007385 C-298.66569244 87.24013245 -298.66569244 87.24013245 -300.15702057 88.1889801 C-331.04059196 108.19862387 -362.61937597 136.40173041 -372.20389557 173.31007385 C-372.53840729 174.51856995 -372.53840729 174.51856995 -372.87967682 175.7514801 C-374.33460225 182.07595187 -374.40646146 188.41306473 -374.45389557 194.87257385 C-374.46324127 195.74712219 -374.47258698 196.62167053 -374.48221588 197.52272034 C-374.35570596 223.46941824 -360.56902593 245.71765577 -344.5051651 265.05567932 C-343.26514907 266.54141404 -343.26514907 266.54141404 -341.20389557 266.31007385 C-340.93448151 266.90433167 -340.66506744 267.49858948 -340.38748932 268.1108551 C-336.3177603 275.67276083 -327.77720275 281.08933447 -321.20389557 286.31007385 C-320.27190338 287.07062073 -319.33991119 287.8311676 -318.37967682 288.61476135 C-311.40017705 294.18011411 -304.0906043 299.11250937 -296.57889557 303.93507385 C-295.60589508 304.56373352 -294.63289459 305.19239319 -293.63040924 305.84010315 C-292.7136441 306.42058411 -291.79687897 307.00106506 -290.85233307 307.59913635 C-290.02910553 308.12201233 -289.20587799 308.64488831 -288.35770416 309.18360901 C-286.16593434 310.54179956 -286.16593434 310.54179956 -283.20389557 310.31007385 C-283.20389557 310.97007385 -283.20389557 311.63007385 -283.20389557 312.31007385 C-274.2742973 316.83170919 -265.30223091 321.2542291 -256.26639557 325.56007385 C-254.9724588 326.17761536 -254.9724588 326.17761536 -253.6523819 326.80763245 C-229.97207135 338.05447033 -205.10982772 346.26773532 -179.95389557 353.56007385 C-178.91652252 353.864776 -177.87914948 354.16947815 -176.81034088 354.4834137 C-158.39419879 359.71572147 -139.49949418 363.17144192 -120.64139557 366.37257385 C-119.64129456 366.5433847 -118.64119354 366.71419556 -117.61078644 366.8901825 C-103.57933986 369.27011223 -89.54906544 371.29017466 -75.39139557 372.74757385 C-74.64058716 372.82524994 -73.88977875 372.90292603 -73.11621857 372.98295593 C-55.83508926 374.73686945 -38.6032518 375.47039366 -21.23905182 375.4780426 C-19.46857937 375.4812731 -17.69810715 375.48463835 -15.92763519 375.48812866 C-12.2409885 375.49406016 -8.55436504 375.49597491 -4.86771393 375.49537659 C-1.14956521 375.49529559 2.56845962 375.502207 6.28658295 375.5158844 C27.54617292 375.59280822 48.62172784 375.46873689 69.79610443 373.31007385 C71.03588547 373.18591599 71.03588547 373.18591599 72.30071259 373.05924988 C77.14159249 372.56387445 81.96886037 371.9883109 86.79610443 371.37257385 C88.20534861 371.19665724 89.61461002 371.02087867 91.02388763 370.8452301 C101.31880257 369.54992755 111.57365527 368.09087272 121.79610443 366.31007385 C123.02321136 366.10197083 123.02321136 366.10197083 124.27510834 365.8896637 C163.261142 359.25669942 201.160765 349.25579624 237.79610443 334.31007385 C238.55463715 334.00231018 239.31316986 333.69454651 240.09468842 333.37745667 C251.2557236 328.82428208 262.1051809 323.87483662 272.79610443 318.31007385 C273.41936615 317.99070862 274.04262787 317.67134338 274.68477631 317.34230042 C287.95265935 310.54268293 300.45234621 302.65738348 312.79610443 294.31007385 C313.49727386 293.8410968 314.1984433 293.37211975 314.92086029 292.88893127 C316.58341897 291.74878929 318.19569155 290.53592201 319.79610443 289.31007385 C319.79610443 288.65007385 319.79610443 287.99007385 319.79610443 287.31007385 C320.63335052 286.93302307 320.63335052 286.93302307 321.48751068 286.5483551 C343.50606606 274.73806398 361.77516845 248.73456424 370.73360443 225.99757385 C371.15742401 224.92309998 371.15742401 224.92309998 371.5898056 223.82691956 C379.49834001 202.66716405 377.54865777 177.8690547 368.40157318 157.4077301 C362.98115998 146.94936594 356.45409831 137.25818334 348.79610443 128.31007385 C347.97819427 127.31040588 347.97819427 127.31040588 347.14376068 126.2905426 C344.27787642 122.82668758 341.33568847 120.1044823 337.79610443 117.31007385 C336.88151459 116.14218323 336.88151459 116.14218323 335.94844818 114.95069885 C315.06042112 89.32400867 276.35060042 71.95731082 246.79610443 59.31007385 C245.69580902 58.83577942 244.59551361 58.36148499 243.46187592 57.87281799 C232.06339048 53.01356356 220.55398493 48.70473906 208.79610443 44.81007385 C208.08398804 44.57295685 207.37187164 44.33583984 206.63817596 44.09153748 C194.91982016 40.20044555 183.14569945 36.78210906 171.13887787 33.88478088 C169.07183306 33.37771299 167.0149931 32.82942772 164.96016693 32.2749176 C134.04030688 23.99161453 101.45239829 19.48661735 69.60860443 16.56007385 C68.3589389 16.44446106 67.10927338 16.32884827 65.8217392 16.20973206 C45.48578134 14.4689159 25.14585166 14.14627282 4.74459076 14.17970276 C0.86653986 14.18506288 -3.01139502 14.17972018 -6.88944244 14.1733551 C-27.53229261 14.16688091 -48.13800673 14.60977187 -68.70389557 16.49757385 Z " fill="#EFEFEF" transform="translate(461.20389556884766,84.68992614746094)"/>
<path d="M0 0 C3.88016658 0.00537047 7.7602177 0.00001046 11.64038086 -0.00634766 C31.87151617 -0.01269116 52.03826702 0.47522562 72.19311523 2.31787109 C72.86023529 2.37872894 73.52735535 2.43958679 74.21469116 2.50228882 C101.56358579 5.04204172 128.81950788 9.12710108 155.56958008 15.37597656 C158.95616022 16.16242874 162.34885166 16.91651549 165.74389648 17.66552734 C176.802356 20.12479436 187.7142595 22.70460239 198.45385742 26.33642578 C201.38431485 27.32050752 204.32392331 28.27522007 207.26342773 29.23193359 C219.27656743 33.16249236 231.19079174 37.16014214 242.81811523 42.13037109 C243.8712793 42.57638672 244.92444336 43.02240234 246.00952148 43.48193359 C267.53660643 52.73994072 288.40762356 62.93676287 307.81811523 76.13037109 C308.39223145 76.52047363 308.96634766 76.91057617 309.55786133 77.3125 C317.40841406 82.68393082 324.79281211 88.45370922 331.97827148 94.68505859 C333.80760304 96.26024642 335.66814634 97.80023914 337.56420898 99.29443359 C340.06647606 101.3326754 341.80602877 103.61526301 343.81811523 106.13037109 C344.57479492 106.70916016 345.33147461 107.28794922 346.11108398 107.88427734 C349.23015036 110.47224728 351.6649992 113.37924825 354.13061523 116.56787109 C354.60845459 117.18259277 355.08629395 117.79731445 355.57861328 118.43066406 C373.68294083 142.10298922 381.84170057 167.30177773 378.35717773 197.06787109 C377.6941178 200.18815313 376.8585812 203.11538447 375.81811523 206.13037109 C375.41592773 207.31244141 375.01374023 208.49451172 374.59936523 209.71240234 C365.71761973 234.31831605 346.56460073 258.52978956 324.81811523 273.13037109 C324.15811523 273.13037109 323.49811523 273.13037109 322.81811523 273.13037109 C322.81811523 273.79037109 322.81811523 274.45037109 322.81811523 275.13037109 C320.99945894 276.55931533 319.1087067 277.89676088 317.19311523 279.19287109 C316.60554443 279.59062744 316.01797363 279.98838379 315.41259766 280.39819336 C313.55332504 281.65077933 311.68645091 282.89135405 309.81811523 284.13037109 C308.97676025 284.69449707 308.97676025 284.69449707 308.1184082 285.27001953 C293.63710608 294.958547 278.42836107 303.04220027 262.60424805 310.29589844 C260.26785857 311.38744836 257.98104831 312.56609895 255.69311523 313.75537109 C249.90854225 316.68714273 243.86888181 318.99391064 237.82910156 321.33886719 C236.43390017 321.88800436 235.04336639 322.4490919 233.65673828 323.01953125 C226.09002833 326.12016672 218.38202416 328.78520456 210.63061523 331.38037109 C209.91624298 331.6195929 209.20187073 331.8588147 208.46585083 332.10528564 C169.63279281 345.03549227 129.54474144 352.2790305 89.00561523 357.31787109 C87.78237549 357.47263916 86.55913574 357.62740723 85.29882812 357.78686523 C81.1423861 358.28446935 76.98420116 358.72275511 72.81811523 359.13037109 C71.49348267 359.26327545 71.49348267 359.26327545 70.14208984 359.39886475 C50.07075303 361.34216822 30.05749003 361.44190245 9.9128418 361.39111328 C5.36295023 361.37973677 0.81329314 361.38648986 -3.73659039 361.39799023 C-24.63822409 361.44285079 -45.3548151 361.07118962 -66.18188477 359.13037109 C-67.01909058 359.05240295 -67.85629639 358.97443481 -68.71887207 358.894104 C-73.36304128 358.44612488 -77.990834 357.90806426 -82.61938477 357.31787109 C-83.2912381 357.23389069 -83.96309143 357.14991028 -84.65530396 357.06338501 C-132.51653423 351.06468496 -178.3716365 340.36956665 -223.74438477 324.00537109 C-224.61240723 323.69277344 -225.48042969 323.38017578 -226.37475586 323.05810547 C-238.14080468 318.75996447 -249.39500715 313.66495647 -260.55688477 308.00537109 C-261.80018186 307.37868698 -263.0436708 306.75238332 -264.28735352 306.12646484 C-266.56638367 304.97889177 -268.84404907 303.82876171 -271.12084961 302.67675781 C-274.1370954 301.15299797 -277.15834293 299.63959361 -280.18188477 298.13037109 C-280.18188477 297.47037109 -280.18188477 296.81037109 -280.18188477 296.13037109 C-280.8405957 296.06849609 -281.49930664 296.00662109 -282.17797852 295.94287109 C-286.41128565 294.79784134 -289.61835732 292.54745299 -293.24438477 290.13037109 C-294.37384521 289.387146 -294.37384521 289.387146 -295.52612305 288.62890625 C-308.34924774 280.11566244 -320.37882185 270.56042544 -331.80688477 260.25537109 C-332.58902344 259.55855225 -332.58902344 259.55855225 -333.38696289 258.84765625 C-335.82093231 256.62140511 -337.11971529 255.31687952 -338.18188477 252.13037109 C-339.17188477 251.80037109 -340.16188477 251.47037109 -341.18188477 251.13037109 C-343.04602101 248.99992967 -344.78240274 246.87738371 -346.49438477 244.63037109 C-346.9885791 243.98672607 -347.48277344 243.34308105 -347.99194336 242.67993164 C-349.39781115 240.8368422 -350.79079607 238.98462365 -352.18188477 237.13037109 C-352.75551758 236.38400391 -353.32915039 235.63763672 -353.92016602 234.86865234 C-368.28662138 214.91749038 -374.00546594 190.53904974 -370.65063477 166.29052734 C-369.95704131 163.18066539 -369.12995107 160.1715708 -368.18188477 157.13037109 C-367.78163086 155.68210938 -367.78163086 155.68210938 -367.37329102 154.20458984 C-363.35014802 140.70471 -356.03685051 128.98259252 -347.18188477 118.13037109 C-346.72265625 117.56431152 -346.26342773 116.99825195 -345.7902832 116.41503906 C-317.36726991 81.59447127 -276.16611288 59.00949313 -235.18188477 42.13037109 C-233.48660645 41.42992676 -233.48660645 41.42992676 -231.75708008 40.71533203 C-222.63944313 36.98557264 -213.41220896 33.71009103 -204.05688477 30.63037109 C-203.335896 30.39225708 -202.61490723 30.15414307 -201.87207031 29.90881348 C-179.86601046 22.65226977 -157.83279024 17.11985417 -135.13104248 12.52716064 C-133.22376885 12.13889743 -131.31827812 11.74190846 -129.4128418 11.34472656 C-120.25073358 9.45787894 -111.0650621 7.94209689 -101.80688477 6.63037109 C-100.6878627 6.47078918 -100.6878627 6.47078918 -99.54623413 6.3079834 C-88.38655657 4.72871284 -77.21798458 3.41017678 -65.99438477 2.38037109 C-64.75833496 2.265 -63.52228516 2.14962891 -62.2487793 2.03076172 C-41.53197258 0.24319571 -20.78278196 -0.034111 0 0 Z M-104.18188477 16.13037109 C-105.0880957 16.26056641 -105.99430664 16.39076172 -106.92797852 16.52490234 C-125.60060175 19.2092763 -143.97070305 23.29483292 -162.30688477 27.69287109 C-164.06524658 28.11391113 -164.06524658 28.11391113 -165.85913086 28.54345703 C-176.24721066 31.07112037 -186.59639085 33.813709 -196.71313477 37.28662109 C-199.3480572 38.1871642 -201.99414231 39.05138898 -204.640625 39.91723633 C-211.25844166 42.0932365 -217.74958395 44.4540259 -224.18188477 47.13037109 C-225.46925437 47.65087001 -226.75705264 48.17030933 -228.04516602 48.68896484 C-249.3832671 57.31495353 -271.21896762 66.96440789 -290.18188477 80.13037109 C-291.00043945 80.68982422 -291.81899414 81.24927734 -292.66235352 81.82568359 C-295.18604541 83.57074807 -297.68463368 85.34772996 -300.18188477 87.13037109 C-301.02106445 87.71173828 -301.86024414 88.29310547 -302.72485352 88.89208984 C-322.91220044 103.11567106 -342.06518013 120.76409283 -353.18188477 143.13037109 C-353.53637695 143.79166016 -353.89086914 144.45294922 -354.25610352 145.13427734 C-364.07273779 163.78223315 -365.00376093 185.98355513 -358.90942383 206.00585938 C-352.86257595 223.66346683 -340.9815868 237.92705396 -328.18188477 251.13037109 C-327.47161133 251.88060547 -326.76133789 252.63083984 -326.02954102 253.40380859 C-306.69123642 273.41440598 -281.0695514 288.36950297 -256.11499023 300.2109375 C-254.11098264 301.16409393 -252.11707195 302.13649272 -250.12329102 303.11083984 C-232.60936082 311.59864435 -214.5462401 318.24074614 -196.03588867 324.20751953 C-193.3757804 325.0676743 -190.72172369 325.94425869 -188.06860352 326.82568359 C-179.00796658 329.80343085 -169.96379335 332.24235989 -160.62329102 334.17333984 C-157.29559356 334.86518464 -154.01489662 335.68001117 -150.72485352 336.53271484 C-142.85676231 338.51627244 -134.90739084 340.03039715 -126.93188477 341.50537109 C-126.11796265 341.65622162 -125.30404053 341.80707214 -124.4654541 341.9624939 C-111.5013427 344.34445412 -98.51054972 346.30811781 -85.43188477 347.94287109 C-84.65244507 348.0417865 -83.87300537 348.1407019 -83.06994629 348.24261475 C-77.44782447 348.94839198 -71.81944771 349.56193017 -66.18188477 350.13037109 C-65.29434509 350.22293182 -64.40680542 350.31549255 -63.49237061 350.41085815 C-41.63987274 352.61958022 -19.74719377 352.56914164 2.19311523 352.56787109 C3.16120117 352.5687825 4.12928711 352.56969391 5.12670898 352.57063293 C29.43909297 352.59110594 53.61254385 352.39232318 77.81811523 349.88037109 C78.80575867 349.77804169 79.7934021 349.67571228 80.81097412 349.57028198 C94.38105609 348.11080047 107.81213442 345.87190078 121.25909424 343.56155396 C124.49942725 343.01557326 127.74682648 342.52645342 130.99780273 342.04833984 C177.21296854 335.04812395 223.8105859 320.35865695 265.56811523 299.31787109 C266.23931396 298.98021729 266.9105127 298.64256348 267.60205078 298.29467773 C290.08587862 286.93046904 310.85915638 273.78492611 329.81811523 257.13037109 C330.66889648 256.41365234 331.51967773 255.69693359 332.39624023 254.95849609 C333.13358398 254.33458984 333.87092773 253.71068359 334.63061523 253.06787109 C335.25581055 252.54064453 335.88100586 252.01341797 336.52514648 251.47021484 C338.04958433 250.20083947 338.04958433 250.20083947 337.81811523 248.13037109 C338.80811523 247.80037109 339.79811523 247.47037109 340.81811523 247.13037109 C342.66080148 245.0206714 344.37578319 242.91763194 346.06811523 240.69287109 C346.55683105 240.05760498 347.04554688 239.42233887 347.54907227 238.76782227 C348.98152459 236.89561511 350.40140356 235.01450475 351.81811523 233.13037109 C352.51163086 232.21771484 353.20514648 231.30505859 353.91967773 230.36474609 C364.35811725 216.10960844 369.98628855 198.66173879 370.06811523 181.13037109 C370.08874023 180.05658203 370.10936523 178.98279297 370.13061523 177.87646484 C370.21377777 160.59944786 363.69630146 145.11455039 353.81811523 131.13037109 C353.13491211 130.14939453 352.45170898 129.16841797 351.74780273 128.15771484 C341.26672647 113.82173426 328.30781143 101.36053349 313.81811523 91.13037109 C312.75077148 90.36466797 311.68342773 89.59896484 310.58374023 88.81005859 C289.09150032 73.64209023 265.8864133 61.64060461 241.81811523 51.13037109 C241.1486084 50.83469238 240.47910156 50.53901367 239.78930664 50.234375 C217.74355803 40.58745317 194.04349804 34.03845894 170.82006836 27.921875 C168.34167727 27.26841502 165.86825025 26.60036837 163.39624023 25.92333984 C150.70191631 22.56228994 137.74367131 20.39575755 124.81811523 18.13037109 C123.98473633 17.98212891 123.15135742 17.83388672 122.29272461 17.68115234 C112.07259527 15.88126906 101.78780768 14.57501626 91.48757935 13.33010864 C90.09079004 13.16126943 88.69418677 12.99088024 87.29782104 12.818573 C62.20903119 9.74379045 37.27485902 8.82149453 12.03033447 8.93475342 C8.99767399 8.94557592 5.96505807 8.94517611 2.93238163 8.94474697 C-33.12590031 8.94597692 -68.47701271 10.85822312 -104.18188477 16.13037109 Z " fill="#090707" transform="translate(458.181884765625,98.86962890625)"/>
<path d="M0 0 C1.24994751 0.01232666 1.24994751 0.01232666 2.52514648 0.02490234 C13.714496 0.22828542 22.54700953 2.04011609 31.1953125 9.6953125 C37.33838494 16.42694278 38.23118986 23.97603442 38.0390625 32.7265625 C36.36969197 53.36520489 27.86199685 77.00883634 12.6875 91.46484375 C2.99245199 99.60939695 -8.6358908 101.77446539 -21 101.625 C-21.96357422 101.63660156 -22.92714844 101.64820313 -23.91992188 101.66015625 C-35.85344109 101.61187499 -44.33535564 98.35214436 -52.75 89.9375 C-58.85444106 80.21561239 -58.44708106 69.54034546 -56.3125 58.5625 C-51.68713355 39.20050089 -45.25605368 17.52854538 -27.44921875 6.37890625 C-18.48789443 1.63065689 -10.0771813 -0.12105338 0 0 Z " fill="#050303" transform="translate(414.4375,281.75)"/>
<path d="M0 0 C6.00990162 -0.0749604 12.01952253 -0.12897975 18.02978516 -0.16479492 C20.06824493 -0.17974813 22.10667329 -0.20011811 24.14501953 -0.22631836 C55.18307604 -0.61486546 55.18307604 -0.61486546 64.45703125 7.47265625 C70.22756462 13.18475384 73.03036773 19.10295078 73.1484375 27.265625 C72.81122427 48.80290164 65.13728915 72.32730659 50.12109375 87.9765625 C42.17135389 95.56029224 32.08109309 98.1384357 21.27001953 98.11352539 C20.16933136 98.11344986 19.06864319 98.11337433 17.93460083 98.11329651 C16.17646561 98.10555458 16.17646561 98.10555458 14.3828125 98.09765625 C13.17051971 98.0962413 11.95822693 98.09482635 10.709198 98.09336853 C6.84777327 98.08778345 2.98640712 98.07523361 -0.875 98.0625 C-3.49739499 98.05748308 -6.1197909 98.0529205 -8.7421875 98.04882812 C-15.16147822 98.03781889 -21.58073493 98.02109555 -28 98 C-26.20700204 91.94381963 -24.35736053 85.91485049 -22.36328125 79.921875 C-22.00238655 78.83311066 -22.00238655 78.83311066 -21.63420105 77.72235107 C-20.86238071 75.39753608 -20.08777468 73.07366516 -19.3125 70.75 C-19.04743652 69.95408447 -18.78237305 69.15816895 -18.50927734 68.33813477 C-14.71718595 56.96300348 -10.77985516 45.6557048 -6.6171875 34.41015625 C-4.89579006 29.75442294 -3.30971642 25.06524026 -1.7890625 20.33984375 C-1 18 -1 18 0.08984375 15.44140625 C0.97018396 13.07997866 1.24278793 11.49298318 1.1875 9 C1.18105469 8.360625 1.17460938 7.72125 1.16796875 7.0625 C0.97207163 4.65706557 0.4875958 2.36186054 0 0 Z " fill="#050202" transform="translate(527,164)"/>
<path d="M0 0 C7.6496231 -0.10189485 15.29906945 -0.17167286 22.94921875 -0.21972656 C25.54856914 -0.2397713 28.14787483 -0.26701447 30.74707031 -0.30175781 C34.4955553 -0.35058865 38.24344111 -0.37304126 41.9921875 -0.390625 C43.14363251 -0.41127014 44.29507751 -0.43191528 45.48141479 -0.45318604 C54.18446742 -0.45557556 61.8506576 0.9056316 68.5 6.875 C73.08365767 12.10606694 73.50478222 17.76867292 73.37890625 24.515625 C72.2735408 34.68042898 68.58691775 46.06330402 62 54 C60.515 54.495 60.515 54.495 59 55 C59 55.66 59 56.32 59 57 C57.421924 57.84324672 55.8372958 58.67423918 54.25 59.5 C53.36828125 59.9640625 52.4865625 60.428125 51.578125 60.90625 C49 62 49 62 45 62 C46.79586434 68.59943643 49.11378747 74.80846032 51.79296875 81.09765625 C56 91.21359223 56 91.21359223 56 97 C47.42 97 38.84 97 30 97 C27.67975518 90.03926555 25.45156691 83.07810357 23.3125 76.0625 C22.99216797 75.02287109 22.67183594 73.98324219 22.34179688 72.91210938 C22.03951172 71.92146484 21.73722656 70.93082031 21.42578125 69.91015625 C21.15161377 69.01433838 20.87744629 68.11852051 20.5949707 67.19555664 C20 65 20 65 20 63 C16.7 63 13.4 63 10 63 C9.938125 64.051875 9.87625 65.10375 9.8125 66.1875 C9.17891541 71.31953517 7.26247072 75.82340597 5.33984375 80.59375 C3.6388951 84.91802761 2.21012845 89.30926993 0.796875 93.734375 C0 96 0 96 -1 97 C-2.92667507 97.08748207 -4.85651861 97.10697334 -6.78515625 97.09765625 C-8.53989258 97.09282227 -8.53989258 97.09282227 -10.33007812 97.08789062 C-12.17762695 97.07532227 -12.17762695 97.07532227 -14.0625 97.0625 C-15.91584961 97.05573242 -15.91584961 97.05573242 -17.80664062 97.04882812 C-20.87114117 97.03699608 -23.93554721 97.02051173 -27 97 C-25.58315051 89.90107018 -23.48487715 83.25277815 -21.0625 76.4375 C-20.2546737 74.13560422 -19.44740852 71.83351146 -18.640625 69.53125 C-18.21330078 68.31566406 -17.78597656 67.10007812 -17.34570312 65.84765625 C-15.93759692 61.83127711 -14.55249034 57.80714963 -13.171875 53.78125 C-12.93551834 53.09218063 -12.69916168 52.40311127 -12.4556427 51.69316101 C-11.50353575 48.91595757 -10.55216922 46.13850337 -9.60238647 43.36050415 C-5.19465651 30.47014635 -5.19465651 30.47014635 -3.00390625 24.54296875 C-0.33733521 17.3244032 1.75285763 10.78498456 2 3 C1.34 3 0.68 3 0 3 C0 2.01 0 1.02 0 0 Z " fill="#040202" transform="translate(642,284)"/>
<path d="M0 0 C7.50720548 -0.10191247 15.01423073 -0.17168009 22.52197266 -0.21972656 C25.07282173 -0.23976872 27.62362527 -0.26700993 30.17431641 -0.30175781 C33.8533048 -0.3506003 37.53168259 -0.37304381 41.2109375 -0.390625 C42.34050873 -0.41127014 43.47007996 -0.43191528 44.63388062 -0.45318604 C53.15861293 -0.45556998 59.73608884 1.27835458 66.9375 5.875 C71.58745774 10.66586555 72.52975017 15.64039876 72.4375 22.125 C72.42992676 22.87273682 72.42235352 23.62047363 72.41455078 24.39086914 C72.08162394 35.72374728 67.86064675 46.79393203 60.01171875 55.10546875 C54.87775427 59.79468301 51.04192454 62.10510335 44 62 C44.27972656 62.71800781 44.55945313 63.43601562 44.84765625 64.17578125 C47.54585043 71.14250128 50.19738895 78.12669338 52.8125 85.125 C53.12646729 85.95427002 53.44043457 86.78354004 53.76391602 87.63793945 C54.19982056 88.81102661 54.19982056 88.81102661 54.64453125 90.0078125 C54.90596924 90.70535645 55.16740723 91.40290039 55.43676758 92.12158203 C56 94 56 94 56 97 C47.09 97 38.18 97 29 97 C27.88625 93.24625 26.7725 89.4925 25.625 85.625 C25.27775879 84.46307129 24.93051758 83.30114258 24.57275391 82.10400391 C22.71067762 75.77208494 21.19239698 69.49193912 20 63 C16.7 63 13.4 63 10 63 C9.59136719 64.56363281 9.18273437 66.12726563 8.76171875 67.73828125 C7.05615748 73.99200591 4.97831353 80.08075518 2.8125 86.1875 C1.554375 89.755625 0.29625 93.32375 -1 97 C-9.91 97 -18.82 97 -28 97 C-26.23415472 90.52523398 -24.58785947 84.53169617 -22.28515625 78.31640625 C-21.7638843 76.89644451 -21.24273058 75.47643936 -20.72167969 74.05639648 C-20.45109741 73.32395721 -20.18051514 72.59151794 -19.9017334 71.83688354 C-13.21314638 53.71032628 -7.03109711 35.431033 -1.00878906 17.07397461 C-0.34385145 15.04778161 0.32564104 13.02307689 1 11 C1.14153846 7.10769226 1.03692062 3.74443556 0 0 Z " fill="#040202" transform="translate(283,284)"/>
<path d="M0 0 C11.55 0 23.1 0 35 0 C35.96093085 4.92541294 36.92142454 9.85090729 37.88085938 14.77661133 C38.2064583 16.447558 38.53229878 18.11845762 38.85839844 19.78930664 C39.77908183 24.50710297 40.69540089 29.2256995 41.60388184 33.94586182 C41.95757714 35.78000905 42.31496322 37.61344367 42.67285156 39.44677734 C42.85557617 40.40664551 43.03830078 41.36651367 43.2265625 42.35546875 C43.37947754 43.14977295 43.53239258 43.94407715 43.68994141 44.76245117 C44.02767333 47.19970559 44.05375978 49.54252622 44 52 C44.66 52 45.32 52 46 52 C46.09023438 51.236875 46.18046875 50.47375 46.2734375 49.6875 C47.27056878 44.62679073 48.95375215 39.87343357 50.625 35 C51.34764882 32.86502111 52.06897101 30.72959279 52.7890625 28.59375 C53.15547852 27.50707031 53.52189453 26.42039063 53.89941406 25.30078125 C56.70053602 16.89990084 59.33339677 8.44424356 62 0 C70.58 0 79.16 0 88 0 C87.3123656 3.43817199 86.61672878 6.37821052 85.49707031 9.64404297 C85.19295227 10.53622528 84.88883423 11.42840759 84.57550049 12.34762573 C84.24636658 13.30283112 83.91723267 14.2580365 83.578125 15.2421875 C83.2362616 16.24275177 82.89439819 17.24331604 82.54217529 18.27420044 C81.44774942 21.47549101 80.34902776 24.67528671 79.25 27.875 C77.81668993 32.05954746 76.38493768 36.24462748 74.953125 40.4296875 C74.6052594 41.44568024 74.2573938 42.46167297 73.89898682 43.50845337 C71.22450446 51.32550208 68.59191207 59.15513151 66 67 C65.56608147 68.31331405 65.13216217 69.62662784 64.69824219 70.93994141 C64.47738953 71.6085318 64.25653687 72.27712219 64.0289917 72.9659729 C63.15552329 75.60902893 62.28060238 78.25160259 61.40527344 80.89404297 C60.96024458 82.23940964 60.51627069 83.58512564 60.07324219 84.93115234 C59.42139142 86.91075991 58.76577557 88.88908469 58.109375 90.8671875 C57.53654785 92.60137939 57.53654785 92.60137939 56.95214844 94.37060547 C56 97 56 97 55 98 C53.14630389 98.08737645 51.28932459 98.10698153 49.43359375 98.09765625 C48.30888672 98.09443359 47.18417969 98.09121094 46.02539062 98.08789062 C44.84138672 98.07951172 43.65738281 98.07113281 42.4375 98.0625 C41.24962891 98.05798828 40.06175781 98.05347656 38.83789062 98.04882812 C35.89187774 98.03699675 32.94596319 98.02051287 30 98 C29.89168854 97.45622208 29.78337708 96.91244415 29.67178345 96.35218811 C28.53725922 90.65732503 27.40134509 84.9627404 26.26464844 79.26831055 C25.84144519 77.14728694 25.41858821 75.02619421 24.99609375 72.9050293 C24.38634317 69.84405265 23.77531937 66.78333241 23.1640625 63.72265625 C22.97752106 62.78478775 22.79097961 61.84691925 22.5987854 60.88063049 C21.6019168 55.89586929 20.55128131 50.93398954 19.37362671 45.98851013 C18.80277153 42.95031378 18.86883242 40.08243814 19 37 C16.57295451 37.9312688 16.57295451 37.9312688 15.66796875 41.5078125 C15.16704289 43.04447077 14.67410439 44.58374677 14.1875 46.125 C13.64591823 47.79560044 13.10425052 49.46617302 12.5625 51.13671875 C12.29566406 51.96864746 12.02882813 52.80057617 11.75390625 53.65771484 C10.75567827 56.7590747 9.72317234 59.84846341 8.6875 62.9375 C8.295625 64.113125 7.90375 65.28875 7.5 66.5 C4 77 0.5 87.5 -3 98 C-11.25 98 -19.5 98 -28 98 C-26.14414094 91.19518343 -24.28825837 84.65078389 -21.70703125 78.09375 C-18.57573207 70.06867588 -15.98107124 61.89394695 -13.375 53.6875 C-12.65636381 51.43145758 -11.93657312 49.17580007 -11.21450806 46.92085266 C-10.77046103 45.53350228 -10.32837869 44.14552069 -9.88876343 42.75675964 C-8.5993905 38.72070964 -7.18524612 34.75012029 -5.6796875 30.78968811 C-4.30870083 27.17973715 -3.0602573 23.52892631 -1.8125 19.875 C-1.53986328 19.10285156 -1.26722656 18.33070313 -0.98632812 17.53515625 C1.17846329 11.16556949 1.33808199 6.69040996 0 0 Z " fill="#050303" transform="translate(428,164)"/>
<path d="M0 0 C13.2 0 26.4 0 40 0 C40.13277344 3.06023437 40.26554687 6.12046875 40.40234375 9.2734375 C40.53408191 12.26549227 40.66677631 15.25750322 40.79956055 18.24951172 C40.89072809 20.31522311 40.98091488 22.38097805 41.07006836 24.44677734 C41.19902481 27.43078647 41.3316082 30.41461673 41.46484375 33.3984375 C41.50343002 34.30927094 41.5420163 35.22010437 41.58177185 36.15853882 C41.8191741 41.38677215 42.22870132 46.56649034 42.77833557 51.77090454 C43.05206412 54.5235657 43.19045478 57.26682519 43.28125 60.03125 C43.33647827 61.60640381 43.33647827 61.60640381 43.39282227 63.21337891 C43.44587524 64.84025635 43.44587524 64.84025635 43.5 66.5 C43.87105234 77.01090082 44.37718244 87.50107542 45 98 C36.42 98 27.84 98 19 98 C19 91.07 19 84.14 19 77 C2.05695763 75.04839753 2.05695763 75.04839753 -13.484375 79.89599609 C-17.19266115 84.46069284 -19.48099957 89.61065808 -21.3527832 95.15820312 C-22 97 -22 97 -23 98 C-25.07262076 98.08767112 -27.14820294 98.10695873 -29.22265625 98.09765625 C-31.11274414 98.09282227 -31.11274414 98.09282227 -33.04101562 98.08789062 C-34.38151109 98.07953403 -35.72200588 98.07106907 -37.0625 98.0625 C-38.40689942 98.0574866 -39.7513006 98.05292342 -41.09570312 98.04882812 C-44.39717941 98.03699488 -47.69856803 98.02050971 -51 98 C-47.34746654 90.40175314 -43.42172033 83.18195585 -38.8125 76.125 C-35.60707106 71.18379356 -32.49852507 66.34049002 -30 61 C-29.34 61 -28.68 61 -28 61 C-27.87794189 60.41927734 -27.75588379 59.83855469 -27.63012695 59.24023438 C-26.98280229 56.93885851 -26.1233192 55.21510226 -24.91796875 53.15625 C-24.48629395 52.41415283 -24.05461914 51.67205566 -23.60986328 50.9074707 C-23.1404834 50.11300537 -22.67110352 49.31854004 -22.1875 48.5 C-21.70265137 47.67137451 -21.21780273 46.84274902 -20.71826172 45.98901367 C-6.44179986 21.65693709 -6.44179986 21.65693709 0.0246582 11.7644043 C1.40928467 9.25959943 1.78786519 6.82846412 2 4 C1.34 4 0.68 4 0 4 C0 2.68 0 1.36 0 0 Z " fill="#050303" transform="translate(349,164)"/>
<path d="M0 0 C-0.23751629 3.02833268 -0.43766584 4.47050661 -2 7 C-5.66481909 9.4237449 -9.86017907 10.61648934 -14 12 C-15.99763618 12.69462169 -17.9950099 13.3899984 -19.9921875 14.0859375 C-24.24988423 15.54853696 -28.50861517 17.00736466 -32.78125 18.42578125 C-34.1434668 18.88078003 -34.1434668 18.88078003 -35.53320312 19.3449707 C-38 20 -38 20 -42 20 C-42 20.99 -42 21.98 -42 23 C-33.75 23 -25.5 23 -17 23 C-17 21.35 -17 19.7 -17 18 C-12.05 18 -7.1 18 -2 18 C-2 22.95 -2 27.9 -2 33 C2.95 33 7.9 33 13 33 C13 28.05 13 23.1 13 18 C14.98 18 16.96 18 19 18 C20.46482631 21.8466907 19.48428033 24.29050428 18.12890625 28.078125 C17.71962891 29.23828125 17.31035156 30.3984375 16.88867188 31.59375 C16.45103516 32.8003125 16.01339844 34.006875 15.5625 35.25 C15.12873047 36.47203125 14.69496094 37.6940625 14.24804688 38.953125 C13.17487828 41.97214873 12.08866873 44.98653099 11 48 C6.71 48 2.42 48 -2 48 C-2 52.95 -2 57.9 -2 63 C-6.95 63 -11.9 63 -17 63 C-17 58.38 -17 53.76 -17 49 C-31.85 49 -46.7 49 -62 49 C-62 53.62 -62 58.24 -62 63 C-57.05 63 -52.1 63 -47 63 C-47 67.95 -47 72.9 -47 78 C-42.05 78 -37.1 78 -32 78 C-32 82.95 -32 87.9 -32 93 C-36.95 93 -41.9 93 -47 93 C-47 96.3 -47 99.6 -47 103 C-52.00328983 104.25082246 -54.25569143 102.73662337 -58.5625 100.4375 C-59.26761719 100.07269531 -59.97273438 99.70789063 -60.69921875 99.33203125 C-62.80746311 98.23574418 -64.90524279 97.12181289 -67 96 C-68.15371094 95.38253906 -69.30742187 94.76507813 -70.49609375 94.12890625 C-73.00579857 92.76798699 -75.50432774 91.38648459 -78 90 C-77.67 86.04 -77.34 82.08 -77 78 C-81.95 78 -86.9 78 -92 78 C-92 73.05 -92 68.1 -92 63 C-96.95 63 -101.9 63 -107 63 C-107 53.1 -107 43.2 -107 33 C-97.1 33 -87.2 33 -77 33 C-75.68 29.7 -74.36 26.4 -73 23 C-70.63867188 21.22900391 -70.63867188 21.22900391 -67.96875 20.4765625 C-66.94740967 20.16404541 -65.92606934 19.85152832 -64.8737793 19.52954102 C-63.76043213 19.23104248 -62.64708496 18.93254395 -61.5 18.625 C-59.07874359 17.89941231 -56.65820948 17.17141135 -54.23828125 16.44140625 C-53.59333206 16.25321823 -52.94838287 16.06503021 -52.28388977 15.87113953 C-44.48181863 13.59432464 -36.79649209 10.97357203 -29.09716797 8.37445068 C-25.23866925 7.07430863 -21.37505923 5.78957365 -17.51171875 4.50390625 C-16.19357779 4.06461168 -14.87546106 3.62524441 -13.55737305 3.18579102 C-11.79647339 2.59882446 -11.79647339 2.59882446 -10 2 C-8.9375708 1.61835693 -7.8751416 1.23671387 -6.78051758 0.84350586 C-4 0 -4 0 0 0 Z " fill="#ECECEC" transform="translate(257,297)"/>
<path d="M0 0 C1.24132187 0.00222061 2.48264374 0.00444122 3.76158142 0.00672913 C4.44447739 0.0065831 5.12737335 0.00643707 5.83096313 0.00628662 C8.09815092 0.00698575 10.36525752 0.01477811 12.63243103 0.02259827 C14.20041865 0.02446245 15.76840685 0.02588635 17.33639526 0.02688599 C21.47103981 0.03071117 25.60564944 0.04054146 29.74028015 0.05158997 C33.95627876 0.06180407 38.172283 0.0663836 42.38829041 0.07142639 C50.66630304 0.08216373 58.94428055 0.09976053 67.22227478 0.12025452 C63.75727478 11.01025452 63.75727478 11.01025452 60.22227478 22.12025452 C47.35227478 22.12025452 34.48227478 22.12025452 21.22227478 22.12025452 C20.56227478 25.09025452 19.90227478 28.06025452 19.22227478 31.12025452 C18.56227478 33.43025452 17.90227478 35.74025452 17.22227478 38.12025452 C28.11227478 38.12025452 39.00227478 38.12025452 50.22227478 38.12025452 C48.22227478 47.12025452 48.22227478 47.12025452 44.22227478 58.12025452 C32.67227478 58.12025452 21.12227478 58.12025452 9.22227478 58.12025452 C8.23227478 61.75025452 7.24227478 65.38025452 6.22227478 69.12025452 C5.56227478 71.10025452 4.90227478 73.08025452 4.22227478 75.12025452 C16.76227478 75.12025452 29.30227478 75.12025452 42.22227478 75.12025452 C41.08789978 78.56462952 39.95352478 82.00900452 38.78477478 85.55775452 C38.42842957 86.64499817 38.07208435 87.73224182 37.7049408 88.85243225 C37.28232971 90.12775818 37.28232971 90.12775818 36.85118103 91.42884827 C36.56315613 92.30339661 36.27513123 93.17794495 35.9783783 94.07899475 C35.22227478 96.12025452 35.22227478 96.12025452 34.22227478 97.12025452 C32.19733247 97.21434931 30.16907608 97.23768573 28.14195251 97.23377991 C26.1900425 97.23366661 26.1900425 97.23366661 24.19869995 97.23355103 C22.76775576 97.2284436 21.33681196 97.2232276 19.90586853 97.21791077 C18.44998218 97.21604655 16.99409521 97.21462266 15.53820801 97.21362305 C11.69948099 97.20979817 7.86079159 97.19996816 4.02207947 97.18891907 C0.10769662 97.17870429 -3.80669228 97.17412529 -7.72108459 97.16908264 C-15.40664865 97.15834585 -23.09218167 97.14126981 -30.77772522 97.12025452 C-30.31169398 95.38364261 -29.84359573 93.64758533 -29.37464905 91.91175842 C-29.11420303 90.94493134 -28.85375702 89.97810425 -28.5854187 88.98197937 C-27.39178273 84.75282832 -25.94283236 80.63200257 -24.46522522 76.49525452 C-20.41384909 64.99882995 -16.46385334 53.46905039 -12.52772522 41.93275452 C-11.91925881 40.15133718 -11.31077924 38.36992433 -10.70228577 36.58851624 C-9.5615434 33.24831613 -8.42495203 29.90674764 -7.29139709 26.56410217 C-6.36495101 23.83393324 -5.42316684 21.1114012 -4.46717834 18.39125061 C-3.91707092 16.80884583 -3.91707092 16.80884583 -3.35585022 15.19447327 C-3.04550842 14.31750793 -2.73516663 13.4405426 -2.41542053 12.53700256 C-1.47462579 8.97156338 -1.30576364 6.21166568 -2.77772522 2.80775452 C-3.10772522 2.25087952 -3.43772522 1.69400452 -3.77772522 1.12025452 C-2.77772522 0.12025452 -2.77772522 0.12025452 0 0 Z " fill="#030101" transform="translate(564.7777252197266,283.87974548339844)"/>
<path d="M0 0 C9.9 0 19.8 0 30 0 C30.13277344 3.90328125 30.26554687 7.8065625 30.40234375 11.828125 C30.53405064 15.64097521 30.66675844 19.45378936 30.79956055 23.26660156 C30.89077496 25.90068016 30.98096147 28.53479458 31.07006836 31.16894531 C31.19890366 34.97210591 31.33153018 38.77511905 31.46484375 42.578125 C31.50343002 43.74112122 31.5420163 44.90411743 31.58177185 46.10235596 C31.84302853 53.42544287 32.32247306 60.70361962 33 68 C33.46683449 67.0581208 33.46683449 67.0581208 33.94309998 66.09721375 C40.05454115 53.77223496 46.28764341 41.52496353 52.73974609 29.375 C54.95952653 25.19173303 57.16723993 21.00211933 59.375 16.8125 C59.98226929 15.66358276 59.98226929 15.66358276 60.60180664 14.49145508 C60.98844482 13.75822021 61.37508301 13.02498535 61.7734375 12.26953125 C62.10778809 11.63635986 62.44213867 11.00318848 62.78662109 10.35083008 C64.55850606 6.91793665 66.27232331 3.45535337 68 0 C76.91 0 85.82 0 95 0 C93.95582812 4.1766875 92.27099663 7.55878176 90.25 11.3125 C89.65662842 12.42467896 89.65662842 12.42467896 89.05126953 13.55932617 C85.2263038 20.67797179 81.22216607 27.69317501 77.22167969 34.71411133 C72.5247105 42.99187804 68.02564532 51.36948936 63.55773926 59.77206421 C57.58642064 70.99417888 51.38757018 82.07628856 45.06884766 93.10595703 C44.34647538 94.38603107 43.65732964 95.68534073 43 97 C31.78 97 20.56 97 9 97 C7.87662066 85.76620661 7.87662066 85.76620661 7.71875 80.171875 C7.66267578 78.35236328 7.66267578 78.35236328 7.60546875 76.49609375 C7.57066406 75.25988281 7.53585937 74.02367187 7.5 72.75 C7.2593694 64.3101045 6.87477947 55.914887 6.23632812 47.49560547 C5.75388834 40.35968311 5.60239435 33.20872808 5.39453125 26.06054688 C5.79690657 14.63075699 5.79690657 14.63075699 1.9375 4.625 C1.298125 4.08875 0.65875 3.5525 0 3 C0 2.01 0 1.02 0 0 Z " fill="#040202" transform="translate(458,284)"/>
<path d="M0 0 C10.89 0 21.78 0 33 0 C31.10025586 6.96572853 29.17556833 13.79977756 26.875 20.625 C26.57859619 21.50961914 26.28219238 22.39423828 25.97680664 23.30566406 C22.88716975 32.45461197 19.60717853 41.53410388 16.30859375 50.609375 C13.49738933 58.39132159 10.75380368 66.19755625 8 74 C20.54 74 33.08 74 46 74 C44 83 44 83 39 97 C16.89 97 -5.22 97 -28 97 C-21.22419287 76.59191425 -14.398527 56.20717429 -7.38772583 35.87886047 C-6.70356317 33.89079477 -6.02364762 31.90131544 -5.34423828 29.91162109 C-4.42959942 27.23551148 -3.49232742 24.56858804 -2.54248047 21.90478516 C-2.0788859 20.57852589 -1.61549915 19.25219395 -1.15234375 17.92578125 C-0.73847412 16.76087158 -0.32460449 15.59596191 0.10180664 14.39575195 C1.46477243 9.24285953 1.28678877 5.14715509 0 0 Z " fill="#030101" transform="translate(252,165)"/>
<path d="M0 0 C-0.23805379 3.03518586 -0.40684532 4.47908067 -2 7 C-10.21219061 11.75631526 -20.24084285 14.18846703 -29.2668457 17.0769043 C-31.59239146 17.82207811 -33.91442822 18.577536 -36.23632812 19.33398438 C-37.72115873 19.81310608 -39.20617788 20.291644 -40.69140625 20.76953125 C-41.38198624 20.99445755 -42.07256622 21.21938385 -42.78407288 21.4511261 C-45.64730067 22.36169666 -47.97422784 23 -51 23 C-51 23.66 -51 24.32 -51 25 C-37.14 25 -23.28 25 -9 25 C-9.85432499 29.27162493 -10.96690396 32.98235964 -12.4375 37.0625 C-13.08525391 38.87427734 -13.08525391 38.87427734 -13.74609375 40.72265625 C-15 44 -15 44 -17 48 C-38.45 48 -59.9 48 -82 48 C-73.31146455 23.17561299 -73.31146455 23.17561299 -70.86572266 21.79663086 C-69.52840088 21.38489624 -69.52840088 21.38489624 -68.1640625 20.96484375 C-67.13627686 20.63621338 -66.10849121 20.30758301 -65.04956055 19.96899414 C-63.35440308 19.45840454 -63.35440308 19.45840454 -61.625 18.9375 C-59.18584332 18.16518152 -56.74706167 17.39167789 -54.30859375 16.6171875 C-53.65746109 16.4135408 -53.00632843 16.2098941 -52.33546448 16.00007629 C-44.55244319 13.5657454 -36.8262733 10.96287866 -29.09515381 8.36941528 C-25.23567051 7.07592531 -21.37362128 5.79015124 -17.51171875 4.50390625 C-16.19359065 4.06457309 -14.87547467 3.62520358 -13.55737305 3.18579102 C-11.79647339 2.59882446 -11.79647339 2.59882446 -10 2 C-8.9375708 1.61835693 -7.8751416 1.23671387 -6.78051758 0.84350586 C-4 0 -4 0 0 0 Z " fill="#040202" transform="translate(257,297)"/>
<path d="M0 0 C21.45 0 42.9 0 65 0 C64.01 3.3 63.02 6.6 62 10 C61.43539062 11.94712891 61.43539062 11.94712891 60.859375 13.93359375 C60.49328125 15.08988281 60.1271875 16.24617188 59.75 17.4375 C59.39421875 18.61183594 59.0384375 19.78617188 58.671875 20.99609375 C55.61797207 26.48312963 47.9156889 27.79439403 42.14453125 29.70703125 C41.40888443 29.95314148 40.67323761 30.19925171 39.91529846 30.45281982 C37.54886541 31.24293409 35.18083146 32.02809612 32.8125 32.8125 C32.00653381 33.0804538 31.20056763 33.34840759 30.37017822 33.6244812 C19.00826332 37.40014206 7.62546752 41.06543895 -3.87988281 44.38330078 C-7.92822133 45.56088059 -11.96326175 46.78335604 -16 48 C-15.125 42.25 -15.125 42.25 -14 40 C-12.24780273 39.16552734 -12.24780273 39.16552734 -9.93359375 38.3359375 C-8.63252686 37.86510742 -8.63252686 37.86510742 -7.30517578 37.38476562 C-6.35884277 37.05154297 -5.41250977 36.71832031 -4.4375 36.375 C-2.98706299 35.85583008 -2.98706299 35.85583008 -1.50732422 35.32617188 C9.60383978 31.3775911 20.80057687 27.68922174 32 24 C12.695 23.505 12.695 23.505 -7 23 C-6 16 -6 16 0 0 Z " fill="#060404" transform="translate(625,200)"/>
<path d="M0 0 C2.9296875 1.34765625 2.9296875 1.34765625 5 3 C7.05473448 9.16420344 5.82897802 14.86668352 4 20.9375 C3.78069824 21.66751221 3.56139648 22.39752441 3.33544922 23.1496582 C-0.05471381 33.87441935 -4.30032667 45.5982156 -14 52 C-17.13058086 53.56529043 -20.44079008 53.26691314 -23.875 53.3125 C-24.59558594 53.34150391 -25.31617188 53.37050781 -26.05859375 53.40039062 C-29.62876715 53.44312751 -31.5822599 53.32364848 -34.4453125 51.10546875 C-37.28510723 47.25961608 -37.25626564 44.78684871 -37 40 C-36.31062473 37.30244458 -35.5779804 34.75028922 -34.6875 32.125 C-34.45603271 31.42173584 -34.22456543 30.71847168 -33.98608398 29.99389648 C-33.5298311 28.6094766 -33.07008468 27.22620198 -32.60644531 25.84423828 C-32.10920874 24.33211065 -31.65402504 22.80621511 -31.2109375 21.27734375 C-29.5015233 15.43856151 -26.74475736 10.78397232 -23 6 C-22.54367187 5.37351562 -22.08734375 4.74703125 -21.6171875 4.1015625 C-16.18488133 -1.95645433 -7.45866154 -1.00435004 0 0 Z " fill="#EFEFEF" transform="translate(419,306)"/>
<path d="M0 0 C15.1351937 -0.46556736 15.1351937 -0.46556736 21 3 C23 5 23 5 23.265625 8.6328125 C23.15159635 12.99145928 22.14479676 16.76818239 20.75 20.875 C20.52111084 21.57117432 20.29222168 22.26734863 20.05639648 22.98461914 C19.38684028 24.99561989 18.69769749 26.99861385 18 29 C17.66613281 29.97066406 17.33226562 30.94132812 16.98828125 31.94140625 C14.28765653 39.22283744 10.68693108 46.67316224 4 51 C-2.84075981 52.63583387 -10.01038673 52.08724899 -17 52 C-16.37656918 47.47583298 -15.22376693 43.45146199 -13.671875 39.16015625 C-13.44099182 38.51614365 -13.21010864 37.87213104 -12.972229 37.20860291 C-12.23625882 35.15814616 -11.49352719 33.11022715 -10.75 31.0625 C-9.78396897 28.38761126 -8.82093305 25.71165593 -7.859375 23.03515625 C-7.62287231 22.37794586 -7.38636963 21.72073547 -7.1427002 21.04360962 C-4.64432752 14.06793726 -2.31056307 7.03987821 0 0 Z " fill="#EEEEEE" transform="translate(551,187)"/>
<path d="M0 0 C3.27066566 -0.08706892 6.54103365 -0.14041241 9.8125 -0.1875 C11.2056543 -0.22520508 11.2056543 -0.22520508 12.62695312 -0.26367188 C13.51962891 -0.27333984 14.41230469 -0.28300781 15.33203125 -0.29296875 C16.56530151 -0.31653442 16.56530151 -0.31653442 17.82348633 -0.34057617 C20.52214483 0.0817041 21.37936733 0.83627446 23 3 C23.88261167 8.42175741 21.78536236 12.48649311 19 17 C16.38809945 19.61190055 14.43269626 19.92601024 10.80175781 20.11352539 C10.02670898 20.10828857 9.25166016 20.10305176 8.453125 20.09765625 C7.60878906 20.09443359 6.76445312 20.09121094 5.89453125 20.08789062 C5.02183594 20.07951172 4.14914062 20.07113281 3.25 20.0625 C2.36183594 20.05798828 1.47367187 20.05347656 0.55859375 20.04882812 C-1.62767329 20.037074 -3.81380179 20.02064249 -6 20 C-4.93289875 14.83612041 -3.75176931 9.87965919 -1.875 4.9375 C-1.34519531 3.52791016 -1.34519531 3.52791016 -0.8046875 2.08984375 C-0.53914063 1.40019531 -0.27359375 0.71054687 0 0 Z " fill="#EEEEEE" transform="translate(307,306)"/>
<path d="M0 0 C3.10408807 -0.05807043 6.2080364 -0.09361914 9.3125 -0.125 C10.19357422 -0.14175781 11.07464844 -0.15851563 11.98242188 -0.17578125 C12.82998047 -0.18222656 13.67753906 -0.18867188 14.55078125 -0.1953125 C15.72120972 -0.21102295 15.72120972 -0.21102295 16.9152832 -0.22705078 C19 0 19 0 22 2 C22.39158498 6.77733673 22.50676577 10.78407574 20 15 C17.27559944 17.97207334 15.56801287 19.74260921 11.54150391 20.40356445 C8.7206325 20.49138451 5.94436791 20.43665916 3.125 20.3125 C2.15046875 20.28994141 1.1759375 20.26738281 0.171875 20.24414062 C-2.22035515 20.18550753 -4.6093615 20.10351153 -7 20 C-6.40349099 17.7895859 -5.7974391 15.58174597 -5.1875 13.375 C-4.85105469 12.14523437 -4.51460937 10.91546875 -4.16796875 9.6484375 C-3.06564671 6.20506364 -1.70722293 3.17964156 0 0 Z " fill="#EFEEEE" transform="translate(667,306)"/>
<path d="M0 0 C0.66 0 1.32 0 2 0 C2 9.57 2 19.14 2 29 C-3.61 29 -9.22 29 -15 29 C-13.51987937 24.55963812 -12.22746922 21.33813255 -9.9609375 17.3828125 C-9.38085938 16.36445313 -8.80078125 15.34609375 -8.203125 14.296875 C-7.29820312 12.72679687 -7.29820312 12.72679687 -6.375 11.125 C-5.76398438 10.05507812 -5.15296875 8.98515625 -4.5234375 7.8828125 C-3.0203689 5.25244245 -1.51243714 2.62499074 0 0 Z " fill="#EDEDED" transform="translate(365,192)"/>
<path d="M0 0 C16.5 0 33 0 50 0 C50 0.33 50 0.66 50 1 C32.675 1.495 32.675 1.495 15 2 C15 2.99 15 3.98 15 5 C10.05 5 5.1 5 0 5 C0 3.35 0 1.7 0 0 Z " fill="#BDBCBB" transform="translate(435,460)"/>
<path d="M0 0 C0 0.99 0 1.98 0 3 C-6.0546875 3.1953125 -6.0546875 3.1953125 -8 3 C-8.66 2.34 -9.32 1.68 -10 1 C-6.42181037 -1.33958553 -4.07775191 -0.9267618 0 0 Z " fill="#CDCCCB" transform="translate(255,117)"/>
</svg>
