<?xml version="1.0" encoding="UTF-8"?>
<svg version="1.1" xmlns="http://www.w3.org/2000/svg" width="1920" height="1080">
<path d="M0 0 C22.77 0 45.54 0 69 0 C69.03738281 8.55808594 69.07476562 17.11617187 69.11328125 25.93359375 C69.14741647 32.05188061 69.18340847 38.17013451 69.22207737 44.28839207 C69.27189339 52.20941523 69.31736159 60.13038429 69.34643555 68.05151367 C69.369473 74.32418486 69.40293465 80.59670092 69.44870156 86.86924893 C69.47255687 90.18783968 69.48978047 93.50624598 69.49761391 96.82491875 C69.50726337 100.53772556 69.53533468 104.24997696 69.56762695 107.96264648 C69.56619186 109.05237762 69.56475677 110.14210876 69.5632782 111.26486206 C69.68492461 121.18109618 71.84065521 128.90263424 78.296875 136.56640625 C90.48638818 147.54049109 105.61860822 149.30829276 121.34204102 149.22705078 C122.88029472 149.2264858 124.41854897 149.22680493 125.95680237 149.22793579 C130.10907747 149.2285069 134.26123577 149.21679192 138.41348386 149.20278788 C142.76164731 149.19024005 147.10981379 149.18910683 151.45799255 149.18673706 C159.68130611 149.18053416 167.90456615 149.16413952 176.12785619 149.14403808 C185.49426369 149.12164195 194.86067382 149.11067633 204.22710145 149.10064721 C223.48476458 149.07977219 242.74237798 149.04461946 262 149 C262.26047119 148.33178223 262.52094238 147.66356445 262.78930664 146.97509766 C263.3131897 145.64551025 263.3131897 145.64551025 263.84765625 144.2890625 C264.19062744 143.41459473 264.53359863 142.54012695 264.88696289 141.63916016 C266.60506088 137.56531957 268.75419262 133.80113361 271 130 C271.33257812 129.39027344 271.66515625 128.78054688 272.0078125 128.15234375 C274.72340342 123.41514626 278.11503407 119.28597637 281.625 115.125 C282.08527588 114.57239502 282.54555176 114.01979004 283.01977539 113.45043945 C287.96394353 107.70585797 293.25882807 103.2192472 299 98 C285.14 97.67 271.28 97.34 257 97 C257 87.96923077 257 87.96923077 258.75 83.0625 C259.23726563 81.65677734 259.23726563 81.65677734 259.734375 80.22265625 C262.74720985 72.55108602 266.19534771 65.71566019 270.8125 58.875 C271.30814453 58.11574219 271.80378906 57.35648438 272.31445312 56.57421875 C275.30007999 52.10922723 278.47258605 48.27315606 282.38110352 44.58544922 C284.10119962 42.90089122 285.60687448 41.11706177 287.125 39.25 C306.71745253 16.74691705 336.52986855 3.38567674 366 1 C369.8967651 0.85494762 373.79037824 0.83948447 377.6895752 0.8326416 C378.83839314 0.82684822 379.98721108 0.82105483 381.17084169 0.81508589 C385.00516652 0.7971048 388.8394768 0.78617809 392.67382812 0.77539062 C394.72661542 0.76743447 396.77939852 0.75872157 398.83218229 0.74990624 C408.56517817 0.70819144 418.29819786 0.68081885 428.03125 0.65625 C428.79982118 0.6542751 429.56839236 0.6523002 430.36025357 0.65026546 C445.63562948 0.61110052 460.91101388 0.57744175 476.18642426 0.55518341 C479.53785718 0.55021468 482.88928998 0.54517024 486.24072266 0.54003906 C487.0736351 0.53876839 487.90654754 0.53749772 488.76469976 0.53618854 C502.2699761 0.51480863 515.77500988 0.46578208 529.28016406 0.40579492 C543.16043221 0.34465138 557.04057506 0.30999351 570.92097616 0.3007102 C578.7086538 0.29480426 586.49591905 0.27709772 594.28346252 0.22932434 C600.91170124 0.18869769 607.53946002 0.17185584 614.16781771 0.18597716 C617.54776224 0.1924374 620.92585921 0.1838249 624.30578423 0.15210342 C627.97483879 0.11948598 631.64134416 0.13013387 635.3104248 0.15148926 C636.37142663 0.13178149 637.43242845 0.11207372 638.52558184 0.09176874 C646.43154048 0.20785353 650.25295826 2.79820811 656 8 C657.52614788 9.10508817 659.06646568 10.19107697 660.625 11.25 C666.92118206 15.60738883 673.06778836 20.1642993 679.23388672 24.70263672 C681.6495874 26.47717825 684.07415252 28.23936256 686.5 30 C692.04176059 34.02515451 697.56499635 38.07527376 703.0859375 42.12890625 C705.71315609 44.05750857 708.34357692 45.98162282 710.9765625 47.90234375 C711.6247998 48.37607422 712.27303711 48.84980469 712.94091797 49.33789062 C714.2170827 50.2696423 715.49472391 51.19937553 716.77392578 52.12695312 C721.04724421 55.24184871 725.12454127 58.5249415 729.0703125 62.05078125 C730.98805634 63.24602868 730.98805634 63.24602868 733.19921875 62.49609375 C737.12676297 60.39811685 740.90914633 58.1043766 744.6875 55.75 C746.31226819 54.74571862 747.93726611 53.74180881 749.5625 52.73828125 C750.3359375 52.25955566 751.109375 51.78083008 751.90625 51.28759766 C754.31526204 49.80612267 756.74769149 48.36759046 759.1875 46.9375 C764.08302933 44.02733265 768.78504415 40.83194752 773.47338867 37.60131836 C777.24700827 35.03635304 781.06466832 32.92064775 785.16992188 30.93359375 C787.59996305 29.69393561 789.74721523 28.18368514 791.9375 26.5625 C795.084921 24.29712807 798.20390529 22.26286895 801.625 20.4375 C805.42483768 18.40019726 808.77030991 16.0344998 812.17578125 13.3984375 C814.69760522 11.46521913 817.3483843 9.75006636 820 8 C820.68693876 7.43743972 821.37387753 6.87487944 822.08163261 6.29527187 C828.67159235 1.11135254 833.42199451 0.00508023 841.69189453 0.20532227 C842.81501541 0.20430008 843.93813629 0.20327789 845.09529114 0.20222473 C848.77545741 0.20706778 852.45308438 0.26135941 856.1328125 0.31640625 C858.69683477 0.32947397 861.26087461 0.33943259 863.82492065 0.34642029 C869.86351167 0.37033676 875.90102731 0.42539561 881.93918884 0.49586672 C888.81945247 0.57440415 895.69976149 0.61266986 902.58036256 0.64773476 C916.72073717 0.72068975 930.86031918 0.843628 945 1 C945.00146656 1.62376935 945.00293312 2.2475387 945.00444412 2.89021015 C945.041587 18.10751938 945.10070016 33.32457379 945.18390274 48.54169178 C945.22361679 55.90076346 945.25604784 63.25972938 945.27099609 70.61889648 C945.28405244 77.037377 945.31111774 83.45562407 945.35461307 89.87397307 C945.37713918 93.2686742 945.39291606 96.66308838 945.39188385 100.05787086 C945.39425974 103.85900153 945.4213925 107.65923061 945.45410156 111.46020508 C945.44655602 113.12609428 945.44655602 113.12609428 945.43885803 114.82563782 C945.57911877 125.4117445 948.38727526 135.31743375 956 143 C966.653979 151.35271954 978.90886755 151.14180678 991.86352539 151.20532227 C993.12305023 151.21522186 994.38257507 151.22512146 995.68026733 151.23532104 C999.10729135 151.26215221 1002.53432884 151.28327846 1005.96139836 151.30332303 C1009.55285748 151.32531843 1013.14427614 151.35264026 1016.73570251 151.37937927 C1023.52462149 151.42912416 1030.31356314 151.47412985 1037.10252613 151.51740164 C1044.83659264 151.56693046 1052.57061853 151.62179014 1060.30464566 151.67708123 C1076.20305948 151.7906215 1092.10151079 151.89752046 1108 152 C1107.99907821 151.22786195 1107.99815641 150.4557239 1107.99720669 149.66018772 C1107.97515279 130.899827 1107.9585891 112.13946885 1107.94818783 93.37909794 C1107.94302457 84.30684507 1107.93598131 75.23460084 1107.92456055 66.16235352 C1107.91461462 58.25791288 1107.90814679 50.35347849 1107.90591151 42.44903177 C1107.90460424 38.26105281 1107.90151741 34.07309173 1107.89426994 29.88511848 C1107.88751116 25.94784702 1107.88538275 22.01060092 1107.88689232 18.0733242 C1107.88661593 16.62405383 1107.88460996 15.17478265 1107.88079453 13.72551727 C1107.87585957 11.75529586 1107.87760191 9.78506102 1107.87974548 7.81483459 C1107.87882369 6.70960481 1107.8779019 5.60437502 1107.87695217 4.46565342 C1108 2 1108 2 1109 1 C1131.77 1 1154.54 1 1178 1 C1178.33 50.5 1178.66 100 1179 151 C1220.75008554 150.99687441 1220.75008554 150.99687441 1262.5 150.9375 C1268.13020744 150.92532376 1273.76041548 150.91352126 1279.390625 150.90234375 C1280.09626367 150.90092731 1280.80190233 150.89951087 1281.52892399 150.8980515 C1292.91559227 150.87573956 1304.30216987 150.87452031 1315.68885392 150.88111137 C1327.37782343 150.88740719 1339.06660254 150.87099072 1350.75551462 150.83356392 C1357.31976476 150.81352909 1363.88365147 150.80400794 1370.44792175 150.81957626 C1376.62700851 150.83390006 1382.80540061 150.82019918 1388.98439789 150.78504753 C1391.25150566 150.77708195 1393.51867606 150.77933597 1395.78575897 150.79260826 C1398.88415893 150.80921268 1401.98023491 150.78889197 1405.07849121 150.75949097 C1406.42093281 150.77987012 1406.42093281 150.77987012 1407.79049444 150.80066097 C1414.36349733 150.67963687 1418.33375339 148.61738097 1423 144 C1426.80998698 139.38188905 1427.36800687 135.48564266 1427.265625 129.6328125 C1426.84120973 125.4261082 1425.7241948 122.26033952 1423 119 C1415.85807811 113.64355859 1409.15750643 112.84598903 1400.41526794 112.89993286 C1399.55218854 112.90119513 1398.68910913 112.90245741 1397.7998758 112.90375793 C1394.90878786 112.90913415 1392.01777458 112.92165839 1389.12670898 112.93408203 C1387.05367138 112.93927542 1384.98063251 112.94398351 1382.90759277 112.94824219 C1378.44414053 112.95818167 1373.98070931 112.97103055 1369.51727104 112.98596573 C1362.46294329 113.00901623 1355.40861841 113.02232822 1348.35426331 113.03366089 C1328.29481398 113.06710782 1308.23540646 113.10880334 1288.17602539 113.17138672 C1277.09700792 113.20587047 1266.01802123 113.22970439 1254.93895584 113.24159515 C1247.92267626 113.24970894 1240.90659737 113.27099266 1233.89038265 113.30180001 C1229.53080064 113.31777304 1225.17127687 113.32121997 1220.8116684 113.32102966 C1218.78634657 113.32345744 1216.76102351 113.33106242 1214.73574257 113.34415817 C1211.97622045 113.36126118 1209.21730286 113.3599849 1206.45774841 113.35403442 C1205.65182029 113.36345507 1204.84589216 113.37287571 1204.01554197 113.38258183 C1200.75608979 113.35898456 1198.3995384 113.21611011 1195.50459385 111.65023613 C1192.55038158 108.41006083 1193.48954073 104.22520509 1193.61328125 100.08203125 C1194.16682832 92.86845735 1196.02347422 85.93557414 1198 79 C1198.28085449 77.99888184 1198.28085449 77.99888184 1198.56738281 76.97753906 C1201.19232695 67.8333036 1204.79716844 59.95001632 1210 52 C1210.556875 51.13761719 1211.11375 50.27523437 1211.6875 49.38671875 C1215.92317275 43.08223362 1220.80364116 37.52524231 1226 32 C1226.51691406 31.40703125 1227.03382812 30.8140625 1227.56640625 30.203125 C1242.51980013 13.80514738 1267.17836298 3.0730905 1289 1 C1291.8149575 0.87369864 1294.62348179 0.86870325 1297.44091797 0.87974548 C1298.25221318 0.87889106 1299.0635084 0.87803663 1299.89938831 0.87715632 C1302.59701106 0.87551929 1305.29457056 0.88099358 1307.9921875 0.88647461 C1309.93422952 0.88675689 1311.87627164 0.88659795 1313.8183136 0.8860321 C1319.07594604 0.88574573 1324.33355558 0.89161665 1329.59118271 0.89860606 C1335.0911421 0.90486619 1340.59110205 0.9054455 1346.09106445 0.90663147 C1356.49955587 0.90973694 1366.90803676 0.91793977 1377.31652355 0.92798096 C1389.16896099 0.93916644 1401.02139893 0.94465868 1412.87384033 0.94967639 C1437.24923407 0.96012303 1461.62461337 0.97845878 1486 1 C1486 13.54 1486 26.08 1486 39 C1477.86972168 39.00616333 1477.86972168 39.00616333 1469.57519531 39.01245117 C1451.65783256 39.02965601 1433.74061191 39.07391905 1415.82333755 39.13209057 C1404.96114115 39.16669716 1394.09907108 39.19209041 1383.23681641 39.19555664 C1373.76578248 39.19860255 1364.2949738 39.21917733 1354.82402682 39.26052457 C1349.81233402 39.28179928 1344.80096101 39.29448364 1339.78922272 39.28615379 C1335.06454486 39.27857862 1330.34051311 39.29457656 1325.61595345 39.32806015 C1323.88912675 39.33625181 1322.16223529 39.33609287 1320.43541527 39.32659721 C1308.5267128 39.26763578 1296.85689129 40.24617135 1287.7265625 48.94921875 C1285.3602203 51.75991933 1283.23727834 54.70535017 1281.1875 57.75 C1280.60899292 58.59002563 1280.60899292 58.59002563 1280.01879883 59.44702148 C1277.76935605 62.9715975 1276.64233815 66.11634013 1275.88012695 70.23925781 C1275.71180862 71.13283997 1275.5434903 72.02642212 1275.37007141 72.94708252 C1275.24794785 73.62454529 1275.12582428 74.30200806 1275 75 C1275.92268582 75.00238835 1276.84537165 75.00477671 1277.79601765 75.00723743 C1300.273578 75.06609896 1322.75103174 75.14202288 1345.22847462 75.23571491 C1356.09851421 75.28063141 1366.96852135 75.32005566 1377.83862305 75.34643555 C1387.31583088 75.36944918 1396.79293564 75.40288482 1406.27006167 75.44870156 C1411.28555898 75.47258835 1416.30095449 75.4913469 1421.31650734 75.49761391 C1426.04350861 75.50368532 1430.77024955 75.52375922 1435.49715424 75.55427551 C1437.22601447 75.56302286 1438.95490876 75.56678521 1440.68379021 75.56500816 C1460.22329632 75.55127334 1476.5349714 80.59574012 1490.8125 94.5 C1500.55914621 104.6858365 1505.64890905 117.57162674 1506.375 131.625 C1505.99343373 147.75253419 1499.44388337 161.87400228 1488 173 C1473.41154016 186.15476637 1455.20079358 188.61047018 1436.27978516 188.54589844 C1434.54191943 188.55466793 1432.8040617 188.5651572 1431.06621552 188.5771904 C1426.31413355 188.60506719 1421.56231196 188.60840382 1416.81016016 188.6074543 C1411.61833071 188.61075507 1406.42660523 188.63699105 1401.23483276 188.66003418 C1390.96743452 188.70184266 1380.70010082 188.7219161 1370.43262947 188.73446083 C1362.01275746 188.74517778 1353.59293881 188.76404046 1345.1730957 188.78845215 C1343.36267166 188.79368161 1343.36267166 188.79368161 1341.5156734 188.79901671 C1339.05431332 188.80614353 1336.59295326 188.81327825 1334.13159323 188.82042074 C1310.27784003 188.88840405 1286.42409193 188.92882395 1262.57026815 188.95835638 C1241.39790899 188.98458522 1220.22559851 189.02205825 1199.05327249 189.06773996 C1168.38564764 189.13389049 1137.71803664 189.18626518 1107.05035591 189.21818924 C1106.26113012 189.21901331 1105.47190432 189.21983738 1104.6587626 189.22068642 C1103.87028152 189.22150901 1103.08180044 189.22233159 1102.26942599 189.2231791 C1101.4817257 189.22400114 1100.69402542 189.22482318 1099.88245542 189.22567013 C1098.29413112 189.22732178 1096.7058068 189.22896091 1095.11748247 189.23058745 C1084.041539 189.24203442 1072.96561708 189.25908671 1061.88968782 189.28008282 C1047.51210259 189.30731685 1033.13456364 189.3243208 1018.75695074 189.3241396 C1011.09517257 189.32432432 1003.43350874 189.33263774 995.77175676 189.35288845 C989.99393938 189.36718323 984.21621145 189.36532757 978.43838573 189.35756922 C976.10993112 189.35683762 973.78146787 189.36108446 971.45303464 189.37108755 C942.50368604 189.48815274 909.87726686 188.0719264 887.87890625 166.96484375 C877.36165577 155.3739987 874.87778724 138.9354339 874.79467773 123.85400391 C874.78477814 122.7412207 874.77487854 121.6284375 874.76467896 120.48193359 C874.7331583 116.81349801 874.7083438 113.14504949 874.68359375 109.4765625 C874.66301608 106.92922636 874.6420194 104.38189358 874.62062073 101.83456421 C874.57111586 95.8211543 874.5258289 89.80772701 874.48259836 83.79426992 C874.43312558 76.94537917 874.37824486 70.09653506 874.32291877 63.24768949 C874.20927859 49.1651699 874.10240081 35.08260548 874 21 C872.36321289 21.92341187 872.36321289 21.92341187 870.69335938 22.86547852 C869.24350761 23.68248641 867.79363681 24.49946054 866.34375 25.31640625 C865.62670898 25.72105103 864.90966797 26.1256958 864.17089844 26.54260254 C860.30392206 28.72054204 856.42375117 30.86281306 852.5 32.9375 C842.46973599 38.3837972 832.83414912 44.5916792 823.55078125 51.22265625 C818.14912365 54.98644524 812.55557039 58.46902624 807 62 C806.02546875 62.62132812 805.0509375 63.24265625 804.046875 63.8828125 C796.63441265 68.60560994 796.63441265 68.60560994 793.3671875 70.63671875 C787.33005951 74.41212386 781.51401164 78.42032291 775.77026367 82.62426758 C772.94227418 84.68072935 770.20183848 86.57608657 767 88 C771.27186508 92.39391837 775.80652947 96.11196068 780.69921875 99.77734375 C781.40844482 100.30884033 782.1176709 100.84033691 782.84838867 101.38793945 C783.55842041 101.91991943 784.26845215 102.45189941 785 103 C786.23964092 103.92961071 787.4792263 104.85929549 788.71875 105.7890625 C789.33258545 106.24941895 789.9464209 106.70977539 790.57885742 107.18408203 C791.90982671 108.18235129 793.24071302 109.18073119 794.5715332 110.17919922 C798.09143693 112.81983124 801.61255829 115.45880101 805.13671875 118.09375 C811.28567662 122.69365484 817.42303967 127.30523915 823.5 132 C833.76028054 139.91798325 844.13523247 147.68062826 854.6328125 155.28125 C859.63128512 158.91050405 864.54373464 162.64448385 869.42895508 166.42456055 C874.96592852 170.70535021 880.54754276 174.91809422 886.1875 179.0625 C886.83533447 179.53969482 887.48316895 180.01688965 888.15063477 180.50854492 C891.45157981 182.95112536 891.45157981 182.95112536 895 185 C895 185.99 895 186.98 895 188 C882.33419053 188.2326005 869.66889631 188.40983601 857.00137901 188.51812172 C851.1179857 188.57011782 845.23606281 188.64054076 839.35351562 188.75439453 C833.66696544 188.86375504 827.98182139 188.92298807 822.29430008 188.94877243 C820.1341808 188.96712535 817.97413092 189.00296441 815.81461716 189.05730057 C801.2965547 189.40777269 792.81479857 187.87937353 782 178 C780.45169093 176.86805069 778.889395 175.75433933 777.30078125 174.6796875 C776.63506104 174.21135498 775.96934082 173.74302246 775.28344727 173.26049805 C774.63303467 172.80328369 773.98262207 172.34606934 773.3125 171.875 C767.66273422 167.89626478 762.04998191 163.87291286 756.47265625 159.79296875 C753.18899673 157.41192654 749.85994299 155.09869449 746.53125 152.78125 C742.89425512 150.22188323 739.31007325 147.59162653 735.71875 144.96875 C732.3605374 142.53694088 728.96202649 140.16696405 725.5546875 137.8046875 C721.79404029 135.14808351 718.11962708 132.37604494 714.4453125 129.6015625 C712.14109915 128.09241318 710.72844398 127.21540347 708 127 C705.98367263 127.6776493 705.98367263 127.6776493 704 128.9375 C703.21625 129.40027344 702.4325 129.86304688 701.625 130.33984375 C697.6676493 132.84263251 693.7930829 135.46391611 689.9140625 138.0859375 C686.74475285 140.16765564 683.50976882 142.01226515 680.17578125 143.8125 C672.33223066 148.09336065 664.78430629 152.94833915 657.16723633 157.61743164 C653.23083505 160.03019547 649.28850689 162.43145613 645.328125 164.8046875 C636.97298714 169.82769571 628.87330858 175.03483029 621.015625 180.80859375 C618.92016896 182.331328 616.83009624 183.79645951 614.671875 185.22265625 C612.18193923 186.7523577 612.18193923 186.7523577 611 188 C608.23981122 188.10173255 605.50451286 188.13729293 602.74372959 188.13142776 C601.42302621 188.13450672 601.42302621 188.13450672 600.07564196 188.13764787 C597.08634879 188.14336152 594.09710106 188.14185527 591.10780334 188.14044189 C588.95837282 188.14302308 586.80894278 188.14603555 584.65951341 188.1494453 C578.72209675 188.15754841 572.78469215 188.15930671 566.84727061 188.16004276 C560.45492451 188.16188775 554.06258476 188.16943256 547.67024231 188.17617798 C532.94301073 188.19049889 518.21578161 188.19629258 503.48854428 188.20086992 C496.2092706 188.20320453 488.92999771 188.20680717 481.65072464 188.2105653 C456.72953047 188.2234071 431.80833673 188.23412267 406.88713932 188.2375679 C405.32151805 188.23778953 403.75589678 188.23801132 402.19027552 188.23823325 C400.62085493 188.23845389 399.05143435 188.23867438 397.48201376 188.2388947 C394.33346816 188.23933725 391.18492256 188.23978437 388.03637695 188.24023438 C386.86538542 188.24039846 386.86538542 188.24039846 385.67073749 188.24056586 C360.38827519 188.24419215 335.10584163 188.26009278 309.82339033 188.28342474 C283.090989 188.30804958 256.35860408 188.32174211 229.62619108 188.32293582 C226.68820186 188.32310727 223.75021265 188.3233227 220.81222343 188.32357025 C220.0888127 188.32362602 219.36540196 188.32368179 218.62006968 188.32373925 C206.99982238 188.32488783 195.37960464 188.33589409 183.75936731 188.35045731 C172.06307887 188.36486147 160.36683684 188.367786 148.670541 188.36001733 C142.33930898 188.35611826 136.00817593 188.35700396 129.67695618 188.37107468 C123.87121982 188.38385894 118.06565633 188.38257636 112.25992005 188.37048396 C110.16879396 188.36853471 108.07765542 188.37156936 105.98654676 188.38032833 C93.31576872 188.43000552 81.42911654 187.46580441 69 185 C67.72735812 184.77698251 66.45471624 184.55396502 65.14350945 184.32418942 C55.74691641 182.67346011 47.52318524 179.13596744 39 175 C38.13375 174.5875 37.2675 174.175 36.375 173.75 C18.76251293 164.6921495 7.86470913 150.26182278 1.796875 131.859375 C-0.14379297 124.8958017 -0.13639458 118.20654696 -0.11352539 111.02783203 C-0.11367142 109.82726669 -0.11381744 108.62670135 -0.1139679 107.38975525 C-0.11339211 104.11127228 -0.10838937 100.83283242 -0.10139394 97.55435801 C-0.09512723 94.1230631 -0.09455398 90.69176728 -0.09336853 87.26046753 C-0.09026498 80.76891242 -0.08206478 74.27737423 -0.07201904 67.78582656 C-0.05972895 59.66711679 -0.05426764 51.54840426 -0.04882812 43.4296875 C-0.03909879 28.95311184 -0.01906485 14.47657306 0 0 Z M561 21 C561 27.27 561 33.54 561 40 C558.74431686 39.99111755 556.48863373 39.98223511 554.16459656 39.9730835 C532.90322282 39.89128118 511.64186986 39.83178731 490.38037395 39.79275131 C479.44972701 39.77214821 468.51919574 39.74407064 457.58862305 39.69824219 C448.05873832 39.65830551 438.52893738 39.63255083 428.99897128 39.62364602 C423.95543816 39.61844285 418.91214471 39.60626046 413.86868858 39.57707977 C409.11545275 39.54980271 404.36255388 39.54157974 399.60924721 39.54756927 C397.87067454 39.54647452 396.13208987 39.53859416 394.39358521 39.5231781 C380.72852015 39.40801217 370.37849423 40.82261106 360.24487305 50.57324219 C353.56956158 57.171351 349.35335183 62.52653717 348 72 C413.01 72 478.02 72 545 72 C545 85.2 545 98.4 545 112 C540.1752002 111.97905273 535.35040039 111.95810547 530.37939453 111.93652344 C514.43387937 111.87022863 498.48835876 111.82585063 482.54274178 111.79275131 C472.87542813 111.77214974 463.2082453 111.7440752 453.54101562 111.69824219 C445.11240641 111.6583007 436.68389196 111.63254971 428.25519073 111.62364602 C423.79462248 111.61844363 419.33432529 111.60626652 414.87384415 111.57707977 C410.66969888 111.54979495 406.46593462 111.54158121 402.26170921 111.54756927 C400.72428373 111.54647485 399.18684462 111.53859895 397.64949608 111.5231781 C383.45328157 111.38784347 372.57695383 114.85994944 361.9375 124.4375 C355.17432606 131.46799307 351.21385137 140.41392422 350 150 C381.24515692 150.05502299 412.49000775 150.06906297 443.73517148 150.02634037 C447.4286719 150.02132608 451.12217269 150.01665915 454.81567383 150.01220703 C455.91858155 150.01086883 455.91858155 150.01086883 457.04377023 150.0095036 C468.93023633 149.99590862 480.81650899 150.01041783 492.70294943 150.03541696 C504.91063684 150.06046223 517.11804073 150.0550651 529.32570964 150.02174091 C536.85130078 150.00214722 544.37611811 150.00595411 551.90165982 150.04023629 C557.68418829 150.0640268 563.46599533 150.0453455 569.2484436 150.01126289 C571.61182738 150.00387275 573.97530018 150.01000365 576.33860207 150.03101921 C589.8551511 150.14256774 599.31780445 149.81630176 610 141 C611.40083499 140.05310108 612.80990162 139.1179823 614.234375 138.20703125 C615.40736293 137.41049061 616.57927263 136.61235943 617.75 135.8125 C622.39306232 132.6759063 627.04957315 129.75897567 631.99609375 127.1171875 C634.05941994 125.96687309 635.98616362 124.70596932 637.9375 123.375 C642.46524999 120.29295264 647.12918589 117.46165915 651.8125 114.625 C659.00566094 110.2632767 666.0561947 105.75174127 673 101 C670.39025664 98.25445551 667.82201805 96.0872781 664.625 94.0625 C661.86158907 92.26854799 659.24799233 90.46103226 656.75 88.3125 C654.23869771 86.20072308 651.80447434 84.67937549 649 83 C647.2778803 81.79022432 645.57013007 80.55981212 643.875 79.3125 C642.91464844 78.60867188 641.95429687 77.90484375 640.96484375 77.1796875 C639.98644531 76.46039062 639.00804687 75.74109375 638 75 C632.84259781 71.22699088 627.6845208 67.46025761 622.4375 63.8125 C616.87255582 59.93738784 611.38529504 55.95667709 605.89208984 51.98095703 C601.12717701 48.53330341 596.35235995 45.10040091 591.5625 41.6875 C587.4662606 38.76759863 583.38055187 35.83410553 579.3125 32.875 C578.00925781 31.92753906 578.00925781 31.92753906 576.6796875 30.9609375 C574.76216155 29.55773338 572.8514507 28.14519732 570.9453125 26.7265625 C569.45644531 25.62441406 569.45644531 25.62441406 567.9375 24.5 C567.03902344 23.8296875 566.14054688 23.159375 565.21484375 22.46875 C563.16512935 20.81577888 563.16512935 20.81577888 561 21 Z " fill="#231F20" transform="translate(207,689)"/>
<path d="M0 0 C1.27117676 0.1551709 2.54235352 0.3103418 3.85205078 0.47021484 C51.25370982 6.28938985 51.25370982 6.28938985 58.69921875 14.984375 C60.49838309 17.77226929 60.87203063 19.67279634 61 23 C59.44299019 29.33183991 56.59025673 32.8892661 52.171875 37.58984375 C49.9319105 40.07555976 48.00122322 42.64915515 46.0625 45.375 C42.59767254 50.24209555 38.89743155 54.85070972 35.0859375 59.44921875 C33.32954048 61.5970226 31.64591724 63.76755424 30 66 C27.59977259 69.2536416 25.07150204 72.37991086 22.5 75.5 C19.4563551 79.19693973 16.50227913 82.92729879 13.65625 86.77734375 C7.02055034 95.68232749 0.16471108 104.43750014 -6.703125 113.1640625 C-10.61922697 118.1562105 -14.38417581 123.24113972 -18.1015625 128.3828125 C-21.3565733 132.87017307 -24.70011351 137.28988317 -28.0546875 141.703125 C-37.41583616 154.07668483 -46.00431697 166.94176156 -54.58203125 179.86328125 C-56.60674079 182.91236745 -58.64076587 185.95406685 -60.69921875 188.98046875 C-67.0349614 198.31722059 -72.84753417 207.93153376 -78.59667969 217.63867188 C-79.86976842 219.78086294 -81.15367469 221.9158326 -82.4453125 224.046875 C-86.38341723 230.54462134 -90.24147902 237.08402391 -94 243.6875 C-94.38631592 244.35942383 -94.77263184 245.03134766 -95.1706543 245.72363281 C-98.34274377 251.34600176 -99.5411996 255.5056048 -99 262 C-97.68904741 265.87585984 -96.26785476 268.94828807 -93.08352375 271.58975697 C-88.51506404 273.67913231 -84.26763851 273.40330145 -79.30033875 273.36076355 C-77.66459317 273.36460846 -77.66459317 273.36460846 -75.99580222 273.36853105 C-72.33518669 273.3734795 -68.67498195 273.35695798 -65.0144043 273.34057617 C-62.39301056 273.33973013 -59.7716161 273.34020459 -57.15022278 273.34190369 C-51.5031832 273.34347632 -45.85624765 273.33406821 -40.20923424 273.31719017 C-32.04463039 273.29280333 -23.88007681 273.28499523 -15.71544049 273.2812262 C-2.46871241 273.27466121 10.77796023 273.25469879 24.0246582 273.22631836 C36.8921684 273.198779 49.75966354 273.17754482 62.62719727 273.16479492 C63.42042447 273.16400675 64.21365168 273.16321858 65.03091607 273.16240653 C69.01032576 273.1584914 72.98973555 273.15470028 76.96914542 273.15097082 C109.97947064 273.11987345 142.9897279 273.06703638 176 273 C177.27339482 270.48043257 178.54376642 267.95941351 179.8125 265.4375 C180.16892578 264.73302734 180.52535156 264.02855469 180.89257812 263.30273438 C194.48813804 236.23634445 195.10099276 204.70596164 189.43554688 175.31494141 C189.00403255 173.02143308 188.6457146 170.72533579 188.296875 168.41796875 C185.19792502 149.61660726 177.05154403 130.51136889 166 115 C165.23623047 113.91525391 165.23623047 113.91525391 164.45703125 112.80859375 C163.01510434 110.83319255 161.52306842 108.91340254 160 107 C159.38382813 106.21109375 158.76765625 105.4221875 158.1328125 104.609375 C151.35633958 96.01353776 144.45754708 87.97822348 136 81 C135.08476563 80.24332031 134.16953125 79.48664063 133.2265625 78.70703125 C130.49280822 76.46066211 127.75127189 74.2248701 125 72 C123.85917969 71.05447266 123.85917969 71.05447266 122.6953125 70.08984375 C111.88269465 61.7061473 100.02196889 54.4959936 88 48 C87.27264648 47.60619141 86.54529297 47.21238281 85.79589844 46.80664062 C83.47131453 45.55247365 81.1431595 44.30533767 78.8125 43.0625 C77.7150647 42.47722534 77.7150647 42.47722534 76.59545898 41.88012695 C73.75794958 40.3834517 71.04907493 39.01635831 68 38 C69.57120769 33.32208618 72.13119616 29.70075271 75 25.75 C75.45117188 25.11320312 75.90234375 24.47640625 76.3671875 23.8203125 C79.74034468 19.12982766 79.74034468 19.12982766 82 18 C83.78979492 18.44628906 83.78979492 18.44628906 85.98046875 19.265625 C86.80361572 19.57306641 87.6267627 19.88050781 88.47485352 20.19726562 C89.37002686 20.54466797 90.2652002 20.89207031 91.1875 21.25 C92.57763306 21.78657227 92.57763306 21.78657227 93.99584961 22.33398438 C108.35129522 27.99305404 122.9442527 34.16279531 135.5 43.24609375 C137.95037656 44.96518605 140.48758791 46.4108639 143.09423828 47.87670898 C156.49303139 55.77420413 167.98368419 66.13233014 179 77 C179.83402344 77.80695313 180.66804688 78.61390625 181.52734375 79.4453125 C209.22147911 106.55473483 227.17289035 141.2259798 235 179 C235.17644043 179.81210937 235.35288086 180.62421875 235.53466797 181.4609375 C240.28898498 203.85193296 238.89619255 226.77501409 234 249 C233.80164551 249.91555664 233.60329102 250.83111328 233.39892578 251.77441406 C228.30631263 274.45416621 217.55015139 308.48016356 197 322 C193.33405187 323.72434039 190.4609055 324.25084189 186.42186451 324.25447559 C184.74632755 324.26322388 184.74632755 324.26322388 183.03694135 324.27214891 C181.81478931 324.26836958 180.59263727 324.26459026 179.33345032 324.26069641 C178.03105807 324.26452196 176.72866582 324.26834751 175.38680714 324.27228898 C171.77291949 324.28258489 168.15913087 324.28038303 164.54523504 324.27610838 C160.64649912 324.27364376 156.74778721 324.28265251 152.84906006 324.29014587 C145.2082243 324.30290637 137.56742366 324.30468454 129.92657904 324.30234561 C123.70974304 324.30056229 117.49291771 324.30231243 111.27608299 324.30657005 C109.94855825 324.30746284 109.94855825 324.30746284 108.59421482 324.30837366 C106.79612865 324.30958544 104.99804249 324.31079958 103.19995632 324.31201603 C86.32643116 324.32289866 69.45292596 324.32072681 52.57939967 324.31463119 C37.17242006 324.30947239 21.76550388 324.32068872 6.35853682 324.33972941 C-9.47770816 324.35914959 -25.31392321 324.36735579 -41.15018016 324.36360615 C-50.03407266 324.36169903 -58.91791131 324.36413298 -67.80179405 324.37832069 C-75.37290595 324.39028951 -82.94393096 324.3915789 -90.51504418 324.37953053 C-94.37144775 324.37367756 -98.22769283 324.37244143 -102.08408546 324.38453293 C-122.24179396 324.44331627 -141.29549498 324.45346461 -160 316 C-160.99257813 315.59265625 -161.98515625 315.1853125 -163.0078125 314.765625 C-176.42618398 308.80968988 -186.57951303 298.67630558 -192 285 C-198.58439853 263.50584481 -191.81316382 242.28041671 -182 223 C-176.95912307 213.59863445 -171.33399302 204.58479692 -165 196 C-163.64497854 194.14645792 -162.29084171 192.29226888 -160.9375 190.4375 C-160.26332031 189.51453125 -159.58914063 188.5915625 -158.89453125 187.640625 C-157.2522539 185.35159512 -155.67231112 183.04115636 -154.125 180.6875 C-146.85314803 169.64139877 -138.87287164 159.04535668 -131.078125 148.3671875 C-127.40269172 143.32449304 -123.75056879 138.26610683 -120.125 133.1875 C-119.70927734 132.60516602 -119.29355469 132.02283203 -118.86523438 131.42285156 C-116.66705308 128.34168347 -114.4725675 125.25792816 -112.28125 122.171875 C-111.8363623 121.54643799 -111.39147461 120.92100098 -110.93310547 120.27661133 C-110.08713329 119.08722939 -109.24232641 117.89701737 -108.39892578 116.70581055 C-106.64458366 114.24089045 -104.86099521 111.82770862 -102.9609375 109.47265625 C-100.80001579 106.74782868 -98.9191278 103.89926715 -97 101 C-95.65996763 99.17702527 -94.30520648 97.3648048 -92.9375 95.5625 C-89.42035579 90.90185077 -85.94536403 86.21391723 -82.5 81.5 C-73.61394385 69.35705658 -64.50831463 57.38806666 -55.28515625 45.5 C-54.83970459 44.92435303 -54.39425293 44.34870605 -53.93530273 43.75561523 C-52.70055768 42.16013229 -51.46363072 40.5663386 -50.2265625 38.97265625 C-44.71674341 31.79287578 -44.71674341 31.79287578 -44 23 C-67.34999545 16.31671536 -102.94756928 24.50234119 -126 30 C-127.06718262 30.24202148 -128.13436523 30.48404297 -129.23388672 30.73339844 C-152.85001166 36.12324396 -175.96368993 43.8561856 -197 56 C-198.8265688 56.90954654 -200.65938235 57.80673037 -202.5 58.6875 C-205.98143163 60.40232087 -209.07576434 62.30699702 -212.13671875 64.69140625 C-214 66 -214 66 -217.328125 67.87109375 C-256.5602697 90.01568945 -284.55956823 132.0611161 -296.6875 174.4375 C-304.95509736 204.39113646 -302.57792701 232.41372153 -294 262 C-293.78093994 262.79220947 -293.56187988 263.58441895 -293.33618164 264.40063477 C-291.53239946 270.74095715 -289.16836061 276.69175803 -286.4375 282.6875 C-286.00276367 283.64285645 -285.56802734 284.59821289 -285.12011719 285.58251953 C-281.18722138 293.9954106 -276.4837127 301.52653737 -271 309 C-270.13375 310.19302734 -270.13375 310.19302734 -269.25 311.41015625 C-268.30066453 312.69324247 -267.33976298 313.96791914 -266.36328125 315.23046875 C-265.37947532 316.50744321 -264.42153817 317.80449318 -263.48046875 319.11328125 C-260.61568737 323.08045951 -257.88840106 325.98648918 -254 329 C-253.0422907 330.08668448 -252.10648382 331.1928755 -251.1875 332.3125 C-247.80698156 336.34180481 -244.06185645 339.66927771 -240 343 C-239.1440625 343.71671875 -238.288125 344.4334375 -237.40625 345.171875 C-196.46196994 378.14279526 -144.5044134 392.17249251 -93 397 C-92.10112061 397.0928125 -91.20224121 397.185625 -90.27612305 397.28125 C-79.064203 398.31163898 -67.81208805 398.24372814 -56.5625 398.25 C-55.47418884 398.25067474 -54.38587769 398.25134949 -53.2645874 398.25204468 C-27.39704605 398.22663079 -2.61192158 395.82844282 22.77319336 390.65112305 C25.04157659 390.19339602 27.31364721 389.7537526 29.58813477 389.32739258 C38.58175383 387.61730119 47.32313748 385.4087029 56.0625 382.6875 C56.73766663 382.47879272 57.41283325 382.27008545 58.10845947 382.05505371 C68.88344114 378.68698747 79.16820371 374.5657411 89.375 369.75 C89.99448517 369.45821869 90.61397034 369.16643738 91.25222778 368.86581421 C102.3205333 363.61068581 112.57005307 357.44764115 122.6875 350.5625 C123.48994141 350.02818359 124.29238281 349.49386719 125.11914062 348.94335938 C129.75412351 345.79157101 133.76502435 342.49150454 137.60083008 338.39819336 C139.35271081 336.64753537 140.46685118 336.03289759 142.94888306 335.87974548 C144.14135147 335.8830764 144.14135147 335.8830764 145.35791016 335.88647461 C146.70908432 335.88658791 146.70908432 335.88658791 148.08755493 335.88670349 C149.06155243 335.89186478 150.03554993 335.89702606 151.0390625 335.90234375 C152.03505463 335.9037587 153.03104675 335.90517365 154.05722046 335.90663147 C157.24651053 335.91224064 160.43573106 335.9247947 163.625 335.9375 C165.78385315 335.94251382 167.94270741 335.94707693 170.1015625 335.95117188 C175.4010655 335.96221305 180.70052778 335.97896012 186 336 C185.22907529 339.67384194 184.2690616 340.95288226 181.3125 343.3125 C178.58542228 345.57941363 176.22007607 347.79810776 174 350.5625 C171.37901404 353.73304754 168.52151316 356.02893294 165.18359375 358.4140625 C162.81850773 360.13181728 160.57258282 361.95901231 158.3125 363.8125 C122.07733754 392.85595083 77.75253666 408.08478459 33 418 C32.11425293 418.20423584 31.22850586 418.40847168 30.31591797 418.61889648 C22.84224317 420.2533159 15.23065302 420.98540158 7.63378906 421.80493164 C5.26825312 422.06052775 2.90364748 422.32365686 0.5390625 422.58789062 C-3.97121512 423.08713832 -8.48435815 423.55210039 -13 424 C-14.0823291 424.10965088 -15.1646582 424.21930176 -16.27978516 424.33227539 C-29.1034268 425.43956181 -42.01414468 425.28694756 -54.875 425.3125 C-56.17947083 425.31545074 -57.48394165 425.31840149 -58.82794189 425.32144165 C-80.15280348 425.33237781 -101.06848498 424.27855843 -122.20605469 421.49072266 C-125.36746916 421.08181383 -128.52325336 420.72908131 -131.6953125 420.41796875 C-143.7184113 419.13453745 -155.40399687 416.12707604 -167.125 413.25 C-167.96699951 413.04566345 -168.80899902 412.8413269 -169.67651367 412.63079834 C-181.44341402 409.75281781 -192.72861169 406.12977001 -204.02487183 401.75784302 C-206.79414076 400.69529368 -209.5848426 399.6936564 -212.375 398.6875 C-226.57404096 393.16766822 -240.29730835 386.4134711 -253 378 C-253.77988281 377.50113281 -254.55976562 377.00226563 -255.36328125 376.48828125 C-291.04409975 353.35595664 -321.4003408 320.41743888 -336 280 C-336.39251953 278.93241455 -336.39251953 278.93241455 -336.79296875 277.84326172 C-352.46662282 235.07437707 -352.52572585 190.78026638 -337 148 C-336.75910645 147.31695801 -336.51821289 146.63391602 -336.27001953 145.93017578 C-333.36463274 137.7415003 -329.6484753 130.17942985 -325.5 122.5625 C-325.04915039 121.73355225 -324.59830078 120.90460449 -324.13378906 120.05053711 C-321.13932081 114.68914169 -317.75532126 109.84951199 -314 105 C-312.74690284 103.23135696 -311.49653282 101.46077567 -310.25 99.6875 C-306.50574042 94.50202638 -302.37573746 89.86700612 -298.00390625 85.21484375 C-295.97259078 83.16889675 -295.97259078 83.16889675 -295 81 C-294.34 81 -293.68 81 -293 81 C-292.79375 80.45859375 -292.5875 79.9171875 -292.375 79.359375 C-290.4627716 76.07816491 -287.795327 73.76363975 -285 71.25 C-284.41621582 70.71922852 -283.83243164 70.18845703 -283.23095703 69.64160156 C-278.31811337 65.21104143 -273.26563891 61.00664932 -268 57 C-267.23300781 56.40316406 -266.46601562 55.80632812 -265.67578125 55.19140625 C-220.94266329 21.41333758 -166.02315084 5.32608038 -110.95117188 -0.57568359 C-107.59356178 -0.93625739 -104.2429507 -1.33257494 -100.890625 -1.73828125 C-67.72549657 -5.37807472 -33.04161012 -4.24522234 0 0 Z " fill="#231F20" transform="translate(1018,205)"/>
</svg>
