<?xml version="1.0" encoding="UTF-8"?>
<svg version="1.1" xmlns="http://www.w3.org/2000/svg" width="512" height="512">
<path d="M0 0 C38.08184508 35.47204031 58.69739139 85.84341792 61.109375 137.33496094 C62.88284715 188.43312714 44.41789496 239.63872074 9.65234375 277.21484375 C8.77707031 278.13394531 7.90179688 279.05304688 7 280 C6.44070801 280.59184082 5.88141602 281.18368164 5.30517578 281.79345703 C-7.66687075 295.43840512 -21.59304851 306.69105993 -38 316 C-38.99362549 316.57548584 -38.99362549 316.57548584 -40.00732422 317.16259766 C-69.80701005 334.27723625 -103.14353677 342.47029712 -137.375 342.375 C-138.1534729 342.37412384 -138.9319458 342.37324768 -139.73400879 342.37234497 C-194.45140156 342.17092185 -244.00567794 319.53311678 -282.31005859 280.99243164 C-308.38443157 254.0606114 -325.16647855 219.40629095 -333 183 C-333.17789063 182.18515137 -333.35578125 181.37030273 -333.5390625 180.53076172 C-338.49099052 156.60135558 -338.09213738 128.85604263 -333 105 C-332.82839355 104.17725586 -332.65678711 103.35451172 -332.47998047 102.50683594 C-325.81358049 71.44462909 -312.21656576 40.87352059 -291 17 C-290.33097656 16.22269531 -289.66195312 15.44539063 -288.97265625 14.64453125 C-286.69694506 12.04674548 -284.36518038 9.51674932 -282 7 C-281.47164551 6.43764648 -280.94329102 5.87529297 -280.39892578 5.29589844 C-216.33343451 -62.31379441 -107.51731719 -74.4695316 0 0 Z M-190.21484375 0.19921875 C-196.63209138 6.65246777 -202.82378178 13.31696673 -209 20 C-209.54978516 20.59393555 -210.09957031 21.18787109 -210.66601562 21.79980469 C-213.1172585 24.44882891 -215.56402216 27.10191338 -218.0078125 29.7578125 C-221.32132294 33.35464247 -224.66028556 36.92751483 -228 40.5 C-232.34880174 45.15256524 -236.68513151 49.8159449 -241 54.5 C-245.90659139 59.8264067 -250.84394139 65.12343075 -255.7890625 70.4140625 C-259.54029582 74.42969993 -263.27681135 78.4583562 -267 82.5 C-271.27548649 87.14020643 -275.56885476 91.76323045 -279.875 96.375 C-280.45733398 96.99930908 -281.03966797 97.62361816 -281.63964844 98.2668457 C-284.63342614 101.47440583 -287.63463679 104.67452207 -290.6484375 107.86328125 C-314.92419012 133.46738967 -314.92419012 133.46738967 -323 167 C-321.70920261 184.28746508 -312.86966562 198.04793295 -300.5546875 209.8515625 C-253.8214967 249.15317556 -174.03774202 258.84718023 -115.2734375 254.05444336 C-66.95864509 249.62918224 -0.97677289 239.46797755 32 200 C41.38513667 187.41992319 46.02697875 173.6691036 44 158 C41.0187611 141.92740059 32.73895295 129.01470333 21.45751953 117.50195312 C18.97914632 114.94802482 16.59056902 112.31202988 14.1875 109.6875 C9.21855526 104.29906727 4.21671141 98.94155185 -0.78833008 93.58666992 C-5.03053885 89.04557428 -9.25057379 84.48467123 -13.4609375 79.9140625 C-17.88319228 75.11743694 -22.33610338 70.34979209 -26.79125977 65.58374023 C-30.52183591 61.59046914 -34.23627106 57.5829724 -37.9375 53.5625 C-42.43099894 48.68246351 -46.95854079 43.83541966 -51.5 39 C-56.04146196 34.16457742 -60.56875281 29.31731054 -65.0625 24.4375 C-71.17862945 17.7999446 -77.30870712 11.17634367 -83.49755859 4.60644531 C-84.74833887 3.26908194 -85.98015978 1.91401766 -87.20703125 0.5546875 C-100.04851996 -13.23301617 -118.61826686 -19.66062748 -137 -21 C-157.11748596 -21 -175.60744734 -13.55311055 -190.21484375 0.19921875 Z " fill="#231F20" transform="translate(395,113)"/>
<path d="M0 0 C0.58523438 0.4434375 1.17046875 0.886875 1.7734375 1.34375 C4.56866402 3.53260463 6.89152794 5.96218456 9.19140625 8.64453125 C12.91396135 12.93320265 16.77908996 17.068523 20.6875 21.1875 C25.50738603 26.28702486 30.31381465 31.39656273 35.0625 36.5625 C39.5128778 41.40231438 43.99845738 46.20774222 48.5 51 C53.52987909 56.35537177 58.5355963 61.73138897 63.51171875 67.13671875 C67.32337885 71.2745102 71.15824194 75.39015142 75 79.5 C79.83680067 84.67469696 84.65431211 89.86631745 89.45214844 95.07714844 C92.75700411 98.66308153 96.08095959 102.23049871 99.41552734 105.78881836 C101.21725367 107.71499185 103.01130345 109.64809279 104.8046875 111.58203125 C106.63535194 113.55339258 108.48134653 115.48213563 110.3828125 117.38671875 C119.46501865 126.73604861 126.25724849 140.64422412 126.3125 153.8125 C126.01826927 166.84038294 120.88681331 178.10101894 112 187.625 C72.55569255 224.29897148 0.11345547 237.83146726 -51.86621094 236.14794922 C-98.1596294 233.96239207 -155.63865303 222.3859305 -193 193 C-194.25683594 192.01580078 -194.25683594 192.01580078 -195.5390625 191.01171875 C-205.31853184 182.85125855 -210.84751644 173.14805515 -213.75 160.8125 C-215.08670048 145.77461961 -210.37925396 132.23383473 -200.74853516 120.63085938 C-196.07525163 115.18722226 -191.16216901 110.01927255 -186.01953125 105.015625 C-183.42705719 102.4281654 -181.06305052 99.67719715 -178.6796875 96.8984375 C-176.50720681 94.44302909 -174.18172931 92.16887597 -171.8425293 89.8737793 C-170.06850617 88.06966806 -168.41051906 86.21152353 -166.76171875 84.29296875 C-163.05284026 80.02751351 -159.20268209 75.91229268 -155.3125 71.8125 C-150.47257543 66.69148278 -145.64528055 61.56100543 -140.875 56.375 C-136.60310688 51.7313222 -132.30897268 47.10929858 -128 42.5 C-123.65119619 37.84743254 -119.31513666 33.18380994 -115 28.5 C-108.87586681 21.85875433 -102.74293486 15.22672418 -96.54541016 8.65380859 C-95.21445578 7.22949817 -93.90754195 5.78279144 -92.60546875 4.33203125 C-68.06960528 -22.11571769 -27.11275271 -21.54889792 0 0 Z M-94 33 C-105.06066975 46.92667823 -106.03907762 61.88985519 -105 79 C-104.75540253 80.75968942 -104.50682049 82.51883041 -104.25390625 84.27734375 C-103.74398888 89.02392993 -104.74634543 91.47049762 -107.625 95.375 C-108.66527344 96.84066406 -108.66527344 96.84066406 -109.7265625 98.3359375 C-113.29192413 102.51390422 -116.22827688 105.25647666 -121.75 106.0625 C-124.05649427 106.33989642 -124.05649427 106.33989642 -126 107 C-126.33 107.99 -126.66 108.98 -127 110 C-118.42 110 -109.84 110 -101 110 C-101.33 108.68 -101.66 107.36 -102 106 C-102.66 106 -103.32 106 -104 106 C-103.56802365 101.2482602 -102.67230705 99.07999946 -99 96 C-98.74476563 96.87785156 -98.48953125 97.75570312 -98.2265625 98.66015625 C-93.69467101 111.00017925 -82.56572593 120.38722124 -71 126 C-51.72630043 133.66731218 -30.33258761 135.18229835 -10.88134766 127.12207031 C-1.70905041 123.08073925 7.34250762 118.6526354 13 110 C12.34 108.68 11.68 107.36 11 106 C7.30103501 107.70721461 3.98926635 109.63440605 0.625 111.9375 C-14.93862732 122.35612656 -31.48461239 124.84094966 -49.8359375 121.6875 C-62.02988552 119.0379508 -73.89670946 113.62888462 -81 103 C-85.27113963 95.38494274 -90.72318403 85.50063437 -88.34765625 76.5390625 C-87.1356159 74.08047531 -86.19225865 72.65462228 -84 71 C-80.56582157 70.3466175 -77.44900588 70.51780889 -74 71 C-73.90203125 71.78503906 -73.8040625 72.57007813 -73.703125 73.37890625 C-72.28640826 83.33256268 -69.8741103 89.01080862 -62.0390625 95.5546875 C-59.49525611 97.35776865 -57.03472201 98.31718755 -54 99 C-54.1875 101.875 -54.1875 101.875 -55 105 C-57.5625 106.375 -57.5625 106.375 -60 107 C-60 107.99 -60 108.98 -60 110 C-53.89856638 110.09940302 -47.79761153 110.17172047 -41.69555664 110.21972656 C-39.62288189 110.23975397 -37.550263 110.26698411 -35.4777832 110.30175781 C-32.48635004 110.350668 -29.49566845 110.37305793 -26.50390625 110.390625 C-25.58791153 110.41127014 -24.67191681 110.43191528 -23.72816467 110.45318604 C-16.04284309 110.45582388 -10.08529533 108.54872223 -4.125 103.625 C0.34920807 98.09803709 1.57295569 93.78461841 1.34375 86.74609375 C0.47847769 79.83374793 -2.88999664 75.49339167 -8.25 71.25390625 C-10.42706483 69.69400042 -12.64873952 68.28250572 -15 67 C-13.906875 66.46375 -12.81375 65.9275 -11.6875 65.375 C-7.92061826 63.20179899 -6.40263609 61.20790826 -5 57 C-4.46711232 52.73689853 -4.66861687 50.62594591 -6.6875 46.8125 C-10.26055104 42.46689738 -13.66701615 39.78942015 -19 38 C-21.7658663 37.71378537 -21.7658663 37.71378537 -24.70825195 37.77294922 C-26.38942863 37.77317581 -26.38942863 37.77317581 -28.10456848 37.77340698 C-29.9032563 37.78889084 -29.9032563 37.78889084 -31.73828125 37.8046875 C-32.97418503 37.8075174 -34.21008881 37.81034729 -35.48344421 37.81326294 C-38.75664997 37.82254782 -42.02965644 37.84049367 -45.30279541 37.8626709 C-48.64780848 37.88319183 -51.99283026 37.89210732 -55.33789062 37.90234375 C-61.89200474 37.92438205 -68.44598608 37.95784339 -75 38 C-75 38.99 -75 39.98 -75 41 C-75.22485521 47.45236687 -78.92169833 51.70889 -82.5625 56.75 C-83.77609595 58.45030511 -84.98593844 60.15329764 -86.19140625 61.859375 C-86.72967041 62.60670898 -87.26793457 63.35404297 -87.82250977 64.12402344 C-89.17720763 65.91317746 -89.17720763 65.91317746 -89 68 C-89.66 68 -90.32 68 -91 68 C-90.505 67.01 -90.505 67.01 -90 66 C-89.80780944 64.24939469 -89.61944512 62.4982248 -89.45678711 60.74462891 C-88.17164966 47.57159068 -84.3663224 36.83815633 -74 28 C-59.88566649 18.54379639 -42.71029809 17.21939424 -26.375 20.25 C-16.66186309 22.40400135 -7.75531597 25.27493802 0.94140625 30.14453125 C3.13421711 31.31974372 3.13421711 31.31974372 6 30 C1.37243728 19.60491661 1.37243728 19.60491661 -7 13 C-7.53625 13.495 -8.0725 13.99 -8.625 14.5 C-13.08094052 17.31427822 -18.54741757 15.31491855 -23.44140625 14.25390625 C-49.85280216 8.68379349 -74.80398366 12.24035668 -94 33 Z M-166 111 C-165.7525 111.7734375 -165.7525 111.7734375 -165.5 112.5625 C-164.47181997 117.57487766 -164.27925579 120.84626117 -167.0546875 125.2890625 C-167.97820493 126.41485514 -168.91933076 127.52636912 -169.875 128.625 C-170.88246528 129.84035494 -171.88895226 131.05652139 -172.89453125 132.2734375 C-173.66724365 133.19334473 -173.66724365 133.19334473 -174.45556641 134.13183594 C-176.9126876 137.10399708 -179.23395071 140.17680096 -181.5625 143.25 C-185.71340159 148.71340159 -185.71340159 148.71340159 -188 151 C-190.68839385 151.26991906 -193.29141936 151.08737357 -196 151 C-194.57234841 154.46239525 -192.94897155 156.05549819 -189.88671875 158.171875 C-189.0565625 158.7505835 -188.22640625 159.32929199 -187.37109375 159.92553711 C-186.48550781 160.52760986 -185.59992188 161.12968262 -184.6875 161.75 C-183.78773438 162.36818604 -182.88796875 162.98637207 -181.9609375 163.62329102 C-179.31644756 165.4295552 -176.66121505 167.21849149 -174 169 C-173.29053223 169.47743652 -172.58106445 169.95487305 -171.85009766 170.44677734 C-170.07791653 171.62898089 -168.29439675 172.78938457 -166.5 173.9375 C-165.5203125 174.56527344 -164.540625 175.19304687 -163.53125 175.83984375 C-161.14383293 177.16549281 -161.14383293 177.16549281 -158.890625 176.9140625 C-156.52075648 175.76829962 -155.05583753 174.34752047 -153.25 172.4375 C-152.63640625 171.79683594 -152.0228125 171.15617187 -151.390625 170.49609375 C-150.70226562 169.75552734 -150.70226562 169.75552734 -150 169 C-150.66 168.34 -151.32 167.68 -152 167 C-152.495 167.33 -152.99 167.66 -153.5 168 C-158.28915779 169.91566312 -162.53392075 169.5356828 -167.25 167.8125 C-170.3242271 165.78630487 -172.14470779 164.1911026 -174 161 C-173.72644938 156.11612057 -172.33158411 153.67418637 -169.125 150.0625 C-166.29295606 146.79302252 -163.64386768 143.56053327 -161.203125 139.98828125 C-160.73245605 139.30693115 -160.26178711 138.62558105 -159.77685547 137.92358398 C-158.85836338 136.58135705 -157.95561881 135.22818576 -157.07080078 133.86352539 C-154.59055039 130.2859719 -153.70613462 129.16501251 -149.2890625 128.1328125 C-148.20367187 128.08898437 -147.11828125 128.04515625 -146 128 C-145.34 127.67 -144.68 127.34 -144 127 C-145.13391652 123.59825043 -145.83758813 123.11892058 -148.67578125 121.1171875 C-149.42150391 120.58996094 -150.16722656 120.06273437 -150.93554688 119.51953125 C-151.71994141 118.97683594 -152.50433594 118.43414062 -153.3125 117.875 C-154.08529297 117.32457031 -154.85808594 116.77414063 -155.65429688 116.20703125 C-160.45890148 112.80414019 -160.45890148 112.80414019 -166 111 Z M53.5 128.5 C49.95507658 133.1564672 48.52160798 137.02337354 48.6796875 143.0078125 C49.35911266 147.23350556 51.92530141 150.0260544 55 152.8125 C60.2495875 155.92944258 65.98223774 155.46499871 71.796875 154.125 C73.11589617 153.75464421 74.43358436 153.379513 75.75 153 C82.26945679 151.22887078 88.21347185 150.48238345 95 151 C93.85199256 159.01891766 93.85199256 159.01891766 90.9375 162.375 C80.91899108 167.91715387 72.04729573 167.4028312 61 166 C61.61875 167.11375 62.2375 168.2275 62.875 169.375 C63.22304688 170.00148438 63.57109375 170.62796875 63.9296875 171.2734375 C65.00897274 173.1612614 65.00897274 173.1612614 67 175 C77.82941431 176.00272355 88.43023861 172.6160334 97 166 C101.11265305 162.03995003 105.40816772 157.72303794 106.3359375 151.88671875 C106.43999637 146.02820465 105.52500892 142.73093302 102 138 C97.84318389 134.14009933 94.44565496 133.39578958 88.96875 133.59375 C84.73833576 134.17264879 80.72397383 135.36446544 76.6328125 136.56738281 C70.99512412 138.16376906 65.81235604 138.43502041 60 138 C59.5373948 134.0215953 59.63126596 132.47718522 62.125 129.25 C67.72608716 124.86654048 73.53076446 124.63698031 80.375 124.375 C81.20644531 124.33632812 82.03789062 124.29765625 82.89453125 124.2578125 C84.92935156 124.16425754 86.96464416 124.08107287 89 124 C87.47793991 121.37098712 86.15634036 119.15634036 84 117 C73.63190372 116.08989172 60.48383863 120.7401793 53.5 128.5 Z M-135 149 C-140.51588514 157.70111458 -143.00496681 164.66319855 -142 175 C-139.87772912 182.36402427 -134.61875947 187.83471751 -128.16015625 191.69921875 C-118.72631576 196.6124295 -110.42640841 199.64420377 -99.93359375 196.3515625 C-92.9475107 193.3711983 -87.83468956 187.87552401 -84.609375 181.0625 C-81.69508831 173.01742689 -80.32074386 165.12614405 -83.7734375 157.04296875 C-88.76558081 148.72802942 -96.7904289 143.25299097 -105.9375 140.39453125 C-116.53328207 138.36768657 -127.78420665 140.3888875 -135 149 Z M30.375 137.25 C29.21097656 137.62898437 29.21097656 137.62898437 28.0234375 138.015625 C25.66765584 138.95084087 25.66765584 138.95084087 24 142 C24.928125 142.0825 25.85625 142.165 26.8125 142.25 C30 144 30 144 30.890625 146.20703125 C31.36636457 148.22892444 31.80263701 150.26029185 32.2109375 152.296875 C33.27384248 157.28516174 34.81237149 162.0957805 36.37524414 166.94750977 C38.02777167 172.32725703 39.12895381 177.38558064 36.8125 182.75 C34.01321039 186.2249802 31.92310234 187.76250845 27.40625 188.3203125 C20.17146473 188.61203771 20.17146473 188.61203771 16.390625 186.63671875 C12.83679115 182.71704906 11.73414696 178.38649175 10.25 173.375 C9.94707031 172.42753906 9.64414062 171.48007812 9.33203125 170.50390625 C7.49717439 164.54266018 5.71163052 158.29606699 6 152 C6.66 151.34 7.32 150.68 8 150 C8 148.68 8 147.36 8 146 C2.3444819 146.60503854 -3.00213991 147.62185703 -8.5 149.0625 C-9.59054687 149.3419043 -9.59054687 149.3419043 -10.703125 149.62695312 C-12.46987724 150.08026455 -14.23510775 150.5395002 -16 151 C-15.67 151.99 -15.34 152.98 -15 154 C-13.35 154.33 -11.7 154.66 -10 155 C-9.82259277 155.65701904 -9.64518555 156.31403809 -9.46240234 156.9909668 C-7.57530892 163.94893407 -5.6501095 170.89337586 -3.625 177.8125 C-3.3465625 178.80958984 -3.068125 179.80667969 -2.78125 180.83398438 C-0.69958406 187.8807049 1.43601928 192.65101271 7.75 196.8125 C16.49825582 200.00897809 24.23569627 198.99004676 33 196 C38.62140149 193.22601378 43.45088027 189.8740585 46 184 C47.10618703 175.1745304 44.70451964 167.43957051 42 159.125 C41.24390489 156.75453967 40.49365734 154.38220416 39.75 152.0078125 C39.41484375 150.97285645 39.0796875 149.93790039 38.734375 148.87158203 C37.65125395 144.63631947 37.76377145 141.17227135 39 137 C35.66279166 135.87235883 33.68716506 136.12009754 30.375 137.25 Z M-69 151 C-72.19695965 157.190277 -72.19695965 157.190277 -72 161 C-68.47930015 160.41321669 -66.28700157 159.64350079 -63 158 C-58.545 157.505 -58.545 157.505 -54 157 C-54.33 171.19 -54.66 185.38 -55 200 C-56.98 200.99 -58.96 201.98 -61 203 C-60.67 203.99 -60.34 204.98 -60 206 C-50.76 206 -41.52 206 -32 206 C-32 204.68 -32 203.36 -32 202 C-33.65 201.67 -35.3 201.34 -37 201 C-37 186.81 -37 172.62 -37 158 C-28.375 158 -28.375 158 -23 161 C-22.01 161 -21.02 161 -20 161 C-20.53400897 157.08393425 -21.19669467 154.60661066 -23 151 C-38.18 151 -53.36 151 -69 151 Z " fill="#231F20" transform="translate(300,120)"/>
<path d="M0 0 C7.92437362 7.22687374 15.03911653 14.97212926 21.59765625 23.45703125 C22.0148291 23.9871582 22.43200195 24.51728516 22.86181641 25.06347656 C57.22207349 68.93359361 71.49185194 125.14484657 65.28515625 180.234375 C59.85616004 223.6582658 41.17446326 265.13143221 10.97265625 296.90625 C8.57810462 299.41061001 8.57810462 299.41061001 6.515625 302.08203125 C4.76402555 304.25101794 3.03309911 305.97593383 0.91015625 307.76953125 C-1.19156349 309.55733292 -3.27629784 311.33881428 -5.2890625 313.2265625 C-18.08252936 325.16545594 -32.87962195 334.51565663 -48.40234375 342.45703125 C-49.09650391 342.81635742 -49.79066406 343.17568359 -50.50585938 343.54589844 C-65.67581493 351.31709852 -81.5880446 356.59455672 -98.21484375 360.26953125 C-99.53669678 360.56186646 -99.53669678 360.56186646 -100.88525391 360.86010742 C-115.2905369 363.85823502 -129.4228489 364.83648373 -144.08984375 364.76953125 C-144.92272919 364.76770844 -145.75561462 364.76588562 -146.61373901 364.76400757 C-159.42768761 364.71689351 -171.83266508 364.1278274 -184.40234375 361.45703125 C-185.24925781 361.2854248 -186.09617188 361.11381836 -186.96875 360.93701172 C-219.53594209 354.22812219 -249.63942202 340.56558289 -275.40234375 319.45703125 C-275.92602539 319.03486328 -276.44970703 318.61269531 -276.98925781 318.17773438 C-290.17505841 307.52982011 -302.02864226 295.80392556 -312.12744141 282.171875 C-313.36104914 280.51257574 -314.6196535 278.87513521 -315.8828125 277.23828125 C-336.79533033 249.64139699 -348.22458452 216.37656897 -353.40234375 182.45703125 C-353.50764404 181.78784668 -353.61294434 181.11866211 -353.72143555 180.42919922 C-357.86156502 149.67501833 -354.29390515 116.7080335 -344.40234375 87.45703125 C-344.11375488 86.59948242 -343.82516602 85.74193359 -343.52783203 84.85839844 C-337.26717526 66.63511301 -328.82005237 49.03468022 -317.40234375 33.45703125 C-316.6340625 32.40515625 -315.86578125 31.35328125 -315.07421875 30.26953125 C-309.33392151 22.55108144 -303.05598518 15.39914346 -296.40234375 8.45703125 C-295.84949707 7.87163574 -295.29665039 7.28624023 -294.72705078 6.68310547 C-228.69021684 -62.98474572 -120.01510139 -75.15040772 0 0 Z M-287.93896484 4.06103516 C-288.91335905 4.99056236 -289.89286865 5.91475707 -290.87744141 6.83349609 C-299.83828836 15.20974743 -307.24967097 24.50987925 -314.40234375 34.45703125 C-314.86946777 35.10607422 -315.3365918 35.75511719 -315.81787109 36.42382812 C-322.37062527 45.63618764 -327.64929613 55.21162856 -332.40234375 65.45703125 C-332.70769043 66.1025293 -333.01303711 66.74802734 -333.32763672 67.41308594 C-356.81242817 117.29162326 -358.11968735 174.82522577 -339.69921875 226.4921875 C-326.45641927 261.84304058 -303.32277415 294.29282707 -273.40234375 317.45703125 C-272.84949707 317.88628906 -272.29665039 318.31554687 -271.72705078 318.7578125 C-227.72924997 352.67558397 -172.11778751 367.94728345 -116.97021484 360.81640625 C-80.50756041 355.71343731 -45.25311759 341.5299976 -16.40234375 318.45703125 C-15.38914062 317.64878906 -14.3759375 316.84054687 -13.33203125 316.0078125 C0.52488144 304.72549018 13.20384607 292.01288947 23.59765625 277.45703125 C24.3239624 276.44068604 24.3239624 276.44068604 25.06494141 275.40380859 C56.62048462 230.71953857 70.41655125 175.24012202 61.6328125 120.96484375 C53.09551926 73.7087638 29.536241 27.02239281 -8.40234375 -3.54296875 C-9.45234687 -4.42776401 -10.50176875 -5.31324925 -11.55078125 -6.19921875 C-40.46160887 -30.31469319 -74.54917152 -44.81204975 -111.40234375 -51.54296875 C-112.11712891 -51.67574219 -112.83191406 -51.80851562 -113.56835938 -51.9453125 C-176.38237963 -63.00455642 -242.53490152 -39.31159428 -287.93896484 4.06103516 Z " fill="#231F20" transform="translate(401.40234375,102.54296875)"/>
<path d="M0 0 C3.86863108 2.38565584 6.54966467 4.64899402 8 9 C9.17037334 18.38217313 5.66709563 26.61560267 0 34 C-3.96498605 38.36148465 -6.45928127 40.76474827 -12.375 41.3125 C-17.22792201 40.89414465 -20.510871 39.64317683 -23.8125 36 C-26.64157086 31.23524907 -26.55495887 26.37473863 -26 21 C-23.5259328 12.24462229 -19.29350824 5.43133592 -12 0 C-7.78591391 -1.40469536 -4.27596753 -1.16810371 0 0 Z " fill="#231F20" transform="translate(197,268)"/>
<path d="M0 0 C2.39591038 -0.02712351 4.79150957 -0.0468982 7.1875 -0.0625 C7.86103516 -0.07087891 8.53457031 -0.07925781 9.22851562 -0.08789062 C15.80519087 -0.11997197 20.83880285 0.50337271 26.0625 4.62890625 C30.2811843 8.83908514 32.02511426 12.57759909 32.19921875 18.54296875 C31.75585175 24.01116174 30.28571596 28.18733702 26.125 31.875 C21.0019277 35.35868916 17.14324649 36.30862838 10.9375 36.375 C9.72964844 36.40335938 8.52179688 36.43171875 7.27734375 36.4609375 C4 36 4 36 1.81958008 34.43310547 C-0.6998249 31.06420838 -0.4569002 28.78471248 -0.390625 24.609375 C-0.38496521 23.90476135 -0.37930542 23.20014771 -0.37347412 22.47418213 C-0.35115078 20.23208572 -0.30096754 17.99161012 -0.25 15.75 C-0.22992952 14.22658565 -0.2116797 12.70314614 -0.1953125 11.1796875 C-0.15130118 7.4526017 -0.08230372 3.72645913 0 0 Z " fill="#231F20" transform="translate(257,190)"/>
<path d="M0 0 C3.031875 -0.061875 6.06375 -0.12375 9.1875 -0.1875 C10.60712036 -0.22846802 10.60712036 -0.22846802 12.05541992 -0.27026367 C16.8681653 -0.31777299 20.10030554 -0.15689552 24 3 C26.34113009 6.01002441 26.41216607 9.27741542 26.328125 13.03125 C25.80947233 16.14316604 24.21445226 17.85067869 22 20 C19.59940183 21.20029908 18.10639351 21.11459743 15.4296875 21.09765625 C14.62257324 21.09515869 13.81545898 21.09266113 12.98388672 21.09008789 C11.9579541 21.08098389 10.93202148 21.07187988 9.875 21.0625 C4.986875 21.0315625 4.986875 21.0315625 0 21 C0 14.07 0 7.14 0 0 Z " fill="#231F20" transform="translate(257,163)"/>
<path d="M0 0 C1.50046875 0.00386719 1.50046875 0.00386719 3.03125 0.0078125 C4.0315625 0.00523437 5.031875 0.00265625 6.0625 0 C8.53125 0.1328125 8.53125 0.1328125 9.53125 1.1328125 C9.57188832 2.79898365 9.573971 4.46669345 9.53125 6.1328125 C8.79519531 6.49632812 8.05914062 6.85984375 7.30078125 7.234375 C-0.08837301 11.04120481 -3.8838161 14.25541166 -8.46875 21.1328125 C-12.09375 21.3203125 -12.09375 21.3203125 -15.46875 21.1328125 C-13.85140784 16.36396361 -11.21677081 12.50914999 -8.40625 8.3828125 C-7.94669922 7.69832031 -7.48714844 7.01382813 -7.01367188 6.30859375 C-2.86394038 0.15407274 -2.86394038 0.15407274 0 0 Z " fill="#231F20" transform="translate(236.46875,162.8671875)"/>
<path d="M0 0 C3.96 0 7.92 0 12 0 C12 7.26 12 14.52 12 22 C5.65006494 18.37146568 2.8731738 16.6829345 0.25 10.125 C-0.14776714 6.74397931 -0.05671284 3.40277021 0 0 Z " fill="#231F20" transform="translate(234,190)"/>
<path d="M0 0 C0 3.96 0 7.92 0 12 C-3.63 12 -7.26 12 -11 12 C-9.91244877 6.92476094 -5.9431747 0 0 0 Z " fill="#231F20" transform="translate(246,172)"/>
</svg>
