<?xml version="1.0" encoding="UTF-8"?>
<svg version="1.1" xmlns="http://www.w3.org/2000/svg" width="1918" height="1135">
<path d="M0 0 C1.12775345 0.00212242 1.12775345 0.00212242 2.27828979 0.00428772 C4.6829626 0.0098916 7.08754277 0.02244468 9.4921875 0.03515625 C11.12109241 0.04017075 12.74999877 0.04473375 14.37890625 0.04882812 C18.37503577 0.05986228 22.37109592 0.07712946 26.3671875 0.09765625 C28.52636719 5.65283203 28.52636719 5.65283203 27.09375 9.65625 C26.41358971 10.96004431 25.71173434 12.25267819 24.9921875 13.53515625 C24.62730225 14.22311279 24.26241699 14.91106934 23.88647461 15.61987305 C22.73137432 17.78936456 21.55005348 19.94320229 20.3671875 22.09765625 C19.23601802 24.20528903 18.11122653 26.31621417 16.98779297 28.42797852 C16.29520566 29.72542115 15.59779212 31.02030181 14.89501953 32.31225586 C13.49720662 34.89100416 12.29737835 37.30708369 11.3671875 40.09765625 C12.70523437 40.15373047 12.70523437 40.15373047 14.0703125 40.2109375 C15.24078125 40.27667969 16.41125 40.34242188 17.6171875 40.41015625 C19.35742188 40.49716797 19.35742188 40.49716797 21.1328125 40.5859375 C24.47538388 41.11477428 25.9168932 41.83537958 28.3671875 44.09765625 C27.90407238 49.5120168 26.6546671 52.91674189 23.6171875 57.41015625 C22.94171875 58.43753906 22.26625 59.46492187 21.5703125 60.5234375 C18.2421357 64.41221146 15.76251465 64.96548317 10.73828125 65.44140625 C8.11328535 65.5456762 5.48828534 65.64984266 2.86328125 65.75390625 C-0.50454394 66.08504437 -1.91291002 66.233175 -4.6328125 68.09765625 C-6.00377572 70.22008574 -7.1567377 72.23938125 -8.28515625 74.484375 C-8.78968826 75.45182144 -8.78968826 75.45182144 -9.30441284 76.43881226 C-10.02670638 77.82628293 -10.74388669 79.2164251 -11.45645142 80.60891724 C-13.33867546 84.28636809 -15.25752958 87.94466749 -17.171875 91.60546875 C-17.55336197 92.33743973 -17.93484894 93.06941071 -18.32789612 93.82356262 C-21.563769 100.01539399 -24.96529933 106.10221633 -28.4453125 112.16015625 C-32.88115967 119.94956245 -37.26230993 127.76510986 -41.5078125 135.66015625 C-42.30409058 137.09790405 -42.30409058 137.09790405 -43.11645508 138.56469727 C-45.91408122 143.81074562 -45.91408122 143.81074562 -46.640625 149.625 C-45.77628506 152.40727867 -45.77628506 152.40727867 -42.6328125 154.09765625 C-39.43226111 154.41043746 -39.43226111 154.41043746 -35.71801758 154.37231445 C-35.01841919 154.37742538 -34.3188208 154.38253632 -33.59802246 154.38780212 C-31.28270936 154.40171248 -28.96769371 154.40073942 -26.65234375 154.3984375 C-25.03911733 154.40232546 -23.42589193 154.40666034 -21.81266785 154.41142273 C-18.42740568 154.41888936 -15.04224777 154.41859181 -11.65698242 154.41333008 C-7.33398131 154.40755419 -3.01141126 154.42441838 1.31151867 154.44767475 C4.64627042 154.46246597 7.98091988 154.46327616 11.31569862 154.46016502 C12.90838788 154.46067617 14.50108317 154.46587495 16.09374046 154.47597694 C29.46048968 154.76042363 29.46048968 154.76042363 41.12109375 148.828125 C43.56828057 145.85319702 45.49052743 142.78957713 47.3046875 139.41015625 C47.67819336 138.73082031 48.05169922 138.05148437 48.43652344 137.3515625 C49.75756151 134.93932378 51.06311926 132.51910982 52.3671875 130.09765625 C53.14376709 128.66172119 53.14376709 128.66172119 53.93603516 127.19677734 C56.88441834 121.74412251 59.82273453 116.2861439 62.75390625 110.82421875 C66.65904081 103.54869927 70.58933652 96.28697397 74.52661133 89.02880859 C77.31167343 83.89428904 80.09087672 78.75675445 82.859375 73.61328125 C83.4361499 72.54352051 84.0129248 71.47375977 84.60717773 70.37158203 C85.69970304 68.34491851 86.79050045 66.31732208 87.87915039 64.28857422 C89.35786892 61.54840657 90.86118494 58.82289856 92.3671875 56.09765625 C93.09252686 54.72432129 93.09252686 54.72432129 93.83251953 53.32324219 C94.31962402 52.4418457 94.80672852 51.56044922 95.30859375 50.65234375 C95.72955322 49.87101074 96.1505127 49.08967773 96.58422852 48.28466797 C100.1231337 43.94377894 103.849084 42.2875504 109.2512207 41.61181641 C110.6401036 41.59913141 112.02931946 41.60826278 113.41796875 41.63671875 C114.52799507 41.63809341 114.52799507 41.63809341 115.66044617 41.63949585 C117.21095263 41.64549695 118.76144942 41.66113694 120.31176758 41.68603516 C122.69069752 41.72282653 125.06807923 41.72705209 127.44726562 41.7265625 C128.95834685 41.73638465 130.46941753 41.74803771 131.98046875 41.76171875 C132.69189529 41.7639444 133.40332184 41.76617004 134.13630676 41.76846313 C139.13493176 41.86540051 139.13493176 41.86540051 141.3671875 44.09765625 C141.27038878 50.77676759 138.18360418 55.89751558 135.0546875 61.66015625 C134.51634277 62.67102295 133.97799805 63.68188965 133.42333984 64.72338867 C131.75047671 67.85507611 130.06160583 70.97758597 128.3671875 74.09765625 C127.86687012 75.02126953 127.36655273 75.94488281 126.85107422 76.89648438 C124.41728153 81.38386614 121.97041032 85.86391598 119.515625 90.33984375 C115.41147274 97.83063913 111.35674437 105.34821178 107.328125 112.87988281 C104.83593884 117.53729603 102.3399511 122.18431855 99.703125 126.76171875 C94.79099289 134.95837775 94.79099289 134.95837775 93.77734375 144.23046875 C94.91767869 147.84027076 96.51594341 149.55632999 99.3671875 152.09765625 C104.6848218 154.48255315 109.74519815 154.38525777 115.45906067 154.36940002 C116.97864829 154.37703028 116.97864829 154.37703028 118.52893466 154.38481468 C121.92142804 154.39947111 125.31377602 154.40000891 128.70629883 154.40063477 C131.13903079 154.40829609 133.57176009 154.41684248 136.00448608 154.4262085 C141.24112134 154.44448449 146.47773452 154.45677702 151.71439552 154.46374702 C159.28677193 154.47392333 166.85907797 154.49598974 174.43141779 154.52113294 C186.71915633 154.56170364 199.00690161 154.59417848 211.29467773 154.62084961 C212.02970426 154.62244691 212.76473079 154.62404421 213.52203085 154.62568992 C214.62599471 154.62808827 214.62599471 154.62808827 215.75226086 154.63053507 C226.19869713 154.65324731 236.64512651 154.67787919 247.09155273 154.70483398 C247.8271989 154.70673013 248.56284506 154.70862628 249.32078353 154.71057988 C261.56919304 154.74231366 273.81758895 154.77805658 286.06598109 154.81587547 C293.62397145 154.83895201 301.18195249 154.85789294 308.73996588 154.87154221 C314.52088412 154.88216208 320.30178141 154.89756798 326.08268356 154.91473389 C328.46078671 154.92091578 330.83889505 154.9253602 333.21700478 154.92799187 C336.44811163 154.93177346 339.67914473 154.94156018 342.91023254 154.95289612 C343.86429121 154.95250999 344.81834988 154.95212385 345.80131942 154.95172602 C352.25312256 154.98359131 352.25312256 154.98359131 353.3671875 156.09765625 C353.90211793 161.21472475 352.72959625 163.7858199 349.859375 167.9765625 C349.11945313 169.06259766 348.37953125 170.14863281 347.6171875 171.26757812 C347.22660156 171.82501709 346.83601563 172.38245605 346.43359375 172.95678711 C345.25069187 174.64799744 344.09284573 176.3543346 342.9375 178.06445312 C334.78905542 189.88672229 334.78905542 189.88672229 328.3671875 193.09765625 C326.95731719 193.19474536 325.54297704 193.23042408 324.12977409 193.23467064 C323.23549292 193.23974518 322.34121176 193.24481972 321.41983116 193.25004804 C319.93679455 193.25079468 319.93679455 193.25079468 318.42379761 193.2515564 C317.37826033 193.25593865 316.33272305 193.2603209 315.25550282 193.26483595 C311.72876444 193.27826135 308.20205107 193.28441123 304.67529297 193.29052734 C302.15598944 193.29842542 299.63668705 193.30669418 297.11738586 193.31530762 C289.53932927 193.33929626 281.96127388 193.3544618 274.38319129 193.36736768 C272.24282567 193.3710791 270.10246071 193.37505238 267.96209574 193.37912035 C254.67190541 193.40435938 241.38171406 193.42641348 228.09150505 193.4388485 C225.0121752 193.44177822 221.93284539 193.44473988 218.85351562 193.44775391 C218.08815712 193.44849996 217.32279861 193.44924601 216.53424741 193.45001467 C204.14014437 193.46266409 191.74618493 193.49588048 179.35214899 193.53755574 C166.62810645 193.57998987 153.90413738 193.60354534 141.18002427 193.60876906 C134.03566807 193.61218182 126.89153614 193.62392052 119.7472496 193.6568718 C113.02491883 193.68782585 106.30304705 193.69328087 99.58063316 193.68148804 C97.11353919 193.6812669 94.64642733 193.68960466 92.17939568 193.70714188 C88.80995148 193.72978961 85.44193046 193.72155722 82.07247925 193.70565796 C81.09717251 193.71954005 80.12186577 193.73342213 79.11700428 193.74772489 C73.26683783 193.67975507 69.73747781 192.6943692 65.05210888 189.12120306 C63.23220174 187.76754786 63.23220174 187.76754786 60.1796875 188.59765625 C57.3946857 190.02134389 57.3946857 190.02134389 55.03645039 191.66675568 C52.02594691 193.28058366 50.23808103 193.47876808 46.84648132 193.49206543 C45.7489151 193.50341522 44.65134888 193.51476501 43.52052307 193.52645874 C42.32612106 193.52352814 41.13171906 193.52059753 39.90112305 193.51757812 C38.00272675 193.53028244 38.00272675 193.53028244 36.065979 193.54324341 C32.60091351 193.56543244 29.13608602 193.56839132 25.67095923 193.5664959 C22.77354831 193.56637604 19.87618752 193.5749467 16.97879058 193.58327341 C10.13922794 193.60249926 3.29978734 193.60539482 -3.53979492 193.59863281 C-10.58304395 193.59199716 -17.62576858 193.61483853 -24.66891128 193.65194654 C-30.72601781 193.68269522 -36.78295613 193.69399787 -42.84013909 193.69010973 C-46.45329759 193.68804698 -50.06604823 193.69344663 -53.67913246 193.71800232 C-57.71262638 193.74450993 -61.74502183 193.73050253 -65.77856445 193.71289062 C-66.96689377 193.72615387 -68.15522308 193.73941711 -69.37956238 193.75308228 C-75.76745287 193.68834545 -79.9331238 193.12993691 -85.02954388 189.12094879 C-86.76440889 187.76379614 -86.76440889 187.76379614 -89.7578125 188.59765625 C-91.60988987 189.56395749 -93.43574933 190.583201 -95.22332764 191.66416931 C-99.63209611 193.51779596 -103.32680932 193.54084542 -108.05957031 193.53344727 C-108.99047989 193.5435231 -109.92138947 193.55359894 -110.88050842 193.5639801 C-113.94910798 193.59240783 -117.01721456 193.59833442 -120.0859375 193.6015625 C-122.22817179 193.61120845 -124.3704041 193.62130129 -126.51263428 193.63182068 C-131.00147072 193.64977001 -135.49013411 193.65534305 -139.97900391 193.65356445 C-145.7133577 193.65325997 -151.44659388 193.69418484 -157.18068314 193.74588108 C-161.60584545 193.77934475 -166.03074068 193.78531891 -170.45601654 193.78373528 C-172.56901648 193.78726126 -174.68202437 193.80045127 -176.79489899 193.82373238 C-196.82568363 194.02375545 -196.82568363 194.02375545 -203.72991943 188.48350525 C-206.02916475 186.80899874 -207.82748884 186.42558706 -210.6328125 186.09765625 C-212.82197289 186.55792589 -212.82197289 186.55792589 -214.91796875 187.49609375 C-215.69591797 187.810625 -216.47386719 188.12515625 -217.27539062 188.44921875 C-218.07396484 188.78695313 -218.87253906 189.1246875 -219.6953125 189.47265625 C-221.28955279 190.12827956 -222.88457964 190.78199421 -224.48046875 191.43359375 C-225.18179932 191.7279834 -225.88312988 192.02237305 -226.60571289 192.32568359 C-236.04414049 195.92008418 -244.93437472 195.12505079 -253.96459961 191.08764648 C-255.58991869 190.31617577 -257.2012682 189.5143889 -258.79516602 188.67993164 C-263.02444023 186.60601688 -265.67211923 185.67225806 -270.26953125 187.109375 C-272.99654107 188.19186467 -275.01211091 189.37867853 -277.38952637 191.1401062 C-283.0633361 194.36014283 -289.52272614 193.64672952 -295.85473633 193.59936523 C-297.29765855 193.60315245 -298.74057713 193.6086558 -300.18348694 193.61573792 C-304.0887336 193.62966135 -307.99353811 193.61854324 -311.89876008 193.6020267 C-315.99669343 193.58813231 -320.09460223 193.59464157 -324.19255066 193.59815979 C-331.07643721 193.60085937 -337.96014916 193.58741123 -344.84399414 193.56420898 C-352.78348535 193.53763251 -360.72268414 193.535843 -368.66220456 193.54759735 C-376.31939837 193.55840958 -383.97648721 193.55215907 -391.63367271 193.53804207 C-394.88263135 193.53230886 -398.1315125 193.53234392 -401.38047218 193.53710747 C-405.21456555 193.54191034 -409.04834244 193.53163998 -412.88237572 193.51015282 C-414.2827078 193.50462835 -415.68307058 193.50407931 -417.08340454 193.50910568 C-428.89399943 193.54615468 -439.53584679 192.24972329 -448.6328125 184.09765625 C-452.58982929 179.23404531 -453.07574097 174.21580614 -453.06640625 168.1015625 C-451.99525237 160.68068561 -449.20102785 154.78874011 -444.8203125 148.78515625 C-444.34311768 148.11129883 -443.86592285 147.43744141 -443.37426758 146.74316406 C-442.34233282 145.28650965 -441.30597297 143.83298184 -440.265625 142.38232422 C-438.00744991 139.22263485 -435.78838041 136.03620203 -433.56665039 132.85083008 C-429.29508513 126.72803424 -425.00252738 120.62004781 -420.69921875 114.51953125 C-420.06024658 113.61170898 -419.42127441 112.70388672 -418.76293945 111.76855469 C-417.53588828 110.02541227 -416.30665667 108.2838021 -415.07495117 106.54394531 C-414.52170166 105.75729492 -413.96845215 104.97064453 -413.3984375 104.16015625 C-412.91149414 103.47050781 -412.42455078 102.78085938 -411.92285156 102.0703125 C-408.99132062 97.58757783 -408.05746432 94.56346395 -408.6328125 89.09765625 C-410.37933877 86.18677914 -411.87892897 84.56329019 -414.7578125 82.78515625 C-421.70510621 81.12384689 -427.44277664 81.35408019 -433.6328125 85.09765625 C-435.86991216 87.28910693 -435.86991216 87.28910693 -437.8203125 89.91015625 C-438.58730469 90.8846875 -439.35429688 91.85921875 -440.14453125 92.86328125 C-440.97464971 93.940874 -441.80404994 95.01902034 -442.6328125 96.09765625 C-444.46142636 98.45551766 -446.29581973 100.80881831 -448.1328125 103.16015625 C-448.8278186 104.05142212 -448.8278186 104.05142212 -449.53686523 104.96069336 C-452.97754725 109.34221042 -456.58604223 113.52733411 -460.3671875 117.62109375 C-462.23455008 119.66231422 -464.04589453 121.73298103 -465.8515625 123.828125 C-475.76878171 135.18707784 -486.64273832 145.9435577 -498.6328125 155.09765625 C-499.59703125 155.87882812 -500.56125 156.66 -501.5546875 157.46484375 C-532.86865224 182.66731939 -566.48622916 193.5939353 -606.34209013 193.5044893 C-609.93843534 193.49970965 -613.53472954 193.51230858 -617.13105774 193.52250671 C-624.15208806 193.53960068 -631.17302852 193.54055532 -638.19407423 193.53529381 C-643.89969511 193.53123723 -649.60528963 193.5327132 -655.31090927 193.53804207 C-656.53315636 193.5391647 -656.53315636 193.5391647 -657.7800953 193.54031001 C-659.43575137 193.54184159 -661.09140744 193.54337994 -662.7470635 193.54492498 C-678.2277571 193.55861312 -693.70839997 193.55323583 -709.18909238 193.54173977 C-723.34899812 193.53178656 -737.50877357 193.54479055 -751.66865923 193.56867396 C-766.2305481 193.59304969 -780.79237625 193.60267812 -795.35428512 193.59602123 C-803.52112175 193.59252879 -811.68785794 193.59476407 -819.85467911 193.61227226 C-826.79787895 193.62697409 -833.74090739 193.62765498 -840.6841038 193.61020135 C-844.2252317 193.60167685 -847.76605307 193.59957738 -851.30716515 193.61485291 C-855.14480474 193.63120324 -858.98196888 193.61658325 -862.8196106 193.59886169 C-863.93904938 193.6084667 -865.05848816 193.61807171 -866.21184933 193.62796777 C-872.27622051 193.57016588 -876.10057469 193.31097599 -880.6328125 189.09765625 C-882.13023731 184.85495262 -881.83739698 182.01178033 -880.1328125 177.97265625 C-879.32174062 176.33643137 -878.48516253 174.71276271 -877.6328125 173.09765625 C-877.0759375 172.00066406 -876.5190625 170.90367187 -875.9453125 169.7734375 C-869.30166126 156.9872725 -869.30166126 156.9872725 -863.6328125 155.09765625 C-862.13798787 154.98523987 -860.63930074 154.92002266 -859.140625 154.88671875 C-858.27050781 154.85835937 -857.40039062 154.83 -856.50390625 154.80078125 C-854.68118957 154.74892587 -852.85824269 154.70458742 -851.03515625 154.66796875 C-849.72611328 154.6215625 -849.72611328 154.6215625 -848.390625 154.57421875 C-847.5980127 154.55439941 -846.80540039 154.53458008 -845.98876953 154.51416016 C-842.85916246 153.96088454 -841.1167951 153.10070192 -838.6328125 151.09765625 C-837.13625171 147.98208597 -837.13625171 147.98208597 -836.1875 144.23046875 C-835.98663788 143.53253204 -835.78577576 142.83459534 -835.5788269 142.11550903 C-835.14333201 140.59043377 -834.71700265 139.06271871 -834.29870605 137.53283691 C-833.61445723 135.03053079 -832.90569846 132.53615696 -832.19238281 130.04199219 C-830.93061506 125.6039825 -829.70748668 121.15644864 -828.50097656 116.703125 C-828.00025393 114.86341345 -827.49395067 113.02521281 -826.98242188 111.18847656 C-826.2315635 108.49203959 -825.49681041 105.79167262 -824.765625 103.08984375 C-824.53553741 102.27417938 -824.30544983 101.45851501 -824.06838989 100.61813354 C-822.87461331 96.12314339 -822.27453241 92.68852051 -823.6328125 88.09765625 C-825.48358946 85.7905375 -825.48358946 85.7905375 -828.36328125 86.01171875 C-833.09117289 87.58203401 -835.0178785 90.57528929 -837.9453125 94.47265625 C-839.09747838 95.94935754 -840.2498225 97.4259198 -841.40234375 98.90234375 C-841.95744629 99.62518555 -842.51254883 100.34802734 -843.08447266 101.09277344 C-845.04963469 103.63738249 -847.08360142 106.12042142 -849.1328125 108.59765625 C-852.81156249 113.08789521 -856.47395077 117.59121417 -860.1328125 122.09765625 C-864.49620186 127.47183076 -868.87070952 132.83655996 -873.2578125 138.19140625 C-876.22369515 141.82071002 -879.17825776 145.45912972 -882.1328125 149.09765625 C-883.25258947 150.47527236 -884.37238088 151.85287674 -885.4921875 153.23046875 C-887.38165634 155.55535671 -889.26762862 157.88294656 -891.1484375 160.21484375 C-905.30393166 177.68648514 -917.67345232 189.42913277 -940.6328125 193.09765625 C-947.19286254 193.6498885 -953.78487262 193.59356553 -960.36328125 193.6015625 C-962.24888832 193.61122654 -964.13449323 193.62132064 -966.02009583 193.63182068 C-969.94924131 193.6496691 -973.87818996 193.65535273 -977.80737305 193.65356445 C-982.82078196 193.65325861 -987.83292556 193.69436735 -992.84603405 193.74588108 C-996.73161031 193.77935102 -1000.61688266 193.78531902 -1004.50258827 193.78373528 C-1006.35044059 193.78725323 -1008.19830265 193.80039742 -1010.04601097 193.82373238 C-1020.62043599 193.94489516 -1027.93468686 193.74634932 -1036.6328125 187.09765625 C-1041.83729161 185.38406399 -1044.69535284 186.61003716 -1049.5703125 188.91015625 C-1059.65908664 193.61378185 -1069.88084529 196.51433668 -1080.890625 193.08203125 C-1084.63589101 191.49196947 -1088.3021488 189.84498322 -1091.8515625 187.8515625 C-1094.30082509 186.67719592 -1095.90300576 186.20309901 -1098.6328125 186.09765625 C-1100.62568812 187.16861262 -1102.57787828 188.31586224 -1104.50610352 189.49926758 C-1116.03352841 195.52499687 -1129.50376875 194.06059454 -1142.15069652 193.93914008 C-1145.86913209 193.90991829 -1149.58752163 193.91790063 -1153.30604553 193.92060852 C-1159.53868128 193.91962387 -1165.77071619 193.89141483 -1172.00317383 193.84545898 C-1179.19089326 193.79269603 -1186.37786843 193.77880569 -1193.56576055 193.78649205 C-1200.515043 193.79342151 -1207.46407607 193.77752352 -1214.41330147 193.74973488 C-1217.35689975 193.73808409 -1220.30038117 193.73348386 -1223.24400139 193.73453331 C-1227.35306141 193.73438337 -1231.46118014 193.70040583 -1235.57006836 193.6628418 C-1236.78009018 193.66622559 -1237.990112 193.66960937 -1239.23680115 193.6730957 C-1247.04153841 193.56478971 -1252.57577174 192.59861613 -1258.65625 187.3515625 C-1259.10226562 186.79339844 -1259.54828125 186.23523437 -1260.0078125 185.66015625 C-1260.46929688 185.10457031 -1260.93078125 184.54898437 -1261.40625 183.9765625 C-1265.88859883 177.11028929 -1265.58507594 169.20062523 -1264.12109375 161.35546875 C-1261.47411389 152.4461219 -1256.81566258 144.21545773 -1252.60546875 135.96875 C-1249.80529407 130.47425539 -1247.1413772 124.92347274 -1244.5078125 119.34765625 C-1240.20713133 110.27530084 -1235.75097503 101.2870328 -1231.24584961 92.31512451 C-1228.36462684 86.57495647 -1225.49380354 80.82957427 -1222.62463379 75.08337402 C-1221.97955198 73.7918607 -1221.33398871 72.50058772 -1220.68786621 71.20959473 C-1218.77654956 67.38927506 -1216.88620126 63.55925906 -1215.0078125 59.72265625 C-1214.54052734 58.79066406 -1214.07324219 57.85867188 -1213.59179688 56.8984375 C-1212.97401367 55.62419922 -1212.97401367 55.62419922 -1212.34375 54.32421875 C-1211.98587402 53.59799316 -1211.62799805 52.87176758 -1211.25927734 52.12353516 C-1210.51748751 49.72471519 -1210.81480546 48.43716955 -1211.6328125 46.09765625 C-1221.72300084 45.28721541 -1221.72300084 45.28721541 -1230.6328125 49.09765625 C-1235.60674461 56.36244956 -1239.35986372 64.28743606 -1243.2578125 72.16015625 C-1243.97779916 73.60700666 -1244.69793437 75.05378315 -1245.41821289 76.50048828 C-1249.81279229 85.34342722 -1254.11485249 94.22658684 -1258.33837891 103.15258789 C-1262.83443829 112.61225032 -1267.54679363 121.96178055 -1272.24951172 131.3197937 C-1276.78514371 140.34828047 -1281.25204901 149.40000453 -1285.5703125 158.53515625 C-1288.95731176 165.66618343 -1292.40211485 172.76176126 -1296.0078125 179.78515625 C-1296.400896 180.57011475 -1296.79397949 181.35507324 -1297.19897461 182.16381836 C-1299.80962822 187.1707725 -1302.45056135 190.50653068 -1307.6328125 193.09765625 C-1310.3082158 193.20869594 -1312.95681 193.26176188 -1315.6328125 193.265625 C-1316.82003906 193.2706176 -1316.82003906 193.2706176 -1318.03125 193.27571106 C-1319.70572325 193.28077665 -1321.3802066 193.2831195 -1323.0546875 193.28295898 C-1325.62256385 193.28514752 -1328.19001209 193.30331234 -1330.7578125 193.32226562 C-1332.38281103 193.32519916 -1334.0078116 193.32718422 -1335.6328125 193.328125 C-1336.40367187 193.33531052 -1337.17453125 193.34249603 -1337.96875 193.34989929 C-1343.4039853 193.32648345 -1343.4039853 193.32648345 -1345.6328125 191.09765625 C-1346.67216732 184.9854871 -1343.5859994 180.38130778 -1340.8203125 175.16015625 C-1339.79236251 173.16504458 -1338.76637517 171.16892066 -1337.7421875 169.171875 C-1337.21818359 168.15528809 -1336.69417969 167.13870117 -1336.15429688 166.09130859 C-1333.86869326 161.59418543 -1331.72013757 157.03581199 -1329.5703125 152.47265625 C-1324.73785454 142.27318829 -1319.69736538 132.18308189 -1314.6328125 122.09765625 C-1309.21663135 111.31189191 -1303.85463143 100.51090509 -1298.70556641 89.59423828 C-1296.09961001 84.09344581 -1293.41227688 78.63971563 -1290.66796875 73.20703125 C-1290.32407608 72.5251474 -1289.98018341 71.84326355 -1289.62586975 71.14071655 C-1287.9232273 67.76681401 -1286.21368532 64.39668289 -1284.4934082 61.03173828 C-1283.87039419 59.80121372 -1283.24758181 58.57058704 -1282.625 57.33984375 C-1281.79524658 55.71344971 -1281.79524658 55.71344971 -1280.94873047 54.05419922 C-1279.74589078 51.35171525 -1279.06499061 49.01098172 -1278.6328125 46.09765625 C-1281.00851793 46.01604805 -1283.38137091 45.95688403 -1285.7578125 45.91015625 C-1286.42296875 45.88501953 -1287.088125 45.85988281 -1287.7734375 45.83398438 C-1292.54999258 45.76374092 -1295.71719173 46.33719784 -1299.6328125 49.09765625 C-1304.61626811 55.13163125 -1307.56746341 62.96028024 -1310.8828125 69.97265625 C-1312.11985058 72.56825473 -1313.36183013 75.16146455 -1314.60546875 77.75390625 C-1315.09035515 78.7652211 -1315.09035515 78.7652211 -1315.58503723 79.79696655 C-1319.4029209 87.73573033 -1323.36319778 95.60265759 -1327.3203125 103.47265625 C-1331.99005235 112.76650708 -1336.62475108 122.06878423 -1341.0703125 131.47265625 C-1348.33190207 146.83249679 -1355.95449806 162.03442952 -1363.67941284 177.16647339 C-1364.32741323 178.47904702 -1364.94036877 179.80938406 -1365.52102661 181.15310669 C-1367.83465125 186.33017449 -1370.60396986 190.26774107 -1375.6328125 193.09765625 C-1378.57130941 193.85759333 -1381.31758214 193.87401133 -1384.33984375 193.7890625 C-1385.14644943 193.78768784 -1385.95305511 193.78631317 -1386.78410339 193.78489685 C-1388.47591526 193.77588744 -1390.16770655 193.75240228 -1391.85913086 193.71508789 C-1394.45580342 193.65993342 -1397.04928421 193.65356189 -1399.64648438 193.65429688 C-1401.29429871 193.63956237 -1402.9420913 193.62208219 -1404.58984375 193.6015625 C-1405.36689163 193.59822403 -1406.14393951 193.59488556 -1406.9445343 193.59144592 C-1409.12036133 193.53344727 -1409.12036133 193.53344727 -1412.6328125 193.09765625 C-1414.77263289 189.88792566 -1414.88151957 188.84278964 -1414.21673584 185.16357422 C-1413.01507095 180.91208963 -1410.90944796 177.07171623 -1408.890625 173.16015625 C-1408.16611649 171.72530884 -1408.16611649 171.72530884 -1407.42697144 170.26147461 C-1405.87999797 167.20198695 -1404.31957353 164.14961775 -1402.7578125 161.09765625 C-1400.73554587 157.12053187 -1398.71880334 153.14062304 -1396.703125 149.16015625 C-1396.19839661 148.16556396 -1395.69366821 147.17097168 -1395.17364502 146.14624023 C-1391.18616761 138.26270261 -1387.35428964 130.31160699 -1383.56448364 122.33154297 C-1379.72792632 114.26201392 -1375.76019172 106.26443499 -1371.73657227 98.28686523 C-1364.85232049 84.63256625 -1358.09603578 70.92834371 -1351.58398438 57.09179688 C-1350.9368767 55.73512965 -1350.24297884 54.4000235 -1349.50976562 53.08789062 C-1348.36399911 50.85006666 -1348.36399911 50.85006666 -1348.6328125 47.09765625 C-1352.45545227 45.82344299 -1356.05169755 45.94761288 -1360.03518677 45.94616699 C-1360.90275758 45.94193458 -1361.77032839 45.93770217 -1362.66418922 45.9333415 C-1365.58228018 45.92028581 -1368.50034381 45.914284 -1371.41845703 45.90820312 C-1373.50592212 45.90026323 -1375.59338554 45.89187548 -1377.68084717 45.8830719 C-1382.18088424 45.86499786 -1386.68091762 45.8499885 -1391.18097305 45.83729553 C-1398.28895676 45.81710945 -1405.39689913 45.78945361 -1412.50485229 45.76062012 C-1428.87390967 45.69536747 -1445.24299761 45.63994306 -1461.61209106 45.58463287 C-1476.61666094 45.53384095 -1491.6212158 45.48100571 -1506.62574852 45.42010736 C-1513.69963235 45.39168346 -1520.77351115 45.36811485 -1527.84742379 45.34818268 C-1532.23745631 45.33483928 -1536.62746565 45.31742493 -1541.01747894 45.29887199 C-1543.06177818 45.29108618 -1545.1060848 45.28502975 -1547.15039444 45.28077888 C-1549.92843803 45.27477405 -1552.70639033 45.26274686 -1555.48440552 45.24914551 C-1556.30432736 45.24884952 -1557.12424919 45.24855353 -1557.96901715 45.24824858 C-1563.51871933 45.21174942 -1563.51871933 45.21174942 -1564.6328125 44.09765625 C-1565.03161615 39.48199439 -1564.41420597 37.02541342 -1561.8203125 33.22265625 C-1561.18480469 32.28550781 -1560.54929687 31.34835937 -1559.89453125 30.3828125 C-1559.14816406 29.29871094 -1558.40179687 28.21460938 -1557.6328125 27.09765625 C-1556.74073457 25.72313828 -1555.85156746 24.34672813 -1554.96484375 22.96875 C-1554.02183572 21.53189372 -1553.07782801 20.09569301 -1552.1328125 18.66015625 C-1551.69477295 17.9738916 -1551.2567334 17.28762695 -1550.80541992 16.58056641 C-1550.1476355 15.60095947 -1550.1476355 15.60095947 -1549.4765625 14.6015625 C-1549.09693359 14.02220947 -1548.71730469 13.44285645 -1548.32617188 12.84594727 C-1544.50629019 8.90215073 -1540.49105677 6.89876534 -1535.06685925 6.58870506 C-1533.30639018 6.56426766 -1531.54553484 6.56152187 -1529.78495789 6.57626343 C-1528.81006356 6.56861233 -1527.83516923 6.56096124 -1526.83073264 6.55307829 C-1523.57272502 6.53248465 -1520.31542672 6.5403894 -1517.05737305 6.54833984 C-1514.71790923 6.5396431 -1512.37845112 6.52927596 -1510.03900146 6.5173645 C-1503.68970926 6.49058701 -1497.34065518 6.48942695 -1490.99131751 6.4944911 C-1485.01701662 6.49690178 -1479.04274904 6.48447186 -1473.0684614 6.47362418 C-1460.51102395 6.45188614 -1447.953694 6.45619164 -1435.39625052 6.46839388 C-1423.9219978 6.47872773 -1412.4480849 6.45623132 -1400.97389939 6.41819744 C-1389.17852792 6.37940019 -1377.38331705 6.36293589 -1365.58788139 6.37044394 C-1358.97114893 6.37426239 -1352.35466923 6.36881574 -1345.7379818 6.34101486 C-1339.51368492 6.31584138 -1333.29006723 6.31976147 -1327.06578064 6.34583664 C-1324.78497906 6.35056392 -1322.50412957 6.34511385 -1320.22338295 6.32859039 C-1299.30284939 6.18798818 -1299.30284939 6.18798818 -1292.50127888 11.71367836 C-1290.19679627 13.4206146 -1288.47469456 13.83781089 -1285.6328125 14.09765625 C-1282.49174289 12.68822147 -1282.49174289 12.68822147 -1279.15234375 10.7109375 C-1270.33514748 6.17057274 -1261.86254756 6.0617882 -1252.10620117 6.23999023 C-1249.30496871 6.28540501 -1246.51029191 6.26052917 -1243.70898438 6.22851562 C-1227.54742642 6.23300021 -1227.54742642 6.23300021 -1220.58129883 11.71606445 C-1218.12233926 13.4596119 -1216.65865539 13.98436416 -1213.6328125 14.09765625 C-1211.33544746 13.04623019 -1209.2344723 11.94331371 -1207.046875 10.703125 C-1198.63586335 6.38449837 -1190.85463896 6.11704602 -1181.54052734 6.34985352 C-1178.97482889 6.41094157 -1176.41398929 6.4113566 -1173.84765625 6.40429688 C-1172.20048445 6.41967858 -1170.55333987 6.43843208 -1168.90625 6.4609375 C-1167.76873795 6.46290886 -1167.76873795 6.46290886 -1166.60824585 6.46492004 C-1161.69025718 6.61889631 -1159.06379337 7.55512185 -1155.6328125 11.09765625 C-1151.20526494 20.37442256 -1154.43599056 28.98376035 -1157.6328125 38.09765625 C-1159.27887567 42.0168562 -1161.12835623 45.81123747 -1163.03515625 49.609375 C-1163.54948715 50.65315811 -1164.06381805 51.69694122 -1164.59373474 52.77235413 C-1166.24343527 56.11457853 -1167.90662886 59.4498738 -1169.5703125 62.78515625 C-1170.71323205 65.09431608 -1171.85531878 67.40388831 -1172.99658203 69.71386719 C-1176.19565351 76.18163739 -1179.4107021 82.64133741 -1182.6328125 89.09765625 C-1183.22651642 90.28769257 -1183.22651642 90.28769257 -1183.83221436 91.50177002 C-1186.37649035 96.59979328 -1188.92509135 101.69562724 -1191.48583984 106.78540039 C-1196.29488273 116.35955662 -1200.9006532 126.02884406 -1205.48242188 135.71337891 C-1206.58983288 138.00857752 -1207.74802325 140.27136348 -1208.91796875 142.53515625 C-1210.65599384 146.14581429 -1211.19542388 148.15937656 -1210.6328125 152.09765625 C-1208.13847098 154.59199777 -1206.65123834 154.34456089 -1203.24679565 154.37982178 C-1202.49665192 154.37734436 -1201.74650818 154.37486694 -1200.97363281 154.37231445 C-1199.78796219 154.37998085 -1199.78796219 154.37998085 -1198.57833862 154.38780212 C-1195.95579528 154.4017422 -1193.33351358 154.40073746 -1190.7109375 154.3984375 C-1188.88970847 154.40232326 -1187.06848036 154.40665768 -1185.24725342 154.41142273 C-1181.42392037 154.41889533 -1177.60067963 154.41858707 -1173.77734375 154.41333008 C-1168.88354612 154.40754737 -1163.99012843 154.42443229 -1159.09639359 154.44767475 C-1155.33194782 154.4624296 -1151.56759304 154.46328118 -1147.80312347 154.46016502 C-1145.99945069 154.46067779 -1144.19577274 154.46590726 -1142.39212799 154.47597694 C-1139.86436069 154.48835199 -1137.33732642 154.48154249 -1134.80957031 154.4699707 C-1134.0675235 154.47761444 -1133.32547668 154.48525818 -1132.5609436 154.49313354 C-1127.86628012 154.44577417 -1124.57821264 153.67200758 -1120.6328125 151.09765625 C-1119.61382542 148.56412605 -1119.04577837 146.60746379 -1118.5703125 143.97265625 C-1118.25853033 142.52662349 -1117.94330673 141.08132931 -1117.625 139.63671875 C-1117.46612305 138.88938477 -1117.30724609 138.14205078 -1117.14355469 137.37207031 C-1112.57793066 117.04063939 -1104.67318252 97.72039355 -1090.6328125 82.09765625 C-1090.04628906 81.44023438 -1089.45976563 80.7828125 -1088.85546875 80.10546875 C-1074.74403348 65.16394906 -1053.85462716 57.42542823 -1033.6328125 56.09765625 C-1029.11081608 55.98832094 -1024.59326624 56.00261701 -1020.0703125 56.03515625 C-1018.87083984 56.03966797 -1017.67136719 56.04417969 -1016.43554688 56.04882812 C-1013.50124891 56.06051856 -1010.56705801 56.07690487 -1007.6328125 56.09765625 C-1007.33697266 55.30907227 -1007.04113281 54.52048828 -1006.73632812 53.70800781 C-1005.5487382 50.89877962 -1004.48040568 49.7376677 -1002.1328125 47.84765625 C-1001.524375 47.3475 -1000.9159375 46.84734375 -1000.2890625 46.33203125 C-995.3802591 42.67358343 -989.00514565 43.9131554 -983.1328125 43.91015625 C-981.87082031 43.89791016 -980.60882812 43.88566406 -979.30859375 43.87304688 C-978.10589844 43.87111328 -976.90320313 43.86917969 -975.6640625 43.8671875 C-974.55611328 43.86307861 -973.44816406 43.85896973 -972.30664062 43.85473633 C-969.6328125 44.09765625 -969.6328125 44.09765625 -967.6328125 46.09765625 C-966.53524309 52.27870501 -969.80344806 56.80619307 -972.7578125 61.97265625 C-973.2940625 62.93300781 -973.8303125 63.89335938 -974.3828125 64.8828125 C-978.95481067 73.02602583 -983.6821043 81.08044248 -988.41625977 89.13012695 C-992.81016011 96.6204852 -997.01353782 104.19801327 -1001.14208984 111.8371582 C-1004.94238206 118.86087843 -1008.8279716 125.8331156 -1012.7578125 132.78515625 C-1013.59324585 134.26544312 -1013.59324585 134.26544312 -1014.44555664 135.77563477 C-1016.43286954 139.28333011 -1018.39568604 142.74196656 -1020.6328125 146.09765625 C-1020.79980482 149.22287458 -1020.79980482 149.22287458 -1020.6328125 152.09765625 C-1016.45209157 154.10311081 -1013.02837594 154.35566119 -1008.41503906 154.37231445 C-1007.35298248 154.37998085 -1007.35298248 154.37998085 -1006.26947021 154.38780212 C-1003.93737237 154.40165886 -1001.60557154 154.40074374 -999.2734375 154.3984375 C-997.64304496 154.40232781 -996.01265342 154.40666317 -994.38226318 154.41142273 C-990.96607173 154.41887743 -987.54998363 154.41860002 -984.13378906 154.41333008 C-979.77507352 154.40754956 -975.41678486 154.42443553 -971.0581398 154.44767475 C-967.68989626 154.46247547 -964.32175388 154.46327499 -960.95348358 154.46016502 C-959.34766548 154.46067549 -957.74184131 154.46586121 -956.13605499 154.47597694 C-940.56398692 154.60182463 -940.56398692 154.60182463 -927.421875 147 C-924.50784176 143.90145374 -921.86270668 140.60498109 -919.2109375 137.28125 C-916.32272328 133.67780478 -913.29358224 130.20189301 -910.2578125 126.72265625 C-905.70707276 121.49824604 -901.19600313 116.24449152 -896.73144531 110.94628906 C-893.34799386 106.9338154 -889.93190473 102.95047064 -886.5078125 98.97265625 C-882.9265015 94.81085488 -879.40122957 90.61496255 -875.9453125 86.34765625 C-872.39013346 81.9661383 -868.66511713 77.78054944 -864.8671875 73.609375 C-862.63146717 71.09614393 -860.49903568 68.52454146 -858.3828125 65.91015625 C-854.22621978 60.77596768 -849.92452578 55.78440931 -845.58666992 50.80395508 C-841.92369453 46.59541876 -838.29421955 42.36109178 -834.6953125 38.09765625 C-834.24091797 37.56108398 -833.78652344 37.02451172 -833.31835938 36.47167969 C-831.45949789 34.27446674 -829.6110615 32.07096394 -827.79296875 29.83984375 C-824.38415886 25.69375946 -821.78592649 22.62496883 -816.34375 21.71484375 C-811.52321664 21.37988222 -808.42079051 21.71742338 -804.6328125 24.84765625 C-800.970423 28.33396933 -799.7083982 30.9270895 -799.37744141 36.05249023 C-799.3629018 37.64952199 -799.35742541 39.24665325 -799.359375 40.84375 C-799.33908855 42.58529291 -799.31823782 44.32682933 -799.296875 46.06835938 C-799.27426974 48.80482482 -799.25779994 51.54103332 -799.25195312 54.27758789 C-799.24242195 56.92511024 -799.20864278 59.57148525 -799.171875 62.21875 C-799.17692047 63.03347275 -799.18196594 63.8481955 -799.18716431 64.68760681 C-799.09948081 69.76169823 -798.41804391 72.39698149 -794.6328125 76.09765625 C-793.23129783 77.22715791 -791.79259588 78.31208925 -790.3203125 79.34765625 C-779.68948883 87.44316835 -774.81300863 98.15518832 -772.6328125 111.09765625 C-772.43012848 114.28103799 -772.48913262 117.43394381 -772.578125 120.62109375 C-772.60338191 122.4010344 -772.62810636 124.18098267 -772.65234375 125.9609375 C-772.70222108 128.73283327 -772.75856815 131.50432167 -772.82470703 134.27587891 C-772.88492507 136.97431087 -772.92056272 139.67220696 -772.953125 142.37109375 C-772.98004425 143.20232758 -773.0069635 144.0335614 -773.03469849 144.88998413 C-773.1863036 149.2525372 -773.1863036 149.2525372 -771.00354004 152.81425476 C-767.93878914 154.47336818 -765.7602026 154.48511354 -762.27880859 154.50170898 C-760.99001801 154.51439316 -759.70122742 154.52707733 -758.37338257 154.54014587 C-756.96767008 154.53809321 -755.5619587 154.53510416 -754.15625 154.53125 C-752.70618445 154.53581482 -751.25612106 154.54112129 -749.80606079 154.5471344 C-746.76466091 154.55606806 -743.7235235 154.55364327 -740.68212891 154.54370117 C-736.80869665 154.53226586 -732.93618347 154.55233646 -729.06287193 154.58161831 C-726.06513826 154.60009217 -723.0676197 154.59966489 -720.06984329 154.59398079 C-718.64347681 154.59382864 -717.21709474 154.59978399 -715.79078293 154.61227226 C-706.15684428 154.68468374 -697.86285075 154.10397467 -690.01171875 148.08984375 C-683.60799425 140.62571755 -682.02364071 133.90910349 -680.62158203 124.37939453 C-676.71211451 97.84224384 -664.5940346 73.8355716 -642.89697266 57.3918457 C-624.41802215 43.83567125 -602.83040803 35.36450256 -579.6328125 37.09765625 C-569.82389178 38.79869693 -562.46633608 42.25367463 -556.078125 50.03125 C-551.64215644 56.37348613 -551.87483089 64.24957584 -553.02734375 71.62109375 C-555.99902368 84.38973138 -562.82615974 96.4919778 -571.6328125 106.09765625 C-572.23480469 106.77957031 -572.83679688 107.46148438 -573.45703125 108.1640625 C-591.60156466 127.60191695 -617.9655836 135.36070543 -643.53125 138.53515625 C-646.33253422 139.04319772 -648.25578855 139.56554602 -650.6328125 141.09765625 C-652.05323071 143.93849266 -651.94733522 145.95242903 -651.6328125 149.09765625 C-649.24872264 152.24806071 -647.44387284 153.38512298 -643.6328125 154.09765625 C-642.03815911 154.19152429 -640.44017037 154.23559357 -638.84277344 154.24291992 C-637.89368103 154.24929977 -636.94458862 154.25567963 -635.96673584 154.26225281 C-634.94388489 154.26336563 -633.92103394 154.26447845 -632.8671875 154.265625 C-631.26789398 154.2706176 -631.26789398 154.2706176 -629.6362915 154.27571106 C-627.37341746 154.28077603 -625.11053595 154.28311952 -622.84765625 154.28295898 C-619.43736846 154.28512165 -616.02741703 154.30321545 -612.6171875 154.32226562 C-597.78990101 154.36164609 -583.10996173 154.16385119 -568.7578125 149.97265625 C-568.01934082 149.76020264 -567.28086914 149.54774902 -566.52001953 149.32885742 C-532.7660468 139.15412954 -503.39010883 115.16234251 -482.5703125 87.16015625 C-482.09255371 86.52102295 -481.61479492 85.88188965 -481.12255859 85.22338867 C-478.95471691 82.23993514 -477.1772153 79.77375921 -476.6328125 76.09765625 C-477.85565549 73.5965644 -477.85565549 73.5965644 -479.6328125 71.09765625 C-485.56525724 61.41232675 -487.35663318 53.31240665 -485 42.08203125 C-482.13940673 32.85597367 -476.49262166 26.47120105 -468.1953125 21.66015625 C-457.36464062 16.28206471 -445.81994477 15.44705438 -434.2109375 18.99609375 C-427.89201157 21.69599846 -423.24004564 26.39127597 -420.4296875 32.640625 C-419.00373553 37.03731025 -418.22552071 41.57225581 -417.44140625 46.12109375 C-416.90301263 49.39240868 -416.90301263 49.39240868 -413.6328125 51.09765625 C-410.99509761 51.29085349 -408.45435839 51.374645 -405.81640625 51.37109375 C-404.23111302 51.39140488 -402.64582662 51.41225604 -401.06054688 51.43359375 C-398.57472984 51.45605669 -396.08918485 51.47261143 -393.60327148 51.47851562 C-382.78271203 51.52180219 -373.35419443 51.71264826 -364.2578125 58.34765625 C-358.99774205 63.85820624 -357.38274135 68.29984041 -357.1328125 75.97265625 C-357.56715332 88.00645199 -363.16678011 95.7555789 -370.14404297 105.09375 C-373.41111273 109.49127519 -376.59198332 113.95245109 -379.7878418 118.40185547 C-382.36981334 121.99012403 -384.9691399 125.55786186 -387.6484375 129.07421875 C-388.34356445 130.00234375 -388.34356445 130.00234375 -389.05273438 130.94921875 C-390.29299336 132.60289739 -391.54827636 134.24527839 -392.8046875 135.88671875 C-395.09858348 139.91574118 -395.49442029 142.47821984 -395.6328125 147.09765625 C-392.72683116 151.40975759 -389.81330444 152.5618651 -384.84950829 153.70989227 C-381.16816826 154.35386474 -377.5465858 154.37587717 -373.81762695 154.35644531 C-372.97592957 154.35994995 -372.13423218 154.36345459 -371.26702881 154.36706543 C-368.50996434 154.3758035 -365.75316042 154.3700634 -362.99609375 154.36328125 C-361.0689438 154.3646298 -359.14179418 154.36657192 -357.21464539 154.36907959 C-353.18757875 154.37201978 -349.16060117 154.36776739 -345.13354492 154.35839844 C-339.97534033 154.34698152 -334.81734337 154.35358454 -329.65914631 154.36554337 C-325.68459001 154.37277217 -321.71008292 154.37046973 -317.73552513 154.36528778 C-315.83334516 154.36395531 -313.9311607 154.3655849 -312.02898598 154.37024689 C-309.372475 154.3753314 -306.7163004 154.36757584 -304.05981445 154.35644531 C-302.88536018 154.36251801 -302.88536018 154.36251801 -301.68717957 154.36871338 C-297.58397884 154.33689813 -294.2651984 154.08839207 -290.6328125 152.09765625 C-287.30035867 147.14970372 -286.48853714 141.47129087 -285.3203125 135.72265625 C-280.9304702 115.44185313 -272.96710718 98.09009465 -259.6328125 82.09765625 C-258.78976562 81.08058594 -258.78976562 81.08058594 -257.9296875 80.04296875 C-244.38792253 65.20174148 -222.28899887 57.26135779 -202.6328125 56.09765625 C-197.44553062 56.07755051 -192.25995447 56.21625867 -187.07617188 56.40039062 C-186.04685547 56.41779297 -185.01753906 56.43519531 -183.95703125 56.453125 C-183.02979248 56.48043701 -182.10255371 56.50774902 -181.1472168 56.53588867 C-176.9102156 55.79742696 -175.18184531 52.82379641 -172.6953125 49.53515625 C-169.75092823 46.05542939 -167.19693776 44.29084415 -162.6184082 43.7253418 C-161.52616943 43.72832275 -160.43393066 43.73130371 -159.30859375 43.734375 C-157.51905273 43.7353418 -157.51905273 43.7353418 -155.69335938 43.73632812 C-154.45650391 43.75244141 -153.21964844 43.76855469 -151.9453125 43.78515625 C-150.69685547 43.78193359 -149.44839844 43.77871094 -148.16210938 43.77539062 C-138.89985602 43.83061273 -138.89985602 43.83061273 -136.6328125 46.09765625 C-135.51544987 53.07659333 -138.7453673 57.62808347 -142.2578125 63.47265625 C-143.45794698 65.52941386 -144.65713311 67.58672506 -145.85546875 69.64453125 C-146.47953613 70.70607422 -147.10360352 71.76761719 -147.74658203 72.86132812 C-150.80388318 78.10693828 -153.74472648 83.41653964 -156.6953125 88.72265625 C-160.96806365 96.37079849 -165.27600922 103.99710694 -169.6328125 111.59765625 C-170.59654424 113.28504771 -171.5600831 114.97254934 -172.5234375 116.66015625 C-174.18033496 119.56243416 -175.84272742 122.46124721 -177.51367188 125.35546875 C-179.4799553 128.76395216 -181.43222155 132.18017352 -183.3828125 135.59765625 C-184.00414062 136.66693359 -184.62546875 137.73621094 -185.265625 138.83789062 C-185.83539062 139.84142578 -186.40515625 140.84496094 -186.9921875 141.87890625 C-187.50233398 142.76642578 -188.01248047 143.65394531 -188.53808594 144.56835938 C-189.71891283 147.29658565 -189.85598539 149.1581127 -189.6328125 152.09765625 C-185.32325304 154.2111972 -181.37250814 154.39397937 -176.66479492 154.38818359 C-175.87712234 154.39490082 -175.08944977 154.40161804 -174.27790833 154.40853882 C-171.68130127 154.42749192 -169.08495312 154.43144178 -166.48828125 154.43359375 C-164.67613114 154.44002404 -162.86398206 154.44675257 -161.05183411 154.45376587 C-157.25482782 154.46573226 -153.45791248 154.4694474 -149.66088867 154.46826172 C-144.8087572 154.46805868 -139.95721242 154.49534806 -135.10521984 154.52980614 C-131.36214042 154.55210646 -127.61920143 154.55609828 -123.87606239 154.55504227 C-122.08798516 154.55739399 -120.2999038 154.56619331 -118.51189232 154.581707 C-116.00385529 154.60142893 -113.49707338 154.59550514 -110.98901367 154.58349609 C-110.25887054 154.59473511 -109.52872742 154.60597412 -108.77645874 154.61755371 C-103.36054548 154.55206162 -99.16706469 153.08613322 -94.6328125 150.09765625 C-92.65792642 147.88370612 -92.65792642 147.88370612 -91.46484375 145.265625 C-90.97105225 144.31421631 -90.47726074 143.36280762 -89.96850586 142.38256836 C-89.46585205 141.36042236 -88.96319824 140.33827637 -88.4453125 139.28515625 C-87.32000998 137.10167684 -86.1923449 134.91941366 -85.0625 132.73828125 C-84.49499023 131.62904297 -83.92748047 130.51980469 -83.34277344 129.37695312 C-80.72187627 124.35069802 -77.8969306 119.44767334 -75.0703125 114.53515625 C-70.2183895 106.03430836 -65.63306791 97.42354379 -61.15209961 88.72241211 C-57.12427521 80.94101222 -52.83829415 73.3274294 -48.48828125 65.72265625 C-44.71277728 59.09074473 -41.12667174 52.38172013 -37.6328125 45.59765625 C-33.45183409 37.48759082 -29.12163447 29.47925652 -24.6328125 21.53515625 C-24.09269531 20.57738281 -23.55257813 19.61960937 -22.99609375 18.6328125 C-12.34891811 -0.08690689 -12.34891811 -0.08690689 0 0 Z M-604.1328125 67.78515625 C-605.52683948 68.97845393 -606.92138649 70.17114432 -608.31640625 71.36328125 C-609.02522949 71.98009766 -609.73405273 72.59691406 -610.46435547 73.23242188 C-613.97333235 76.25072669 -617.58767812 79.136225 -621.1953125 82.03515625 C-625.00152528 85.10907433 -628.79014294 88.20323495 -632.53515625 91.3515625 C-633.10613037 91.83052979 -633.67710449 92.30949707 -634.26538086 92.80297852 C-636.35526315 94.78166907 -636.62536184 96.03060034 -636.9453125 98.91015625 C-636.56116892 102.82842075 -635.34024933 104.31058892 -632.6328125 107.09765625 C-629.76470766 108.53170867 -627.82052222 108.4129665 -624.6328125 108.09765625 C-621.67727542 106.42075832 -621.67727542 106.42075832 -618.8203125 103.97265625 C-618.27407227 103.53397217 -617.72783203 103.09528809 -617.16503906 102.64331055 C-615.3075946 101.14376266 -613.46991634 99.62204194 -611.6328125 98.09765625 C-610.19706078 96.91872723 -608.76084606 95.74036188 -607.32421875 94.5625 C-605.10648323 92.74146832 -602.89156967 90.91742958 -600.68408203 89.08398438 C-596.28370451 85.42992861 -591.83387462 81.88316111 -587.19921875 78.52734375 C-585.35429388 76.84344724 -584.51304525 75.43004964 -583.6328125 73.09765625 C-583.76810732 69.30940122 -584.14040271 66.86581552 -586.1953125 63.66015625 C-593.31345826 59.0972423 -598.71699732 62.91898122 -604.1328125 67.78515625 Z M-1039.6328125 88.09765625 C-1040.70345104 89.7675756 -1041.71081982 91.4791449 -1042.6640625 93.21875 C-1043.22158203 94.22671631 -1043.77910156 95.23468262 -1044.35351562 96.27319336 C-1044.94068359 97.34964111 -1045.52785156 98.42608887 -1046.1328125 99.53515625 C-1047.38203362 101.79600346 -1048.63204729 104.05641291 -1049.8828125 106.31640625 C-1050.82253906 108.01990234 -1050.82253906 108.01990234 -1051.78125 109.7578125 C-1054.52485583 114.70672175 -1057.32251922 119.62388987 -1060.1328125 124.53515625 C-1060.83374023 125.76480103 -1060.83374023 125.76480103 -1061.54882812 127.01928711 C-1064.41804663 132.03580166 -1067.37739595 136.98381588 -1070.42822266 141.89233398 C-1071.90099526 144.58863617 -1072.47164932 147.0355558 -1072.6328125 150.09765625 C-1069.83410311 152.38980372 -1069.83410311 152.38980372 -1066.7578125 151.97265625 C-1062.21556006 150.70082557 -1059.54503431 148.44911512 -1056.91040039 144.54589844 C-1056.39727295 143.58844727 -1055.88414551 142.63099609 -1055.35546875 141.64453125 C-1054.76596436 140.56115479 -1054.17645996 139.47777832 -1053.5690918 138.36157227 C-1052.95074463 137.20197998 -1052.33239746 136.0423877 -1051.6953125 134.84765625 C-1050.37501255 132.41120935 -1049.0468097 129.97909888 -1047.71875 127.546875 C-1047.38278305 126.92928818 -1047.0468161 126.31170135 -1046.70066833 125.67539978 C-1042.6372183 118.22747051 -1038.33241852 110.92366254 -1034.02563477 103.61425781 C-1033.47705811 102.68194336 -1032.92848145 101.74962891 -1032.36328125 100.7890625 C-1031.88270264 99.97638916 -1031.40212402 99.16371582 -1030.90698242 98.32641602 C-1027.85334736 93.06662563 -1027.85334736 93.06662563 -1027.6328125 87.09765625 C-1028.71614583 85.18098958 -1028.71614583 85.18098958 -1030.6328125 84.09765625 C-1035.23201126 83.27215904 -1036.66301897 84.74234693 -1039.6328125 88.09765625 Z M-208.6328125 88.09765625 C-209.75504184 89.87755626 -210.81071055 91.70041354 -211.8125 93.55078125 C-212.40506592 94.63367432 -212.99763184 95.71656738 -213.6081543 96.83227539 C-214.2350415 97.99235107 -214.86192871 99.15242676 -215.5078125 100.34765625 C-216.84067177 102.7914733 -218.17921029 105.23214352 -219.51953125 107.671875 C-219.85900284 108.29070053 -220.19847443 108.90952606 -220.54823303 109.54710388 C-224.55114339 116.81400502 -228.78214034 123.9481125 -233.06396484 131.05371094 C-236.53039651 136.89050196 -239.32010174 142.71284542 -241.6328125 149.09765625 C-240.31423146 150.66144746 -240.31423146 150.66144746 -238.6328125 152.09765625 C-233.69215502 151.99025065 -231.22486006 150.3466687 -227.6328125 147.09765625 C-225.91264446 144.68904739 -225.91264446 144.68904739 -224.50390625 141.9765625 C-223.94960937 140.96875732 -223.3953125 139.96095215 -222.82421875 138.92260742 C-222.24542969 137.84599854 -221.66664062 136.76938965 -221.0703125 135.66015625 C-219.83041749 133.39659263 -218.58951485 131.13358068 -217.34765625 128.87109375 C-216.72745605 127.73510742 -216.10725586 126.59912109 -215.46826172 125.42871094 C-212.75710319 120.50838013 -209.94505666 115.64815338 -207.1328125 110.78515625 C-203.03841533 103.67126651 -199.13847015 96.52411521 -195.6328125 89.09765625 C-198.1831132 85.31502917 -198.1831132 85.31502917 -202.1328125 83.53515625 C-205.41093953 84.27273483 -206.41561064 85.59475709 -208.6328125 88.09765625 Z " fill="#000000" transform="translate(1564.6328125,940.90234375)"/>
<path d="M0 0 C0.66 0 1.32 0 2 0 C4.167518 5.43137912 5.71221013 10.62590901 6.796875 16.36328125 C7.11511145 17.9755449 7.43356059 19.58776657 7.75219727 21.19995117 C7.99596603 22.45175674 7.99596603 22.45175674 8.24465942 23.72885132 C17.89819815 73.08438259 31.5694853 113.69376289 66.3046875 151.0859375 C68.777392 153.75932527 71.20626381 156.46536833 73.625 159.1875 C77.28900952 163.27985596 81.11500586 167.16547164 85.0546875 170.9921875 C90 176.09638554 90 176.09638554 90 181 C80.26274423 184.44478388 65.18093892 174.64362462 56.41113281 170.57666016 C52.25663112 168.65640737 48.09361003 166.75518671 43.9296875 164.85546875 C37.60259513 161.9682679 31.27667541 159.07854505 24.953125 156.18359375 C24.2509787 155.8621489 23.5488324 155.54070404 22.82540894 155.20951843 C21.21690885 154.47307878 19.60844935 153.73655046 18 153 C17.33689727 243.27970744 23.03572283 330.73461063 100.66650391 479.84204102 C102.52526494 482.85002139 104.2563933 485.92384892 106 489 C98.18575454 489.30220635 90.37289339 489.53266764 82.55426025 489.67355824 C78.92257344 489.74121482 75.29490184 489.83279899 71.66552734 489.98071289 C68.15733092 490.12278087 64.65297218 490.19983856 61.14212036 490.23340416 C59.16238407 490.26886169 57.18418037 490.370244 55.20678711 490.47285461 C51.39909577 490.47591753 48.57626216 490.32279727 45 489 C41.35942257 485.04732774 39.24677958 480.84888911 37 476 C36.29130166 474.71522923 35.57465939 473.43471615 34.84179688 472.16357422 C34.30619141 471.1376416 33.77058594 470.11170898 33.21875 469.0546875 C32.60878174 467.88671631 31.99881348 466.71874512 31.37036133 465.51538086 C30.74576612 464.3025077 30.12233718 463.08903332 29.5 461.875 C29.0106044 460.92175339 29.0106044 460.92175339 28.51132202 459.94924927 C18.50049673 440.39555403 11.26860877 420.44408697 4.44140625 399.59765625 C4.20951599 398.8911795 3.97762573 398.18470276 3.7387085 397.45681763 C2.72008829 394.32608237 1.73156294 391.21157674 1 388 C-0.95198887 392.98912945 -2.67400904 398.01996927 -4.3125 403.12109375 C-12.24899661 427.80182623 -21.68205259 451.46215168 -34.45123291 474.11131287 C-36.05145455 476.99310961 -36.05145455 476.99310961 -37.32344055 480.10374451 C-38.92896106 483.5214681 -40.4605758 486.19491528 -43 489 C-47.69105627 490.65455011 -52.10190396 490.40686644 -57.02734375 490.171875 C-58.38489749 490.14946209 -59.74254904 490.13239528 -61.10023499 490.12042236 C-64.65558039 490.0748312 -68.20493875 489.95721945 -71.75793457 489.82397461 C-75.39053314 489.70068395 -79.02411067 489.64630226 -82.65820312 489.5859375 C-89.77456946 489.45765769 -96.88689186 489.25317672 -104 489 C-102.66360558 485.5641916 -101.22861606 482.58952672 -99.19921875 479.5078125 C-98.36173096 478.22112671 -98.36173096 478.22112671 -97.50732422 476.90844727 C-96.90678223 475.98990967 -96.30624023 475.07137207 -95.6875 474.125 C-83.62701731 455.40492502 -73.04087382 435.86687222 -63 416 C-62.5982959 415.2073877 -62.1965918 414.41477539 -61.78271484 413.59814453 C-26.42163304 343.19237747 -16.37997867 264.17891816 -16.8626709 186.27630615 C-16.88370195 182.49998374 -16.89238256 178.72363057 -16.90234375 174.94726562 C-16.9233408 167.63143224 -16.95713689 160.31574162 -17 153 C-17.87850113 153.41095413 -18.75700226 153.82190826 -19.66212463 154.24531555 C-26.03161717 157.22437261 -32.40205156 160.20133945 -38.77734375 163.16796875 C-43.81670704 165.51319346 -48.85045002 167.86972491 -53.87890625 170.23828125 C-81.25373552 183.06567053 -81.25373552 183.06567053 -89 181 C-88.47565011 177.11813958 -87.61577615 175.10572431 -84.90234375 172.29296875 C-83.95294922 171.29523438 -83.95294922 171.29523438 -82.984375 170.27734375 C-82.30890625 169.58769531 -81.6334375 168.89804688 -80.9375 168.1875 C-80.25300781 167.47335938 -79.56851563 166.75921875 -78.86328125 166.0234375 C-74.85452707 161.854638 -70.77930507 157.75500545 -66.66796875 153.6875 C-63.6116056 150.59534806 -60.79427557 147.32923911 -58 144 C-57.53432617 143.44812012 -57.06865234 142.89624023 -56.58886719 142.32763672 C-27.85496408 108.13554678 -16.10724116 70.21224357 -7.3359375 26.859375 C-7.2012204 26.19609192 -7.0665033 25.53280884 -6.92770386 24.84942627 C-6.28419319 21.67336609 -5.65294655 18.49569613 -5.04052734 15.31347656 C-3.94220542 9.769116 -2.94967464 4.85828764 0 0 Z " fill="#000000" transform="translate(958,0)"/>
<path d="M0 0 C36.11870946 -2.69096345 72.77935054 20.31396817 99.06933594 42.70214844 C112.72750621 54.47081632 125.87477818 66.77006511 137 81 C137.62390625 81.76828125 138.2478125 82.5365625 138.890625 83.328125 C139.44234375 84.02421875 139.9940625 84.7203125 140.5625 85.4375 C141.03816406 86.03433594 141.51382813 86.63117188 142.00390625 87.24609375 C143 89 143 89 143 93 C139.40375125 92.42154361 136.65943942 91.47214185 133.48046875 89.70703125 C132.630896 89.24425781 131.78132324 88.78148437 130.90600586 88.3046875 C130.00889893 87.81226563 129.11179199 87.31984375 128.1875 86.8125 C112.46935242 78.39250088 96.87089529 72.58974222 79 71 C79.60585938 72.07894531 80.21171875 73.15789062 80.8359375 74.26953125 C83.57872177 79.16791373 86.29167555 84.0825027 89 89 C89.40573242 89.73186523 89.81146484 90.46373047 90.22949219 91.21777344 C103.235955 114.78587523 113.84527801 139.71182212 123 165 C123.34192383 165.92603027 123.68384766 166.85206055 124.03613281 167.80615234 C139.1020243 208.91828564 146.23102678 252.76048712 152.4375 295.9375 C152.56346558 296.81218933 152.68943115 297.68687866 152.81921387 298.58807373 C153.17599421 301.08784826 153.52532513 303.5885243 153.87109375 306.08984375 C153.9717363 306.80165298 154.07237885 307.51346222 154.17607117 308.24684143 C155.06702957 314.83820681 155.48682662 321.32874612 156 328 C137.52 328 119.04 328 100 328 C99.608125 321.503125 99.21625 315.00625 98.8125 308.3125 C92.30458773 208.22997543 74.06038219 110.13262195 11.7421875 22.8515625 C9.00794419 19.02981406 6.34295497 15.16900397 3.75 11.25 C3.02296875 10.16203125 2.2959375 9.0740625 1.546875 7.953125 C-0.03164498 4.93958687 -0.37069704 3.33627332 0 0 Z " fill="#000000" transform="translate(641,160)"/>
<path d="M0 0 C1.25425781 0.00902344 2.50851562 0.01804688 3.80078125 0.02734375 C4.75339844 0.03894531 5.70601562 0.05054688 6.6875 0.0625 C6.21729414 5.02714108 5.38285892 8.18695151 2.5 12.25 C1.77554687 13.2915625 1.05109375 14.333125 0.3046875 15.40625 C-1.06557945 17.32740491 -2.44260987 19.24362509 -3.81933594 21.16015625 C-61.94511588 102.23310583 -83.81289464 194.67218411 -93.3125 328.0625 C-111.7925 328.0625 -130.2725 328.0625 -149.3125 328.0625 C-147.0062189 303.84654847 -147.0062189 303.84654847 -145.83203125 296.21484375 C-145.69871902 295.3215184 -145.5654068 294.42819305 -145.42805481 293.50779724 C-145.00134423 290.6706368 -144.56458203 287.8351929 -144.125 285 C-143.97254822 284.00937561 -143.82009644 283.01875122 -143.6630249 281.99810791 C-132.43479246 209.31145206 -113.68404749 133.11982124 -72.3125 71.0625 C-93.04974987 72.83648303 -112.42158091 80.75834315 -130.23828125 91.3671875 C-133.3125 93.0625 -133.3125 93.0625 -136.3125 93.0625 C-134.58664814 80.60538979 -120.67301386 69.67733478 -112.3125 61.0625 C-111.80831543 60.54171875 -111.30413086 60.0209375 -110.78466797 59.484375 C-105.51839893 54.06742853 -100.111894 48.90308568 -94.3125 44.0625 C-93.76352051 43.59972656 -93.21454102 43.13695312 -92.64892578 42.66015625 C-78.46956459 30.74310341 -64.12838177 20.8695649 -47.3125 13.0625 C-46.19617187 12.52882812 -45.07984375 11.99515625 -43.9296875 11.4453125 C-30.51118717 5.32292346 -14.84803282 -0.13876666 0 0 Z " fill="#000000" transform="translate(1270.3125,159.9375)"/>
<path d="M0 0 C83.82 0 167.64 0 254 0 C251.56454736 3.65317896 250.49761834 3.69984679 246.35546875 4.796875 C245.20941162 5.11205078 244.06335449 5.42722656 242.88256836 5.75195312 C241.6631958 6.08130859 240.44382324 6.41066406 239.1875 6.75 C220.79309403 11.97154476 202.79580923 20.06251144 192.96875 37.5 C184.57691852 53.15327876 181.68796789 68.08021407 179 86 C144.68 86 110.36 86 75 86 C73.68 78.08 72.36 70.16 71 62 C65.41160257 42.21405234 56.45889947 26.51738979 38.4765625 15.92578125 C28.84762585 10.59199949 18.94894862 7.7339701 8.30078125 5.1418457 C6.90859375 4.78932739 6.90859375 4.78932739 5.48828125 4.4296875 C4.64821533 4.22585449 3.80814941 4.02202148 2.94262695 3.81201172 C1.98102661 3.41006592 1.98102661 3.41006592 1 3 C0.67 2.01 0.34 1.02 0 0 Z " fill="#000000" transform="translate(832,602)"/>
<path d="M0 0 C158.73 0 317.46 0 481 0 C481 6.27 481 12.54 481 19 C322.27 19 163.54 19 0 19 C0 12.73 0 6.46 0 0 Z " fill="#000000" transform="translate(718,569)"/>
<path d="M0 0 C158.73 0 317.46 0 481 0 C481 6.27 481 12.54 481 19 C322.27 19 163.54 19 0 19 C0 12.73 0 6.46 0 0 Z " fill="#000000" transform="translate(718,501)"/>
<path d="M0 0 C36.96 0 73.92 0 112 0 C112 24.75 112 49.5 112 75 C75.04 75 38.08 75 0 75 C0 50.25 0 25.5 0 0 Z " fill="#000000" transform="translate(903,752)"/>
<path d="M0 0 C143.22 0 286.44 0 434 0 C434 6.27 434 12.54 434 19 C290.78 19 147.56 19 0 19 C0 12.73 0 6.46 0 0 Z " fill="#000000" transform="translate(742,535)"/>
<path d="M0 0 C48.51 0 97.02 0 147 0 C147 12.21 147 24.42 147 37 C98.49 37 49.98 37 0 37 C0 24.79 0 12.58 0 0 Z " fill="#000000" transform="translate(885,702)"/>
<path d="M0 0 C17.49 0 34.98 0 53 0 C53 12.87 53 25.74 53 39 C41.58584957 41.28283009 27.3230219 42.07236582 17 36 C8.01119991 29.71717087 3.48763359 22.57244277 1 12 C0.67 8.04 0.34 4.08 0 0 Z " fill="#000000" transform="translate(1121,602)"/>
<path d="M0 0 C17.49 0 34.98 0 53 0 C50.04370328 23.65037378 50.04370328 23.65037378 40 33 C32.22461326 39.03051649 24.5201876 40.32284606 14.875 40.1875 C13.99457031 40.18685547 13.11414063 40.18621094 12.20703125 40.18554688 C7.88825241 40.1562339 4.29244208 39.85848842 0 39 C0 26.13 0 13.26 0 0 Z " fill="#000000" transform="translate(744,602)"/>
<path d="M0 0 C4.12593192 2.87855716 7.06537651 6.00862953 8.6875 10.875 C9.1954081 17.09687421 9.44104356 22.62003901 5.6875 27.875 C0.11386868 33.32972719 -3.67224183 34.22951204 -11.328125 34.15625 C-16.63057409 33.65654276 -19.18514655 31.1242295 -22.625 27.3125 C-26.12296257 22.2598874 -25.91028309 16.81131814 -25.3125 10.875 C-23.67080998 5.99454107 -20.56326303 2.70884202 -16.3125 -0.125 C-10.91330143 -1.92473286 -5.37692735 -1.82612627 0 0 Z " fill="#000000" transform="translate(1712.3125,939.125)"/>
</svg>
