<svg xmlns="http://www.w3.org/2000/svg" viewBox="0 0 200 200" fill="currentColor">
  <!-- Maserati Trident -->
  <!-- Trident main staff -->
  <rect x="92" y="30" width="16" height="145" rx="5" opacity="0.95"/>
  <!-- Left outer tine -->
  <path d="M60,30 L60,115 Q60,125 68,130 L90,130 L90,110 L75,108 L75,30 Z" opacity="0.95"/>
  <!-- Right outer tine -->
  <path d="M140,30 L140,115 Q140,125 132,130 L110,130 L110,110 L125,108 L125,30 Z" opacity="0.95"/>
  <!-- Left tine tip -->
  <ellipse cx="67" cy="28" rx="10" ry="6" opacity="0.9"/>
  <!-- Center tip -->
  <ellipse cx="100" cy="26" rx="10" ry="8" opacity="0.9"/>
  <!-- Right tine tip -->
  <ellipse cx="133" cy="28" rx="10" ry="6" opacity="0.9"/>
  <!-- Handle/base decoration -->
  <rect x="80" y="172" width="40" height="8" rx="4" opacity="0.8"/>
  <rect x="85" y="180" width="30" height="5" rx="2.5" opacity="0.6"/>
  <!-- MASERATI text -->
  <text x="100" y="198" font-family="serif" font-size="11" font-weight="900" text-anchor="middle" letter-spacing="3" opacity="0.8">MASERATI</text>
</svg>