<?xml version="1.0" standalone="no"?>
<!DOCTYPE svg PUBLIC "-//W3C//DTD SVG 20010904//EN"
 "http://www.w3.org/TR/2001/REC-SVG-20010904/DTD/svg10.dtd">
<svg version="1.0" xmlns="http://www.w3.org/2000/svg"
 width="600.000000pt" height="600.000000pt" viewBox="0 0 600.000000 600.000000"
 preserveAspectRatio="xMidYMid meet">
<g transform="translate(0.000000,600.000000) scale(0.050000,-0.050000)"
fill="#000000" stroke="none">
<path d="M5558 9174 c-492 -208 -1273 -842 -1784 -1448 -563 -668 -1108 -1680
-1149 -2131 l-11 -116 88 -80 c237 -219 1098 -545 1818 -688 1319 -261 2858
-71 3989 492 433 216 463 283 316 717 -402 1193 -1601 2596 -2722 3187 -236
124 -371 141 -545 67z m477 -243 c1021 -512 2234 -1938 2614 -3075 97 -290 70
-341 -257 -503 -1545 -764 -3755 -757 -5290 16 -297 150 -315 194 -208 519
330 1011 1384 2299 2396 2928 376 233 476 249 745 115z"/>
<path d="M4780 7710 c0 -456 -7 -670 -21 -670 -12 0 -194 103 -405 229 -211
126 -399 234 -417 241 -30 12 -34 -13 -35 -254 -1 -146 -7 -690 -14 -1208
l-14 -941 119 -34 c66 -18 125 -33 131 -33 11 0 31 810 41 1615 3 223 9 405
15 404 5 0 141 -79 300 -176 l290 -176 5 -902 c5 -838 8 -903 40 -912 19 -5
78 -15 130 -23 l95 -12 0 841 c0 462 4 841 8 841 4 0 167 -95 361 -211 194
-116 359 -207 367 -203 8 5 168 99 356 211 189 112 346 203 350 203 5 0 8
-376 8 -835 l0 -835 90 6 c50 3 110 9 135 15 l45 10 0 905 0 905 295 175 295
175 12 -376 c7 -206 14 -661 15 -1010 2 -446 10 -635 25 -635 38 0 237 62 246
76 10 18 -25 2388 -37 2399 -4 5 -195 -103 -424 -240 l-417 -248 -5 679 c-5
605 -9 677 -37 666 -27 -10 -812 -476 -918 -544 -37 -24 -89 2 -528 263 -268
159 -490 289 -494 289 -5 0 -8 -301 -8 -670z m613 3 c178 -106 336 -198 353
-204 16 -6 178 77 376 195 190 113 349 206 353 206 10 0 14 -1048 4 -1056 -32
-28 -701 -414 -717 -414 -11 0 -178 95 -371 211 l-351 211 0 530 c0 292 7 527
15 522 8 -5 160 -95 338 -201z"/>
<path d="M9305 3899 c-632 -113 -788 -686 -256 -941 296 -142 911 -128 911 21
l0 56 -85 -31 c-155 -58 -561 -47 -685 19 -665 354 6 1015 737 726 31 -12 35
-6 30 42 -11 95 -383 156 -652 108z"/>
<path d="M353 3887 c-7 -8 -13 -237 -13 -510 l0 -497 90 0 90 0 0 410 c0 226
5 410 12 410 6 0 118 -101 250 -225 131 -124 247 -225 257 -225 10 0 127 101
258 225 132 124 245 225 251 225 7 0 12 -184 12 -410 l0 -410 90 0 91 0 -6
505 -5 505 -86 6 c-85 6 -89 4 -345 -237 l-258 -244 -216 200 c-118 110 -232
219 -253 243 -38 41 -186 61 -219 29z"/>
<path d="M2785 3875 c-28 -35 -585 -973 -585 -985 0 -5 41 -10 90 -10 87 0 93
4 152 100 l61 100 384 0 383 0 56 -100 c56 -99 57 -100 156 -100 l100 0 -51
85 c-28 47 -165 276 -305 510 l-254 425 -83 0 c-46 0 -93 -11 -104 -25z m265
-423 c83 -142 147 -261 143 -266 -4 -4 -147 -5 -317 -2 l-311 6 153 264 c83
145 159 262 167 260 8 -2 82 -120 165 -262z"/>
<path d="M3720 3889 c0 -7 122 -142 270 -301 l270 -289 0 -209 0 -210 100 0
100 0 0 208 0 208 270 290 c310 333 299 314 175 314 l-96 0 -218 -240 c-120
-132 -224 -240 -230 -240 -7 0 -110 108 -230 240 l-218 240 -97 0 c-53 0 -96
-5 -96 -11z"/>
<path d="M5475 3888 c-8 -8 -15 -238 -15 -511 l0 -497 466 0 c456 0 468 1 565
49 224 112 227 368 6 482 l-57 30 44 60 c87 118 41 263 -109 343 -87 47 -860
84 -900 44z m754 -116 c123 -52 145 -161 53 -254 l-59 -58 -281 0 -282 0 0
170 0 170 251 0 c171 0 272 -9 318 -28z m193 -487 c66 -75 74 -154 23 -218
-64 -78 -111 -87 -454 -87 l-331 0 0 191 0 192 352 -7 351 -6 59 -65z"/>
<path d="M7613 3855 c-74 -118 -573 -960 -573 -967 0 -4 43 -8 95 -8 93 0 96
2 151 100 l56 100 386 0 386 0 54 -100 c54 -99 55 -100 154 -100 55 0 97 7 92
15 -5 8 -141 238 -302 510 l-294 495 -89 0 c-70 0 -94 -9 -116 -45z m285 -408
c78 -134 142 -249 142 -255 0 -7 -140 -12 -312 -12 -285 0 -311 3 -299 34 36
95 297 508 311 493 9 -9 80 -127 158 -260z"/>
<path d="M10454 3888 c-8 -8 -14 -238 -14 -511 l0 -497 100 0 100 0 0 240 0
241 435 -6 435 -5 4 -220 c2 -121 4 -227 5 -235 0 -8 42 -15 91 -15 l91 0 -6
505 -5 505 -88 0 -87 0 4 -215 3 -215 -440 0 -441 0 -5 215 -6 215 -81 6 c-44
3 -87 -1 -95 -8z"/>
</g>
</svg>
