<?xml version="1.0" standalone="no"?>
<!DOCTYPE svg PUBLIC "-//W3C//DTD SVG 20010904//EN"
 "http://www.w3.org/TR/2001/REC-SVG-20010904/DTD/svg10.dtd">
<svg version="1.0" xmlns="http://www.w3.org/2000/svg"
 width="300.000000pt" height="300.000000pt" viewBox="0 0 300.000000 300.000000"
 preserveAspectRatio="xMidYMid meet">
<g transform="translate(0.000000,300.000000) scale(0.100000,-0.100000)"
fill="#000000" stroke="none">
<path d="M1428 2423 c12 -2 30 -2 40 0 9 3 -1 5 -23 4 -22 0 -30 -2 -17 -4z"/>
<path d="M1273 2413 c9 -2 25 -2 35 0 9 3 1 5 -18 5 -19 0 -27 -2 -17 -5z"/>
<path d="M1065 2371 c-52 -25 -44 -25 25 -1 30 11 46 19 35 19 -11 0 -38 -8
-60 -18z"/>
<path d="M1350 2383 c-124 -13 -299 -65 -344 -102 -11 -9 -16 -10 -12 -3 4 6
5 12 1 12 -11 0 -150 -72 -170 -88 -11 -9 -2 3 20 26 22 24 72 61 110 83 39
23 61 38 50 34 -45 -14 -142 -76 -178 -113 l-39 -40 37 -40 c20 -23 52 -46 71
-52 35 -12 35 -11 108 58 123 117 222 155 451 173 297 24 517 -42 653 -196
l45 -52 41 23 c42 24 115 103 83 91 -9 -3 -19 -2 -22 3 -9 15 -22 12 -22 -4 0
-9 7 -12 16 -8 13 4 12 1 -3 -16 l-19 -22 -58 55 c-98 90 -239 150 -414 175
-65 9 -327 11 -405 3z"/>
<path d="M736 2120 c-30 -46 -56 -108 -32 -77 15 20 52 23 59 5 3 -7 6 15 6
50 1 34 -1 62 -3 62 -2 0 -15 -18 -30 -40z"/>
<path d="M2310 2090 l0 -75 -127 -62 c-71 -33 -176 -77 -235 -98 -59 -20 -139
-57 -179 -81 l-72 -45 37 41 c20 22 34 45 31 51 -4 5 -3 8 2 7 4 -2 9 1 10 6
2 15 52 44 196 117 75 38 137 71 137 74 0 3 -15 -2 -32 -11 -18 -10 -85 -38
-148 -64 -192 -77 -210 -93 -309 -274 -48 -88 -58 -100 -56 -73 1 33 34 104
35 77 0 -12 3 -11 11 3 6 10 9 21 6 24 -3 2 1 12 9 21 40 46 64 81 52 77 -7
-3 -40 -42 -72 -86 -58 -79 -59 -82 -58 -143 l2 -61 -34 65 c-19 36 -38 65
-43 65 -4 0 -34 26 -66 57 -65 66 -131 102 -285 157 -134 48 -243 95 -301 132
l-45 28 -12 -37 c-44 -132 -55 -294 -29 -428 20 -105 54 -158 125 -197 40 -22
68 -48 104 -96 41 -57 101 -111 122 -111 3 0 -24 33 -61 73 -124 135 -185 302
-185 503 0 62 4 115 9 118 4 3 31 -5 58 -18 27 -14 83 -34 124 -46 41 -12 102
-30 136 -41 35 -11 69 -17 75 -13 7 4 10 4 6 -1 -4 -4 20 -24 53 -44 80 -47
150 -124 195 -217 24 -48 43 -74 52 -72 8 2 23 25 33 52 48 122 156 228 285
280 30 12 51 26 47 31 -5 4 -3 6 2 2 12 -6 233 56 276 79 15 8 32 14 37 14 17
0 24 -150 12 -240 -6 -47 -22 -115 -34 -152 -25 -70 -106 -202 -131 -212 -8
-3 -15 -12 -15 -19 0 -8 -7 -20 -15 -27 -8 -7 -15 -17 -15 -22 0 -11 35 7 81
43 39 30 55 37 43 17 -5 -8 -1 -9 12 -5 33 12 -64 -70 -114 -96 -128 -66 -291
-97 -511 -97 -160 0 -303 16 -401 46 -162 48 -286 156 -366 318 -24 50 -44 87
-44 81 0 -5 -5 -2 -11 8 -6 9 -14 15 -20 12 -11 -8 -26 31 -44 113 -17 85 -29
92 -20 12 10 -99 43 -219 77 -283 37 -68 135 -179 192 -215 162 -102 338 -143
626 -145 489 -2 779 152 886 469 48 144 51 339 8 484 -17 57 -71 170 -98 205
-14 19 -15 15 -16 -55z m8 -122 c1 -7 10 -44 21 -83 34 -119 24 -291 -23 -427
-29 -83 -55 -126 -66 -108 -10 17 -15 17 -33 1 -16 -12 -16 -10 -2 28 40 116
57 324 35 440 -7 40 -7 56 3 65 7 7 21 32 31 55 19 41 31 52 34 29z m-508
-250 c-14 -7 -54 -27 -89 -47 -36 -19 -61 -29 -57 -23 12 19 135 81 161 81 6
0 -1 -5 -15 -11z m-455 -36 c100 -53 205 -182 180 -223 -9 -13 -58 68 -57 94
1 21 -95 100 -170 140 -29 15 -42 25 -28 21 14 -3 48 -18 75 -32z"/>
<path d="M1015 1994 c17 -14 64 -41 105 -60 41 -19 94 -45 118 -57 41 -21 114
-91 195 -186 59 -71 43 -33 -24 54 -97 128 -118 144 -295 219 -102 44 -123 50
-99 30z"/>
<path d="M762 638 l3 -133 40 0 40 0 -3 98 -4 97 41 0 41 0 0 -95 0 -95 40 0
40 0 0 96 0 95 33 -3 32 -3 3 -92 3 -93 44 0 c40 0 45 3 45 22 l0 22 16 -22
c14 -21 21 -22 165 -22 l150 0 82 68 c125 103 167 134 168 125 1 -4 1 -50 0
-100 l-1 -93 116 0 c125 0 146 6 168 48 14 24 15 25 16 6 0 -43 27 -52 158
-56 l122 -3 0 113 c0 151 -1 152 -153 152 l-113 0 1 -32 0 -33 93 -3 c73 -2
92 -6 92 -17 0 -12 -17 -15 -84 -15 -74 0 -87 -3 -99 -20 -14 -20 -15 -18 -22
26 -4 29 -16 56 -30 70 -23 23 -30 24 -166 24 l-142 0 -123 -100 c-68 -55
-126 -100 -129 -100 -3 0 -5 36 -5 80 0 114 -7 120 -150 120 l-110 0 0 -35 0
-35 90 0 c73 0 90 -3 90 -15 0 -12 -16 -15 -80 -15 -67 0 -83 -3 -100 -20 -11
-11 -20 -19 -21 -17 0 1 -1 24 -2 51 -5 81 -16 86 -223 86 l-175 0 3 -132z
m1184 37 c17 -27 12 -73 -9 -87 -7 -4 -33 -8 -59 -8 l-48 0 0 60 0 60 50 0
c42 0 52 -4 66 -25z m-586 -85 c0 -19 -5 -21 -57 -18 -46 2 -59 7 -61 21 -3
15 5 17 57 17 55 0 61 -2 61 -20z m880 0 c0 -19 -5 -21 -57 -18 -46 2 -59 7
-61 21 -3 15 5 17 57 17 55 0 61 -2 61 -20z"/>
<path d="M1462 738 c3 -32 4 -33 55 -36 46 -3 57 1 98 33 l47 35 -102 0 -101
0 3 -32z"/>
<path d="M1568 545 l-38 -35 95 0 95 0 0 35 0 35 -57 0 c-52 -1 -62 -4 -95
-35z"/>
</g>
</svg>
