<?xml version="1.0" standalone="no"?>
<!DOCTYPE svg PUBLIC "-//W3C//DTD SVG 20010904//EN"
 "http://www.w3.org/TR/2001/REC-SVG-20010904/DTD/svg10.dtd">
<svg version="1.0" xmlns="http://www.w3.org/2000/svg"
 width="600.000000pt" height="600.000000pt" viewBox="0 0 600.000000 600.000000"
 preserveAspectRatio="xMidYMid meet">
<g transform="translate(0.000000,600.000000) scale(0.100000,-0.100000)"
fill="#000000" stroke="none">
<path d="M5510 3660 c-238 -33 -541 -128 -835 -263 -145 -66 -285 -136 -274
-137 4 0 55 11 115 24 191 43 326 59 464 53 168 -7 231 -29 284 -100 44 -60
11 -208 -70 -314 -14 -18 -21 -33 -16 -33 15 0 304 200 401 277 199 160 291
273 299 366 3 47 1 55 -25 78 -15 15 -44 32 -63 38 -47 16 -199 22 -280 11z
m276 -49 c49 -22 70 -63 59 -118 l-7 -38 -17 44 c-20 56 -70 96 -141 115 l-55
15 60 0 c38 0 75 -6 101 -18z"/>
<path d="M321 3026 c-94 -117 -171 -216 -171 -220 0 -3 69 -6 154 -6 l153 0
84 92 84 92 5 -90 5 -89 126 -3 127 -3 83 92 84 92 5 -89 5 -89 138 -3 137 -3
0 221 0 220 -157 0 -157 0 -68 -67 -68 -67 0 67 0 67 -199 0 -199 0 -171 -214z"/>
<path d="M1962 3023 l3 -218 263 -3 262 -2 0 30 c0 16 1 30 3 30 1 0 29 -14
61 -30 49 -25 71 -30 131 -30 39 0 94 7 121 15 43 13 50 13 60 0 9 -12 37 -15
133 -15 l121 0 0 180 0 180 -123 0 c-74 0 -127 -4 -134 -11 -7 -7 -28 -6 -71
5 -178 47 -318 -8 -340 -133 -4 -23 -10 -42 -14 -41 -5 0 -46 0 -93 0 l-85 0
0 130 0 130 -150 0 -150 0 2 -217z m906 -10 c23 -31 11 -75 -26 -96 -57 -33
-132 1 -132 61 0 22 37 58 65 64 29 6 78 -9 93 -29z"/>
<path d="M1597 3170 c-60 -11 -121 -34 -160 -62 -40 -29 -71 -100 -62 -145 9
-47 64 -106 128 -134 46 -21 67 -24 182 -24 72 0 156 6 188 13 l57 13 0 54 0
54 -117 -6 c-96 -4 -125 -3 -156 11 -46 19 -47 44 -2 66 22 10 63 14 153 13
l123 -1 -3 61 -3 62 -55 12 c-76 17 -216 23 -273 13z"/>
<path d="M4670 3169 c-30 -4 -74 -15 -97 -23 -38 -13 -43 -13 -43 0 0 12 -20
14 -127 12 l-128 -3 0 -175 0 -175 128 -3 127 -3 0 104 c0 102 1 104 25 115
36 17 86 15 113 -4 20 -14 22 -23 22 -115 l0 -99 125 0 125 0 0 139 c0 135 -1
141 -25 170 -43 51 -142 75 -245 60z"/>
<path d="M3487 3156 c-20 -8 -44 -19 -53 -26 -13 -11 -16 -10 -21 8 -5 21 -11
22 -129 22 l-124 0 0 -180 0 -180 125 0 124 0 3 66 c3 58 6 69 28 85 14 10 50
21 80 24 l56 6 18 -41 c23 -53 81 -95 168 -121 102 -31 259 -24 343 14 59 27
105 62 105 79 0 13 -71 9 -115 -7 -71 -25 -160 -15 -207 25 l-23 20 183 -3
183 -2 6 23 c17 68 -61 147 -179 183 -58 18 -87 21 -171 17 -112 -6 -180 -26
-241 -73 l-36 -27 0 51 0 51 -42 0 c-24 -1 -60 -7 -81 -14z m490 -77 c26 -10
43 -25 43 -41 0 -5 -34 -8 -76 -8 -66 0 -75 2 -72 17 3 17 42 43 65 43 6 0 24
-5 40 -11z"/>
</g>
</svg>
