<?xml version="1.0" standalone="no"?>
<!DOCTYPE svg PUBLIC "-//W3C//DTD SVG 20010904//EN"
 "http://www.w3.org/TR/2001/REC-SVG-20010904/DTD/svg10.dtd">
<svg version="1.0" xmlns="http://www.w3.org/2000/svg"
 width="600.000000pt" height="589.000000pt" viewBox="0 0 600.000000 589.000000"
 preserveAspectRatio="xMidYMid meet">
<g transform="translate(0.000000,589.000000) scale(0.100000,-0.100000)"
fill="#000000" stroke="none">
<path d="M2820 5586 c-514 -78 -948 -334 -1266 -746 -250 -324 -385 -726 -386
-1150 0 -192 14 -317 57 -485 158 -628 632 -1141 1245 -1348 192 -65 330 -89
551 -94 218 -6 331 4 509 43 215 48 428 140 622 271 108 71 256 190 257 206 1
4 -32 -20 -71 -54 -101 -85 -241 -181 -340 -234 -93 -49 -228 -108 -234 -102
-2 2 32 18 77 37 207 85 428 237 604 415 126 128 223 257 313 417 34 62 62
108 62 104 0 -19 -95 -185 -157 -273 -35 -51 -91 -124 -124 -163 -34 -38 -58
-70 -55 -70 21 0 196 227 264 342 169 287 249 568 259 908 11 360 -51 643
-205 944 -152 297 -376 548 -653 732 -196 130 -466 240 -704 286 -139 26 -492
34 -625 14z m570 -19 c240 -41 494 -133 668 -244 29 -18 54 -33 57 -33 3 0 13
-6 22 -14 10 -8 47 -36 83 -63 68 -50 210 -182 210 -195 0 -4 34 -51 76 -104
83 -107 131 -179 167 -251 23 -46 26 -80 6 -67 -5 3 -9 0 -9 -5 0 -6 5 -11 11
-11 6 0 9 -7 5 -15 -3 -8 0 -15 6 -15 6 0 9 -3 6 -6 -3 -3 9 -39 28 -79 50
-108 91 -223 118 -333 45 -180 51 -237 50 -467 0 -198 -3 -233 -27 -346 -155
-736 -720 -1287 -1462 -1425 -143 -27 -498 -27 -640 0 -176 33 -353 92 -523
174 -34 17 -64 27 -67 22 -3 -5 1 -11 7 -14 7 -3 0 -3 -17 0 -23 4 -27 3 -15
-5 8 -6 11 -11 5 -12 -5 0 -18 -2 -27 -4 -10 -2 -18 1 -18 6 0 5 -7 9 -16 9
-20 0 -137 77 -219 144 -136 111 -378 385 -416 470 -5 12 -19 37 -30 56 -94
155 -169 354 -215 570 -23 107 -15 93 22 -39 106 -382 270 -647 544 -882 41
-36 98 -80 125 -99 39 -26 27 -12 -53 65 -285 272 -457 580 -539 964 -25 116
-27 144 -27 356 0 211 2 241 27 356 67 318 205 599 411 840 17 19 5 9 -26 -24
-32 -33 -89 -105 -127 -161 -153 -225 -243 -450 -297 -741 -9 -51 -25 -102
-36 -118 -11 -16 -29 -50 -39 -75 -23 -59 -24 -40 -5 128 82 725 566 1341
1250 1591 109 40 292 85 401 98 50 6 104 13 120 15 59 8 342 -3 425 -17z
m1607 -1819 c-3 -7 -5 -2 -5 12 0 14 2 19 5 13 2 -7 2 -19 0 -25z m0 -185 c-2
-16 -4 -5 -4 22 0 28 2 40 4 28 2 -13 2 -35 0 -50z m-10 -125 c-3 -7 -5 -2 -5
12 0 14 2 19 5 13 2 -7 2 -19 0 -25z m-3790 0 c-3 -8 -6 -5 -6 6 -1 11 2 17 5
13 3 -3 4 -12 1 -19z m3780 -70 c-3 -7 -5 -2 -5 12 0 14 2 19 5 13 2 -7 2 -19
0 -25z m-10 -50 c-3 -7 -5 -2 -5 12 0 14 2 19 5 13 2 -7 2 -19 0 -25z m-12
-68 c-9 -41 -17 -33 -9 9 4 17 9 30 11 27 3 -2 2 -19 -2 -36z m-21 -84 c-3
-15 -8 -25 -11 -23 -2 3 -1 17 3 31 3 15 8 25 11 23 2 -3 1 -17 -3 -31z m-17
-53 c-4 -3 -7 0 -7 7 0 7 3 10 7 7 3 -4 3 -10 0 -14z m-10 -30 c-4 -3 -7 0 -7
7 0 7 3 10 7 7 3 -4 3 -10 0 -14z m-37 -108 c-18 -47 -36 -88 -40 -90 -4 -3 9
38 29 90 19 51 37 92 39 90 2 -2 -11 -42 -28 -90z m-1130 -1095 c-8 -5 -22 -9
-30 -9 -10 0 -8 3 5 9 27 12 43 12 25 0z m-60 -19 c-20 -12 -141 -43 -146 -38
-3 2 28 13 68 24 83 23 99 26 78 14z m-167 -48 c-7 -2 -19 -2 -25 0 -7 3 -2 5
12 5 14 0 19 -2 13 -5z m-50 -10 c-7 -2 -19 -2 -25 0 -7 3 -2 5 12 5 14 0 19
-2 13 -5z m-60 -10 c-7 -2 -19 -2 -25 0 -7 3 -2 5 12 5 14 0 19 -2 13 -5z
m-55 -10 c-10 -2 -26 -2 -35 0 -10 3 -2 5 17 5 19 0 27 -2 18 -5z m-331 -9
c-3 -3 -12 -4 -19 -1 -8 3 -5 6 6 6 11 1 17 -2 13 -5z m206 -1 c-13 -2 -35 -2
-50 0 -16 2 -5 4 22 4 28 0 40 -2 28 -4z"/>
<path d="M2930 5439 c-547 -49 -1049 -359 -1342 -831 -235 -379 -320 -856
-227 -1283 21 -100 73 -270 87 -289 5 -6 15 -27 22 -46 8 -19 28 -56 44 -82
17 -26 52 -84 79 -130 74 -130 140 -213 276 -348 134 -134 255 -225 398 -300
85 -45 161 -71 148 -50 -3 6 1 10 9 10 9 0 16 7 16 15 0 19 -5 19 71 -5 570
-183 1137 -97 1584 239 130 98 277 249 361 372 37 54 53 69 86 78 23 7 37 16
32 21 -8 8 -131 78 -764 435 -129 73 -335 189 -457 258 -122 70 -228 128 -235
129 -14 3 -15 -3 -17 -110 -1 -39 -5 -61 -11 -57 -5 3 -10 21 -10 39 0 18 -3
54 -6 80 -5 37 -10 46 -22 41 -14 -5 -622 -347 -1202 -676 -125 -71 -234 -131
-243 -135 -14 -5 -17 0 -17 28 0 37 -52 -5 645 522 137 104 330 250 428 324
l177 135 45 -17 c25 -10 47 -22 50 -27 4 -5 11 -9 18 -9 6 0 -14 19 -46 42
-46 34 -57 47 -57 70 0 16 41 350 90 743 50 393 90 721 90 729 0 18 38 56 55
56 14 0 24 -392 27 -1040 1 -234 4 -476 7 -538 l6 -113 107 52 108 53 22 -21
c13 -11 190 -145 393 -299 204 -153 459 -346 568 -429 109 -82 209 -158 223
-168 l24 -19 35 77 c102 224 145 406 154 655 l6 175 34 -70 c33 -70 33 -70 28
-186 -15 -316 -140 -655 -340 -928 -22 -31 -33 -50 -24 -43 9 8 50 64 91 125
273 408 366 893 260 1365 -153 683 -699 1218 -1376 1352 -106 20 -302 41 -373
39 -22 -1 -83 -6 -135 -10z m37 -95 c-3 -3 -12 -4 -19 -1 -8 3 -5 6 6 6 11 1
17 -2 13 -5z m-160 -20 c-3 -3 -12 -4 -19 -1 -8 3 -5 6 6 6 11 1 17 -2 13 -5z
m208 -26 c-6 -39 -71 -488 -151 -1054 l-57 -401 -216 -169 c-118 -93 -238
-187 -266 -209 -201 -161 -694 -545 -700 -545 -10 0 -71 140 -104 239 -63 188
-75 273 -75 521 0 194 3 239 22 325 105 482 390 874 809 1113 209 119 483 201
706 210 37 2 38 2 32 -30z m400 1 c574 -114 1055 -537 1239 -1089 67 -200 80
-289 80 -530 0 -186 -3 -229 -23 -320 -37 -174 -137 -446 -161 -438 -5 2 -168
127 -361 278 -193 151 -366 286 -384 300 -51 39 -170 132 -288 224 -59 47
-116 91 -126 98 -15 11 -25 62 -60 313 -114 812 -161 1143 -166 1169 l-5 28
78 -7 c42 -3 122 -15 177 -26z m-658 14 c-4 -3 -10 -3 -14 0 -3 4 0 7 7 7 7 0
10 -3 7 -7z m-62 -13 c-11 -5 -27 -9 -35 -9 -9 0 -8 4 5 9 11 5 27 9 35 9 9 0
8 -4 -5 -9z m-68 -17 c-4 -3 -10 -3 -14 0 -3 4 0 7 7 7 7 0 10 -3 7 -7z m-30
-10 c-4 -3 -10 -3 -14 0 -3 4 0 7 7 7 7 0 10 -3 7 -7z m-30 -10 c-4 -3 -10 -3
-14 0 -3 4 0 7 7 7 7 0 10 -3 7 -7z m1229 -11 c10 3 78 -25 109 -45 11 -6 50
-31 87 -55 218 -138 434 -377 562 -622 61 -119 119 -257 113 -274 -2 -6 -10 7
-17 29 -34 104 -162 327 -253 440 -59 73 -232 243 -305 298 -74 58 -168 117
-238 151 -47 23 -87 56 -69 56 5 0 0 10 -11 22 -13 16 -14 19 -3 10 9 -7 21
-12 25 -10z m-1266 -2 c-8 -5 -19 -10 -25 -10 -5 0 -3 5 5 10 8 5 20 10 25 10
6 0 3 -5 -5 -10z m-50 -20 c-8 -5 -19 -10 -25 -10 -5 0 -3 5 5 10 8 5 20 10
25 10 6 0 3 -5 -5 -10z m1287 3 c-4 -3 -10 -3 -14 0 -3 4 0 7 7 7 7 0 10 -3 7
-7z m-1337 -23 c-8 -5 -19 -10 -25 -10 -5 0 -3 5 5 10 8 5 20 10 25 10 6 0 3
-5 -5 -10z m-130 -61 c-25 -17 -76 -42 -68 -34 13 14 62 44 73 44 6 0 3 -4 -5
-10z m-80 -43 c0 -2 -25 -21 -55 -41 -182 -120 -317 -258 -488 -495 -14 -20
-16 -21 -7 -3 27 58 168 229 267 323 105 101 283 237 283 216z m-575 -596 c-9
-16 -18 -30 -21 -30 -2 0 2 14 11 30 9 17 18 30 21 30 2 0 -2 -13 -11 -30z
m-59 -111 c-13 -27 -27 -53 -31 -57 -8 -8 10 39 30 78 25 49 26 34 1 -21z
m-55 -126 c-12 -20 -14 -14 -5 12 4 9 9 14 11 11 3 -2 0 -13 -6 -23z m-14 -40
c-4 -3 -7 0 -7 7 0 7 3 10 7 7 3 -4 3 -10 0 -14z m3160 -10 c-4 -3 -7 0 -7 7
0 7 3 10 7 7 3 -4 3 -10 0 -14z m-3170 -20 c-4 -3 -7 0 -7 7 0 7 3 10 7 7 3
-4 3 -10 0 -14z m-10 -30 c-4 -3 -7 0 -7 7 0 7 3 10 7 7 3 -4 3 -10 0 -14z
m-10 -30 c-4 -3 -7 0 -7 7 0 7 3 10 7 7 3 -4 3 -10 0 -14z m-10 -40 c-4 -3 -7
0 -7 7 0 7 3 10 7 7 3 -4 3 -10 0 -14z m-10 -30 c-4 -3 -7 0 -7 7 0 7 3 10 7
7 3 -4 3 -10 0 -14z m-20 -105 c-3 -8 -6 -5 -6 6 -1 11 2 17 5 13 3 -3 4 -12
1 -19z m-10 -50 c-3 -8 -6 -5 -6 6 -1 11 2 17 5 13 3 -3 4 -12 1 -19z m1744
-602 c46 -19 167 -68 269 -109 102 -41 277 -113 390 -159 113 -47 300 -122
415 -168 116 -46 214 -86 218 -90 14 -12 -113 -172 -227 -285 -135 -134 -262
-225 -421 -304 -136 -67 -262 -111 -403 -142 -139 -30 -418 -37 -568 -15 -374
55 -696 223 -965 502 -108 113 -196 236 -177 247 14 9 1369 555 1379 556 4 1
44 -14 90 -33z"/>
<path d="M3800 5240 c0 -5 5 -10 11 -10 5 0 7 5 4 10 -3 6 -8 10 -11 10 -2 0
-4 -4 -4 -10z"/>
<path d="M3813 5213 c4 -3 10 -3 14 0 3 4 0 7 -7 7 -7 0 -10 -3 -7 -7z"/>
<path d="M4414 2518 l-19 -23 23 19 c21 18 27 26 19 26 -2 0 -12 -10 -23 -22z"/>
<path d="M2153 2103 c4 -3 10 -3 14 0 3 4 0 7 -7 7 -7 0 -10 -3 -7 -7z"/>
<path d="M4440 2325 c-19 -19 -29 -35 -24 -35 13 0 69 58 63 65 -3 2 -21 -11
-39 -30z"/>
<path d="M614 922 c-28 -19 -394 -500 -394 -518 0 -12 40 -14 229 -14 126 0
237 3 245 6 18 7 406 507 406 523 0 13 -468 16 -486 3z"/>
<path d="M1184 922 c-19 -13 -387 -495 -392 -514 -4 -17 4 -18 111 -18 95 0
118 3 135 18 40 35 393 502 387 512 -7 11 -224 14 -241 2z"/>
<path d="M1337 676 c-108 -140 -197 -262 -197 -270 0 -13 15 -16 88 -16 86 0
89 1 119 33 55 58 373 479 373 493 0 11 -20 14 -93 14 l-93 0 -197 -254z"/>
<path d="M1732 778 c-229 -295 -283 -368 -277 -378 3 -6 33 -10 65 -10 51 0
64 4 89 28 40 37 373 472 379 494 4 16 -4 18 -66 18 l-71 0 -119 -152z"/>
<path d="M2134 922 c-6 -4 -64 -77 -129 -162 -66 -85 -152 -197 -192 -248 -40
-52 -73 -100 -73 -108 0 -21 92 -19 118 4 29 25 392 498 392 511 0 12 -99 15
-116 3z"/>
<path d="M2219 708 c-95 -123 -185 -240 -201 -260 -16 -21 -27 -42 -23 -48 3
-6 49 -10 107 -10 l100 0 31 33 c18 18 44 47 59 65 l26 32 369 -2 368 -3 3
-52 c2 -28 9 -56 17 -63 8 -7 45 -10 97 -8 l83 3 0 265 0 265 -432 3 -432 2
-172 -222z m841 17 l0 -65 -315 0 c-173 0 -315 3 -315 6 0 3 21 32 46 65 l47
59 268 0 269 0 0 -65z"/>
<path d="M3366 914 c-3 -9 -6 -125 -6 -259 0 -196 3 -245 14 -254 9 -8 45 -11
98 -9 l83 3 3 158 c2 118 6 159 15 163 8 3 78 -36 157 -86 l143 -90 89 0 c88
0 90 0 156 44 133 86 217 136 229 136 10 0 13 -37 13 -159 0 -136 2 -160 16
-165 32 -12 161 -6 173 8 8 9 11 88 9 267 l-3 254 -95 3 -95 3 -195 -126
c-125 -81 -202 -125 -215 -122 -11 2 -104 58 -207 125 l-187 122 -95 0 c-76 0
-95 -3 -100 -16z"/>
<path d="M4665 917 c-3 -7 -4 -127 -3 -267 l3 -255 549 -3 c397 -1 553 1 562
9 11 9 14 47 14 159 0 126 -2 149 -16 154 -24 9 -547 7 -562 -3 -9 -5 -12 -24
-10 -52 l3 -44 185 -5 185 -5 3 -33 3 -32 -358 2 -358 3 0 120 0 120 449 3
c320 1 453 6 463 14 10 8 13 29 11 67 l-3 56 -558 3 c-445 2 -559 0 -562 -11z"/>
</g>
</svg>
