<?xml version="1.0" standalone="no"?>
<!DOCTYPE svg PUBLIC "-//W3C//DTD SVG 20010904//EN"
 "http://www.w3.org/TR/2001/REC-SVG-20010904/DTD/svg10.dtd">
<svg version="1.0" xmlns="http://www.w3.org/2000/svg"
 width="640.000000pt" height="640.000000pt" viewBox="0 0 640.000000 640.000000"
 preserveAspectRatio="xMidYMid meet">
<g transform="translate(0.000000,640.000000) scale(0.100000,-0.100000)"
fill="#000000" stroke="none">
<path d="M3010 4851 c-14 -5 -50 -14 -80 -20 -76 -17 -100 -26 -215 -82 -55
-27 -131 -73 -170 -101 -77 -59 -215 -196 -215 -214 0 -7 -4 -14 -8 -16 -13
-5 -54 -67 -100 -154 -23 -42 -52 -115 -52 -128 0 -8 -4 -17 -9 -20 -5 -3 -12
-20 -15 -38 -4 -18 -12 -58 -17 -88 -13 -65 -12 -288 2 -380 10 -69 41 -182
66 -240 35 -81 66 -140 74 -140 5 0 9 -8 9 -17 0 -24 76 -123 159 -208 74 -77
202 -167 295 -210 145 -65 320 -105 461 -105 93 0 241 25 334 56 147 50 297
142 419 257 135 129 243 317 293 512 19 76 23 116 23 255 1 125 -3 183 -17
238 -54 223 -141 378 -301 537 -100 100 -144 133 -257 193 -93 48 -165 75
-282 102 -68 15 -120 20 -230 19 -78 0 -153 -4 -167 -8z m343 -38 c32 -5 62
-14 65 -19 4 -5 22 -10 39 -9 18 0 35 -6 38 -12 2 -7 13 -13 24 -13 11 0 36
-9 56 -20 20 -11 42 -20 50 -20 8 0 15 -4 15 -10 0 -5 7 -10 16 -10 16 0 137
-78 142 -92 2 -4 9 -8 15 -8 16 0 144 -123 182 -175 17 -22 38 -49 48 -59 9
-11 17 -23 17 -28 0 -4 13 -28 29 -53 28 -44 76 -158 99 -235 26 -87 35 -176
28 -284 -7 -132 -24 -223 -59 -328 -34 -100 -84 -192 -153 -283 -69 -93 -155
-172 -259 -239 -159 -103 -320 -154 -512 -164 -205 -9 -374 33 -557 137 -94
54 -217 167 -303 277 -47 62 -122 205 -151 289 -32 94 -52 218 -52 324 -1 83
-3 94 -14 78 -24 -31 -26 5 -6 100 48 231 140 410 291 562 66 66 146 130 202
162 35 20 130 66 162 79 61 25 158 50 193 50 15 0 34 5 42 10 17 12 224 7 313
-7z"/>
<path d="M3015 4765 c-233 -44 -445 -168 -590 -345 -71 -87 -125 -178 -162
-275 -58 -147 -67 -201 -64 -360 3 -204 40 -339 143 -524 31 -57 66 -100 147
-185 151 -156 334 -250 559 -286 72 -12 207 -6 227 10 6 4 30 10 55 13 44 4
145 29 185 45 54 22 162 79 213 112 96 62 266 239 248 257 -4 4 -43 -31 -86
-78 -120 -131 -289 -238 -435 -277 -22 -6 -62 -17 -90 -24 -31 -8 -102 -12
-190 -12 -108 1 -158 7 -220 23 -98 26 -228 87 -311 146 -66 47 -244 230 -244
251 0 7 17 18 38 25 46 15 692 283 731 304 28 14 29 16 20 56 -6 23 -7 55 -4
70 7 33 -10 47 -33 26 -16 -13 -98 -62 -202 -119 -309 -170 -530 -294 -549
-309 -41 -33 -72 -18 -33 16 9 9 89 68 177 132 88 64 185 136 215 159 30 24
105 80 165 125 61 45 112 86 113 91 5 12 19 10 68 -13 57 -26 79 -20 33 9 -20
12 -43 30 -53 40 -16 18 -16 27 -2 118 14 97 24 183 46 374 6 52 15 125 20
162 13 85 13 148 0 148 -5 0 -11 -15 -14 -32 -3 -18 -8 -49 -11 -68 -3 -19
-10 -66 -15 -105 -5 -38 -14 -101 -20 -140 -5 -38 -15 -106 -21 -150 -6 -44
-14 -109 -19 -145 -24 -181 -15 -160 -91 -214 -38 -28 -79 -59 -91 -70 -13
-12 -50 -41 -83 -66 -67 -50 -92 -70 -109 -85 -6 -6 -27 -22 -46 -35 -19 -14
-42 -30 -50 -37 -8 -6 -51 -41 -95 -76 -44 -35 -86 -71 -94 -80 -7 -10 -21
-17 -31 -17 -13 0 -25 22 -48 88 -53 149 -56 169 -57 337 0 139 3 171 24 245
27 97 80 210 139 297 46 68 126 153 192 205 69 54 177 114 255 143 75 27 207
55 260 55 18 0 38 7 45 15 7 8 16 15 20 15 5 0 9 -109 9 -241 1 -133 4 -245 6
-249 8 -12 7 -423 0 -442 -10 -26 15 -23 80 9 l55 27 27 -30 c16 -17 73 -64
128 -105 55 -41 106 -80 115 -87 72 -59 418 -311 428 -312 6 0 12 6 12 14 0 7
11 34 25 59 38 67 75 225 75 317 0 43 3 87 7 97 6 14 10 10 19 -22 l12 -40 1
70 c2 123 -38 284 -100 406 -81 161 -205 301 -351 396 -162 106 -360 164 -552
162 -55 -1 -132 -7 -171 -14z m430 -77 c205 -55 382 -176 512 -348 59 -78 129
-221 155 -315 18 -65 21 -105 21 -215 -1 -89 -7 -159 -18 -205 -9 -38 -19 -82
-22 -98 -3 -15 -9 -30 -14 -33 -5 -3 -9 -16 -9 -29 0 -13 -4 -27 -10 -30 -5
-3 -10 -14 -10 -24 0 -10 -6 -24 -14 -30 -11 -9 -17 -9 -27 2 -12 11 -86 71
-214 172 -21 17 -45 34 -54 39 -9 5 -22 16 -29 23 -7 7 -48 39 -90 70 -42 32
-82 62 -88 68 -6 5 -26 21 -44 35 -18 14 -49 37 -68 53 -19 15 -38 27 -43 27
-24 0 -30 31 -94 513 -19 147 -39 286 -44 309 -6 23 -8 45 -6 48 6 10 119 -7
210 -32z"/>
<path d="M3215 3668 l3 -83 381 -159 c244 -102 381 -164 381 -173 0 -11 8 -9
30 7 31 22 39 40 18 40 -11 0 -181 90 -338 180 -36 20 -144 81 -240 135 -96
54 -187 107 -202 117 -14 10 -28 18 -31 18 -2 0 -3 -37 -2 -82z"/>
<path d="M3696 3151 c-4 -5 -2 -12 3 -15 5 -4 12 -2 15 3 4 5 2 12 -3 15 -5 4
-12 2 -15 -3z"/>
<path d="M332 2163 c2 -10 17 -20 36 -24 18 -4 36 -9 39 -13 3 -3 1 -79 -6
-168 -6 -90 -11 -205 -11 -255 0 -50 -3 -98 -6 -107 -4 -10 -18 -16 -40 -16
-29 0 -34 -4 -34 -23 0 -22 2 -23 98 -22 89 1 97 3 97 21 0 14 -9 20 -35 24
-34 5 -35 6 -35 53 4 411 6 470 15 461 10 -10 83 -213 155 -429 20 -58 39
-100 47 -100 7 0 17 14 22 30 8 27 58 163 105 285 10 25 28 80 41 122 13 42
28 79 34 81 15 6 15 -478 1 -492 -5 -5 -23 -11 -40 -13 -22 -2 -30 -8 -30 -23
0 -16 6 -19 30 -17 59 6 150 5 181 -3 20 -4 34 -3 39 4 11 18 -13 40 -48 43
l-32 3 -6 85 c-9 116 -13 450 -6 457 3 3 21 8 39 12 19 4 34 14 36 24 3 15 -6
17 -83 14 l-86 -2 -46 -115 c-25 -63 -62 -164 -83 -225 -21 -60 -43 -111 -48
-113 -6 -2 -17 21 -26 50 -8 29 -44 132 -79 228 l-64 175 -87 2 c-78 3 -87 1
-84 -14z"/>
<path d="M2978 2173 c-25 -2 -52 -10 -58 -18 -14 -16 -6 -22 40 -27 24 -3 25
-6 30 -88 3 -47 3 -88 0 -93 -3 -4 -19 6 -35 23 -23 25 -37 30 -73 30 -58 0
-105 -29 -139 -87 -21 -36 -27 -63 -31 -123 -6 -106 14 -166 75 -220 40 -35
52 -40 94 -40 39 0 52 5 77 30 17 17 33 30 36 30 3 0 6 -11 6 -24 0 -27 20
-39 41 -25 8 5 33 9 57 9 36 0 43 3 40 18 -2 10 -13 17 -26 18 -13 1 -28 6
-34 12 -7 7 -10 105 -9 296 l2 286 -23 -2 c-13 -1 -44 -3 -70 -5z m-47 -223
c33 -18 52 -70 57 -160 5 -99 -9 -162 -43 -196 -48 -48 -121 -20 -143 54 -14
48 -16 184 -2 231 19 69 77 100 131 71z"/>
<path d="M4234 2169 c-9 -16 6 -29 35 -29 16 0 34 -6 40 -14 8 -9 11 -91 9
-277 l-3 -264 -35 -3 c-44 -4 -57 -16 -40 -37 9 -11 22 -14 44 -10 17 4 90 7
161 8 143 3 172 12 219 67 68 82 50 208 -36 248 -21 9 -38 20 -38 23 0 4 11
14 25 23 35 23 65 75 65 112 0 49 -40 115 -85 138 -35 18 -59 21 -198 22 -86
1 -160 -2 -163 -7z m296 -42 c19 -7 40 -23 47 -37 7 -14 13 -49 13 -77 0 -44
-5 -58 -27 -83 -24 -27 -37 -31 -95 -37 l-68 -6 0 120 c0 66 3 123 7 126 10
11 85 7 123 -6z m42 -289 c10 -5 25 -23 34 -40 11 -22 15 -48 12 -90 -4 -50
-9 -64 -35 -90 -24 -24 -42 -32 -82 -36 -27 -2 -61 -2 -75 2 l-26 6 0 129 c0
70 2 130 5 133 8 8 148 -3 167 -14z"/>
<path d="M2165 1994 c-16 -25 -17 -25 -36 -8 -15 13 -36 18 -74 18 -43 -1 -62
-7 -89 -27 -46 -35 -74 -84 -88 -151 -9 -41 -9 -70 0 -117 6 -34 23 -78 37
-99 34 -49 91 -80 149 -80 41 0 51 5 90 43 26 26 45 56 49 77 14 66 -35 67
-52 2 -26 -96 -127 -107 -173 -19 -16 31 -20 59 -20 131 0 73 4 100 21 138 32
67 90 85 144 46 10 -7 24 -31 31 -53 8 -22 21 -41 30 -43 14 -3 16 9 16 77 0
44 -4 82 -9 85 -5 3 -16 -6 -26 -20z"/>
<path d="M1238 2002 c-14 -2 -47 -21 -71 -43 -55 -47 -77 -106 -77 -198 0 -93
33 -160 96 -201 35 -22 60 -30 93 -30 63 0 127 40 152 93 25 57 25 79 -3 75
-14 -2 -25 -14 -33 -36 -14 -43 -48 -78 -81 -85 -41 -7 -91 11 -113 42 -18 25
-45 140 -35 150 2 2 66 4 141 5 l138 1 -3 42 c-3 60 -35 127 -74 156 -34 25
-82 36 -130 29z m87 -56 c21 -21 45 -81 45 -113 0 -15 6 -14 -107 -15 -61 -1
-88 3 -91 12 -8 23 22 91 51 116 16 13 40 24 53 24 14 0 36 -11 49 -24z"/>
<path d="M1573 2002 c-31 -2 -56 -9 -64 -18 -10 -13 -10 -17 2 -25 8 -5 19 -7
25 -5 6 2 17 0 24 -4 10 -6 13 -49 12 -185 -1 -98 -3 -180 -6 -183 -3 -2 -15
-5 -27 -6 -23 -1 -48 -30 -36 -42 4 -4 31 -1 61 6 44 10 63 11 100 0 24 -7 49
-9 55 -5 19 11 -6 43 -36 47 l-28 3 -3 125 c-2 69 0 139 3 157 8 44 52 95 79
91 17 -2 21 -9 19 -35 -2 -24 2 -35 17 -43 25 -13 56 1 65 30 7 21 -9 58 -34
77 -9 7 -35 13 -57 13 -35 0 -47 -5 -72 -34 -21 -24 -32 -31 -35 -21 -3 7 -3
22 0 33 2 11 1 21 -4 23 -4 2 -31 3 -60 1z"/>
<path d="M3871 1993 c-8 -15 -13 -16 -30 -5 -12 6 -44 12 -72 12 -58 0 -100
-24 -124 -70 -20 -39 -19 -90 3 -118 10 -13 61 -45 113 -71 73 -36 95 -52 97
-70 7 -44 -7 -72 -44 -87 -68 -29 -139 7 -153 78 -5 23 -12 33 -26 33 -16 0
-18 -8 -18 -80 1 -66 4 -81 18 -83 10 -2 19 4 22 17 3 12 7 21 9 21 2 0 18 -9
36 -20 93 -57 228 18 228 126 0 17 -10 44 -22 59 -12 16 -59 46 -105 67 -94
44 -122 74 -105 113 14 30 67 58 97 51 37 -9 66 -39 74 -76 4 -21 13 -35 21
-35 12 0 15 16 15 74 0 76 -13 100 -34 64z"/>
<path d="M4934 2000 c-50 -11 -94 -49 -120 -104 -18 -38 -24 -68 -24 -121 0
-38 4 -86 10 -105 12 -44 61 -104 102 -124 43 -22 116 -20 154 3 42 26 82 79
86 116 2 24 -1 31 -19 33 -18 3 -24 -4 -32 -36 -6 -21 -22 -49 -36 -62 -18
-17 -36 -23 -70 -23 -72 0 -112 49 -117 143 l-3 53 135 1 135 1 3 39 c4 48
-37 137 -76 162 -34 22 -88 32 -128 24z m89 -56 c15 -14 30 -45 36 -72 5 -26
8 -48 6 -50 -2 -2 -48 -4 -102 -5 l-98 -1 3 29 c4 38 29 86 56 107 31 25 69
22 99 -8z"/>
<path d="M5265 1996 c-27 -6 -56 -15 -63 -19 -20 -13 -3 -27 34 -27 l34 0 0
-185 c0 -102 -3 -186 -7 -186 -5 -1 -18 -3 -31 -4 -13 -1 -28 -7 -35 -14 -8
-8 -8 -14 1 -23 9 -9 25 -8 67 2 45 11 62 11 94 0 64 -21 87 10 26 36 l-35 14
0 151 0 151 29 29 c23 22 39 29 69 29 27 0 45 -6 58 -21 17 -18 19 -40 22
-180 l3 -159 -35 -15 c-20 -9 -36 -22 -36 -31 0 -14 6 -15 33 -8 30 7 83 8
152 2 21 -2 30 1 30 12 0 8 -13 19 -30 25 -16 5 -33 14 -37 20 -4 5 -8 80 -8
166 0 143 -2 159 -21 183 -29 37 -70 56 -120 56 -30 0 -52 -8 -78 -27 -20 -15
-38 -26 -41 -23 -3 3 -5 16 -5 29 0 13 -4 25 -10 26 -5 1 -32 -3 -60 -9z"/>
<path d="M2374 1978 c-47 -37 -63 -60 -80 -117 -21 -71 -15 -171 15 -229 14
-27 39 -54 68 -73 60 -37 119 -39 178 -5 67 40 111 146 60 146 -8 0 -20 -12
-25 -27 -28 -76 -56 -98 -123 -97 -58 2 -91 41 -106 125 -6 34 -8 65 -5 68 3
3 65 4 139 2 92 -2 135 1 140 8 10 17 -14 110 -38 150 -30 49 -72 71 -138 71
-43 0 -63 -5 -85 -22z m141 -32 c23 -23 50 -97 43 -118 -2 -5 -46 -10 -101
-12 -97 -1 -97 -1 -97 23 0 14 9 43 20 66 32 66 92 84 135 41z"/>
<path d="M3284 1981 c-36 -22 -66 -62 -82 -110 -17 -49 -15 -175 4 -219 18
-44 57 -87 98 -107 37 -19 109 -19 144 -1 15 8 37 25 49 38 27 28 56 95 48
108 -4 6 -15 10 -25 10 -14 0 -22 -11 -30 -38 -14 -53 -48 -83 -98 -85 -22 0
-52 5 -65 12 -32 17 -58 75 -60 136 l-2 48 135 1 135 1 3 28 c6 48 -26 123
-69 161 -35 33 -45 36 -97 36 -38 0 -67 -6 -88 -19z m120 -22 c28 -13 60 -82
54 -119 -3 -21 -7 -22 -98 -23 -53 0 -95 3 -95 9 1 39 21 88 46 114 33 32 54
37 93 19z"/>
<path d="M5761 1981 c-6 -11 -11 -29 -11 -40 0 -12 -6 -30 -12 -41 -10 -15
-10 -22 -1 -31 16 -16 43 -4 43 18 0 10 9 29 19 42 15 20 30 25 80 29 33 2 67
2 76 -1 12 -5 3 -25 -43 -96 -90 -142 -192 -309 -192 -316 0 -3 73 -4 163 -3
l162 3 13 50 c27 99 27 97 2 93 -15 -2 -26 -15 -35 -42 -8 -21 -19 -44 -25
-50 -12 -12 -151 -26 -163 -16 -8 7 190 338 226 377 11 13 17 26 13 30 -3 4
-74 9 -156 11 -140 3 -149 2 -159 -17z"/>
<path d="M3970 1795 l0 -25 125 0 125 0 0 25 0 25 -125 0 -125 0 0 -25z"/>
</g>
</svg>
