<?xml version="1.0" encoding="UTF-8"?>
<svg version="1.1" xmlns="http://www.w3.org/2000/svg" width="256" height="256">
<path d="M0 0 C84.48 0 168.96 0 256 0 C256 84.48 256 168.96 256 256 C171.52 256 87.04 256 0 256 C0 171.52 0 87.04 0 0 Z " fill="#EDEDED" transform="translate(0,0)"/>
<path d="M0 0 C84.48 0 168.96 0 256 0 C256 66.33 256 132.66 256 201 C251.49426063 196.49426063 251.49426063 196.49426063 249.640625 193.3984375 C249.24746094 192.74359375 248.85429687 192.08875 248.44921875 191.4140625 C248.05347656 190.74117187 247.65773437 190.06828125 247.25 189.375 C246.83878906 188.694375 246.42757812 188.01375 246.00390625 187.3125 C243 182.26274398 243 182.26274398 243 180 C246.96 180 250.92 180 255 180 C255 175.05 255 170.1 255 165 C250.05 165 245.1 165 240 165 C240 160.05 240 155.1 240 150 C235.05 150 230.1 150 225 150 C224.67 145.38 224.34 140.76 224 136 C219.38 135.67 214.76 135.34 210 135 C210 130.05 210 125.1 210 120 C205.05 120 200.1 120 195 120 C195 115.05 195 110.1 195 105 C190.05 105 185.1 105 180 105 C180 109.95 180 114.9 180 120 C175.05 120 170.1 120 165 120 C165 115.05 165 110.1 165 105 C169.62 104.67 174.24 104.34 179 104 C179.33 99.38 179.66 94.76 180 90 C175.05 90 170.1 90 165 90 C165.0309375 93.4340625 165.0309375 93.4340625 165.0625 96.9375 C165.08370868 99.29166332 165.07271741 101.64686445 165 104 C162.68187616 106.31812384 157.04435954 105.46077728 153.90625 105.62109375 C152.9471875 105.74613281 151.988125 105.87117188 151 106 C150.67 106.66 150.34 107.32 150 108 C149.34 108 148.68 108 148 108 C148.17864727 103.08719994 148.74177435 99.96114605 151.58984375 95.91796875 C152.12996094 95.13607178 152.67007813 94.3541748 153.2265625 93.54858398 C153.81179687 92.70755127 154.39703125 91.86651855 155 91 C157.5089566 87.26920576 159.97724919 83.51303648 162.4375 79.75 C163.08654297 78.78320312 163.73558594 77.81640625 164.40429688 76.8203125 C165.01208984 75.88445312 165.61988281 74.94859375 166.24609375 73.984375 C166.79966553 73.14616211 167.3532373 72.30794922 167.92358398 71.44433594 C169.23797519 68.45960362 168.98295532 67.06380701 168 64 C166.83170028 61.76926377 166.83170028 61.76926377 165.25 59.5 C161.56367152 53.89434346 158.01913631 48.21214867 154.5 42.5 C150.66933746 36.29879535 146.83685559 30.10127194 142.890625 23.97265625 C141.2338502 21.36768596 139.60575625 18.74814814 137.984375 16.12109375 C137.44240479 15.24855957 136.90043457 14.37602539 136.34204102 13.47705078 C135.25090191 11.71982897 134.16531566 9.95914526 133.08569336 8.19482422 C132.58690674 7.39447754 132.08812012 6.59413086 131.57421875 5.76953125 C131.12651123 5.04354736 130.67880371 4.31756348 130.2175293 3.56958008 C129.81574463 3.05161865 129.41395996 2.53365723 129 2 C128.34 2 127.68 2 127 2 C125.39799761 4.11697031 125.39799761 4.11697031 123.76953125 6.86328125 C123.13080078 7.89646484 122.49207031 8.92964844 121.83398438 9.99414062 C121.16689453 11.08919922 120.49980469 12.18425781 119.8125 13.3125 C118.50694644 15.43386215 117.20095884 17.55495725 115.89453125 19.67578125 C114.92338379 21.25770264 114.92338379 21.25770264 113.93261719 22.87158203 C110.16197731 28.97529343 106.29634621 35.01829656 102.3828125 41.03125 C101.81433594 41.90523437 101.81433594 41.90523437 101.234375 42.796875 C100.47351674 43.96495317 99.71037584 45.13154673 98.9453125 46.296875 C97.2854136 48.8558858 95.96963679 51.09108963 95 54 C94.34 54 93.68 54 93 54 C92.731875 54.598125 92.46375 55.19625 92.1875 55.8125 C90.91845218 58.15021966 90.15150479 59.43195414 88 61 C83.60148477 61.10407446 79.38600533 60.47768375 75 60 C75 64.95 75 69.9 75 75 C70.05 75 65.1 75 60 75 C60 79.95 60 84.9 60 90 C64.95 90 69.9 90 75 90 C75.495 96.93 75.495 96.93 76 104 C82.93 104.495 82.93 104.495 90 105 C90 109.95 90 114.9 90 120 C85.05 120 80.1 120 75 120 C75 115.05 75 110.1 75 105 C70.05 105 65.1 105 60 105 C60 109.95 60 114.9 60 120 C55.05 120 50.1 120 45 120 C45 124.95 45 129.9 45 135 C49.62 135 54.24 135 59 135 C59 135.33 59 135.66 59 136 C53.06 136 47.12 136 41 136 C40.34 137.98 39.68 139.96 39 142 C37.59297443 144.29552578 36.16425093 146.48617345 34.625 148.6875 C33.71667058 150.01811414 32.81051944 151.35021717 31.90625 152.68359375 C31.43058594 153.38468262 30.95492188 154.08577148 30.46484375 154.80810547 C27.9463706 158.57658079 25.53596871 162.41217976 23.125 166.25 C22.62887207 167.03874512 22.13274414 167.82749023 21.62158203 168.64013672 C20.60293927 170.26086837 19.5848787 171.88196606 18.56738281 173.50341797 C15.88439 177.77698254 13.19241529 182.04486799 10.5 186.3125 C9.76160889 187.48570801 9.76160889 187.48570801 9.00830078 188.68261719 C7.67799971 190.79217988 6.34202376 192.89787816 5 195 C4.40832031 195.9269165 4.40832031 195.9269165 3.8046875 196.87255859 C2.89805451 198.26715906 1.95345993 199.63698569 1 201 C0.67 201 0.34 201 0 201 C0 134.67 0 68.34 0 0 Z " fill="#EFEEEE" transform="translate(0,0)"/>
<path d="M0 0 C3.36382128 1.12127376 3.6258633 1.53461141 5.390625 4.41015625 C5.84526123 5.14081299 6.29989746 5.87146973 6.76831055 6.62426758 C7.25726807 7.42888428 7.74622559 8.23350098 8.25 9.0625 C8.76796143 9.89869873 9.28592285 10.73489746 9.81958008 11.59643555 C10.94956036 13.4209924 12.07611489 15.24767417 13.19970703 17.07617188 C16.33669699 22.17090903 19.51506108 27.23979213 22.6875 32.3125 C23.32437744 33.3334375 23.96125488 34.354375 24.61743164 35.40625 C28.74027495 42.01049856 32.91349865 48.57749202 37.16796875 55.09765625 C38.07482422 56.53431641 38.07482422 56.53431641 39 58 C39.57355225 58.86407471 39.57355225 58.86407471 40.15869141 59.74560547 C43.05961032 64.35061271 43.05961032 64.35061271 42.77685547 67.4309082 C41.94358473 70.18656752 40.86039051 72.15227508 39.26953125 74.546875 C38.43518555 75.8153125 38.43518555 75.8153125 37.58398438 77.109375 C36.99939453 77.98078125 36.41480469 78.8521875 35.8125 79.75 C35.24724609 80.6059375 34.68199219 81.461875 34.09960938 82.34375 C29.48865702 89.31563673 29.48865702 89.31563673 27.23583984 92.47070312 C26.68750488 93.24865234 26.13916992 94.02660156 25.57421875 94.828125 C25.07881592 95.51293945 24.58341309 96.19775391 24.07299805 96.90332031 C22.78334964 99.42334318 22.79930728 101.20674721 23 104 C22.34 104 21.68 104 21 104 C21 104.99 21 105.98 21 107 C21.66 107 22.32 107 23 107 C23.495 105.515 23.495 105.515 24 104 C28.29 103.67 32.58 103.34 37 103 C37.33 98.38 37.66 93.76 38 89 C42.95 89 47.9 89 53 89 C53.09765625 99.83984375 53.09765625 99.83984375 53 103 C52 104 52 104 48.83984375 104.09765625 C45.2265625 104.06510417 41.61328125 104.03255208 38 104 C38 108.95 38 113.9 38 119 C42.95 119 47.9 119 53 119 C53 114.05 53 109.1 53 104 C57.95 104 62.9 104 68 104 C68 108.95 68 113.9 68 119 C72.95 119 77.9 119 83 119 C83 123.95 83 128.9 83 134 C86.4340625 133.9690625 86.4340625 133.9690625 89.9375 133.9375 C92.29166332 133.91629132 94.64686445 133.92728259 97 134 C98 135 98 135 98.09765625 138.16015625 C98.06510417 141.7734375 98.03255208 145.38671875 98 149 C102.95 149 107.9 149 113 149 C113 153.95 113 158.9 113 164 C117.95 164 122.9 164 128 164 C128 168.95 128 173.9 128 179 C123.71 179.33 119.42 179.66 115 180 C113.906875 178.205625 112.81375 176.41125 111.6875 174.5625 C108.37439609 169.15359362 104.95909513 163.81651275 101.5 158.5 C98.0653689 153.21155031 94.64594344 147.91547487 91.3125 142.5625 C90.34763672 141.01755859 90.34763672 141.01755859 89.36328125 139.44140625 C88 137 88 137 88 135 C59.95 135.33 31.9 135.66 3 136 C7.95 143.92 12.9 151.84 18 160 C22.3125 167 22.3125 167 24.08984375 169.8984375 C26.50305325 173.81681856 28.93695468 177.72203662 31.375 181.625 C31.80466064 182.31335938 32.23432129 183.00171875 32.67700195 183.7109375 C34.41951794 186.49729127 36.17692585 189.26538877 38 192 C37.67 192.99 37.34 193.98 37 195 C32.38 194.67 27.76 194.34 23 194 C23 198.95 23 203.9 23 209 C18.38 209.33 13.76 209.66 9 210 C8.979375 212.124375 8.95875 214.24875 8.9375 216.4375 C8.92589844 217.63246094 8.91429687 218.82742187 8.90234375 220.05859375 C8.66098208 222.88873341 8.66098208 222.88873341 10 224 C10.07313567 226.53049402 10.09247527 229.03304837 10.0625 231.5625 C10.05798828 232.27341797 10.05347656 232.98433594 10.04882812 233.71679688 C10.03700864 235.47790013 10.01907263 237.23896036 10 239 C9.34 239 8.68 239 8 239 C8 234.05 8 229.1 8 224 C7.34 224 6.68 224 6 224 C6 228.95 6 233.9 6 239 C5.67 239 5.34 239 5 239 C5 233.72 5 228.44 5 223 C2.69 223 0.38 223 -2 223 C-1.98952637 223.71655762 -1.97905273 224.43311523 -1.96826172 225.17138672 C-1.92678701 228.40588905 -1.90070108 231.64033553 -1.875 234.875 C-1.85824219 236.00292969 -1.84148437 237.13085938 -1.82421875 238.29296875 C-1.81777344 239.36933594 -1.81132813 240.44570312 -1.8046875 241.5546875 C-1.79421387 242.54968262 -1.78374023 243.54467773 -1.77294922 244.56982422 C-2 247 -2 247 -4 249 C-7.5 249.25 -7.5 249.25 -11 249 C-13 247 -13 247 -13.22705078 244.56982422 C-13.21657715 243.5748291 -13.20610352 242.57983398 -13.1953125 241.5546875 C-13.18886719 240.47832031 -13.18242188 239.40195313 -13.17578125 238.29296875 C-13.15064453 236.60107422 -13.15064453 236.60107422 -13.125 234.875 C-13.11597656 233.73933594 -13.10695313 232.60367188 -13.09765625 231.43359375 C-13.07403098 228.62218701 -13.04109013 225.81119702 -13 223 C-11.02 223.33 -9.04 223.66 -7 224 C-7 219.05 -7 214.1 -7 209 C-11.95 209 -16.9 209 -22 209 C-22.33 204.38 -22.66 199.76 -23 195 C-26.96 194.67 -30.92 194.34 -35 194 C-34.48365821 189.23267992 -33.17325312 186.13068774 -30.5625 182.125 C-29.94503906 181.15820312 -29.32757813 180.19140625 -28.69140625 179.1953125 C-27.85416016 178.10863281 -27.85416016 178.10863281 -27 177 C-26.34 177 -25.68 177 -25 177 C-24.72929688 176.10667969 -24.45859375 175.21335938 -24.1796875 174.29296875 C-23.08752503 171.24431656 -21.90666802 168.99386604 -20.125 166.3125 C-19.51398438 165.37792969 -18.90296875 164.44335938 -18.2734375 163.48046875 C-17.92249023 162.94599121 -17.57154297 162.41151367 -17.20996094 161.86083984 C-14.68306528 157.97464156 -12.22288305 154.04568848 -9.75 150.125 C-9.23066895 149.30427002 -8.71133789 148.48354004 -8.17626953 147.63793945 C-7.67981934 146.85249756 -7.18336914 146.06705566 -6.671875 145.2578125 C-6.2294043 144.5580127 -5.78693359 143.85821289 -5.33105469 143.13720703 C-3.85950143 140.77440857 -2.42985472 138.38821404 -1 136 C-2.21243881 135.9845388 -2.21243881 135.9845388 -3.44937134 135.96876526 C-11.12689866 135.87013165 -18.80435859 135.76753388 -26.48177528 135.66066074 C-30.42727882 135.6058726 -34.37279007 135.55253169 -38.31835938 135.50268555 C-42.13746894 135.45438064 -45.95650491 135.40202968 -49.77552414 135.34705925 C-51.22088117 135.32693033 -52.66625811 135.30817539 -54.11165237 135.29092598 C-63.44845346 135.17834835 -72.69132358 134.74522452 -82 134 C-82 129.05 -82 124.1 -82 119 C-77.05 119 -72.1 119 -67 119 C-67 114.05 -67 109.1 -67 104 C-62.05 104 -57.1 104 -52 104 C-52 108.95 -52 113.9 -52 119 C-47.05 119 -42.1 119 -37 119 C-37 114.05 -37 109.1 -37 104 C-39.289375 104.020625 -41.57875 104.04125 -43.9375 104.0625 C-46.29166332 104.08370868 -48.64686445 104.07271741 -51 104 C-52 103 -52 103 -52.09765625 99.83984375 C-52.06510417 96.2265625 -52.03255208 92.61328125 -52 89 C-56.95 89 -61.9 89 -67 89 C-67 84.05 -67 79.1 -67 74 C-62.05 74 -57.1 74 -52 74 C-52 69.05 -52 64.1 -52 59 C-49.7725 59.12375 -47.545 59.2475 -45.25 59.375 C-40.42451154 59.60609417 -40.42451154 59.60609417 -36.25 57.6640625 C-35.09544419 55.8343968 -35.09544419 55.8343968 -34 53 C-33.34 53 -32.68 53 -32 53 C-31.91492188 52.47792969 -31.82984375 51.95585938 -31.7421875 51.41796875 C-30.71650236 48.07639454 -28.94169817 45.270725 -27.125 42.3125 C-26.72716309 41.65749512 -26.32932617 41.00249023 -25.91943359 40.32763672 C-21.56671991 33.20883827 -17.01879659 26.21685722 -12.45556641 19.23193359 C-9.89645815 15.30785314 -7.35567064 11.37191997 -4.8125 7.4375 C-3.88158785 5.99864782 -2.95060571 4.55984091 -2.01953125 3.12109375 C-1.01986328 1.57615234 -1.01986328 1.57615234 0 0 Z " fill="#ECEAE9" transform="translate(127,1)"/>
<path d="M0 0 C3.36382128 1.12127376 3.6258633 1.53461141 5.390625 4.41015625 C5.84526123 5.14081299 6.29989746 5.87146973 6.76831055 6.62426758 C7.25726807 7.42888428 7.74622559 8.23350098 8.25 9.0625 C8.76796143 9.89869873 9.28592285 10.73489746 9.81958008 11.59643555 C10.94956036 13.4209924 12.07611489 15.24767417 13.19970703 17.07617188 C16.33669699 22.17090903 19.51506108 27.23979213 22.6875 32.3125 C23.32437744 33.3334375 23.96125488 34.354375 24.61743164 35.40625 C28.74027495 42.01049856 32.91349865 48.57749202 37.16796875 55.09765625 C38.07482422 56.53431641 38.07482422 56.53431641 39 58 C39.57355225 58.86407471 39.57355225 58.86407471 40.15869141 59.74560547 C43.06342757 64.35667232 43.06342757 64.35667232 42.75708008 67.46386719 C41.99031939 70.03242895 41.07835889 71.80419286 39.5859375 74.01953125 C39.0798999 74.78209229 38.5738623 75.54465332 38.05249023 76.33032227 C37.22213257 77.55900024 37.22213257 77.55900024 36.375 78.8125 C35.18422621 80.60806898 33.99550983 82.40500365 32.80859375 84.203125 C32.18452637 85.14736328 31.56045898 86.09160156 30.91748047 87.06445312 C27.68252941 92.01696796 24.56119731 97.03934964 21.4375 102.0625 C20.81383545 103.06192627 20.1901709 104.06135254 19.54760742 105.09106445 C16.50443288 109.96893696 13.47253073 114.8534757 10.453125 119.74609375 C9.36474861 121.49749855 8.27621546 123.24880595 7.1875 125 C6.68984131 125.813479 6.19218262 126.62695801 5.67944336 127.46508789 C4.99313843 128.56518188 4.99313843 128.56518188 4.29296875 129.6875 C3.69778442 130.65236328 3.69778442 130.65236328 3.09057617 131.63671875 C2.55074097 132.31154297 2.55074097 132.31154297 2 133 C1.34 133 0.68 133 0 133 C-1.46118164 131.01904297 -1.46118164 131.01904297 -3.16015625 128.2421875 C-3.7840625 127.2315625 -4.40796875 126.2209375 -5.05078125 125.1796875 C-5.71464844 124.08914062 -6.37851563 122.99859375 -7.0625 121.875 C-8.43814376 119.64282332 -9.81444159 117.41104959 -11.19140625 115.1796875 C-11.85414551 114.10170898 -12.51688477 113.02373047 -13.19970703 111.91308594 C-15.25929546 108.58042943 -17.36579312 105.28528584 -19.5 102 C-24.40698879 94.41818431 -29.17321357 86.74877715 -33.94921875 79.08398438 C-34.573125 78.08302734 -35.19703125 77.08207031 -35.83984375 76.05078125 C-36.68083618 74.69980347 -36.68083618 74.69980347 -37.53881836 73.3215332 C-38.66598096 71.53069124 -39.82623414 69.76064879 -41 68 C-40.67378958 63.98561459 -39.12825052 61.09674597 -37.0625 57.6875 C-36.53785156 56.80449219 -36.01320313 55.92148437 -35.47265625 55.01171875 C-34.98667969 54.34785156 -34.50070313 53.68398438 -34 53 C-33.34 53 -32.68 53 -32 53 C-31.91492188 52.47792969 -31.82984375 51.95585938 -31.7421875 51.41796875 C-30.71650236 48.07639454 -28.94169817 45.270725 -27.125 42.3125 C-26.52824463 41.32999268 -26.52824463 41.32999268 -25.91943359 40.32763672 C-21.56671991 33.20883827 -17.01879659 26.21685722 -12.45556641 19.23193359 C-9.89645815 15.30785314 -7.35567064 11.37191997 -4.8125 7.4375 C-3.88158785 5.99864782 -2.95060571 4.55984091 -2.01953125 3.12109375 C-1.35308594 2.09113281 -0.68664062 1.06117187 0 0 Z " fill="#FA0404" transform="translate(127,1)"/>
<path d="M0 0 C11.09146234 -0.27833716 22.18209135 -0.49140085 33.27633762 -0.62174606 C38.42840165 -0.68431626 43.57807309 -0.76912924 48.72875977 -0.90527344 C53.70214645 -1.03590475 58.6732367 -1.10745461 63.64820671 -1.13852692 C65.54351918 -1.16065986 67.43870902 -1.20388798 69.33304024 -1.26876068 C81.40271501 -1.66556204 81.40271501 -1.66556204 86 0 C89.66864667 3.57068988 91.22083423 7.27061733 93 12 C94.00411288 13.66457708 95.04433312 15.30869536 96.140625 16.9140625 C96.64819336 17.68540527 97.15576172 18.45674805 97.67871094 19.25146484 C98.19723633 20.03473145 98.71576172 20.81799805 99.25 21.625 C104.00439177 28.86932916 108.61122329 36.18342 113.09423828 43.59838867 C116.71380426 49.57408722 120.48300467 55.43944661 124.3203125 61.27734375 C126 64 126 64 127 67 C98.62 67 70.24 67 41 67 C39.35 64.03 37.7 61.06 36 58 C34.37936189 55.49584443 32.74666663 53.02187087 31.0625 50.5625 C27.76676224 45.68362242 24.59618724 40.77512157 21.609375 35.69921875 C19.53880743 32.22649499 17.39662635 28.80107795 15.25 25.375 C14.61892334 24.36663086 14.61892334 24.36663086 13.97509766 23.33789062 C11.69976232 19.70490137 9.41819886 16.07589263 7.1328125 12.44921875 C6.44010254 11.34731201 6.44010254 11.34731201 5.73339844 10.22314453 C4.84013702 8.80233871 3.94500682 7.38270578 3.04785156 5.96435547 C0 1.11259821 0 1.11259821 0 0 Z " fill="#FB0303" transform="translate(129,136)"/>
<path d="M0 0 C28.38 0 56.76 0 86 0 C79.28712871 12.30693069 79.28712871 12.30693069 75.625 17.875 C74.85445136 19.05662884 74.08494555 20.23893828 73.31640625 21.421875 C72.93371582 22.01033203 72.55102539 22.59878906 72.15673828 23.20507812 C70.25520279 26.15570896 68.40422751 29.13677791 66.5625 32.125 C65.92441406 33.15882813 65.28632812 34.19265625 64.62890625 35.2578125 C63.31293345 37.47319117 62.10669304 39.67538849 61 42 C60.34 42 59.68 42 59 42 C58.72744385 42.72993164 58.4548877 43.45986328 58.17407227 44.21191406 C57.04905772 46.88350193 55.76886845 49.16766747 54.21484375 51.609375 C53.68439453 52.44597656 53.15394531 53.28257812 52.60742188 54.14453125 C51.78081055 55.43423828 51.78081055 55.43423828 50.9375 56.75 C50.38255859 57.62527344 49.82761719 58.50054687 49.25585938 59.40234375 C45.15646655 65.84353345 45.15646655 65.84353345 44 67 C41.35261911 67.09511266 38.73140999 67.12555635 36.08374023 67.11352539 C35.25454071 67.11367142 34.42534119 67.11381744 33.5710144 67.1139679 C30.81684802 67.11326851 28.06274839 67.10547493 25.30859375 67.09765625 C23.40430234 67.09579216 21.50001045 67.09436822 19.59571838 67.09336853 C14.57332037 67.08954263 9.55095108 67.07971173 4.52856445 67.06866455 C-0.5922812 67.05845198 -5.71313148 67.05387124 -10.83398438 67.04882812 C-20.88933557 67.03808953 -30.9446654 67.02101224 -41 67 C-39.64943192 63.5298384 -38.18458181 60.49928564 -36.1640625 57.3671875 C-35.60050049 56.48828857 -35.03693848 55.60938965 -34.45629883 54.70385742 C-33.85197021 53.77033447 -33.2476416 52.83681152 -32.625 51.875 C-31.34991455 49.88954499 -30.07518098 47.90386397 -28.80078125 45.91796875 C-27.84099365 44.42595947 -27.84099365 44.42595947 -26.86181641 42.90380859 C-24.15400397 38.68053019 -21.48288055 34.43450371 -18.8125 30.1875 C-14.43013883 23.22628784 -9.98608919 16.30757601 -5.47583008 9.4284668 C-5.04810303 8.77273682 -4.62037598 8.11700684 -4.1796875 7.44140625 C-3.80569824 6.87107666 -3.43170898 6.30074707 -3.04638672 5.71313477 C-1.92140827 3.87133033 -0.96517564 1.93035128 0 0 Z " fill="#FB0303" transform="translate(41,136)"/>
<path d="M0 0 C4.62 0 9.24 0 14 0 C14 4.62 14 9.24 14 14 C15.65 14 17.3 14 19 14 C19 24.23 19 34.46 19 45 C16.69 45 14.38 45 12 45 C11.67 35.1 11.34 25.2 11 15 C9.35 15 7.7 15 6 15 C6 24.9 6 34.8 6 45 C4.02 45 2.04 45 0 45 C0 40.38 0 35.76 0 31 C-4.62 31 -9.24 31 -14 31 C-13.505 37.435 -13.505 37.435 -13 44 C-9.37 44.33 -5.74 44.66 -2 45 C-2 45.33 -2 45.66 -2 46 C-8.02823596 46.02495925 -14.05644098 46.04298121 -20.0847168 46.05493164 C-22.12996953 46.05992045 -24.17521878 46.06671389 -26.22045898 46.07543945 C-29.18213774 46.0877466 -32.14376884 46.09328293 -35.10546875 46.09765625 C-36.00081833 46.10281754 -36.89616791 46.10797882 -37.81864929 46.11329651 C-44.97241921 46.11391057 -51.80312402 45.55360584 -59 45 C-59 34.77 -59 24.54 -59 14 C-56.69 14 -54.38 14 -52 14 C-52 23.9 -52 33.8 -52 44 C-50.66098208 42.88873341 -50.66098208 42.88873341 -50.90234375 40.05859375 C-50.91394531 38.86363281 -50.92554688 37.66867188 -50.9375 36.4375 C-50.94652344 35.23996094 -50.95554688 34.04242188 -50.96484375 32.80859375 C-50.97644531 31.88175781 -50.98804688 30.95492187 -51 30 C-49.35 29.34 -47.7 28.68 -46 28 C-46.04640625 27.24074219 -46.0928125 26.48148438 -46.140625 25.69921875 C-46.17671875 24.70535156 -46.2128125 23.71148437 -46.25 22.6875 C-46.29640625 21.70136719 -46.3428125 20.71523437 -46.390625 19.69921875 C-46 17 -46 17 -44.29296875 15.171875 C-40.29036017 13.12624881 -36.37691846 13.37068539 -32 14 C-28.875 15.625 -28.875 15.625 -27 18 C-26.6875 21.25 -26.6875 21.25 -27 24 C-28.98 24 -30.96 24 -33 24 C-33.33 22.68 -33.66 21.36 -34 20 C-35.98 19.67 -37.96 19.34 -40 19 C-40 20.65 -40 22.3 -40 24 C-38.86111328 24.58007812 -38.86111328 24.58007812 -37.69921875 25.171875 C-36.70535156 25.69265625 -35.71148437 26.2134375 -34.6875 26.75 C-33.70136719 27.26046875 -32.71523437 27.7709375 -31.69921875 28.296875 C-29.00366152 29.99768969 -27.58446279 31.2593076 -26 34 C-25.8125 37.25 -25.8125 37.25 -26 40 C-25.34 40 -24.68 40 -24 40 C-24 39.34 -24 38.68 -24 38 C-23.34 38 -22.68 38 -22 38 C-21.67 30.08 -21.34 22.16 -21 14 C-19.02 14 -17.04 14 -15 14 C-15 17.96 -15 21.92 -15 26 C-10.05 26 -5.1 26 0 26 C0 22.04 0 18.08 0 14 C1.32 13.67 2.64 13.34 4 13 C2.68 12.67 1.36 12.34 0 12 C0 9.69 0 7.38 0 5 C1.32 5.33 2.64 5.66 4 6 C4 5.34 4 4.68 4 4 C2.68 3.67 1.36 3.34 0 3 C0 2.01 0 1.02 0 0 Z " fill="#5E5E5E" transform="translate(226,210)"/>
<path d="M0 0 C4.95 0 9.9 0 15 0 C15 4.62 15 9.24 15 14 C14.34 14 13.68 14 13 14 C13 24.23 13 34.46 13 45 C14.98 45 16.96 45 19 45 C19 39.06 19 33.12 19 27 C19.66 27.33 20.32 27.66 21 28 C21 29.32 21 30.64 21 32 C21.66 32 22.32 32 23 32 C23.66 34.64 24.32 37.28 25 40 C25.66 40 26.32 40 27 40 C27.18175781 39.39671875 27.36351563 38.7934375 27.55078125 38.171875 C27.80214844 37.37265625 28.05351562 36.5734375 28.3125 35.75 C28.55613281 34.96109375 28.79976562 34.1721875 29.05078125 33.359375 C30 31 30 31 33 27 C33 32.94 33 38.88 33 45 C34.98 45 36.96 45 39 45 C39 34.77 39 24.54 39 14 C36.69 14 34.38 14 32 14 C31.731875 14.845625 31.46375 15.69125 31.1875 16.5625 C29.9521405 20.13854067 28.523012 23.53860908 27 27 C26.34 27 25.68 27 25 27 C24.49166409 25.75336669 23.99368855 24.50250613 23.5 23.25 C23.2215625 22.55390625 22.943125 21.8578125 22.65625 21.140625 C22 19 22 19 22 15 C25.28696233 14.20046862 26.71023192 13.90341064 30 15 C30 10.05 30 5.1 30 0 C34.95 0 39.9 0 45 0 C45.8440978 10.16905227 46.12609339 20.18085921 46.0625 30.375 C46.05746589 31.8046859 46.05290643 33.23437355 46.04882812 34.6640625 C46.03799465 38.10941245 46.02083984 41.55469427 46 45 C48.31 45 50.62 45 53 45 C53 34.77 53 24.54 53 14 C51.35 14 49.7 14 48 14 C48 13.67 48 13.34 48 13 C51.5219721 12.91995518 54.61981469 12.95994298 58 14 C58 15.98 58 17.96 58 20 C59.98 20 61.96 20 64 20 C64 28.25 64 36.5 64 45 C66.31 45 68.62 45 71 45 C71 45.33 71 45.66 71 46 C47.57 46 24.14 46 0 46 C0 30.82 0 15.64 0 0 Z " fill="#F0F0F0" transform="translate(0,210)"/>
<path d="M0 0 C3 1.0625 3 1.0625 5 2.0625 C5 6.3525 5 10.6425 5 15.0625 C5.66 15.0625 6.32 15.0625 7 15.0625 C7 9.7825 7 4.5025 7 -0.9375 C9.31 -0.9375 11.62 -0.9375 14 -0.9375 C14.02505615 -0.21570557 14.0501123 0.50608887 14.07592773 1.24975586 C14.19151302 4.500035 14.31440774 7.74999688 14.4375 11 C14.47681641 12.13630859 14.51613281 13.27261719 14.55664062 14.44335938 C14.59853516 15.52294922 14.64042969 16.60253906 14.68359375 17.71484375 C14.73858032 19.21519165 14.73858032 19.21519165 14.79467773 20.74584961 C14.74671841 23.02319188 14.74671841 23.02319188 16 24.0625 C19.5 24.22916667 19.5 24.22916667 23 24.0625 C24.71443219 22.34806781 24.23052967 20.05804759 24.31640625 17.71484375 C24.37924805 16.09545898 24.37924805 16.09545898 24.44335938 14.44335938 C24.48267578 13.30705078 24.52199219 12.17074219 24.5625 11 C24.60568359 9.85982422 24.64886719 8.71964844 24.69335938 7.54492188 C24.79982839 4.71757805 24.90184207 1.89014262 25 -0.9375 C27.31 -0.9375 29.62 -0.9375 32 -0.9375 C32.11668214 2.93724457 32.18741231 6.81153396 32.25 10.6875 C32.30027344 12.32912109 32.30027344 12.32912109 32.3515625 14.00390625 C32.4621522 23.12755622 32.4621522 23.12755622 30.296875 26.7109375 C27.31529851 29.7635039 24.71456965 30.89998536 20.46257019 31.30300903 C19.56766373 31.29856781 18.67275726 31.29412659 17.75073242 31.28955078 C16.73005173 31.28939972 15.70937103 31.28924866 14.65776062 31.28909302 C13.02312614 31.27360916 13.02312614 31.27360916 11.35546875 31.2578125 C10.2305452 31.2549826 9.10562164 31.25215271 7.9466095 31.24923706 C4.36013064 31.23805836 0.77390315 31.21295763 -2.8125 31.1875 C-5.24674118 31.17746723 -7.68098628 31.1683419 -10.11523438 31.16015625 C-16.07690842 31.13812656 -22.03843625 31.10467174 -28 31.0625 C-27.01 30.7325 -26.02 30.4025 -25 30.0625 C-25 25.1125 -25 20.1625 -25 15.0625 C-22.03 15.0625 -19.06 15.0625 -16 15.0625 C-16 15.7225 -16 16.3825 -16 17.0625 C-15.34 17.0625 -14.68 17.0625 -14 17.0625 C-13.34 20.0325 -12.68 23.0025 -12 26.0625 C-10.02 25.4025 -8.04 24.7425 -6 24.0625 C-5.67 22.4125 -5.34 20.7625 -5 19.0625 C-5.66 18.835625 -6.32 18.60875 -7 18.375 C-17.04 13.9825 -17.04 13.9825 -19 10.0625 C-19.44959697 6.01612726 -19.65196289 3.91005176 -17.125 0.625 C-11.64229436 -2.11635282 -5.8274601 -1.59706543 0 0 Z " fill="#E1E1E1" transform="translate(100,224.9375)"/>
<path d="M0 0 C4.95 0 9.9 0 15 0 C15 4.62 15 9.24 15 14 C20.94 14 26.88 14 33 14 C33 15.98 33 17.96 33 20 C30.69 20 28.38 20 26 20 C26 28.25 26 36.5 26 45 C23.69 45 21.38 45 19 45 C19 36.75 19 28.5 19 20 C17.02 20 15.04 20 13 20 C12.67 18.35 12.34 16.7 12 15 C10.68 14.67 9.36 14.34 8 14 C8 24.23 8 34.46 8 45 C5.69 45 3.38 45 1 45 C0.85449758 40.84157169 0.71226076 36.68304681 0.57275391 32.52441406 C0.52509873 31.11650752 0.47662679 29.70862833 0.42724609 28.30078125 C0.09681521 18.85989874 -0.04940236 9.44820081 0 0 Z " fill="#DCDCDC" transform="translate(45,210)"/>
<path d="M0 0 C2.536875 -0.061875 5.07375 -0.12375 7.6875 -0.1875 C8.47729248 -0.21481201 9.26708496 -0.24212402 10.08081055 -0.27026367 C14.61476924 -0.32357739 17.43712454 0.16424198 21 3 C23 6 23 6 22.625 9.1875 C22.315625 10.5796875 22.315625 10.5796875 22 12 C21.01 12.33 20.02 12.66 19 13 C19.639375 13.66 20.27875 14.32 20.9375 15 C23.67922572 18.98796468 24 21.16274627 24 26 C21.84109542 29.00704566 20.51231053 29.82922982 17 31 C15.66474283 31.07973476 14.32587917 31.10771338 12.98828125 31.09765625 C11.96408081 31.09390991 11.96408081 31.09390991 10.91918945 31.09008789 C10.05898193 31.08098389 9.19877441 31.07187988 8.3125 31.0625 C4.1978125 31.0315625 4.1978125 31.0315625 0 31 C0 20.77 0 10.54 0 0 Z " fill="#161616" transform="translate(138,224)"/>
<path d="M0 0 C2.31 0 4.62 0 7 0 C7.84069415 1.60032137 8.67231505 3.20541171 9.5 4.8125 C9.9640625 5.70582031 10.428125 6.59914062 10.90625 7.51953125 C12 10 12 10 12 13 C12.66 13 13.32 13 14 13 C14.0825 12.34 14.165 11.68 14.25 11 C15.24759791 7.00960837 17.07166683 3.61450357 19 0 C21.31 0 23.62 0 26 0 C26 10.23 26 20.46 26 31 C24.02 31 22.04 31 20 31 C19.67 25.72 19.34 20.44 19 15 C17.35 18.63 15.7 22.26 14 26 C13.34 26 12.68 26 12 26 C10.74335022 23.09399739 10 21.20395416 10 18 C9.34 18 8.68 18 8 18 C7.67 16.68 7.34 15.36 7 14 C6.67 19.61 6.34 25.22 6 31 C4.02 31 2.04 31 0 31 C0 20.77 0 10.54 0 0 Z " fill="#090909" transform="translate(13,224)"/>
<path d="M0 0 C1.98 0 3.96 0 6 0 C6.02505615 0.72179443 6.0501123 1.44358887 6.07592773 2.18725586 C6.19151302 5.437535 6.31440774 8.68749688 6.4375 11.9375 C6.47681641 13.07380859 6.51613281 14.21011719 6.55664062 15.38085938 C6.61948242 17.00024414 6.61948242 17.00024414 6.68359375 18.65234375 C6.72025146 19.65257568 6.75690918 20.65280762 6.79467773 21.68334961 C6.74671841 23.96069188 6.74671841 23.96069188 8 25 C11.5 25.16666667 11.5 25.16666667 15 25 C16.71443219 23.28556781 16.23052967 20.99554759 16.31640625 18.65234375 C16.35830078 17.57275391 16.40019531 16.49316406 16.44335938 15.38085938 C16.48267578 14.24455078 16.52199219 13.10824219 16.5625 11.9375 C16.62727539 10.22723633 16.62727539 10.22723633 16.69335938 8.48242188 C16.79982839 5.65507805 16.90184207 2.82764262 17 0 C19.31 0 21.62 0 24 0 C24.11668214 3.87474457 24.18741231 7.74903396 24.25 11.625 C24.30027344 13.26662109 24.30027344 13.26662109 24.3515625 14.94140625 C24.42823546 21.26692578 24.3721035 25.25085271 20 30 C16.09397224 32.32250299 12.47715964 32.3997464 8 32 C4.29306092 30.31502769 2.11370119 28.46252947 0 25 C-0.34057617 22.25097656 -0.34057617 22.25097656 -0.29296875 19.140625 C-0.28330078 18.02558594 -0.27363281 16.91054687 -0.26367188 15.76171875 C-0.23853516 14.60285156 -0.21339844 13.44398438 -0.1875 12.25 C-0.17396484 11.07566406 -0.16042969 9.90132812 -0.14648438 8.69140625 C-0.1111478 5.79380702 -0.06180979 2.89713573 0 0 Z " fill="#0E0E0E" transform="translate(108,224)"/>
<path d="M0 0 C4.62 0 9.24 0 14 0 C14 4.62 14 9.24 14 14 C15.65 14 17.3 14 19 14 C19 24.23 19 34.46 19 45 C16.69 45 14.38 45 12 45 C11.67 35.1 11.34 25.2 11 15 C9.35 15 7.7 15 6 15 C6 14.34 6 13.68 6 13 C3.03 12.505 3.03 12.505 0 12 C0 9.69 0 7.38 0 5 C1.32 5.33 2.64 5.66 4 6 C4 5.34 4 4.68 4 4 C2.68 3.67 1.36 3.34 0 3 C0 2.01 0 1.02 0 0 Z " fill="#D2D2D2" transform="translate(226,210)"/>
<path d="M0 0 C2.26171875 1.296875 2.26171875 1.296875 4 3 C4.75 6.6875 4.75 6.6875 5 10 C3.02 10 1.04 10 -1 10 C-1.66 8.68 -2.32 7.36 -3 6 C-4.65 6 -6.3 6 -8 6 C-7.88369761 8.42189429 -7.88369761 8.42189429 -7 11 C-4.78720779 12.61317701 -4.78720779 12.61317701 -2.0625 13.6875 C2.86340206 15.86340206 2.86340206 15.86340206 5 18 C5.56132497 21.06069824 5.50119357 23.93291324 5 27 C3.1875 29.5625 3.1875 29.5625 0 31 C-4.91877573 31.69124807 -9.31467921 32.04329382 -13.625 29.375 C-15.25083694 26.56673619 -15.70770032 24.21529643 -16 21 C-14.02 21 -12.04 21 -10 21 C-9.34 22.98 -8.68 24.96 -8 27 C-6.02 26.34 -4.04 25.68 -2 25 C-1.67 23.35 -1.34 21.7 -1 20 C-1.66 19.773125 -2.32 19.54625 -3 19.3125 C-13.04 14.92 -13.04 14.92 -15 11 C-15.44959697 6.95362726 -15.65196289 4.84755176 -13.125 1.5625 C-8.80996057 -0.59501972 -4.74524545 -0.85645894 0 0 Z " fill="#111111" transform="translate(96,224)"/>
<path d="M0 0 C3.125 1.625 3.125 1.625 5 4 C5.3125 7.25 5.3125 7.25 5 10 C3.02 10 1.04 10 -1 10 C-1.33 8.68 -1.66 7.36 -2 6 C-4.97 5.505 -4.97 5.505 -8 5 C-8 6.65 -8 8.3 -8 10 C-6.86111328 10.58007812 -6.86111328 10.58007812 -5.69921875 11.171875 C-4.70535156 11.69265625 -3.71148437 12.2134375 -2.6875 12.75 C-1.70136719 13.26046875 -0.71523437 13.7709375 0.30078125 14.296875 C2.9997472 15.99984049 4.4374231 17.23873397 6 20 C5.93353206 23.72220466 5.45589815 26.19181691 3.625 29.4375 C-0.69828369 32.01088315 -5.11682038 31.83794207 -10 31 C-13.1875 28.8125 -13.1875 28.8125 -15 26 C-15.3125 23.1875 -15.3125 23.1875 -15 21 C-13.35 21 -11.7 21 -10 21 C-9.67 22.65 -9.34 24.3 -9 26 C-6.69 26.33 -4.38 26.66 -2 27 C-1.67 25.02 -1.34 23.04 -1 21 C-1.77085937 20.60167969 -2.54171875 20.20335937 -3.3359375 19.79296875 C-4.33882812 19.26316406 -5.34171875 18.73335937 -6.375 18.1875 C-7.37273437 17.66542969 -8.37046875 17.14335937 -9.3984375 16.60546875 C-12 15 -12 15 -14 12 C-14.3359375 9.84375 -14.3359375 9.84375 -14.375 7.5 C-14.40335938 6.7265625 -14.43171875 5.953125 -14.4609375 5.15625 C-14 3 -14 3 -12.28515625 1.24609375 C-8.31957485 -0.9163344 -4.38825985 -0.63094528 0 0 Z " fill="#0E0E0E" transform="translate(194,224)"/>
<path d="M0 0 C6.6 0 13.2 0 20 0 C20 1.98 20 3.96 20 6 C17.69 6 15.38 6 13 6 C13 14.25 13 22.5 13 31 C10.69 31 8.38 31 6 31 C6 22.75 6 14.5 6 6 C4.02 6 2.04 6 0 6 C0 4.02 0 2.04 0 0 Z " fill="#161616" transform="translate(58,224)"/>
<path d="M0 0 C4.95 0 9.9 0 15 0 C15 1.66666667 15 3.33333333 15 5 C12.03 5 9.06 5 6 5 C6 11.6 6 18.2 6 25 C9.3 25 12.6 25 16 25 C16 25.66 16 26.32 16 27 C15.34 27 14.68 27 14 27 C14.33 27.99 14.66 28.98 15 30 C10.05 30 5.1 30 0 30 C0 20.1 0 10.2 0 0 Z " fill="#040404" transform="translate(138,225)"/>
<path d="M0 0 C1.98 0 3.96 0 6 0 C6 10.23 6 20.46 6 31 C4.02 31 2.04 31 0 31 C0 20.77 0 10.54 0 0 Z " fill="#040404" transform="translate(167,224)"/>
<path d="M0 0 C1.98 0 3.96 0 6 0 C6 10.23 6 20.46 6 31 C4.02 31 2.04 31 0 31 C0 20.77 0 10.54 0 0 Z " fill="#040404" transform="translate(47,224)"/>
<path d="M0 0 C1.98 0 3.96 0 6 0 C6 10.23 6 20.46 6 31 C4.02 31 2.04 31 0 31 C0 20.77 0 10.54 0 0 Z " fill="#040404" transform="translate(239,224)"/>
<path d="M0 0 C2.97 0 5.94 0 9 0 C9.38218767 1.65614657 9.71395102 3.32457024 10 5 C9 6 9 6 6.4375 6.0625 C5.2309375 6.0315625 5.2309375 6.0315625 4 6 C4 7.65 4 9.3 4 11 C4.969375 11.144375 5.93875 11.28875 6.9375 11.4375 C10 12 10 12 11 13 C11.25 15.4375 11.25 15.4375 11 18 C8 20 8 20 0 20 C0 13.4 0 6.8 0 0 Z " fill="#ECECEC" transform="translate(144,230)"/>
<path d="M0 0 C0.99 0.33 1.98 0.66 3 1 C1 4 1 4 -1.625 4.6875 C-2.800625 4.8421875 -2.800625 4.8421875 -4 5 C-2.25 1.125 -2.25 1.125 0 0 Z " fill="#363636" transform="translate(184,224)"/>
</svg>
