<?xml version="1.0" standalone="no"?>
<!DOCTYPE svg PUBLIC "-//W3C//DTD SVG 20010904//EN"
 "http://www.w3.org/TR/2001/REC-SVG-20010904/DTD/svg10.dtd">
<svg version="1.0" xmlns="http://www.w3.org/2000/svg"
 width="500.000000pt" height="500.000000pt" viewBox="0 0 500.000000 500.000000"
 preserveAspectRatio="xMidYMid meet">
<g transform="translate(0.000000,500.000000) scale(0.100000,-0.100000)"
fill="#000000" stroke="none">
<path d="M2210 4384 c-797 -95 -1450 -530 -1771 -1179 -32 -66 -64 -126 -69
-132 -8 -10 -59 -13 -190 -13 l-180 0 0 -495 0 -495 184 0 184 0 54 -112 c107
-222 222 -383 402 -564 248 -248 528 -419 876 -534 625 -207 1308 -163 1886
120 443 217 770 543 982 977 l55 113 189 0 188 0 0 495 0 495 -182 0 c-101 0
-187 4 -193 8 -5 4 -36 61 -69 127 -105 217 -230 388 -408 560 -118 115 -195
177 -325 262 -448 294 -1060 433 -1613 367z m568 -319 c573 -80 1046 -368
1325 -807 42 -66 107 -192 107 -208 0 -7 -550 -10 -1715 -10 -1165 0 -1715 3
-1715 10 0 22 72 152 141 256 90 135 283 331 417 424 246 172 546 288 860 334
134 19 444 20 580 1z m110 -1302 l3 -53 -218 -2 -218 -3 0 -25 c0 -29 13 -32
220 -50 147 -12 180 -23 214 -66 27 -34 30 -156 5 -192 -34 -49 -55 -52 -334
-52 l-261 0 3 58 3 57 219 2 c226 2 251 6 230 41 -9 14 -43 20 -190 33 -189
17 -220 24 -253 60 -30 33 -30 145 0 183 46 59 77 64 349 63 l225 -2 3 -52z
m1279 -125 l138 -181 5 179 5 179 75 0 75 0 0 -245 0 -245 -130 -2 -130 -3
-135 187 -135 187 -5 -184 -5 -185 -72 -3 -73 -3 0 244 c0 134 3 247 7 250 3
4 59 7 124 7 l118 0 138 -182z m-3247 -8 l135 -180 3 180 2 180 75 0 75 0 0
-245 0 -245 -129 0 -129 0 -133 185 c-74 101 -137 185 -141 185 -5 0 -8 -83
-8 -185 l0 -185 -70 0 -70 0 0 245 0 245 128 -1 127 0 135 -179z m560 -65 l0
-245 -85 0 -85 0 0 245 0 245 85 0 85 0 0 -245z m710 195 c0 -33 -4 -50 -12
-50 -7 0 -105 -2 -217 -3 -180 -2 -205 -4 -215 -19 -20 -32 8 -40 171 -54 187
-16 219 -24 258 -64 24 -26 30 -40 33 -94 3 -45 0 -72 -12 -94 -30 -59 -47
-62 -341 -62 l-265 0 0 55 0 55 228 2 227 3 3 27 c4 32 6 31 -203 48 -77 6
-157 16 -178 22 -57 17 -87 58 -87 119 0 74 20 112 71 137 42 21 58 22 292 22
l247 0 0 -50z m1388 -195 l122 -246 -82 3 -82 3 -26 45 -26 45 -160 0 -159 0
-25 -47 -25 -48 -82 0 c-46 0 -83 2 -83 5 0 3 54 114 120 245 l121 240 132 0
132 0 123 -245z m652 -446 c0 -6 -23 -55 -51 -109 -245 -479 -668 -800 -1223
-930 -289 -68 -651 -67 -941 4 -546 134 -973 463 -1208 933 -19 38 -38 78 -41
91 l-7 22 1735 0 c1242 0 1736 -3 1736 -11z"/>
<path d="M3301 2697 c-15 -19 -83 -169 -78 -174 3 -2 50 -2 105 -1 l100 3 -43
93 c-43 90 -60 107 -84 79z"/>
</g>
</svg>
