<?xml version="1.0" standalone="no"?>
<!DOCTYPE svg PUBLIC "-//W3C//DTD SVG 20010904//EN"
 "http://www.w3.org/TR/2001/REC-SVG-20010904/DTD/svg10.dtd">
<svg version="1.0" xmlns="http://www.w3.org/2000/svg"
 width="600.000000pt" height="450.000000pt" viewBox="0 0 600.000000 450.000000"
 preserveAspectRatio="xMidYMid meet">
<g transform="translate(0.000000,450.000000) scale(0.100000,-0.100000)"
fill="#000000" stroke="none">
<path d="M2795 3324 c-499 -38 -843 -120 -1175 -280 -706 -340 -874 -880 -412
-1316 201 -189 538 -356 906 -449 137 -35 349 -72 516 -90 148 -17 592 -17
740 0 511 57 940 195 1250 402 112 75 280 239 329 322 122 206 134 399 37 602
-189 398 -824 713 -1601 795 -106 11 -506 21 -590 14z m418 -84 c684 -44 1250
-242 1550 -544 86 -87 132 -154 176 -258 23 -57 26 -75 26 -188 0 -113 -3
-131 -26 -188 -44 -104 -90 -171 -176 -258 -487 -490 -1656 -689 -2633 -449
-838 207 -1275 685 -1044 1143 240 476 1177 802 2127 742z"/>
<path d="M2785 3160 c-737 -44 -1359 -290 -1584 -626 -348 -519 300 -1060
1413 -1180 306 -33 730 -18 1037 36 637 114 1120 398 1219 718 26 85 26 199 0
284 -101 327 -595 612 -1250 722 -261 44 -579 62 -835 46z m724 -114 c418 -61
725 -163 962 -321 155 -104 192 -163 134 -220 l-24 -25 -1100 0 c-1002 0
-1101 1 -1116 16 -25 25 -15 66 20 83 236 119 408 257 539 431 37 51 55 66 80
70 57 9 338 -10 505 -34z m-679 28 c0 -14 -94 -125 -156 -185 -85 -80 -171
-140 -278 -190 -77 -36 -225 -83 -234 -75 -3 4 248 387 268 409 18 20 400 59
400 41z m-680 -99 c0 -6 -58 -99 -145 -232 -33 -51 -80 -125 -105 -164 -25
-39 -51 -78 -58 -85 -11 -11 -69 -14 -288 -14 -158 0 -274 4 -274 9 0 17 76
106 126 147 159 133 377 241 639 319 82 25 105 29 105 20z m-425 -619 c68 -29
84 -128 31 -181 -30 -30 -99 -39 -251 -33 l-114 4 -3 -25 c-2 -22 -8 -26 -33
-26 l-30 0 -3 124 c-1 69 0 131 2 138 8 20 354 18 401 -1z m633 -11 c70 -29
82 -52 82 -162 l0 -94 -27 3 c-22 2 -29 9 -31 31 l-3 27 -172 -2 -172 -3 -3
-28 c-3 -24 -7 -28 -30 -25 l-27 3 2 93 c1 75 5 97 20 114 23 25 61 45 110 58
56 14 201 5 251 -15z m742 5 c0 -11 0 -23 0 -27 0 -5 -79 -10 -175 -13 -163
-5 -176 -6 -196 -27 -29 -29 -29 -77 0 -106 20 -21 30 -22 169 -22 140 0 147
1 147 20 0 18 -8 20 -87 23 l-88 3 0 29 0 30 114 0 c82 0 115 -3 118 -12 4
-11 3 -118 -1 -150 -1 -12 -311 -9 -355 3 -73 20 -115 92 -95 163 24 89 69
105 287 106 155 0 162 -1 162 -20z m560 4 c104 -31 120 -54 120 -179 l0 -85
-30 0 c-27 0 -30 3 -30 30 l0 30 -175 0 -175 0 0 -30 c0 -27 -3 -30 -30 -30
l-30 0 0 94 c0 92 1 95 30 124 58 59 206 80 320 46z m554 -91 c71 -51 137 -92
145 -91 13 3 17 22 19 101 l3 97 29 0 30 0 0 -114 c0 -124 -9 -149 -60 -161
-21 -5 -50 12 -165 95 -77 55 -147 99 -155 98 -12 -3 -16 -24 -18 -101 l-3
-98 -27 3 -27 3 -3 108 c-3 114 5 142 41 157 34 13 53 4 191 -97z m481 -33 l0
-135 -27 -3 -28 -3 0 141 0 141 28 -3 27 -3 0 -135z m-90 -235 c39 -39 34 -80
-17 -128 -171 -159 -508 -306 -881 -381 -253 -51 -358 -60 -707 -61 -331 0
-386 4 -630 46 -396 68 -773 222 -955 390 -37 34 -45 48 -45 77 0 23 8 44 22
59 l21 23 1584 0 1584 0 24 -25z"/>
<path d="M2970 3035 c-17 -20 -5 -61 20 -68 11 -3 30 3 42 13 20 15 21 21 10
44 -13 30 -52 36 -72 11z"/>
<path d="M3228 3042 c-23 -5 -34 -48 -18 -67 19 -23 59 -19 69 8 14 38 -12 68
-51 59z"/>
<path d="M3458 3009 c-24 -13 -23 -56 1 -69 29 -15 39 -13 57 15 16 24 16 27
-1 45 -20 22 -32 24 -57 9z"/>
<path d="M3685 2950 c-11 -35 3 -60 35 -60 35 0 51 25 39 58 -11 30 -65 31
-74 2z"/>
<path d="M3930 2895 c-7 -8 -10 -25 -6 -40 5 -20 13 -25 37 -25 33 0 44 17 35
55 -7 29 -46 35 -66 10z"/>
<path d="M2797 2823 c-4 -3 -7 -19 -7 -34 0 -22 6 -30 25 -35 43 -11 73 34 43
64 -13 13 -50 16 -61 5z"/>
<path d="M4172 2818 c-34 -34 6 -90 48 -68 35 19 20 80 -20 80 -9 0 -21 -5
-28 -12z"/>
<path d="M4382 2708 c-35 -35 15 -99 53 -68 30 25 12 80 -25 80 -9 0 -21 -5
-28 -12z"/>
<path d="M2631 2581 c-25 -25 -17 -59 15 -67 51 -13 72 44 27 73 -19 13 -24
12 -42 -6z"/>
<path d="M2910 2582 c-17 -13 -21 -24 -16 -40 10 -31 55 -41 73 -16 17 24 13
43 -13 61 -19 12 -24 11 -44 -5z"/>
<path d="M3190 2582 c-17 -13 -21 -24 -16 -40 10 -31 55 -41 73 -16 17 24 13
43 -13 61 -19 12 -24 11 -44 -5z"/>
<path d="M3472 2584 c-42 -29 -17 -82 32 -70 25 6 42 38 31 56 -14 23 -42 29
-63 14z"/>
<path d="M3742 2578 c-30 -30 0 -75 42 -64 29 7 40 31 26 57 -12 21 -50 25
-68 7z"/>
<path d="M4017 2583 c-11 -11 -8 -48 5 -61 31 -31 88 11 67 50 -9 18 -58 26
-72 11z"/>
<path d="M4294 2576 c-9 -23 -1 -48 19 -60 25 -16 52 4 52 40 0 25 -4 29 -33
32 -22 2 -34 -2 -38 -12z"/>
<path d="M1390 2260 l0 -50 162 2 163 3 9 27 c8 22 6 32 -9 48 -17 18 -30 20
-172 20 l-153 0 0 -50z"/>
<path d="M2095 2295 c-43 -15 -65 -38 -65 -67 0 -17 13 -18 175 -18 175 0 175
0 175 23 0 35 -13 47 -65 62 -61 19 -168 18 -220 0z"/>
<path d="M3440 2298 c-46 -13 -70 -35 -70 -65 l0 -23 175 0 175 0 0 23 c0 31
-25 52 -75 66 -49 13 -157 13 -205 -1z"/>
<path d="M1690 1966 c-28 -35 11 -93 48 -70 35 22 22 84 -18 84 -10 0 -23 -7
-30 -14z"/>
<path d="M1976 1964 c-9 -8 -16 -22 -16 -29 0 -7 7 -21 16 -29 8 -9 22 -16 29
-16 7 0 21 7 29 16 9 8 16 22 16 29 0 7 -7 21 -16 29 -8 9 -22 16 -29 16 -7 0
-21 -7 -29 -16z"/>
<path d="M2262 1968 c-21 -21 -14 -57 14 -70 23 -11 29 -10 45 11 17 21 18 26
6 45 -17 25 -47 32 -65 14z"/>
<path d="M2546 1958 c-13 -19 -14 -25 -2 -43 26 -39 76 -26 76 19 0 46 -48 62
-74 24z"/>
<path d="M2836 1964 c-9 -8 -16 -22 -16 -29 0 -17 27 -45 44 -45 15 0 46 32
46 48 0 15 -29 42 -45 42 -7 0 -21 -7 -29 -16z"/>
<path d="M3120 1966 c-28 -35 11 -93 48 -70 35 22 22 84 -18 84 -10 0 -23 -7
-30 -14z"/>
<path d="M3406 1964 c-9 -8 -16 -21 -16 -28 0 -15 32 -46 48 -46 15 0 42 29
42 45 0 18 -27 45 -45 45 -7 0 -21 -7 -29 -16z"/>
<path d="M3692 1968 c-16 -16 -15 -53 3 -68 19 -16 45 -10 61 15 26 39 -31 86
-64 53z"/>
<path d="M3976 1964 c-21 -21 -20 -37 4 -59 41 -37 97 24 58 63 -17 17 -44 15
-62 -4z"/>
<path d="M4260 1960 c-25 -46 23 -88 61 -54 24 21 24 36 1 57 -25 23 -49 21
-62 -3z"/>
<path d="M1642 1818 c-16 -16 -15 -53 3 -68 19 -16 45 -10 61 15 26 39 -31 86
-64 53z"/>
<path d="M4300 1816 c-28 -35 11 -93 48 -70 35 22 22 84 -18 84 -10 0 -23 -7
-30 -14z"/>
<path d="M1894 1696 c-3 -8 -4 -25 -2 -38 2 -19 9 -23 38 -23 33 0 35 2 35 35
0 32 -3 35 -33 38 -21 2 -34 -2 -38 -12z"/>
<path d="M4034 1696 c-3 -8 -4 -25 -2 -38 2 -19 9 -23 38 -23 33 0 35 2 35 35
0 32 -3 35 -33 38 -21 2 -34 -2 -38 -12z"/>
<path d="M2165 1615 c-38 -55 -40 -79 -6 -58 23 14 61 6 61 -13 0 -8 7 -14 15
-14 14 0 15 10 9 63 -4 34 -9 65 -11 70 -11 18 -34 3 -68 -48z m45 -17 c0 -16
-3 -19 -11 -11 -6 6 -8 16 -5 22 11 17 16 13 16 -11z"/>
<path d="M3812 1638 c-16 -16 -15 -28 3 -28 8 0 15 5 15 10 0 6 7 10 15 10 23
0 18 -16 -11 -29 -40 -18 -28 -46 19 -45 49 2 52 7 41 52 -8 31 -14 37 -39 40
-17 2 -36 -3 -43 -10z m58 -47 c0 -12 -20 -25 -27 -18 -7 7 6 27 18 27 5 0 9
-4 9 -9z"/>
<path d="M3720 1617 c-14 -6 -27 -12 -28 -13 -2 -2 -1 -21 3 -43 4 -27 12 -41
22 -41 12 0 13 8 8 40 -5 32 -4 40 9 40 9 0 19 -13 24 -32 10 -39 28 -35 25 5
-1 27 -19 58 -32 56 -3 0 -17 -5 -31 -12z"/>
<path d="M2276 1598 c-8 -32 -8 -78 2 -79 77 -12 76 -12 86 44 9 48 -17 52
-30 5 -15 -50 -37 -49 -32 2 3 47 -15 67 -26 28z"/>
<path d="M2395 1603 c-9 -23 -10 -87 -1 -101 4 -7 13 -12 21 -12 10 0 12 9 8
35 -4 25 -2 36 9 40 13 5 13 11 4 31 -13 28 -31 31 -41 7z"/>
<path d="M3520 1601 c0 -14 -6 -21 -18 -21 -26 0 -42 -20 -42 -51 0 -37 22
-53 65 -45 32 6 35 10 34 39 -2 51 -13 90 -26 95 -8 2 -13 -5 -13 -17z m8 -74
c3 -23 0 -28 -15 -25 -11 2 -19 14 -21 31 -3 23 0 28 15 25 11 -2 19 -14 21
-31z"/>
<path d="M3592 1588 c-7 -7 -12 -24 -12 -38 0 -48 51 -68 85 -34 21 21 13 29
-14 12 -16 -10 -23 -10 -33 0 -8 8 -9 12 -1 12 7 0 23 4 38 10 22 8 24 13 15
30 -12 23 -59 27 -78 8z m48 -18 c0 -5 -7 -10 -15 -10 -8 0 -15 5 -15 10 0 6
7 10 15 10 8 0 15 -4 15 -10z"/>
<path d="M3270 1564 c-6 -14 -10 -32 -10 -40 0 -25 -16 -15 -33 21 -11 23 -24
35 -37 35 -17 0 -20 -7 -20 -42 0 -59 9 -88 27 -88 12 0 14 9 10 40 -3 22 -3
40 -1 40 2 0 11 -18 20 -40 20 -49 33 -47 50 6 8 26 12 32 13 17 2 -34 12 -53
28 -53 12 0 14 7 9 31 -3 17 -6 47 -6 65 0 27 -4 34 -20 34 -13 0 -24 -10 -30
-26z"/>
<path d="M2466 1564 c-19 -18 -21 -55 -4 -72 7 -7 24 -12 38 -12 34 0 50 17
50 52 0 43 -53 64 -84 32z m54 -34 c0 -23 -4 -30 -20 -30 -14 0 -20 7 -20 23
0 27 7 37 27 37 8 0 13 -12 13 -30z"/>
<path d="M2860 1516 c0 -63 0 -64 32 -70 37 -7 68 15 68 49 0 27 -18 45 -47
45 -16 0 -23 6 -23 20 0 11 -7 20 -15 20 -12 0 -15 -14 -15 -64z m68 -22 c4
-25 -22 -38 -37 -20 -15 18 -3 48 18 44 9 -2 17 -13 19 -24z"/>
<path d="M2980 1565 c0 -9 5 -15 11 -13 6 2 11 8 11 13 0 5 -5 11 -11 13 -6 2
-11 -4 -11 -13z"/>
<path d="M3027 1568 c-7 -20 5 -128 14 -128 5 0 9 32 9 70 0 63 -10 90 -23 58z"/>
<path d="M3076 1572 c-3 -6 -1 -14 5 -17 15 -10 25 3 12 16 -7 7 -13 7 -17 1z"/>
<path d="M2576 1561 c-2 -3 -6 -24 -7 -45 -5 -51 17 -61 27 -12 9 50 37 49 32
-1 -4 -48 17 -54 28 -8 11 45 29 43 28 -2 -2 -46 23 -43 32 4 5 29 3 39 -11
49 -10 7 -21 11 -25 9 -4 -3 -29 -1 -54 4 -26 5 -48 6 -50 2z"/>
<path d="M3380 1563 c-19 -7 -40 -33 -40 -50 0 -18 37 -53 55 -53 8 0 24 9 35
20 11 11 20 27 20 35 0 16 -35 56 -47 54 -5 0 -15 -3 -23 -6z m30 -34 c9 -15
8 -24 -1 -35 -14 -18 -39 -1 -39 26 0 15 5 21 27 29 1 1 7 -8 13 -20z"/>
<path d="M2745 1526 c-26 -39 -3 -76 47 -76 43 0 63 53 32 84 -23 24 -61 20
-79 -8z m63 -24 c2 -13 -3 -25 -13 -28 -23 -9 -38 10 -30 36 9 27 39 22 43 -8z"/>
<path d="M2980 1489 c0 -60 16 -56 22 5 2 25 -2 41 -9 43 -9 3 -13 -10 -13
-48z"/>
<path d="M3080 1490 c0 -48 14 -67 26 -35 8 20 -5 85 -16 85 -6 0 -10 -22 -10
-50z"/>
</g>
</svg>
