<?xml version="1.0" standalone="no"?>
<!DOCTYPE svg PUBLIC "-//W3C//DTD SVG 20010904//EN"
 "http://www.w3.org/TR/2001/REC-SVG-20010904/DTD/svg10.dtd">
<svg version="1.0" xmlns="http://www.w3.org/2000/svg"
 width="600.000000pt" height="781.000000pt" viewBox="0 0 600.000000 781.000000"
 preserveAspectRatio="xMidYMid meet">
<g transform="translate(0.000000,781.000000) scale(0.100000,-0.100000)"
fill="#000000" stroke="none">
<path d="M2585 7799 c-855 -43 -1736 -242 -2453 -554 l-134 -59 6 -205 c4
-113 11 -521 17 -906 5 -385 14 -947 19 -1250 5 -302 10 -712 10 -910 0 -547
39 -814 175 -1205 274 -786 847 -1550 1576 -2100 489 -368 1103 -652 1305
-601 82 21 224 81 409 173 233 116 371 197 615 362 101 67 341 246 371 275 9
9 38 34 65 56 52 43 120 105 252 230 132 125 362 405 447 544 6 9 17 27 26 41
17 26 45 75 87 150 14 25 31 52 38 60 45 54 288 563 340 715 101 291 134 411
170 624 24 138 26 178 34 701 12 683 28 2179 32 2865 l3 510 -70 28 c-289 117
-750 240 -1205 321 -640 114 -1481 168 -2135 135z m1020 -194 c795 -58 1623
-207 2152 -387 75 -26 67 10 88 -393 9 -165 19 -347 24 -405 4 -58 6 -107 5
-109 -2 -2 -30 6 -61 19 -565 220 -1027 336 -1703 424 -242 31 -528 53 -807
62 l-233 7 0 -347 0 -346 1406 0 1405 0 -3 -47 -3 -48 -1397 -3 -1398 -2 0
-350 0 -350 1395 0 1395 0 0 -50 0 -50 -832 -1 c-458 -1 -839 -1 -845 0 -10 2
-13 -66 -13 -309 l0 -310 840 0 840 0 0 -50 0 -50 -827 -1 c-456 -1 -834 -1
-840 0 -10 2 -13 -81 -13 -384 l0 -385 833 -2 832 -3 3 -52 3 -53 -824 0 -825
0 -6 -22 c-3 -13 -6 -45 -6 -73 0 -58 -37 -219 -73 -318 -17 -47 -20 -64 -10
-55 41 33 86 180 107 346 l12 97 812 3 813 2 -7 -67 c-31 -343 -75 -540 -195
-868 -149 -404 -436 -924 -673 -1220 -113 -141 -253 -285 -412 -426 -109 -96
-225 -194 -242 -203 -9 -5 -60 -42 -112 -81 -99 -75 -309 -214 -420 -280 -36
-21 -82 -49 -103 -62 -100 -63 -546 -273 -579 -273 -4 0 -8 529 -8 1175 0 932
3 1176 13 1179 6 3 37 7 68 10 56 6 57 5 69 -24 23 -56 64 -61 95 -13 l17 25
26 -25 c78 -72 146 -19 92 71 l-21 34 22 5 c46 13 177 83 227 122 58 46 114
67 409 151 299 85 397 103 568 104 167 0 253 -14 388 -66 73 -28 222 -118 277
-168 44 -39 87 -70 97 -70 6 0 13 9 16 19 3 14 1 18 -9 14 -8 -3 -44 19 -82
49 -188 152 -309 210 -514 244 -184 31 -376 9 -704 -81 -251 -69 -356 -107
-424 -154 -166 -113 -375 -187 -582 -206 l-78 -7 0 -1199 c0 -1327 6 -1218
-65 -1205 l-35 7 -2 542 -3 542 -840 3 -839 2 -43 42 c-24 23 -43 46 -43 50 0
4 398 8 885 8 l885 0 0 360 0 360 -1155 0 -1155 0 -30 48 -29 47 1182 5 1182
5 0 190 0 190 -75 6 c-213 19 -445 118 -635 271 l-60 48 -951 0 -952 0 -16 47
c-9 26 -16 50 -16 55 0 4 416 9 925 10 l925 3 -45 60 c-59 77 -148 259 -174
352 -11 39 -25 115 -31 167 l-12 96 -848 0 -848 0 -6 373 c-7 459 -14 951 -23
1644 l-6 533 59 26 c719 321 1662 526 2573 560 l181 7 0 -722 c0 -715 0 -721
20 -721 20 0 20 5 18 738 l-3 737 -180 -1 c-541 -4 -1448 -160 -2075 -358
-194 -61 -424 -147 -518 -195 -34 -17 -66 -31 -72 -31 -12 0 -13 140 -3 558
l6 293 71 36 c278 140 850 294 1458 392 415 67 582 86 1128 125 109 8 619 -4
825 -19z"/>
<path d="M2731 7523 c-18 -16 -22 -33 -27 -130 l-7 -112 31 -30 30 -31 230 0
c209 0 230 -2 245 -18 20 -22 22 -65 5 -80 -7 -5 -115 -13 -243 -16 -297 -9
-285 -6 -285 -62 l0 -44 93 1 c268 2 526 15 541 28 13 11 16 37 16 146 0 117
-2 134 -17 140 -10 4 -124 6 -254 5 -237 -1 -237 -1 -253 22 -24 33 -20 64 12
88 27 22 30 22 270 15 l242 -7 0 51 0 51 -304 0 c-275 0 -306 -2 -325 -17z"/>
<path d="M3582 7530 c-18 -4 -42 -16 -53 -26 -18 -17 -19 -29 -17 -253 l3
-235 25 -12 c14 -7 84 -18 155 -24 72 -7 173 -16 225 -21 52 -4 130 -11 173
-15 l77 -7 0 52 c0 34 -4 51 -12 52 -7 1 -35 3 -63 5 -329 26 -432 37 -452 50
-22 14 -23 20 -23 162 0 102 4 152 12 160 7 7 37 12 68 12 51 0 330 -30 428
-46 l42 -7 0 51 0 50 -42 6 c-24 3 -142 15 -263 26 -121 12 -227 22 -235 24
-8 2 -30 0 -48 -4z"/>
<path d="M2350 7520 c-30 -5 -84 -11 -120 -15 -36 -3 -112 -13 -169 -21 -58
-8 -120 -14 -139 -14 l-35 0 8 -277 c4 -153 9 -280 11 -282 1 -2 25 1 51 5
l48 9 -3 76 c-6 111 -14 107 236 130 l124 11 29 -28 c16 -16 41 -52 55 -81 27
-57 34 -60 116 -47 l36 6 -22 47 c-11 25 -33 67 -49 93 -33 57 -33 63 -2 94
23 23 25 31 25 130 0 109 -13 155 -45 168 -21 8 -84 6 -155 -4z m52 -127 c12
-11 18 -30 18 -63 0 -73 -20 -85 -170 -104 -69 -9 -152 -17 -185 -19 l-60 -2
-6 65 c-10 103 -15 100 186 124 158 19 195 19 217 -1z"/>
<path d="M2280 7370 c-30 -5 -99 -14 -152 -20 l-98 -12 0 -30 c0 -27 2 -29 28
-24 74 15 303 38 318 32 18 -7 19 35 2 52 -13 13 -17 13 -98 2z"/>
<path d="M4270 7202 l0 -279 38 -7 c76 -12 72 -17 72 99 0 58 4 105 8 105 5 0
95 -16 201 -35 105 -19 194 -35 196 -35 3 0 5 -49 5 -109 l0 -109 50 -11 c28
-6 55 -11 61 -11 6 0 8 105 7 281 l-3 282 -50 13 c-27 7 -53 13 -57 14 -5 0
-8 -54 -8 -121 0 -110 -2 -120 -17 -115 -10 3 -47 10 -83 16 -36 5 -116 19
-179 30 -62 11 -117 20 -122 20 -5 0 -9 51 -9 114 0 126 5 118 -72 131 l-38 6
0 -279z"/>
<path d="M1389 7376 c-145 -29 -268 -60 -283 -70 -56 -36 -60 -62 -48 -297 10
-189 13 -215 31 -232 19 -20 21 -20 218 21 109 23 240 50 290 61 168 37 166
32 157 311 -7 196 -8 211 -29 230 -11 11 -34 22 -50 24 -17 3 -145 -19 -286
-48z m216 -101 c24 -23 25 -30 25 -149 0 -112 -2 -127 -20 -144 -17 -16 -183
-56 -361 -87 -58 -11 -66 5 -74 150 -8 136 0 166 49 185 21 8 312 66 344 69 7
1 24 -10 37 -24z"/>
<path d="M1387 7230 c-81 -15 -154 -33 -162 -40 -18 -15 -21 -65 -4 -54 17 10
298 63 337 64 30 0 33 2 30 28 -4 36 -20 37 -201 2z"/>
<path d="M2867 7403 c-4 -3 -7 -15 -7 -25 0 -17 14 -18 228 -18 125 0 244 -3
265 -6 36 -6 37 -6 37 25 l0 31 -258 0 c-142 0 -262 -3 -265 -7z"/>
<path d="M3657 7393 c-4 -3 -7 -16 -7 -28 0 -21 6 -23 103 -29 56 -4 181 -18
277 -32 96 -13 176 -24 178 -24 1 0 2 11 2 24 0 15 -7 27 -17 30 -35 11 -210
35 -359 51 -174 17 -169 17 -177 8z"/>
<path d="M5054 7326 c-2 -6 -3 -135 -2 -286 l3 -274 325 -98 c179 -54 331 -98
338 -98 8 0 12 19 12 65 l0 64 -62 19 c-35 11 -159 46 -275 78 l-213 59 0 54
c0 38 3 52 13 48 6 -2 89 -28 182 -57 94 -28 204 -63 245 -76 110 -35 110 -35
110 36 0 46 -4 61 -17 69 -10 5 -128 41 -263 81 -135 40 -250 78 -256 86 -6 8
-10 31 -9 51 1 31 5 37 21 35 10 -2 130 -37 266 -78 136 -40 250 -74 253 -74
3 0 5 28 3 62 l-3 63 -110 31 c-60 17 -162 45 -225 62 -63 17 -164 44 -223 60
-76 21 -110 26 -113 18z"/>
<path d="M2670 7241 c0 -35 28 -79 61 -96 26 -14 58 -15 255 -6 124 5 228 12
231 14 21 22 -24 27 -223 27 -234 0 -263 5 -302 55 -21 26 -22 27 -22 6z"/>
<path d="M645 7191 c-99 -31 -235 -75 -303 -96 l-122 -39 6 -290 c4 -160 8
-292 9 -293 1 -2 33 8 71 21 l69 24 3 100 3 99 97 30 c344 107 458 146 470
160 17 23 16 279 -1 313 -11 22 -20 25 -67 27 -43 1 -95 -11 -235 -56z m169
-87 c23 -23 22 -116 -2 -138 -25 -21 -406 -141 -426 -133 -12 5 -16 21 -16 69
0 35 4 69 8 76 7 10 376 136 414 141 4 1 14 -6 22 -15z"/>
<path d="M600 7021 c-96 -31 -181 -60 -187 -64 -18 -11 -16 -47 1 -47 8 0 93
25 188 55 95 30 178 55 185 55 14 0 17 19 7 44 -8 20 13 24 -194 -43z"/>
<path d="M2562 7210 c-21 -28 -22 -50 -3 -50 11 0 34 56 29 70 -2 6 -14 -3
-26 -20z"/>
<path d="M5222 7128 c4 -11 493 -167 526 -168 6 0 12 4 12 9 0 5 -35 21 -77
35 -102 33 -447 136 -457 136 -4 0 -6 -6 -4 -12z"/>
<path d="M2319 7106 c-2 -2 -60 -9 -127 -16 -68 -6 -130 -14 -138 -17 -8 -3
-14 -16 -14 -30 0 -24 1 -24 63 -18 34 3 80 7 102 9 22 2 61 7 88 11 70 11
101 -18 146 -137 9 -23 15 -27 38 -23 15 2 58 7 96 10 67 7 77 14 58 44 -7 11
-27 12 -97 7 l-89 -7 -23 60 c-26 67 -83 126 -103 107z"/>
<path d="M4410 7052 l0 -28 168 -30 167 -29 3 23 c2 13 1 26 -2 29 -5 5 -306
62 -328 63 -5 0 -8 -13 -8 -28z"/>
<path d="M3360 7000 c-23 -18 -50 -21 -305 -27 -154 -5 -301 -8 -327 -8 -46 0
-48 -1 -48 -29 l0 -28 288 6 c158 4 309 9 335 12 54 7 87 34 87 71 0 27 2 27
-30 3z"/>
<path d="M3474 6990 c7 -41 55 -90 89 -90 12 -1 67 -5 122 -10 281 -26 434
-41 473 -46 40 -6 42 -5 42 19 0 14 -4 28 -8 31 -5 3 -42 8 -83 11 -41 3 -110
10 -154 15 -44 5 -156 17 -249 25 -178 17 -195 21 -222 58 -16 22 -16 22 -10
-13z"/>
<path d="M1776 6912 c-16 -48 -68 -67 -356 -127 -151 -32 -287 -58 -302 -58
-15 0 -37 8 -48 18 -13 12 -20 14 -20 6 0 -24 35 -72 56 -77 19 -5 243 36 389
71 33 8 76 17 95 20 118 19 180 57 196 120 8 33 -1 56 -10 27z"/>
<path d="M5212 6898 c6 -16 30 -25 293 -98 121 -33 229 -63 240 -67 14 -4 17
-2 10 5 -8 9 -521 172 -541 172 -3 0 -4 -6 -2 -12z"/>
<path d="M973 6881 c-6 -10 -35 -26 -65 -35 -29 -9 -107 -34 -173 -56 -66 -21
-166 -53 -222 -70 -93 -29 -103 -34 -103 -56 0 -13 6 -24 13 -24 12 1 126 35
377 114 153 49 190 72 190 122 0 29 -2 30 -17 5z"/>
<path d="M1940 6877 c-44 -10 -55 -16 -55 -32 0 -14 6 -20 23 -19 144 4 132 1
132 34 0 34 -8 36 -100 17z"/>
<path d="M4240 6861 c0 -27 2 -28 60 -34 33 -4 72 -10 86 -13 23 -6 25 -4 22
22 -3 30 -13 34 -120 48 -47 6 -48 5 -48 -23z"/>
<path d="M4760 6781 c-14 -27 1 -39 70 -51 36 -6 75 -14 88 -17 21 -5 23 -2
20 23 -3 27 -7 29 -86 45 -77 15 -83 15 -92 0z"/>
<path d="M5020 6707 c0 -21 12 -27 128 -61 70 -21 236 -71 369 -112 133 -41
245 -74 248 -74 3 0 5 11 5 24 0 19 -9 27 -42 40 -71 26 -676 206 -692 206
-10 0 -16 -9 -16 -23z"/>
<path d="M305 6457 c-83 -29 -90 -34 -93 -61 -3 -20 0 -27 10 -23 7 3 52 17
101 33 83 26 87 29 87 56 0 15 -3 28 -7 27 -5 0 -48 -15 -98 -32z"/>
<path d="M1865 6481 c-127 -31 -206 -134 -239 -311 l-12 -64 -160 -38 c-87
-20 -162 -37 -166 -37 -14 -1 -9 84 8 140 23 77 57 131 121 189 l55 50 -59 0
c-67 0 -143 -31 -185 -76 -52 -55 -71 -118 -75 -239 l-3 -110 -180 -59 c-99
-33 -183 -56 -187 -52 -13 12 -8 137 7 181 18 54 71 136 128 197 l47 51 -35
-8 c-87 -18 -183 -84 -217 -148 -41 -79 -57 -207 -39 -312 6 -37 4 -41 -21
-55 -15 -9 -54 -31 -85 -48 l-57 -33 -16 35 c-23 49 -49 68 -90 68 -79 0 -108
-59 -65 -129 l19 -32 -41 -23 c-59 -33 -83 -68 -71 -104 22 -67 84 -78 159
-28 l36 25 34 -31 c43 -37 102 -42 134 -10 25 25 25 50 0 102 -11 23 -20 45
-20 48 0 6 183 96 305 150 85 38 300 118 402 149 229 70 401 101 598 108 230
8 388 -26 533 -117 34 -22 62 -35 62 -29 0 24 -42 88 -79 122 -49 44 -77 59
-164 87 -37 12 -67 26 -67 31 0 17 63 80 104 104 41 24 98 40 171 49 22 3 42
6 45 6 3 1 -13 10 -35 22 -56 29 -161 36 -220 14 -52 -20 -123 -89 -156 -152
l-24 -44 -91 0 c-50 0 -119 -3 -154 -7 l-63 -6 5 39 c17 122 108 248 216 301
51 25 54 28 32 34 -33 9 -107 9 -145 0z"/>
<path d="M2034 6415 c-110 -55 -177 -121 -198 -195 -6 -19 -2 -17 14 10 35 56
109 119 187 156 40 20 73 42 73 50 0 18 3 19 -76 -21z"/>
<path d="M1504 6362 c-27 -21 -62 -54 -77 -72 -31 -37 -77 -122 -77 -142 1 -7
10 7 21 31 21 43 108 138 163 176 16 12 27 27 25 34 -3 9 -20 1 -55 -27z"/>
<path d="M966 6216 c-35 -35 -76 -87 -90 -115 -32 -62 -33 -79 -3 -31 42 68
71 100 129 146 32 26 58 51 58 56 0 23 -35 2 -94 -56z"/>
<path d="M2370 6215 c-25 -8 -59 -28 -75 -45 -36 -37 -22 -38 41 -3 42 24 63
28 146 31 75 3 98 8 98 18 0 19 -148 18 -210 -1z"/>
<path d="M1820 6180 c0 -7 3 -10 7 -7 3 4 3 10 0 14 -4 3 -7 0 -7 -7z"/>
<path d="M1775 5964 c-243 -20 -685 -157 -988 -306 -117 -57 -111 -53 -102
-67 4 -7 24 -1 58 16 246 124 606 248 876 300 113 21 164 26 301 26 239 0 372
-35 514 -137 36 -25 69 -46 75 -46 15 0 41 30 41 47 0 14 -2 14 -18 0 -25 -23
-31 -22 -79 17 -64 51 -169 102 -258 126 -80 22 -297 34 -420 24z"/>
<path d="M1625 5570 c-126 -22 -202 -103 -245 -265 l-17 -60 -104 -26 c-57
-14 -116 -29 -132 -32 -27 -7 -27 -7 -21 35 14 101 73 223 130 273 13 11 24
24 24 28 0 13 -55 7 -95 -12 -96 -45 -141 -141 -157 -339 -3 -33 -6 -35 -108
-78 -57 -24 -110 -44 -117 -44 -13 0 -33 60 -33 102 0 56 22 127 60 192 36 61
37 67 17 61 -44 -13 -99 -57 -127 -102 -36 -57 -52 -130 -49 -229 l2 -77 -84
-43 c-46 -24 -89 -44 -95 -44 -7 0 -14 11 -18 23 -10 41 -45 77 -75 77 -69 0
-91 -58 -46 -124 14 -20 25 -39 25 -41 0 -2 -19 -13 -43 -23 -55 -24 -71 -46
-70 -90 2 -75 73 -91 155 -37 l38 25 9 -22 c23 -61 106 -83 143 -38 24 29 23
47 -6 103 -16 33 -20 49 -12 56 20 15 249 122 346 161 319 127 609 189 833
176 l107 -5 0 74 c0 60 3 75 15 75 8 0 33 20 55 44 36 39 58 52 180 103 l25
11 -37 16 c-53 23 -133 20 -185 -5 -49 -24 -91 -71 -130 -146 -17 -32 -36 -55
-48 -58 -11 -2 -73 -6 -138 -8 l-119 -4 6 31 c10 53 67 157 107 197 21 21 60
49 86 63 26 14 40 25 31 26 -9 0 -22 2 -30 4 -7 2 -31 0 -53 -4z"/>
<path d="M1775 5525 c-87 -20 -141 -58 -186 -132 -30 -49 -17 -51 15 -3 33 50
86 85 154 103 47 12 82 31 71 40 -2 2 -26 -2 -54 -8z"/>
<path d="M1306 5492 c-28 -20 -65 -62 -83 -92 -40 -67 -44 -92 -5 -29 28 43
74 88 121 120 13 8 22 20 20 27 -2 7 -23 -3 -53 -26z"/>
<path d="M186 5460 c3 -14 15 -37 26 -52 34 -49 137 -60 196 -22 21 14 25 13
49 -6 51 -40 181 -21 214 31 32 50 30 63 -5 27 -51 -52 -143 -65 -205 -27 -30
18 -35 19 -56 5 -63 -41 -168 -22 -207 38 -17 27 -19 28 -12 6z"/>
<path d="M2143 5406 c-79 -26 -138 -58 -147 -81 -7 -19 3 -19 25 1 9 8 61 30
115 47 53 18 99 38 102 45 5 17 -12 15 -95 -12z"/>
<path d="M896 5371 c-33 -45 -66 -109 -66 -128 0 -4 14 17 31 47 16 30 43 69
59 85 31 32 37 45 21 45 -5 0 -25 -22 -45 -49z"/>
<path d="M1560 5330 c0 -7 3 -10 7 -7 3 4 3 10 0 14 -4 3 -7 0 -7 -7z"/>
<path d="M1180 5310 c0 -7 3 -10 7 -7 3 4 3 10 0 14 -4 3 -7 0 -7 -7z"/>
<path d="M1937 4378 c4 -790 6 -859 24 -935 127 -556 668 -923 1237 -839 239
35 424 127 593 295 139 138 234 304 286 502 l28 104 1 863 1 862 -1087 0
-1088 0 5 -852z m2097 15 c7 -774 4 -865 -28 -991 -55 -210 -192 -414 -370
-549 -81 -61 -240 -136 -351 -165 -77 -19 -113 -23 -250 -22 -139 1 -173 4
-256 26 -338 91 -598 327 -719 651 -48 130 -48 135 -56 1000 l-7 817 1015 0
1015 0 7 -767z"/>
<path d="M3405 5108 c-79 -217 -95 -272 -83 -280 20 -12 24 -10 36 17 10 22
18 25 61 25 41 0 51 -4 56 -20 6 -20 45 -29 45 -11 0 5 -20 64 -45 130 -25 66
-45 125 -45 130 0 16 -20 23 -25 9z m33 -165 c11 -33 11 -33 -23 -33 -23 0
-33 4 -30 13 28 78 33 80 53 20z"/>
<path d="M2337 5094 c-13 -13 -7 -44 8 -44 12 0 15 -19 15 -110 l0 -110 25 0
25 0 0 110 c0 93 2 110 16 110 10 0 14 7 12 23 -3 19 -10 22 -48 25 -25 2 -49
0 -53 -4z"/>
<path d="M2747 5094 c-13 -13 -7 -44 8 -44 12 0 15 -19 15 -110 0 -103 1 -110
20 -110 19 0 20 7 20 110 0 93 2 110 16 110 10 0 14 7 12 23 -2 18 -10 23 -43
25 -23 2 -44 0 -48 -4z"/>
<path d="M2920 5076 c0 -16 6 -26 15 -26 12 0 15 -19 15 -110 0 -103 1 -110
20 -110 19 0 20 7 20 110 0 93 2 110 16 110 10 0 14 7 12 23 -3 19 -10 22 -50
25 -46 3 -48 2 -48 -22z"/>
<path d="M3560 4965 c0 -136 0 -136 23 -133 17 2 23 11 25 36 5 45 33 42 66
-8 14 -22 31 -40 36 -40 20 0 22 29 5 58 -17 28 -17 29 9 55 35 35 36 94 2
134 -21 24 -32 28 -95 31 l-71 4 0 -137z m113 86 c48 -18 47 -86 -1 -97 -15
-3 -35 -8 -44 -11 -16 -4 -18 3 -18 56 0 66 8 73 63 52z"/>
<path d="M3813 5094 c-18 -8 -16 -44 2 -44 12 0 15 -19 15 -110 l0 -110 25 0
25 0 0 110 c0 93 2 110 16 110 10 0 14 7 12 23 -2 18 -10 22 -43 24 -22 1 -46
0 -52 -3z"/>
<path d="M2155 5078 c-72 -41 -50 -140 33 -152 18 -2 40 -10 48 -16 41 -35
-11 -84 -66 -63 -22 8 -33 8 -46 -1 -16 -12 -15 -14 7 -29 33 -24 100 -22 133
4 20 16 26 29 26 58 0 45 -30 78 -80 87 -63 12 -78 42 -36 69 20 13 29 14 46
5 16 -9 25 -8 36 1 20 16 18 24 -11 37 -32 15 -64 15 -90 0z"/>
<path d="M3115 5064 c-29 -31 -39 -77 -33 -145 6 -60 33 -100 76 -113 58 -16
112 45 112 129 0 35 0 35 -44 35 -39 0 -44 -2 -39 -20 3 -11 14 -20 24 -20 16
0 18 -5 13 -27 -9 -40 -41 -65 -64 -53 -19 10 -40 66 -40 106 0 60 35 103 72
89 8 -3 21 1 28 10 34 41 -68 49 -105 9z"/>
<path d="M2500 4966 c0 -116 9 -142 55 -162 45 -18 78 -10 110 28 23 27 25 38
25 129 0 92 -1 99 -20 99 -19 0 -20 -7 -20 -93 0 -106 -13 -131 -67 -125 l-28
3 -5 105 c-5 100 -6 105 -27 108 -22 3 -23 1 -23 -92z"/>
<path d="M2950 4670 c-21 -21 -56 -48 -77 -58 -21 -11 -57 -30 -81 -42 -39
-20 -48 -21 -84 -11 -22 7 -43 10 -46 7 -3 -4 9 -21 26 -39 18 -18 32 -36 32
-40 0 -4 -16 -7 -36 -7 -39 0 -113 -38 -154 -80 -14 -14 -34 -30 -45 -37 -19
-12 -19 -13 -2 -27 15 -11 24 -12 43 -4 29 14 42 4 24 -17 -10 -12 -10 -19 -1
-28 9 -9 21 -7 52 11 39 23 91 24 104 2 11 -17 -33 -88 -90 -145 -47 -47 -67
-76 -89 -132 -15 -40 -32 -73 -37 -73 -29 0 -71 36 -95 80 -43 78 -64 70 -149
-59 -35 -53 -73 -125 -85 -161 -12 -35 -30 -76 -40 -90 -28 -39 -36 -80 -16
-80 21 0 86 32 86 42 0 5 -5 17 -12 27 -10 16 -7 26 14 58 14 21 29 49 33 63
15 49 54 116 83 144 l31 28 33 -46 c18 -26 42 -70 53 -99 17 -43 27 -54 55
-63 36 -12 60 -48 44 -64 -5 -5 -47 -17 -94 -26 -47 -9 -90 -22 -97 -28 -9 -8
-9 -37 -3 -111 5 -55 9 -128 10 -162 0 -51 4 -67 21 -82 33 -30 37 -34 62 -65
l23 -28 32 36 c42 49 42 70 0 64 -43 -7 -60 12 -75 81 -17 82 -16 167 3 196
20 31 44 32 152 4 l82 -22 59 30 c58 30 58 30 82 11 13 -11 47 -30 74 -44 43
-20 65 -24 155 -24 147 0 152 -2 144 -55 -6 -46 3 -73 41 -115 38 -43 37 -64
-6 -112 -21 -24 -39 -46 -39 -50 0 -4 -40 -34 -88 -67 -88 -59 -134 -104 -155
-148 -15 -33 -2 -39 45 -23 35 13 42 20 43 43 0 16 5 31 11 35 47 31 123 76
194 116 124 70 133 81 126 139 -4 40 -2 51 15 68 l21 21 29 -31 c16 -18 54
-43 85 -57 54 -24 56 -26 50 -56 -13 -67 -55 -137 -114 -192 -51 -49 -132
-163 -132 -187 0 -16 18 -18 61 -5 40 12 44 16 47 49 3 38 36 70 105 103 22
11 41 29 49 48 7 17 31 51 54 76 22 25 48 59 56 77 16 31 15 32 -31 98 -64 93
-64 127 4 225 45 64 51 80 55 138 4 57 9 68 33 86 27 20 29 20 76 3 51 -18 88
-21 115 -11 22 8 20 24 -2 24 -11 0 -27 9 -37 20 -17 19 -17 21 14 55 18 21
31 47 31 62 l0 27 -28 -27 c-31 -30 -63 -35 -82 -12 -18 21 -6 41 28 48 36 7
62 32 62 57 0 17 -3 18 -24 8 -31 -14 -53 -5 -68 27 -10 22 -8 29 14 53 30 32
39 63 25 87 -8 16 -12 12 -31 -26 -24 -51 -52 -58 -74 -19 -13 23 -12 29 9 63
13 21 41 58 62 83 20 25 37 55 37 67 l-1 22 -19 -23 c-10 -12 -36 -29 -57 -38
-59 -24 -91 -61 -99 -110 -9 -60 -28 -74 -48 -35 -9 16 -16 37 -16 46 0 25
-20 17 -31 -12 -16 -42 -4 -78 50 -153 95 -131 111 -189 67 -245 l-24 -29 -36
32 c-76 66 -81 67 -293 64 -209 -4 -230 1 -272 54 -45 57 -13 196 50 218 34
12 73 1 99 -26 l20 -22 0 44 c0 31 -7 53 -25 76 -32 41 -31 44 4 44 17 0 43
-11 61 -26 17 -15 34 -24 37 -20 12 12 -31 88 -59 102 -16 8 -28 21 -25 27 6
21 46 19 77 -3 22 -16 30 -18 30 -8 0 19 -18 40 -64 74 -101 74 -104 154 -5
154 31 0 39 14 13 24 -30 12 -125 6 -162 -10 -43 -18 -97 -11 -111 14 -11 22
10 76 36 91 15 9 13 10 -14 11 -25 0 -42 -9 -73 -40z m17 -151 c8 -7 24 -31
36 -53 18 -35 21 -58 22 -153 0 -102 -2 -114 -22 -134 -39 -39 -49 -21 -56 98
-7 120 -20 175 -49 216 -28 39 -18 59 22 47 18 -5 39 -15 47 -21z"/>
<path d="M1500 5094 c-271 -49 -511 -130 -775 -261 -82 -41 -79 -39 -71 -52 4
-5 62 17 139 54 307 146 566 222 787 232 123 5 211 -2 263 -22 12 -5 17 -2 17
8 0 10 -15 21 -37 28 -38 12 -276 21 -323 13z"/>
<path d="M1552 4851 c-115 -46 -177 -140 -205 -310 l-12 -75 -109 -33 c-69
-21 -113 -30 -119 -24 -5 5 -12 40 -14 78 -6 83 17 152 78 232 22 29 38 56 35
58 -12 13 -101 -32 -136 -68 -53 -55 -74 -128 -67 -238 2 -47 6 -92 8 -100 4
-14 -186 -105 -201 -96 -5 3 -14 36 -21 74 -14 81 -3 160 36 248 27 60 22 64
-42 38 -50 -21 -72 -42 -94 -90 -25 -53 -24 -139 1 -244 23 -96 25 -90 -55
-144 l-48 -33 -52 53 c-66 69 -109 70 -144 5 -15 -28 -7 -57 30 -103 l28 -37
-28 -12 c-16 -6 -43 -26 -61 -43 -27 -27 -31 -36 -26 -65 13 -82 72 -94 154
-32 l54 41 40 -37 c37 -33 44 -36 82 -30 48 8 79 39 70 70 -3 12 -19 41 -35
65 -35 51 -41 43 89 121 318 192 638 291 945 293 l127 2 0 143 c0 136 -1 142
-19 133 -27 -15 -78 -76 -101 -121 -11 -22 -26 -40 -33 -40 -6 0 -68 -7 -137
-15 -68 -8 -128 -11 -132 -7 -11 11 18 117 48 171 27 49 64 93 132 154 l42 37
-32 -1 c-18 0 -52 -8 -76 -18z"/>
<path d="M1685 4818 c-87 -74 -154 -160 -169 -218 -4 -15 3 -8 16 17 25 46 99
128 167 184 24 20 42 41 40 47 -2 7 -26 -7 -54 -30z"/>
<path d="M1260 4744 c-36 -31 -84 -99 -95 -134 -4 -16 4 -8 22 20 16 25 51 64
76 86 26 23 47 44 47 48 0 13 -20 5 -50 -20z"/>
<path d="M213 4643 c10 -18 27 -39 39 -47 31 -22 96 -20 135 4 l32 19 29 -29
c16 -16 42 -32 57 -36 38 -9 103 13 137 46 37 38 36 59 -2 27 -65 -55 -141
-59 -192 -10 -28 26 -28 27 -63 10 -58 -28 -108 -22 -151 15 l-37 33 16 -32z"/>
<path d="M903 4628 c-26 -29 -56 -88 -49 -96 3 -3 6 0 6 6 0 6 18 32 40 57 22
25 40 48 40 51 0 11 -18 2 -37 -18z"/>
<path d="M1150 4570 c0 -7 3 -10 7 -7 3 4 3 10 0 14 -4 3 -7 0 -7 -7z"/>
<path d="M1575 4345 c-217 -28 -392 -85 -629 -205 -99 -49 -184 -94 -190 -100
-31 -31 23 -11 195 74 306 150 515 206 771 209 95 2 138 6 138 13 0 27 -118
30 -285 9z"/>
<path d="M637 4249 c4 -13 8 -18 11 -10 2 7 -1 18 -6 23 -8 8 -9 4 -5 -13z"/>
<path d="M340 4071 c0 -5 5 -13 10 -16 6 -3 10 -2 10 4 0 5 -4 13 -10 16 -5 3
-10 2 -10 -4z"/>
<path d="M290 3850 c0 -19 49 -76 73 -84 33 -12 109 5 147 33 24 17 26 17 59
-6 59 -40 183 -25 210 25 17 32 13 34 -16 13 -16 -11 -49 -26 -74 -32 -43 -12
-51 -11 -101 14 l-54 26 -49 -24 c-71 -36 -119 -33 -161 9 -19 19 -34 31 -34
26z"/>
<path d="M4565 3481 c-120 -29 -197 -116 -235 -266 -11 -44 -25 -82 -32 -86
-6 -4 -63 -20 -125 -34 l-113 -27 -64 -81 c-36 -45 -64 -83 -62 -84 2 -2 46
10 97 26 172 54 233 70 354 92 105 18 147 20 330 16 174 -3 221 -8 277 -25
136 -42 261 -109 366 -198 l42 -37 0 30 c0 72 -53 165 -116 204 -42 26 -42 39
-3 83 31 36 157 106 190 106 34 0 20 17 -30 39 -99 42 -184 19 -269 -74 -29
-31 -52 -61 -52 -66 0 -15 -21 -10 -120 29 -72 29 -96 43 -98 58 -4 30 73 138
126 177 26 19 65 41 87 50 l40 15 -40 18 c-55 23 -141 21 -191 -4 -60 -30
-126 -108 -168 -196 l-37 -79 -101 7 c-56 3 -104 8 -106 11 -3 3 3 33 14 67
21 69 68 138 131 191 40 33 41 35 20 41 -28 7 -73 6 -112 -3z"/>
<path d="M4739 3441 c-25 -15 -61 -48 -81 -72 -39 -48 -72 -108 -64 -116 2 -3
12 9 20 26 26 49 77 102 134 138 28 18 52 38 52 43 0 16 -13 12 -61 -19z"/>
<path d="M5134 3361 c-40 -19 -76 -46 -107 -82 -66 -76 -59 -90 11 -20 54 56
69 64 190 106 18 6 5 25 -16 25 -9 0 -44 -13 -78 -29z"/>
<path d="M5542 3159 c-50 -10 -148 -53 -174 -76 -36 -32 -19 -44 21 -15 35 26
90 45 184 66 15 4 27 13 27 21 0 8 -3 15 -7 14 -5 -1 -27 -5 -51 -10z"/>
<path d="M4272 2677 c-18 -5 -53 -28 -78 -50 -71 -63 -110 -155 -123 -291 l-6
-69 -45 -14 c-25 -8 -65 -20 -90 -28 -25 -7 -53 -16 -63 -20 -13 -6 -20 1 -32
29 -29 69 -12 201 36 285 11 18 18 36 15 38 -8 8 -70 -28 -104 -61 -69 -64
-98 -176 -72 -276 6 -25 12 -51 13 -59 1 -8 -39 -35 -98 -67 -55 -30 -103 -54
-106 -54 -3 0 -12 15 -21 33 -42 88 -100 122 -158 92 -60 -31 -59 -90 2 -147
l32 -30 -22 -17 c-88 -66 -78 -191 16 -191 25 0 39 9 69 45 l37 45 16 -28 c51
-94 100 -112 158 -59 12 11 22 29 22 40 0 24 -47 107 -60 107 -37 0 36 53 144
104 228 108 613 197 789 182 195 -16 324 -66 429 -164 46 -43 48 -44 48 -20 0
41 -58 145 -116 207 l-53 57 19 31 c21 35 53 60 129 98 51 25 54 28 36 41 -29
21 -83 28 -125 15 -42 -12 -116 -78 -146 -129 -17 -30 -21 -32 -64 -27 -25 2
-71 7 -104 11 l-59 6 6 46 c11 89 69 170 162 226 44 27 43 27 -37 40 -101 16
-194 -81 -244 -254 l-22 -75 -98 -17 c-55 -9 -101 -14 -104 -11 -3 3 -5 39 -5
81 1 65 6 88 32 144 18 37 53 90 79 118 43 46 45 50 23 49 -13 -1 -39 -6 -57
-12z"/>
<path d="M4409 2643 c-52 -50 -127 -158 -117 -169 3 -3 17 14 31 38 28 47 76
101 120 136 16 12 27 27 25 34 -3 8 -26 -8 -59 -39z"/>
<path d="M4759 2574 c-66 -44 -103 -83 -130 -137 -23 -46 -21 -44 35 26 21 26
67 66 102 88 58 37 79 59 55 59 -5 0 -33 -16 -62 -36z"/>
<path d="M3973 2547 c-26 -38 -63 -112 -63 -124 1 -4 10 10 22 32 11 22 34 56
49 76 16 20 29 40 29 43 0 15 -17 3 -37 -27z"/>
<path d="M3200 2418 c0 -9 12 -30 26 -47 30 -36 75 -41 113 -15 22 16 25 16
51 0 51 -30 135 -12 160 33 13 26 13 52 -1 28 -25 -44 -115 -61 -158 -31 -22
16 -25 16 -51 0 -50 -29 -101 -18 -128 29 -9 17 -11 17 -12 3z"/>
<path d="M5103 2399 c-51 -17 -135 -68 -148 -90 -15 -23 5 -19 44 9 23 17 64
38 92 48 46 17 78 39 68 48 -2 2 -27 -5 -56 -15z"/>
<path d="M4335 2141 c-108 -20 -248 -56 -360 -94 -84 -29 -265 -117 -265 -129
0 -14 14 -9 111 36 263 122 595 193 787 169 149 -19 289 -93 381 -202 46 -56
68 -61 83 -21 7 20 7 23 -3 13 -22 -22 -35 -15 -96 48 -99 105 -198 161 -321
185 -96 18 -193 17 -317 -5z"/>
<path d="M3240 2058 c0 -17 23 -68 31 -68 5 0 2 15 -7 33 -18 34 -24 44 -24
35z"/>
<path d="M3214 1807 c3 -10 6 -23 6 -28 0 -5 18 -29 41 -54 53 -57 88 -65 158
-34 l52 22 30 -31 c66 -67 180 -46 226 41 l16 32 -41 -37 c-67 -60 -143 -63
-200 -7 l-32 31 -43 -21 c-80 -39 -138 -21 -189 57 -17 26 -28 39 -24 29z"/>
<path d="M3925 1666 c-47 -20 -94 -65 -117 -110 -23 -44 -30 -140 -15 -207 l7
-37 -75 -38 c-75 -38 -76 -39 -91 -19 -18 24 -44 109 -44 144 0 15 4 42 10 60
5 19 8 37 5 39 -10 10 -66 -66 -76 -103 -13 -46 8 -139 42 -186 l19 -27 -64
-56 c-35 -31 -66 -56 -69 -56 -3 0 -14 15 -25 34 -27 46 -76 72 -109 57 -54
-25 -44 -89 21 -134 l34 -23 -39 -39 c-44 -44 -52 -90 -21 -118 41 -37 92 -16
138 57 l28 45 48 -45 c52 -49 93 -57 121 -26 31 34 14 72 -55 122 l-39 29 53
42 c210 167 390 235 596 227 124 -6 212 -32 305 -91 l57 -37 0 25 c0 28 -50
90 -91 111 -16 8 -29 19 -29 25 0 6 20 42 45 79 42 63 90 110 125 122 11 4 6
9 -15 18 -68 27 -158 -19 -212 -109 -18 -30 -34 -58 -35 -63 -2 -5 -21 -2 -43
5 -22 8 -62 17 -88 21 -48 7 -48 8 -41 39 16 77 77 160 154 210 l45 29 -58 -5
c-106 -10 -177 -71 -239 -204 -17 -37 -36 -71 -42 -75 -23 -15 -150 -38 -160
-28 -5 5 -11 34 -14 65 -6 69 15 126 69 195 40 51 37 59 -16 36z"/>
<path d="M4023 1648 c-30 -34 -70 -100 -77 -128 -5 -18 -1 -14 14 12 11 20 40
58 65 85 25 26 45 49 45 50 0 12 -30 -1 -47 -19z"/>
<path d="M4376 1599 c-42 -28 -126 -123 -126 -143 0 -4 31 24 68 63 55 56 77
72 115 82 52 13 63 29 19 29 -16 0 -50 -14 -76 -31z"/>
<path d="M3664 1496 c-9 -15 -14 -29 -12 -32 3 -2 13 7 22 22 10 14 15 28 13
31 -3 2 -13 -7 -23 -21z"/>
<path d="M4649 1474 c-50 -33 -128 -119 -117 -129 2 -2 26 18 53 46 27 28 71
62 97 75 46 24 62 44 34 44 -7 0 -37 -16 -67 -36z"/>
<path d="M4030 1220 c-85 -22 -250 -102 -325 -157 -61 -45 -43 -57 20 -13 73
50 243 128 320 145 85 20 204 22 277 5 64 -15 149 -57 202 -99 21 -17 43 -31
49 -31 13 0 36 31 36 50 0 12 -2 11 -10 -2 -15 -27 -33 -22 -99 26 -93 69
-155 89 -285 93 -85 2 -127 -1 -185 -17z"/>
<path d="M3490 1190 c0 -7 3 -10 7 -7 3 4 3 10 0 14 -4 3 -7 0 -7 -7z"/>
<path d="M3230 1064 c0 -20 41 -75 51 -68 7 4 0 18 -18 38 -15 17 -29 33 -30
35 -2 2 -3 0 -3 -5z"/>
<path d="M3461 818 c-18 -22 -44 -44 -56 -50 -36 -16 -91 -1 -130 36 -41 39
-48 22 -8 -19 38 -38 72 -53 111 -50 37 3 88 45 103 83 l9 24 29 -31 c36 -38
95 -64 124 -55 27 8 87 63 87 80 0 7 -14 -1 -31 -17 -25 -24 -40 -29 -78 -29
-39 0 -54 6 -87 34 l-40 34 -33 -40z"/>
</g>
</svg>
