<?xml version="1.0" encoding="UTF-8"?>
<svg version="1.1" xmlns="http://www.w3.org/2000/svg" width="800" height="450">
<path d="M0 0 C264 0 528 0 800 0 C800 148.5 800 297 800 450 C536 450 272 450 0 450 C0 301.5 0 153 0 0 Z " fill="#E5E5E5" transform="translate(0,0)"/>
<path d="M0 0 C2 2 2 2 2.19873047 4.15356445 C2.17182129 5.047771 2.14491211 5.94197754 2.1171875 6.86328125 C2.0867334 7.880271 2.0562793 8.89726074 2.02490234 9.94506836 C1.97543457 11.0563208 1.9259668 12.16757324 1.875 13.3125 C1.79886475 15.04802124 1.79886475 15.04802124 1.72119141 16.81860352 C-0.60937668 61.50979274 -12.63922859 108.41744344 -41 144 C-41.45987305 144.58330078 -41.91974609 145.16660156 -42.39355469 145.76757812 C-61.55408472 169.81877831 -61.55408472 169.81877831 -71.7578125 171.4375 C-76.08903529 170.85304584 -78.63252931 168.73235405 -81.875 166 C-82.49358887 165.49235107 -83.11217773 164.98470215 -83.74951172 164.46166992 C-85.51763484 162.99411381 -87.26278281 161.50393071 -89 160 C-89.74765625 159.35675781 -90.4953125 158.71351563 -91.265625 158.05078125 C-128.43433285 123.30272454 -143.79030953 65.11826247 -146 16 C-146.07605469 14.74960938 -146.15210938 13.49921875 -146.23046875 12.2109375 C-146.27816406 10.94507813 -146.32585937 9.67921875 -146.375 8.375 C-146.42398438 7.22773438 -146.47296875 6.08046875 -146.5234375 4.8984375 C-146 2 -146 2 -143.85913086 0.41479492 C-140.79271533 -1.10257149 -138.07937337 -1.84829693 -134.73046875 -2.53515625 C-132.91409912 -2.91184448 -132.91409912 -2.91184448 -131.06103516 -3.29614258 C-129.78276855 -3.54904053 -128.50450195 -3.80193848 -127.1875 -4.0625 C-126.20750031 -4.26001358 -126.20750031 -4.26001358 -125.20770264 -4.46151733 C-115.50938394 -6.41604291 -105.86565978 -8.14453175 -96 -9 C-94.7934375 -9.10957031 -93.586875 -9.21914062 -92.34375 -9.33203125 C-61.87465115 -11.73243294 -29.21807226 -9.40987983 0 0 Z " fill="#252123" transform="translate(161,144)"/>
<path d="M0 0 C4.95 0 9.9 0 15 0 C15 4.95 15 9.9 15 15 C19.95 15 24.9 15 30 15 C30 19.95 30 24.9 30 30 C34.95 30 39.9 30 45 30 C44.505 28.02 44.505 28.02 44 26 C48.29072522 25.76518869 52.5797773 25.62475751 56.875 25.5 C58.07898438 25.43296875 59.28296875 25.3659375 60.5234375 25.296875 C70.06009043 25.08955646 74.21899264 27.57462006 81 34 C82.60975182 35.24776718 84.23868409 36.47122081 85.88671875 37.66796875 C86.68013672 38.25126953 87.47355469 38.83457031 88.29101562 39.43554688 C89.08185547 40.01369141 89.87269531 40.59183594 90.6875 41.1875 C91.89116211 42.07211914 91.89116211 42.07211914 93.11914062 42.97460938 C94.68196578 44.12153168 96.24934108 45.2622865 97.82177734 46.39599609 C99.22854902 47.4319174 100.61175595 48.50099784 101.96337891 49.60791016 C103.93094981 51.24421879 103.93094981 51.24421879 107 53 C110.7951059 51.94994639 113.57416579 50.01356007 116.66015625 47.62109375 C117.52962891 46.95078125 118.39910156 46.28046875 119.29492188 45.58984375 C120.66487305 44.52443359 120.66487305 44.52443359 122.0625 43.4375 C123.01060547 42.71820313 123.95871094 41.99890625 124.93554688 41.2578125 C130.79775194 36.80875978 130.79775194 36.80875978 136.30859375 31.94140625 C146.23277226 22.93906725 150.07554325 26 166 26 C166 42.17 166 58.34 166 75 C159.73 75 153.46 75 147 75 C144.96876925 72.96876925 145.74330382 68.82231134 145.68359375 66.02734375 C145.66281265 65.22970108 145.64203156 64.43205841 145.62062073 63.61024475 C145.55503842 61.05275389 145.49620033 58.4951572 145.4375 55.9375 C145.39432301 54.20767118 145.35070899 52.47785321 145.30664062 50.74804688 C145.19934828 46.4988074 145.09810574 42.2494611 145 38 C137.38895404 43.69339977 129.80368422 49.41810631 122.25 55.1875 C119.64169677 57.17905217 117.0331313 59.1699405 114.41601562 61.14990234 C112.84569975 62.35239362 111.29109815 63.57578995 109.75585938 64.82275391 C109.06814453 65.37237793 108.38042969 65.92200195 107.671875 66.48828125 C107.07987305 66.97466064 106.48787109 67.46104004 105.87792969 67.9621582 C103.36569953 69.35054749 101.83553253 69.38202549 99 69 C96.82202148 67.76928711 96.82202148 67.76928711 94.62109375 66.02734375 C93.37755127 65.05958008 93.37755127 65.05958008 92.10888672 64.07226562 C91.2273291 63.36779297 90.34577148 62.66332031 89.4375 61.9375 C87.55403788 60.46661206 85.66990624 58.99658109 83.78515625 57.52734375 C82.82625488 56.77437012 81.86735352 56.02139648 80.87939453 55.24560547 C76.42296065 51.77008581 71.90218233 48.38254138 67.375 45 C66.54637451 44.37915527 65.71774902 43.75831055 64.86401367 43.11865234 C58.94823915 38.69152482 53.00248258 34.30912167 47 30 C45.58365167 32.83269666 45.6536995 35.47466438 45.4375 38.625 C45.293125 40.72875 45.14875 42.8325 45 45 C49.95 45 54.9 45 60 45 C60 49.95 60 54.9 60 60 C64.95 60 69.9 60 75 60 C75 64.95 75 69.9 75 75 C79.95 75 84.9 75 90 75 C90 79.95 90 84.9 90 90 C94.95 90 99.9 90 105 90 C105 94.95 105 99.9 105 105 C109.75640658 104.96061829 109.75640658 104.96061829 114.51269531 104.90991211 C121.53737907 104.88062685 121.53737907 104.88062685 124 106 C125.703125 108.06640625 125.703125 108.06640625 127.25 110.5625 C127.77078125 111.38878906 128.2915625 112.21507812 128.828125 113.06640625 C129.21484375 113.70449219 129.6015625 114.34257812 130 115 C133.88507849 113.70497384 134.51166457 111.89694799 136.5234375 108.49609375 C137.01070312 108.00238281 137.49796875 107.50867188 138 107 C139.65 107 141.3 107 143 107 C143 111.95 143 116.9 143 122 C141.68 122 140.36 122 139 122 C138.67 119.03 138.34 116.06 138 113 C136.02 115.64 134.04 118.28 132 121 C127.60539477 119.53513159 126.55742685 116.80158045 124 113 C123.67 115.97 123.34 118.94 123 122 C121.68 122 120.36 122 119 122 C119 121.34 119 120.68 119 120 C109.43 120 99.86 120 90 120 C90 115.05 90 110.1 90 105 C85.05 105 80.1 105 75 105 C75 100.05 75 95.1 75 90 C70.05 90 65.1 90 60 90 C60 94.95 60 99.9 60 105 C50.1 105 40.2 105 30 105 C30 100.05 30 95.1 30 90 C25.05 90 20.1 90 15 90 C15 95.28 15 100.56 15 106 C21.6 106.33 28.2 106.66 35 107 C35 107.66 35 108.32 35 109 C32.03 109 29.06 109 26 109 C26 113.29 26 117.58 26 122 C24.68 122 23.36 122 22 122 C22 121.34 22 120.68 22 120 C9.79 120 -2.42 120 -15 120 C-15 115.05 -15 110.1 -15 105 C-10.05 105 -5.1 105 0 105 C0 100.05 0 95.1 0 90 C-4.95 90 -9.9 90 -15 90 C-15 85.05 -15 80.1 -15 75 C-19.95 75 -24.9 75 -30 75 C-30 70.05 -30 65.1 -30 60 C-25.05 60 -20.1 60 -15 60 C-15 55.05 -15 50.1 -15 45 C-19.95 45 -24.9 45 -30 45 C-30 40.05 -30 35.1 -30 30 C-25.05 30 -20.1 30 -15 30 C-15 25.05 -15 20.1 -15 15 C-10.05 15 -5.1 15 0 15 C0 10.05 0 5.1 0 0 Z " fill="#E2E2E2" transform="translate(360,163)"/>
<path d="M0 0 C9.41002991 2.16788031 15.09961645 9.24542719 20.63671875 16.69921875 C20.96671875 13.06921875 21.29671875 9.43921875 21.63671875 5.69921875 C26.58671875 5.69921875 31.53671875 5.69921875 36.63671875 5.69921875 C36.63671875 10.64921875 36.63671875 15.59921875 36.63671875 20.69921875 C41.58671875 20.69921875 46.53671875 20.69921875 51.63671875 20.69921875 C51.63671875 25.64921875 51.63671875 30.59921875 51.63671875 35.69921875 C56.58671875 35.69921875 61.53671875 35.69921875 66.63671875 35.69921875 C66.63671875 40.64921875 66.63671875 45.59921875 66.63671875 50.69921875 C71.58671875 50.69921875 76.53671875 50.69921875 81.63671875 50.69921875 C81.51296875 48.47171875 81.38921875 46.24421875 81.26171875 43.94921875 C81.15730469 42.06976563 81.15730469 42.06976563 81.05078125 40.15234375 C80.66758512 36.95663263 80.04222961 35.47119851 78.63671875 32.69921875 C77.92876705 26.40174138 77.4133692 19.59573032 81.2734375 14.25 C81.72332031 13.73824219 82.17320312 13.22648438 82.63671875 12.69921875 C83.13816406 12.09464844 83.63960937 11.49007812 84.15625 10.8671875 C91.20105347 3.57681354 101.95458506 1.64266725 111.77214718 1.27827072 C115.39391867 1.22068187 119.01120409 1.25686945 122.6328125 1.30859375 C124.20320403 1.31607943 125.77360508 1.32176131 127.3440094 1.32574463 C131.42281135 1.34081843 135.50101852 1.37993547 139.57958984 1.42456055 C143.76326457 1.46591415 147.94703799 1.48384008 152.13085938 1.50390625 C160.29974827 1.54645346 168.46815897 1.61447438 176.63671875 1.69921875 C174.9731877 4.51451519 173.23122002 6.69018306 170.63671875 8.69921875 C166.62135947 9.6969408 162.70832172 9.5596011 158.58984375 9.4609375 C157.42346375 9.46374222 156.25708374 9.46654694 155.05535889 9.46943665 C151.33153871 9.47470964 147.61021213 9.43415332 143.88671875 9.38671875 C140.177891 9.35512039 136.46989259 9.33395383 132.76092529 9.33613586 C130.45683377 9.33600698 128.15262832 9.31611257 125.84893799 9.27311707 C117.38250108 9.25017377 110.8503559 11.00966313 103.69921875 15.57421875 C100.20319586 19.17618173 98.76328517 22.2563616 98.32421875 27.26171875 C98.75537739 32.00446376 99.71208077 34.55042611 102.69921875 38.26171875 C109.47215033 43.88181091 117.07539343 45.48303048 125.63671875 46.69921875 C124.26171875 48.69921875 124.26171875 48.69921875 121.63671875 50.69921875 C118.33671875 50.69921875 115.03671875 50.69921875 111.63671875 50.69921875 C111.63671875 60.59921875 111.63671875 70.49921875 111.63671875 80.69921875 C101.73671875 80.69921875 91.83671875 80.69921875 81.63671875 80.69921875 C81.63671875 85.31921875 81.63671875 89.93921875 81.63671875 94.69921875 C84.27671875 94.69921875 86.91671875 94.69921875 89.63671875 94.69921875 C89.63671875 95.68921875 89.63671875 96.67921875 89.63671875 97.69921875 C83.36671875 97.69921875 77.09671875 97.69921875 70.63671875 97.69921875 C70.63671875 97.03921875 70.63671875 96.37921875 70.63671875 95.69921875 C69.31671875 95.69921875 67.99671875 95.69921875 66.63671875 95.69921875 C66.63671875 90.74921875 66.63671875 85.79921875 66.63671875 80.69921875 C61.68671875 80.69921875 56.73671875 80.69921875 51.63671875 80.69921875 C51.63671875 85.64921875 51.63671875 90.59921875 51.63671875 95.69921875 C47.01671875 95.69921875 42.39671875 95.69921875 37.63671875 95.69921875 C37.63671875 96.35921875 37.63671875 97.01921875 37.63671875 97.69921875 C36.31671875 97.69921875 34.99671875 97.69921875 33.63671875 97.69921875 C33.63671875 92.41921875 33.63671875 87.13921875 33.63671875 81.69921875 C34.62671875 81.69921875 35.61671875 81.69921875 36.63671875 81.69921875 C36.63671875 71.46921875 36.63671875 61.23921875 36.63671875 50.69921875 C34.32671875 50.69921875 32.01671875 50.69921875 29.63671875 50.69921875 C27.23841858 49.1427002 27.23841858 49.1427002 25.07836914 46.93554688 C24.25804703 46.11469604 23.43772491 45.29384521 22.59254456 44.44812012 C21.7318486 43.55129517 20.87115265 42.65447021 19.984375 41.73046875 C19.08424179 40.82043091 18.18410858 39.91039307 17.25669861 38.97277832 C14.87195612 36.56139849 12.50898721 34.12974573 10.15002441 31.69317627 C7.73592562 29.20727403 5.30171131 26.74124311 2.86914062 24.2734375 C-1.89371458 19.43343036 -6.63602969 14.57399233 -11.36328125 9.69921875 C-14.68194468 11.26226626 -16.62222999 12.84170349 -19.05078125 15.61328125 C-19.75074219 16.37382812 -20.45070313 17.134375 -21.171875 17.91796875 C-22.62265955 19.51098707 -24.0528936 21.12298762 -25.4609375 22.75390625 C-28.68574319 26.19525969 -30.83773631 28.45308891 -35.6015625 29.22167969 C-38.57066612 29.22255193 -41.41973931 29.07463241 -44.36328125 28.69921875 C-42.9922246 27.1025729 -41.62027652 25.50668788 -40.24511719 23.91357422 C-38.9370641 22.37438876 -37.65001497 20.81720582 -36.37988281 19.24658203 C-26.04503707 6.62482649 -17.17168061 -2.14050255 0 0 Z " fill="#DFDFDF" transform="translate(608.36328125,187.30078125)"/>
<path d="M0 0 C8.35399521 -0.09289648 16.70777271 -0.16386382 25.06215763 -0.20724869 C28.94193396 -0.2280769 32.82135554 -0.25630607 36.70092773 -0.30175781 C40.44866331 -0.34538759 44.1960588 -0.36917293 47.94402885 -0.37950897 C49.37012519 -0.38686982 50.79620403 -0.40124386 52.22215462 -0.42292023 C66.20452408 -0.6269161 66.20452408 -0.6269161 72 4 C73.54586876 7.09173752 73.29359521 9.59429552 73 13 C70.53964696 16.37159491 67.96294239 17.82913066 64 19 C57.79533737 19.96516974 51.77147873 20.12175089 45.5 20.0625 C44.5821875 20.05798828 43.664375 20.05347656 42.71875 20.04882812 C40.47909229 20.03716324 38.23959496 20.01989267 36 20 C42.01669932 27.19482524 48.6371905 33.76598264 55.27734375 40.375 C56.45583183 41.55161924 57.63409653 42.72846225 58.81214905 43.90551758 C61.88902808 46.97860807 64.9688999 50.04868155 68.04943848 53.11810303 C71.20211573 56.26048674 74.35190669 59.40576071 77.50195312 62.55078125 C83.66517254 68.70332807 89.83156165 74.85268562 96 81 C93.3333581 82.33332095 91.83319697 81.67102033 89 81 C88.29037109 82.10794922 88.29037109 82.10794922 87.56640625 83.23828125 C70.37533091 109.61133444 70.37533091 109.61133444 60.9765625 113.9296875 C59 114 59 114 57.10546875 112.8125 C56.47253906 112.214375 55.83960938 111.61625 55.1875 111 C54.56230469 110.4225 53.93710938 109.845 53.29296875 109.25 C52.53628906 108.5075 51.77960938 107.765 51 107 C50.46842285 106.49686279 49.9368457 105.99372559 49.38916016 105.4753418 C45.02176999 101.26105645 41.43887158 96.80444711 38 91.8125 C37.48018555 91.06274902 36.96037109 90.31299805 36.42480469 89.54052734 C21.80512038 68.25853525 12.84421589 44.15008301 7.0625 19.0625 C6.85085205 18.1449292 6.6392041 17.2273584 6.42114258 16.28198242 C5.43546288 11.77571836 4.74753612 7.64380531 5 3 C2.525 2.01 2.525 2.01 0 1 C0 0.67 0 0.34 0 0 Z " fill="#E5E5E5" transform="translate(29,183)"/>
<path d="M0 0 C0.8855658 -0.00172211 1.77113159 -0.00344421 2.68353271 -0.00521851 C16.99067491 -0.00206708 30.79881366 1.2131107 44.875 3.875 C46.15761719 4.1121875 47.44023437 4.349375 48.76171875 4.59375 C51.76758429 5.27923815 54.35379537 6.19587865 57.1875 7.375 C57.38427414 15.36323497 56.81475686 23.07831599 55.8125 31 C55.62300781 32.60101563 55.62300781 32.60101563 55.4296875 34.234375 C54.25085766 43.8300499 52.13998232 52.96081503 49.5 62.25 C49.24524902 63.14678467 48.99049805 64.04356934 48.72802734 64.9675293 C46.02034621 74.28120161 42.68079268 83.33171273 39.1875 92.375 C36.28206128 91.06123083 34.22088941 89.65443508 31.97949219 87.39404297 C31.37917175 86.79357147 30.77885132 86.19309998 30.16033936 85.57443237 C29.52477112 84.92854156 28.88920288 84.28265076 28.234375 83.6171875 C27.57415344 82.95413605 26.91393188 82.29108459 26.23370361 81.60794067 C24.13022176 79.49328168 22.03380858 77.37176788 19.9375 75.25 C18.51087739 73.81334443 17.08379928 72.37714102 15.65625 70.94140625 C12.16136339 67.42449196 8.67279938 63.90141453 5.1875 60.375 C7.84526575 57.71723425 9.61028026 57.92090201 13.3125 57.5 C20.41904059 56.4870235 25.6719241 55.08408173 30.625 49.75 C33.3089638 45.67037503 33.9726722 42.22140773 33.1875 37.375 C29.62196279 31.64853114 25.37634642 29.41610634 18.92878723 27.81361389 C15.5372948 27.27096529 12.26210912 27.2106427 8.8269043 27.16967773 C8.10440994 27.15977814 7.38191559 27.14987854 6.63752747 27.13967896 C4.26229061 27.10822795 1.88703379 27.0833718 -0.48828125 27.05859375 C-2.14023848 27.03801004 -3.79219062 27.0170132 -5.44413757 26.99562073 C-9.78252013 26.94054638 -14.12094906 26.89107283 -18.45941162 26.84277344 C-22.89030055 26.79245125 -27.32112251 26.73682123 -31.75195312 26.68164062 C-40.43874538 26.57423819 -49.12559383 26.47275378 -57.8125 26.375 C-58.58705497 22.00640278 -58.92032087 17.94144526 -58.875 13.5 C-58.86597656 12.34757813 -58.85695313 11.19515625 -58.84765625 10.0078125 C-58.83605469 9.13898438 -58.82445313 8.27015625 -58.8125 7.375 C-40.68580901 -0.28385612 -19.37686723 -0.00964578 0 0 Z " fill="#E0E0E0" transform="translate(89.8125,149.625)"/>
<path d="M0 0 C4.95 0 9.9 0 15 0 C15 4.95 15 9.9 15 15 C19.95 15 24.9 15 30 15 C30 10.05 30 5.1 30 0 C34.95 0 39.9 0 45 0 C45 4.95 45 9.9 45 15 C49.95 15 54.9 15 60 15 C60 10.05 60 5.1 60 0 C64.95 0 69.9 0 75 0 C75 4.95 75 9.9 75 15 C79.95 15 84.9 15 90 15 C90 19.29 90 23.58 90 28 C91.98 28.33 93.96 28.66 96 29 C98.91906279 30.75633338 101.4585418 32.91708361 103 36 C103.45476482 42.02563388 102.35216021 44.94219173 98.75 49.625 C92.1903799 54.77898722 84.00762764 55.05596623 76 56 C76.7724707 56.75676025 76.7724707 56.75676025 77.56054688 57.52880859 C79.87885984 59.80568564 82.18949158 62.09020471 84.5 64.375 C85.31082031 65.1690625 86.12164062 65.963125 86.95703125 66.78125 C87.72402344 67.54179687 88.49101562 68.30234375 89.28125 69.0859375 C89.99345703 69.7876709 90.70566406 70.4894043 91.43945312 71.21240234 C93 73 93 73 93 75 C85.14010054 76.72988758 75.490341 78.38921962 68.27960205 73.93798828 C59.78277005 67.56468761 52.77347488 59.11845362 46 51 C46.495 50.01 46.495 50.01 47 49 C47.9744104 48.970271 47.9744104 48.970271 48.96850586 48.93994141 C51.95852522 48.84372067 54.94793648 48.73444101 57.9375 48.625 C58.95908203 48.5940625 59.98066406 48.563125 61.03320312 48.53125 C72.05786381 48.20294947 72.05786381 48.20294947 82 44 C82.36297936 42.02252878 82.36297936 42.02252878 82.1875 39.875 C82.125625 38.59625 82.06375 37.3175 82 36 C77.38203955 34.21160285 73.51352883 33.74076425 68.57348633 33.71289062 C67.85566483 33.70605759 67.13784332 33.69922455 66.39826965 33.69218445 C64.84981699 33.67866125 63.3013205 33.66956652 61.75281715 33.66447449 C59.30239606 33.65614932 56.8523412 33.63561452 54.40202332 33.61193848 C48.32137802 33.555679 42.24064417 33.52027181 36.15985107 33.48431396 C31.01061493 33.45308632 25.86155951 33.41392639 20.7124691 33.36405945 C18.29777497 33.34398481 15.88322027 33.33567274 13.46846008 33.32775879 C11.99174487 33.31478983 10.51503435 33.30127002 9.03833008 33.28710938 C7.74848709 33.27981812 6.4586441 33.27252686 5.12971497 33.26501465 C2 33 2 33 -1 31 C-5.65907729 30.42507312 -10.30899966 30.2582202 -15 30 C-15 25.05 -15 20.1 -15 15 C-10.05 15 -5.1 15 0 15 C0 10.05 0 5.1 0 0 Z " fill="#D5D5D5" transform="translate(210,163)"/>
<path d="M0 0 C4.29072522 -0.23481131 8.5797773 -0.37524249 12.875 -0.5 C14.07898438 -0.56703125 15.28296875 -0.6340625 16.5234375 -0.703125 C26.06009043 -0.91044354 30.21899264 1.57462006 37 8 C38.60975182 9.24776718 40.23868409 10.47122081 41.88671875 11.66796875 C42.68013672 12.25126953 43.47355469 12.83457031 44.29101562 13.43554688 C45.47727539 14.30276367 45.47727539 14.30276367 46.6875 15.1875 C47.48994141 15.77724609 48.29238281 16.36699219 49.11914062 16.97460938 C50.68196578 18.12153168 52.24934108 19.2622865 53.82177734 20.39599609 C55.22854902 21.4319174 56.61175595 22.50099784 57.96337891 23.60791016 C59.93094981 25.24421879 59.93094981 25.24421879 63 27 C66.7951059 25.94994639 69.57416579 24.01356007 72.66015625 21.62109375 C73.52962891 20.95078125 74.39910156 20.28046875 75.29492188 19.58984375 C76.66487305 18.52443359 76.66487305 18.52443359 78.0625 17.4375 C79.01060547 16.71820313 79.95871094 15.99890625 80.93554688 15.2578125 C86.79775194 10.80875978 86.79775194 10.80875978 92.30859375 5.94140625 C102.23277226 -3.06093275 106.07554325 0 122 0 C122 16.17 122 32.34 122 49 C115.73 49 109.46 49 103 49 C100.96876925 46.96876925 101.74330382 42.82231134 101.68359375 40.02734375 C101.66281265 39.22970108 101.64203156 38.43205841 101.62062073 37.61024475 C101.55503842 35.05275389 101.49620033 32.4951572 101.4375 29.9375 C101.39432301 28.20767118 101.35070899 26.47785321 101.30664062 24.74804688 C101.19934828 20.4988074 101.09810574 16.2494611 101 12 C93.38895404 17.69339977 85.80368422 23.41810631 78.25 29.1875 C75.64169677 31.17905217 73.0331313 33.1699405 70.41601562 35.14990234 C68.84569975 36.35239362 67.29109815 37.57578995 65.75585938 38.82275391 C65.06814453 39.37237793 64.38042969 39.92200195 63.671875 40.48828125 C63.07987305 40.97466064 62.48787109 41.46104004 61.87792969 41.9621582 C59.36569953 43.35054749 57.83553253 43.38202549 55 43 C52.82202148 41.76928711 52.82202148 41.76928711 50.62109375 40.02734375 C49.79230713 39.3823291 48.96352051 38.73731445 48.10961914 38.07275391 C47.22781982 37.36812012 46.34602051 36.66348633 45.4375 35.9375 C43.55010131 34.46404647 41.66206456 32.99140995 39.7734375 31.51953125 C38.81405273 30.76623535 37.85466797 30.01293945 36.86621094 29.23681641 C32.47417364 25.80923159 28.02258883 22.46327363 23.5625 19.125 C22.74160889 18.50786133 21.92071777 17.89072266 21.07495117 17.25488281 C15.4519206 13.04114016 9.76645575 8.92427517 3.95922852 4.96728516 C2.6049031 4.02609822 1.29638962 3.01951171 0 2 C0 1.34 0 0.68 0 0 Z " fill="#272324" transform="translate(404,189)"/>
<path d="M0 0 C4.95 0 9.9 0 15 0 C15 3.63 15 7.26 15 11 C18.63 11 22.26 11 26 11 C26 27.17 26 43.34 26 60 C22.37 60 18.74 60 15 60 C15 64.95 15 69.9 15 75 C10.05 75 5.1 75 0 75 C0 70.05 0 65.1 0 60 C-4.95 60 -9.9 60 -15 60 C-15 55.05 -15 50.1 -15 45 C-10.05 45 -5.1 45 0 45 C0 40.05 0 35.1 0 30 C-4.95 30 -9.9 30 -15 30 C-15 25.05 -15 20.1 -15 15 C-10.05 15 -5.1 15 0 15 C0 10.05 0 5.1 0 0 Z " fill="#C8C8C8" transform="translate(345,178)"/>
<path d="M0 0 C11.13612465 -0.0465139 22.27222587 -0.08196553 33.40842819 -0.10362434 C38.58042605 -0.1140239 43.75235703 -0.12811256 48.92431641 -0.15087891 C53.92343038 -0.17274457 58.92248035 -0.18459735 63.92163849 -0.18975449 C65.8208339 -0.19342575 67.72002615 -0.20059422 69.61919403 -0.21146011 C98.41085102 -0.36951068 98.41085102 -0.36951068 106.875 7.8125 C108.53043273 11.03139698 108.37553027 13.43246244 108 17 C105.54956898 22.13423643 102.68086206 25.12583595 97.3828125 27.3046875 C92.06410928 28.85670254 86.48923778 29.35286378 81 30 C81.51498047 30.50450684 82.02996094 31.00901367 82.56054688 31.52880859 C84.87885984 33.80568564 87.18949158 36.09020471 89.5 38.375 C90.31082031 39.1690625 91.12164062 39.963125 91.95703125 40.78125 C92.72402344 41.54179687 93.49101562 42.30234375 94.28125 43.0859375 C94.99345703 43.7876709 95.70566406 44.4894043 96.43945312 45.21240234 C98 47 98 47 98 49 C90.14010054 50.72988758 80.490341 52.38921962 73.27960205 47.93798828 C64.78277005 41.56468761 57.77347488 33.11845362 51 25 C51.33 24.34 51.66 23.68 52 23 C52.64960693 22.98018066 53.29921387 22.96036133 53.96850586 22.93994141 C56.95852522 22.84372067 59.94793648 22.73444101 62.9375 22.625 C63.95908203 22.5940625 64.98066406 22.563125 66.03320312 22.53125 C77.05786381 22.20294947 77.05786381 22.20294947 87 18 C87.36297936 16.02252878 87.36297936 16.02252878 87.1875 13.875 C87.125625 12.59625 87.06375 11.3175 87 10 C82.38806721 8.20952306 78.57157534 7.75796669 73.63696289 7.77636719 C72.92556656 7.77595932 72.21417023 7.77555145 71.48121643 7.77513123 C69.94583216 7.7749346 68.41044269 7.77893868 66.8750782 7.78673553 C64.44034662 7.79701136 62.00612299 7.79154453 59.57139587 7.78131104 C52.65240401 7.75342036 45.73370238 7.7408431 38.81469727 7.77001953 C34.57345643 7.78677953 30.33312819 7.77439014 26.09197807 7.74356842 C24.48172829 7.73748093 22.87139735 7.74228934 21.26121712 7.75844574 C7.10127835 7.89461842 7.10127835 7.89461842 2.45874023 4.01660156 C0 1 0 1 0 0 Z " fill="#2C2829" transform="translate(205,189)"/>
<path d="M0 0 C1.57039153 0.00748568 3.14079258 0.01316756 4.7111969 0.01715088 C8.78999885 0.03222468 12.86820602 0.07134172 16.94677734 0.1159668 C21.13045207 0.1573204 25.31422549 0.17524633 29.49804688 0.1953125 C37.66693577 0.23785971 45.83534647 0.30588063 54.00390625 0.390625 C52.3403752 3.20592144 50.59840752 5.38158931 48.00390625 7.390625 C43.98854697 8.38834705 40.07550922 8.25100735 35.95703125 8.15234375 C34.79065125 8.15514847 33.62427124 8.15795319 32.42254639 8.1608429 C28.69872621 8.16611589 24.97739963 8.12555957 21.25390625 8.078125 C17.5450785 8.04652664 13.83708009 8.02536008 10.12811279 8.02754211 C7.82402127 8.02741323 5.51981582 8.00751882 3.21612549 7.96452332 C-5.25031142 7.94158002 -11.7824566 9.70106938 -18.93359375 14.265625 C-22.42961664 17.86758798 -23.86952733 20.94776785 -24.30859375 25.953125 C-23.87743511 30.69587001 -22.92073173 33.24183236 -19.93359375 36.953125 C-13.16066217 42.57321716 -5.55741907 44.17443673 3.00390625 45.390625 C1.5390625 47.36328125 1.5390625 47.36328125 -0.99609375 49.390625 C-4.0006896 49.76880505 -6.56632069 49.91386525 -9.55859375 49.828125 C-10.36345215 49.81346191 -11.16831055 49.79879883 -11.99755859 49.78369141 C-23.19120258 49.43087026 -31.64394907 46.94869956 -39.5625 38.7734375 C-44.33538202 33.30705981 -44.35104999 28.62203703 -44.265625 21.6171875 C-43.89743589 17.20959038 -42.89106112 14.68375407 -39.99609375 11.390625 C-39.49464844 10.78605469 -38.99320313 10.18148437 -38.4765625 9.55859375 C-28.70424085 -0.55437528 -13.07578793 -0.18675017 0 0 Z " fill="#2A2728" transform="translate(730.99609375,188.609375)"/>
<path d="M0 0 C9.13543984 5.60539671 16.28554283 13.79928046 23.43536377 21.6708374 C26.06314749 24.53295362 28.76847937 27.31988821 31.46484375 30.1171875 C35.37034295 34.19613544 39.24778301 38.29797639 43.06640625 42.45849609 C44.2102478 43.70425919 44.2102478 43.70425919 45.37719727 44.97518921 C47 47 47 47 47 49 C38.40164517 50.58643155 28.92842532 51.82356313 21.0647583 47.31835938 C14.49248218 42.25504389 8.93479155 36.15929474 3.41467285 29.99395752 C1.1380279 27.47859062 -1.20828685 25.02996624 -3.54882812 22.57421875 C-8.09773132 17.77389475 -12.57447639 12.9141546 -17 8 C-20.31866343 9.56304751 -22.25894874 11.14248474 -24.6875 13.9140625 C-25.38746094 14.67460937 -26.08742188 15.43515625 -26.80859375 16.21875 C-28.2593783 17.81176832 -29.68961235 19.42376887 -31.09765625 21.0546875 C-34.32246194 24.49604094 -36.47445506 26.75387016 -41.23828125 27.52246094 C-44.20738487 27.52333318 -47.05645806 27.37541366 -50 27 C-48.62894335 25.40335415 -47.25699527 23.80746913 -45.88183594 22.21435547 C-44.57378285 20.67517001 -43.28673372 19.11798707 -42.01660156 17.54736328 C-39.78525181 14.82225719 -37.46411524 12.19542631 -35.125 9.5625 C-34.39925781 8.64017578 -33.67351563 7.71785156 -32.92578125 6.76757812 C-24.45453857 -2.47688784 -11.61414163 -4.11874026 0 0 Z " fill="#292627" transform="translate(614,189)"/>
<path d="M0 0 C4.95 0 9.9 0 15 0 C15 4.95 15 9.9 15 15 C19.95 15 24.9 15 30 15 C30 19.95 30 24.9 30 30 C27.875625 30.144375 25.75125 30.28875 23.5625 30.4375 C19.45880084 30.36536356 19.45880084 30.36536356 16 32 C14.59651265 32.09860131 13.18819523 32.13078937 11.78125 32.1328125 C10.50701172 32.13474609 10.50701172 32.13474609 9.20703125 32.13671875 C7.86705078 32.13091797 7.86705078 32.13091797 6.5 32.125 C5.60667969 32.12886719 4.71335937 32.13273437 3.79296875 32.13671875 C2.94347656 32.13542969 2.09398437 32.13414062 1.21875 32.1328125 C0.43435547 32.13168457 -0.35003906 32.13055664 -1.15820312 32.12939453 C-3 32 -3 32 -4 31 C-5.84891946 30.76636119 -7.70488031 30.58696365 -9.5625 30.4375 C-11.356875 30.293125 -13.15125 30.14875 -15 30 C-15 25.05 -15 20.1 -15 15 C-10.05 15 -5.1 15 0 15 C0 10.05 0 5.1 0 0 Z " fill="#CBCBCB" transform="translate(540,253)"/>
<path d="M0 0 C6.27 0 12.54 0 19 0 C19 15.51 19 31.02 19 47 C12.73 47 6.46 47 0 47 C0 31.49 0 15.98 0 0 Z " fill="#221E20" transform="translate(351,190)"/>
<path d="M0 0 C2.3925 -0.020625 4.785 -0.04125 7.25 -0.0625 C8.37003418 -0.07615601 8.37003418 -0.07615601 9.51269531 -0.09008789 C16.53737907 -0.11937315 16.53737907 -0.11937315 19 1 C20.703125 3.06640625 20.703125 3.06640625 22.25 5.5625 C22.77078125 6.38878906 23.2915625 7.21507812 23.828125 8.06640625 C24.21484375 8.70449219 24.6015625 9.34257812 25 10 C28.88507849 8.70497384 29.51166457 6.89694799 31.5234375 3.49609375 C32.01070313 3.00238281 32.49796875 2.50867188 33 2 C34.65 2 36.3 2 38 2 C38 6.95 38 11.9 38 17 C36.68 17 35.36 17 34 17 C33.505 12.545 33.505 12.545 33 8 C31.02 10.64 29.04 13.28 27 16 C22.60539477 14.53513159 21.55742685 11.80158045 19 8 C18.67 10.97 18.34 13.94 18 17 C16.68 17 15.36 17 14 17 C14 16.34 14 15.68 14 15 C9.38 15 4.76 15 0 15 C0 10.05 0 5.1 0 0 Z " fill="#CBCBCB" transform="translate(465,268)"/>
<path d="M0 0 C4.95 0 9.9 0 15 0 C15 4.95 15 9.9 15 15 C12.03 15 9.06 15 6 15 C6 15.66 6 16.32 6 17 C4.35 16.67 2.7 16.34 1 16 C1 15.34 1 14.68 1 14 C-3.29 14 -7.58 14 -12 14 C-12.33 14.99 -12.66 15.98 -13 17 C-14.32 16.67 -15.64 16.34 -17 16 C-15.62520092 13.65175931 -14.22777681 11.32365574 -12.8125 9 C-12.42513672 8.33226562 -12.03777344 7.66453125 -11.63867188 6.9765625 C-10.45703125 5.0625 -10.45703125 5.0625 -8 2 C-5.32421875 1.4375 -5.32421875 1.4375 -3 2 C-2.34 2.66 -1.68 3.32 -1 4 C-0.67 2.68 -0.34 1.36 0 0 Z " fill="#CBCBCB" transform="translate(285,268)"/>
<path d="M0 0 C1.32 0 2.64 0 4 0 C4 3.96 4 7.92 4 12 C8.29 12 12.58 12 17 12 C17 8.04 17 4.08 17 0 C18.32 0 19.64 0 21 0 C21 4.29 21 8.58 21 13 C21.66 13 22.32 13 23 13 C23 17.95 23 22.9 23 28 C18.05 28 13.1 28 8 28 C8 24.04 8 20.08 8 16 C6.865625 15.855625 5.73125 15.71125 4.5625 15.5625 C1 15 1 15 0 14 C-0.07271741 11.64686445 -0.08370868 9.29166332 -0.0625 6.9375 C-0.05347656 5.64714844 -0.04445313 4.35679687 -0.03515625 3.02734375 C-0.02355469 2.02832031 -0.01195312 1.02929688 0 0 Z " fill="#C8C8C8" transform="translate(322,270)"/>
<path d="M0 0 C1.44928403 0.00399252 2.89856904 0.01875357 4.34765625 0.04296875 C5.44110352 0.04393555 5.44110352 0.04393555 6.55664062 0.04492188 C9.75945696 0.07134291 12.35295035 0.21140012 15.41015625 1.23046875 C16.88625113 4.71942028 16.60948924 8.50958631 16.41015625 12.23046875 C15.3984375 14.44921875 15.3984375 14.44921875 14.41015625 16.23046875 C11.26434202 16.25935389 8.11856156 16.27722798 4.97265625 16.29296875 C4.07482422 16.30134766 3.17699219 16.30972656 2.25195312 16.31835938 C0.97094727 16.32319336 0.97094727 16.32319336 -0.3359375 16.328125 C-1.12669678 16.33336182 -1.91745605 16.33859863 -2.73217773 16.34399414 C-4.58984375 16.23046875 -4.58984375 16.23046875 -5.58984375 15.23046875 C-5.71522116 13.08738979 -5.76558739 10.93967989 -5.77734375 8.79296875 C-5.79152344 7.61863281 -5.80570312 6.44429688 -5.8203125 5.234375 C-5.4728423 0.70548369 -4.47666805 0.28740306 0 0 Z " fill="#302D2E" transform="translate(430.58984375,268.76953125)"/>
<path d="M0 0 C0.73283203 0.00773437 1.46566406 0.01546875 2.22070312 0.0234375 C2.94966797 0.01570313 3.67863281 0.00796875 4.4296875 0 C8.24158536 0.01397579 10.04131422 0.11217823 13.28320312 2.2734375 C13.61132812 5.27734375 13.61132812 5.27734375 13.53320312 8.8359375 C13.51 10.60130859 13.51 10.60130859 13.48632812 12.40234375 C13.28320312 15.2734375 13.28320312 15.2734375 12.28320312 16.2734375 C10.87971577 16.37203881 9.47139835 16.40422687 8.06445312 16.40625 C6.79021484 16.40818359 6.79021484 16.40818359 5.49023438 16.41015625 C4.15025391 16.40435547 4.15025391 16.40435547 2.78320312 16.3984375 C1.88988281 16.40230469 0.9965625 16.40617187 0.07617188 16.41015625 C-0.77332031 16.40886719 -1.6228125 16.40757812 -2.49804688 16.40625 C-3.28244141 16.40512207 -4.06683594 16.40399414 -4.875 16.40283203 C-6.71679688 16.2734375 -6.71679688 16.2734375 -7.71679688 15.2734375 C-7.84217428 13.13035854 -7.89254052 10.98264864 -7.90429688 8.8359375 C-7.91847656 7.66160156 -7.93265625 6.48726563 -7.94726562 5.27734375 C-7.52734174 -0.19590142 -4.87980933 0.017924 0 0 Z " fill="#302C2D" transform="translate(543.716796875,268.7265625)"/>
<path d="M0 0 C1.65 0 3.3 0 5 0 C5.88610155 9.38318247 6.08798485 18.58562131 6 28 C1.05 28 -3.9 28 -9 28 C-9 23.05 -9 18.1 -9 13 C-6.03 13 -3.06 13 0 13 C0 8.71 0 4.42 0 0 Z " fill="#C8C8C8" transform="translate(729,270)"/>
<path d="M0 0 C2.97922593 -0.02683987 5.95821295 -0.04676037 8.9375 -0.0625 C9.78763672 -0.07087891 10.63777344 -0.07925781 11.51367188 -0.08789062 C12.32255859 -0.09111328 13.13144531 -0.09433594 13.96484375 -0.09765625 C14.7137085 -0.10289307 15.46257324 -0.10812988 16.23413086 -0.11352539 C18 0 18 0 19 1 C19.0989294 3.16480797 19.129711 5.33293785 19.125 7.5 C19.12886719 9.27890625 19.12886719 9.27890625 19.1328125 11.09375 C19 14 19 14 18 15 C16.65732587 15.08631874 15.31025678 15.10706473 13.96484375 15.09765625 C13.15595703 15.09443359 12.34707031 15.09121094 11.51367188 15.08789062 C10.66353516 15.07951172 9.81339844 15.07113281 8.9375 15.0625 C8.08349609 15.05798828 7.22949219 15.05347656 6.34960938 15.04882812 C4.23304337 15.03700373 2.11651315 15.01906769 0 15 C0 10.05 0 5.1 0 0 Z " fill="#3F3C3D" transform="translate(590,270)"/>
<path d="M0 0 C3.6196875 0.0309375 3.6196875 0.0309375 7.3125 0.0625 C7.3125 5.0125 7.3125 9.9625 7.3125 15.0625 C2.6925 15.0625 -1.9275 15.0625 -6.6875 15.0625 C-6.6875 15.7225 -6.6875 16.3825 -6.6875 17.0625 C-8.0075 17.0625 -9.3275 17.0625 -10.6875 17.0625 C-10.6875 11.7825 -10.6875 6.5025 -10.6875 1.0625 C-7.06668537 -0.14443821 -3.7624281 -0.04532079 0 0 Z " fill="#CBCBCB" transform="translate(652.6875,267.9375)"/>
<path d="M0 0 C4.95 0 9.9 0 15 0 C15 4.62 15 9.24 15 14 C17.64 14 20.28 14 23 14 C23 14.99 23 15.98 23 17 C16.73 17 10.46 17 4 17 C4 16.34 4 15.68 4 15 C2.68 15 1.36 15 0 15 C0 10.05 0 5.1 0 0 Z " fill="#C3C2C2" transform="translate(675,268)"/>
<path d="M0 0 C4.95 0 9.9 0 15 0 C15 4.95 15 9.9 15 15 C10.05 15 5.1 15 0 15 C0 10.05 0 5.1 0 0 Z " fill="#FEFEFE" transform="translate(120,298)"/>
<path d="M0 0 C4.95 0 9.9 0 15 0 C15 4.95 15 9.9 15 15 C10.05 15 5.1 15 0 15 C0 10.05 0 5.1 0 0 Z " fill="#FEFEFE" transform="translate(345,283)"/>
<path d="M0 0 C4.95 0 9.9 0 15 0 C15 4.95 15 9.9 15 15 C10.05 15 5.1 15 0 15 C0 10.05 0 5.1 0 0 Z " fill="#FEFEFE" transform="translate(510,238)"/>
<path d="M0 0 C4.95 0 9.9 0 15 0 C15 4.95 15 9.9 15 15 C10.05 15 5.1 15 0 15 C0 10.05 0 5.1 0 0 Z " fill="#FEFEFE" transform="translate(150,238)"/>
<path d="M0 0 C4.95 0 9.9 0 15 0 C15 4.95 15 9.9 15 15 C10.05 15 5.1 15 0 15 C0 10.05 0 5.1 0 0 Z " fill="#FEFEFE" transform="translate(0,178)"/>
<path d="M0 0 C4.62 0 9.24 0 14 0 C16.13079691 4.26159382 15.04502317 10.40763702 15 15 C10.05 15 5.1 15 0 15 C0 10.05 0 5.1 0 0 Z " fill="#FEFEFE" transform="translate(465,283)"/>
<path d="M0 0 C4.29 0 8.58 0 13 0 C13 0.66 13 1.32 13 2 C13.66 2 14.32 2 15 2 C15 6.29 15 10.58 15 15 C10.05 15 5.1 15 0 15 C0 10.05 0 5.1 0 0 Z " fill="#FEFEFE" transform="translate(255,283)"/>
<path d="M0 0 C4.62 0 9.24 0 14 0 C14 4.95 14 9.9 14 15 C9.38 15 4.76 15 0 15 C0 10.05 0 5.1 0 0 Z " fill="#FEFEFE" transform="translate(526,193)"/>
<path d="M0 0 C1.32 0 2.64 0 4 0 C4 0.66 4 1.32 4 2 C7.63 2 11.26 2 15 2 C15 6.29 15 10.58 15 15 C10.05 15 5.1 15 0 15 C0 10.05 0 5.1 0 0 Z " fill="#FEFEFE" transform="translate(675,283)"/>
<path d="M0 0 C5 0 5 0 6.80078125 1.75 C7.29964844 2.4925 7.79851562 3.235 8.3125 4 C8.82425781 4.7425 9.33601563 5.485 9.86328125 6.25 C10.23839844 6.8275 10.61351562 7.405 11 8 C14.88507849 6.70497384 15.51166457 4.89694799 17.5234375 1.49609375 C18.01070313 1.00238281 18.49796875 0.50867188 19 0 C20.65 0 22.3 0 24 0 C24 4.95 24 9.9 24 15 C22.68 15 21.36 15 20 15 C19.67 12.03 19.34 9.06 19 6 C17.02 8.64 15.04 11.28 13 14 C8.60539477 12.53513159 7.55742685 9.80158045 5 6 C4.67 8.97 4.34 11.94 4 15 C2.68 15 1.36 15 0 15 C0 10.05 0 5.1 0 0 Z " fill="#333031" transform="translate(479,270)"/>
<path d="M0 0 C5.28 0 10.56 0 16 0 C16 4.29 16 8.58 16 13 C11.05 13 6.1 13 1 13 C0.67 8.71 0.34 4.42 0 0 Z " fill="#C8C7C7" transform="translate(539,285)"/>
<path d="M0 0 C4.95 0 9.9 0 15 0 C15 4.29 15 8.58 15 13 C10.05 13 5.1 13 0 13 C0 8.71 0 4.42 0 0 Z " fill="#FEFEFE" transform="translate(0,0)"/>
<path d="M0 0 C3.96 0 7.92 0 12 0 C12.33 4.95 12.66 9.9 13 15 C8.71 15 4.42 15 0 15 C0 10.05 0 5.1 0 0 Z " fill="#C9C9C9" transform="translate(675,208)"/>
<path d="M0 0 C4.95 0 9.9 0 15 0 C15 4.95 15 9.9 15 15 C13.68 15 12.36 15 11 15 C11 13.68 11 12.36 11 11 C7.37 11 3.74 11 0 11 C0 7.37 0 3.74 0 0 Z " fill="#FEFEFE" transform="translate(360,178)"/>
<path d="M0 0 C4.95 0 9.9 0 15 0 C15 3.96 15 7.92 15 12 C10.05 12 5.1 12 0 12 C0 8.04 0 4.08 0 0 Z " fill="#FEFEFE" transform="translate(765,196)"/>
<path d="M0 0 C4.95 0 9.9 0 15 0 C15 3.96 15 7.92 15 12 C10.05 12 5.1 12 0 12 C0 8.04 0 4.08 0 0 Z " fill="#FEFEFE" transform="translate(735,196)"/>
<path d="M0 0 C4.95 0 9.9 0 15 0 C15 3.96 15 7.92 15 12 C10.05 12 5.1 12 0 12 C0 8.04 0 4.08 0 0 Z " fill="#FEFEFE" transform="translate(225,196)"/>
<path d="M0 0 C4.95 0 9.9 0 15 0 C15 3.96 15 7.92 15 12 C10.05 12 5.1 12 0 12 C0 8.04 0 4.08 0 0 Z " fill="#FEFEFE" transform="translate(75,163)"/>
<path d="M0 0 C0.804375 0.495 0.804375 0.495 1.625 1 C4.49214521 2.388057 4.49214521 2.388057 10 2 C10 5.96 10 9.92 10 14 C5.05 14 0.1 14 -5 14 C-5.44041451 7.30569948 -5.44041451 7.30569948 -5 4 C-2.5 1.375 -2.5 1.375 0 0 Z " fill="#FEFEFE" transform="translate(80,314)"/>
<path d="M0 0 C4.95 0 9.9 0 15 0 C15 3.63 15 7.26 15 11 C10.05 11 5.1 11 0 11 C0 7.37 0 3.74 0 0 Z " fill="#FEFEFE" transform="translate(720,178)"/>
<path d="M0 0 C4.95 0 9.9 0 15 0 C15 3.63 15 7.26 15 11 C10.05 11 5.1 11 0 11 C0 7.37 0 3.74 0 0 Z " fill="#FEFEFE" transform="translate(510,178)"/>
<path d="M0 0 C4.95 0 9.9 0 15 0 C15 3.63 15 7.26 15 11 C10.05 11 5.1 11 0 11 C0 7.37 0 3.74 0 0 Z " fill="#CCCCCC" transform="translate(405,178)"/>
<path d="M0 0 C4.95 0 9.9 0 15 0 C15 3.63 15 7.26 15 11 C10.05 11 5.1 11 0 11 C0 7.37 0 3.74 0 0 Z " fill="#FEFEFE" transform="translate(210,178)"/>
<path d="M0 0 C2.64 0 5.28 0 8 0 C10.31 4.95 12.62 9.9 15 15 C10.05 15 5.1 15 0 15 C0 10.05 0 5.1 0 0 Z " fill="#CACACA" transform="translate(30,253)"/>
<path d="M0 0 C1.32 0 2.64 0 4 0 C4 3.96 4 7.92 4 12 C8.29 12 12.58 12 17 12 C17 8.04 17 4.08 17 0 C18.32 0 19.64 0 21 0 C21.02685412 2.31243792 21.04632841 4.6249627 21.0625 6.9375 C21.07410156 8.22527344 21.08570313 9.51304687 21.09765625 10.83984375 C21 14 21 14 20 15 C18.59651265 15.09860131 17.18819523 15.13078937 15.78125 15.1328125 C14.50701172 15.13474609 14.50701172 15.13474609 13.20703125 15.13671875 C11.86705078 15.13091797 11.86705078 15.13091797 10.5 15.125 C9.60667969 15.12886719 8.71335937 15.13273437 7.79296875 15.13671875 C6.94347656 15.13542969 6.09398437 15.13414062 5.21875 15.1328125 C4.43435547 15.13168457 3.64996094 15.13055664 2.84179688 15.12939453 C1 15 1 15 0 14 C-0.07271741 11.64686445 -0.08370868 9.29166332 -0.0625 6.9375 C-0.05347656 5.64714844 -0.04445313 4.35679687 -0.03515625 3.02734375 C-0.02355469 2.02832031 -0.01195312 1.02929688 0 0 Z " fill="#343132" transform="translate(322,270)"/>
<path d="M0 0 C4.95 0 9.9 0 15 0 C15 3.3 15 6.6 15 10 C10.05 10 5.1 10 0 10 C0 6.7 0 3.4 0 0 Z " fill="#EBEAEB" transform="translate(539,272)"/>
<path d="M0 0 C1.93166016 0.01740234 1.93166016 0.01740234 3.90234375 0.03515625 C5.19269531 0.04417969 6.48304688 0.05320312 7.8125 0.0625 C8.81152344 0.07410156 9.81054688 0.08570313 10.83984375 0.09765625 C10.83984375 3.39765625 10.83984375 6.69765625 10.83984375 10.09765625 C5.88984375 10.09765625 0.93984375 10.09765625 -4.16015625 10.09765625 C-4.2578125 3.1640625 -4.2578125 3.1640625 -4.16015625 1.09765625 C-3.16015625 0.09765625 -3.16015625 0.09765625 0 0 Z " fill="#C4C4C4" transform="translate(432.16015625,271.90234375)"/>
<path d="M0 0 C0.66 0 1.32 0 2 0 C2 4.95 2 9.9 2 15 C-2.95 15 -7.9 15 -13 15 C-13 12.69 -13 10.38 -13 8 C-11.96875 7.79375 -10.9375 7.5875 -9.875 7.375 C-5.33364678 6.1222129 -3.16285971 3.38352434 0 0 Z " fill="#FAFAFA" transform="translate(583,208)"/>
<path d="M0 0 C2.97 0 5.94 0 9 0 C9 4.95 9 9.9 9 15 C6.03 15 3.06 15 0 15 C0 10.05 0 5.1 0 0 Z " fill="#FEFEFE" transform="translate(720,268)"/>
<path d="M0 0 C8.875 5.875 8.875 5.875 10 7 C11.99958364 7.04080783 14.00045254 7.04254356 16 7 C16 9.31 16 11.62 16 14 C11.05 14 6.1 14 1 14 C0.67 9.38 0.34 4.76 0 0 Z " fill="#C8C8C8" transform="translate(449,224)"/>
<path d="M0 0 C2.64 0 5.28 0 8 0 C9.38226016 2.76452033 9.09525387 5.0461363 9.0625 8.125 C9.05347656 9.22070312 9.04445313 10.31640625 9.03515625 11.4453125 C9.02355469 12.28835938 9.01195312 13.13140625 9 14 C6.03 14 3.06 14 0 14 C0 9.38 0 4.76 0 0 Z " fill="#FEFEFE" transform="translate(330,268)"/>
<path d="M0 0 C5.28 0 10.56 0 16 0 C16 3.3 16 6.6 16 10 C8.28515625 10.09765625 8.28515625 10.09765625 6 10 C5 9 5 9 4.9375 5.9375 C4.958125 4.968125 4.97875 3.99875 5 3 C2.525 2.01 2.525 2.01 0 1 C0 0.67 0 0.34 0 0 Z " fill="#FBFBFB" transform="translate(29,183)"/>
<path d="M0 0 C0.72574219 0.144375 1.45148438 0.28875 2.19921875 0.4375 C2.52921875 1.0975 2.85921875 1.7575 3.19921875 2.4375 C2.53921875 2.4375 1.87921875 2.4375 1.19921875 2.4375 C0.86921875 3.0975 0.53921875 3.7575 0.19921875 4.4375 C-1.13411458 5.77083333 -2.46744792 7.10416667 -3.80078125 8.4375 C-4.13078125 9.0975 -4.46078125 9.7575 -4.80078125 10.4375 C-1.83078125 10.4375 1.13921875 10.4375 4.19921875 10.4375 C4.85921875 9.1175 5.51921875 7.7975 6.19921875 6.4375 C7.0382744 7.55823862 7.87029706 8.68424547 8.69921875 9.8125 C9.16328125 10.43898438 9.62734375 11.06546875 10.10546875 11.7109375 C11.19921875 13.4375 11.19921875 13.4375 11.19921875 15.4375 C8.72421875 14.9425 8.72421875 14.9425 6.19921875 14.4375 C6.19921875 13.7775 6.19921875 13.1175 6.19921875 12.4375 C1.90921875 12.4375 -2.38078125 12.4375 -6.80078125 12.4375 C-7.13078125 13.4275 -7.46078125 14.4175 -7.80078125 15.4375 C-9.12078125 15.1075 -10.44078125 14.7775 -11.80078125 14.4375 C-10.42598217 12.08925931 -9.02855806 9.76115574 -7.61328125 7.4375 C-7.22591797 6.76976562 -6.83855469 6.10203125 -6.43945312 5.4140625 C-3.42763747 0.53541896 -3.42763747 0.53541896 0 0 Z " fill="#2A2728" transform="translate(279.80078125,269.5625)"/>
<path d="M0 0 C0 2.97 0 5.94 0 9 C-4.62 9 -9.24 9 -14 9 C-14 7.02 -14 5.04 -14 3 C-9.07015675 0.96006486 -5.42039575 -0.40652968 0 0 Z " fill="#F8F8F8" transform="translate(45,154)"/>
<path d="M0 0 C4.62 0 9.24 0 14 0 C10.17897049 4.54884466 6.3493889 8.94716034 2 13 C1.34 13 0.68 13 0 13 C0 8.71 0 4.42 0 0 Z " fill="#C7C6C7" transform="translate(90,283)"/>
<path d="M0 0 C2.97922593 -0.02683987 5.95821295 -0.04676037 8.9375 -0.0625 C9.78763672 -0.07087891 10.63777344 -0.07925781 11.51367188 -0.08789062 C12.32255859 -0.09111328 13.13144531 -0.09433594 13.96484375 -0.09765625 C14.7137085 -0.10289307 15.46257324 -0.10812988 16.23413086 -0.11352539 C18 0 18 0 19 1 C19.04063832 2.66617115 19.042721 4.33388095 19 6 C18.01 5.67 17.02 5.34 16 5 C16 4.01 16 3.02 16 2 C11.71 2 7.42 2 3 2 C3 3.32 3 4.64 3 6 C4.37285156 5.96519531 4.37285156 5.96519531 5.7734375 5.9296875 C6.96195313 5.91164063 8.15046875 5.89359375 9.375 5.875 C10.55835938 5.85179687 11.74171875 5.82859375 12.9609375 5.8046875 C16 6 16 6 18 8 C13.05 8 8.1 8 3 8 C2.67 8.99 2.34 9.98 2 11 C1.34 10.67 0.68 10.34 0 10 C0 6.7 0 3.4 0 0 Z " fill="#221E1F" transform="translate(590,270)"/>
<path d="M0 0 C4.95 0 9.9 0 15 0 C15 4.95 15 9.9 15 15 C13.35 15 11.7 15 10 15 C9.86722656 14.14535156 9.73445312 13.29070312 9.59765625 12.41015625 C9.42105469 11.30542969 9.24445312 10.20070313 9.0625 9.0625 C8.88847656 7.96035156 8.71445312 6.85820312 8.53515625 5.72265625 C8.28154864 3.09573071 8.28154864 3.09573071 7 2 C4.67182036 1.63239269 2.3381615 1.29758419 0 1 C0 0.67 0 0.34 0 0 Z " fill="#F8F8F9" transform="translate(600,268)"/>
<path d="M0 0 C7.26 0 14.52 0 22 0 C22 0.66 22 1.32 22 2 C19.03 2 16.06 2 13 2 C13 6.29 13 10.58 13 15 C11.68 15 10.36 15 9 15 C9 10.71 9 6.42 9 2 C6.03 2 3.06 2 0 2 C0 1.34 0 0.68 0 0 Z " fill="#2B2829" transform="translate(373,270)"/>
<path d="M0 0 C4.3177458 0.50797009 8.03302114 1.19682779 12 3 C12 4.98 12 6.96 12 9 C8.04 9 4.08 9 0 9 C0 6.03 0 3.06 0 0 Z " fill="#C7C7C7" transform="translate(135,154)"/>
<path d="M0 0 C0.99 0 1.98 0 3 0 C3 3.96 3 7.92 3 12 C7.95 12 12.9 12 18 12 C18 12.99 18 13.98 18 15 C12.06 15 6.12 15 0 15 C0 10.05 0 5.1 0 0 Z " fill="#221F20" transform="translate(680,270)"/>
<path d="M0 0 C4.95 0 9.9 0 15 0 C15 7.875 15 7.875 12 11 C8.69713914 9.89904638 8.21489099 9.3103981 6.3125 6.5625 C5.65701172 5.63630859 5.65701172 5.63630859 4.98828125 4.69140625 C4 3 4 3 4 1 C2.68 0.67 1.36 0.34 0 0 Z " fill="#FAF9FA" transform="translate(480,268)"/>
<path d="M0 0 C3.96 0 7.92 0 12 0 C11 5 11 5 9.2578125 6.36328125 C8.55398437 6.67652344 7.85015625 6.98976562 7.125 7.3125 C6.07699219 7.80169922 6.07699219 7.80169922 5.0078125 8.30078125 C3 9 3 9 0 9 C0 6.03 0 3.06 0 0 Z " fill="#C8C8C8" transform="translate(90,193)"/>
<path d="M0 0 C2.97 0 5.94 0 9 0 C9 3.63 9 7.26 9 11 C6.69 11 4.38 11 2 11 C2 7.7 2 4.4 2 1 C1.34 0.67 0.68 0.34 0 0 Z " fill="#C6C6C6" transform="translate(373,272)"/>
<path d="M0 0 C3.96 0 7.92 0 12 0 C12 3.96 12 7.92 12 12 C7.46712884 8.26704728 3.62617712 4.61513452 0 0 Z " fill="#FEFEFE" transform="translate(633,208)"/>
<path d="M0 0 C3.96 0 7.92 0 12 0 C12 3.96 12 7.92 12 12 C7.46712884 8.26704728 3.62617712 4.61513452 0 0 Z " fill="#FDFDFD" transform="translate(618,193)"/>
<path d="M0 0 C1.32 0 2.64 0 4 0 C5.79217969 5.16569441 6.12029814 8.51053913 5 14 C3.35 14.33 1.7 14.66 0 15 C0 10.05 0 5.1 0 0 Z " fill="#FAFAFA" transform="translate(15,193)"/>
<path d="M0 0 C1.65 0 3.3 0 5 0 C5 4.95 5 9.9 5 15 C3.35 15 1.7 15 0 15 C0 10.05 0 5.1 0 0 Z " fill="#FEFEFE" transform="translate(345,193)"/>
<path d="M0 0 C2.31 0 4.62 0 7 0 C7 4.95 7 9.9 7 15 C6.01 15 5.02 15 4 15 C3.3299166 12.87607494 2.66403203 10.75082476 2 8.625 C1.62875 7.44164062 1.2575 6.25828125 0.875 5.0390625 C0 2 0 2 0 0 Z " fill="#FBFAFB" transform="translate(38,208)"/>
<path d="M0 0 C2.67823915 2.67823915 4.28558718 4.90348841 6.1875 8.125 C6.71730469 9.01445312 7.24710938 9.90390625 7.79296875 10.8203125 C9 13 9 13 9 14 C6.03 14 3.06 14 0 14 C0 9.38 0 4.76 0 0 Z " fill="#C6C6C6" transform="translate(45,269)"/>
<path d="M0 0 C4.95 0 9.9 0 15 0 C15 4.95 15 9.9 15 15 C13.68 15 12.36 15 11 15 C11 10.71 11 6.42 11 2 C7.37 1.67 3.74 1.34 0 1 C0 0.67 0 0.34 0 0 Z " fill="#C6C6C6" transform="translate(435,268)"/>
<path d="M0 0 C1.65 0 3.3 0 5 0 C5 4.29 5 8.58 5 13 C3.35 13 1.7 13 0 13 C0 8.71 0 4.42 0 0 Z " fill="#CBCBCB" transform="translate(795,0)"/>
<path d="M0 0 C2.31 0 4.62 0 7 0 C7 2.97 7 5.94 7 9 C4.69 9 2.38 9 0 9 C0 6.03 0 3.06 0 0 Z " fill="#F2F2F2" transform="translate(428,273)"/>
<path d="M0 0 C3.10616212 1.55308106 5.51582621 3.00174308 8.25 5.0625 C8.95640625 5.58972656 9.6628125 6.11695313 10.390625 6.66015625 C11.18726563 7.32337891 11.18726563 7.32337891 12 8 C12 8.33 12 8.66 12 9 C8.04 9 4.08 9 0 9 C0 6.03 0 3.06 0 0 Z " fill="#C7C7C7" transform="translate(435,214)"/>
<path d="M0 0 C1.32 0 2.64 0 4 0 C4 4.95 4 9.9 4 15 C2.68 15 1.36 15 0 15 C0 10.05 0 5.1 0 0 Z " fill="#343132" transform="translate(642,270)"/>
<path d="M0 0 C3.63 0 7.26 0 11 0 C11 2.64 11 5.28 11 8 C6.01780786 6.72548573 3.37464528 4.87091665 0 1 C0 0.67 0 0.34 0 0 Z " fill="#F7F7F7" transform="translate(709,223)"/>
<path d="M0 0 C1.32 0 2.64 0 4 0 C4 4.95 4 9.9 4 15 C2.68 15 1.36 15 0 15 C0 10.05 0 5.1 0 0 Z " fill="#CCCCCC" transform="translate(371,193)"/>
<path d="M0 0 C1.125 1.75 1.125 1.75 2 4 C1.34 5.32 0.68 6.64 0 8 C-2.97 8 -5.94 8 -9 8 C-5 0 -5 0 0 0 Z " fill="#454243" transform="translate(284,272)"/>
<path d="M0 0 C3.93089159 3.2633817 6.91174115 5.88232154 10 10 C6.7 10 3.4 10 0 10 C0 6.7 0 3.4 0 0 Z " fill="#CCCBCB" transform="translate(270,228)"/>
<path d="M0 0 C3.3 0 6.6 0 10 0 C10 3.3 10 6.6 10 10 C6.06910841 6.7366183 3.08825885 4.11767846 0 0 Z " fill="#FDFDFD" transform="translate(290,223)"/>
<path d="M0 0 C4.29 0 8.58 0 13 0 C13 1.32 13 2.64 13 4 C8.71 4 4.42 4 0 4 C0 2.68 0 1.36 0 0 Z " fill="#B6B4B5" transform="translate(593,272)"/>
<path d="M0 0 C2.97 0 5.94 0 9 0 C9 0.33 9 0.66 9 1 C7.35 1 5.7 1 4 1 C4 4.3 4 7.6 4 11 C2.68 11 1.36 11 0 11 C0 7.37 0 3.74 0 0 Z " fill="#C5C5C5" transform="translate(386,272)"/>
<path d="M0 0 C2.31 0 4.62 0 7 0 C7 4.95 7 9.9 7 15 C6.01 15 5.02 15 4 15 C4.04640625 14.41992188 4.0928125 13.83984375 4.140625 13.2421875 C4.41012568 7.40942269 3.71217436 4.5242125 0 0 Z " fill="#C5C5C5" transform="translate(308,193)"/>
<path d="M0 0 C0 2.64 0 5.28 0 8 C-3.3 8 -6.6 8 -10 8 C-2.21621622 0 -2.21621622 0 0 0 Z " fill="#F6F6F6" transform="translate(506,200)"/>
<path d="M0 0 C0.99 0 1.98 0 3 0 C3 4.95 3 9.9 3 15 C2.01 15 1.02 15 0 15 C0 10.05 0 5.1 0 0 Z " fill="#221E1F" transform="translate(730,270)"/>
<path d="M0 0 C1.65 0 3.3 0 5 0 C4.54901762 1.93922422 4.08894441 3.87633594 3.625 5.8125 C3.36976563 6.89144531 3.11453125 7.97039062 2.8515625 9.08203125 C2 12 2 12 0 15 C0 10.05 0 5.1 0 0 Z " fill="#C2C1C2" transform="translate(135,208)"/>
<path d="M0 0 C2.97 0 5.94 0 9 0 C6.14723863 2.93200474 3.34920216 5.64315404 0 8 C0 5.36 0 2.72 0 0 Z " fill="#C4C3C4" transform="translate(690,193)"/>
<path d="M0 0 C3.96 0 7.92 0 12 0 C12 0.99 12 1.98 12 3 C8.04 3 4.08 3 0 3 C0 2.01 0 1.02 0 0 Z " fill="#FCFCFC" transform="translate(594,279)"/>
<path d="M0 0 C1.14926266 0.95421808 2.29430541 1.91352045 3.4375 2.875 C4.07558594 3.40867188 4.71367188 3.94234375 5.37109375 4.4921875 C7 6 7 6 8 8 C5.36 8 2.72 8 0 8 C0 5.36 0 2.72 0 0 Z " fill="#BFBEBF" transform="translate(105,245)"/>
<path d="M0 0 C1.14926266 0.95421808 2.29430541 1.91352045 3.4375 2.875 C4.07558594 3.40867188 4.71367188 3.94234375 5.37109375 4.4921875 C7 6 7 6 8 8 C5.36 8 2.72 8 0 8 C0 5.36 0 2.72 0 0 Z " fill="#BFBEBF" transform="translate(90,230)"/>
<path d="M0 0 C1.14926266 0.95421808 2.29430541 1.91352045 3.4375 2.875 C4.07558594 3.40867188 4.71367188 3.94234375 5.37109375 4.4921875 C7 6 7 6 8 8 C5.36 8 2.72 8 0 8 C0 5.36 0 2.72 0 0 Z " fill="#CBCBCB" transform="translate(630,230)"/>
<path d="M0 0 C1.14926266 0.95421808 2.29430541 1.91352045 3.4375 2.875 C4.07558594 3.40867188 4.71367188 3.94234375 5.37109375 4.4921875 C7 6 7 6 8 8 C5.36 8 2.72 8 0 8 C0 5.36 0 2.72 0 0 Z " fill="#C0BFBF" transform="translate(75,215)"/>
<path d="M0 0 C1.14926266 0.95421808 2.29430541 1.91352045 3.4375 2.875 C4.07558594 3.40867188 4.71367188 3.94234375 5.37109375 4.4921875 C7 6 7 6 8 8 C5.36 8 2.72 8 0 8 C0 5.36 0 2.72 0 0 Z " fill="#CCCCCC" transform="translate(615,215)"/>
<path d="M0 0 C1.14926266 0.95421808 2.29430541 1.91352045 3.4375 2.875 C4.07558594 3.40867188 4.71367188 3.94234375 5.37109375 4.4921875 C7 6 7 6 8 8 C5.36 8 2.72 8 0 8 C0 5.36 0 2.72 0 0 Z " fill="#CCCCCC" transform="translate(600,200)"/>
<path d="M0 0 C2.64 0 5.28 0 8 0 C8 1.98 8 3.96 8 6 C5.0280615 4.87548273 2.66559313 3.77706209 0 2 C0 1.34 0 0.68 0 0 Z " fill="#F7F7F7" transform="translate(457,208)"/>
<path d="M0 0 C1.33617352 0.97528737 2.6688751 1.95533319 4 2.9375 C4.7425 3.48277344 5.485 4.02804687 6.25 4.58984375 C6.8275 5.05519531 7.405 5.52054687 8 6 C8 6.33 8 6.66 8 7 C5.36 7 2.72 7 0 7 C0 4.69 0 2.38 0 0 Z " fill="#C2C1C2" transform="translate(75,306)"/>
<path d="M0 0 C1.37562854 1.28965176 2.70766393 2.62689293 4 4 C4 4.66 4 5.32 4 6 C1.69 6 -0.62 6 -3 6 C-1.125 1.125 -1.125 1.125 0 0 Z " fill="#F5F5F5" transform="translate(279,273)"/>
<path d="M0 0 C4.875 4.75 4.875 4.75 6 7 C4.02 7 2.04 7 0 7 C0 4.69 0 2.38 0 0 Z " fill="#C6C6C6" transform="translate(60,291)"/>
<path d="M0 0 C1.16945792 0.80847729 2.33550461 1.62189112 3.5 2.4375 C4.47453125 3.11619141 4.47453125 3.11619141 5.46875 3.80859375 C5.9740625 4.20175781 6.479375 4.59492188 7 5 C7 5.33 7 5.66 7 6 C4.69 6 2.38 6 0 6 C0 4.02 0 2.04 0 0 Z " fill="#C1C0C0" transform="translate(420,202)"/>
<path d="M0 0 C1.98 0 3.96 0 6 0 C6 0.99 6 1.98 6 3 C4.02 3 2.04 3 0 3 C0 2.01 0 1.02 0 0 Z " fill="#CBCCCB" transform="translate(594,279)"/>
<path d="M0 0 C1.98 0 3.96 0 6 0 C6 0.99 6 1.98 6 3 C4.02 3 2.04 3 0 3 C0 2.01 0 1.02 0 0 Z " fill="#F8F7F7" transform="translate(600,273)"/>
</svg>
