<?xml version="1.0" standalone="no"?>
<!DOCTYPE svg PUBLIC "-//W3C//DTD SVG 20010904//EN"
 "http://www.w3.org/TR/2001/REC-SVG-20010904/DTD/svg10.dtd">
<svg version="1.0" xmlns="http://www.w3.org/2000/svg"
 width="600.000000pt" height="533.000000pt" viewBox="0 0 600.000000 533.000000"
 preserveAspectRatio="xMidYMid meet">
<g transform="translate(0.000000,533.000000) scale(0.100000,-0.100000)"
fill="#000000" stroke="none">
<path d="M1630 5202 c-20 -10 -42 -32 -52 -52 -17 -33 -18 -172 -18 -2470 0
-2397 0 -2435 20 -2467 41 -67 -55 -63 1362 -63 1269 0 1283 0 1316 20 67 41
62 -157 60 2527 -3 2420 -3 2438 -23 2465 -45 62 38 58 -1357 58 -1192 0
-1275 -1 -1308 -18z m2582 -69 c17 -15 18 -41 18 -400 l0 -383 -1292 2 -1293
3 -3 377 c-2 367 -2 378 18 398 20 20 31 20 1277 20 1155 0 1258 -1 1275 -17z
m26 -2425 l-3 -1553 -1297 -3 -1298 -2 0 1555 0 1555 1300 0 1300 0 -2 -1552z
m-8 -2052 c0 -354 -2 -407 -16 -420 -14 -14 -143 -16 -1273 -16 -1070 0 -1260
2 -1277 14 -18 14 -19 31 -21 408 -2 216 -1 399 2 406 3 9 272 12 1295 12
l1290 0 0 -404z"/>
<path d="M1830 5049 c0 -2 -1 -142 -3 -312 l-2 -307 33 0 32 0 0 160 c0 88 4
160 8 160 4 0 68 -72 142 -160 131 -156 135 -160 173 -160 36 0 38 2 26 17 -8
9 -69 82 -137 162 -67 80 -121 150 -119 155 2 5 19 12 37 14 102 11 158 106
113 191 -34 64 -61 75 -189 80 -63 2 -114 2 -114 0z m231 -88 c35 -36 37 -64
4 -96 -21 -22 -33 -25 -100 -25 l-75 0 0 75 0 75 71 0 c65 0 73 -2 100 -29z"/>
<path d="M2483 5039 c-233 -44 -327 -335 -165 -508 64 -68 126 -95 222 -95 63
-1 84 4 132 27 148 73 214 251 146 397 -36 79 -71 115 -141 149 -69 32 -131
42 -194 30z m163 -75 c181 -86 190 -339 16 -441 -40 -24 -58 -28 -122 -28 -63
0 -82 4 -121 27 -99 58 -148 174 -119 279 22 80 94 155 171 178 46 14 129 7
175 -15z"/>
<path d="M2980 4740 l0 -311 110 3 111 3 19 30 19 30 -82 -3 c-45 -1 -89 2
-97 7 -13 9 -15 51 -15 281 l0 270 -32 0 -33 0 0 -310z"/>
<path d="M3410 5048 c0 -2 -1 -142 -3 -311 l-2 -308 109 3 110 3 17 30 18 30
-80 -4 c-53 -2 -84 1 -94 9 -13 10 -15 56 -15 281 l0 269 -30 0 c-16 0 -30 -1
-30 -2z"/>
<path d="M3863 5015 c-42 -18 -65 -55 -65 -107 -1 -63 21 -97 112 -173 90 -74
120 -114 120 -162 0 -45 -9 -62 -41 -78 -36 -19 -80 -19 -125 0 l-35 14 3 -37
3 -37 66 -9 c56 -7 71 -6 112 12 57 25 87 70 87 130 0 65 -25 106 -109 180
-123 109 -131 118 -131 149 0 16 7 39 16 51 20 29 77 29 123 1 36 -22 46 -18
56 21 6 24 2 27 -48 43 -64 20 -101 21 -144 2z"/>
<path d="M1970 4062 c0 -5 8 -24 18 -43 16 -32 17 -107 17 -1164 l0 -1130 -32
-57 -31 -58 173 0 174 0 -32 62 -32 61 0 421 0 421 110 7 c149 10 321 41 434
78 109 36 103 38 177 -66 126 -176 214 -462 214 -694 0 -102 -18 -160 -71
-225 -58 -72 -77 -65 171 -65 l222 0 -16 22 c-30 41 -48 92 -58 158 -40 275
-74 402 -158 590 -48 107 -131 259 -192 347 l-28 42 44 30 c137 94 238 210
302 346 126 269 93 540 -90 720 -112 111 -254 175 -431 195 -109 12 -885 14
-885 2z m818 -142 c127 -16 187 -43 258 -114 89 -90 109 -150 108 -321 -1
-112 -4 -141 -27 -210 -34 -101 -71 -166 -138 -239 -141 -154 -370 -247 -671
-271 l-88 -7 0 586 0 586 238 0 c131 0 275 -5 320 -10z"/>
<path d="M2422 3793 l23 -38 3 -459 3 -459 37 6 c20 2 70 14 110 26 l72 22 0
399 0 400 195 0 c107 0 195 4 195 8 0 15 -56 88 -85 110 -27 21 -36 22 -302
22 l-275 0 24 -37z"/>
<path d="M3461 3735 c15 -35 36 -92 46 -127 9 -35 30 -83 45 -108 83 -136 76
-386 -17 -570 -47 -94 -148 -199 -250 -261 l-81 -50 44 -87 c34 -68 48 -86 62
-84 43 7 180 -223 234 -393 34 -106 66 -298 66 -395 0 -99 -27 -173 -88 -241
l-44 -49 227 0 226 0 -25 33 c-29 39 -52 118 -61 212 -25 271 -130 537 -348
884 l-18 29 63 45 c273 195 409 514 338 792 -48 189 -185 335 -383 410 l-65
24 29 -64z"/>
<path d="M2548 2542 l-98 -15 0 -517 0 -517 -30 -59 c-16 -32 -30 -60 -30 -61
0 -2 77 -3 170 -3 l171 0 -28 48 -28 47 -3 431 -3 431 23 7 c13 3 52 6 88 6
64 0 200 16 208 25 2 2 -13 40 -33 84 l-38 80 -123 -6 c-122 -6 -124 -6 -124
15 0 12 -6 21 -12 21 -7 -1 -57 -9 -110 -17z"/>
<path d="M1785 640 l0 -310 33 0 32 0 0 160 c0 88 4 160 8 160 5 0 69 -72 143
-160 129 -155 135 -160 171 -160 21 0 38 2 38 5 0 3 -61 77 -135 164 -74 88
-135 164 -135 170 0 6 17 11 38 11 49 0 94 29 115 73 22 45 21 84 -1 126 -31
57 -70 71 -197 71 l-110 0 0 -310z m220 244 c24 -10 46 -60 39 -89 -10 -41
-40 -55 -121 -55 l-73 0 0 75 0 75 69 0 c38 0 77 -3 86 -6z"/>
<path d="M3444 936 c-178 -58 -268 -261 -190 -431 33 -73 84 -128 151 -163 44
-23 62 -26 145 -27 121 0 154 14 158 68 2 20 1 37 -2 37 -3 0 -20 -9 -38 -20
-49 -29 -133 -36 -199 -17 -71 21 -121 65 -156 135 -66 134 -8 293 129 352 64
27 143 24 208 -8 24 -12 45 -20 46 -19 1 1 -1 17 -3 35 -4 24 -14 37 -37 49
-41 21 -159 27 -212 9z"/>
<path d="M2420 931 c-135 -41 -223 -158 -224 -296 -1 -60 4 -80 32 -137 55
-112 145 -167 273 -168 127 0 223 61 281 180 31 64 30 175 -1 248 -58 131
-229 213 -361 173z m191 -78 c159 -81 185 -284 50 -406 -36 -33 -118 -67 -161
-67 -43 0 -125 34 -161 67 -216 195 14 536 272 406z"/>
<path d="M2830 935 c0 -3 36 -69 81 -146 l80 -140 -2 -162 -2 -162 33 0 32 0
-1 159 -2 158 81 142 c44 78 80 145 80 149 0 4 -15 7 -33 7 -31 0 -35 -5 -91
-105 -32 -58 -61 -105 -65 -105 -3 0 -32 48 -64 105 -57 101 -60 105 -93 105
-19 0 -34 -2 -34 -5z"/>
<path d="M3840 630 l0 -310 108 0 107 0 22 34 22 34 -73 -5 c-116 -9 -117 -7
-114 140 l3 122 65 5 c64 5 65 5 65 35 0 30 -1 30 -65 35 l-65 5 -3 66 c-4 88
20 106 121 88 39 -7 42 -3 31 39 -6 21 -11 22 -115 22 l-109 0 0 -310z"/>
</g>
</svg>
