<?xml version="1.0" standalone="no"?>
<!DOCTYPE svg PUBLIC "-//W3C//DTD SVG 20010904//EN"
 "http://www.w3.org/TR/2001/REC-SVG-20010904/DTD/svg10.dtd">
<svg version="1.0" xmlns="http://www.w3.org/2000/svg"
 width="300.000000pt" height="300.000000pt" viewBox="0 0 300.000000 300.000000"
 preserveAspectRatio="xMidYMid meet">
<g transform="translate(0.000000,300.000000) scale(0.100000,-0.100000)"
fill="#000000" stroke="none">
<path d="M1330 2654 c-189 -22 -402 -75 -570 -141 l-118 -46 -9 -146 c-14
-241 -8 -629 11 -765 73 -513 282 -829 764 -1156 l93 -63 97 66 c544 369 734
709 774 1382 15 261 -1 662 -28 682 -56 41 -325 126 -515 164 -101 19 -409 34
-499 23z m436 -43 c143 -25 244 -51 389 -101 172 -60 171 -59 178 -122 2 -29
3 -56 1 -59 -2 -4 -25 4 -51 16 -107 51 -305 108 -493 141 -148 27 -449 24
-605 -5 -148 -28 -300 -70 -424 -116 -51 -20 -96 -34 -98 -31 -3 2 -2 29 2 58
8 62 -8 52 184 119 246 85 418 117 647 118 118 1 191 -4 270 -18z m-191 -223
c36 -50 65 -96 65 -101 0 -5 -27 -48 -61 -95 -33 -47 -63 -91 -66 -98 -3 -8 4
-29 16 -47 27 -44 26 -49 -5 -35 -20 9 -30 9 -46 -1 -31 -19 -33 -6 -3 33 l27
35 -69 100 c-37 56 -71 101 -74 101 -5 0 -129 -174 -137 -192 -2 -4 17 -37 42
-73 25 -36 46 -69 46 -73 0 -4 -46 -28 -101 -55 -79 -36 -105 -45 -115 -36
-23 19 -17 34 51 131 36 51 63 98 61 105 -10 24 -127 193 -134 193 -4 -1 -37
-45 -74 -99 l-67 -99 71 -101 70 -102 -26 -39 c-16 -24 -45 -49 -74 -64 -89
-44 -86 -45 -138 34 l-47 71 22 30 c64 86 111 158 111 169 0 7 -30 57 -66 110
l-67 98 23 34 c13 18 24 34 25 35 2 4 139 53 146 53 3 0 25 -27 49 -61 23 -33
46 -57 50 -52 4 4 31 43 60 86 71 104 81 103 157 -8 32 -47 60 -85 63 -85 3 1
34 43 69 95 35 52 68 95 72 95 4 0 37 -41 74 -92z m297 -17 c31 -46 54 -89 51
-95 -21 -36 -129 -186 -135 -186 -8 0 -138 184 -138 195 0 3 26 44 58 91 75
111 85 110 164 -5z m227 14 c53 -15 67 -24 88 -56 14 -21 23 -45 20 -53 -3 -7
-33 -52 -66 -99 -34 -47 -61 -90 -61 -94 0 -5 29 -51 65 -101 36 -51 65 -97
65 -103 0 -13 -66 -113 -85 -129 -24 -20 -136 38 -164 84 -25 40 -35 44 -49
19 -9 -15 -21 -12 -113 31 -57 26 -106 50 -108 51 -2 2 19 36 47 75 l51 72 31
-44 c17 -23 48 -69 68 -100 20 -31 39 -57 42 -57 3 0 24 27 47 62 23 34 53 79
68 99 l28 37 -67 98 c-36 54 -66 104 -66 110 0 20 74 123 86 119 5 -2 38 -12
73 -21z m-1328 -79 c10 -21 4 -34 -51 -115 -34 -50 -65 -91 -67 -91 -3 0 -3
30 1 68 3 37 6 78 6 93 0 19 9 30 43 46 54 28 55 28 68 -1z m1530 4 l37 -13 7
-94 c4 -52 5 -96 3 -98 -2 -3 -32 38 -67 89 -57 85 -62 95 -49 115 7 12 17 20
23 18 5 -3 26 -10 46 -17z m-1578 -339 c31 -48 57 -91 57 -95 0 -4 -26 -45
-59 -91 l-58 -85 -7 53 c-8 73 -8 307 2 307 4 0 33 -40 65 -89z m1622 -179
l-7 -92 -60 89 -60 89 64 92 63 92 3 -89 c2 -48 0 -130 -3 -181z m-653 97
c279 -131 328 -154 428 -202 52 -24 121 -56 154 -71 56 -26 58 -28 52 -58 -3
-17 -8 -33 -10 -35 -2 -2 -67 28 -145 67 -78 38 -143 70 -145 70 -2 0 -98 45
-212 101 -115 56 -233 112 -262 125 -62 27 -40 33 -252 -69 -74 -35 -193 -93
-265 -127 -71 -34 -180 -86 -242 -115 l-112 -54 -6 29 c-7 31 -1 50 16 50 5 0
98 42 207 93 108 52 213 101 232 110 19 9 105 50 190 91 85 41 165 75 177 76
12 0 100 -37 195 -81z m-7 -244 c98 -47 178 -85 180 -85 1 0 73 -34 159 -75
86 -42 181 -86 211 -100 30 -13 55 -26 55 -29 0 -2 -5 -17 -10 -31 -7 -19 -14
-24 -23 -18 -6 6 -136 67 -287 137 -151 71 -317 148 -369 172 -51 24 -97 44
-101 44 -9 0 -81 -32 -225 -100 -60 -29 -166 -78 -235 -110 -69 -32 -164 -76
-212 -99 -48 -22 -92 -41 -97 -41 -6 0 -11 11 -11 25 0 23 18 34 188 115 103
50 275 133 382 184 107 52 200 95 207 95 6 1 91 -37 188 -84z m-153 -41 c28
-14 108 -115 108 -137 0 -3 -29 -48 -65 -99 -36 -50 -65 -96 -65 -101 0 -5 30
-54 67 -108 l67 -99 -67 -97 c-37 -54 -67 -103 -67 -109 0 -6 29 -51 64 -100
35 -49 62 -92 60 -96 -7 -12 -264 -10 -264 1 0 6 29 51 65 102 36 50 62 96 58
103 -4 6 -36 53 -71 103 l-64 93 68 97 c37 53 67 101 67 107 0 6 -30 55 -67
109 l-67 97 42 61 c34 48 73 84 96 89 1 0 17 -7 35 -16z m-198 -96 c9 -12 16
-29 16 -36 0 -8 -29 -57 -65 -109 -36 -52 -65 -97 -65 -99 0 -3 29 -47 65 -99
36 -51 65 -99 65 -105 0 -6 -29 -54 -65 -105 -36 -52 -65 -96 -65 -99 0 -3 29
-47 65 -98 35 -51 62 -94 60 -96 -5 -5 -143 17 -187 30 -21 6 -38 15 -38 20 0
5 20 38 45 72 25 35 45 67 45 70 0 4 -29 49 -65 101 -36 51 -65 98 -65 104 0
6 29 53 65 105 36 52 65 97 65 100 0 4 -25 42 -56 86 l-56 80 104 49 c57 27
106 50 110 50 4 1 14 -9 22 -21z m461 -28 l107 -50 -19 -28 c-72 -108 -89
-132 -95 -132 -4 0 -37 44 -73 97 l-67 98 18 32 c9 18 18 33 20 33 1 0 50 -22
109 -50z m-822 -152 c-19 -29 -37 -55 -40 -58 -5 -5 -42 40 -43 52 0 9 89 57
107 58 6 0 -4 -24 -24 -52z m1091 25 l55 -27 -20 -24 c-10 -14 -19 -29 -19
-34 0 -6 27 -48 59 -95 l60 -86 -21 -41 c-39 -78 -109 -179 -118 -170 -5 5
-35 49 -69 97 l-60 89 -53 -78 c-29 -42 -62 -88 -74 -102 l-21 -25 -68 102
-68 101 56 83 c71 103 86 122 90 116 2 -2 32 -46 67 -96 35 -51 67 -93 71 -93
4 0 38 43 74 96 l67 95 -36 55 c-51 76 -51 76 28 37z m-1113 -116 c9 -12 39
-57 68 -99 l53 -78 -43 -62 c-24 -35 -53 -79 -66 -98 -13 -19 -26 -36 -28 -38
-5 -5 -111 177 -119 205 -6 17 6 42 51 108 32 47 60 85 63 85 3 0 12 -11 21
-23z m893 -458 c26 -39 46 -72 45 -74 -16 -15 -229 -52 -229 -40 0 10 122 185
129 185 3 0 28 -32 55 -71z m-380 -193 c-4 -17 0 -27 13 -35 14 -9 15 -12 4
-20 -9 -6 -10 -11 -2 -15 14 -9 31 1 31 19 0 7 7 16 16 19 10 4 14 14 11 26
-3 11 -1 18 4 14 14 -8 11 -70 -5 -83 -7 -6 -16 -29 -20 -51 -8 -50 -22 -51
-31 -4 -3 20 -13 43 -21 51 -14 15 -19 59 -8 87 9 25 15 19 8 -8z m-36 -20
c15 5 15 4 2 -5 -24 -17 -30 -13 -29 17 1 22 2 23 6 5 3 -15 9 -20 21 -17z
m172 9 c0 -14 -4 -25 -9 -25 -4 0 -6 11 -3 25 2 14 6 25 8 25 2 0 4 -11 4 -25z
m-113 -12 c-4 -3 -7 0 -7 7 0 7 3 10 7 7 3 -4 3 -10 0 -14z m30 0 c-4 -3 -7 0
-7 7 0 7 3 10 7 7 3 -4 3 -10 0 -14z m50 -10 c-4 -3 -7 0 -7 7 0 7 3 10 7 7 3
-4 3 -10 0 -14z m-180 -15 c-3 -8 -6 -5 -6 6 -1 11 2 17 5 13 3 -3 4 -12 1
-19z m230 0 c-3 -8 -6 -5 -6 6 -1 11 2 17 5 13 3 -3 4 -12 1 -19z"/>
<path d="M1667 2594 c7 -3 9 -18 6 -40 -7 -41 7 -44 43 -9 14 14 34 25 44 25
11 0 20 5 20 10 0 9 -6 11 -42 14 -7 1 -12 -4 -11 -10 1 -7 -7 -20 -19 -30
-20 -19 -20 -19 -13 14 6 29 4 32 -17 31 -13 0 -18 -3 -11 -5z"/>
<path d="M1310 2580 c0 -5 5 -10 10 -10 6 0 10 5 10 10 0 6 -4 10 -10 10 -5 0
-10 -4 -10 -10z"/>
<path d="M1362 2570 c-16 -25 -15 -47 1 -47 7 0 13 15 14 34 2 39 2 39 -15 13z"/>
<path d="M1493 2575 c-21 -23 -16 -45 10 -44 12 0 16 3 10 6 -8 3 -11 14 -7
29 7 27 4 29 -13 9z"/>
<path d="M1133 2557 c3 -7 -1 -23 -8 -36 -12 -23 -12 -23 -18 8 -5 22 -12 31
-27 31 -11 0 -20 -4 -20 -10 0 -5 7 -10 15 -10 9 0 15 -9 15 -25 0 -35 26 -32
45 5 18 34 19 50 4 50 -6 0 -9 -6 -6 -13z"/>
<path d="M1433 2550 c-1 -11 4 -20 12 -20 7 0 12 8 11 17 -4 24 -21 27 -23 3z"/>
<path d="M1541 2561 c-17 -11 -6 -31 17 -30 11 0 12 3 5 6 -22 8 -14 25 8 18
15 -5 19 -4 15 4 -9 13 -26 14 -45 2z"/>
<path d="M1230 2538 c0 -19 2 -20 10 -8 13 19 13 30 0 30 -5 0 -10 -10 -10
-22z"/>
<path d="M1308 2542 c-5 -18 -2 -22 15 -22 13 0 17 3 11 8 -6 4 -13 14 -16 22
-3 10 -6 8 -10 -8z"/>
<path d="M1400 2545 c0 -8 5 -15 10 -15 6 0 10 7 10 15 0 8 -4 15 -10 15 -5 0
-10 -7 -10 -15z"/>
<path d="M1260 2530 c0 -11 4 -20 9 -20 6 0 9 9 8 20 -1 11 -5 20 -9 20 -4 0
-8 -9 -8 -20z"/>
<path d="M1737 2536 c-3 -8 1 -17 9 -20 22 -9 23 -8 17 14 -6 23 -19 26 -26 6z"/>
<path d="M1868 2530 c-7 -11 -22 -20 -33 -21 -11 -1 11 -8 49 -16 56 -12 70
-12 77 -2 5 8 3 17 -4 21 -17 11 -47 10 -47 -2 0 -5 -7 -10 -15 -10 -18 0 -18
5 -5 31 15 26 -6 26 -22 -1z m77 -30 c-3 -5 -11 -10 -16 -10 -6 0 -7 5 -4 10
3 6 11 10 16 10 6 0 7 -4 4 -10z"/>
<path d="M1167 2533 c-18 -17 -5 -33 26 -32 23 1 26 3 10 6 -13 2 -23 8 -23
13 0 5 7 7 15 4 8 -4 15 -1 15 5 0 12 -32 15 -43 4z"/>
<path d="M1787 2534 c-8 -9 1 -24 14 -24 6 0 7 5 3 11 -4 8 0 9 15 4 12 -4 21
-2 21 4 0 12 -42 15 -53 5z"/>
<path d="M895 2507 c-31 -10 -45 -24 -45 -44 0 -16 36 -17 46 -1 5 8 0 9 -15
5 -29 -7 -23 13 7 24 19 7 22 5 22 -21 0 -17 -7 -33 -17 -39 -10 -6 -13 -11
-7 -11 27 0 45 26 42 61 -3 35 -4 36 -33 26z"/>
<path d="M1987 2513 c-4 -3 -7 -13 -7 -21 0 -12 3 -12 15 -2 8 7 15 16 15 21
0 11 -14 12 -23 2z"/>
<path d="M2072 2511 c2 -7 7 -12 11 -12 12 1 9 15 -3 20 -7 2 -11 -2 -8 -8z"/>
<path d="M985 2490 c-9 -14 3 -30 23 -29 11 0 12 2 4 6 -6 2 -10 9 -7 13 3 5
1 11 -4 14 -5 4 -12 2 -16 -4z"/>
<path d="M2006 2484 c-8 -22 -8 -24 7 -24 7 0 13 9 14 20 2 24 -12 27 -21 4z"/>
<path d="M958 2484 c-5 -4 -8 -16 -8 -28 0 -14 3 -17 11 -9 6 6 9 19 7 28 -1
9 -6 13 -10 9z"/>
<path d="M2047 2466 c-5 -11 11 -26 27 -26 1 0 2 9 2 20 0 23 -21 27 -29 6z"/>
<path d="M2094 2458 c-7 -11 21 -38 41 -38 7 0 12 8 12 18 0 29 -38 44 -53 20z
m36 -8 c0 -5 -4 -10 -10 -10 -5 0 -10 5 -10 10 0 6 5 10 10 10 6 0 10 -4 10
-10z"/>
</g>
</svg>
