<?xml version="1.0" standalone="no"?>
<!DOCTYPE svg PUBLIC "-//W3C//DTD SVG 20010904//EN"
 "http://www.w3.org/TR/2001/REC-SVG-20010904/DTD/svg10.dtd">
<svg version="1.0" xmlns="http://www.w3.org/2000/svg"
 width="1200.000000pt" height="830.000000pt" viewBox="0 0 1200.000000 830.000000"
 preserveAspectRatio="xMidYMid meet">
<g transform="translate(0.000000,830.000000) scale(0.100000,-0.100000)"
fill="#000000" stroke="none">
<path d="M5557 6744 c-3 -4 -60 -11 -124 -15 -184 -13 -274 -24 -327 -40 -39
-11 -50 -11 -53 -1 -5 14 -33 16 -33 2 0 -5 7 -10 15 -10 8 0 15 -5 15 -10 0
-6 -20 -8 -55 -4 -36 5 -60 3 -69 -5 -8 -7 -29 -9 -53 -5 -29 4 -42 2 -52 -10
-7 -9 -28 -16 -47 -16 -18 0 -59 -7 -91 -16 -66 -18 -115 -30 -158 -39 -48
-11 -159 -47 -171 -57 -7 -5 -16 -8 -20 -7 -22 4 -33 -2 -28 -16 7 -17 3 -18
-48 -6 -22 5 -38 5 -38 0 0 -5 5 -9 10 -9 6 0 10 -5 10 -11 0 -7 -11 -8 -29
-4 -17 3 -32 2 -36 -4 -3 -6 -17 -11 -30 -11 -13 0 -27 -4 -30 -10 -3 -5 -17
-10 -30 -10 -13 0 -26 -4 -29 -9 -3 -4 -26 -14 -51 -21 -25 -7 -48 -16 -51
-21 -2 -4 -11 -6 -19 -2 -8 3 -15 0 -15 -6 0 -6 5 -11 10 -11 6 0 10 -5 10
-11 0 -7 -10 -9 -26 -5 -19 5 -30 2 -41 -11 -10 -13 -16 -15 -19 -5 -8 17 -27
15 -20 -3 3 -9 0 -15 -8 -15 -7 0 -48 -18 -91 -40 -42 -22 -81 -37 -86 -34 -5
3 -9 0 -9 -5 0 -6 5 -11 12 -11 6 0 3 -9 -8 -21 -12 -14 -25 -18 -41 -14 -14
3 -23 1 -23 -6 0 -6 -9 -9 -20 -6 -11 3 -20 1 -20 -4 0 -5 5 -9 10 -9 6 0 10
-5 10 -11 0 -7 -10 -9 -25 -5 -14 4 -25 2 -25 -4 0 -5 -6 -10 -13 -10 -8 0
-22 -9 -32 -20 -10 -11 -24 -20 -31 -20 -7 0 -23 -13 -36 -30 -12 -16 -29 -30
-38 -30 -9 0 -34 -18 -55 -40 -21 -22 -44 -40 -50 -40 -7 0 -32 -21 -56 -48
-24 -26 -56 -56 -71 -67 -16 -11 -28 -28 -28 -37 0 -10 -7 -18 -15 -18 -9 0
-19 -10 -24 -22 -5 -13 -32 -45 -60 -73 -28 -27 -51 -54 -51 -61 0 -6 -6 -17
-13 -23 -8 -6 -19 -28 -25 -50 -7 -21 -18 -41 -26 -44 -25 -10 -106 -205 -106
-255 0 -12 -9 -39 -20 -59 -14 -27 -18 -47 -13 -78 3 -24 1 -45 -5 -49 -12 -7
-7 -175 8 -254 5 -28 7 -58 4 -66 -3 -8 -1 -17 5 -21 6 -3 11 -21 11 -39 0
-19 7 -39 15 -46 9 -7 14 -19 11 -26 -3 -7 9 -38 25 -69 16 -31 29 -62 29 -69
0 -23 25 -66 41 -71 9 -3 19 -15 22 -25 3 -13 11 -18 21 -14 19 7 20 0 6 -27
-9 -15 -4 -26 30 -63 22 -24 40 -47 40 -51 0 -11 34 -50 45 -51 28 -3 55 -18
55 -30 0 -8 -4 -14 -10 -14 -5 0 -10 -4 -10 -10 0 -5 6 -10 13 -10 7 0 26 -14
43 -31 16 -17 40 -35 53 -40 15 -6 21 -15 17 -25 -4 -12 -1 -14 14 -9 11 4 20
2 20 -4 0 -6 -6 -11 -12 -11 -16 0 43 -49 59 -50 6 0 18 -9 26 -20 10 -14 20
-18 33 -13 17 6 18 5 5 -11 -13 -16 -12 -17 11 -11 28 7 68 -9 68 -27 0 -16
51 -68 66 -68 6 0 18 -7 25 -16 7 -9 22 -20 34 -25 32 -15 66 -36 78 -48 8 -8
15 -7 28 5 12 11 19 12 24 4 4 -6 -1 -18 -11 -26 -18 -14 -18 -15 4 -9 17 5
28 2 37 -12 7 -10 29 -25 49 -33 20 -7 36 -18 36 -23 0 -4 8 -6 18 -2 11 3 29
-3 45 -15 14 -11 28 -20 33 -20 6 0 96 -40 135 -60 9 -5 26 -6 38 -3 14 4 21
1 21 -9 0 -9 27 -23 73 -37 39 -13 77 -27 83 -32 6 -5 29 -10 51 -12 22 -1 51
-10 66 -20 14 -9 40 -17 57 -17 30 0 36 -2 97 -34 17 -9 38 -13 46 -10 8 3 18
1 22 -5 3 -6 17 -11 30 -11 13 0 50 -7 82 -16 82 -22 176 -39 337 -62 38 -6
72 -16 77 -23 6 -10 11 -10 24 1 14 11 24 11 68 0 30 -8 89 -13 140 -11 48 1
87 -2 87 -7 0 -5 20 -10 45 -10 24 -1 55 -6 69 -12 20 -7 27 -6 35 7 7 13 13
14 23 7 8 -7 144 -11 382 -12 314 -1 373 1 393 13 15 10 35 13 60 9 60 -9 123
-10 123 -2 0 4 -6 10 -12 15 -8 5 6 10 37 14 28 3 56 2 63 -4 7 -5 30 -7 55
-2 48 8 123 20 182 29 98 16 299 60 335 73 8 3 27 5 42 4 16 -2 30 4 36 15 7
12 19 15 45 12 31 -3 36 -1 34 17 -1 15 4 20 21 19 12 0 22 3 22 8 0 13 28 9
34 -4 3 -10 8 -9 18 2 7 9 31 17 56 17 24 1 49 6 55 11 7 5 44 19 82 32 40 13
79 33 92 47 13 14 24 20 28 14 3 -6 1 -11 -4 -11 -6 0 -11 -4 -11 -9 0 -5 11
-4 25 2 18 9 23 17 19 31 -5 15 -3 18 11 13 9 -4 36 2 60 13 24 11 50 20 57
20 7 0 44 16 82 35 39 19 76 35 84 35 9 0 11 7 7 20 -6 18 -3 20 19 14 20 -5
26 -2 26 10 0 9 8 16 18 16 9 0 34 11 54 25 20 14 43 25 51 25 8 0 20 7 27 15
7 8 19 15 26 15 8 0 19 11 24 25 9 25 30 35 30 14 0 -6 7 -3 16 5 8 9 20 16
25 16 5 0 9 7 9 15 0 8 4 15 10 15 5 0 8 6 6 13 -1 6 -1 9 1 5 9 -16 30 -7 58
22 16 16 34 30 40 30 17 0 55 44 55 64 0 12 5 16 15 12 9 -3 32 13 62 45 27
28 51 60 56 71 4 13 13 18 23 14 12 -4 14 -1 9 14 -4 13 -2 20 7 20 7 0 33 25
58 56 25 30 53 64 63 74 21 24 23 37 2 20 -11 -9 -15 -9 -15 -1 0 7 13 24 29
39 26 25 101 156 101 178 0 5 9 27 20 48 15 26 18 41 11 50 -7 8 -4 21 9 41
11 17 20 42 20 58 0 15 4 27 9 27 13 0 6 320 -9 358 -7 18 -9 44 -6 57 5 18 2
27 -9 31 -16 7 -21 34 -6 34 6 0 3 16 -5 35 -8 19 -11 35 -8 35 4 0 -1 9 -11
20 -10 11 -15 28 -12 39 3 11 -1 22 -9 25 -7 3 -25 29 -40 58 -15 29 -33 57
-40 61 -8 4 -14 15 -14 22 0 8 -4 15 -10 15 -5 0 -7 6 -4 13 2 7 -4 22 -16 32
-11 10 -20 23 -20 30 0 6 -14 24 -31 41 -17 16 -35 40 -40 53 -9 23 -10 23
-31 5 -21 -19 -21 -19 -14 9 5 22 1 34 -22 58 -15 17 -39 36 -53 42 -13 7 -28
22 -34 35 -5 12 -16 22 -23 22 -7 0 -15 7 -18 15 -4 8 -12 15 -20 15 -7 0 -21
13 -31 30 -9 16 -31 34 -48 40 -18 6 -42 24 -54 41 -12 16 -32 34 -44 40 -35
16 -66 35 -85 53 -11 9 -26 14 -36 10 -12 -5 -19 0 -23 15 -3 11 -12 21 -21
21 -8 0 -20 8 -27 17 -11 15 -15 16 -30 3 -16 -13 -17 -13 -12 5 6 17 -5 26
-78 60 -47 22 -85 43 -85 48 0 4 -10 5 -22 2 -14 -3 -35 3 -53 15 -16 11 -37
24 -45 29 -22 14 -82 41 -91 41 -5 0 -33 11 -63 25 -30 14 -64 25 -75 25 -11
0 -23 5 -27 11 -3 6 -14 9 -23 7 -22 -6 -106 26 -104 39 1 6 -17 9 -48 8 -44
-2 -49 0 -44 16 5 14 2 17 -10 13 -9 -4 -26 -2 -38 4 -12 6 -35 13 -52 17 -42
8 -91 20 -156 39 -31 8 -85 17 -120 20 -35 2 -87 13 -114 24 -33 12 -59 16
-75 11 -38 -11 -90 -10 -90 1 0 6 16 10 36 10 22 0 33 4 29 11 -9 14 -76 9
-97 -9 -14 -12 -18 -11 -26 5 -8 14 -29 19 -94 25 -46 5 -132 13 -193 19 -125
13 -857 24 -868 13z m1358 -94 c-3 -5 -12 -10 -20 -10 -8 0 -17 5 -20 10 -4 6
5 10 20 10 15 0 24 -4 20 -10z m-2040 -20 c3 -5 -3 -10 -14 -10 -12 0 -21 5
-21 10 0 6 6 10 14 10 8 0 18 -4 21 -10z m1445 -10 c304 -23 547 -59 813 -120
389 -90 737 -221 1021 -383 219 -126 377 -246 519 -397 170 -181 272 -365 318
-576 7 -33 13 -115 13 -184 0 -97 -5 -144 -23 -212 -39 -154 -95 -269 -197
-408 -64 -88 -201 -228 -304 -310 -195 -156 -460 -303 -740 -414 -391 -154
-795 -247 -1285 -296 -289 -29 -813 -27 -1107 4 -391 41 -738 115 -1062 226
-178 61 -298 111 -466 195 -216 108 -384 220 -537 357 -208 187 -342 387 -410
613 -24 81 -26 106 -26 250 0 145 2 168 27 250 52 176 142 330 278 482 166
184 410 359 703 503 99 49 241 111 315 139 397 147 846 241 1330 280 153 12
663 13 820 1z m2120 -570 c0 -5 -4 -10 -10 -10 -5 0 -10 5 -10 10 0 6 5 10 10
10 6 0 10 -4 10 -10z m-5030 -20 c0 -5 -4 -10 -10 -10 -5 0 -10 5 -10 10 0 6
5 10 10 10 6 0 10 -4 10 -10z m5190 -2030 c0 -5 -4 -10 -10 -10 -5 0 -10 5
-10 10 0 6 5 10 10 10 6 0 10 -4 10 -10z m-4550 -460 c0 -5 -9 -10 -20 -10
-11 0 -20 5 -20 10 0 6 9 10 20 10 11 0 20 -4 20 -10z m3240 -180 c0 -5 -9
-10 -20 -10 -11 0 -20 5 -20 10 0 6 9 10 20 10 11 0 20 -4 20 -10z"/>
<path d="M5725 6423 c-543 -20 -1083 -127 -1519 -299 -338 -134 -610 -304
-801 -498 -149 -153 -242 -306 -286 -473 -27 -101 -29 -269 -4 -366 35 -140
94 -257 193 -381 111 -139 294 -294 474 -401 358 -213 834 -371 1349 -449 264
-40 487 -56 799 -56 463 0 837 43 1245 144 134 33 365 108 500 163 161 65 353
164 484 250 195 129 335 261 440 413 72 106 114 195 142 302 29 112 29 271 0
381 -29 109 -87 227 -160 325 -84 113 -130 162 -232 247 -331 277 -824 489
-1399 604 -385 76 -818 110 -1225 94z m658 -119 c100 -8 207 -22 238 -30 31
-8 71 -14 87 -14 17 0 34 -4 37 -10 8 -13 48 -13 61 0 7 7 20 5 42 -5 23 -12
36 -13 51 -6 11 6 28 11 37 11 14 0 15 -3 6 -12 -19 -19 -14 -28 13 -28 14 0
25 5 25 10 0 16 27 12 34 -5 3 -8 18 -15 33 -15 15 0 53 -7 83 -15 204 -53
315 -86 318 -95 2 -5 11 -10 21 -10 9 0 22 -5 29 -12 9 -9 12 -9 12 0 0 18 27
14 34 -5 5 -12 9 -14 18 -5 17 17 29 15 26 -5 -2 -13 5 -19 22 -22 14 -1 37
-12 51 -22 15 -10 44 -19 64 -19 29 0 36 -3 31 -15 -5 -14 9 -20 42 -16 6 1
12 -3 12 -9 0 -5 11 -10 25 -10 14 0 25 -5 25 -11 0 -7 10 -9 28 -4 22 5 25 4
15 -6 -21 -21 -15 -32 12 -25 15 4 25 2 25 -4 0 -6 11 -15 25 -20 14 -5 25
-14 25 -20 0 -5 7 -10 15 -10 8 0 15 8 15 18 0 14 2 15 10 2 6 -10 6 -16 0
-18 -6 -2 -10 -10 -10 -19 0 -11 7 -13 28 -8 16 3 39 2 52 -3 23 -8 22 -9 -11
-16 -30 -7 -31 -9 -14 -16 11 -5 31 -9 45 -10 15 0 56 -27 105 -68 44 -37 86
-67 93 -68 27 -2 32 -4 32 -14 0 -5 -7 -10 -16 -10 -13 0 -14 -3 -5 -14 7 -8
21 -12 31 -9 13 4 20 0 20 -10 0 -18 81 -102 95 -99 14 3 37 -52 29 -71 -4
-11 1 -16 17 -19 16 -2 25 -12 31 -34 4 -17 17 -39 28 -49 11 -10 23 -36 26
-57 4 -23 14 -43 25 -49 13 -6 19 -21 19 -42 0 -18 -5 -38 -11 -44 -8 -8 -8
-13 0 -17 6 -4 11 -2 11 3 0 6 4 11 10 11 5 0 7 -14 4 -32 -3 -18 -8 -57 -11
-85 -4 -42 -2 -54 11 -59 9 -3 16 -16 16 -28 -1 -19 -2 -19 -11 -3 -16 27 -29
10 -29 -38 0 -24 -4 -46 -9 -50 -5 -3 -17 5 -26 17 -15 22 -16 22 -26 5 -10
-18 -12 -18 -30 2 -11 12 -31 21 -44 21 -13 0 -27 5 -30 10 -3 6 -22 10 -40
10 -28 0 -33 3 -28 16 6 15 -1 16 -55 10 -39 -4 -62 -3 -62 3 0 5 8 12 18 14
9 2 0 2 -21 0 -45 -6 -91 14 -130 55 -25 25 -26 30 -12 42 15 12 21 50 9 50
-4 0 -12 -7 -18 -16 -11 -14 -16 -11 -40 20 l-27 36 22 9 c23 8 23 8 -4 15
-28 7 -36 23 -14 31 6 3 25 1 41 -3 21 -6 39 -3 65 10 19 10 48 18 64 18 31 0
117 54 117 74 0 7 7 21 15 32 12 16 16 17 24 4 15 -22 24 -5 9 19 -10 16 -10
23 0 33 14 14 16 28 3 28 -5 0 -11 -8 -13 -17 -3 -14 -12 -7 -36 27 -19 25
-49 53 -68 63 -38 20 -242 57 -312 57 -23 0 -59 9 -79 20 -21 11 -45 20 -55
20 -20 0 -32 16 -18 25 12 8 13 55 1 55 -5 0 -12 -10 -15 -22 l-7 -23 -11 23
c-9 19 -9 26 3 34 11 7 11 11 2 15 -7 2 -13 13 -13 24 0 10 -8 27 -17 37 -10
10 -37 39 -61 65 -29 33 -50 47 -68 47 -17 0 -28 7 -31 19 -3 11 -11 22 -19
25 -17 7 -18 -6 -2 -22 9 -9 7 -17 -10 -33 -13 -11 -25 -34 -29 -50 -5 -24 -9
-28 -27 -24 -17 5 -18 4 -6 -5 13 -9 13 -12 -2 -21 -10 -5 -22 -27 -28 -48
-19 -73 -96 -146 -162 -155 -18 -2 -41 -7 -50 -11 -10 -4 -30 1 -47 11 -32 19
-51 14 -33 -8 8 -10 -3 -14 -51 -17 -106 -8 -419 -6 -492 3 -38 4 -80 12 -92
18 -16 8 -30 7 -53 -2 -23 -10 -34 -10 -43 -1 -8 8 -8 11 2 11 7 0 10 4 7 9
-3 5 -25 5 -48 0 -65 -12 -75 -11 -52 6 17 13 13 14 -41 9 -49 -5 -63 -3 -74
10 -18 22 -31 20 -31 -5 0 -15 -4 -19 -16 -15 -9 3 -29 6 -45 6 -34 0 -39 17
-6 23 17 3 16 5 -8 6 -17 0 -44 -3 -62 -8 -27 -8 -31 -7 -26 6 5 14 -1 15 -41
11 -25 -3 -48 -2 -51 2 -2 4 -42 11 -87 14 -46 4 -121 14 -168 23 -47 8 -98
16 -113 17 -16 1 -35 9 -42 19 -14 20 -32 22 -37 5 -3 -7 -12 -9 -22 -5 -10 4
-16 13 -13 21 5 11 -3 14 -34 11 -21 -2 -39 1 -39 6 0 5 5 9 11 9 7 0 0 9 -15
21 -14 11 -26 29 -26 40 0 11 -12 31 -27 45 -20 19 -24 27 -15 36 17 17 15 25
-9 31 -16 4 -19 11 -14 26 3 12 2 21 -2 21 -5 0 -17 25 -27 55 -9 30 -21 57
-27 61 -6 4 -6 11 2 20 9 11 8 15 -5 20 -20 8 -21 33 -1 40 8 4 13 10 10 15
-3 4 -12 6 -20 3 -19 -8 -32 23 -16 39 6 6 11 18 10 27 0 10 -2 11 -6 3 -2 -7
-9 -13 -14 -13 -11 0 -2 69 11 83 7 8 230 34 340 40 36 2 190 4 343 5 184 1
340 -3 460 -14z m-1163 -18 c0 -11 -19 -15 -25 -6 -3 5 1 10 9 10 9 0 16 -2
16 -4z m1565 -6 c4 -6 -5 -10 -19 -10 -14 0 -26 5 -26 10 0 6 9 10 19 10 11 0
23 -4 26 -10z m-1678 -22 c6 -13 41 -120 78 -238 37 -118 83 -246 102 -283 50
-94 113 -149 204 -177 107 -32 189 -45 724 -111 612 -76 714 -80 992 -45 132
16 218 32 247 45 64 28 96 81 142 234 9 33 24 61 31 64 17 7 53 -25 53 -46 0
-21 69 -202 83 -220 25 -30 100 -51 297 -81 282 -43 262 -37 258 -68 -4 -35
13 -31 -323 -82 -66 -11 -137 -24 -159 -30 -21 -7 -49 -23 -62 -37 -14 -15
-37 -67 -55 -127 -16 -56 -35 -119 -42 -140 -7 -22 -20 -44 -30 -50 -15 -9
-22 -7 -38 13 -10 13 -19 33 -19 46 0 31 -58 225 -76 252 -8 13 -28 30 -45 38
-33 18 -271 50 -444 60 -61 4 -180 2 -265 -4 -310 -23 -1141 -125 -1235 -152
-94 -27 -168 -82 -209 -156 -14 -25 -39 -86 -55 -136 -25 -81 -132 -489 -145
-557 -3 -14 -12 -34 -20 -45 -12 -16 -18 -18 -33 -9 -21 13 -23 18 -63 194
-83 361 -102 426 -145 516 -26 55 -58 103 -79 122 -43 37 -119 66 -228 86
-120 23 -1105 156 -1148 156 -23 0 -43 7 -53 18 -14 15 -15 21 -4 35 9 13 64
24 242 47 127 17 257 35 290 40 33 5 161 23 285 40 314 42 414 59 495 87 159
54 191 100 305 443 39 115 70 217 70 225 0 26 24 55 46 55 12 0 25 -10 31 -22z
m-197 -60 c0 -18 -9 -60 -20 -92 -14 -40 -17 -63 -10 -70 15 -15 12 -23 -11
-29 -17 -5 -19 -9 -10 -25 8 -15 7 -23 -5 -33 -8 -7 -12 -19 -9 -26 2 -8 0
-24 -6 -35 -8 -15 -14 -17 -22 -9 -15 15 -28 14 -26 -1 4 -24 -22 -103 -39
-117 -12 -10 -14 -15 -4 -18 6 -3 12 -9 12 -14 0 -13 -34 -11 -48 3 -9 9 -12
8 -12 -4 0 -8 10 -23 23 -31 18 -13 19 -16 5 -16 -9 -1 -24 6 -33 15 -9 9 -19
13 -23 9 -4 -4 -1 -10 6 -12 6 -3 12 -10 12 -17 0 -16 -45 -40 -59 -32 -6 4
-39 0 -73 -8 -112 -26 -186 -38 -338 -53 -35 -3 -70 -12 -77 -19 -13 -13 -53
-8 -53 7 0 12 -41 11 -60 -1 -11 -7 -5 -10 23 -10 20 0 37 -4 37 -10 0 -15
-87 -12 -93 3 -3 9 -11 9 -36 0 -19 -7 -53 -9 -83 -6 -38 5 -49 3 -44 -5 4 -7
17 -13 29 -13 21 -2 -14 -7 -189 -27 -45 -5 -86 -12 -91 -15 -5 -3 -40 -6 -78
-8 l-70 -2 2 27 c1 18 15 39 39 59 21 18 63 58 95 89 32 32 74 64 93 72 20 8
36 22 36 31 0 11 6 14 24 9 13 -3 27 -1 30 5 4 6 17 11 28 11 20 0 21 1 3 20
-23 25 -12 39 13 17 10 -10 25 -17 33 -17 8 0 5 6 -9 16 -12 8 -22 20 -22 26
0 7 4 7 13 0 9 -8 34 0 92 28 44 22 88 40 98 40 19 0 24 30 5 31 -9 0 -10 2
-1 5 6 3 27 -2 47 -10 39 -16 48 -6 16 17 -19 13 -19 15 -4 21 10 4 22 2 28
-4 5 -5 16 -10 24 -10 9 0 11 7 7 22 -6 17 -4 20 10 15 9 -4 26 0 38 8 12 8
28 15 37 15 8 0 32 9 53 20 21 11 43 18 48 14 6 -3 21 -3 35 0 15 4 24 14 24
26 0 13 7 20 19 20 11 0 23 -4 26 -10 10 -16 32 -11 38 9 3 13 18 20 52 26 26
3 55 10 64 15 21 12 204 57 264 65 26 4 50 11 53 16 12 19 24 7 24 -23z m-565
-118 c-3 -5 -13 -10 -21 -10 -8 0 -14 5 -14 10 0 6 9 10 21 10 11 0 17 -4 14
-10z m468 -270 c-3 -11 -9 -20 -14 -20 -14 0 -11 28 4 33 6 3 13 6 14 6 0 1
-1 -8 -4 -19z m2827 1 c0 -5 -9 -11 -20 -14 -13 -3 -20 0 -20 9 0 8 9 14 20
14 11 0 20 -4 20 -9z m-3650 -281 c0 -5 -7 -10 -15 -10 -8 0 -15 5 -15 10 0 6
7 10 15 10 8 0 15 -4 15 -10z m3400 -20 c0 -5 -4 -10 -10 -10 -5 0 -10 5 -10
10 0 6 5 10 10 10 6 0 10 -4 10 -10z m-4116 -252 c5 -10 7 -10 12 0 7 15 24
16 24 1 0 -7 11 -22 25 -35 18 -17 49 -27 118 -39 50 -8 134 -17 186 -20 59
-2 97 -8 101 -16 5 -8 49 -13 126 -16 66 -3 121 -8 124 -12 9 -12 83 -30 145
-35 138 -12 385 -48 462 -68 33 -8 46 -8 58 2 18 15 18 14 6 -28 -11 -36 1
-42 22 -12 14 21 15 21 44 -9 18 -18 27 -33 21 -39 -5 -5 1 -26 15 -50 13 -23
26 -40 29 -37 3 3 3 -6 1 -20 -4 -18 -1 -25 11 -25 9 0 16 -7 16 -15 0 -8 -5
-15 -11 -15 -8 0 -8 -5 1 -15 7 -8 10 -24 7 -35 -3 -13 0 -20 9 -20 16 0 19
-16 4 -25 -5 -3 -10 -20 -10 -36 0 -36 21 -35 31 2 4 13 8 22 9 19 1 -3 4 -39
5 -80 2 -45 16 -119 34 -185 17 -60 34 -122 37 -137 4 -16 12 -28 18 -28 7 0
20 -18 30 -39 11 -27 22 -38 32 -34 10 4 14 -3 14 -25 0 -24 9 -38 40 -63 22
-18 40 -38 40 -44 0 -7 11 -17 25 -23 15 -7 25 -8 25 -2 0 18 27 10 44 -12 14
-21 17 -21 28 -7 9 11 20 14 33 8 11 -4 30 -5 43 -2 13 3 30 -1 40 -10 10 -9
58 -19 122 -27 58 -6 109 -16 114 -21 6 -5 18 -9 28 -9 11 0 18 -7 18 -19 0
-11 5 -23 11 -26 5 -4 8 -19 6 -33 -2 -15 -2 -22 0 -17 2 6 12 16 23 23 16 10
20 10 20 0 0 -7 -4 -19 -9 -26 -14 -22 35 -149 75 -192 l23 -25 -87 0 c-48 0
-92 3 -97 7 -6 3 -44 2 -85 -2 -82 -10 -161 -3 -138 11 7 5 11 9 8 9 -43 7
-86 11 -133 11 -31 1 -60 5 -63 10 -3 5 -20 9 -38 9 -18 0 -122 19 -232 41
-109 23 -215 44 -234 46 -19 3 -40 10 -47 15 -7 6 -14 5 -18 -2 -4 -7 -11 -5
-21 5 -9 8 -29 15 -45 15 -20 0 -29 5 -29 16 0 11 -5 14 -17 10 -9 -4 -20 -1
-24 6 -6 9 -11 9 -23 -1 -19 -16 -37 -6 -29 16 4 11 2 14 -5 9 -6 -4 -34 1
-62 10 -39 13 -50 21 -50 37 0 16 -3 18 -12 9 -14 -14 -68 -16 -68 -2 0 6 -9
10 -19 10 -11 0 -23 5 -26 11 -4 6 -13 8 -21 5 -17 -7 -54 27 -54 49 0 16 -12
20 -23 8 -4 -3 -2 -12 4 -20 14 -16 5 -17 -22 -2 -12 6 -18 17 -15 25 3 8 -1
14 -9 14 -9 0 -23 4 -33 9 -9 5 -40 19 -69 31 -28 13 -66 36 -83 51 -34 32
-53 37 -44 14 4 -8 1 -15 -6 -15 -8 0 -9 10 -5 29 5 26 4 29 -22 29 -15 0 -29
5 -31 11 -2 6 -12 11 -22 11 -9 0 -23 7 -30 15 -7 8 -19 15 -27 15 -7 0 -16 7
-19 15 -4 8 -12 15 -20 15 -8 0 -14 5 -14 10 0 6 7 10 15 10 9 0 15 9 15 22
l0 22 -16 -22 c-19 -27 -38 -29 -29 -2 9 29 -23 26 -35 -2 -8 -21 -9 -20 -9 9
-1 25 -7 34 -30 44 -17 7 -42 33 -57 56 -15 24 -33 43 -40 43 -8 0 -14 7 -14
15 0 8 7 15 15 15 8 0 15 4 15 9 0 12 -43 10 -51 -2 -9 -13 -29 1 -23 16 2 7
-5 22 -16 34 -23 25 -25 39 -7 46 10 4 10 7 0 18 -11 11 -13 10 -13 -4 0 -9
-4 -17 -9 -17 -16 0 -23 20 -13 33 7 8 6 18 -2 30 -13 17 -36 23 -36 9 0 -4 5
-13 12 -20 7 -7 9 -12 4 -12 -15 0 -35 27 -26 36 10 11 1 64 -11 64 -5 0 -9 9
-9 19 0 11 -4 22 -9 25 -5 4 -12 25 -16 48 -4 23 -16 57 -27 76 -13 25 -16 38
-9 45 6 6 11 51 11 103 0 64 6 110 20 154 11 35 26 70 33 78 9 12 9 16 0 19
-7 3 -13 9 -13 14 0 14 27 11 34 -3z m4881 -67 c3 -5 1 -12 -5 -16 -5 -3 -10
1 -10 9 0 18 6 21 15 7z m-1011 -23 c22 1 43 -3 47 -10 5 -8 15 -8 37 1 36 15
98 11 95 -6 -3 -14 35 -38 45 -28 4 3 0 10 -8 15 -12 7 -12 12 -2 22 9 9 12 9
12 -5 0 -9 7 -17 15 -17 9 0 18 -7 21 -15 4 -8 12 -15 18 -15 11 0 33 -62 52
-143 8 -34 -10 -57 -45 -57 -15 0 -32 -5 -37 -10 -16 -16 -93 -15 -151 2 -46
13 -56 13 -73 1 -21 -15 -60 -9 -60 8 0 5 10 9 22 9 15 0 19 3 12 10 -8 8 -19
8 -38 0 -33 -12 -96 -13 -96 -2 0 5 -11 15 -25 22 -55 29 -105 146 -90 209 l6
24 102 -9 c56 -4 120 -7 141 -6z m-591 -19 c3 -12 10 -18 17 -14 6 4 9 13 6
21 -3 8 1 14 10 14 13 0 15 -8 12 -35 -4 -31 -2 -34 15 -29 14 4 18 2 15 -7
-3 -8 -15 -15 -27 -17 -20 -3 -22 -8 -17 -38 7 -37 -7 -74 -28 -74 -7 0 -21
-9 -31 -20 -13 -14 -25 -18 -42 -13 -15 3 -28 1 -32 -6 -10 -15 -87 -25 -163
-22 -47 1 -58 -1 -58 -14 0 -11 -10 -15 -35 -15 -20 0 -52 -7 -72 -15 -25 -11
-40 -12 -47 -5 -5 5 -14 10 -18 10 -15 0 -90 -74 -99 -98 -6 -15 -15 -22 -23
-19 -16 6 -30 -19 -20 -35 3 -5 11 -2 18 8 8 10 15 13 19 7 4 -6 -2 -18 -13
-28 -19 -17 -18 -17 5 -41 13 -13 33 -24 44 -24 11 0 22 -4 25 -9 3 -5 15 -7
26 -4 11 3 20 0 20 -6 0 -6 -7 -11 -16 -11 -8 0 -13 -4 -10 -8 3 -5 21 -9 41
-10 20 -1 40 -4 46 -8 5 -3 93 -16 194 -29 123 -16 192 -29 209 -40 14 -10 26
-21 26 -25 0 -4 9 -10 20 -13 13 -3 18 -10 14 -21 -3 -9 -1 -23 6 -31 9 -11
11 -34 7 -74 -5 -43 -3 -61 6 -64 6 -2 9 -8 5 -12 -4 -4 -15 -4 -25 0 -10 5
-33 9 -50 10 -22 1 -33 -3 -33 -12 0 -7 -11 -13 -25 -13 -25 0 -36 19 -12 21
6 0 3 4 -8 8 -11 5 -28 5 -37 0 -10 -6 -19 -5 -23 1 -4 6 -28 10 -53 10 -50
-2 -204 16 -237 27 -19 6 -25 8 -51 11 -17 3 -33 48 -27 73 6 22 5 23 -12 9
-17 -14 -18 -13 -11 14 6 25 5 28 -7 18 -11 -10 -14 -6 -14 17 0 35 -48 121
-68 121 -8 0 -15 6 -15 13 0 6 -13 18 -30 25 -27 12 -33 11 -60 -8 -16 -12
-35 -18 -41 -14 -7 4 -9 3 -6 -3 4 -6 -7 -25 -23 -43 -17 -18 -30 -40 -30 -50
0 -10 -7 -23 -15 -30 -8 -7 -15 -25 -15 -41 0 -20 -5 -29 -16 -29 -12 0 -14
-7 -9 -30 7 -31 -2 -39 -23 -18 -10 10 -14 8 -18 -9 -6 -22 -17 -27 -106 -39
-26 -3 -46 -10 -43 -14 3 -5 -20 -6 -50 -3 -32 3 -65 1 -78 -5 -12 -6 -39 -12
-60 -14 -33 -4 -36 -2 -31 15 4 14 3 17 -6 12 -20 -12 -31 17 -14 36 8 9 14
27 13 40 -5 37 12 103 29 115 11 8 12 13 4 18 -7 4 -12 14 -12 22 0 10 6 13
18 9 15 -4 19 0 20 22 1 26 13 76 42 177 6 21 9 49 6 61 -5 20 -3 22 15 18 18
-5 20 -2 18 29 -3 36 17 98 32 98 5 0 9 -12 9 -26 0 -14 4 -23 10 -19 6 3 7
17 4 31 -6 23 -4 24 40 24 26 0 46 5 46 11 0 7 -11 8 -30 4 -19 -4 -30 -3 -30
4 0 6 6 11 14 11 7 0 19 7 26 15 17 21 37 19 43 -5 3 -11 12 -20 20 -20 10 0
13 8 10 24 -5 23 -1 24 64 34 71 11 202 28 288 38 28 3 106 11 174 18 93 10
127 18 136 30 13 18 40 21 50 6 9 -14 194 3 204 19 5 7 24 15 52 20 4 0 9 -8
12 -20z m327 1 c0 -11 -4 -20 -10 -20 -5 0 -10 9 -10 20 0 11 5 20 10 20 6 0
10 -9 10 -20z m-74 -98 c35 -114 70 -174 111 -195 41 -21 109 -34 293 -58 124
-16 192 -20 276 -15 116 6 301 39 344 61 41 21 57 45 91 135 17 47 39 93 48
103 15 18 16 18 37 -7 13 -14 30 -51 39 -83 21 -73 49 -120 83 -137 32 -16
309 -76 352 -76 66 0 106 -45 61 -70 -11 -5 -63 -15 -118 -21 -131 -14 -235
-35 -270 -52 -61 -32 -87 -79 -118 -210 -20 -86 -37 -109 -61 -85 -9 8 -31 66
-50 129 -19 62 -42 122 -52 132 -27 31 -70 45 -198 63 -208 29 -369 20 -682
-39 -98 -19 -125 -45 -157 -152 -13 -44 -29 -104 -36 -132 -6 -29 -19 -63 -29
-75 -17 -21 -20 -21 -34 -8 -9 8 -34 78 -56 154 -22 76 -45 147 -51 158 -20
37 -94 59 -283 83 -272 36 -279 37 -308 52 -16 7 -28 20 -28 29 0 8 12 19 28
25 15 6 117 21 227 34 221 26 255 32 301 51 51 21 82 68 115 177 18 56 37 110
43 120 6 10 20 16 30 15 16 -2 27 -25 52 -106z m1084 52 c0 -3 -5 -14 -11 -25
-12 -23 -29 -16 -29 12 0 12 7 19 20 19 11 0 20 -3 20 -6z m-47 -64 c3 -11 1
-22 -3 -25 -11 -7 -29 26 -23 43 6 16 19 7 26 -18z m-1343 -130 c0 -5 -7 -10
-16 -10 -8 0 -12 5 -9 10 3 6 10 10 16 10 5 0 9 -4 9 -10z m975 -20 c7 -11
-39 -25 -55 -15 -5 3 -8 11 -5 16 8 12 52 12 60 -1z m1195 -49 c0 -17 -5 -33
-11 -37 -6 -3 -9 -15 -6 -25 3 -11 1 -19 -5 -19 -6 0 -8 11 -4 28 4 15 7 39 6
55 0 15 4 27 10 27 5 0 10 -13 10 -29z m-2690 -161 c11 -11 15 -22 10 -25 -11
-7 -40 18 -40 34 0 16 7 14 30 -9z m2620 -25 c0 -8 -7 -15 -15 -15 -9 0 -15
-9 -15 -22 0 -13 -5 -30 -10 -38 -8 -13 -12 -11 -29 7 -25 26 -18 53 10 46 15
-4 22 0 26 16 6 24 33 29 33 6z m-81 -76 c11 -18 10 -27 -6 -57 -21 -41 -68
-92 -86 -92 -7 0 -3 -7 7 -15 19 -14 19 -15 0 -21 -25 -10 -64 -51 -64 -70 0
-7 -4 -14 -10 -14 -5 0 -10 5 -10 10 0 15 23 54 38 63 18 12 15 27 -5 27 -17
0 -43 -40 -43 -67 0 -7 -8 -13 -17 -13 -15 0 -15 -2 -4 -9 12 -8 11 -13 -10
-30 -13 -11 -31 -18 -41 -15 -19 6 -34 -11 -18 -21 19 -12 -1 -25 -26 -19 -21
5 -25 3 -23 -12 2 -11 0 -25 -5 -32 -6 -10 -11 -10 -22 -1 -19 16 -30 4 -14
-16 10 -13 9 -15 -9 -15 -13 0 -25 -9 -30 -22 -5 -14 -10 -17 -15 -10 -11 18
-26 14 -26 -7 0 -13 -5 -18 -17 -15 -11 3 -32 -8 -51 -26 -18 -16 -37 -30 -42
-30 -4 0 -11 6 -13 13 -4 9 -8 9 -15 -2 -6 -8 -8 -20 -5 -27 3 -8 -12 -14 -45
-19 -39 -5 -51 -11 -55 -27 -4 -14 -11 -19 -22 -14 -9 3 -18 0 -21 -8 -3 -7
-19 -23 -35 -36 -24 -17 -33 -19 -42 -10 -9 10 -9 14 2 18 27 10 50 40 44 61
-5 20 -3 21 21 11 35 -13 36 -13 30 4 -3 8 4 19 16 26 12 6 39 28 61 47 30 27
37 39 28 49 -6 7 -8 17 -5 23 4 5 -8 20 -25 32 l-32 22 23 9 c22 8 22 10 7 25
-14 14 -18 14 -32 3 -13 -11 -21 -11 -36 -2 -13 9 -25 9 -38 3 -24 -13 -32 -4
-25 25 4 17 2 24 -8 24 -8 0 -19 -5 -26 -12 -9 -9 -17 -9 -36 2 -14 7 -37 10
-52 7 -15 -3 -35 -1 -43 3 -15 8 -177 38 -226 42 -28 3 -45 28 -34 50 5 9 9
21 9 27 0 15 -27 14 -34 -1 -3 -7 -5 -4 -4 7 2 17 -24 63 -67 121 -14 19 3 30
25 16 15 -9 22 -8 36 5 14 14 34 17 108 15 179 -4 335 -24 371 -47 12 -7 29
-31 40 -54 10 -23 22 -41 27 -41 4 0 8 -6 8 -14 0 -7 7 -19 15 -26 8 -7 12
-17 8 -23 -4 -6 -11 -4 -19 7 -6 9 -15 13 -18 8 -3 -5 1 -15 9 -22 8 -7 15
-19 15 -27 0 -8 4 -11 10 -8 5 3 21 -2 35 -12 27 -20 34 -38 10 -29 -8 3 -15
1 -15 -4 0 -6 8 -10 18 -10 10 0 22 -4 28 -10 17 -17 69 -15 96 6 15 10 30 32
33 47 5 19 12 27 21 23 10 -4 14 2 14 21 0 15 10 37 22 50 12 12 23 34 24 49
7 67 57 93 222 115 51 6 95 16 98 20 7 12 28 1 43 -22z m-2657 -36 c8 -10 23
-47 33 -83 26 -94 72 -177 111 -200 67 -42 417 -86 614 -77 121 5 326 37 383
59 34 13 70 73 92 153 23 86 35 113 51 119 23 9 48 -29 67 -100 28 -103 50
-139 99 -162 29 -14 107 -29 236 -46 106 -14 206 -26 223 -26 43 0 69 -17 69
-45 0 -21 -6 -24 -47 -30 -249 -31 -402 -53 -445 -65 -55 -16 -92 -66 -124
-167 -15 -48 -36 -97 -46 -108 -16 -17 -20 -18 -32 -5 -7 8 -28 59 -46 113
-17 54 -43 111 -56 126 -27 32 -63 43 -219 65 -166 24 -274 28 -385 16 -172
-18 -403 -60 -435 -78 -17 -10 -40 -37 -52 -62 -12 -25 -34 -93 -49 -153 -17
-65 -35 -114 -47 -124 -18 -17 -19 -17 -30 2 -6 11 -29 78 -49 148 -21 71 -45
141 -53 156 -9 18 -31 35 -57 46 -24 9 -113 25 -198 36 -297 36 -360 50 -360
81 0 10 11 23 25 28 14 5 82 16 152 25 71 8 168 19 217 25 107 13 190 41 216
72 10 13 33 66 50 118 41 123 57 160 68 160 5 0 16 -8 24 -17z m1198 -26 c0
-5 -4 -6 -9 -3 -5 4 -11 0 -14 -6 -2 -7 -7 -10 -11 -6 -4 3 -2 15 5 27 10 14
15 17 21 8 4 -7 8 -16 8 -20z m-55 -10 c0 -19 -4 -22 -22 -19 -26 5 -29 12
-11 30 19 19 33 14 33 -11z m-19 -27 c19 0 23 -38 9 -68 -21 -40 -71 -86 -80
-72 -9 15 3 98 16 106 5 3 7 15 3 26 -5 18 -3 20 17 15 13 -4 29 -7 35 -7z
m44 -20 c0 -5 -4 -10 -10 -10 -5 0 -10 5 -10 10 0 6 5 10 10 10 6 0 10 -4 10
-10z m1110 -16 c0 -8 -4 -12 -10 -9 -5 3 -10 10 -10 16 0 5 5 9 10 9 6 0 10
-7 10 -16z m-1505 -133 c3 -5 1 -12 -5 -16 -5 -3 -10 1 -10 9 0 18 6 21 15 7z
m-3095 -21 c0 -5 -4 -10 -10 -10 -5 0 -10 5 -10 10 0 6 5 10 10 10 6 0 10 -4
10 -10z m3015 -291 c17 0 48 2 70 5 36 5 38 5 12 -5 -15 -6 -25 -15 -21 -20 8
-13 58 -11 72 3 10 10 14 10 20 1 5 -8 24 -11 52 -8 24 2 49 0 56 -6 7 -5 38
-14 69 -19 31 -5 64 -15 72 -22 23 -18 63 -85 63 -103 0 -9 9 -25 20 -37 24
-26 25 -37 5 -44 -8 -4 -15 -12 -15 -18 0 -15 -174 -50 -242 -49 -27 0 -48 -3
-48 -8 0 -5 7 -9 16 -9 8 0 12 -4 9 -10 -9 -14 -52 -12 -58 3 -4 9 -8 9 -15
-2 -7 -10 -23 -12 -58 -8 -33 3 -52 1 -61 -9 -19 -19 -47 -18 -39 1 7 20 -18
20 -48 0 -15 -10 -69 -19 -152 -26 -150 -11 -155 -12 -211 -3 -27 4 -43 2 -43
-4 0 -6 6 -13 13 -16 6 -3 -4 -3 -23 -1 -19 3 -66 7 -103 9 -38 2 -71 7 -74
10 -4 3 -1 7 5 7 7 1 17 3 22 4 6 1 14 3 20 4 5 0 7 7 4 15 -3 8 3 19 15 26
14 7 21 21 21 39 0 15 8 43 17 62 9 18 19 58 21 87 3 39 8 52 18 48 7 -3 17 1
22 10 5 9 49 21 132 34 69 11 144 24 166 29 23 6 64 8 92 4 32 -3 52 -1 56 6
5 7 -2 11 -18 11 -14 0 -26 5 -26 11 0 7 11 9 33 4 17 -4 46 -7 62 -6z m1174
2 c8 -5 11 -16 6 -30 -4 -14 -15 -21 -32 -21 -22 0 -24 -2 -13 -15 10 -12 10
-19 2 -27 -9 -9 -15 -9 -23 -1 -8 8 -21 6 -47 -9 -32 -18 -146 -57 -180 -62
-7 -1 -23 -11 -35 -22 -29 -25 -69 -46 -75 -39 -3 3 0 11 6 17 7 7 12 16 12
22 0 6 -5 5 -12 -2 -7 -7 -22 -12 -35 -12 -21 0 -22 2 -11 20 7 11 18 20 25
20 18 0 27 20 14 33 -6 6 -11 18 -11 27 1 12 4 11 15 -4 8 -11 15 -15 15 -9 0
5 9 21 21 34 15 17 39 27 87 36 37 7 95 16 130 19 42 5 62 11 62 20 0 9 12 14
33 14 17 0 38 -4 46 -9z m-630 -260 c7 -5 12 -14 10 -20 -3 -7 -11 -3 -21 9
-18 21 -13 26 11 11z"/>
<path d="M7637 5893 c-4 -6 0 -19 9 -27 8 -9 21 -13 27 -9 8 5 7 9 -5 11 -9 2
-18 11 -20 20 -2 12 -6 13 -11 5z"/>
<path d="M5387 5834 c-8 -8 1 -24 14 -24 5 0 9 7 9 15 0 15 -12 20 -23 9z"/>
<path d="M6518 5563 c6 -2 18 -2 25 0 6 3 1 5 -13 5 -14 0 -19 -2 -12 -5z"/>
<path d="M7934 5558 c-9 -14 1 -20 30 -16 l26 3 -25 12 c-16 7 -27 8 -31 1z"/>
<path d="M7250 5551 c0 -12 35 -20 50 -11 8 5 7 9 -5 14 -24 9 -45 8 -45 -3z"/>
<path d="M8475 5430 c-3 -5 1 -10 10 -10 9 0 13 5 10 10 -3 6 -8 10 -10 10 -2
0 -7 -4 -10 -10z"/>
<path d="M8490 5290 c0 -5 5 -10 10 -10 6 0 10 5 10 10 0 6 -4 10 -10 10 -5 0
-10 -4 -10 -10z"/>
<path d="M4819 5993 c-1 -5 -1 -16 0 -25 1 -10 -4 -18 -13 -18 -16 0 -21 -12
-10 -23 9 -9 44 37 44 57 0 16 -19 23 -21 9z"/>
<path d="M3650 5665 c0 -8 5 -15 10 -15 6 0 10 7 10 15 0 8 -4 15 -10 15 -5 0
-10 -7 -10 -15z"/>
<path d="M4635 5669 c-10 -15 3 -25 16 -12 7 7 7 13 1 17 -6 3 -14 1 -17 -5z"/>
<path d="M4691 4953 c-7 -8 -11 -16 -8 -19 2 -2 10 2 17 11 17 20 9 27 -9 8z"/>
<path d="M7380 5100 c0 -5 5 -10 10 -10 6 0 10 5 10 10 0 6 -4 10 -10 10 -5 0
-10 -4 -10 -10z"/>
<path d="M6093 4903 c15 -2 39 -2 55 0 15 2 2 4 -28 4 -30 0 -43 -2 -27 -4z"/>
<path d="M5930 4620 c0 -5 5 -10 10 -10 6 0 10 5 10 10 0 6 -4 10 -10 10 -5 0
-10 -4 -10 -10z"/>
<path d="M5255 4420 c4 -6 11 -8 16 -5 14 9 11 15 -7 15 -8 0 -12 -5 -9 -10z"/>
<path d="M6556 4393 c-9 -9 -7 -41 3 -47 5 -3 11 6 14 19 4 25 -4 40 -17 28z"/>
<path d="M6060 4371 c0 -12 5 -21 10 -21 6 0 10 6 10 14 0 8 -4 18 -10 21 -5
3 -10 -3 -10 -14z"/>
<path d="M8340 4444 c0 -8 5 -12 10 -9 6 4 8 11 5 16 -9 14 -15 11 -15 -7z"/>
<path d="M8110 4310 c0 -11 5 -20 10 -20 6 0 10 9 10 20 0 11 -4 20 -10 20 -5
0 -10 -9 -10 -20z"/>
<path d="M7785 4290 c-4 -6 5 -10 20 -10 15 0 24 4 20 10 -3 6 -12 10 -20 10
-8 0 -17 -4 -20 -10z"/>
<path d="M7970 4201 c0 -6 5 -13 10 -16 6 -3 10 1 10 9 0 9 -4 16 -10 16 -5 0
-10 -4 -10 -9z"/>
<path d="M6036 3861 c-4 -7 -5 -15 -2 -18 9 -9 19 4 14 18 -4 11 -6 11 -12 0z"/>
<path d="M7675 3989 c-10 -15 3 -25 16 -12 7 7 7 13 1 17 -6 3 -14 1 -17 -5z"/>
<path d="M3610 6210 c0 -5 5 -10 10 -10 6 0 10 5 10 10 0 6 -4 10 -10 10 -5 0
-10 -4 -10 -10z"/>
<path d="M1925 2880 c-11 -5 -33 -9 -49 -9 -18 -1 -46 -15 -72 -37 -24 -19
-48 -33 -53 -29 -10 5 -102 -86 -110 -108 -2 -7 -10 -20 -19 -29 -8 -10 -12
-24 -9 -33 4 -8 1 -14 -5 -12 -7 1 -18 -11 -27 -28 -10 -20 -16 -70 -19 -155
-4 -126 -4 -126 29 -194 18 -37 43 -76 56 -86 26 -21 32 -56 7 -46 -11 4 -14
1 -10 -12 5 -14 -3 -22 -29 -35 -20 -10 -40 -29 -46 -44 -19 -50 -22 -114 -9
-171 14 -58 73 -157 93 -157 7 0 11 -9 10 -20 -2 -22 32 -55 58 -55 10 0 23
-9 29 -20 6 -11 16 -20 23 -20 7 0 25 -7 40 -15 15 -8 34 -12 41 -9 8 3 17 1
21 -5 4 -8 141 -11 433 -11 433 1 511 7 532 39 4 8 12 11 18 7 5 -3 23 1 38 9
20 10 23 15 12 15 -25 0 -22 17 5 26 20 6 67 48 66 59 0 3 2 11 5 18 5 9 7 9
12 0 3 -7 10 -13 15 -13 6 0 7 4 4 10 -3 5 -2 17 2 25 7 12 22 3 78 -47 39
-33 71 -67 73 -75 2 -8 12 -11 28 -7 19 5 24 2 24 -12 1 -18 1 -18 15 0 8 11
16 17 16 13 1 -4 2 -11 3 -17 2 -15 45 -42 56 -35 6 4 17 2 24 -4 10 -8 134
-10 437 -8 233 3 434 5 446 6 12 1 31 13 41 26 11 14 25 25 30 25 10 0 66 34
135 82 23 16 27 16 27 3 0 -8 12 -20 26 -25 16 -7 24 -16 21 -24 -4 -9 4 -16
20 -21 19 -4 23 -9 14 -18 -15 -15 -14 -27 4 -27 8 0 15 5 15 10 0 6 5 10 11
10 6 0 8 -7 5 -17 -4 -9 -1 -20 6 -25 7 -4 242 -8 523 -8 516 0 615 6 615 37
0 16 22 17 38 1 19 -19 27 0 9 20 -24 26 -21 39 3 17 15 -13 23 -15 33 -7 10
8 16 6 25 -8 6 -11 9 -26 6 -33 -7 -20 37 -27 178 -27 90 0 129 4 154 16 32
15 45 34 24 34 -5 0 -10 5 -10 11 0 6 9 9 20 6 11 -3 20 -1 20 4 0 5 4 9 9 9
4 0 31 23 59 51 39 39 56 49 71 44 22 -7 28 4 11 21 -6 6 -6 15 0 24 8 12 11
11 16 -7 6 -22 9 -22 224 -25 215 -3 219 -3 244 -27 14 -14 26 -31 26 -38 0
-7 11 -18 25 -23 14 -5 25 -14 25 -20 0 -6 4 -8 10 -5 5 3 20 -4 32 -16 16
-15 19 -23 11 -26 -7 -3 -13 -9 -13 -14 0 -6 6 -9 13 -8 6 1 20 -1 29 -5 9 -4
81 -6 160 -4 103 2 151 7 173 18 27 14 33 14 60 0 20 -10 67 -16 146 -18 99
-3 120 -1 150 16 20 11 35 28 37 41 3 19 8 22 30 16 22 -5 25 -4 15 6 -18 18
-16 32 3 25 25 -10 37 4 17 20 -17 13 -17 15 -1 27 14 11 18 34 20 131 l3 118
223 -1 c123 -1 230 -5 237 -8 12 -4 15 -29 15 -118 0 -82 4 -120 16 -143 8
-18 20 -32 26 -32 6 0 8 -9 5 -20 -4 -17 -2 -20 15 -14 17 5 19 3 13 -15 -5
-15 -2 -21 9 -21 9 0 16 5 16 10 0 6 5 10 11 10 6 0 8 -8 4 -19 -4 -15 1 -20
26 -25 53 -10 237 -7 244 5 4 6 14 8 22 5 11 -5 13 -1 8 15 -6 18 -4 20 13 15
23 -8 36 16 27 45 -7 21 5 25 23 7 16 -16 28 -2 13 16 -9 11 -9 16 0 21 6 4
15 2 19 -5 5 -8 10 -9 14 -2 7 12 36 5 36 -9 0 -5 -7 -9 -15 -9 -8 0 -15 -5
-15 -11 0 -6 12 -9 28 -7 21 2 27 -1 26 -15 -2 -13 3 -16 18 -11 14 4 29 -3
52 -24 17 -17 43 -31 59 -33 39 -4 870 -2 912 2 29 2 34 6 29 21 -6 20 6 24
23 7 8 -8 14 -6 22 10 7 12 17 18 26 15 10 -4 15 0 15 15 0 17 6 21 30 21 17
0 30 5 30 11 0 6 10 9 22 7 13 -2 24 -11 26 -23 6 -30 19 -40 36 -26 11 9 16
9 21 0 4 -6 1 -15 -6 -20 -11 -8 -10 -12 6 -22 23 -13 95 -18 95 -5 0 4 -4 8
-10 8 -5 0 -10 5 -10 11 0 8 12 10 34 6 30 -5 33 -3 29 14 -4 14 0 19 14 19
22 0 41 20 62 62 10 18 12 46 8 84 -5 51 -11 62 -54 106 -34 35 -58 50 -85 54
-20 4 -45 15 -55 26 -16 18 -18 51 -21 379 -3 237 0 370 7 390 10 28 9 30 -10
24 -17 -6 -19 -3 -14 18 6 21 0 29 -34 53 -22 16 -41 34 -41 40 0 18 -73 34
-156 34 -106 0 -146 -12 -162 -49 -8 -17 -22 -31 -34 -33 -12 -2 -29 -17 -39
-35 -16 -29 -19 -67 -21 -372 -2 -211 -7 -343 -13 -349 -5 -4 -102 -6 -215 -3
-113 4 -207 5 -210 3 -2 -2 2 -7 10 -12 24 -15 2 -24 -25 -10 -28 15 -33 30
-10 30 22 0 18 17 -5 23 -19 5 -19 17 -22 346 l-3 341 -58 57 -57 58 -130 3
-130 4 -61 -61 c-33 -34 -69 -61 -80 -61 -22 0 -99 48 -99 62 0 5 -4 7 -9 4
-5 -4 -21 4 -35 16 -13 13 -37 25 -53 27 -15 2 -248 5 -518 7 -340 3 -502 1
-530 -6 -27 -8 -59 -30 -95 -66 l-55 -55 -5 -342 -5 -342 -23 0 c-18 0 -29 11
-43 43 -11 23 -24 42 -29 42 -6 0 -10 6 -10 13 0 8 -7 28 -16 45 -8 18 -13 36
-9 42 4 6 -3 9 -17 7 -17 -1 -23 3 -23 19 -1 31 -54 133 -76 145 -14 7 -18 16
-14 30 4 13 2 17 -7 14 -14 -6 -44 33 -33 43 3 4 10 0 15 -8 8 -13 10 -13 10
1 0 9 -10 24 -21 35 -12 10 -39 55 -61 99 -21 44 -44 85 -52 90 -7 6 -16 20
-20 33 -4 12 -12 22 -17 22 -5 0 -9 10 -9 21 0 18 -2 19 -15 9 -13 -10 -19 -9
-35 5 -13 11 -18 25 -14 37 4 13 1 16 -9 12 -8 -3 -18 -1 -22 5 -4 7 -61 11
-158 11 -158 0 -202 -9 -202 -42 0 -9 -11 -28 -24 -42 -17 -18 -31 -24 -43
-20 -13 4 -19 1 -17 -8 3 -27 -1 -38 -17 -38 -11 0 -14 -6 -9 -21 5 -15 1 -25
-13 -35 -11 -7 -27 -28 -36 -46 -9 -18 -26 -48 -37 -67 -11 -18 -17 -41 -14
-50 3 -11 -6 -28 -24 -45 -16 -15 -32 -44 -36 -63 -3 -19 -12 -36 -20 -39 -7
-3 -21 -20 -30 -37 -9 -18 -24 -45 -35 -62 -10 -16 -19 -37 -19 -46 -1 -22
-31 -79 -41 -79 -5 0 -11 8 -13 18 -4 16 -5 16 -6 0 -1 -24 -18 -23 -32 3 -9
17 -8 23 2 30 11 7 11 9 -2 9 -19 0 -33 26 -23 42 4 6 1 14 -7 18 -10 7 -10
11 0 24 7 8 10 20 6 27 -5 8 0 9 16 4 17 -4 20 -3 10 3 -11 8 -11 14 3 33 12
18 16 47 16 124 0 76 -4 106 -16 123 -12 17 -13 26 -5 36 8 10 7 17 -4 26 -8
7 -15 19 -15 26 0 8 -7 14 -15 14 -8 0 -15 5 -15 10 0 6 -24 35 -53 65 -37 39
-61 55 -79 55 -14 0 -28 6 -31 13 -3 8 -36 19 -79 26 -53 9 -202 11 -543 8
-258 -3 -480 -6 -492 -8 -16 -3 -21 -9 -17 -21 6 -20 -11 -25 -20 -5 -5 12 -7
10 -50 -48 l-15 -20 -7 20 c-10 25 -34 51 -34 36 0 -19 -22 -12 -27 8 -7 29
-77 43 -191 39 l-100 -3 -51 -52 c-28 -29 -51 -56 -51 -60 0 -5 -5 -14 -11
-20 -8 -8 -11 -110 -10 -347 2 -325 2 -335 -18 -345 -12 -7 -100 -11 -229 -11
-187 0 -211 2 -225 18 -14 15 -16 59 -17 337 -1 185 -6 325 -11 332 -7 7 -6
14 0 18 6 3 -16 33 -49 68 l-59 62 -121 3 c-82 3 -125 0 -135 -8 -8 -6 -19 -9
-26 -5 -8 5 -9 1 -4 -15 6 -18 4 -21 -12 -16 -13 4 -23 -3 -35 -24 -13 -23
-25 -30 -50 -31 -21 -1 -26 -3 -13 -6 33 -8 42 -23 13 -23 -27 0 -62 26 -53
39 2 5 -12 17 -32 27 -27 14 -37 16 -40 7 -8 -22 -25 -14 -18 7 5 15 2 20 -13
20 -10 0 -22 3 -26 8 -4 4 -20 9 -34 10 -63 9 -849 10 -867 2z m895 -30 c0 -5
-4 -10 -10 -10 -5 0 -10 5 -10 10 0 6 5 10 10 10 6 0 10 -4 10 -10z m1310 0
c0 -5 -4 -10 -10 -10 -5 0 -10 5 -10 10 0 6 5 10 10 10 6 0 10 -4 10 -10z
m2280 0 c0 -5 -4 -10 -10 -10 -5 0 -10 5 -10 10 0 6 5 10 10 10 6 0 10 -4 10
-10z m2420 0 c0 -5 -4 -10 -10 -10 -5 0 -10 5 -10 10 0 6 5 10 10 10 6 0 10
-4 10 -10z m-5910 -40 c0 -5 -4 -10 -10 -10 -5 0 -10 5 -10 10 0 6 5 10 10 10
6 0 10 -4 10 -10z m480 -416 c0 -219 3 -381 9 -397 5 -14 20 -35 32 -46 22
-20 32 -21 321 -21 l299 0 24 25 c14 13 25 32 26 42 0 10 2 189 2 398 2 332 4
379 17 376 8 -2 75 -4 148 -4 l132 0 -5 -459 c-5 -426 -6 -462 -24 -496 -26
-50 -66 -86 -126 -114 -50 -23 -51 -23 -500 -23 -437 0 -451 1 -496 21 -25 12
-62 38 -82 59 -66 68 -67 77 -67 570 0 243 2 444 4 446 2 2 68 2 146 -1 l141
-5 -1 -371z m5700 -5 c0 -319 2 -385 15 -409 8 -16 24 -34 34 -40 12 -6 132
-10 316 -10 l296 0 24 25 c14 13 25 34 25 47 0 13 1 192 3 398 2 328 4 374 17
371 8 -2 74 -4 145 -4 l130 1 -3 -452 c-3 -504 -3 -508 -71 -569 -21 -19 -64
-44 -96 -56 -56 -21 -68 -22 -494 -19 l-436 3 -58 28 c-31 16 -69 44 -83 63
-52 68 -53 76 -54 555 0 245 2 448 4 450 2 2 68 3 145 1 l141 -3 0 -380z
m-6268 354 c63 -19 120 -77 136 -137 6 -25 12 -75 12 -109 l0 -64 -151 2 -152
2 -14 35 c-8 19 -25 40 -39 47 -17 7 -122 11 -324 11 -164 0 -306 -3 -315 -6
-22 -9 -45 -56 -45 -93 0 -17 10 -41 23 -55 l22 -26 365 -15 c245 -11 382 -21
417 -31 94 -26 174 -107 201 -200 17 -59 15 -191 -4 -255 -12 -41 -28 -66 -68
-105 -81 -79 -81 -79 -586 -79 l-435 0 -70 35 c-55 27 -77 46 -102 83 -33 49
-48 117 -41 191 l3 39 145 -1 c80 -1 148 -2 153 -2 4 0 7 -9 7 -20 0 -28 26
-76 45 -84 8 -3 152 -6 320 -6 200 -1 311 3 324 10 29 15 41 42 41 93 0 33 -6
49 -25 67 -23 22 -33 23 -192 27 -93 2 -267 8 -388 12 -188 7 -227 11 -265 28
-102 45 -155 123 -166 240 -12 127 26 243 99 310 76 69 69 67 517 73 223 3
428 3 455 2 28 -2 71 -10 97 -19z m2846 6 c45 -15 98 -63 125 -113 19 -35 22
-57 22 -146 0 -119 -11 -151 -73 -209 l-36 -33 27 -15 c86 -44 123 -233 75
-378 -23 -73 -80 -146 -131 -170 -27 -12 -122 -15 -580 -17 l-547 -3 0 550 0
550 542 -3 c361 -1 554 -6 576 -13z m1087 -24 c12 -22 134 -247 270 -500 137
-253 262 -479 278 -503 16 -24 26 -50 23 -57 -4 -12 -11 -13 -33 -4 -16 6 -88
9 -166 8 -76 -1 -142 2 -147 7 -5 5 -29 47 -53 93 l-44 83 -317 1 c-182 0
-320 -3 -326 -9 -4 -5 -27 -45 -51 -89 -23 -44 -43 -81 -44 -83 -1 -1 -77 -4
-169 -5 -91 -1 -166 2 -166 6 0 5 15 34 34 65 32 54 490 900 535 990 l22 42
166 -2 166 -3 22 -40z m1774 16 c52 -27 94 -80 115 -144 10 -29 20 -88 23
-132 8 -109 -14 -184 -68 -239 l-40 -39 34 -36 c40 -41 72 -122 80 -201 4 -30
8 -106 9 -169 l3 -114 -148 -1 c-92 -1 -147 3 -147 9 -1 6 -1 73 0 151 0 77
-4 152 -9 167 -6 15 -25 36 -43 47 -31 19 -48 20 -342 18 l-310 -3 3 -195 3
-195 -149 1 -148 2 -3 548 -2 549 550 -2 c527 -2 551 -3 589 -22z m-4509 -26
c0 -8 -4 -15 -10 -15 -5 0 -10 7 -10 15 0 8 5 15 10 15 6 0 10 -7 10 -15z
m-1028 -360 c9 -4 13 -17 10 -40 -4 -36 -22 -49 -22 -17 0 9 -3 27 -6 40 -7
23 -4 25 18 17z m2948 -231 c0 -8 -4 -12 -10 -9 -5 3 -10 10 -10 16 0 5 5 9
10 9 6 0 10 -7 10 -16z m1338 -84 c18 -30 4 -46 -19 -21 -10 11 -19 25 -19 31
0 17 25 11 38 -10z m3072 -190 c0 -5 -4 -10 -10 -10 -5 0 -10 5 -10 10 0 6 5
10 10 10 6 0 10 -4 10 -10z m-46 -37 c22 -22 26 -34 24 -66 -2 -32 -10 -46
-40 -70 -35 -28 -40 -29 -65 -17 -53 27 -63 41 -63 88 0 36 5 49 28 68 37 33
82 31 116 -3z m-3984 -58 c0 -8 -2 -15 -4 -15 -2 0 -6 7 -10 15 -3 8 -1 15 4
15 6 0 10 -7 10 -15z m3907 -172 c-9 -9 -20 -14 -24 -10 -3 4 2 14 13 21 25
19 33 10 11 -11z m-5997 -3 c0 -5 -7 -10 -15 -10 -8 0 -15 5 -15 10 0 6 7 10
15 10 8 0 15 -4 15 -10z m4760 0 c0 -5 -4 -10 -10 -10 -5 0 -10 5 -10 10 0 6
5 10 10 10 6 0 10 -4 10 -10z"/>
<path d="M4834 2531 c-2 -2 -4 -49 -4 -103 l0 -98 325 0 326 0 24 24 c28 29
40 81 26 118 -21 56 -29 57 -374 60 -175 2 -321 1 -323 -1z"/>
<path d="M4835 2117 c-3 -7 -3 -59 -2 -116 l2 -103 330 1 c269 2 334 5 352 16
28 19 48 83 39 127 -3 19 -18 46 -32 59 l-26 24 -329 2 c-242 1 -331 -2 -334
-10z"/>
<path d="M6476 2295 c-48 -96 -92 -175 -97 -175 -5 0 -9 -7 -9 -15 0 -13 29
-15 200 -15 110 0 200 2 200 5 0 3 -23 46 -51 95 -27 50 -70 133 -95 185 -25
52 -48 95 -52 95 -4 0 -47 -79 -96 -175z"/>
<path d="M6257 2113 c-3 -5 -2 -15 2 -22 7 -10 10 -10 16 -1 4 6 3 16 -3 22
-5 5 -12 6 -15 1z"/>
<path d="M7696 2520 c-1 -3 -2 -49 -1 -104 l0 -99 314 2 c172 1 324 6 336 11
27 10 55 57 55 92 0 18 -29 79 -42 90 -6 5 -660 13 -662 8z"/>
<path d="M10243 1803 c9 -2 23 -2 30 0 6 3 -1 5 -18 5 -16 0 -22 -2 -12 -5z"/>
<path d="M10200 1756 c0 -20 5 -36 10 -36 6 0 10 13 10 29 0 17 -4 33 -10 36
-6 4 -10 -8 -10 -29z"/>
<path d="M10285 1757 c0 -17 6 -32 13 -34 17 -6 16 53 -1 60 -9 3 -13 -5 -12
-26z"/>
<path d="M10234 1719 c-9 -16 10 -31 30 -23 13 5 14 9 5 20 -14 17 -25 18 -35
3z"/>
<path d="M6340 2850 c0 -5 5 -10 10 -10 6 0 10 5 10 10 0 6 -4 10 -10 10 -5 0
-10 -4 -10 -10z"/>
<path d="M6780 2850 c0 -5 7 -10 15 -10 8 0 15 5 15 10 0 6 -7 10 -15 10 -8 0
-15 -4 -15 -10z"/>
<path d="M6930 1580 c0 -5 5 -10 10 -10 6 0 10 5 10 10 0 6 -4 10 -10 10 -5 0
-10 -4 -10 -10z"/>
</g>
</svg>
