<?xml version="1.0" encoding="UTF-8"?>
<svg version="1.1" xmlns="http://www.w3.org/2000/svg" width="1301" height="1251">
<path d="M0 0 C1.33910706 -0.00143281 2.67821395 -0.00303075 4.01732063 -0.00478554 C11.06208844 -0.0139728 18.10683773 -0.01813097 25.15161133 -0.01733398 C30.82742187 -0.01680746 36.50316235 -0.02372856 42.17895508 -0.0378418 C71.37070039 -0.10856792 100.55050026 -0.0215631 129.7309742 0.87250328 C132.33228282 0.95166133 134.93372194 1.02665157 137.53527641 1.09726906 C141.11154136 1.19747898 144.6865542 1.31728713 148.26196289 1.4440918 C149.3152006 1.47177076 150.3684383 1.49944973 151.4535923 1.52796745 C159.60523839 1.85788881 163.33901469 3.93174859 169.10668945 9.73120117 C170.48755486 11.11229317 170.48755486 11.11229317 171.89631653 12.52128601 C172.8867152 13.52189594 173.87700296 14.52261566 174.8671875 15.5234375 C175.89093439 16.55091804 176.91512635 17.57795531 177.93974304 18.60456848 C180.62547822 21.29791237 183.30515078 23.99720959 185.98358154 26.69781494 C188.72172808 29.45647954 191.46559833 32.20943821 194.20898438 34.96289062 C199.58372528 40.35903269 204.95207066 45.76148047 210.31640625 51.16796875 C213.9248477 49.64314145 216.20626171 47.50932223 218.94555664 44.73413086 C219.85652603 43.81655502 220.76749542 42.89897919 221.70606995 41.95359802 C222.1880591 41.46337095 222.67004826 40.97314388 223.16664314 40.46806145 C224.67947596 38.92963831 226.19852502 37.39760584 227.71934509 35.86708069 C230.94483578 32.61876856 234.16241478 29.36268895 237.37890625 26.10546875 C241.11003608 22.32714983 244.84433236 18.55207937 248.5871563 14.78534126 C250.08413987 13.2753861 251.57497752 11.75953683 253.06568909 10.24339294 C254.42741493 8.87175743 254.42741493 8.87175743 255.81665039 7.47241211 C256.6151088 6.66348007 257.4135672 5.85454803 258.23622131 5.02110291 C261.37288431 2.22680456 264.10087918 2.02694731 268.14421082 1.87481689 C269.14025267 1.8356591 270.13629452 1.79650131 271.16251945 1.75615692 C272.2551063 1.71835365 273.34769314 1.68055038 274.47338867 1.64160156 C275.62494005 1.59920601 276.77649143 1.55681046 277.96293831 1.51313019 C281.80321168 1.37549736 285.64370234 1.24707457 289.484375 1.12109375 C290.14702102 1.09897985 290.80966705 1.07686594 291.49239326 1.05408192 C321.508232 0.05353521 351.51310996 -0.14268018 381.54407012 -0.08916903 C386.29820754 -0.08158238 391.05226199 -0.08439999 395.80639648 -0.09277344 C487.29638723 -0.24966691 579.72295482 4.30921102 761.31640625 52.16796875 C759.86279517 63.14862541 748.70504197 72.40990125 741.31640625 80.16796875 C740.73375 80.80347656 740.15109375 81.43898438 739.55078125 82.09375 C734.30714128 87.64194482 728.14065774 92.15037317 722.10107422 96.78466797 C720.4700636 98.04886854 718.86258507 99.34328012 717.2578125 100.640625 C690.34224931 122.1660754 646.27656128 150.72554696 611.31640625 153.16796875 C609.56753943 151.41910193 609.85135232 148.80011786 609.56640625 146.41796875 C606.65191707 127.21169474 595.85923138 112.03099071 580.56152344 100.44384766 C520.6342862 56.63022961 432.66652633 55.17055952 361.31640625 54.16796875 C361.27246181 54.90013954 361.22851737 55.63231034 361.18324128 56.38666813 C360.53336611 65.98295976 359.25482184 75.43243821 357.88198757 84.94718647 C357.62806197 86.72911053 357.37450516 88.51108717 357.12128106 90.29311106 C356.42566459 95.18076654 355.72483448 100.06766215 355.0231374 104.95444785 C354.26020318 110.27432343 353.50216339 115.59489673 352.74349886 120.91538256 C351.41363756 130.23683972 350.08066165 139.55784734 348.7456398 148.87856674 C346.76052924 162.73810995 344.78024188 176.59833929 342.80094059 190.45871317 C339.47120174 213.77476651 336.13756046 237.09026025 332.80167961 260.40543556 C329.49871213 283.49065757 326.19748735 306.5761277 322.898592 329.66193199 C322.79609099 330.37923258 322.69358998 331.09653316 322.58798288 331.83557013 C321.6517771 338.38713136 320.71559275 344.93869565 319.77943412 351.49026362 C317.45238361 367.77578107 315.12506436 384.0612601 312.7975626 400.34671307 C312.69158059 401.08826721 312.58559859 401.82982135 312.476405 402.59384683 C307.32260107 438.65475019 302.16570053 474.71521062 297.00854492 510.77563477 C295.21918989 523.28736985 293.42984856 535.79910689 291.64056396 548.31085205 C291.52959038 549.08684548 291.41861679 549.86283891 291.30428036 550.66234729 C286.14414928 586.74519109 280.9862199 622.82834952 275.82885741 658.91158914 C275.49398351 661.25451809 275.15910866 663.5974469 274.82423361 665.94037569 C272.60497629 681.46725813 270.3857569 696.994146 268.1665629 712.52103749 C263.75102386 743.41495226 259.335262 774.30883519 254.91934704 805.20269624 C254.70905588 806.67389892 254.49876488 808.14510162 254.28847403 809.61630435 C242.47226166 892.28296145 230.6518957 974.94902458 212.31640625 1103.16796875 C211.65640625 1102.83796875 210.99640625 1102.50796875 210.31640625 1102.16796875 C209.68268641 1099.34630702 209.68268641 1099.34630702 209.131863 1095.475362 C209.02812287 1094.76415414 208.92438274 1094.05294629 208.81749896 1093.32018667 C208.46799259 1090.90831999 208.13162382 1088.49479647 207.79503441 1086.0810957 C207.54627675 1084.34549203 207.2967177 1082.61000307 207.04642078 1080.87462072 C206.35827716 1076.08710332 205.68152625 1071.29803271 205.00651648 1066.50864838 C204.28020081 1061.36955368 203.54340205 1056.23196183 202.8077929 1051.09419072 C201.5337833 1042.18591761 200.26636481 1033.27672666 199.00331426 1024.36689341 C197.1537203 1011.31990042 195.29380195 998.27439517 193.43119588 985.22925416 C190.61178379 965.48207205 187.79793958 945.73410268 184.98851112 925.98549788 C181.16074704 899.07924577 177.31795767 872.17517195 173.46404137 845.272654 C173.02279394 842.19249498 172.58159015 839.11232971 172.14039995 836.03216249 C170.96820885 827.8485551 169.79599374 819.66495115 168.62366641 811.48136327 C165.33657979 788.53442203 162.05513863 765.5866738 158.77407837 742.63887024 C158.47011422 740.51299587 158.16614936 738.38712161 157.86218379 736.26124745 C155.85177141 722.20071968 153.84157628 708.14016085 151.83146978 694.07958934 C151.352119 690.72656879 150.87276271 687.37354903 150.3934049 684.02052948 C144.19992325 640.69820337 138.00695683 597.37580361 131.81550096 554.05318793 C130.28066512 543.31369489 128.74580559 532.57420523 127.2109375 521.8347168 C127.04153781 520.64942062 126.87213812 519.46412445 126.6976051 518.24291021 C121.12898668 479.27922596 115.55725398 440.3159878 109.9839335 401.35297587 C104.18697705 360.82643088 98.39272556 320.29950012 92.60205003 279.77205717 C91.7873615 274.07026545 90.97264383 268.3684779 90.15790939 262.66669273 C89.9977095 261.5455515 89.8375096 260.42441026 89.67245516 259.26929505 C87.10442238 241.29774365 84.53356743 223.32659708 81.9616462 205.35560179 C79.39694576 187.4346026 76.83529094 169.5131702 74.27680518 151.5912827 C72.75962802 140.96429152 71.24010135 130.33764242 69.71724151 119.71146406 C68.70236138 112.62822305 67.69050617 105.54455429 66.68115476 98.46052334 C66.10578383 94.4229648 65.52906586 90.38561102 64.948667 86.34877191 C64.4214317 82.68151807 63.89803862 79.01373755 63.377755 75.34549119 C63.10081971 73.40018123 62.81974679 71.45546169 62.53852344 69.51076701 C62.37563354 68.35679778 62.21274365 67.20282856 62.0449177 66.01389056 C61.83224566 64.52625447 61.83224566 64.52625447 61.61527721 63.00856512 C61.3030652 60.04116975 61.26487883 57.14951518 61.31640625 54.16796875 C-62.090534 55.60923525 -62.090534 55.60923525 -168.93359375 109.91796875 C-179.95640226 121.40079816 -186.84356637 136.20744844 -187.68359375 152.16796875 C-191.08625914 153.32694668 -193.09069834 153.00424897 -196.48046875 151.90234375 C-197.42688232 151.59514404 -198.3732959 151.28794434 -199.34838867 150.97143555 C-200.36650635 150.6237915 -201.38462402 150.27614746 -202.43359375 149.91796875 C-203.49618408 149.55807861 -204.55877441 149.19818848 -205.65356445 148.82739258 C-217.37398741 144.74220502 -228.55843855 139.64918892 -239.68359375 134.16796875 C-240.59238281 133.72050293 -241.50117188 133.27303711 -242.4375 132.81201172 C-277.05504263 115.58512324 -319.75803156 90.5351131 -338.68359375 55.16796875 C-338.68359375 54.17796875 -338.68359375 53.18796875 -338.68359375 52.16796875 C-252.03383665 18.50157923 -159.69779427 6.79151473 -57.22115898 1.28101254 C-55.48093264 1.20348871 -53.74075751 1.12480892 -52.00062752 1.04515171 C-34.66149787 0.26351113 -17.3553125 0.00499849 0 0 Z " fill="#000000" transform="translate(439.68359375,147.83203125)"/>
<path d="M0 0 C6.84954996 0.00754349 13.69904204 0.00481486 20.54858989 -0.00360405 C66.00717594 -0.05796661 111.39089278 0.10860984 156.80835551 2.25713813 C157.6598543 2.29707641 158.5113531 2.33701469 159.38865489 2.37816322 C169.0567152 2.83661901 178.71459176 3.40556817 188.37085551 4.06963813 C189.62915171 4.15361854 190.88744792 4.23759895 192.18387431 4.32412422 C253.07639725 8.40641796 313.66593873 15.92895822 373.80835551 26.25713813 C374.80788249 26.42838203 375.80740947 26.59962593 376.83722514 26.77605903 C472.44079125 43.20873697 565.97751744 68.1849509 657.80835551 99.25713813 C656.27205287 102.87104298 654.10952901 105.24352295 651.37793559 108.04156196 C650.45970515 108.98546287 649.54147471 109.92936378 648.59541911 110.90186775 C647.59028438 111.92333349 646.5844222 112.94408385 645.57788676 113.96416938 C645.06992753 114.48027967 644.5619683 114.99638996 644.03861636 115.52813995 C641.35219317 118.256188 638.65933325 120.97769923 635.96143168 123.69439399 C633.17788647 126.50011966 630.41848244 129.32840523 627.66376799 132.16240108 C625.53832004 134.34011949 623.39530856 136.4998943 621.24717349 138.65521514 C620.22176584 139.69036203 619.20312253 140.73225585 618.19154376 141.78092086 C616.77531045 143.24581815 615.33103888 144.68345043 613.88574809 146.11968696 C613.07237483 146.9447927 612.25900157 147.76989845 611.42098063 148.6200074 C608.80835551 150.25713813 608.80835551 150.25713813 605.23723429 150.09124458 C600.13976181 148.8512373 600.13976181 148.8512373 597.86890239 148.04888618 C596.82479953 147.68593704 596.82479953 147.68593704 595.75960368 147.31565559 C595.02287928 147.05271202 594.28615489 146.78976844 593.52710551 146.51885688 C591.88548132 145.94642273 590.2437956 145.37416504 588.60205668 144.80206001 C587.74147654 144.49969429 586.8808964 144.19732856 585.99423808 143.88580024 C486.38338245 108.9810862 382.63293906 87.14678391 139.99585551 63.13213813 C139.15925395 63.09343605 138.32265239 63.05473396 137.46069926 63.01485908 C130.91135448 62.71734588 124.36062147 62.48010152 117.80835551 62.25713813 C116.59277964 62.21370277 115.37720378 62.17026741 114.12479228 62.12551582 C81.99541726 61.01467869 49.8539986 61.06933025 17.70985734 61.07202709 C12.43366702 61.07172528 7.15752864 61.0636109 1.88135356 61.05132759 C-30.42035092 60.97789116 -62.68950177 61.14320825 -94.97680074 62.18291938 C-96.92351328 62.24534293 -96.92351328 62.24534293 -98.90955335 62.30902755 C-124.36480777 63.14568135 -149.78682593 64.45197882 -175.19164449 66.25713813 C-176.18347738 66.3276136 -177.17531026 66.39808906 -178.19719869 66.47070014 C-284.94809063 74.13933033 -390.64129406 91.80786087 -573.11351949 144.54620063 C-574.1604749 144.89149314 -575.20743032 145.23678566 -576.28611165 145.59254158 C-577.25621679 145.91450004 -578.22632192 146.23645851 -579.22582418 146.56817329 C-580.06812581 146.84730567 -580.91042745 147.12643806 -581.77825338 147.414029 C-584.23955509 148.22822563 -584.23955509 148.22822563 -586.68950826 149.42519844 C-589.76270756 150.4470119 -591.15164414 150.35894865 -594.19164449 149.25713813 C-596.6151827 147.32807624 -596.6151827 147.32807624 -599.16552144 144.76910102 C-599.63442296 144.3039962 -600.10332448 143.83889137 -600.58643514 143.35969245 C-602.1275324 141.82598094 -603.65379573 140.27838855 -605.17992574 138.72979438 C-606.24822124 137.65911396 -607.3172579 136.58917258 -608.38700277 135.51994026 C-610.62314803 133.28067076 -612.85242413 131.03485333 -615.07665426 128.78374946 C-617.93261304 125.89372925 -620.80164451 123.01713314 -623.67543679 120.14485729 C-625.88157105 117.93818027 -628.08246269 115.72633796 -630.28160077 113.51269042 C-631.33819579 112.44971844 -632.39601767 111.38796454 -633.4550665 110.32743728 C-634.93007395 108.84811103 -636.3983174 107.36239973 -637.86474019 105.87456977 C-638.70237401 105.02931236 -639.54000783 104.18405494 -640.40302449 103.31318367 C-642.19164449 101.25713813 -642.19164449 101.25713813 -642.19164449 99.25713813 C-610.72531518 88.54099877 -579.1496098 78.40904066 -547.19164449 69.25713813 C-546.29542379 68.99972847 -545.39920308 68.7423188 -544.47582418 68.47710884 C-449.87548813 41.34576017 -352.86166662 23.24594118 -187.19164449 5.25713813 C-185.80268972 5.15462745 -185.80268972 5.15462745 -184.38567525 5.05004585 C-122.9530508 0.52493079 -61.56456903 -0.07567914 0 0 Z " fill="#000000" transform="translate(643.1916444897652,0.7428618669509888)"/>
</svg>
