<?xml version="1.0" encoding="UTF-8"?>
<svg version="1.1" xmlns="http://www.w3.org/2000/svg" width="800" height="500">
<path d="M0 0 C0.76002319 0.00202423 1.52004639 0.00404846 2.30310059 0.00613403 C3.49818993 0.00350555 3.49818993 0.00350555 4.71742249 0.00082397 C7.36457464 -0.00359563 10.01166058 -0.0006559 12.65881348 0.00271606 C14.49105339 0.00204299 16.32329323 0.00107293 18.15553284 -0.00018311 C22.00160571 -0.00166028 25.8476554 0.00049485 29.69372559 0.00515747 C34.63153653 0.01085076 39.56929307 0.00757841 44.50710201 0.00158501 C48.29281527 -0.0020235 52.07851556 -0.00088061 55.8642292 0.0017128 C57.68515593 0.00238147 59.50608383 0.00155571 61.3270092 -0.00076675 C63.86985273 -0.00329756 66.41260745 0.00055359 68.95544434 0.00613403 C69.7134433 0.0041098 70.47144226 0.00208557 71.25241089 0 C76.46544285 0.02126513 76.46544285 0.02126513 78.69396973 1.13552856 C81.02474316 1.44344726 83.35638869 1.6444813 85.69787598 1.85427856 C87.69396973 2.13552856 87.69396973 2.13552856 88.69396973 3.13552856 C90.89645829 3.48686387 93.106509 3.79123094 95.31896973 4.07302856 C100.28618025 4.75470428 104.91147953 5.60152227 109.69396973 7.13552856 C111.46424303 7.59602022 113.23513757 8.05412683 115.00646973 8.51052856 C119.4897674 9.72881598 123.70571823 11.25619802 127.98693848 13.04959106 C131.06196608 14.28315192 134.17981157 15.32610713 137.31896973 16.38552856 C149.64608739 20.77088062 160.82714646 26.93252605 171.70568848 34.15505981 C173.62450789 35.42674797 175.58469429 36.63919063 177.58850098 37.77224731 C178.28330566 38.22213013 178.97811035 38.67201294 179.69396973 39.13552856 C179.69396973 39.79552856 179.69396973 40.45552856 179.69396973 41.13552856 C180.26502441 41.40107544 180.8360791 41.66662231 181.42443848 41.94021606 C188.85230055 45.85230865 194.42648261 51.73772651 199.69396973 58.13552856 C200.47771973 59.0211145 201.26146973 59.90670044 202.06896973 60.81912231 C208.40500871 68.09204511 213.24974037 75.58510967 217.69396973 84.13552856 C218.17736816 85.03787231 218.6607666 85.94021606 219.15881348 86.86990356 C224.65480926 97.89530545 227.29761316 110.86570792 227.69396973 123.13552856 C227.73393066 124.25959106 227.7738916 125.38365356 227.81506348 126.54177856 C228.16106691 145.91797066 224.74736097 161.99444113 215.69396973 179.13552856 C215.2582666 179.98630981 214.82256348 180.83709106 214.37365723 181.71365356 C204.29987756 200.79379254 186.49542332 216.55411229 168.69396973 228.13552856 C167.08135254 229.18933716 167.08135254 229.18933716 165.43615723 230.26443481 C158.11291602 234.91425182 150.62178353 238.64090031 142.69396973 242.13552856 C141.8148291 242.56607544 140.93568848 242.99662231 140.02990723 243.44021606 C132.51551357 247.09525346 124.75206826 249.30584043 116.73498535 251.54910278 C113.8243847 252.38537823 110.94977577 253.32745961 108.06896973 254.26052856 C98.13412124 257.33560071 88.02579485 259.08483448 77.69396973 260.13552856 C77.03396973 260.46552856 76.37396973 260.79552856 75.69396973 261.13552856 C67.38699558 262.23186305 59.0232343 262.28334478 50.65881348 262.26834106 C49.45890274 262.26929779 48.258992 262.27025452 47.02272034 262.27124023 C44.50420071 262.27191613 41.98567929 262.27010338 39.46716309 262.26589966 C35.63842822 262.26053831 31.8098104 262.26586732 27.9810791 262.27224731 C25.5194903 262.27158652 23.05790158 262.27030533 20.59631348 262.26834106 C19.46580063 262.2703653 18.33528778 262.27238953 17.17051697 262.2744751 C-1.1348337 262.22112685 -1.1348337 262.22112685 -5.30603027 260.13552856 C-7.00512247 259.92392769 -8.70500694 259.71702755 -10.40808105 259.54031372 C-19.36895313 258.606671 -27.64672487 256.65999916 -36.30603027 254.13552856 C-37.45716309 253.82615356 -38.6082959 253.51677856 -39.79431152 253.19802856 C-52.86056115 249.64661304 -65.1349225 244.9578162 -77.15368652 238.74880981 C-81.14002018 236.70871589 -85.19476313 234.90762647 -89.30603027 233.13552856 C-89.30603027 232.47552856 -89.30603027 231.81552856 -89.30603027 231.13552856 C-90.95603027 230.80552856 -92.60603027 230.47552856 -94.30603027 230.13552856 C-94.30603027 229.47552856 -94.30603027 228.81552856 -94.30603027 228.13552856 C-95.04853027 227.84677856 -95.79103027 227.55802856 -96.55603027 227.26052856 C-98.87342824 226.31250212 -101.08520142 225.28706945 -103.30603027 224.13552856 C-103.30603027 223.47552856 -103.30603027 222.81552856 -103.30603027 222.13552856 C-104.38304199 221.78168091 -104.38304199 221.78168091 -105.48181152 221.42068481 C-108.77220769 219.92339527 -110.86789107 218.0477233 -113.49353027 215.57302856 C-116.64791964 212.49367058 -116.64791964 212.49367058 -120.30603027 210.13552856 C-120.30603027 209.47552856 -120.30603027 208.81552856 -120.30603027 208.13552856 C-121.29603027 207.80552856 -122.28603027 207.47552856 -123.30603027 207.13552856 C-123.30603027 206.47552856 -123.30603027 205.81552856 -123.30603027 205.13552856 C-123.96603027 205.13552856 -124.62603027 205.13552856 -125.30603027 205.13552856 C-145.30603027 183.70986665 -145.30603027 183.70986665 -145.30603027 174.13552856 C-145.96603027 174.13552856 -146.62603027 174.13552856 -147.30603027 174.13552856 C-148.09879067 171.61503464 -148.89026492 169.09414843 -149.68103027 166.57302856 C-150.0136084 165.51631958 -150.0136084 165.51631958 -150.35290527 164.43826294 C-157.1516855 142.74215546 -159.19212529 119.92086604 -151.30603027 98.13552856 C-150.95626269 96.80641174 -150.61507011 95.47470117 -150.30603027 94.13552856 C-149.64603027 94.13552856 -148.98603027 94.13552856 -148.30603027 94.13552856 C-148.21708496 93.1236145 -148.12813965 92.11170044 -148.03649902 91.06912231 C-147.44542295 86.96666236 -145.74586818 83.71124797 -143.61853027 80.19802856 C-143.25912354 79.5875769 -142.8997168 78.97712524 -142.52941895 78.34817505 C-140.13604588 74.34396988 -137.58123055 70.54334254 -134.68493652 66.88943481 C-133.21923765 65.02513228 -131.89182918 63.09444067 -130.55603027 61.13552856 C-129.81353027 60.14552856 -129.07103027 59.15552856 -128.30603027 58.13552856 C-127.64603027 58.13552856 -126.98603027 58.13552856 -126.30603027 58.13552856 C-126.07915527 57.57865356 -125.85228027 57.02177856 -125.61853027 56.44802856 C-123.93052991 53.47393269 -121.83926511 51.41543991 -119.30603027 49.13552856 C-118.64603027 49.13552856 -117.98603027 49.13552856 -117.30603027 49.13552856 C-117.30603027 48.47552856 -117.30603027 47.81552856 -117.30603027 47.13552856 C-115.94836426 45.88626099 -115.94836426 45.88626099 -114.05212402 44.49099731 C-113.36183105 43.97859497 -112.67153809 43.46619263 -111.96032715 42.93826294 C-111.22878418 42.4052356 -110.49724121 41.87220825 -109.74353027 41.32302856 C-109.03905762 40.80160278 -108.33458496 40.280177 -107.60876465 39.74295044 C-105.51495305 38.19719644 -103.41079767 36.66631404 -101.30603027 35.13552856 C-100.39035278 34.45321167 -100.39035278 34.45321167 -99.45617676 33.7571106 C-95.63714964 30.94566791 -91.77643761 28.71090309 -87.49353027 26.63552856 C-86.26037902 26.03412667 -85.02730646 25.43256338 -83.79431152 24.83084106 C-82.64317871 24.27138794 -81.4920459 23.71193481 -80.30603027 23.13552856 C-78.59674599 22.26238767 -76.88829783 21.38760624 -75.18103027 20.51052856 C-59.03672523 12.52936649 -41.85787709 7.91825417 -24.30603027 4.13552856 C-23.49134277 3.94216919 -22.67665527 3.74880981 -21.83728027 3.54959106 C-17.24953863 2.46550143 -12.75510614 1.78137009 -8.05603027 1.38162231 C-5.24147671 0.98582572 -3.21155389 0.01315431 0 0 Z M64.69396973 29.13552856 C65.10646973 29.69755981 65.51896973 30.25959106 65.94396973 30.83865356 C75.0745333 44.12688448 80.10173119 59.48456137 83.28820801 75.1736145 C83.94772476 78.36246927 84.70101241 81.52762086 85.44396973 84.69802856 C85.86102388 86.51043944 86.27785373 88.32290206 86.69396973 90.13552856 C88.69451854 90.01964311 90.69440564 89.89231802 92.69396973 89.76052856 C94.36459473 89.6561145 94.36459473 89.6561145 96.06896973 89.54959106 C99.4065678 89.1683568 102.44221942 88.52981044 105.6763916 87.67068481 C107.62512233 87.15379012 109.5892936 86.69622779 111.55334473 86.24099731 C131.68614118 81.52838807 131.68614118 81.52838807 146.69396973 68.13552856 C147.40085954 64.45970154 147.41185474 62.21135064 145.29943848 59.04568481 C139.89475149 52.72255429 134.13412224 48.58676546 126.63146973 45.13552856 C125.877771 44.78595093 125.12407227 44.43637329 124.34753418 44.07620239 C114.43458513 39.55593138 104.28942519 36.59279837 93.69396973 34.13552856 C92.99932617 33.9702063 92.30468262 33.80488403 91.58898926 33.634552 C82.65441345 31.51304747 73.90501873 29.54130165 64.69396973 29.13552856 Z M-15.24938965 32.6423645 C-17.62200872 33.21129738 -20.00211338 33.74027182 -22.38415527 34.26834106 C-32.09778326 36.44893362 -41.31360761 38.74297628 -50.30603027 43.13552856 C-51.89544434 43.8992981 -51.89544434 43.8992981 -53.51696777 44.67849731 C-60.58514483 48.09854727 -60.58514483 48.09854727 -67.30603027 52.13552856 C-67.30603027 52.79552856 -67.30603027 53.45552856 -67.30603027 54.13552856 C-67.90415527 54.38302856 -68.50228027 54.63052856 -69.11853027 54.88552856 C-71.8229361 56.43090332 -72.87345266 57.34200221 -74.30603027 60.13552856 C-75.04256326 63.32923463 -75.13029885 65.95158916 -74.30603027 69.13552856 C-66.14124482 80.26530385 -47.98623501 85.18266022 -34.99353027 87.32302856 C-34.0370459 87.45838013 -33.08056152 87.59373169 -32.09509277 87.73318481 C-28.5442822 88.24541659 -25.0624228 88.99791261 -21.55993652 89.76834106 C-19.10785878 90.167813 -16.78618118 90.19676686 -14.30603027 90.13552856 C-14.19533203 89.56109009 -14.08463379 88.98665161 -13.97058105 88.39480591 C-13.46153698 85.76589255 -12.94633583 83.13822145 -12.43103027 80.51052856 C-12.25700684 79.60689575 -12.0829834 78.70326294 -11.90368652 77.77224731 C-10.98064277 73.08865494 -9.91120565 68.64162329 -8.30603027 64.13552856 C-8.03403809 63.154552 -7.7620459 62.17357544 -7.48181152 61.16287231 C-5.39248319 53.6847786 -2.59120268 47.5079467 1.30334473 40.81521606 C2.92427936 38.1949019 2.92427936 38.1949019 2.69396973 35.13552856 C3.35396973 35.13552856 4.01396973 35.13552856 4.69396973 35.13552856 C5.68396973 33.15552856 6.67396973 31.17552856 7.69396973 29.13552856 C-0.16055218 29.13552856 -7.66091574 30.77151071 -15.24938965 32.6423645 Z M30.69396973 61.13552856 C26.30573721 67.05054244 23.70503573 74.10345671 21.69396973 81.13552856 C21.30209473 82.37302856 20.91021973 83.61052856 20.50646973 84.88552856 C19.49185671 88.38564343 19.49185671 88.38564343 19.69396973 93.13552856 C30.58396973 93.13552856 41.47396973 93.13552856 52.69396973 93.13552856 C49.81305459 76.55990373 49.81305459 76.55990373 41.69396973 62.13552856 C37.02559857 58.97017898 35.77275473 58.59613606 30.69396973 61.13552856 Z M-109.30603027 95.13552856 C-117.39738071 109.92316901 -120.1075573 129.10223564 -116.05212402 145.63162231 C-110.93582246 162.80203749 -103.8103547 175.53816601 -91.30603027 188.13552856 C-90.58415527 188.89478638 -89.86228027 189.65404419 -89.11853027 190.43630981 C-86.79932209 192.87975705 -86.79932209 192.87975705 -84.30603027 195.13552856 C-83.64603027 195.13552856 -82.98603027 195.13552856 -82.30603027 195.13552856 C-82.30603027 195.79552856 -82.30603027 196.45552856 -82.30603027 197.13552856 C-80.39961985 198.65095815 -78.50853174 200.02775786 -76.49353027 201.38552856 C-75.90402588 201.7873938 -75.31452148 202.18925903 -74.70715332 202.603302 C-69.42708286 206.1512821 -63.96788138 209.23638794 -58.30603027 212.13552856 C-57.53259277 212.55318481 -56.75915527 212.97084106 -55.96228027 213.40115356 C-42.332885 220.57930174 -27.39283088 225.10017984 -12.41540527 228.44021606 C-10.52538924 228.86285784 -8.63870152 229.30133724 -6.75915527 229.76834106 C-1.81083436 230.97982653 2.59661114 231.32088706 7.69396973 231.13552856 C7.2395752 230.443302 7.2395752 230.443302 6.77600098 229.73709106 C1.3047441 221.21876497 -2.61921279 212.87117602 -5.41149902 203.11599731 C-6.23866477 200.18571476 -6.23866477 200.18571476 -7.32556152 197.64334106 C-8.46128676 194.73841834 -9.13498322 191.86826926 -9.80603027 188.82302856 C-10.58552151 185.31108162 -11.38775647 181.83679457 -12.33728027 178.36599731 C-13.55092847 173.5442838 -13.92192283 168.70667751 -14.30603027 163.76052856 C-14.46856648 161.82289993 -14.63265522 159.88540096 -14.79821777 157.94802856 C-14.88039551 156.98123169 -14.96257324 156.01443481 -15.04724121 155.01834106 C-15.44461154 150.59178554 -15.92953893 146.17633896 -16.43103027 141.76052856 C-16.51868652 140.98789673 -16.60634277 140.21526489 -16.69665527 139.41921997 C-16.89791683 137.65777559 -17.10165732 135.89661466 -17.30603027 134.13552856 C-19.82650819 133.65442894 -22.34738397 133.17560253 -24.86853027 132.69802856 C-25.57300293 132.56332153 -26.27747559 132.4286145 -27.0032959 132.28982544 C-30.29963126 131.66701553 -33.56799037 131.10103763 -36.89587402 130.66287231 C-40.4940896 130.10644723 -43.81979098 129.17868582 -47.30603027 128.13552856 C-49.70168925 127.5306709 -52.09752761 126.92652334 -54.49353027 126.32302856 C-67.339336 122.96088503 -79.73750015 117.41307309 -90.93103027 110.26052856 C-93.92339721 107.95792414 -93.92339721 107.95792414 -96.30603027 108.13552856 C-96.30603027 107.47552856 -96.30603027 106.81552856 -96.30603027 106.13552856 C-98.94287774 103.73732551 -98.94287774 103.73732551 -102.30603027 103.13552856 C-102.63603027 102.14552856 -102.96603027 101.15552856 -103.30603027 100.13552856 C-103.96603027 100.13552856 -104.62603027 100.13552856 -105.30603027 100.13552856 C-105.63603027 99.14552856 -105.96603027 98.15552856 -106.30603027 97.13552856 C-106.96603027 97.13552856 -107.62603027 97.13552856 -108.30603027 97.13552856 C-108.63603027 96.47552856 -108.96603027 95.81552856 -109.30603027 95.13552856 Z M180.69396973 95.13552856 C180.11131348 95.76459106 179.52865723 96.39365356 178.92834473 97.04177856 C159.48692822 117.33910649 129.17752529 128.05648049 101.61975098 131.73318481 C97.26985577 132.331368 92.98753538 133.22447852 88.69396973 134.13552856 C88.71459473 135.18740356 88.73521973 136.23927856 88.75646973 137.32302856 C88.70405969 140.52004095 88.31624056 143.03777118 87.69396973 146.13552856 C87.51075416 148.01319315 87.35765793 149.89395491 87.22912598 151.77615356 C87.11214355 153.38296997 87.11214355 153.38296997 86.99279785 155.02224731 C86.83635737 157.2486152 86.68267129 159.4751785 86.53186035 161.70193481 C86.11565202 167.35289344 85.5238613 172.75956916 84.14294434 178.26101685 C83.59580584 180.4103978 83.59580584 180.4103978 83.19396973 183.76052856 C82.22033969 190.33253134 79.91883278 196.52650635 77.69396973 202.76052856 C77.4335791 203.49787231 77.17318848 204.23521606 76.90490723 204.99490356 C75.83161285 208.01964225 74.74649188 211.01009737 73.50646973 213.97146606 C72.51822283 216.2183632 72.51822283 216.2183632 72.69396973 219.13552856 C72.03396973 219.13552856 71.37396973 219.13552856 70.69396973 219.13552856 C70.34463379 219.83420044 69.99529785 220.53287231 69.63537598 221.25271606 C67.98824056 224.5469869 66.34110514 227.84125773 64.69396973 231.13552856 C69.85525162 231.28337779 74.62373666 230.77068994 79.69396973 229.76052856 C80.36686035 229.63420044 81.03975098 229.50787231 81.73303223 229.37771606 C86.13285883 228.52832869 90.39393748 227.40833811 94.69396973 226.13552856 C96.33945801 225.6927356 96.33945801 225.6927356 98.01818848 225.24099731 C118.78151576 219.57388708 141.78998387 209.0185178 157.69396973 194.13552856 C157.69396973 193.47552856 157.69396973 192.81552856 157.69396973 192.13552856 C158.25084473 191.90865356 158.80771973 191.68177856 159.38146973 191.44802856 C162.3555656 189.7600282 164.41405838 187.6687634 166.69396973 185.13552856 C166.69396973 184.47552856 166.69396973 183.81552856 166.69396973 183.13552856 C167.68396973 182.80552856 168.67396973 182.47552856 169.69396973 182.13552856 C171.2654546 180.18441533 172.67809182 178.27137244 174.06896973 176.19802856 C174.46817627 175.60828247 174.86738281 175.01853638 175.27868652 174.41091919 C186.67299541 157.29975856 191.93760268 137.55732357 188.44396973 117.19802856 C188.24589722 116.0261499 188.24589722 116.0261499 188.04382324 114.83059692 C186.75006332 107.65719345 184.76140473 101.23668107 180.69396973 95.13552856 Z M16.69396973 137.13552856 C17.14771973 140.95115356 17.60146973 144.76677856 18.06896973 148.69802856 C18.20738281 149.88726929 18.3457959 151.07651001 18.48840332 152.30178833 C19.52948468 160.8307576 21.70938481 168.44850392 24.75646973 176.44802856 C25.02523926 177.16281372 25.29400879 177.87759888 25.57092285 178.61404419 C27.00417768 182.42971432 27.00417768 182.42971432 28.69396973 186.13552856 C29.35396973 186.13552856 30.01396973 186.13552856 30.69396973 186.13552856 C31.02396973 187.12552856 31.35396973 188.11552856 31.69396973 189.13552856 C34.36353275 191.35371183 34.36353275 191.35371183 36.63146973 191.01052856 C42.82114279 188.38460666 45.31059401 182.01500058 47.69396973 176.13552856 C52.3069442 163.31026307 53.70037052 150.68460871 54.69396973 137.13552856 C42.15396973 137.13552856 29.61396973 137.13552856 16.69396973 137.13552856 Z " fill="#000000" transform="translate(362.3060302734375,66.86447143554688)"/>
<path d="M0 0 C2.76102808 2.62955055 4.71988293 5.202682 6.625 8.5 C6.625 9.16 6.625 9.82 6.625 10.5 C7.285 10.5 7.945 10.5 8.625 10.5 C13.9074727 23.94629414 15.09543814 33.6968821 9.625 47.5 C4.30524021 57.66426727 -3.68443365 65.24256467 -14.375 69.5 C-19.09515504 70.31398557 -23.6576396 70.34256319 -28.4375 70.25 C-29.63955078 70.27320313 -30.84160156 70.29640625 -32.08007812 70.3203125 C-40.41683839 70.26573469 -45.73959906 68.51835067 -52.375 63.5 C-53.04950195 63.00250244 -53.72400391 62.50500488 -54.41894531 61.99243164 C-62.23924223 56.01082217 -67.16948197 46.98742394 -69.375 37.5 C-70.79960776 26.18302248 -68.32900703 15.29787358 -62.1875 5.625 C-55.33926979 -2.82828416 -46.3560645 -8.03030221 -35.8125 -10.25 C-21.59056635 -11.28432245 -11.42374597 -8.86918971 0 0 Z M-43.375 13.5 C-45.6523501 16.31509993 -45.6523501 16.31509993 -45.375 19.5 C-46.035 19.5 -46.695 19.5 -47.375 19.5 C-49.06956873 26.97523463 -49.67785301 35.50929522 -46.5625 42.68359375 C-43.54049957 47.30606151 -38.90743012 50.47837992 -34.375 53.5 C-27.79800616 54.23077709 -21.96447972 54.22631981 -16.375 50.5 C-16.375 49.84 -16.375 49.18 -16.375 48.5 C-15.385 48.17 -14.395 47.84 -13.375 47.5 C-8.59402977 41.5583318 -7.15884744 34.99708085 -7.375 27.5 C-7.99871701 23.7304854 -7.99871701 23.7304854 -9.375 20.5 C-9.766875 19.489375 -10.15875 18.47875 -10.5625 17.4375 C-13.19735752 13.16721368 -16.86116111 9.75691945 -21.375 7.5 C-30.28959289 6.57578368 -37.10908447 6.57717397 -43.375 13.5 Z " fill="#000000" transform="translate(310.375,366.5)"/>
<path d="M0 0 C6.6486912 6.03327516 12.76683014 13.89742661 14 23 C14.13573228 26.00147608 14.1396303 28.99591263 14.125 32 C14.12886719 32.7940625 14.13273437 33.588125 14.13671875 34.40625 C14.13005759 38.4029478 13.99085908 42.09947535 13 46 C12.34 46 11.68 46 11 46 C10.814375 47.11375 10.814375 47.11375 10.625 48.25 C10.04513299 50.80141485 9.26291261 52.7267573 8 55 C7.34 55 6.68 55 6 55 C5.62875 55.87398437 5.62875 55.87398437 5.25 56.765625 C3.81474554 59.33114236 2.22336987 60.83724798 0 62.75 C-0.70125 63.36359375 -1.4025 63.9771875 -2.125 64.609375 C-4 66 -4 66 -6 66 C-6 66.66 -6 67.32 -6 68 C-12.71355114 71.72975063 -19.26154171 71.55064606 -26.8125 71.5625 C-28.03259766 71.59923828 -29.25269531 71.63597656 -30.50976562 71.67382812 C-38.9726175 71.7147554 -44.26636905 70.11762508 -51 65 C-51.85283569 64.3970813 -51.85283569 64.3970813 -52.72290039 63.78198242 C-59.42676712 58.70290577 -63.64700674 51.96277851 -66 44 C-66.20496094 43.35160156 -66.40992188 42.70320313 -66.62109375 42.03515625 C-69.35503822 32.51348759 -67.66895734 24.38901065 -65 15 C-64.34 15 -63.68 15 -63 15 C-62.92265625 14.27941406 -62.8453125 13.55882812 -62.765625 12.81640625 C-61.80629268 9.28743378 -60.23596141 7.6004421 -57.75 4.9375 C-56.98171875 4.10089844 -56.2134375 3.26429688 -55.421875 2.40234375 C-39.98621634 -12.90883379 -17.01028826 -12.31779495 0 0 Z M-39 12 C-39 12.66 -39 13.32 -39 14 C-39.99 14.33 -40.98 14.66 -42 15 C-46.79458834 22.61493442 -47.7255493 30.32269343 -46.5 39.1875 C-44.92451889 45.87264959 -40.67113582 50.05735577 -35.25 54 C-29.12470808 55.8847052 -23.258497 55.91871064 -17.3125 53.5 C-16.549375 53.005 -15.78625 52.51 -15 52 C-15 51.34 -15 50.68 -15 50 C-14.01 49.67 -13.02 49.34 -12 49 C-6.44861188 41.76637305 -5.02872935 34.953123 -6 26 C-7.82402217 18.71545576 -12.03123122 14.34092275 -18 10 C-20.92460429 8.53769785 -23.55652824 8.79091273 -26.8125 8.75 C-28.03582031 8.72421875 -29.25914062 8.6984375 -30.51953125 8.671875 C-34.21057709 9.01985239 -36.10202815 9.72578209 -39 12 Z " fill="#000000" transform="translate(464,365)"/>
<path d="M0 0 C7.59 0 15.18 0 23 0 C28 10.5 28 10.5 28 15 C28.66 15 29.32 15 30 15 C30.30292969 15.87140625 30.60585938 16.7428125 30.91796875 17.640625 C33.31792501 24.46388526 35.83990156 31.18112139 38.671875 37.83984375 C40.49431608 42.17618149 42.22300195 46.54850271 43.94506836 50.92553711 C44.92934356 53.40966023 45.90965584 55.83191784 47.17578125 58.1875 C48 60 48 60 48 64 C48.66 64 49.32 64 50 64 C52.41970302 68.83940605 52 70.91477059 52 77 C45.07 77 38.14 77 31 77 C28.15110468 71.01001496 26.09751075 66.5850645 25 60 C15.43 60 5.86 60 -4 60 C-4.33 61.98 -4.66 63.96 -5 66 C-6.20918245 69.7198143 -7.61606324 73.33926405 -9 77 C-16.59 77 -24.18 77 -32 77 C-31.22220458 72.33322751 -30.64209604 69.79232246 -28.6875 65.75 C-27.03216353 62.24068668 -25.46485535 58.7428411 -24.0625 55.125 C-22.4916191 51.10482724 -20.71729252 47.21566213 -18.875 43.3125 C-16.81196575 38.90510865 -15.10139136 34.73598284 -14 30 C-13.34 30 -12.68 30 -12 30 C-11.8865625 29.13761719 -11.773125 28.27523438 -11.65625 27.38671875 C-10.98308804 23.91272218 -9.91179352 21.05059619 -8.5 17.8125 C-7.23219545 14.88254471 -6.00973092 12.02919275 -5 9 C-4.34 9 -3.68 9 -3 9 C-2.87625 8.2575 -2.7525 7.515 -2.625 6.75 C-2 4 -2 4 0 0 Z M11 24 C10.03857983 26.20703372 9.08080463 28.41553533 8.125 30.625 C7.72087891 31.55119141 7.72087891 31.55119141 7.30859375 32.49609375 C5.66457079 36.30541524 4.31788212 40.04635363 3 44 C8.28 44 13.56 44 19 44 C18.30527124 41.22108497 17.59415831 38.75905596 16.58984375 36.109375 C16.18862305 35.04589844 16.18862305 35.04589844 15.77929688 33.9609375 C15.50150391 33.23132813 15.22371094 32.50171875 14.9375 31.75 C14.65583984 31.00492187 14.37417969 30.25984375 14.08398438 29.4921875 C13.3913087 27.66070607 12.69592093 25.83025077 12 24 C11.67 24 11.34 24 11 24 Z " fill="#000000" transform="translate(569,359)"/>
<path d="M0 0 C2.00528113 0.01604225 4.01051101 0.03985507 6.015625 0.0703125 C7.01851563 0.04710937 8.02140625 0.02390625 9.0546875 0 C12.02885559 0.06311232 14.4409892 0.2524463 17.265625 1.1953125 C19.74579116 3.84655048 20.88060738 6.87476552 22.265625 10.1953125 C23.2058888 11.88759057 24.17130127 13.56611695 25.16015625 15.23046875 C25.64033203 16.05869141 26.12050781 16.88691406 26.61523438 17.74023438 C27.09798828 18.57103516 27.58074219 19.40183594 28.078125 20.2578125 C28.58021484 21.12341797 29.08230469 21.98902344 29.59960938 22.88085938 C30.8208833 24.98610299 32.04289782 27.09091272 33.265625 29.1953125 C36.84867072 25.00679841 39.53596742 20.51816989 42.265625 15.7578125 C43.53079263 13.56293836 44.79909989 11.37259394 46.10253906 9.20019531 C47.13534936 7.41987664 48.04630674 5.57010822 48.9375 3.71484375 C51.6014136 0.83191712 52.27592269 0.75343624 56.03125 0.390625 C57.8587577 0.33765376 59.68735694 0.3151913 61.515625 0.3203125 C62.91941406 0.289375 62.91941406 0.289375 64.3515625 0.2578125 C66.65713939 0.21075991 68.95966662 0.19086575 71.265625 0.1953125 C71.760625 2.6703125 71.760625 2.6703125 72.265625 5.1953125 C71.605625 5.1953125 70.945625 5.1953125 70.265625 5.1953125 C70.08 6.0615625 70.08 6.0615625 69.890625 6.9453125 C69.25913676 9.21867017 68.37704309 11.1206654 67.265625 13.1953125 C66.605625 13.1953125 65.945625 13.1953125 65.265625 13.1953125 C64.99492187 13.93007813 64.72421875 14.66484375 64.4453125 15.421875 C63.3146633 18.08002379 62.03734208 20.20688954 60.390625 22.5703125 C58.55649249 25.21107921 56.92194034 27.81705005 55.36328125 30.63671875 C54.02235188 33.03169289 52.76757382 34.7720474 50.94140625 36.88671875 C41.21992172 48.69711731 43.03195796 63.67056917 43.265625 78.1953125 C36.995625 78.1953125 30.725625 78.1953125 24.265625 78.1953125 C24.27916016 75.12089844 24.27916016 75.12089844 24.29296875 71.984375 C24.27208182 69.96530498 24.25093528 67.94622952 24.22290039 65.92724609 C24.20988541 64.54058827 24.2089108 63.15375651 24.22094727 61.76708984 C24.29687728 51.75155899 22.64506815 45.96118723 16.265625 38.1953125 C14.9498946 36.19735769 13.66439686 34.17923918 12.40625 32.14453125 C11.76558594 31.11650391 11.12492187 30.08847656 10.46484375 29.02929688 C9.82160156 27.99095703 9.17835938 26.95261719 8.515625 25.8828125 C7.85691406 24.82513672 7.19820313 23.76746094 6.51953125 22.67773438 C4.76268382 19.85359323 3.00800533 17.02840174 1.265625 14.1953125 C0.70198242 13.30046143 0.13833984 12.40561035 -0.44238281 11.48364258 C-1.734375 9.1953125 -1.734375 9.1953125 -1.734375 7.1953125 C-2.394375 7.1953125 -3.054375 7.1953125 -3.734375 7.1953125 C-4.394375 5.2153125 -5.054375 3.2353125 -5.734375 1.1953125 C-4.09941078 -0.43965172 -2.25297131 0.02585377 0 0 Z " fill="#000000" transform="translate(325.734375,357.8046875)"/>
<path d="M0 0 C21.12 0 42.24 0 64 0 C64 5.28 64 10.56 64 16 C63.505 16.495 63.505 16.495 63 17 C55.74 17 48.48 17 41 17 C41 36.8 41 56.6 41 77 C34.73 77 28.46 77 22 77 C21 76 21 76 20.87974548 73.67784119 C20.8830764 72.13562645 20.8830764 72.13562645 20.88647461 70.56225586 C20.88655014 69.40112778 20.88662567 68.23999969 20.88670349 67.04368591 C20.89186478 65.780168 20.89702606 64.51665009 20.90234375 63.21484375 C20.9037587 61.92888809 20.90517365 60.64293243 20.90663147 59.31800842 C20.91045582 55.89356557 20.92028538 52.46916491 20.93133545 49.04473877 C20.94155136 45.55261811 20.94612947 42.06049066 20.95117188 38.56835938 C20.96190774 31.71222047 20.97950386 24.8561166 21 18 C14.07 17.67 7.14 17.34 0 17 C0 11.39 0 5.78 0 0 Z " fill="#000000" transform="translate(176,359)"/>
<path d="M0 0 C21.78 0 43.56 0 66 0 C66 5.28 66 10.56 66 16 C65.505 16.495 65.505 16.495 65 17 C57.74 17 50.48 17 43 17 C43 36.8 43 56.6 43 77 C36.73 77 30.46 77 24 77 C24 57.2 24 37.4 24 17 C16.41 17 8.82 17 1 17 C-1.32613583 13.51079626 -1.24247293 12.05047454 -1.1875 7.9375 C-1.18105469 6.87402344 -1.17460937 5.81054688 -1.16796875 4.71484375 C-1 2 -1 2 0 0 Z " fill="#000000" transform="translate(480,359)"/>
</svg>
